/* XPM */
static char *gftp-mini-logo[] = {
/* columns rows colors chars-per-pixel */
"52 19 256 2",
"   c #080910",
".  c #1d1d1f",
"X  c #171822",
"o  c #1f1f22",
"O  c #1c1e2c",
"+  c #191d34",
"@  c #201f1e",
"#  c #201f24",
"$  c #21201f",
"%  c #222224",
"&  c #24242c",
"*  c #282726",
"=  c #2b2b2b",
"-  c #232530",
";  c #2a2b39",
":  c #2e2c36",
">  c #302f35",
",  c #323134",
"<  c #1f2c64",
"1  c #202647",
"2  c #292b4a",
"3  c #2a2e57",
"4  c #2f3142",
"5  c #2a345b",
"6  c #303246",
"7  c #31354d",
"8  c #37394d",
"9  c #383641",
"0  c #3d3b43",
"q  c #3a3b4c",
"w  c #323652",
"e  c #363951",
"r  c #3b3d5b",
"t  c #31345c",
"y  c #2d3263",
"u  c #2a3572",
"i  c #32376c",
"p  c #363e71",
"a  c #393f78",
"s  c #3d4163",
"d  c #374073",
"f  c #3b4376",
"g  c #3e4778",
"h  c #424147",
"j  c #40414f",
"k  c #47495b",
"l  c #494957",
"z  c #504f56",
"x  c #54535c",
"c  c #43486e",
"v  c #4c4e6b",
"b  c #474964",
"n  c #454d7e",
"m  c #484d76",
"M  c #4a5075",
"N  c #504e62",
"B  c #555464",
"V  c #54536a",
"C  c #595a68",
"Z  c #575a7a",
"A  c #5b5d77",
"S  c #5a5d7b",
"D  c #525578",
"F  c #686a6e",
"G  c #646476",
"H  c #60627d",
"J  c #6e6d79",
"K  c #7d7d7d",
"L  c #71747e",
"P  c #1f3586",
"I  c #26378b",
"U  c #37458e",
"Y  c #3d4883",
"T  c #384894",
"R  c #324396",
"E  c #3453c5",
"W  c #3b5ace",
"Q  c #404b87",
"!  c #414c8a",
"~  c #475189",
"^  c #4b5385",
"/  c #4b5589",
"(  c #4a599f",
")  c #545881",
"_  c #535d8a",
"`  c #585e8b",
"'  c #525a91",
"]  c #4e5aa1",
"[  c #4a5db1",
"{  c #425aba",
"}  c #505fa4",
"|  c #5d648c",
" . c #576297",
".. c #5a6190",
"X. c #5362a7",
"o. c #596aa3",
"O. c #5e6fba",
"+. c #5666b2",
"@. c #63668c",
"#. c #63688e",
"$. c #6b6c85",
"%. c #6c6f8d",
"&. c #646b9b",
"*. c #6c7194",
"=. c #747288",
"-. c #7d7c88",
";. c #737590",
":. c #707598",
">. c #7b7e9b",
",. c #636da3",
"<. c #686fa1",
"1. c #626eac",
"2. c #6971a3",
"3. c #6a74ac",
"4. c #6e79af",
"5. c #6775b4",
"6. c #6a76b4",
"7. c #6e7cba",
"8. c #6172bc",
"9. c #7076a4",
"0. c #777ca6",
"q. c #415dc5",
"w. c #4661c7",
"e. c #4c69d0",
"r. c #516bcc",
"t. c #506ed7",
"y. c #5b72cc",
"u. c #5e7bdf",
"i. c #5a73d1",
"p. c #5373e4",
"a. c #647acd",
"s. c #6c7ec2",
"d. c #6b7fce",
"f. c #657ed6",
"g. c #627ee0",
"h. c #7f83a1",
"j. c #7c83ad",
"k. c #7c85b7",
"l. c #7b86bc",
"z. c #6d83d2",
"x. c #7385cd",
"c. c #7689d3",
"v. c #748adb",
"b. c #7b8cd1",
"n. c #7d90d6",
"m. c #7e92da",
"M. c #6481e5",
"N. c #758de2",
"B. c #7b92e3",
"V. c #8e8e8e",
"C. c #838382",
"Z. c #8c8b98",
"A. c #94939d",
"S. c #8186ad",
"D. c #878db3",
"F. c #888db3",
"G. c #8c91b7",
"H. c #8d94bc",
"J. c #9593a4",
"K. c #9796a8",
"L. c #9997a4",
"P. c #9b9aa8",
"I. c #9a9ebe",
"U. c #a2a5af",
"Y. c #a7a6b4",
"T. c #adabb9",
"R. c #b3b3b3",
"E. c #bdbdbd",
"W. c #828ec3",
"Q. c #8b97cb",
"!. c #8f9ac9",
"~. c #8193d7",
"^. c #8395d9",
"/. c #8b99d3",
"(. c #8d9ddc",
"). c #949cc4",
"_. c #939ccb",
"`. c #909fda",
"'. c #919ed2",
"]. c #8096e5",
"[. c #859ae6",
"{. c #8b9fe7",
"}. c #9da5cb",
"|. c #91a0d7",
" X c #91a0db",
".X c #99a5d7",
"XX c #99a7db",
"oX c #9fabdd",
"OX c #8da0e4",
"+X c #91a4e5",
"@X c #94a7e9",
"#X c #97a9ea",
"$X c #9cadea",
"%X c #9fb0eb",
"&X c #a5a9c7",
"*X c #a7abca",
"=X c #a2aedb",
"-X c #a8afd4",
";X c #acb6db",
":X c #bcbbc7",
">X c #b7bdd7",
",X c #b8bcd7",
"<X c #babfd9",
"1X c #b5bcdb",
"2X c #a2afe3",
"3X c #a5b3e4",
"4X c #a3b3ec",
"5X c #aab7e4",
"6X c #abbaed",
"7X c #adb8e2",
"8X c #a9b9f2",
"9X c #b0beee",
"0X c #bdc2dd",
"qX c #b7c1e6",
"wX c #b4c1ef",
"eX c #bbc3e3",
"rX c #b9c3ea",
"tX c #b6c3f0",
"yX c #bbc7f1",
"uX c #bdc9f1",
"iX c #c0bfbe",
"pX c #c7c5be",
"aX c #c4c3c5",
"sX c #c3c2cd",
"dX c #cccccc",
"fX c #cdccd5",
"gX c #d0cfd7",
"hX c #d3d3d3",
"jX c #d8d8d6",
"kX c #dbdbdc",
"lX c #c6cbe4",
"zX c #c7cfee",
"xX c #c9cee4",
"cX c #c3cdf2",
"vX c #cbd3ef",
"bX c #c7d0f2",
"nX c #cbd4f3",
"mX c #d6d9e8",
"MX c #d4dbf4",
"NX c #d9dff6",
"BX c #dde2f6",
"VX c #dfe5f8",
"CX c #e0dfe4",
"ZX c #e4e4e4",
"AX c #e8e7ed",
"SX c #e9e9e9",
"DX c #e1e6f8",
"FX c #e5e9f9",
"GX c #eeeef0",
"HX c #eaeefa",
"JX c #eef1fb",
"KX c #f1f1ef",
"LX c #f3f3f4",
"PX c #f3f5fb",
"IX c #f7f8fd",
"UX c #fdfdfe",
/* pixels */
"UXUXUXUXUXUXUXUXUXUXUXUXUXUXUXUXUXUXUXUXUXUXUXUXUXUXUXUXUXUXUXUXUXUXUXUXUXUXLXSXSXSXSXSXSXSXSXZXSXUXUXUX",
"UXUXIXIXIXPXPXPXJXJXHXJXHXFXFXDXFXDXBXVXBXMXBXMXMXMXnXMXMXbXnXbXnXnXcXcXnX7XU.jXkXkXkXkXkXkXkXZXR.dXUXUX",
"IXPXPXFXFXFXMXNXNXcXnXuXtXcX6X9X6X@X6X+X^./.a.b.c.y.x.r.y.d.q.y.q.E a.E W I A IXGXIXUXUXUXUXUXUXhXdXkXUX",
"UXPXPXPXFXFXBXDXDXnXBXbXnXnXcXyXuX9XrX=X4.*./ @.@.~ #.! _ ` Q / ! ! ' } T w B L.Y.hXSXLXUXUXUXGXdXUXaXSX",
"IXIXPXJXFXFXDXDXBXMXnXbXnXrX7X2X5X5X3X_.r % % % # o # # @ . = % o # # a + % # % , J aXSXUXUXUXLXdXjXdXR.",
"UXIXIXPXFXJXVXDXDXnXBXcX;X*XS.S.G.l.}.k.w % 3 c m p D g p t & ; y u Q u - # V G 0 % -.mXIXUXUXUXUXUXLXdX",
"UXIXIXJXFXJXVXVXBXnXMX1XS.l & & 4 6 *.3.w % f ,.1.+.W.s.O.' O 6 } { x.I O : K.T.=.% x fXLXUXUXUXLXUXSXjX",
"UXIXIXJXPXFXFXBXBXMXxXI.j % r k ; % H ,.e % 2 s c M 5.(.a.,.& 1 6.r.c.I O 0 J.Y.$.$ C hXLXUXUXUXUXUXjXZX",
"UXIXIXPXPXJXFXBXDXMX0X;.@ V 0.F.v % S 2.e = O % % & ,.(.f.2.& 2 7.e.n.T O > x B , = A.mXLXUXUXUXUXUXhXGX",
"UXUXIXPXFXJXDXDXFXbX,XA # $._.).A $ S 2.7 % i | &.X.Q.v.z.2.O 8 +.e.^.U - = % * h Z.hXKXUXUXUXUXUXUXdXUX",
"UXUXIXIXJXJXDXFXFXnX0XG # H H.H.D . Z 2.7 & ' !.XXv.5XN.^.,.- q [ f.m.Y X 9 =.P.:XmXKXUXUXUXUXUXUXLXhXUX",
"UXUXIXIXJXJXFXFXDXMX0X>.% q @.) q % m 0.e & &.|.2X[.#XB.`.] , q [ m.i.~ X l T.mXKXLXUXUXUXUXUXUXUXSXkXUX",
"UXUXIXIXPXPXFXFXFXMXmX&Xb % % % % * Z j.7 o ,.oX6X].6X[.^.4.& q 8.z.m.f   z sXLXUXUXUXUXUXUXUXUXUXjXSXUX",
"UXUXUXPXJXPXFXFXFXMXBX>XS.A e r 2 @ %.l.| G 7.%X%XB.tX[.v.W.u | x.t.(.< z A.kXLXUXUXUXUXUXUXUXUXUXhXLXUX",
"UXUXUXIXPXJXFXFXDXBXMX,X$.k c r & ; D.'.oX.XXX$X%X$X$X$XB.(.a.b.^.g.^.5 aXAXSXUXUXUXUXUXUXUXUXUXIXdXUXUX",
"UXUXUXIXIXPXPXDXFXVXMX0XV $ % % 0 &.-X3XrX6X6X$X4X%X%X4XN.$Xm.OX+XM.s.k KXPXUXUXLXUXIXUXUXIXUXUXKXhXUXUX",
"UXUXUXIXPXPXFXFXFXMXBXeX!.Z.#.*.F./.7X6X%XtXOX4X4XB.4XB.N.$Xp.[.N.p.o.L UXUXUXUXUXUXUXUXUXUXUXUXZXkXUXUX",
"UXUXUXUXIXPXPXPXHXHXFXBXmXxXlXlXxXnXnXMXnXcXcXuXyXyXtXtXtX6X6X6X4X6X..F E.R.R.R.R.R.R.R.R.R.R.E.pXLXUXUX",
"UXUXUXUXUXUXUXUXUXUXUXUXUXUXUXUXUXUXUXUXUXUXUXUXUXUXUXUXUXUXUXUXUXUXpXC.K K K K K K K K K K K V.mXUXUXUX"
};
