/* XPM */
static char * pet_xpm[] = {
"16 14 85 1",
" 	c None",
".	c #8F5902",
"+	c #F6F0E5",
"@	c #E2CCA8",
"#	c #E3D0B2",
"$	c #E3D0B1",
"%	c #E5D2B2",
"&	c #E7D3B2",
"*	c #E0C599",
"=	c #E2CEAD",
"-	c #E2CAA6",
";	c #BA9861",
">	c #F1E5D2",
",	c #EFE0C7",
"'	c #935E08",
")	c #99630D",
"!	c #945E07",
"~	c #9A650E",
"{	c #9B650F",
"]	c #A06A14",
"^	c #A26D19",
"/	c #A87B33",
"(	c #F9F3EA",
"_	c #CDAE7C",
":	c #B79255",
"<	c #946212",
"[	c #F2E7D3",
"}	c #EDDDC3",
"|	c #95610E",
"1	c #9B6A1B",
"2	c #A87C35",
"3	c #A87D37",
"4	c #C2A26D",
"5	c #F3E7D0",
"6	c #CBAE7F",
"7	c #C4A36D",
"8	c #93600F",
"9	c #EBDBC0",
"0	c #C4A673",
"a	c #F0D5AB",
"b	c #F0D4A8",
"c	c #EFD3A8",
"d	c #EFD3A7",
"e	c #EFD1A1",
"f	c #EFD5AB",
"g	c #C4A570",
"h	c #C9AB7B",
"i	c #AD8544",
"j	c #F0D5AD",
"k	c #F0D1A2",
"l	c #F0CE99",
"m	c #F0CD97",
"n	c #EFCC94",
"o	c #EFCA90",
"p	c #EEC98E",
"q	c #EEC78A",
"r	c #EDC587",
"s	c #EDC485",
"t	c #EED3A8",
"u	c #AC8443",
"v	c #93600E",
"w	c #C3A370",
"x	c #F0D7AF",
"y	c #F0D7AE",
"z	c #EFD7AE",
"A	c #EFD6AE",
"B	c #D8B57E",
"C	c #D7B074",
"D	c #000000",
"E	c #C78C33",
"F	c #DDB77E",
"G	c #D29A46",
"H	c #DAB47B",
"I	c #E3BE87",
"J	c #DDA858",
"K	c #DFBB83",
"L	c #E8C792",
"M	c #E7B66A",
"N	c #E3C08A",
"O	c #EED5AC",
"P	c #ECCD9E",
"Q	c #ECCD9D",
"R	c #E5CB9F",
"S	c #8F5D0C",
"T	c #855201",
"  ............  ",
"..+@#$$%%&*=-;..",
".>,'))!~{]^/(_:<",
".[}|||1123345678",
".90abbbbbcdefgh8",
".ijklmnopqrrstuv",
".wxxxxxyyzzzAAB.",
"................",
" .CDDDEDDDEDDD. ",
" .FDGDGDGGGGDH. ",
" .IDDDJDDJJJDK. ",
" .LDMMMDMMMMDN. ",
" .ODPPPDDDPQDR. ",
" S............T "};
