<?xml version="1.0" encoding="UTF-8"?>
<svg xmlns="http://www.w3.org/2000/svg" version="1.1" height="22px" width="22px" viewBox="0 0 192 192">
  <path style="fill:#BF3603;stroke:#545454;stroke-width:6;" d="m 96,8 a 88 88 1 1 0 0.1,0 z"/>
  <path style="fill:none;stroke:#545454;stroke-width:6;" d="m 40,40 a 40,40 0 0 1 -10,-30 a 40,40 0 0 0 30,30 m 86,0 a 40,40 0 0 0 10,-30 a 40,40 0 0 1 -30,30 m 116,0 "/>
  <path style="fill:#FFF;stroke:#545454;stroke-width:6;" d="m 30,120 q 66,80 132,0 z"/>
  <path style="fill:none;stroke:#545454;stroke-width:6;" d="m 48,62 q 15,-9 30,0"/>
  <path style="fill:none;stroke:#545454;stroke-width:6;" d="m 114,62 q 15,-9 30,0"/>
</svg>
