<?xml version="1.0" encoding="UTF-8"?>
<svg xmlns="http://www.w3.org/2000/svg" version="1.1" height="22px" width="22px" viewBox="0 0 192 192">
  <path style="fill:#B77918;stroke:#545454;stroke-width:6;" d="m 20,55 a 90 90 0 0 1 156,0 a 8 16 1 1 1 0,20 a 82 82 1 1 1 -156,0 a 8 16 1 1 1 0,-20 z"/>
  <path style="fill:#F5E4C9;stroke:none;" d="m 96,54 a 20 20 0 0 1 50,20 a 60 60 1 1 1 -100,0 a 20 20 0 0 1 50,-20"/>
  <path style="fill:none;stroke:#545454;stroke-width:6;" d="m 80,100 q 16,-20 32,0"/>
  <path style="fill:none;stroke:#545454;stroke-width:6;" d="m 60,130 c 30,10 62,-10 82,0"/>
  <circle style="fill:#545454;stroke-width:6;" cx="70" cy="80" r="10"/>
  <circle style="fill:#545454;stroke-width:6;" cx="122" cy="80" r="10"/>
</svg>
