<svg xmlns="http://www.w3.org/2000/svg" xmlns:xlink="http://www.w3.org/1999/xlink" height="2304" width="4096"><defs><linearGradient id="c"><stop style="stop-color:#3d4f81;stop-opacity:1" offset="0"/><stop style="stop-color:#5b90b8;stop-opacity:1" offset="1"/></linearGradient><linearGradient id="a"><stop style="stop-color:#18275e;stop-opacity:1" offset="0"/><stop style="stop-color:#98cafb;stop-opacity:1" offset="1"/></linearGradient><linearGradient x1="10" y1="80" x2="50" y2="20" id="b" gradientUnits="userSpaceOnUse" gradientTransform="translate(159.322 203.39)"><stop style="stop-color:#b9c3cf;stop-opacity:1" offset="0"/><stop style="stop-color:#6183a6;stop-opacity:1" offset="1"/></linearGradient><linearGradient xlink:href="#a" id="d" x1="531.743" y1="-.22" x2="528.916" y2="452.328" gradientUnits="userSpaceOnUse" gradientTransform="matrix(3.72257 0 0 2.81348 .198 .014)"/><linearGradient xlink:href="#b" id="e" x1="502.954" y1="640.163" x2="487.001" y2="392.676" gradientUnits="userSpaceOnUse" gradientTransform="matrix(3.71799 0 0 4.12001 -6.5 -685.779)"/><radialGradient xlink:href="#c" id="f" cx="543.872" cy="540.5" fx="543.872" fy="540.5" r="550.499" gradientTransform="matrix(6.93702 .0025 -.00074 1.36528 -1769.08 1105.64)" gradientUnits="userSpaceOnUse"/></defs><path style="fill:url(#d);fill-opacity:1;stroke:none;stroke-width:3.23627;stroke-opacity:1" d="M0 0h4095.994v1542.562H0Z"/><path style="fill:url(#e);fill-opacity:1;stroke:none;stroke-width:3.91385px;stroke-linecap:butt;stroke-linejoin:miter;stroke-opacity:1;image-rendering:auto" d="M.004 1578.928H4096V1101.23l-173.513 139.755-141.965-87.4-99.903 58.267-157.74-58.267-299.707 215.585-78.87-34.961-47.321 40.79-136.712-122.362-141.965-58.266-52.583 52.442-73.612-17.48-47.322 40.785-68.352-40.786-105.16 116.533-189.287-81.571-241.873 110.704-410.125-58.266-168.256-157.318-199.808-139.838-52.578 29.133-57.839-75.743-21.03 23.305-57.84-29.133-63.095-40.79-57.839 29.133L809.74 926.35l-84.13 81.576-174.744 291.327-189.305 64.09-168.256-69.918-152.483-116.529-40.81-76.005Z"/><path style="fill:url(#f);fill-opacity:1;stroke:none;stroke-width:3.34943;stroke-opacity:1" d="M.004 1578.928H4096V2304H.004Z"/><path style="fill:#fff;fill-opacity:0" d="M372.006 39.996h1100.998v800.007H372.006Zm-39.604 319.171h31.113V685.85h-31.113z"/><path style="fill:#fff;fill-opacity:0" d="M480.894 415.736H758.08v192.333H480.894Z"/></svg>