<?xml version="1.0" encoding="UTF-8"?>
<svg xmlns="http://www.w3.org/2000/svg" version="1.1" width="1920px"  height="1080px"  viewBox="0 0 1066.666 600">
  
  <!--431 HD svg mockup - add 266.666 -->
  <defs>
    <linearGradient id="grad1" x1="0%" y1="0%" x2="0%" y2="100%">
      <stop offset="0%" style="stop-color:rgb(61,48,74);stop-opacity:1" />
      <stop offset="100%" style="stop-color:rgb(63,80,90);stop-opacity:1" />
    </linearGradient>
    <linearGradient id="grad2" x1="0%" y1="0%" x2="0%" y2="100%">
      <stop offset="0%" style="stop-color:rgb(255,255,106);stop-opacity:0.008" />
      <stop offset="100%" style="stop-color:rgb(220,220,200);stop-opacity:0.005" />
    </linearGradient>
    <radialGradient id="grad3" cx="50%" cy="50%" r="50%" fx="50%" fy="50%">
      <stop offset="0%" style="stop-color:rgb(128,127,125); stop-opacity:1" />
      <stop offset="100%" style="stop-color:rgb(88,110,139);stop-opacity:1" />
    </radialGradient>
    <radialGradient id="grad4" cx="90%" cy="50%" r="50%" fx="50%" fy="50%">
      <stop offset="0%" style="stop-color:rgb(108,107,125); stop-opacity:1" />
      <stop offset="100%" style="stop-color:rgb(80,102,124);stop-opacity:1" />
    </radialGradient>
    <radialGradient id="grad5" cx="50%" cy="50%" r="20%" fx="50%" fy="50%">
      <stop offset="0%" style="stop-color:rgb(255,253,198); stop-opacity:0.25" />
      <stop offset="100%" style="stop-color:rgb(255,253,198);stop-opacity:0" />
    </radialGradient>
    <radialGradient id="grad6" cx="25%" cy="50%" r="20%" fx="35%" fy="60%">
      <stop offset="0%" style="stop-color:rgb(255,253,198); stop-opacity:0.05" />
      <stop offset="100%" style="stop-color:rgb(255,253,198);stop-opacity:0" />
    </radialGradient>
  </defs>
  
  <!-- rays -->
  <path style="fill:url(#grad1);" d="m 0,0 1066.666,0 0,600 -1066.666,0 z"/>
  <path style="fill:url(#grad2);" d="m 946.666,520 -300,80 -380,0 680,-80 -946.666,0 0,-150 946.666,150 -946.666,-270 0,-140 946.666,410 -946.666,-520, 280,0 666.666,520 -520,-520 180,0 340,520 -230,-520 140,0 90,520 40,-520 80,0 0,200 -120,320"/>
  
  <!-- clouds -->
  <path style="fill:url(#grad3);" d="m 946.666,350 a 52 52 0 0 1 86,-50 a 62 62 0 0 1 34,-30 l 0,80 z"/>
  <path style="fill:url(#grad4);" d="m 626.666,600 a 62 62 0 0 1 86,-80  a 62 62 0 0 1 38,-12 a 62 62 0 0 1 28,-28  a 72 72 0 0 1 60,-88 a 52 52 0 0 1 98,-36 a 74 74 0 0 1 86,-6 a 40 40 0 0 1 44,-42 l 0,292 "/>
  
  <!-- stars -->
  <g style="fill:#FFFDC6;stroke:none;">
    <path d="m 100,200 a 12 12 0 0 0 12,-12 a 12 12 0 0 0 12,12 a 12 12 0 0 0 -12,12 a 12 12 0 0 0 -12,-12 "/>
    <path d="m 340,150 a 6 6 0 0 0 6,-6 a 6 6 0 0 0 6,6 a 6 6 0 0 0 -6,6 a 6 6 0 0 0 -6,-6 "/>
    <path d="m 230,250 a 8 8 0 0 0 8,-8 a 8 8 0 0 0 8,8 a 8 12 0 0 0 -8,12 a 8 12 0 0 0 -8,-12 "/>
    <path d="m 350,260 a 4 4 0 0 0 4,-4 a 4 4 0 0 0 4,4 a 4 6 0 0 0 -4,6 a 4 6 0 0 0 -4,-6 "/>
    <path d="m 250,290 a 4 4 0 0 0 4,-4 a 4 4 0 0 0 4,4 a 4 6 0 0 0 -4,6 a 4 6 0 0 0 -4,-6 "/>
    <path d="m 130,320 a 4 4 0 0 0 4,-4 a 4 4 0 0 0 4,4 a 4 6 0 0 0 -4,6 a 4 6 0 0 0 -4,-6 "/>
    <path d="m 800,100 a 8 8 0 0 0 8,-8 a 8 8 0 0 0 8,8 a 8 12 0 0 0 -8,12 a 8 12 0 0 0 -8,-12 "/>
    <path d="m 560,400 a 3 3 0 0 0 3,-3 a 3 3 0 0 0 3,3 a 3 5 0 0 0 -3,5 a 3 5 0 0 0 -3,-5 "/>
    <path d="m 770,40 a 3 3 0 0 0 3,-3 a 3 3 0 0 0 3,3 a 3 5 0 0 0 -3,5 a 3 5 0 0 0 -3,-5 "/>
    <path d="m 70,510 a 3 3 0 0 0 3,-3 a 3 3 0 0 0 3,3 a 3 5 0 0 0 -3,5 a 3 5 0 0 0 -3,-5 "/>
    <path d="m 490,125 a 3 3 0 0 0 3,-3 a 3 3 0 0 0 3,3 a 3 5 0 0 0 -3,5 a 3 5 0 0 0 -3,-5 "/>
    <path d="m 500,195 a 1 1 0 0 0 1,-1 a 3 3 0 0 0 1,1 a 1 1 0 0 0 -1,1 a 1 1 0 0 0 -1,-1 "/>
    <path d="m 20,580 a 1 1 0 0 0 1,-1 a 3 3 0 0 0 1,1 a 1 1 0 0 0 -1,1 a 1 1 0 0 0 -1,-1 "/>
    <path d="m 50,100 a 1 1 0 0 0 1,-1 a 3 3 0 0 0 1,1 a 1 1 0 0 0 -1,1 a 1 1 0 0 0 -1,-1 "/>
    <path d="m 333,605 a 1 1 0 0 0 1,-1 a 3 3 0 0 0 1,1 a 1 1 0 0 0 -1,1 a 1 1 0 0 0 -1,-1 "/>
    <path d="m 444,444 a 1 1 0 0 0 1,-1 a 3 3 0 0 0 1,1 a 1 1 0 0 0 -1,1 a 1 1 0 0 0 -1,-1 "/>
    <path d="m 1000,202 a 1 1 0 0 0 1,-1 a 3 3 0 0 0 1,1 a 1 1 0 0 0 -1,1 a 1 1 0 0 0 -1,-1 "/>
    <path d="m 227,465 a 1 1 0 0 0 1,-1 a 3 3 0 0 0 1,1 a 1 1 0 0 0 -1,1 a 1 1 0 0 0 -1,-1 "/>
    <path d="m 420,690 a 1 1 0 0 0 1,-1 a 3 3 0 0 0 1,1 a 1 1 0 0 0 -1,1 a 1 1 0 0 0 -1,-1 "/>
    <path d="m 590,580 a 1 1 0 0 0 1,-1 a 3 3 0 0 0 1,1 a 1 1 0 0 0 -1,1 a 1 1 0 0 0 -1,-1 "/>

  </g>
  <circle style="fill:url(#grad5);" cx="340" cy="150" r="120"/>
  <circle style="fill:url(#grad5);" cx="110" cy="200" r="200"/>
  <circle style="fill:url(#grad5);opacity:0.5;" cx="800" cy="100" r="320"/>  
  <g transform="rotate(-12 0 0)">
    <circle style="fill:url(#grad6);" cx="230" cy="290" r="180"/>  
 	<circle style="fill:url(#grad6);" cx="330" cy="290" r="180"/>  
  </g>
  
  <!-- logo -->
  <g style="fill:#3E4554;stroke:none;">
    <path d="m 1000.666,414 c 3,0 6,2.7 6,6.3  c -0.03,3.3 -2.4,6.6 -6,6.6 c -3.6,0 -6.6,-3 -6.6,-6.6 l 1.8,0 c 0,1.2 1.2,2.7 3,2.7 c 1.8,0 2.7,-1.5 2.7,-3 c 0,-1.8 -1.5,-3 -2.7,-3 c -1.8,0 -3,1.5 -3,3 l 0 0.3 -1.8 0 c 0 -3.6 2.4 -6.3 6.6 -6.3 z"/>
    <ellipse  cx="980.166" cy="415" rx="3.3" ry="3.3"/>
    <path d="m 991.666,422.5 -7.8,-2.4 c -0.9,-0.3 -1.8,-0.3 -1.2,1.2 l 2.7,4.8 c 0.3,1.2 1.3,0.2 1.2,0.3 l 5.1,-2.7 c 1.2,-0.6 0,-1.2 0,-1.2 z"/>
  </g>
  <path style="fill:none;stroke:#3E4554;stroke-width:0.9;stroke-linecap:round;" d="m 993.466,428.5 c -0.6,1.8 -4.8,2.4 -6.6,0.6 c -1.5,-1.5 -1.5,-3 -1.5,-3 c 0,0 -1.2,1.8 -3.6,1.8 c -3.9,0 -3.9,-4.2 -3.9,-4.2"/>
  
  <!-- text -->
  <text style="fill:#3E4554;stroke:none;" font-style="italic" font-weight="bold" font-size="14" x="872.666" y="432">Puppy Linux</text>
 
</svg>
