<?xml version="1.0" encoding="UTF-8"?>
<svg xmlns="http://www.w3.org/2000/svg" version="1.1"  viewBox="0 0 800 600">
  
  <!--431 svg mockup -->
  <defs>
    <linearGradient id="grad1" x1="0%" y1="0%" x2="0%" y2="100%">
      <stop offset="0%" style="stop-color:rgb(121,168,214);stop-opacity:1" />
      <stop offset="100%" style="stop-color:rgb(123,200,230);stop-opacity:1" />
    </linearGradient>
    <linearGradient id="grad2" x1="0%" y1="0%" x2="0%" y2="100%">
      <stop offset="0%" style="stop-color:rgb(107,157,206);stop-opacity:1" />
      <stop offset="100%" style="stop-color:rgb(108,197,227);stop-opacity:1" />
    </linearGradient>
    <radialGradient id="grad3" cx="50%" cy="50%" r="50%" fx="50%" fy="50%">
      <stop offset="0%" style="stop-color:rgb(248,247,245); stop-opacity:1" />
      <stop offset="100%" style="stop-color:rgb(188,210,239);stop-opacity:1" />
    </radialGradient>
    <radialGradient id="grad4" cx="40%" cy="70%" r="70%" fx="50%" fy="50%">
      <stop offset="0%" style="stop-color:rgb(248,247,245); stop-opacity:1" />
      <stop offset="100%" style="stop-color:rgb(212,232,244);stop-opacity:1" />
    </radialGradient>
  </defs>
  
  <!-- rays -->
  <path style="fill:url(#grad1);" d="m 0,0 800,0 0,600 -800,0 z"/>
  <path style="fill:url(#grad2);" d="m 680,520 -300,80 -380,0 680,-80 -680,0 0,-100 680,100 -680,-200 0,-100 680,300 -680,-400, 0,-100 680,500 -520,-520 180,0 340,520 -230,-520 140,0 90,520 40,-520 80,0 0,200 -120,320"/>
  
  <!-- clouds -->
  <path style="fill:url(#grad3);" d="m 680,350 a 52 52 0 0 1 86,-50 a 62 62 0 0 1 34,-30 l 0,80 z"/>
  <path style="fill:url(#grad4);" d="m 360,600 a 62 62 0 0 1 86,-80  a 62 62 0 0 1 38,-12 a 62 62 0 0 1 28,-28  a 72 72 0 0 1 60,-88 a 52 52 0 0 1 98,-36 a 74 74 0 0 1 86,-6 a 40 40 0 0 1 44,-42 l 0,292 "/>
  
  <!-- logo -->
  <g style="fill:#69BCDC;stroke:none;">
    <path d="m 734,414 c 3,0 6,2.7 6,6.3  c -0.03,3.3 -2.4,6.6 -6,6.6 c -3.6,0 -6.6,-3 -6.6,-6.6 l 1.8,0 c 0,1.2 1.2,2.7 3,2.7 c 1.8,0 2.7,-1.5 2.7,-3 c 0,-1.8 -1.5,-3 -2.7,-3 c -1.8,0 -3,1.5 -3,3 l 0 0.3 -1.8 0 c 0 -3.6 2.4 -6.3 6.6 -6.3 z"/>
    <ellipse  cx="713.5" cy="415" rx="3.3" ry="3.3"/>
    <path d="m 725,422.5 -7.8,-2.4 c -0.9,-0.3 -1.8,-0.3 -1.2,1.2 l 2.7,4.8 c 0.3,1.2 1.3,0.2 1.2,0.3 l 5.1,-2.7 c 1.2,-0.6 0,-1.2 0,-1.2 z"/>
  </g>
  <path style="fill:none;stroke:#69BCDC;stroke-width:0.9;stroke-linecap:round;" d="m 726.8,428.5 c -0.6,1.8 -4.8,2.4 -6.6,0.6 c -1.5,-1.5 -1.5,-3 -1.5,-3 c 0,0 -1.2,1.8 -3.6,1.8 c -3.9,0 -3.9,-4.2 -3.9,-4.2"/>
  
  <!-- text -->
  <text style="fill:#69BCDC;stroke:none;" font-style="italic" font-weight="bold" font-size="14" x="606" y="432">Puppy Linux</text>
 
</svg>
