<?xml version="1.0" encoding="UTF-8" standalone="no"?>
<!-- Created with Inkscape (http://www.inkscape.org/) -->
<svg
   xmlns:dc="http://purl.org/dc/elements/1.1/"
   xmlns:cc="http://web.resource.org/cc/"
   xmlns:rdf="http://www.w3.org/1999/02/22-rdf-syntax-ns#"
   xmlns:svg="http://www.w3.org/2000/svg"
   xmlns="http://www.w3.org/2000/svg"
   xmlns:xlink="http://www.w3.org/1999/xlink"
   xmlns:sodipodi="http://inkscape.sourceforge.net/DTD/sodipodi-0.dtd"
   xmlns:inkscape="http://www.inkscape.org/namespaces/inkscape"
   inkscape:export-ydpi="100.05759"
   inkscape:export-xdpi="100.05759"
   inkscape:export-filename="/home/user/bliss.png"
   sodipodi:docname="bliss.svg"
   sodipodi:docbase="/home/user"
   inkscape:version="0.41"
   sodipodi:version="0.32"
   id="svg1332"
   height="480px"
   width="640px">
  <defs
     id="defs3">
    <linearGradient
       id="linearGradient6817">
      <stop
         id="stop6819"
         offset="0"
         style="stop-color:#ffffff;stop-opacity:1;" />
      <stop
         id="stop6821"
         offset="1"
         style="stop-color:#ffffff;stop-opacity:0;" />
    </linearGradient>
    <linearGradient
       id="linearGradient3751">
      <stop
         id="stop3753"
         offset="0"
         style="stop-color:#84c100;stop-opacity:1;" />
      <stop
         id="stop3755"
         offset="1"
         style="stop-color:#84c100;stop-opacity:0;" />
    </linearGradient>
    <linearGradient
       id="linearGradient3733">
      <stop
         id="stop3735"
         offset="0.0000000"
         style="stop-color:#005ce0;stop-opacity:1.0000000;" />
      <stop
         id="stop3737"
         offset="1.0000000"
         style="stop-color:#d8edff;stop-opacity:1.0000000;" />
    </linearGradient>
    <linearGradient
       id="linearGradient2205">
      <stop
         id="stop2207"
         offset="0.0000000"
         style="stop-color:#242a00;stop-opacity:1.0000000;" />
      <stop
         id="stop2213"
         offset="0.50000000"
         style="stop-color:#71a300;stop-opacity:1.0000000;" />
      <stop
         id="stop2209"
         offset="1.0000000"
         style="stop-color:#001700;stop-opacity:1.0000000;" />
    </linearGradient>
    <linearGradient
       gradientUnits="userSpaceOnUse"
       y2="616.15045"
       x2="91.528717"
       y1="91.104607"
       x1="91.528717"
       gradientTransform="matrix(1.392028,0.000000,0.000000,0.718376,179.4184,-99.39007)"
       id="linearGradient3739"
       xlink:href="#linearGradient3733"
       inkscape:collect="always" />
    <linearGradient
       gradientUnits="userSpaceOnUse"
       y2="848.75690"
       x2="98.874992"
       y1="556.32819"
       x1="4.9757171"
       gradientTransform="scale(2.121916,0.471272)"
       id="linearGradient3757"
       xlink:href="#linearGradient3751"
       inkscape:collect="always" />
    <linearGradient
       gradientUnits="userSpaceOnUse"
       y2="870.97784"
       x2="134.29718"
       y1="366.62210"
       x1="228.32127"
       gradientTransform="scale(1.657739,0.603231)"
       id="linearGradient3765"
       xlink:href="#linearGradient2205"
       inkscape:collect="always" />
    <linearGradient
       gradientUnits="userSpaceOnUse"
       y2="687.92188"
       x2="216.70049"
       y1="-53.053421"
       x1="216.70049"
       gradientTransform="scale(1.583127,0.631661)"
       id="linearGradient6823"
       xlink:href="#linearGradient6817"
       inkscape:collect="always" />
    <linearGradient
       gradientUnits="userSpaceOnUse"
       y2="687.92188"
       x2="216.70049"
       y1="-53.053421"
       x1="216.70049"
       gradientTransform="scale(1.583127,0.631661)"
       id="linearGradient6825"
       xlink:href="#linearGradient6817"
       inkscape:collect="always" />
    <linearGradient
       gradientUnits="userSpaceOnUse"
       y2="687.92188"
       x2="216.70049"
       y1="-53.053421"
       x1="216.70049"
       gradientTransform="scale(1.583127,0.631661)"
       id="linearGradient6827"
       xlink:href="#linearGradient6817"
       inkscape:collect="always" />
    <linearGradient
       gradientUnits="userSpaceOnUse"
       y2="687.92188"
       x2="216.70049"
       y1="-53.053421"
       x1="216.70049"
       gradientTransform="scale(1.583127,0.631661)"
       id="linearGradient6829"
       xlink:href="#linearGradient6817"
       inkscape:collect="always" />
    <linearGradient
       gradientUnits="userSpaceOnUse"
       y2="687.92188"
       x2="216.70049"
       y1="-53.053421"
       x1="216.70049"
       gradientTransform="scale(1.583127,0.631661)"
       id="linearGradient6831"
       xlink:href="#linearGradient6817"
       inkscape:collect="always" />
    <linearGradient
       gradientUnits="userSpaceOnUse"
       y2="687.92188"
       x2="216.70049"
       y1="-53.053421"
       x1="216.70049"
       gradientTransform="scale(1.583127,0.631661)"
       id="linearGradient6833"
       xlink:href="#linearGradient6817"
       inkscape:collect="always" />
    <linearGradient
       gradientUnits="userSpaceOnUse"
       y2="687.92188"
       x2="216.70049"
       y1="-53.053421"
       x1="216.70049"
       gradientTransform="scale(1.583127,0.631661)"
       id="linearGradient6835"
       xlink:href="#linearGradient6817"
       inkscape:collect="always" />
    <linearGradient
       gradientUnits="userSpaceOnUse"
       y2="687.92188"
       x2="216.70049"
       y1="-53.053421"
       x1="216.70049"
       gradientTransform="scale(1.583127,0.631661)"
       id="linearGradient6837"
       xlink:href="#linearGradient6817"
       inkscape:collect="always" />
    <linearGradient
       y2="687.92188"
       x2="216.70049"
       y1="-53.053421"
       x1="216.70049"
       gradientTransform="scale(1.583127,0.631661)"
       gradientUnits="userSpaceOnUse"
       id="linearGradient9926"
       xlink:href="#linearGradient6817"
       inkscape:collect="always" />
    <linearGradient
       y2="687.92188"
       x2="216.70049"
       y1="-53.053421"
       x1="216.70049"
       gradientTransform="scale(1.583127,0.631661)"
       gradientUnits="userSpaceOnUse"
       id="linearGradient9929"
       xlink:href="#linearGradient6817"
       inkscape:collect="always" />
    <linearGradient
       y2="687.92188"
       x2="216.70049"
       y1="-53.053421"
       x1="216.70049"
       gradientTransform="scale(1.583127,0.631661)"
       gradientUnits="userSpaceOnUse"
       id="linearGradient9932"
       xlink:href="#linearGradient6817"
       inkscape:collect="always" />
    <linearGradient
       y2="687.92188"
       x2="216.70049"
       y1="-53.053421"
       x1="216.70049"
       gradientTransform="scale(1.583127,0.631661)"
       gradientUnits="userSpaceOnUse"
       id="linearGradient9935"
       xlink:href="#linearGradient6817"
       inkscape:collect="always" />
    <linearGradient
       y2="687.92188"
       x2="216.70049"
       y1="-53.053421"
       x1="216.70049"
       gradientTransform="scale(1.583127,0.631661)"
       gradientUnits="userSpaceOnUse"
       id="linearGradient9938"
       xlink:href="#linearGradient6817"
       inkscape:collect="always" />
    <linearGradient
       y2="687.92188"
       x2="216.70049"
       y1="-53.053421"
       x1="216.70049"
       gradientTransform="scale(1.583127,0.631661)"
       gradientUnits="userSpaceOnUse"
       id="linearGradient9941"
       xlink:href="#linearGradient6817"
       inkscape:collect="always" />
    <linearGradient
       y2="687.92188"
       x2="216.70049"
       y1="-53.053421"
       x1="216.70049"
       gradientTransform="scale(1.583127,0.631661)"
       gradientUnits="userSpaceOnUse"
       id="linearGradient9944"
       xlink:href="#linearGradient6817"
       inkscape:collect="always" />
    <linearGradient
       y2="687.92188"
       x2="216.70049"
       y1="-53.053421"
       x1="216.70049"
       gradientTransform="scale(1.583127,0.631661)"
       gradientUnits="userSpaceOnUse"
       id="linearGradient9947"
       xlink:href="#linearGradient6817"
       inkscape:collect="always" />
    <linearGradient
       y2="848.75690"
       x2="98.874992"
       y1="556.32819"
       x1="4.9757171"
       gradientTransform="scale(2.121916,0.471272)"
       gradientUnits="userSpaceOnUse"
       id="linearGradient9950"
       xlink:href="#linearGradient3751"
       inkscape:collect="always" />
    <linearGradient
       y2="870.97784"
       x2="134.29718"
       y1="366.62210"
       x1="228.32127"
       gradientTransform="scale(1.657739,0.603231)"
       gradientUnits="userSpaceOnUse"
       id="linearGradient9953"
       xlink:href="#linearGradient2205"
       inkscape:collect="always" />
    <linearGradient
       y2="616.15045"
       x2="91.528717"
       y1="91.104607"
       x1="91.528717"
       gradientTransform="matrix(1.392028,0.000000,0.000000,0.718376,179.4184,-99.39007)"
       gradientUnits="userSpaceOnUse"
       id="linearGradient9957"
       xlink:href="#linearGradient3733"
       inkscape:collect="always" />
    <linearGradient
       gradientUnits="userSpaceOnUse"
       y2="79.447250"
       x2="34.117889"
       y1="-25.769123"
       x1="34.117889"
       gradientTransform="scale(1.579427,0.633141)"
       id="linearGradient11512"
       xlink:href="#linearGradient6817"
       inkscape:collect="always" />
    <linearGradient
       y2="687.92188"
       x2="216.70049"
       y1="-53.053421"
       x1="216.70049"
       gradientTransform="matrix(1.583127,0.000000,0.000000,0.631661,0.000000,-2.581560)"
       gradientUnits="userSpaceOnUse"
       id="linearGradient11522"
       xlink:href="#linearGradient6817"
       inkscape:collect="always" />
    <linearGradient
       y2="687.92188"
       x2="216.70049"
       y1="-53.053421"
       x1="216.70049"
       gradientTransform="scale(1.583127,0.631661)"
       gradientUnits="userSpaceOnUse"
       id="linearGradient11525"
       xlink:href="#linearGradient6817"
       inkscape:collect="always" />
    <linearGradient
       y2="687.92188"
       x2="216.70049"
       y1="-53.053421"
       x1="216.70049"
       gradientTransform="matrix(1.583127,0.000000,0.000000,0.631661,2.581560,-5.163120)"
       gradientUnits="userSpaceOnUse"
       id="linearGradient11528"
       xlink:href="#linearGradient6817"
       inkscape:collect="always" />
    <linearGradient
       y2="687.92188"
       x2="216.70049"
       y1="-53.053421"
       x1="216.70049"
       gradientTransform="matrix(1.583127,0.000000,0.000000,0.631661,5.163121,1.290780)"
       gradientUnits="userSpaceOnUse"
       id="linearGradient11531"
       xlink:href="#linearGradient6817"
       inkscape:collect="always" />
    <linearGradient
       y2="687.92188"
       x2="216.70049"
       y1="-53.053421"
       x1="216.70049"
       gradientTransform="scale(1.583127,0.631661)"
       gradientUnits="userSpaceOnUse"
       id="linearGradient11534"
       xlink:href="#linearGradient6817"
       inkscape:collect="always" />
    <linearGradient
       y2="687.92188"
       x2="216.70049"
       y1="-53.053421"
       x1="216.70049"
       gradientTransform="scale(1.583127,0.631661)"
       gradientUnits="userSpaceOnUse"
       id="linearGradient11537"
       xlink:href="#linearGradient6817"
       inkscape:collect="always" />
    <linearGradient
       y2="687.92188"
       x2="216.70049"
       y1="-53.053421"
       x1="216.70049"
       gradientTransform="matrix(1.450996,0.000000,0.000000,0.471725,46.23950,62.30071)"
       gradientUnits="userSpaceOnUse"
       id="linearGradient11540"
       xlink:href="#linearGradient6817"
       inkscape:collect="always" />
    <linearGradient
       y2="687.92188"
       x2="216.70049"
       y1="-53.053421"
       x1="216.70049"
       gradientTransform="scale(1.583127,0.631661)"
       gradientUnits="userSpaceOnUse"
       id="linearGradient11543"
       xlink:href="#linearGradient6817"
       inkscape:collect="always" />
    <linearGradient
       y2="848.75690"
       x2="98.874992"
       y1="556.32819"
       x1="4.9757171"
       gradientTransform="matrix(2.126123,0.000000,0.000000,0.471272,-1.293339,0.000000)"
       gradientUnits="userSpaceOnUse"
       id="linearGradient11546"
       xlink:href="#linearGradient3751"
       inkscape:collect="always" />
    <linearGradient
       y2="870.97784"
       x2="134.29718"
       y1="366.62210"
       x1="228.32127"
       gradientTransform="matrix(1.664383,0.000000,0.000000,0.603231,-2.591907,0.000000)"
       gradientUnits="userSpaceOnUse"
       id="linearGradient11549"
       xlink:href="#linearGradient2205"
       inkscape:collect="always" />
    <linearGradient
       y2="616.15045"
       x2="91.528717"
       y1="91.104607"
       x1="91.528717"
       gradientTransform="matrix(1.394823,0.000000,0.000000,0.723966,178.4827,-102.7639)"
       gradientUnits="userSpaceOnUse"
       id="linearGradient11553"
       xlink:href="#linearGradient3733"
       inkscape:collect="always" />
  </defs>
  <sodipodi:namedview
     inkscape:window-y="29"
     inkscape:window-x="255"
     inkscape:window-height="883"
     inkscape:window-width="947"
     inkscape:document-units="px"
     inkscape:current-layer="layer1"
     inkscape:cy="240.00000"
     inkscape:cx="320.00000"
     inkscape:zoom="1.3359375"
     inkscape:pageshadow="2"
     inkscape:pageopacity="0.0"
     borderopacity="1.0"
     bordercolor="#666666"
     pagecolor="#ffffff"
     id="base" />
  <metadata
     id="metadata4">
    <rdf:RDF
       id="RDF5">
      <cc:Work
         id="Work6"
         rdf:about="">
        <dc:format
           id="format7">image/svg+xml</dc:format>
        <dc:type
           rdf:resource="http://purl.org/dc/dcmitype/StillImage"
           id="type9" />
      </cc:Work>
    </rdf:RDF>
  </metadata>
  <g
     inkscape:groupmode="layer"
     inkscape:label="Layer 1"
     id="layer1">
    <rect
       y="-0.17022459"
       x="1.2907571"
       height="334.31207"
       width="644.09930"
       id="rect2973"
       style="fill:url(#linearGradient11553);fill-opacity:1.0000000;fill-rule:evenodd;stroke:none;stroke-width:14.000000;stroke-linecap:round;stroke-linejoin:miter;stroke-miterlimit:4.0000000;stroke-opacity:1.0000000" />
    <path
       id="path4525"
       d="M 0.0000000,259.27659 C 3.1494142,258.67133 16.786963,259.27830 21.943263,260.56737 C 29.787186,262.52836 33.571971,264.45140 37.432624,268.31206 C 47.016581,277.89601 102.67556,272.18440 117.46099,272.18440 C 145.94796,272.18440 172.90093,270.89362 201.36170,270.89362 C 215.09965,270.89362 233.35520,270.37135 246.53901,274.76596 C 256.34484,278.03457 271.07065,277.34752 281.39007,277.34752 C 297.16770,277.34752 315.02759,279.42821 330.43972,282.51064 C 338.67380,284.15745 346.74559,283.03746 354.96454,285.09220 C 362.92264,287.08172 371.19169,287.67376 379.48936,287.67376 C 392.22799,287.67376 403.25339,292.83688 414.34043,292.83688 C 430.07536,292.83688 447.64739,296.70922 463.39007,296.70922 C 471.61871,296.70922 480.47016,296.13882 487.91490,298.00000 C 494.70900,299.69852 501.51319,299.29078 508.56738,299.29078 C 519.32388,299.29078 530.08038,299.29078 540.83688,299.29078 C 547.54366,299.29078 552.60705,296.70922 560.19858,296.70922 C 568.48166,296.70922 572.71281,295.51683 578.26951,294.12766 C 583.64187,292.78457 588.70929,291.51771 593.75887,290.25532 C 598.01708,289.19077 604.67343,286.23590 609.24823,285.09220 C 614.87688,283.68503 622.77372,285.09220 628.60993,285.09220 C 635.10597,285.09220 640.85699,288.30379 644.09929,291.54610 C 647.32625,294.77305 647.32625,301.22695 650.55320,304.45390 C 657.16230,311.06300 649.37650,312.78693 642.80851,316.07092 C 628.08944,323.43046 605.14582,323.81560 588.59575,323.81560 C 561.76321,323.81560 534.50530,326.39716 507.27660,326.39716 C 469.97982,326.39716 428.20716,328.39604 392.39717,321.23404 C 357.67558,314.28972 320.81459,312.19858 285.26241,312.19858 C 243.02906,312.19858 201.36493,309.61702 158.76596,309.61702 C 131.31997,309.61702 93.574108,308.45383 67.120568,303.16312 C 57.479526,301.23491 47.067892,302.50861 37.432624,300.58156 C 26.485426,298.39212 28.726043,295.58288 20.652482,291.54610 C 15.671798,289.05576 11.913811,285.88598 7.7446809,283.80142 C 3.3930592,281.62561 0.23259963,277.58012 -2.5815603,274.76596 C -6.4199409,270.92758 0.0000000,268.72283 0.0000000,259.27659 z "
       style="fill:#4a5784;fill-opacity:1.0000000;fill-rule:evenodd;stroke:none;stroke-width:1.0000000px;stroke-linecap:butt;stroke-linejoin:miter;stroke-opacity:1.0000000" />
    <path
       id="path1437"
       d="M 1.2959536,267.02128 C 1.2959536,267.02128 139.96299,243.78723 189.20923,248.95035 C 238.45547,254.11347 416.00111,272.18440 440.62423,276.05674 C 465.24734,279.92908 581.88318,299.29078 597.43462,300.58156 C 612.98606,301.87234 642.79299,303.16312 642.79299,303.16312 L 646.68085,482.58156 L 5.6634604e-10,482.58156 L 1.2959536,267.02128 z "
       style="fill:url(#linearGradient11549);fill-opacity:1.0000000;fill-rule:evenodd;stroke:none;stroke-width:1.0000000px;stroke-linecap:butt;stroke-linejoin:miter;stroke-opacity:1.0000000" />
    <path
       id="path3743"
       d="M 3.5028318e-07,269.60284 C 3.5028318e-07,269.60284 106.05383,255.40425 137.09398,255.40425 C 168.13412,255.40425 470.77552,318.65248 534.14915,339.30496 C 597.52279,359.95745 658.30974,371.57447 651.84304,379.31915 C 645.37634,387.06383 483.70892,398.68085 305.22809,399.97163 C 126.74725,401.26241 1.2933396,349.63121 1.2933396,349.63121 L 3.5028318e-07,269.60284 z "
       style="fill:url(#linearGradient11546);fill-opacity:1.0000000;fill-rule:evenodd;stroke:none;stroke-width:1.0000000px;stroke-linecap:butt;stroke-linejoin:miter;stroke-opacity:1.0000000" />
    <path
       id="path6043"
       d="M 631.19149,256.69503 C 626.63105,250.46873 622.63849,249.71636 614.41135,247.65957 C 607.05304,245.82000 599.46036,250.80544 595.04965,254.11347 C 589.19822,258.50205 581.51983,251.86629 575.68795,248.95035 C 571.96580,247.08928 560.43583,248.36428 557.61702,247.65957 C 549.09750,245.52969 548.01295,246.36879 539.54610,246.36879 C 533.31355,246.36879 527.22688,244.93087 521.47518,246.36879 C 515.40944,247.88523 507.13020,246.36879 500.82270,246.36879 C 492.59419,246.36879 484.73981,245.07801 476.29788,245.07801 C 467.26241,245.07801 458.22695,245.07801 449.19149,245.07801 C 441.41699,245.07801 433.95866,245.85167 427.24823,242.49645 C 419.19380,238.46924 411.90963,243.78723 404.01419,243.78723 C 397.48929,243.78723 391.00555,239.37841 387.23404,238.62411 C 383.56079,237.88946 363.77274,242.49645 356.25532,242.49645 C 347.68245,242.49645 372.37375,248.55986 380.78014,250.24113 C 390.87200,252.25950 397.16176,250.24113 406.59575,250.24113 C 412.14621,250.24113 419.12040,257.60266 423.37589,261.85815 C 428.76085,267.24312 439.35838,265.73050 447.90071,265.73050 C 457.16270,265.73050 459.09891,263.57633 465.97163,261.85815 C 474.67687,259.68185 486.85833,261.85815 495.65958,261.85815 C 504.52942,261.85815 505.55176,262.70347 507.27660,269.60284 C 509.49359,278.47079 516.86635,273.84342 522.76596,270.89362 C 530.38511,267.08404 538.69513,267.84361 536.96454,274.76596 C 534.71425,283.76713 540.70800,280.63891 544.70922,278.63830 C 549.57162,276.20710 557.00457,277.34752 562.78015,277.34752 C 570.45521,277.34752 575.41263,277.62283 579.56029,273.47518 C 580.10360,272.93186 588.87055,281.21986 593.75887,281.21986 C 602.96777,281.21986 614.56728,278.52135 619.57447,274.76596 C 624.82723,270.82638 626.20170,268.03269 632.48227,269.60284 C 641.95484,271.97098 638.52787,259.62959 631.19149,256.69503 z "
       style="fill:url(#linearGradient11543);fill-opacity:1.0000000;fill-rule:evenodd;stroke:none;stroke-width:1.0000000px;stroke-linecap:butt;stroke-linejoin:miter;stroke-opacity:1.0000000" />
    <path
       id="path6045"
       d="M 551.40127,227.97394 C 557.45032,229.20614 538.06451,226.74661 533.65554,223.15416 C 527.59731,218.21788 524.78682,215.44252 515.90981,215.44252 C 506.44336,215.44252 496.59691,219.29834 486.33360,219.29834 C 479.77377,219.29834 477.39395,217.37043 469.77091,217.37043 C 462.28638,217.37043 458.70981,216.06941 454.39128,212.55065 C 448.15491,207.46921 445.16587,205.68806 436.64555,202.91110 C 431.02215,201.07830 428.36421,198.60692 428.36421,193.27154 C 428.36421,186.61642 416.63879,179.94739 414.16763,175.92034 C 412.19951,172.71308 416.96262,162.68998 417.71678,161.46101 C 419.62648,158.34894 431.58593,154.29804 434.27946,153.74937 C 442.43943,152.08717 452.51418,152.78541 461.48957,152.78541 C 469.97822,152.78541 474.90071,170.45859 487.51665,173.02848 C 493.44099,174.23528 497.31003,170.06959 501.71323,169.17265 C 507.84323,167.92397 504.86923,166.92735 502.89628,160.49706 C 501.58166,156.21244 490.05416,150.99717 485.15055,147.00168 C 481.19408,143.77792 474.62275,141.96529 470.95396,141.21795 C 465.16438,140.03859 463.20154,138.32608 455.57433,138.32608 C 445.77227,138.32608 442.00876,141.73209 436.64555,137.36213 C 431.99363,133.57170 439.24760,125.60240 440.19470,124.83070 C 443.79597,121.89636 450.38141,120.38633 453.20823,118.08301 C 456.24259,115.61060 469.16202,117.47700 472.13701,118.08301 C 477.67471,119.21105 474.27208,125.26562 481.60141,126.75861 C 483.18588,127.08137 491.16230,123.86675 495.79799,123.86675 C 501.44421,123.86675 500.37121,132.28328 502.89628,136.39817 C 506.35432,142.03343 510.60394,144.76214 518.27591,148.92959 C 527.27162,153.81609 526.55725,151.57677 526.55725,161.46101 C 526.55725,166.73216 525.37420,169.37006 525.37420,174.95639 C 525.37420,180.65820 531.14714,181.70407 538.38773,181.70407 C 545.38754,181.70407 549.43693,177.22976 551.40127,183.63198 C 553.08471,189.11868 549.45406,191.06231 552.58432,196.16341 C 556.52085,202.57841 568.33404,194.59635 562.04871,204.83901 C 560.13530,207.95712 577.77904,206.76692 583.34359,206.76692 C 590.97419,206.76692 592.32383,207.90586 595.17407,212.55065 C 597.98530,217.13186 600.79060,216.10463 607.00456,217.37043 C 615.29448,219.05910 616.75945,219.17999 609.37065,222.19021 C 604.50959,224.17062 600.13634,226.48114 592.80797,227.97394 C 586.44502,229.27008 583.30439,229.90185 576.24530,229.90185 C 570.33005,229.90185 564.41481,229.90185 558.49956,229.90185 C 556.00548,229.90185 553.76736,228.61658 551.40127,227.97394 z "
       style="fill:url(#linearGradient11540);fill-opacity:1.0000000;fill-rule:evenodd;stroke:none;stroke-width:1.0000000px;stroke-linecap:butt;stroke-linejoin:miter;stroke-opacity:1.0000000" />
    <path
       id="path6047"
       d="M 387.23404,177.95744 C 379.15019,177.95744 382.62395,161.73033 376.90780,156.01418 C 368.70835,147.81473 330.29619,143.68050 327.85816,153.43262 C 325.65858,162.23093 330.45059,165.07139 333.02128,170.21276 C 338.35030,180.87080 336.85569,183.12057 353.67376,183.12057 C 363.91553,183.12057 371.40575,186.82344 379.48936,190.86525 C 398.70184,200.47148 393.65506,185.98372 387.23404,177.95744 z "
       style="fill:url(#linearGradient11537);fill-opacity:1.0000000;fill-rule:evenodd;stroke:none;stroke-width:1.0000000px;stroke-linecap:butt;stroke-linejoin:miter;stroke-opacity:1.0000000" />
    <path
       id="path6049"
       d="M 376.90780,206.35461 C 382.73143,209.26642 363.86271,205.35220 357.54610,203.77305 C 348.27810,201.45605 339.97731,200.40284 335.60284,196.02837 C 330.96381,191.38934 328.45483,190.17114 323.98582,185.70213 C 319.11015,180.82646 308.38784,180.53901 300.75177,180.53901 C 299.74525,180.53901 291.40328,171.19051 290.42553,170.21276 C 285.04853,164.83576 280.67270,158.23705 271.06383,153.43262 C 262.92908,149.36525 259.59859,149.27553 250.41135,146.97872 C 250.24635,146.93747 240.03559,157.98749 237.50355,159.88652 C 232.60591,163.55975 224.84505,162.98882 220.72341,165.04964 C 214.57764,168.12253 216.98135,177.18779 218.14185,181.82979 C 219.86310,188.71480 215.63347,192.17432 225.88653,194.73759 C 233.06511,196.53223 243.05055,194.73759 250.41135,194.73759 C 258.24199,194.73759 266.58905,195.21089 273.64539,193.44681 C 280.22064,191.80299 286.02772,192.28739 291.71631,190.86525 C 297.13536,189.51048 305.01446,194.28737 308.49646,196.02837 C 314.83191,199.19610 322.76401,201.22598 327.85816,203.77305 C 334.22226,206.95510 336.24748,207.64539 344.63830,207.64539 C 352.87885,207.64539 361.74606,208.69538 367.87234,210.22695 C 373.15149,211.54674 372.35442,217.73808 376.90780,206.35461 z "
       style="fill:url(#linearGradient11534);fill-opacity:1.0000000;fill-rule:evenodd;stroke:none;stroke-width:1.0000000px;stroke-linecap:butt;stroke-linejoin:miter;stroke-opacity:1.0000000" />
    <path
       id="path6051"
       d="M 627.31915,127.61702 C 634.16524,129.32854 616.85079,117.86511 610.53901,114.70922 C 604.89588,111.88765 595.30441,112.12766 588.59575,112.12766 C 583.62109,112.12766 579.39709,103.73512 576.97873,100.51064 C 572.82619,94.973919 572.95999,93.058754 575.68795,87.602834 C 578.15794,82.662841 584.94302,83.730494 591.17731,83.730494 C 599.97762,83.730494 600.18823,91.158614 609.24823,88.893614 C 615.53980,87.320722 613.96975,82.439714 622.15603,82.439714 C 631.72779,82.439714 635.47683,86.312054 642.80851,86.312054 C 650.43029,86.312054 648.45751,97.276360 647.97163,99.219856 C 646.46640,105.24078 646.68085,110.29771 646.68085,117.29078 C 646.68085,123.74468 646.68085,130.19858 646.68085,136.65248 C 646.68085,147.71618 644.20360,143.21068 640.22695,139.23404 C 638.06015,137.06723 635.38208,135.67994 633.77305,134.07092"
       style="fill:url(#linearGradient11531);fill-opacity:1.0000000;fill-rule:evenodd;stroke:none;stroke-width:1.0000000px;stroke-linecap:butt;stroke-linejoin:miter;stroke-opacity:1.0000000" />
    <path
       id="path6053"
       d="M 645.39007,32.099289 C 643.99362,30.702832 621.73101,31.024949 615.70213,29.517728 C 610.20211,28.142724 606.18373,26.734208 600.21277,28.226948 C 592.19623,30.231084 591.43879,32.230029 586.01419,29.517728 C 580.62217,26.821718 577.36243,14.412067 573.10639,10.156026 C 568.37001,5.4196475 563.51152,6.1008405 557.61702,7.5744656 C 553.48964,8.6063106 564.87425,27.252047 565.36171,28.226948 C 568.47719,34.457919 573.10639,28.601502 573.10639,39.843970 C 573.10639,48.803160 562.60398,47.588650 553.74468,47.588650 C 544.38433,47.588650 544.32716,49.406089 540.83688,42.425530 C 537.69481,36.141390 534.13950,34.942673 527.92908,33.390069 C 519.16674,31.199484 517.28681,35.339567 513.73050,28.226948 C 509.64387,20.053680 509.61053,15.814401 512.43972,10.156026 C 515.26656,4.5023390 517.60284,1.9384290 517.60284,-5.3333362 C 517.60284,-6.4561186 547.45749,-2.7517759 553.74468,-2.7517759 C 561.48936,-2.7517759 569.23405,-2.7517759 576.97873,-2.7517759 C 585.15367,-2.7517759 593.32861,-2.7517759 601.50355,-2.7517759 C 609.24823,-2.7517759 616.99291,-2.7517759 624.73759,-2.7517759 C 632.12737,-2.7517759 635.42994,-4.0425561 642.80851,-4.0425561 C 649.35998,-4.0425561 646.68085,6.8305466 646.68085,12.737586"
       style="fill:url(#linearGradient11528);fill-opacity:1.0000000;fill-rule:evenodd;stroke:none;stroke-width:1.0000000px;stroke-linecap:butt;stroke-linejoin:miter;stroke-opacity:1.0000000" />
    <path
       id="path6055"
       d="M 117.46099,122.45390 C 124.55702,122.45390 103.69267,119.01182 96.808511,117.29078 C 87.567164,114.98044 77.327055,114.70922 67.120568,114.70922 C 48.541200,114.70922 72.452370,118.63779 80.028369,121.16312 C 81.711341,121.72411 83.470450,122.02364 85.191490,122.45390 C 90.529279,123.78835 110.34363,126.32624 96.808511,126.32624 C 84.356079,126.32624 66.822870,139.13405 65.829788,143.10638 C 65.717686,143.55479 87.115659,144.39716 107.13475,144.39716 C 110.02102,144.39716 96.503799,148.26950 99.390072,148.26950 C 112.81630,148.26950 125.73383,153.43262 139.40426,153.43262 C 157.82098,153.43262 136.80847,153.43547 130.36880,154.72340 C 119.19828,156.95751 152.87747,158.41440 163.92908,161.17730 C 174.47185,163.81300 188.96820,154.85198 167.80142,149.56028 C 150.85556,145.32382 142.85377,151.74133 139.40426,137.94326 C 138.08434,132.66360 161.81715,135.83133 152.31206,126.32624 C 150.44016,124.45434 135.94991,122.88109 134.24114,122.45390 C 129.57431,121.28719 126.14379,116.00000 121.33333,116.00000 C 120.47281,116.00000 123.05437,116.00000 123.91489,116.00000"
       style="fill:url(#linearGradient11525);fill-opacity:1.0000000;fill-rule:evenodd;stroke:none;stroke-width:1.0000000px;stroke-linecap:butt;stroke-linejoin:miter;stroke-opacity:1.0000000" />
    <path
       id="path6057"
       d="M 216.85107,-0.17021570 C 214.58524,-0.17021570 236.60186,-2.0020113 256.86525,10.156026 C 263.82649,14.332769 243.47384,19.433289 236.21277,23.063827 C 224.25906,29.040679 278.41704,24.354607 286.55319,24.354607 C 298.36339,24.354607 307.00485,20.582680 294.29787,26.936168 C 272.94927,37.610472 259.25138,39.843969 290.42553,39.843969 C 309.34761,39.843969 325.08304,37.455969 318.82270,43.716310 C 318.39192,44.147087 345.18042,40.999218 323.98582,46.297870 C 322.26478,46.728130 320.54374,47.158390 318.82270,47.588650 C 309.33787,49.959856 332.97045,56.624111 336.89362,56.624111 C 351.33949,56.624111 397.36248,71.418631 400.14185,72.113473 C 408.54213,74.213544 384.11237,65.299499 376.90780,60.496452 C 370.19261,56.019654 365.25042,52.086200 358.83688,48.879430 C 352.03848,45.480231 339.69483,43.661396 349.80142,41.134749 C 364.05879,37.570407 361.09807,39.416806 353.67376,29.517728 C 351.29368,26.344287 347.70309,24.030282 345.92908,20.482267 C 345.77329,20.170694 388.06452,29.345114 388.52483,29.517728 C 390.18588,30.140624 391.96691,30.378248 393.68795,30.808508 C 394.35760,30.975923 376.48011,19.193027 367.87234,14.028366 C 366.22237,13.038383 364.43026,12.307326 362.70922,11.446806 C 350.51833,5.3513586 365.91151,8.8652457 374.32624,8.8652457 C 383.83395,8.8652457 374.30492,-0.19154280 373.03546,-1.4609958"
       style="fill:url(#linearGradient11522);fill-opacity:1.0000000;fill-rule:evenodd;stroke:none;stroke-width:1.0000000px;stroke-linecap:butt;stroke-linejoin:miter;stroke-opacity:1.0000000" />
    <path
       id="path8355"
       d="M 434.27946,158.56914 C 429.97108,159.65770 426.78028,162.76757 424.81507,169.17265 C 423.19309,174.45903 426.31831,178.37005 428.36421,181.70407 C 433.32376,189.78622 425.98056,190.37967 442.56080,190.37967 C 449.26474,190.37967 455.96868,190.37967 462.67262,190.37967 C 468.82709,190.37967 478.08576,195.01212 485.15055,196.16341 C 494.81571,197.73845 502.82086,205.08483 505.26238,197.12737 C 507.54466,189.68887 507.56377,189.41572 519.45896,189.41572 C 534.05905,189.41572 549.91356,193.24253 552.58432,201.94714 C 553.93387,206.34564 560.86566,211.12569 560.86566,203.87505 C 560.86566,197.62847 547.24303,194.82724 543.11993,192.30758 C 538.94639,189.75712 541.39895,180.30181 536.02164,175.92034 C 529.40909,170.53240 514.72676,174.44388 514.72676,166.28079 C 514.72676,159.27052 518.82649,154.64660 514.72676,147.96564 C 511.30243,142.38529 508.32353,142.38071 504.07933,144.10981 C 501.70010,145.07912 504.99306,159.61931 505.26238,160.49706 C 507.25065,166.97728 504.33643,167.14000 496.98104,170.13661 C 487.98521,173.80153 474.31631,167.73179 467.40481,164.35288 C 460.83439,161.14070 462.43240,156.35131 454.39128,154.71332 C 444.37398,152.67278 441.30826,158.56914 434.27946,158.56914 z "
       style="fill:#ffffff;fill-opacity:0.77272725;fill-rule:evenodd;stroke:none;stroke-width:1.0000000px;stroke-linecap:butt;stroke-linejoin:miter;stroke-opacity:1.0000000" />
    <path
       id="path9115"
       d="M 255.57447,154.72340 C 251.46654,151.74270 242.54827,150.96946 237.50355,156.01418 C 232.08349,161.43424 233.97993,165.04964 224.59575,165.04964 C 214.76811,165.04964 216.33968,169.19000 219.43263,175.37588 C 221.69289,179.89642 240.40345,177.95744 245.24823,177.95744 C 251.70213,177.95744 258.15603,177.95744 264.60993,177.95744 C 277.52071,177.95744 281.30061,179.15876 287.84397,185.70213 C 292.14815,190.00630 286.82843,172.60448 286.55319,171.50354 C 284.81469,164.54953 282.57117,161.06762 278.80851,157.30496 C 275.08142,153.57787 262.22971,154.72340 255.57447,154.72340 z "
       style="fill:#ffffff;fill-opacity:0.59090906;fill-rule:evenodd;stroke:none;stroke-width:1.0000000px;stroke-linecap:butt;stroke-linejoin:miter;stroke-opacity:1.0000000" />
    <path
       id="path9117"
       d="M 411.75887,267.02128 C 405.91872,261.18112 424.19269,257.74882 427.24823,259.27659 C 435.29491,263.29993 442.50861,261.94402 453.06383,257.98581 C 462.26903,254.53387 468.65560,257.39163 475.00710,260.56737 C 480.15228,263.13997 483.98270,264.43971 491.78724,264.43971 C 501.51646,264.43971 506.03381,263.19692 512.43972,269.60284 C 515.84427,273.00738 533.39968,266.62171 536.96454,265.73050 C 545.36422,263.63058 550.07128,266.12837 552.45390,270.89362 C 557.44810,280.88200 548.00931,278.63830 540.83688,278.63830 C 533.52246,278.63830 526.20804,278.63830 518.89362,278.63830 C 508.99764,278.63830 499.10166,278.63830 489.20568,278.63830 C 480.99280,278.63830 474.86603,275.25406 465.97163,273.47518 C 459.71300,272.22345 453.61047,270.89362 444.02837,270.89362 C 437.57447,270.89362 431.12057,270.89362 424.66667,270.89362 C 418.94043,270.89362 418.48855,268.36721 411.75887,267.02128 z "
       style="fill:#ffffff;fill-opacity:0.59090906;fill-rule:evenodd;stroke:none;stroke-width:1.0000000px;stroke-linecap:butt;stroke-linejoin:miter;stroke-opacity:1.0000000" />
    <path
       d="M 3.8013260,392.15886 C 10.197988,390.02374 17.085903,388.54407 23.784408,387.19344 C 60.854953,383.86471 98.090675,380.50200 135.33397,380.03621 C 266.92211,382.04853 398.32385,389.93455 529.92907,391.39083 C 537.93247,391.43798 545.93582,391.49701 553.93928,391.53230 C 583.44809,391.66241 612.88939,391.45178 642.37610,390.24758 C 651.41311,389.87852 685.72331,382.92561 672.05722,389.34933 C 652.45803,374.90856 630.40443,361.91479 607.77300,352.47410 C 588.26469,345.32536 567.97249,340.63369 547.58731,336.80847 L 553.79110,332.47829 C 574.18474,336.47214 594.48135,341.32504 614.09983,348.24587 C 636.97558,357.60935 660.87027,370.32266 680.11347,385.52282 C 640.78930,414.21283 570.28105,384.87754 525.34724,394.71014 C 393.42332,392.55611 261.65332,384.53850 129.69878,384.14519 C 92.006406,384.96359 54.328769,388.57757 16.851581,392.43163 C 10.008498,393.85058 3.2199605,395.69631 -3.4925269,397.45816 L 3.8013260,392.15886 z "
       id="path9885"
       style="fill:#324f00;fill-opacity:1.0000000;fill-rule:nonzero;stroke:none;stroke-width:1.0000000px;stroke-linecap:butt;stroke-linejoin:miter;stroke-opacity:1.0000000" />
    <path
       d="M 112.65060,483.55746 C 191.89955,450.56026 279.48106,434.76899 364.67692,425.80275 C 556.09731,405.04592 750.25874,411.79233 939.90499,375.53860 C 946.78435,374.11094 953.66371,372.68329 960.54306,371.25563 L 948.25044,380.56049 C 941.57311,381.82639 934.89577,383.09230 928.21843,384.35820 C 738.23164,417.81827 544.26080,412.03725 353.00942,434.47487 C 267.09046,444.16916 178.22176,459.72058 98.815008,494.62463 L 112.65060,483.55746 z "
       id="path9909"
       style="fill:#324f00;fill-opacity:1.0000000;fill-rule:nonzero;stroke:none;stroke-width:1.0000000px;stroke-linecap:butt;stroke-linejoin:miter;stroke-opacity:1.0000000" />
    <path
       d="M 417.40501,489.48238 C 518.84512,455.72499 625.90403,452.63635 731.71255,448.20458 C 765.01321,446.18483 798.27029,443.53943 831.52725,440.91688 L 820.15385,449.31085 C 786.98893,451.66534 753.83427,454.16534 720.65474,456.30947 C 613.71756,460.78565 505.41522,464.82606 403.30882,500.26115 L 417.40501,489.48238 z "
       id="path9911"
       style="fill:#324f00;fill-opacity:1.0000000;fill-rule:nonzero;stroke:none;stroke-width:1.0000000px;stroke-linecap:butt;stroke-linejoin:miter;stroke-opacity:1.0000000" />
    <path
       d="M 169.16321,387.13192 C 123.19100,387.88276 78.225252,398.17484 34.125525,410.40115 C -1.7108246,420.08928 -36.804667,432.64608 -69.877067,449.57556 L -63.357783,444.35638 C -30.479920,427.98034 4.2939027,415.80192 39.689858,406.12302 C 84.383501,393.64448 129.94383,383.77398 176.45707,381.83262 L 169.16321,387.13192 z "
       id="path9919"
       style="fill:#324f00;fill-opacity:1.0000000;fill-rule:nonzero;stroke:none;stroke-width:1.0000000px;stroke-linecap:butt;stroke-linejoin:miter;stroke-opacity:1.0000000" />
    <path
       id="path10746"
       d="M 1.2907801,14.028366 C 10.305282,14.412236 28.383959,20.993297 40.014185,25.645387 C 43.962141,27.224570 38.723404,30.794932 38.723404,16.609926 C 38.723404,12.567336 51.592069,26.857893 51.631206,26.936167 C 53.564984,30.803724 60.671451,23.711609 64.539007,25.645387 C 69.026931,27.889349 73.144208,30.808508 77.446809,33.390068 C 86.035870,38.543505 93.800732,41.857238 94.226951,42.425529 C 98.844986,48.582910 85.767440,29.239968 83.900710,21.773047 C 83.692193,20.938981 102.11111,28.784855 99.390072,17.900706 C 97.154088,8.9567718 118.03569,17.542663 121.33333,19.191487 C 127.89054,22.470090 123.79106,19.315319 129.07801,14.028366 C 134.02834,9.0780423 131.65958,4.4474935 131.65958,2.4113446 C 131.65958,-2.2170322 114.68816,-1.4609958 111.00709,-1.4609958 C 101.07188,-1.4609958 94.437974,-5.3333363 86.482270,-5.3333363 C 76.010111,-5.3333363 61.393771,-9.2056767 49.049646,-9.2056767 C 40.444445,-9.2056767 31.839244,-9.2056767 23.234043,-9.2056767 C 13.272886,-9.2056767 9.8982276,-7.7008898 2.5815603,-4.0425561 C -3.0531561,-1.2251979 -0.99172231,8.3221098 1.2907801,14.028366 z "
       style="fill:url(#linearGradient11512);fill-opacity:1.0;fill-rule:evenodd;stroke:none;stroke-width:1.0000000px;stroke-linecap:butt;stroke-linejoin:miter;stroke-opacity:1.0000000" />
  </g>
</svg>
