<?xml version="1.0" encoding="UTF-8"?>
<svg xmlns="http://www.w3.org/2000/svg" xmlns:xlink="http://www.w3.org/1999/xlink" width="1066.666pt" height="600pt" viewBox="0 0 1066.666 600" version="1.1">
  <defs>
    <linearGradient id="linear0" gradientUnits="userSpaceOnUse" x1="512" y1="0" x2="512" y2="768" >
      <stop offset="0.1" style="stop-color:rgb(60.000002%,30.000001%,40.000001%);stop-opacity:1;"/>
      <stop offset="0.745" style="stop-color:rgb(30.000001%,0.00000119209%,10.000001%);stop-opacity:1;"/>
      <stop offset="0.9" style="stop-color:rgb(60.000002%,30.000001%,40.000001%);stop-opacity:1;"/>
    </linearGradient>
    </defs>
  <g id="surface1">
    <rect x="0" y="0" width="1066.666" height="600" style="fill:url(#linear0);stroke:none;"/>
  </g>
  <!-- logo -->
  <g style="fill:#9c6534;stroke:none;">
    <path d="m 1000.666,414 c 3,0 6,2.7 6,6.3  c -0.03,3.3 -2.4,6.6 -6,6.6 c -3.6,0 -6.6,-3 -6.6,-6.6 l 1.8,0 c 0,1.2 1.2,2.7 3,2.7 c 1.8,0 2.7,-1.5 2.7,-3 c 0,-1.8 -1.5,-3 -2.7,-3 c -1.8,0 -3,1.5 -3,3 l 0 0.3 -1.8 0 c 0 -3.6 2.4 -6.3 6.6 -6.3 z"/>
    <ellipse  cx="980.166" cy="415" rx="3.3" ry="3.3"/>
    <path d="m 991.666,422.5 -7.8,-2.4 c -0.9,-0.3 -1.8,-0.3 -1.2,1.2 l 2.7,4.8 c 0.3,1.2 1.3,0.2 1.2,0.3 l 5.1,-2.7 c 1.2,-0.6 0,-1.2 0,-1.2 z"/>
  </g>
  <path style="fill:none;stroke:#9c6534;stroke-width:0.9;stroke-linecap:round;" d="m 993.466,428.5 c -0.6,1.8 -4.8,2.4 -6.6,0.6 c -1.5,-1.5 -1.5,-3 -1.5,-3 c 0,0 -1.2,1.8 -3.6,1.8 c -3.9,0 -3.9,-4.2 -3.9,-4.2"/>
  <!-- text -->
  <text style="fill:#9c6534;stroke:none;" font-style="italic" font-weight="bold" font-size="14" x="872.666" y="432">Puppy Linux</text>
 
</svg>
