<svg xmlns="http://www.w3.org/2000/svg" width="3831" height="2156" shape-rendering="crispEdges" viewBox="0 -1 3831 2156"><path d="M0 0h3831v2156H0z" style="fill:#333;stroke-width:1.63575"/><path stroke="#966" d="M2940 420h120m-120 1h120m-120 1h120m-120 1h120m-120 1h120m-120 1h120m-120 1h120m-120 1h120m-120 1h120m-120 1h120m-120 1h120m-120 1h120m-120 1h120m-120 1h120m-120 1h120m-120 1h120m-120 1h120m-120 1h120m-120 1h120m-120 1h120m-120 1h120m-120 1h120m-120 1h120m-120 1h120m-120 1h120m-120 1h120m-120 1h120m-120 1h120m-120 1h120m-120 1h120m-120 1h120m-120 1h120m-120 1h120m-120 1h120m-120 1h120m-120 1h120m-120 1h120m-120 1h120m-120 1h120m-120 1h120m-120 1h120m-120 1h120m-120 1h120m-120 1h120m-120 1h120m-120 1h120m-120 1h120m-120 1h120m-120 1h120m-120 1h120m-120 1h120m-120 1h120m-120 1h120m-120 1h120m-120 1h120m-120 1h120m-120 1h120m-120 1h120m-120 1h120m-120 1h120m-240 61h60m240 0h60m-360 1h60m240 0h60m-360 1h60m240 0h60m-360 1h60m240 0h60m-360 1h60m240 0h60m-360 1h60m240 0h60m-360 1h60m240 0h60m-360 1h60m240 0h60m-360 1h60m240 0h60m-360 1h60m240 0h60m-360 1h60m240 0h60m-360 1h60m240 0h60m-360 1h60m240 0h60m-360 1h60m240 0h60m-360 1h60m240 0h60m-360 1h60m240 0h60m-360 1h60m240 0h60m-360 1h60m240 0h60m-360 1h60m240 0h60m-360 1h60m240 0h60m-360 1h60m240 0h60m-360 1h60m240 0h60m-360 1h60m240 0h60m-360 1h60m240 0h60m-360 1h60m240 0h60m-360 1h60m240 0h60m-360 1h60m240 0h60m-360 1h60m240 0h60m-360 1h60m240 0h60m-360 1h60m240 0h60m-360 1h60m240 0h60m-360 1h60m240 0h60m-360 1h60m240 0h60m-360 1h60m240 0h60m-360 1h60m240 0h60m-360 1h60m240 0h60m-360 1h60m240 0h60m-360 1h60m240 0h60m-360 1h60m240 0h60m-360 1h60m240 0h60m-360 1h60m240 0h60m-360 1h60m240 0h60m-360 1h60m240 0h60m-360 1h60m240 0h60m-360 1h60m240 0h60m-360 1h60m240 0h60m-360 1h60m240 0h60m-360 1h60m240 0h60m-360 1h60m240 0h60m-360 1h60m240 0h60m-360 1h60m240 0h60m-360 1h60m240 0h60m-360 1h60m240 0h60m-360 1h60m240 0h60m-360 1h60m240 0h60m-360 1h60m240 0h60m-360 1h60m240 0h60m-360 1h60m240 0h60m-360 1h60m240 0h60m-360 1h60m240 0h60m-360 1h60m240 0h60m-360 1h60m240 0h60m-360 1h60m240 0h60m-360 1h60m240 0h60m-360 1h60m240 0h60m-360 1h60m240 0h60m-360 1h60m240 0h60m-360 1h60m240 0h60m-360 1h60m240 0h60m-360 1h60m240 0h60m-360 1h60m240 0h60m-360 1h60m240 0h60m-360 1h60m240 0h60m-360 1h60m240 0h60m-360 1h60m240 0h60m-360 1h60m240 0h60m-360 1h60m240 0h60m-360 1h60m240 0h60m-360 1h60m240 0h60m-360 1h60m240 0h60m-360 1h60m240 0h60m-360 1h60m240 0h60m-360 1h60m240 0h60m-360 1h60m240 0h60m-360 1h60m240 0h60m-360 1h60m240 0h60m-360 1h60m240 0h60m-360 1h60m240 0h60m-360 1h60m240 0h60m-360 1h60m240 0h60m-360 1h60m240 0h60m-360 1h60m240 0h60m-360 1h60m240 0h60m-360 1h60m240 0h60m-360 1h60m240 0h60m-360 1h60m240 0h60m-360 1h60m240 0h60m-360 1h60m240 0h60m-360 1h60m240 0h60m-360 1h60m240 0h60m-360 1h60m240 0h60m-360 1h60m240 0h60m-360 1h60m240 0h60m-360 1h60m240 0h60m-360 1h60m240 0h60m-360 1h60m240 0h60m-360 1h60m240 0h60m-360 1h60m240 0h60m-360 1h60m240 0h60m-360 1h60m240 0h60m-360 1h60m240 0h60m-360 1h60m240 0h60m-360 1h60m240 0h60m-360 1h60m240 0h60m-360 1h60m240 0h60m-360 1h60m240 0h60m-360 1h60m240 0h60m-360 1h60m240 0h60m-360 1h60m240 0h60m-360 1h60m240 0h60m-240 61h120m-120 1h120m-120 1h120m-120 1h120m-120 1h120m-120 1h120m-120 1h120m-120 1h120m-120 1h120m-120 1h120m-120 1h120m-120 1h120m-120 1h120m-120 1h120m-120 1h120m-120 1h120m-120 1h120m-120 1h120m-120 1h120m-120 1h120m-120 1h120m-120 1h120m-120 1h120m-120 1h120m-120 1h120m-120 1h120m-120 1h120m-120 1h120m-120 1h120m-120 1h120m-120 1h120m-120 1h120m-120 1h120m-120 1h120m-120 1h120m-120 1h120m-120 1h120m-120 1h120m-120 1h120m-120 1h120m-120 1h120m-120 1h120m-120 1h120m-120 1h120m-120 1h120m-120 1h120m-120 1h120m-120 1h120m-120 1h120m-120 1h120m-120 1h120m-120 1h120m-120 1h120m-120 1h120m-120 1h120m-120 1h120m-120 1h120m-120 1h120m-120 1h120m-120 1h120"/><path stroke="#c69" d="M2880 480h240m-240 1h240m-240 1h240m-240 1h240m-240 1h240m-240 1h240m-240 1h240m-240 1h240m-240 1h240m-240 1h240m-240 1h240m-240 1h240m-240 1h240m-240 1h240m-240 1h240m-240 1h240m-240 1h240m-240 1h240m-240 1h240m-240 1h240m-240 1h240m-240 1h240m-240 1h240m-240 1h240m-240 1h240m-240 1h240m-240 1h240m-240 1h240m-240 1h240m-240 1h240m-240 1h240m-240 1h240m-240 1h240m-240 1h240m-240 1h240m-240 1h240m-240 1h240m-240 1h240m-240 1h240m-240 1h240m-240 1h240m-240 1h240m-240 1h240m-240 1h240m-240 1h240m-240 1h240m-240 1h240m-240 1h240m-240 1h240m-240 1h240m-240 1h240m-240 1h240m-240 1h240m-240 1h240m-240 1h240m-240 1h240m-240 1h240m-240 1h240m-240 1h240m-240 1h240m-240 1h240m-240 1h240m-240 1h240m-240 1h240m-240 1h240m-240 1h240m-240 1h240m-240 1h240m-240 1h240m-240 1h240m-240 1h240m-240 1h240m-240 1h240m-240 1h240m-240 1h240m-240 1h240m-240 1h240m-240 1h240m-240 1h240m-240 1h240m-240 1h240m-240 1h240m-240 1h240m-240 1h240m-240 1h240m-240 1h240m-240 1h240m-240 1h240m-240 1h240m-240 1h240m-240 1h240m-240 1h240m-240 1h240m-240 1h240m-240 1h240m-240 1h240m-240 1h240m-240 1h240m-240 1h240m-240 1h240m-240 1h240m-240 1h240m-240 1h240m-240 1h240m-240 1h240m-240 1h240m-240 1h240m-240 1h240m-240 1h240m-240 1h240m-240 1h240m-240 1h240m-240 1h240m-240 1h240m-240 1h240m-240 1h240m-240 1h240m-240 1h240m-240 1h240m-240 1h240m-240 1h240m-240 1h240m-240 1h240m-240 1h240m-240 1h240m-240 1h240m-240 1h240m-240 1h240m-240 1h240m-240 1h240m-240 1h240m-240 1h240m-240 1h240m-240 1h240m-240 1h240m-240 1h240m-240 1h240m-240 1h240m-240 1h240m-240 1h240m-240 1h240m-240 1h240m-240 1h240m-240 1h240m-240 1h240m-240 1h240m-240 1h240m-240 1h240m-240 1h240m-240 1h240m-240 1h240m-240 1h240m-240 1h240m-240 1h240m-240 1h240m-240 1h240m-240 1h240m-240 1h240m-240 1h240m-240 1h240m-240 1h240m-240 1h240m-240 1h240m-240 1h240m-240 1h240m-240 1h240m-240 1h240m-240 1h240m-240 1h240m-240 1h240m-240 1h240m-240 1h240m-240 1h240m-240 1h240m-240 1h240m-240 1h240m-240 1h240m-240 1h240m-240 1h240m-240 1h240m-240 1h240m-240 1h240m-240 1h240m-240 1h240m-240 1h240m-240 1h240m-240 1h240m-240 1h240m-240 1h240m-240 1h240m-240 1h240m-240 1h240m-240 1h240m-240 1h240m-240 1h240m-240 1h240m-240 1h240m-240 1h240m-240 1h240m-240 1h240m-240 1h240m-240 1h240m-240 1h240m-240 1h240m-240 1h240m-240 1h240m-240 1h240m-240 1h240m-240 1h240m-240 1h240m-240 1h240m-240 1h240m-240 1h240m-240 1h240m-240 1h240m-240 1h240m-240 1h240m-240 1h240m-240 1h240m-240 1h240m-240 1h240m-240 1h240m-240 1h240m-240 1h240m-240 1h240m-240 1h240m-240 1h240m-240 1h240m-240 1h240m-240 1h240m-240 1h240m-240 1h240m-240 1h240m-240 1h240m-240 1h240m-240 1h240m-240 1h240m-240 1h240m-240 1h240m-240 1h240"/><path stroke="#336" d="M3120 780h360m-360 1h360m-360 1h360m-360 1h360m-360 1h360m-360 1h360m-360 1h360m-360 1h360m-360 1h360m-360 1h360m-360 1h360m-360 1h360m-360 1h360m-360 1h360m-360 1h360m-360 1h360m-360 1h360m-360 1h360m-360 1h360m-360 1h360m-360 1h360m-360 1h360m-360 1h360m-360 1h360m-360 1h360m-360 1h360m-360 1h360m-360 1h360m-360 1h360m-360 1h360m-360 1h360m-360 1h360m-360 1h360m-360 1h360m-360 1h360m-360 1h360m-360 1h360m-360 1h360m-360 1h360m-360 1h360m-360 1h360m-360 1h360m-360 1h360m-360 1h360m-360 1h360m-360 1h360m-360 1h360m-360 1h360m-360 1h360m-360 1h360m-360 1h360m-360 1h360m-360 1h360m-360 1h360m-360 1h360m-360 1h360m-360 1h360m-360 1h360m-360 1h360m-360 1h360m-420 1h480m-480 1h480m-480 1h480m-480 1h480m-480 1h480m-480 1h480m-480 1h480m-480 1h480m-480 1h480m-480 1h480m-480 1h480m-480 1h480m-480 1h480m-480 1h480m-480 1h480m-480 1h480m-480 1h480m-480 1h480m-480 1h480m-480 1h480m-480 1h480m-480 1h480m-480 1h480m-480 1h480m-480 1h480m-480 1h480m-480 1h480m-480 1h480m-480 1h480m-480 1h480m-480 1h480m-480 1h480m-480 1h480m-480 1h480m-480 1h480m-480 1h480m-480 1h480m-480 1h480m-480 1h480m-480 1h480m-480 1h480m-480 1h480m-480 1h480m-480 1h480m-480 1h480m-480 1h480m-480 1h480m-480 1h480m-480 1h480m-480 1h480m-480 1h480m-480 1h480m-480 1h480m-480 1h480m-480 1h480m-480 1h480m-480 1h480m-480 1h480m-480 1h480m-480 1h480m-480 1h180m60 0h180m-420 1h180m60 0h180m-420 1h180m60 0h180m-420 1h180m60 0h180m-420 1h180m60 0h180m-420 1h180m60 0h180m-420 1h180m60 0h180m-420 1h180m60 0h180m-420 1h180m60 0h180m-420 1h180m60 0h180m-420 1h180m60 0h180m-420 1h180m60 0h180m-420 1h180m60 0h180m-420 1h180m60 0h180m-420 1h180m60 0h180m-420 1h180m60 0h180m-420 1h180m60 0h180m-420 1h180m60 0h180m-420 1h180m60 0h180m-420 1h180m60 0h180m-420 1h180m60 0h180m-420 1h180m60 0h180m-420 1h180m60 0h180m-420 1h180m60 0h180m-420 1h180m60 0h180m-420 1h180m60 0h180m-420 1h180m60 0h180m-420 1h180m60 0h180m-420 1h180m60 0h180m-420 1h180m60 0h180m-420 1h180m60 0h180m-420 1h180m60 0h180m-420 1h180m60 0h180m-420 1h180m60 0h180m-420 1h180m60 0h180m-420 1h180m60 0h180m-420 1h180m60 0h180m-420 1h180m60 0h180m-420 1h180m60 0h180m-420 1h180m60 0h180m-420 1h180m60 0h180m-420 1h180m60 0h180m-420 1h180m60 0h180m-420 1h180m60 0h180m-420 1h180m60 0h180m-420 1h180m60 0h180m-420 1h180m60 0h180m-420 1h180m60 0h180m-420 1h180m60 0h180m-420 1h180m60 0h180m-420 1h180m60 0h180m-420 1h180m60 0h180m-420 1h180m60 0h180m-420 1h180m60 0h180m-420 1h180m60 0h180m-420 1h180m60 0h180m-420 1h180m60 0h180m-420 1h180m60 0h180m-420 1h180m60 0h180m-420 1h180m60 0h180m-3060 1h480m2280 0h180m-2940 1h480m2280 0h180m-2940 1h480m2280 0h180m-2940 1h480m2280 0h180m-2940 1h480m2280 0h180m-2940 1h480m2280 0h180m-2940 1h480m2280 0h180m-2940 1h480m2280 0h180m-2940 1h480m2280 0h180m-2940 1h480m2280 0h180m-2940 1h480m2280 0h180m-2940 1h480m2280 0h180m-2940 1h480m2280 0h180m-2940 1h480m2280 0h180m-2940 1h480m2280 0h180m-2940 1h480m2280 0h180m-2940 1h480m2280 0h180m-2940 1h480m2280 0h180m-2940 1h480m2280 0h180m-2940 1h480m2280 0h180m-2940 1h480m2280 0h180m-2940 1h480m2280 0h180m-2940 1h480m2280 0h180m-2940 1h480m2280 0h180m-2940 1h480m2280 0h180m-2940 1h480m2280 0h180m-2940 1h480m2280 0h180m-2940 1h480m2280 0h180m-2940 1h480m2280 0h180m-2940 1h480m2280 0h180m-2940 1h480m2280 0h180m-2940 1h480m2280 0h180m-2940 1h480m2280 0h180m-2940 1h480m2280 0h180m-2940 1h480m2280 0h180m-2940 1h480m2280 0h180m-2940 1h480m2280 0h180m-2940 1h480m2280 0h180m-2940 1h480m2280 0h180m-2940 1h480m2280 0h180m-2940 1h480m2280 0h180m-2940 1h480m2280 0h180m-2940 1h480m2280 0h180m-2940 1h480m2280 0h180m-2940 1h480m2280 0h180m-2940 1h480m2280 0h180m-2940 1h480m2280 0h180m-2940 1h480m2280 0h180m-2940 1h480m2280 0h180m-2940 1h480m2280 0h180m-2940 1h480m2280 0h180m-2940 1h480m2280 0h180m-2940 1h480m2280 0h180m-2940 1h480m2280 0h180m-2940 1h480m2280 0h180m-2940 1h480m2280 0h180m-2940 1h480m2280 0h180m-2940 1h480m2280 0h180m-2940 1h480m2280 0h180m-2940 1h480m2280 0h180m-3000 1h600m2280 0h180m-3060 1h600m2280 0h180m-3060 1h600m2280 0h180m-3060 1h600m2280 0h180m-3060 1h600m2280 0h180m-3060 1h600m2280 0h180m-3060 1h600m2280 0h180m-3060 1h600m2280 0h180m-3060 1h600m2280 0h180m-3060 1h600m2280 0h180m-3060 1h600m2280 0h180m-3060 1h600m2280 0h180m-3060 1h600m2280 0h180m-3060 1h600m2280 0h180m-3060 1h600m2280 0h180m-3060 1h600m2280 0h180m-3060 1h600m2280 0h180m-3060 1h600m2280 0h180m-3060 1h600m2280 0h180m-3060 1h600m2280 0h180m-3060 1h600m2280 0h180m-3060 1h600m2280 0h180m-3060 1h600m2280 0h180m-3060 1h600m2280 0h180m-3060 1h600m2280 0h180m-3060 1h600m2280 0h180m-3060 1h600m2280 0h180m-3060 1h600m2280 0h180m-3060 1h600m2280 0h180m-3060 1h600m2280 0h180m-3060 1h600m2280 0h180m-3060 1h600m2280 0h180m-3060 1h600m2280 0h180m-3060 1h600m2280 0h180m-3060 1h600m2280 0h180m-3060 1h600m2280 0h180m-3060 1h600m2280 0h180m-3060 1h600m2280 0h180m-3060 1h600m2280 0h180m-3060 1h600m2280 0h180m-3060 1h600m2280 0h180m-3060 1h600m2280 0h180m-3060 1h600m2280 0h180m-3060 1h600m2280 0h180m-3060 1h600m2280 0h180m-3060 1h600m2280 0h180m-3060 1h600m2280 0h180m-3060 1h600m2280 0h180m-3060 1h600m2280 0h180m-3060 1h600m2280 0h180m-3060 1h600m2280 0h180m-3060 1h600m2280 0h180m-3060 1h600m2280 0h180m-3060 1h600m2280 0h180m-3060 1h600m2280 0h180m-3060 1h600m2280 0h180m-3060 1h600m2280 0h180m-3060 1h600m2280 0h180m-3060 1h600m2280 0h180m-3060 1h600m2280 0h180m-3120 1h720m2340 0h60m-3120 1h720m2340 0h60m-3120 1h720m2340 0h60m-3120 1h720m2340 0h60m-3120 1h720m2340 0h60m-3120 1h720m2340 0h60m-3120 1h720m2340 0h60m-3120 1h720m2340 0h60m-3120 1h720m2340 0h60m-3120 1h720m2340 0h60m-3120 1h720m2340 0h60m-3120 1h720m2340 0h60m-3120 1h720m2340 0h60m-3120 1h720m2340 0h60m-3120 1h720m2340 0h60m-3120 1h720m2340 0h60m-3120 1h720m2340 0h60m-3120 1h720m2340 0h60m-3120 1h720m2340 0h60m-3120 1h720m2340 0h60m-3120 1h720m2340 0h60m-3120 1h720m2340 0h60m-3120 1h720m2340 0h60m-3120 1h720m2340 0h60m-3120 1h720m2340 0h60m-3120 1h720m2340 0h60m-3120 1h720m2340 0h60m-3120 1h720m2340 0h60m-3120 1h720m2340 0h60m-3120 1h720m2340 0h60m-3120 1h720m2340 0h60m-3120 1h720m2340 0h60m-3120 1h720m2340 0h60m-3120 1h720m2340 0h60m-3120 1h720m2340 0h60m-3120 1h720m2340 0h60m-3120 1h720m2340 0h60m-3120 1h720m2340 0h60m-3120 1h720m2340 0h60m-3120 1h720m2340 0h60m-3120 1h720m2340 0h60m-3120 1h720m2340 0h60m-3120 1h720m2340 0h60m-3120 1h720m2340 0h60m-3120 1h720m2340 0h60m-3120 1h720m2340 0h60m-3120 1h720m2340 0h60m-3120 1h720m2340 0h60m-3120 1h720m2340 0h60m-3120 1h720m2340 0h60m-3120 1h720m2340 0h60m-3120 1h720m2340 0h60m-3120 1h720m2340 0h60m-3120 1h720m2340 0h60m-3120 1h720m2340 0h60m-3120 1h720m2340 0h60m-3120 1h720m2340 0h60m-3120 1h720m2340 0h60m-3120 1h720m2340 0h60m-3120 1h720m2340 0h60m-3060 1h600m2340 0h60m420 0h51m-3471 1h600m2340 0h60m420 0h51m-3471 1h600m2340 0h60m420 0h51m-3471 1h600m2340 0h60m420 0h51m-3471 1h600m2340 0h60m420 0h51m-3471 1h600m2340 0h60m420 0h51m-3471 1h600m2340 0h60m420 0h51m-3471 1h600m2340 0h60m420 0h51m-3471 1h600m2340 0h60m420 0h51m-3471 1h600m2340 0h60m420 0h51m-3471 1h600m2340 0h60m420 0h51m-3471 1h600m2340 0h60m420 0h51m-3471 1h600m2340 0h60m420 0h51m-3471 1h600m2340 0h60m420 0h51m-3471 1h600m2340 0h60m420 0h51m-3471 1h600m2340 0h60m420 0h51m-3471 1h600m2340 0h60m420 0h51m-3471 1h600m2340 0h60m420 0h51m-3471 1h600m2340 0h60m420 0h51m-3471 1h600m2340 0h60m420 0h51m-3471 1h600m2340 0h60m420 0h51m-3471 1h600m2340 0h60m420 0h51m-3471 1h600m2340 0h60m420 0h51m-3471 1h600m2340 0h60m420 0h51m-3471 1h600m2340 0h60m420 0h51m-3471 1h600m2340 0h60m420 0h51m-3471 1h600m2340 0h60m420 0h51m-3471 1h600m2340 0h60m420 0h51m-3471 1h600m2340 0h60m420 0h51m-3471 1h600m2340 0h60m420 0h51m-3471 1h600m2340 0h60m420 0h51m-3471 1h600m2340 0h60m420 0h51m-3471 1h600m2340 0h60m420 0h51m-3471 1h600m2340 0h60m420 0h51m-3471 1h600m2340 0h60m420 0h51m-3471 1h600m2340 0h60m420 0h51m-3471 1h600m2340 0h60m420 0h51m-3471 1h600m2340 0h60m420 0h51m-3471 1h600m2340 0h60m420 0h51m-3471 1h600m2340 0h60m420 0h51m-3471 1h600m2340 0h60m420 0h51m-3471 1h600m2340 0h60m420 0h51m-3471 1h600m2340 0h60m420 0h51m-3471 1h600m2340 0h60m420 0h51m-3471 1h600m2340 0h60m420 0h51m-3471 1h600m2340 0h60m420 0h51m-3471 1h600m2340 0h60m420 0h51m-3471 1h600m2340 0h60m420 0h51m-3471 1h600m2340 0h60m420 0h51m-3471 1h600m2340 0h60m420 0h51m-3471 1h600m2340 0h60m420 0h51m-3471 1h600m2340 0h60m420 0h51m-3471 1h600m2340 0h60m420 0h51m-3471 1h600m2340 0h60m420 0h51m-3471 1h600m2340 0h60m420 0h51m-3471 1h600m2340 0h60m420 0h51m-3471 1h600m2340 0h60m420 0h51m-3471 1h600m2340 0h60m420 0h51m-3471 1h600m2340 0h60m420 0h51m-3471 1h600m2340 0h60m420 0h51m-3411 1h60m60 0h300m2460 0h60m240 0h231m-3411 1h60m60 0h300m2460 0h60m240 0h231m-3411 1h60m60 0h300m2460 0h60m240 0h231m-3411 1h60m60 0h300m2460 0h60m240 0h231m-3411 1h60m60 0h300m2460 0h60m240 0h231m-3411 1h60m60 0h300m2460 0h60m240 0h231m-3411 1h60m60 0h300m2460 0h60m240 0h231m-3411 1h60m60 0h300m2460 0h60m240 0h231m-3411 1h60m60 0h300m2460 0h60m240 0h231m-3411 1h60m60 0h300m2460 0h60m240 0h231m-3411 1h60m60 0h300m2460 0h60m240 0h231m-3411 1h60m60 0h300m2460 0h60m240 0h231m-3411 1h60m60 0h300m2460 0h60m240 0h231m-3411 1h60m60 0h300m2460 0h60m240 0h231m-3411 1h60m60 0h300m2460 0h60m240 0h231m-3411 1h60m60 0h300m2460 0h60m240 0h231m-3411 1h60m60 0h300m2460 0h60m240 0h231m-3411 1h60m60 0h300m2460 0h60m240 0h231m-3411 1h60m60 0h300m2460 0h60m240 0h231m-3411 1h60m60 0h300m2460 0h60m240 0h231m-3411 1h60m60 0h300m2460 0h60m240 0h231m-3411 1h60m60 0h300m2460 0h60m240 0h231m-3411 1h60m60 0h300m2460 0h60m240 0h231m-3411 1h60m60 0h300m2460 0h60m240 0h231m-3411 1h60m60 0h300m2460 0h60m240 0h231m-3411 1h60m60 0h300m2460 0h60m240 0h231m-3411 1h60m60 0h300m2460 0h60m240 0h231m-3411 1h60m60 0h300m2460 0h60m240 0h231m-3411 1h60m60 0h300m2460 0h60m240 0h231m-3411 1h60m60 0h300m2460 0h60m240 0h231m-3411 1h60m60 0h300m2460 0h60m240 0h231m-3411 1h60m60 0h300m2460 0h60m240 0h231m-3411 1h60m60 0h300m2460 0h60m240 0h231m-3411 1h60m60 0h300m2460 0h60m240 0h231m-3411 1h60m60 0h300m2460 0h60m240 0h231m-3411 1h60m60 0h300m2460 0h60m240 0h231m-3411 1h60m60 0h300m2460 0h60m240 0h231m-3411 1h60m60 0h300m2460 0h60m240 0h231m-3411 1h60m60 0h300m2460 0h60m240 0h231m-3411 1h60m60 0h300m2460 0h60m240 0h231m-3411 1h60m60 0h300m2460 0h60m240 0h231m-3411 1h60m60 0h300m2460 0h60m240 0h231m-3411 1h60m60 0h300m2460 0h60m240 0h231m-3411 1h60m60 0h300m2460 0h60m240 0h231m-3411 1h60m60 0h300m2460 0h60m240 0h231m-3411 1h60m60 0h300m2460 0h60m240 0h231m-3411 1h60m60 0h300m2460 0h60m240 0h231m-3411 1h60m60 0h300m2460 0h60m240 0h231m-3411 1h60m60 0h300m2460 0h60m240 0h231m-3411 1h60m60 0h300m2460 0h60m240 0h231m-3411 1h60m60 0h300m2460 0h60m240 0h231m-3411 1h60m60 0h300m2460 0h60m240 0h231m-3411 1h60m60 0h300m2460 0h60m240 0h231m-3411 1h60m60 0h300m2460 0h60m240 0h231m-3411 1h60m60 0h300m2460 0h60m240 0h231m-3411 1h60m60 0h300m2460 0h60m240 0h231m-3411 1h60m60 0h300m2460 0h60m240 0h231m-3411 1h60m60 0h300m2460 0h60m240 0h231m-3411 1h60m60 0h300m2460 0h60m240 0h231m-3411 1h60m60 0h300m2460 0h60m240 0h231m-3291 1h120m60 0h60m2280 0h771m-3291 1h120m60 0h60m2280 0h771m-3291 1h120m60 0h60m2280 0h771m-3291 1h120m60 0h60m2280 0h771m-3291 1h120m60 0h60m2280 0h771m-3291 1h120m60 0h60m2280 0h771m-3291 1h120m60 0h60m2280 0h771m-3291 1h120m60 0h60m2280 0h771m-3291 1h120m60 0h60m2280 0h771m-3291 1h120m60 0h60m2280 0h771m-3291 1h120m60 0h60m2280 0h771m-3291 1h120m60 0h60m2280 0h771m-3291 1h120m60 0h60m2280 0h771m-3291 1h120m60 0h60m2280 0h771m-3291 1h120m60 0h60m2280 0h771m-3291 1h120m60 0h60m2280 0h771m-3291 1h120m60 0h60m2280 0h771m-3291 1h120m60 0h60m2280 0h771m-3291 1h120m60 0h60m2280 0h771m-3291 1h120m60 0h60m2280 0h771m-3291 1h120m60 0h60m2280 0h771m-3291 1h120m60 0h60m2280 0h771m-3291 1h120m60 0h60m2280 0h771m-3291 1h120m60 0h60m2280 0h771m-3291 1h120m60 0h60m2280 0h771m-3291 1h120m60 0h60m2280 0h771m-3291 1h120m60 0h60m2280 0h771m-3291 1h120m60 0h60m2280 0h771m-3291 1h120m60 0h60m2280 0h771m-3291 1h120m60 0h60m2280 0h771m-3291 1h120m60 0h60m2280 0h771m-3291 1h120m60 0h60m2280 0h771m-3291 1h120m60 0h60m2280 0h771m-3291 1h120m60 0h60m2280 0h771m-3291 1h120m60 0h60m2280 0h771m-3291 1h120m60 0h60m2280 0h771m-3291 1h120m60 0h60m2280 0h771m-3291 1h120m60 0h60m2280 0h771m-3291 1h120m60 0h60m2280 0h771m-3291 1h120m60 0h60m2280 0h771m-3291 1h120m60 0h60m2280 0h771m-3291 1h120m60 0h60m2280 0h771m-3291 1h120m60 0h60m2280 0h771m-3291 1h120m60 0h60m2280 0h771m-3291 1h120m60 0h60m2280 0h771m-3291 1h120m60 0h60m2280 0h771m-3291 1h120m60 0h60m2280 0h771m-3291 1h120m60 0h60m2280 0h771m-3291 1h120m60 0h60m2280 0h771m-3291 1h120m60 0h60m2280 0h771m-3291 1h120m60 0h60m2280 0h771m-3291 1h120m60 0h60m2280 0h771m-3291 1h120m60 0h60m2280 0h771m-3291 1h120m60 0h60m2280 0h771m-3291 1h120m60 0h60m2280 0h771m-3291 1h120m60 0h60m2280 0h771m-3291 1h120m60 0h60m2280 0h771m-3291 1h120m60 0h60m2280 0h771m-3291 1h120m60 0h60m2280 0h771m-3291 1h120m60 0h60m2280 0h771M0 1320h540m60 0h60m60 0h60m2040 0h1011M0 1321h540m60 0h60m60 0h60m2040 0h1011M0 1322h540m60 0h60m60 0h60m2040 0h1011M0 1323h540m60 0h60m60 0h60m2040 0h1011M0 1324h540m60 0h60m60 0h60m2040 0h1011M0 1325h540m60 0h60m60 0h60m2040 0h1011M0 1326h540m60 0h60m60 0h60m2040 0h1011M0 1327h540m60 0h60m60 0h60m2040 0h1011M0 1328h540m60 0h60m60 0h60m2040 0h1011M0 1329h540m60 0h60m60 0h60m2040 0h1011M0 1330h540m60 0h60m60 0h60m2040 0h1011M0 1331h540m60 0h60m60 0h60m2040 0h1011M0 1332h540m60 0h60m60 0h60m2040 0h1011M0 1333h540m60 0h60m60 0h60m2040 0h1011M0 1334h540m60 0h60m60 0h60m2040 0h1011M0 1335h540m60 0h60m60 0h60m2040 0h1011M0 1336h540m60 0h60m60 0h60m2040 0h1011M0 1337h540m60 0h60m60 0h60m2040 0h1011M0 1338h540m60 0h60m60 0h60m2040 0h1011M0 1339h540m60 0h60m60 0h60m2040 0h1011M0 1340h540m60 0h60m60 0h60m2040 0h1011M0 1341h540m60 0h60m60 0h60m2040 0h1011M0 1342h540m60 0h60m60 0h60m2040 0h1011M0 1343h540m60 0h60m60 0h60m2040 0h1011M0 1344h540m60 0h60m60 0h60m2040 0h1011M0 1345h540m60 0h60m60 0h60m2040 0h1011M0 1346h540m60 0h60m60 0h60m2040 0h1011M0 1347h540m60 0h60m60 0h60m2040 0h1011M0 1348h540m60 0h60m60 0h60m2040 0h1011M0 1349h540m60 0h60m60 0h60m2040 0h1011M0 1350h540m60 0h60m60 0h60m2040 0h1011M0 1351h540m60 0h60m60 0h60m2040 0h1011M0 1352h540m60 0h60m60 0h60m2040 0h1011M0 1353h540m60 0h60m60 0h60m2040 0h1011M0 1354h540m60 0h60m60 0h60m2040 0h1011M0 1355h540m60 0h60m60 0h60m2040 0h1011M0 1356h540m60 0h60m60 0h60m2040 0h1011M0 1357h540m60 0h60m60 0h60m2040 0h1011M0 1358h540m60 0h60m60 0h60m2040 0h1011M0 1359h540m60 0h60m60 0h60m2040 0h1011M0 1360h540m60 0h60m60 0h60m2040 0h1011M0 1361h540m60 0h60m60 0h60m2040 0h1011M0 1362h540m60 0h60m60 0h60m2040 0h1011M0 1363h540m60 0h60m60 0h60m2040 0h1011M0 1364h540m60 0h60m60 0h60m2040 0h1011M0 1365h540m60 0h60m60 0h60m2040 0h1011M0 1366h540m60 0h60m60 0h60m2040 0h1011M0 1367h540m60 0h60m60 0h60m2040 0h1011M0 1368h540m60 0h60m60 0h60m2040 0h1011M0 1369h540m60 0h60m60 0h60m2040 0h1011M0 1370h540m60 0h60m60 0h60m2040 0h1011M0 1371h540m60 0h60m60 0h60m2040 0h1011M0 1372h540m60 0h60m60 0h60m2040 0h1011M0 1373h540m60 0h60m60 0h60m2040 0h1011M0 1374h540m60 0h60m60 0h60m2040 0h1011M0 1375h540m60 0h60m60 0h60m2040 0h1011M0 1376h540m60 0h60m60 0h60m2040 0h1011M0 1377h540m60 0h60m60 0h60m2040 0h1011M0 1378h540m60 0h60m60 0h60m2040 0h1011M0 1379h540m60 0h60m60 0h60m2040 0h1011M0 1380h720m720 0h360m840 0h1191M0 1381h720m720 0h360m840 0h1191M0 1382h720m720 0h360m840 0h1191M0 1383h720m720 0h360m840 0h1191M0 1384h720m720 0h360m840 0h1191M0 1385h720m720 0h360m840 0h1191M0 1386h720m720 0h360m840 0h1191M0 1387h720m720 0h360m840 0h1191M0 1388h720m720 0h360m840 0h1191M0 1389h720m720 0h360m840 0h1191M0 1390h720m720 0h360m840 0h1191M0 1391h720m720 0h360m840 0h1191M0 1392h720m720 0h360m840 0h1191M0 1393h720m720 0h360m840 0h1191M0 1394h720m720 0h360m840 0h1191M0 1395h720m720 0h360m840 0h1191M0 1396h720m720 0h360m840 0h1191M0 1397h720m720 0h360m840 0h1191M0 1398h720m720 0h360m840 0h1191M0 1399h720m720 0h360m840 0h1191M0 1400h720m720 0h360m840 0h1191M0 1401h720m720 0h360m840 0h1191M0 1402h720m720 0h360m840 0h1191M0 1403h720m720 0h360m840 0h1191M0 1404h720m720 0h360m840 0h1191M0 1405h720m720 0h360m840 0h1191M0 1406h720m720 0h360m840 0h1191M0 1407h720m720 0h360m840 0h1191M0 1408h720m720 0h360m840 0h1191M0 1409h720m720 0h360m840 0h1191M0 1410h720m720 0h360m840 0h1191M0 1411h720m720 0h360m840 0h1191M0 1412h720m720 0h360m840 0h1191M0 1413h720m720 0h360m840 0h1191M0 1414h720m720 0h360m840 0h1191M0 1415h720m720 0h360m840 0h1191M0 1416h720m720 0h360m840 0h1191M0 1417h720m720 0h360m840 0h1191M0 1418h720m720 0h360m840 0h1191M0 1419h720m720 0h360m840 0h1191M0 1420h720m720 0h360m840 0h1191M0 1421h720m720 0h360m840 0h1191M0 1422h720m720 0h360m840 0h1191M0 1423h720m720 0h360m840 0h1191M0 1424h720m720 0h360m840 0h1191M0 1425h720m720 0h360m840 0h1191M0 1426h720m720 0h360m840 0h1191M0 1427h720m720 0h360m840 0h1191M0 1428h720m720 0h360m840 0h1191M0 1429h720m720 0h360m840 0h1191M0 1430h720m720 0h360m840 0h1191M0 1431h720m720 0h360m840 0h1191M0 1432h720m720 0h360m840 0h1191M0 1433h720m720 0h360m840 0h1191M0 1434h720m720 0h360m840 0h1191M0 1435h720m720 0h360m840 0h1191M0 1436h720m720 0h360m840 0h1191M0 1437h720m720 0h360m840 0h1191M0 1438h720m720 0h360m840 0h1191M0 1439h720m720 0h360m840 0h1191M0 1440h840m480 0h480m180 0h1851M0 1441h840m480 0h480m180 0h1851M0 1442h840m480 0h480m180 0h1851M0 1443h840m480 0h480m180 0h1851M0 1444h840m480 0h480m180 0h1851M0 1445h840m480 0h480m180 0h1851M0 1446h840m480 0h480m180 0h1851M0 1447h840m480 0h480m180 0h1851M0 1448h840m480 0h480m180 0h1851M0 1449h840m480 0h480m180 0h1851M0 1450h840m480 0h480m180 0h1851M0 1451h840m480 0h480m180 0h1851M0 1452h840m480 0h480m180 0h1851M0 1453h840m480 0h480m180 0h1851M0 1454h840m480 0h480m180 0h1851M0 1455h840m480 0h480m180 0h1851M0 1456h840m480 0h480m180 0h1851M0 1457h840m480 0h480m180 0h1851M0 1458h840m480 0h480m180 0h1851M0 1459h840m480 0h480m180 0h1851M0 1460h840m480 0h480m180 0h1851M0 1461h840m480 0h480m180 0h1851M0 1462h840m480 0h480m180 0h1851M0 1463h840m480 0h480m180 0h1851M0 1464h840m480 0h480m180 0h1851M0 1465h840m480 0h480m180 0h1851M0 1466h840m480 0h480m180 0h1851M0 1467h840m480 0h480m180 0h1851M0 1468h840m480 0h480m180 0h1851M0 1469h840m480 0h480m180 0h1851M0 1470h840m480 0h480m180 0h1851M0 1471h840m480 0h480m180 0h1851M0 1472h840m480 0h480m180 0h1851M0 1473h840m480 0h480m180 0h1851M0 1474h840m480 0h480m180 0h1851M0 1475h840m480 0h480m180 0h1851M0 1476h840m480 0h480m180 0h1851M0 1477h840m480 0h480m180 0h1851M0 1478h840m480 0h480m180 0h1851M0 1479h840m480 0h480m180 0h1851M0 1480h840m480 0h480m180 0h1851M0 1481h840m480 0h480m180 0h1851M0 1482h840m480 0h480m180 0h1851M0 1483h840m480 0h480m180 0h1851M0 1484h840m480 0h480m180 0h1851M0 1485h840m480 0h480m180 0h1851M0 1486h840m480 0h480m180 0h1851M0 1487h840m480 0h480m180 0h1851M0 1488h840m480 0h480m180 0h1851M0 1489h840m480 0h480m180 0h1851M0 1490h840m480 0h480m180 0h1851M0 1491h840m480 0h480m180 0h1851M0 1492h840m480 0h480m180 0h1851M0 1493h840m480 0h480m180 0h1851M0 1494h840m480 0h480m180 0h1851M0 1495h840m480 0h480m180 0h1851M0 1496h840m480 0h480m180 0h1851M0 1497h840m480 0h480m180 0h1851M0 1498h840m480 0h480m180 0h1851M0 1499h840m480 0h480m180 0h1851M0 1500h1080m960 0h1791M0 1501h1080m960 0h1791M0 1502h1080m960 0h1791M0 1503h1080m960 0h1791M0 1504h1080m960 0h1791M0 1505h1080m960 0h1791M0 1506h1080m960 0h1791M0 1507h1080m960 0h1791M0 1508h1080m960 0h1791M0 1509h1080m960 0h1791M0 1510h1080m960 0h1791M0 1511h1080m960 0h1791M0 1512h1080m960 0h1791M0 1513h1080m960 0h1791M0 1514h1080m960 0h1791M0 1515h1080m960 0h1791M0 1516h1080m960 0h1791M0 1517h1080m960 0h1791M0 1518h1080m960 0h1791M0 1519h1080m960 0h1791M0 1520h1080m960 0h1791M0 1521h1080m960 0h1791M0 1522h1080m960 0h1791M0 1523h1080m960 0h1791M0 1524h1080m960 0h1791M0 1525h1080m960 0h1791M0 1526h1080m960 0h1791M0 1527h1080m960 0h1791M0 1528h1080m960 0h1791M0 1529h1080m960 0h1791M0 1530h1080m960 0h1791M0 1531h1080m960 0h1791M0 1532h1080m960 0h1791M0 1533h1080m960 0h1791M0 1534h1080m960 0h1791M0 1535h1080m960 0h1791M0 1536h1080m960 0h1791M0 1537h1080m960 0h1791M0 1538h1080m960 0h1791M0 1539h1080m960 0h1791M0 1540h1080m960 0h1791M0 1541h1080m960 0h1791M0 1542h1080m960 0h1791M0 1543h1080m960 0h1791M0 1544h1080m960 0h1791M0 1545h1080m960 0h1791M0 1546h1080m960 0h1791M0 1547h1080m960 0h1791M0 1548h1080m960 0h1791M0 1549h1080m960 0h1791M0 1550h1080m960 0h1791M0 1551h1080m960 0h1791M0 1552h1080m960 0h1791M0 1553h1080m960 0h1791M0 1554h1080m960 0h1791M0 1555h1080m960 0h1791M0 1556h1080m960 0h1791M0 1557h1080m960 0h1791M0 1558h1080m960 0h1791M0 1559h1080m960 0h1791M0 1560h1020m1020 0h1791M0 1561h1020m1020 0h1791M0 1562h1020m1020 0h1791M0 1563h1020m1020 0h1791M0 1564h1020m1020 0h1791M0 1565h1020m1020 0h1791M0 1566h1020m1020 0h1791M0 1567h1020m1020 0h1791M0 1568h1020m1020 0h1791M0 1569h1020m1020 0h1791M0 1570h1020m1020 0h1791M0 1571h1020m1020 0h1791M0 1572h1020m1020 0h1791M0 1573h1020m1020 0h1791M0 1574h1020m1020 0h1791M0 1575h1020m1020 0h1791M0 1576h1020m1020 0h1791M0 1577h1020m1020 0h1791M0 1578h1020m1020 0h1791M0 1579h1020m1020 0h1791M0 1580h1020m1020 0h1791M0 1581h1020m1020 0h1791M0 1582h1020m1020 0h1791M0 1583h1020m1020 0h1791M0 1584h1020m1020 0h1791M0 1585h1020m1020 0h1791M0 1586h1020m1020 0h1791M0 1587h1020m1020 0h1791M0 1588h1020m1020 0h1791M0 1589h1020m1020 0h1791M0 1590h1020m1020 0h1791M0 1591h1020m1020 0h1791M0 1592h1020m1020 0h1791M0 1593h1020m1020 0h1791M0 1594h1020m1020 0h1791M0 1595h1020m1020 0h1791M0 1596h1020m1020 0h1791M0 1597h1020m1020 0h1791M0 1598h1020m1020 0h1791M0 1599h1020m1020 0h1791M0 1600h1020m1020 0h1791M0 1601h1020m1020 0h1791M0 1602h1020m1020 0h1791M0 1603h1020m1020 0h1791M0 1604h1020m1020 0h1791M0 1605h1020m1020 0h1791M0 1606h1020m1020 0h1791M0 1607h1020m1020 0h1791M0 1608h1020m1020 0h1791M0 1609h1020m1020 0h1791M0 1610h1020m1020 0h1791M0 1611h1020m1020 0h1791M0 1612h1020m1020 0h1791M0 1613h1020m1020 0h1791M0 1614h1020m1020 0h1791M0 1615h1020m1020 0h1791M0 1616h1020m1020 0h1791M0 1617h1020m1020 0h1791M0 1618h1020m1020 0h1791M0 1619h1020m1020 0h1791M0 1620h1020m840 0h1971M0 1621h1020m840 0h1971M0 1622h1020m840 0h1971M0 1623h1020m840 0h1971M0 1624h1020m840 0h1971M0 1625h1020m840 0h1971M0 1626h1020m840 0h1971M0 1627h1020m840 0h1971M0 1628h1020m840 0h1971M0 1629h1020m840 0h1971M0 1630h1020m840 0h1971M0 1631h1020m840 0h1971M0 1632h1020m840 0h1971M0 1633h1020m840 0h1971M0 1634h1020m840 0h1971M0 1635h1020m840 0h1971M0 1636h1020m840 0h1971M0 1637h1020m840 0h1971M0 1638h1020m840 0h1971M0 1639h1020m840 0h1971M0 1640h1020m840 0h1971M0 1641h1020m840 0h1971M0 1642h1020m840 0h1971M0 1643h1020m840 0h1971M0 1644h1020m840 0h1971M0 1645h1020m840 0h1971M0 1646h1020m840 0h1971M0 1647h1020m840 0h1971M0 1648h1020m840 0h1971M0 1649h1020m840 0h1971M0 1650h1020m840 0h1971M0 1651h1020m840 0h1971M0 1652h1020m840 0h1971M0 1653h1020m840 0h1971M0 1654h1020m840 0h1971M0 1655h1020m840 0h1971M0 1656h1020m840 0h1971M0 1657h1020m840 0h1971M0 1658h1020m840 0h1971M0 1659h1020m840 0h1971M0 1660h1020m840 0h1971M0 1661h1020m840 0h1971M0 1662h1020m840 0h1971M0 1663h1020m840 0h1971M0 1664h1020m840 0h1971M0 1665h1020m840 0h1971M0 1666h1020m840 0h1971M0 1667h1020m840 0h1971M0 1668h1020m840 0h1971M0 1669h1020m840 0h1971M0 1670h1020m840 0h1971M0 1671h1020m840 0h1971M0 1672h1020m840 0h1971M0 1673h1020m840 0h1971M0 1674h1020m840 0h1971M0 1675h1020m840 0h1971M0 1676h1020m840 0h1971M0 1677h1020m840 0h1971M0 1678h1020m840 0h1971M0 1679h1020m840 0h1971M0 1680h960m840 0h2031M0 1681h960m840 0h2031M0 1682h960m840 0h2031M0 1683h960m840 0h2031M0 1684h960m840 0h2031M0 1685h960m840 0h2031M0 1686h960m840 0h2031M0 1687h960m840 0h2031M0 1688h960m840 0h2031M0 1689h960m840 0h2031M0 1690h960m840 0h2031M0 1691h960m840 0h2031M0 1692h960m840 0h2031M0 1693h960m840 0h2031M0 1694h960m840 0h2031M0 1695h960m840 0h2031M0 1696h960m840 0h2031M0 1697h960m840 0h2031M0 1698h960m840 0h2031M0 1699h960m840 0h2031M0 1700h960m840 0h2031M0 1701h960m840 0h2031M0 1702h960m840 0h2031M0 1703h960m840 0h2031M0 1704h960m840 0h2031M0 1705h960m840 0h2031M0 1706h960m840 0h2031M0 1707h960m840 0h2031M0 1708h960m840 0h2031M0 1709h960m840 0h2031M0 1710h960m840 0h2031M0 1711h960m840 0h2031M0 1712h960m840 0h2031M0 1713h960m840 0h2031M0 1714h960m840 0h2031M0 1715h960m840 0h2031M0 1716h960m840 0h2031M0 1717h960m840 0h2031M0 1718h960m840 0h2031M0 1719h960m840 0h2031M0 1720h960m840 0h2031M0 1721h960m840 0h2031M0 1722h960m840 0h2031M0 1723h960m840 0h2031M0 1724h960m840 0h2031M0 1725h960m840 0h2031M0 1726h960m840 0h2031M0 1727h960m840 0h2031M0 1728h960m840 0h2031M0 1729h960m840 0h2031M0 1730h960m840 0h2031M0 1731h960m840 0h2031M0 1732h960m840 0h2031M0 1733h960m840 0h2031M0 1734h960m840 0h2031M0 1735h960m840 0h2031M0 1736h960m840 0h2031M0 1737h960m840 0h2031M0 1738h960m840 0h2031M0 1739h960m840 0h2031M0 1740h960m420 0h120m300 0h2031M0 1741h960m420 0h120m300 0h2031M0 1742h960m420 0h120m300 0h2031M0 1743h960m420 0h120m300 0h2031M0 1744h960m420 0h120m300 0h2031M0 1745h960m420 0h120m300 0h2031M0 1746h960m420 0h120m300 0h2031M0 1747h960m420 0h120m300 0h2031M0 1748h960m420 0h120m300 0h2031M0 1749h960m420 0h120m300 0h2031M0 1750h960m420 0h120m300 0h2031M0 1751h960m420 0h120m300 0h2031M0 1752h960m420 0h120m300 0h2031M0 1753h960m420 0h120m300 0h2031M0 1754h960m420 0h120m300 0h2031M0 1755h960m420 0h120m300 0h2031M0 1756h960m420 0h120m300 0h2031M0 1757h960m420 0h120m300 0h2031M0 1758h960m420 0h120m300 0h2031M0 1759h960m420 0h120m300 0h2031M0 1760h960m420 0h120m300 0h2031M0 1761h960m420 0h120m300 0h2031M0 1762h960m420 0h120m300 0h2031M0 1763h960m420 0h120m300 0h2031M0 1764h960m420 0h120m300 0h2031M0 1765h960m420 0h120m300 0h2031M0 1766h960m420 0h120m300 0h2031M0 1767h960m420 0h120m300 0h2031M0 1768h960m420 0h120m300 0h2031M0 1769h960m420 0h120m300 0h2031M0 1770h960m420 0h120m300 0h2031M0 1771h960m420 0h120m300 0h2031M0 1772h960m420 0h120m300 0h2031M0 1773h960m420 0h120m300 0h2031M0 1774h960m420 0h120m300 0h2031M0 1775h960m420 0h120m300 0h2031M0 1776h960m420 0h120m300 0h2031M0 1777h960m420 0h120m300 0h2031M0 1778h960m420 0h120m300 0h2031M0 1779h960m420 0h120m300 0h2031M0 1780h960m420 0h120m300 0h2031M0 1781h960m420 0h120m300 0h2031M0 1782h960m420 0h120m300 0h2031M0 1783h960m420 0h120m300 0h2031M0 1784h960m420 0h120m300 0h2031M0 1785h960m420 0h120m300 0h2031M0 1786h960m420 0h120m300 0h2031M0 1787h960m420 0h120m300 0h2031M0 1788h960m420 0h120m300 0h2031M0 1789h960m420 0h120m300 0h2031M0 1790h960m420 0h120m300 0h2031M0 1791h960m420 0h120m300 0h2031M0 1792h960m420 0h120m300 0h2031M0 1793h960m420 0h120m300 0h2031M0 1794h960m420 0h120m300 0h2031M0 1795h960m420 0h120m300 0h2031M0 1796h960m420 0h120m300 0h2031M0 1797h960m420 0h120m300 0h2031M0 1798h960m420 0h120m300 0h2031M0 1799h960m420 0h120m300 0h2031M0 1800h960m60 0h60m240 0h240m240 0h2031M0 1801h960m60 0h60m240 0h240m240 0h2031M0 1802h960m60 0h60m240 0h240m240 0h2031M0 1803h960m60 0h60m240 0h240m240 0h2031M0 1804h960m60 0h60m240 0h240m240 0h2031M0 1805h960m60 0h60m240 0h240m240 0h2031M0 1806h960m60 0h60m240 0h240m240 0h2031M0 1807h960m60 0h60m240 0h240m240 0h2031M0 1808h960m60 0h60m240 0h240m240 0h2031M0 1809h960m60 0h60m240 0h240m240 0h2031M0 1810h960m60 0h60m240 0h240m240 0h2031M0 1811h960m60 0h60m240 0h240m240 0h2031M0 1812h960m60 0h60m240 0h240m240 0h2031M0 1813h960m60 0h60m240 0h240m240 0h2031M0 1814h960m60 0h60m240 0h240m240 0h2031M0 1815h960m60 0h60m240 0h240m240 0h2031M0 1816h960m60 0h60m240 0h240m240 0h2031M0 1817h960m60 0h60m240 0h240m240 0h2031M0 1818h960m60 0h60m240 0h240m240 0h2031M0 1819h960m60 0h60m240 0h240m240 0h2031M0 1820h960m60 0h60m240 0h240m240 0h2031M0 1821h960m60 0h60m240 0h240m240 0h2031M0 1822h960m60 0h60m240 0h240m240 0h2031M0 1823h960m60 0h60m240 0h240m240 0h2031M0 1824h960m60 0h60m240 0h240m240 0h2031M0 1825h960m60 0h60m240 0h240m240 0h2031M0 1826h960m60 0h60m240 0h240m240 0h2031M0 1827h960m60 0h60m240 0h240m240 0h2031M0 1828h960m60 0h60m240 0h240m240 0h2031M0 1829h960m60 0h60m240 0h240m240 0h2031M0 1830h960m60 0h60m240 0h240m240 0h2031M0 1831h960m60 0h60m240 0h240m240 0h2031M0 1832h960m60 0h60m240 0h240m240 0h2031M0 1833h960m60 0h60m240 0h240m240 0h2031M0 1834h960m60 0h60m240 0h240m240 0h2031M0 1835h960m60 0h60m240 0h240m240 0h2031M0 1836h960m60 0h60m240 0h240m240 0h2031M0 1837h960m60 0h60m240 0h240m240 0h2031M0 1838h960m60 0h60m240 0h240m240 0h2031M0 1839h960m60 0h60m240 0h240m240 0h2031M0 1840h960m60 0h60m240 0h240m240 0h2031M0 1841h960m60 0h60m240 0h240m240 0h2031M0 1842h960m60 0h60m240 0h240m240 0h2031M0 1843h960m60 0h60m240 0h240m240 0h2031M0 1844h960m60 0h60m240 0h240m240 0h2031M0 1845h960m60 0h60m240 0h240m240 0h2031M0 1846h960m60 0h60m240 0h240m240 0h2031M0 1847h960m60 0h60m240 0h240m240 0h2031M0 1848h960m60 0h60m240 0h240m240 0h2031M0 1849h960m60 0h60m240 0h240m240 0h2031M0 1850h960m60 0h60m240 0h240m240 0h2031M0 1851h960m60 0h60m240 0h240m240 0h2031M0 1852h960m60 0h60m240 0h240m240 0h2031M0 1853h960m60 0h60m240 0h240m240 0h2031M0 1854h960m60 0h60m240 0h240m240 0h2031M0 1855h960m60 0h60m240 0h240m240 0h2031M0 1856h960m60 0h60m240 0h240m240 0h2031M0 1857h960m60 0h60m240 0h240m240 0h2031M0 1858h960m60 0h60m240 0h240m240 0h2031M0 1859h960m60 0h60m240 0h240m240 0h2031M0 1860h180m840 0h60m60 0h120m60 0h240m240 0h840m480 0h711M0 1861h180m840 0h60m60 0h120m60 0h240m240 0h840m480 0h711M0 1862h180m840 0h60m60 0h120m60 0h240m240 0h840m480 0h711M0 1863h180m840 0h60m60 0h120m60 0h240m240 0h840m480 0h711M0 1864h180m840 0h60m60 0h120m60 0h240m240 0h840m480 0h711M0 1865h180m840 0h60m60 0h120m60 0h240m240 0h840m480 0h711M0 1866h180m840 0h60m60 0h120m60 0h240m240 0h840m480 0h711M0 1867h180m840 0h60m60 0h120m60 0h240m240 0h840m480 0h711M0 1868h180m840 0h60m60 0h120m60 0h240m240 0h840m480 0h711M0 1869h180m840 0h60m60 0h120m60 0h240m240 0h840m480 0h711M0 1870h180m840 0h60m60 0h120m60 0h240m240 0h840m480 0h711M0 1871h180m840 0h60m60 0h120m60 0h240m240 0h840m480 0h711M0 1872h180m840 0h60m60 0h120m60 0h240m240 0h840m480 0h711M0 1873h180m840 0h60m60 0h120m60 0h240m240 0h840m480 0h711M0 1874h180m840 0h60m60 0h120m60 0h240m240 0h840m480 0h711M0 1875h180m840 0h60m60 0h120m60 0h240m240 0h840m480 0h711M0 1876h180m840 0h60m60 0h120m60 0h240m240 0h840m480 0h711M0 1877h180m840 0h60m60 0h120m60 0h240m240 0h840m480 0h711M0 1878h180m840 0h60m60 0h120m60 0h240m240 0h840m480 0h711M0 1879h180m840 0h60m60 0h120m60 0h240m240 0h840m480 0h711M0 1880h180m840 0h60m60 0h120m60 0h240m240 0h840m480 0h711M0 1881h180m840 0h60m60 0h120m60 0h240m240 0h840m480 0h711M0 1882h180m840 0h60m60 0h120m60 0h240m240 0h840m480 0h711M0 1883h180m840 0h60m60 0h120m60 0h240m240 0h840m480 0h711M0 1884h180m840 0h60m60 0h120m60 0h240m240 0h840m480 0h711M0 1885h180m840 0h60m60 0h120m60 0h240m240 0h840m480 0h711M0 1886h180m840 0h60m60 0h120m60 0h240m240 0h840m480 0h711M0 1887h180m840 0h60m60 0h120m60 0h240m240 0h840m480 0h711M0 1888h180m840 0h60m60 0h120m60 0h240m240 0h840m480 0h711M0 1889h180m840 0h60m60 0h120m60 0h240m240 0h840m480 0h711M0 1890h180m840 0h60m60 0h120m60 0h240m240 0h840m480 0h711M0 1891h180m840 0h60m60 0h120m60 0h240m240 0h840m480 0h711M0 1892h180m840 0h60m60 0h120m60 0h240m240 0h840m480 0h711M0 1893h180m840 0h60m60 0h120m60 0h240m240 0h840m480 0h711M0 1894h180m840 0h60m60 0h120m60 0h240m240 0h840m480 0h711M0 1895h180m840 0h60m60 0h120m60 0h240m240 0h840m480 0h711M0 1896h180m840 0h60m60 0h120m60 0h240m240 0h840m480 0h711M0 1897h180m840 0h60m60 0h120m60 0h240m240 0h840m480 0h711M0 1898h180m840 0h60m60 0h120m60 0h240m240 0h840m480 0h711M0 1899h180m840 0h60m60 0h120m60 0h240m240 0h840m480 0h711M0 1900h180m840 0h60m60 0h120m60 0h240m240 0h840m480 0h711M0 1901h180m840 0h60m60 0h120m60 0h240m240 0h840m480 0h711M0 1902h180m840 0h60m60 0h120m60 0h240m240 0h840m480 0h711M0 1903h180m840 0h60m60 0h120m60 0h240m240 0h840m480 0h711M0 1904h180m840 0h60m60 0h120m60 0h240m240 0h840m480 0h711M0 1905h180m840 0h60m60 0h120m60 0h240m240 0h840m480 0h711M0 1906h180m840 0h60m60 0h120m60 0h240m240 0h840m480 0h711M0 1907h180m840 0h60m60 0h120m60 0h240m240 0h840m480 0h711M0 1908h180m840 0h60m60 0h120m60 0h240m240 0h840m480 0h711M0 1909h180m840 0h60m60 0h120m60 0h240m240 0h840m480 0h711M0 1910h180m840 0h60m60 0h120m60 0h240m240 0h840m480 0h711M0 1911h180m840 0h60m60 0h120m60 0h240m240 0h840m480 0h711M0 1912h180m840 0h60m60 0h120m60 0h240m240 0h840m480 0h711M0 1913h180m840 0h60m60 0h120m60 0h240m240 0h840m480 0h711M0 1914h180m840 0h60m60 0h120m60 0h240m240 0h840m480 0h711M0 1915h180m840 0h60m60 0h120m60 0h240m240 0h840m480 0h711M0 1916h180m840 0h60m60 0h120m60 0h240m240 0h840m480 0h711M0 1917h180m840 0h60m60 0h120m60 0h240m240 0h840m480 0h711M0 1918h180m840 0h60m60 0h120m60 0h240m240 0h840m480 0h711M0 1919h180m840 0h60m60 0h120m60 0h240m240 0h840m480 0h711"/><path stroke="#930" d="M1800 1380h180m-180 1h180m-180 1h180m-180 1h180m-180 1h180m-180 1h180m-180 1h180m-180 1h180m-180 1h180m-180 1h180m-180 1h180m-180 1h180m-180 1h180m-180 1h180m-180 1h180m-180 1h180m-180 1h180m-180 1h180m-180 1h180m-180 1h180m-180 1h180m-180 1h180m-180 1h180m-180 1h180m-180 1h180m-180 1h180m-180 1h180m-180 1h180m-180 1h180m-180 1h180m-180 1h180m-180 1h180m-180 1h180m-180 1h180m-180 1h180m-180 1h180m-180 1h180m-180 1h180m-180 1h180m-180 1h180m-180 1h180m-180 1h180m-180 1h180m-180 1h180m-180 1h180m-180 1h180m-180 1h180m-180 1h180m-180 1h180m-180 1h180m-180 1h180m-180 1h180m-180 1h180m-180 1h180m-180 1h180m-180 1h180m-180 1h180m-180 1h180m-180 1h180m-180 1h180m-780 1h120m480 0h180m-780 1h120m480 0h180m-780 1h120m480 0h180m-780 1h120m480 0h180m-780 1h120m480 0h180m-780 1h120m480 0h180m-780 1h120m480 0h180m-780 1h120m480 0h180m-780 1h120m480 0h180m-780 1h120m480 0h180m-780 1h120m480 0h180m-780 1h120m480 0h180m-780 1h120m480 0h180m-780 1h120m480 0h180m-780 1h120m480 0h180m-780 1h120m480 0h180m-780 1h120m480 0h180m-780 1h120m480 0h180m-780 1h120m480 0h180m-780 1h120m480 0h180m-780 1h120m480 0h180m-780 1h120m480 0h180m-780 1h120m480 0h180m-780 1h120m480 0h180m-780 1h120m480 0h180m-780 1h120m480 0h180m-780 1h120m480 0h180m-780 1h120m480 0h180m-780 1h120m480 0h180m-780 1h120m480 0h180m-780 1h120m480 0h180m-780 1h120m480 0h180m-780 1h120m480 0h180m-780 1h120m480 0h180m-780 1h120m480 0h180m-780 1h120m480 0h180m-780 1h120m480 0h180m-780 1h120m480 0h180m-780 1h120m480 0h180m-780 1h120m480 0h180m-780 1h120m480 0h180m-780 1h120m480 0h180m-780 1h120m480 0h180m-780 1h120m480 0h180m-780 1h120m480 0h180m-780 1h120m480 0h180m-780 1h120m480 0h180m-780 1h120m480 0h180m-780 1h120m480 0h180m-780 1h120m480 0h180m-780 1h120m480 0h180m-780 1h120m480 0h180m-780 1h120m480 0h180m-780 1h120m480 0h180m-780 1h120m480 0h180m-780 1h120m480 0h180m-780 1h120m480 0h180m-780 1h120m480 0h180m-780 1h120m480 0h180m-780 1h120m480 0h180m-900 1h960m-960 1h960m-960 1h960m-960 1h960m-960 1h960m-960 1h960m-960 1h960m-960 1h960m-960 1h960m-960 1h960m-960 1h960m-960 1h960m-960 1h960m-960 1h960m-960 1h960m-960 1h960m-960 1h960m-960 1h960m-960 1h960m-960 1h960m-960 1h960m-960 1h960m-960 1h960m-960 1h960m-960 1h960m-960 1h960m-960 1h960m-960 1h960m-960 1h960m-960 1h960m-960 1h960m-960 1h960m-960 1h960m-960 1h960m-960 1h960m-960 1h960m-960 1h960m-960 1h960m-960 1h960m-960 1h960m-960 1h960m-960 1h960m-960 1h960m-960 1h960m-960 1h960m-960 1h960m-960 1h960m-960 1h960m-960 1h960m-960 1h960m-960 1h960m-960 1h960m-960 1h960m-960 1h960m-960 1h960m-960 1h960m-960 1h960m-960 1h960m-960 1h960m-960 1h960m-1020 1h1020m-1020 1h1020m-1020 1h1020m-1020 1h1020m-1020 1h1020m-1020 1h1020m-1020 1h1020m-1020 1h1020m-1020 1h1020m-1020 1h1020m-1020 1h1020m-1020 1h1020m-1020 1h1020m-1020 1h1020m-1020 1h1020m-1020 1h1020m-1020 1h1020m-1020 1h1020m-1020 1h1020m-1020 1h1020m-1020 1h1020m-1020 1h1020m-1020 1h1020m-1020 1h1020m-1020 1h1020m-1020 1h1020m-1020 1h1020m-1020 1h1020m-1020 1h1020m-1020 1h1020m-1020 1h1020m-1020 1h1020m-1020 1h1020m-1020 1h1020m-1020 1h1020m-1020 1h1020m-1020 1h1020m-1020 1h1020m-1020 1h1020m-1020 1h1020m-1020 1h1020m-1020 1h1020m-1020 1h1020m-1020 1h1020m-1020 1h1020m-1020 1h1020m-1020 1h1020m-1020 1h1020m-1020 1h1020m-1020 1h1020m-1020 1h1020m-1020 1h1020m-1020 1h1020m-1020 1h1020m-1020 1h1020m-1020 1h1020m-1020 1h1020m-1020 1h1020m-1020 1h1020m-1020 1h1020m-1020 1h840m-840 1h840m-840 1h840m-840 1h840m-840 1h840m-840 1h840m-840 1h840m-840 1h840m-840 1h840m-840 1h840m-840 1h840m-840 1h840m-840 1h840m-840 1h840m-840 1h840m-840 1h840m-840 1h840m-840 1h840m-840 1h840m-840 1h840m-840 1h840m-840 1h840m-840 1h840m-840 1h840m-840 1h840m-840 1h840m-840 1h840m-840 1h840m-840 1h840m-840 1h840m-840 1h840m-840 1h840m-840 1h840m-840 1h840m-840 1h840m-840 1h840m-840 1h840m-840 1h840m-840 1h840m-840 1h840m-840 1h840m-840 1h840m-840 1h840m-840 1h840m-840 1h840m-840 1h840m-840 1h840m-840 1h840m-840 1h840m-840 1h840m-840 1h840m-840 1h840m-840 1h840m-840 1h840m-840 1h840m-840 1h840m-840 1h840m-840 1h840m-840 1h840m-840 1h840m-900 1h840m-840 1h840m-840 1h840m-840 1h840m-840 1h840m-840 1h840m-840 1h840m-840 1h840m-840 1h840m-840 1h840m-840 1h840m-840 1h840m-840 1h840m-840 1h840m-840 1h840m-840 1h840m-840 1h840m-840 1h840m-840 1h840m-840 1h840m-840 1h840m-840 1h840m-840 1h840m-840 1h840m-840 1h840m-840 1h840m-840 1h840m-840 1h840m-840 1h840m-840 1h840m-840 1h840m-840 1h840m-840 1h840m-840 1h840m-840 1h840m-840 1h840m-840 1h840m-840 1h840m-840 1h840m-840 1h840m-840 1h840m-840 1h840m-840 1h840m-840 1h840m-840 1h840m-840 1h840m-840 1h840m-840 1h840m-840 1h840m-840 1h840m-840 1h840m-840 1h840m-840 1h840m-840 1h840m-840 1h840m-840 1h840m-840 1h840m-840 1h840m-840 1h840m-840 1h840m-840 1h420m120 0h300m-840 1h420m120 0h300m-840 1h420m120 0h300m-840 1h420m120 0h300m-840 1h420m120 0h300m-840 1h420m120 0h300m-840 1h420m120 0h300m-840 1h420m120 0h300m-840 1h420m120 0h300m-840 1h420m120 0h300m-840 1h420m120 0h300m-840 1h420m120 0h300m-840 1h420m120 0h300m-840 1h420m120 0h300m-840 1h420m120 0h300m-840 1h420m120 0h300m-840 1h420m120 0h300m-840 1h420m120 0h300m-840 1h420m120 0h300m-840 1h420m120 0h300m-840 1h420m120 0h300m-840 1h420m120 0h300m-840 1h420m120 0h300m-840 1h420m120 0h300m-840 1h420m120 0h300m-840 1h420m120 0h300m-840 1h420m120 0h300m-840 1h420m120 0h300m-840 1h420m120 0h300m-840 1h420m120 0h300m-840 1h420m120 0h300m-840 1h420m120 0h300m-840 1h420m120 0h300m-840 1h420m120 0h300m-840 1h420m120 0h300m-840 1h420m120 0h300m-840 1h420m120 0h300m-840 1h420m120 0h300m-840 1h420m120 0h300m-840 1h420m120 0h300m-840 1h420m120 0h300m-840 1h420m120 0h300m-840 1h420m120 0h300m-840 1h420m120 0h300m-840 1h420m120 0h300m-840 1h420m120 0h300m-840 1h420m120 0h300m-840 1h420m120 0h300m-840 1h420m120 0h300m-840 1h420m120 0h300m-840 1h420m120 0h300m-840 1h420m120 0h300m-840 1h420m120 0h300m-840 1h420m120 0h300m-840 1h420m120 0h300m-840 1h420m120 0h300m-840 1h420m120 0h300m-840 1h420m120 0h300m-840 1h420m120 0h300m-840 1h420m120 0h300m-840 1h60m60 0h240m240 0h240m-840 1h60m60 0h240m240 0h240m-840 1h60m60 0h240m240 0h240m-840 1h60m60 0h240m240 0h240m-840 1h60m60 0h240m240 0h240m-840 1h60m60 0h240m240 0h240m-840 1h60m60 0h240m240 0h240m-840 1h60m60 0h240m240 0h240m-840 1h60m60 0h240m240 0h240m-840 1h60m60 0h240m240 0h240m-840 1h60m60 0h240m240 0h240m-840 1h60m60 0h240m240 0h240m-840 1h60m60 0h240m240 0h240m-840 1h60m60 0h240m240 0h240m-840 1h60m60 0h240m240 0h240m-840 1h60m60 0h240m240 0h240m-840 1h60m60 0h240m240 0h240m-840 1h60m60 0h240m240 0h240m-840 1h60m60 0h240m240 0h240m-840 1h60m60 0h240m240 0h240m-840 1h60m60 0h240m240 0h240m-840 1h60m60 0h240m240 0h240m-840 1h60m60 0h240m240 0h240m-840 1h60m60 0h240m240 0h240m-840 1h60m60 0h240m240 0h240m-840 1h60m60 0h240m240 0h240m-840 1h60m60 0h240m240 0h240m-840 1h60m60 0h240m240 0h240m-840 1h60m60 0h240m240 0h240m-840 1h60m60 0h240m240 0h240m-840 1h60m60 0h240m240 0h240m-840 1h60m60 0h240m240 0h240m-840 1h60m60 0h240m240 0h240m-840 1h60m60 0h240m240 0h240m-840 1h60m60 0h240m240 0h240m-840 1h60m60 0h240m240 0h240m-840 1h60m60 0h240m240 0h240m-840 1h60m60 0h240m240 0h240m-840 1h60m60 0h240m240 0h240m-840 1h60m60 0h240m240 0h240m-840 1h60m60 0h240m240 0h240m-840 1h60m60 0h240m240 0h240m-840 1h60m60 0h240m240 0h240m-840 1h60m60 0h240m240 0h240m-840 1h60m60 0h240m240 0h240m-840 1h60m60 0h240m240 0h240m-840 1h60m60 0h240m240 0h240m-840 1h60m60 0h240m240 0h240m-840 1h60m60 0h240m240 0h240m-840 1h60m60 0h240m240 0h240m-840 1h60m60 0h240m240 0h240m-840 1h60m60 0h240m240 0h240m-840 1h60m60 0h240m240 0h240m-840 1h60m60 0h240m240 0h240m-840 1h60m60 0h240m240 0h240m-840 1h60m60 0h240m240 0h240m-840 1h60m60 0h240m240 0h240m-840 1h60m60 0h240m240 0h240m-840 1h60m60 0h240m240 0h240m-840 1h60m60 0h240m240 0h240m-900 1h120m60 0h60m120 0h60m240 0h240m-900 1h120m60 0h60m120 0h60m240 0h240m-900 1h120m60 0h60m120 0h60m240 0h240m-900 1h120m60 0h60m120 0h60m240 0h240m-900 1h120m60 0h60m120 0h60m240 0h240m-900 1h120m60 0h60m120 0h60m240 0h240m-900 1h120m60 0h60m120 0h60m240 0h240m-900 1h120m60 0h60m120 0h60m240 0h240m-900 1h120m60 0h60m120 0h60m240 0h240m-900 1h120m60 0h60m120 0h60m240 0h240m-900 1h120m60 0h60m120 0h60m240 0h240m-900 1h120m60 0h60m120 0h60m240 0h240m-900 1h120m60 0h60m120 0h60m240 0h240m-900 1h120m60 0h60m120 0h60m240 0h240m-900 1h120m60 0h60m120 0h60m240 0h240m-900 1h120m60 0h60m120 0h60m240 0h240m-900 1h120m60 0h60m120 0h60m240 0h240m-900 1h120m60 0h60m120 0h60m240 0h240m-900 1h120m60 0h60m120 0h60m240 0h240m-900 1h120m60 0h60m120 0h60m240 0h240m-900 1h120m60 0h60m120 0h60m240 0h240m-900 1h120m60 0h60m120 0h60m240 0h240m-900 1h120m60 0h60m120 0h60m240 0h240m-900 1h120m60 0h60m120 0h60m240 0h240m-900 1h120m60 0h60m120 0h60m240 0h240m-900 1h120m60 0h60m120 0h60m240 0h240m-900 1h120m60 0h60m120 0h60m240 0h240m-900 1h120m60 0h60m120 0h60m240 0h240m-900 1h120m60 0h60m120 0h60m240 0h240m-900 1h120m60 0h60m120 0h60m240 0h240m-900 1h120m60 0h60m120 0h60m240 0h240m-900 1h120m60 0h60m120 0h60m240 0h240m-900 1h120m60 0h60m120 0h60m240 0h240m-900 1h120m60 0h60m120 0h60m240 0h240m-900 1h120m60 0h60m120 0h60m240 0h240m-900 1h120m60 0h60m120 0h60m240 0h240m-900 1h120m60 0h60m120 0h60m240 0h240m-900 1h120m60 0h60m120 0h60m240 0h240m-900 1h120m60 0h60m120 0h60m240 0h240m-900 1h120m60 0h60m120 0h60m240 0h240m-900 1h120m60 0h60m120 0h60m240 0h240m-900 1h120m60 0h60m120 0h60m240 0h240m-900 1h120m60 0h60m120 0h60m240 0h240m-900 1h120m60 0h60m120 0h60m240 0h240m-900 1h120m60 0h60m120 0h60m240 0h240m-900 1h120m60 0h60m120 0h60m240 0h240m-900 1h120m60 0h60m120 0h60m240 0h240m-900 1h120m60 0h60m120 0h60m240 0h240m-900 1h120m60 0h60m120 0h60m240 0h240m-900 1h120m60 0h60m120 0h60m240 0h240m-900 1h120m60 0h60m120 0h60m240 0h240m-900 1h120m60 0h60m120 0h60m240 0h240m-900 1h120m60 0h60m120 0h60m240 0h240m-900 1h120m60 0h60m120 0h60m240 0h240m-900 1h120m60 0h60m120 0h60m240 0h240m-900 1h120m60 0h60m120 0h60m240 0h240m-900 1h120m60 0h60m120 0h60m240 0h240m-900 1h120m60 0h60m120 0h60m240 0h240m-900 1h120m60 0h60m120 0h60m240 0h240m-900 1h120m60 0h60m120 0h60m240 0h240m-1020 1h180m120 0h120m60 0h120m240 0h60m60 0h60m-1020 1h180m120 0h120m60 0h120m240 0h60m60 0h60m-1020 1h180m120 0h120m60 0h120m240 0h60m60 0h60m-1020 1h180m120 0h120m60 0h120m240 0h60m60 0h60m-1020 1h180m120 0h120m60 0h120m240 0h60m60 0h60m-1020 1h180m120 0h120m60 0h120m240 0h60m60 0h60m-1020 1h180m120 0h120m60 0h120m240 0h60m60 0h60m-1020 1h180m120 0h120m60 0h120m240 0h60m60 0h60m-1020 1h180m120 0h120m60 0h120m240 0h60m60 0h60m-1020 1h180m120 0h120m60 0h120m240 0h60m60 0h60m-1020 1h180m120 0h120m60 0h120m240 0h60m60 0h60m-1020 1h180m120 0h120m60 0h120m240 0h60m60 0h60m-1020 1h180m120 0h120m60 0h120m240 0h60m60 0h60m-1020 1h180m120 0h120m60 0h120m240 0h60m60 0h60m-1020 1h180m120 0h120m60 0h120m240 0h60m60 0h60m-1020 1h180m120 0h120m60 0h120m240 0h60m60 0h60m-1020 1h180m120 0h120m60 0h120m240 0h60m60 0h60m-1020 1h180m120 0h120m60 0h120m240 0h60m60 0h60m-1020 1h180m120 0h120m60 0h120m240 0h60m60 0h60m-1020 1h180m120 0h120m60 0h120m240 0h60m60 0h60m-1020 1h180m120 0h120m60 0h120m240 0h60m60 0h60m-1020 1h180m120 0h120m60 0h120m240 0h60m60 0h60m-1020 1h180m120 0h120m60 0h120m240 0h60m60 0h60m-1020 1h180m120 0h120m60 0h120m240 0h60m60 0h60m-1020 1h180m120 0h120m60 0h120m240 0h60m60 0h60m-1020 1h180m120 0h120m60 0h120m240 0h60m60 0h60m-1020 1h180m120 0h120m60 0h120m240 0h60m60 0h60m-1020 1h180m120 0h120m60 0h120m240 0h60m60 0h60m-1020 1h180m120 0h120m60 0h120m240 0h60m60 0h60m-1020 1h180m120 0h120m60 0h120m240 0h60m60 0h60m-1020 1h180m120 0h120m60 0h120m240 0h60m60 0h60m-1020 1h180m120 0h120m60 0h120m240 0h60m60 0h60m-1020 1h180m120 0h120m60 0h120m240 0h60m60 0h60m-1020 1h180m120 0h120m60 0h120m240 0h60m60 0h60m-1020 1h180m120 0h120m60 0h120m240 0h60m60 0h60m-1020 1h180m120 0h120m60 0h120m240 0h60m60 0h60m-1020 1h180m120 0h120m60 0h120m240 0h60m60 0h60m-1020 1h180m120 0h120m60 0h120m240 0h60m60 0h60m-1020 1h180m120 0h120m60 0h120m240 0h60m60 0h60m-1020 1h180m120 0h120m60 0h120m240 0h60m60 0h60m-1020 1h180m120 0h120m60 0h120m240 0h60m60 0h60m-1020 1h180m120 0h120m60 0h120m240 0h60m60 0h60m-1020 1h180m120 0h120m60 0h120m240 0h60m60 0h60m-1020 1h180m120 0h120m60 0h120m240 0h60m60 0h60m-1020 1h180m120 0h120m60 0h120m240 0h60m60 0h60m-1020 1h180m120 0h120m60 0h120m240 0h60m60 0h60m-1020 1h180m120 0h120m60 0h120m240 0h60m60 0h60m-1020 1h180m120 0h120m60 0h120m240 0h60m60 0h60m-1020 1h180m120 0h120m60 0h120m240 0h60m60 0h60m-1020 1h180m120 0h120m60 0h120m240 0h60m60 0h60m-1020 1h180m120 0h120m60 0h120m240 0h60m60 0h60m-1020 1h180m120 0h120m60 0h120m240 0h60m60 0h60m-1020 1h180m120 0h120m60 0h120m240 0h60m60 0h60m-1020 1h180m120 0h120m60 0h120m240 0h60m60 0h60m-1020 1h180m120 0h120m60 0h120m240 0h60m60 0h60m-1020 1h180m120 0h120m60 0h120m240 0h60m60 0h60m-1020 1h180m120 0h120m60 0h120m240 0h60m60 0h60m-1020 1h180m120 0h120m60 0h120m240 0h60m60 0h60m-1020 1h180m120 0h120m60 0h120m240 0h60m60 0h60m-1020 1h180m120 0h120m60 0h120m240 0h60m60 0h60m-1020 1h60m300 0h120m60 0h60m240 0h240m-1080 1h60m300 0h120m60 0h60m240 0h240m-1080 1h60m300 0h120m60 0h60m240 0h240m-1080 1h60m300 0h120m60 0h60m240 0h240m-1080 1h60m300 0h120m60 0h60m240 0h240m-1080 1h60m300 0h120m60 0h60m240 0h240m-1080 1h60m300 0h120m60 0h60m240 0h240m-1080 1h60m300 0h120m60 0h60m240 0h240m-1080 1h60m300 0h120m60 0h60m240 0h240m-1080 1h60m300 0h120m60 0h60m240 0h240m-1080 1h60m300 0h120m60 0h60m240 0h240m-1080 1h60m300 0h120m60 0h60m240 0h240m-1080 1h60m300 0h120m60 0h60m240 0h240m-1080 1h60m300 0h120m60 0h60m240 0h240m-1080 1h60m300 0h120m60 0h60m240 0h240m-1080 1h60m300 0h120m60 0h60m240 0h240m-1080 1h60m300 0h120m60 0h60m240 0h240m-1080 1h60m300 0h120m60 0h60m240 0h240m-1080 1h60m300 0h120m60 0h60m240 0h240m-1080 1h60m300 0h120m60 0h60m240 0h240m-1080 1h60m300 0h120m60 0h60m240 0h240m-1080 1h60m300 0h120m60 0h60m240 0h240m-1080 1h60m300 0h120m60 0h60m240 0h240m-1080 1h60m300 0h120m60 0h60m240 0h240m-1080 1h60m300 0h120m60 0h60m240 0h240m-1080 1h60m300 0h120m60 0h60m240 0h240m-1080 1h60m300 0h120m60 0h60m240 0h240m-1080 1h60m300 0h120m60 0h60m240 0h240m-1080 1h60m300 0h120m60 0h60m240 0h240m-1080 1h60m300 0h120m60 0h60m240 0h240m-1080 1h60m300 0h120m60 0h60m240 0h240m-1080 1h60m300 0h120m60 0h60m240 0h240m-1080 1h60m300 0h120m60 0h60m240 0h240m-1080 1h60m300 0h120m60 0h60m240 0h240m-1080 1h60m300 0h120m60 0h60m240 0h240m-1080 1h60m300 0h120m60 0h60m240 0h240m-1080 1h60m300 0h120m60 0h60m240 0h240m-1080 1h60m300 0h120m60 0h60m240 0h240m-1080 1h60m300 0h120m60 0h60m240 0h240m-1080 1h60m300 0h120m60 0h60m240 0h240m-1080 1h60m300 0h120m60 0h60m240 0h240m-1080 1h60m300 0h120m60 0h60m240 0h240m-1080 1h60m300 0h120m60 0h60m240 0h240m-1080 1h60m300 0h120m60 0h60m240 0h240m-1080 1h60m300 0h120m60 0h60m240 0h240m-1080 1h60m300 0h120m60 0h60m240 0h240m-1080 1h60m300 0h120m60 0h60m240 0h240m-1080 1h60m300 0h120m60 0h60m240 0h240m-1080 1h60m300 0h120m60 0h60m240 0h240m-1080 1h60m300 0h120m60 0h60m240 0h240m-1080 1h60m300 0h120m60 0h60m240 0h240m-1080 1h60m300 0h120m60 0h60m240 0h240m-1080 1h60m300 0h120m60 0h60m240 0h240m-1080 1h60m300 0h120m60 0h60m240 0h240m-1080 1h60m300 0h120m60 0h60m240 0h240m-1080 1h60m300 0h120m60 0h60m240 0h240m-1080 1h60m300 0h120m60 0h60m240 0h240m-1080 1h60m300 0h120m60 0h60m240 0h240m-1080 1h60m300 0h120m60 0h60m240 0h240m-1080 1h60m300 0h120m60 0h60m240 0h240"/><text xml:space="preserve" x="1922" y="2056" style="font-style:normal;font-variant:normal;font-weight:400;font-stretch:normal;font-size:109.333px;line-height:1.25;font-family:monospace;-inkscape-font-specification:&quot;monospace, Normal&quot;;font-variant-ligatures:normal;font-variant-caps:normal;font-variant-numeric:normal;font-variant-east-asian:normal;letter-spacing:0;fill:#fff"><tspan x="1922" y="2056">Puppy Linux</tspan></text></svg>