<svg xmlns="http://www.w3.org/2000/svg" xmlns:xlink="http://www.w3.org/1999/xlink" height="1200" width="1600"><defs><linearGradient id="i"><stop offset="0" style="stop-color:#06182c;stop-opacity:1"/><stop offset="1" style="stop-color:#cecfd4;stop-opacity:1"/></linearGradient><linearGradient id="h"><stop style="stop-color:#414358;stop-opacity:1" offset="0"/><stop style="stop-color:#475771;stop-opacity:1" offset="1"/></linearGradient><linearGradient id="g"><stop style="stop-color:#9f9589;stop-opacity:0" offset="0"/><stop style="stop-color:#0e1d24;stop-opacity:1" offset="1"/></linearGradient><linearGradient id="f"><stop style="stop-color:#75a8d3;stop-opacity:1" offset="0"/><stop style="stop-color:#91c6e6;stop-opacity:1" offset="1"/></linearGradient><linearGradient id="e"><stop style="stop-color:#35515a;stop-opacity:1" offset="0"/><stop style="stop-color:#0e1d24;stop-opacity:1" offset="1"/></linearGradient><linearGradient id="b"><stop style="stop-color:#5064a9;stop-opacity:0" offset="0"/><stop style="stop-color:#3d4f81;stop-opacity:1" offset="1"/></linearGradient><linearGradient id="d"><stop style="stop-color:#3d4f81;stop-opacity:1" offset="0"/><stop style="stop-color:#5b90b8;stop-opacity:1" offset="1"/></linearGradient><linearGradient id="a"><stop style="stop-color:#18275e;stop-opacity:1" offset="0"/><stop style="stop-color:#98cafb;stop-opacity:1" offset="1"/></linearGradient><linearGradient x1="10" y1="80" x2="50" y2="20" id="c" gradientUnits="userSpaceOnUse" gradientTransform="translate(159.322 203.39)"><stop style="stop-color:#b9c3cf;stop-opacity:1" offset="0"/><stop style="stop-color:#6183a6;stop-opacity:1" offset="1"/></linearGradient><linearGradient xlink:href="#e" id="m" x1="1131.972" y1="772.94" x2="1477.385" y2="772.94" gradientUnits="userSpaceOnUse"/><linearGradient xlink:href="#h" id="l" x1="1095.308" y1="780.188" x2="1172.822" y2="754.318" gradientUnits="userSpaceOnUse"/><linearGradient xlink:href="#i" id="k" gradientUnits="userSpaceOnUse" x1="788" y1="560" x2="1032" y2="788"/><radialGradient xlink:href="#f" id="j" cx="752.145" cy="937.906" fx="752.145" fy="937.906" r="800.392" gradientTransform="matrix(.84149 -.8303 .57533 .5835 -202.234 889.537)" gradientUnits="userSpaceOnUse"/></defs><path style="fill:url(#j);fill-opacity:1;stroke:none;stroke-width:1.05086386;stroke-opacity:1" d="M.001-.003h1600.001v1200.002H.001z"/><path style="fill:url(#k);stroke:none;stroke-width:1px;stroke-linecap:butt;stroke-linejoin:miter;stroke-opacity:1;fill-opacity:1" d="M979.343 798.363s5.657-68.589-97.58-125.865C778.524 615.223 745.29 504.207 745.29 504.207s132.936 127.28 142.835 125.865c9.9-1.414 124.45 60.811 158.392 142.128 33.941 81.318-67.175 26.163-67.175 26.163z"/><path style="fill:url(#l);stroke:none;stroke-width:1px;stroke-linecap:butt;stroke-linejoin:miter;stroke-opacity:1;fill-opacity:1" d="m1087.53 778.564 21.92 8.486s35.356-28.992 81.318-33.234c45.962-4.243-82.025-2.122-103.238 24.748z"/><path style="fill:url(#m);stroke:url(#linearGradient929);stroke-width:1px;stroke-linecap:butt;stroke-linejoin:miter;stroke-opacity:1;fill-opacity:1" d="M1133.492 773.615s44.548-21.92 70.71-18.385c26.164 3.535 251.024 33.941 271.53 31.82 20.506-2.122-197.99 16.97-342.24-13.435z"/><path style="fill:#fff;fill-opacity:.94117647;stroke:none;stroke-width:1px;stroke-linecap:butt;stroke-linejoin:miter;stroke-opacity:1" d="M979.343 798.363S967.5 828.5 982 849s95 3.5 108.5-25.5 13.028-21.46-9.5-7.75c-10.269 6.25 86.5-11.5 85.5-19.5s-57.05-9.2-57.05-9.2l-21.92-8.486s-29.53.936-33.03 2.936-75.157 16.863-75.157 16.863z"/><path style="fill:#061625;fill-opacity:1;stroke:none;stroke-width:.99267358px;stroke-linecap:butt;stroke-linejoin:miter;stroke-opacity:1" d="M977.737 803.339s-18.088 8.682-17.734 9.03c.355.347-10.64 14.934-10.64 14.934l-21.28 7.987-6.738 12.503 23.053-5.557s14.896-7.64 39.723 9.377c24.826 17.018-6.384-48.274-6.384-48.274z"/></svg>