<svg xmlns="http://www.w3.org/2000/svg" width="1920" height="1080" viewBox="0 0 1024 768"><path style="fill:#7e9090;fill-opacity:1;stroke:none;stroke-width:.615408" d="M-170.667 0H852.718v767.385H-170.667z"/><path style="fill:#7e9090;fill-opacity:1;stroke:none;stroke-width:.615408" d="M-170.667 0H852.718v767.385H-170.667z"/><path style="fill:#7e9090;fill-opacity:1;stroke:none;stroke-width:.711111" d="M-170.667 0h1365.333v768H-170.667z"/><path style="fill:#303e6e;fill-opacity:1" d="M692.593 577.869c-11.571-1.69-17.654-7.45-17.657-16.718-.002-4.7.892-6.853 5.058-12.185 6.036-7.723 11.954-19.697 14.996-30.34 1.704-5.961 2.92-11.018 2.702-11.236-.218-.218-3.966.288-8.327 1.125-17.6 3.374-37.865 2.864-45.627-1.15-2.818-1.457-2.898-1.425-3.945 1.578-.588 1.686-1.892 3.506-2.898 4.045-4.178 2.235-20.7.259-28.143-3.367l-4.682-2.282-.554 2.064c-.305 1.135-.563 5.213-.573 9.063-.026 9.4-1.397 13.756-5.447 17.312-5.316 4.668-9.292 5.517-22.967 4.907-20.033-.895-29.431-4.685-31.602-12.746-1.689-6.271.115-11.162 5.79-15.7 10.882-8.702 12.327-10.822 18.95-27.798 9.354-23.974 12.013-32.237 13.697-42.576.842-5.17 2.207-12.549 3.034-16.399.826-3.85 1.51-8.462 1.52-10.25.015-2.97-.25-3.25-3.082-3.25-7.101 0-12.056-4.67-16.061-15.142-2.945-7.696-2.15-14.794 3.144-28.085 2.338-5.87 7.02-15.782 10.403-22.026l6.151-11.353-1.708-5.447c-2.605-8.305-2.363-21.961.598-33.765 1.335-5.325 3.16-14.73 4.055-20.9 1.739-11.994 4.662-23.728 7.072-28.389 1.214-2.348 1.274-3.72.334-7.628-1.693-7.031-6.496-16.705-10.292-20.73-5.95-6.308-9.329-4.724-21.822 10.234-8.264 9.894-12.054 12.064-17.977 10.29-3.805-1.14-5.027-3.373-2.398-4.382.77-.296 5.979-6.413 11.574-13.595 11.575-14.858 14.549-17.588 25.025-22.976 14.726-7.573 27.66-10.528 34.171-7.808 1.95.815 6.464 4.12 10.03 7.342 5.813 5.256 7.623 6.235 17.54 9.49l11.059 3.628 5.85-1.98c9.235-3.126 26.007-3.502 41.073-.923 6.722 1.152 13.255 2.353 14.516 2.67 1.955.49 2.865-.322 6.156-5.488 5.837-9.162 8.056-9.223 28.133-.778 15.392 6.475 25.34 9.169 30.997 8.393 3.28-.45 5.02-.008 9.02 2.29 5.561 3.193 7.48 5.07 13.725 13.417l4.352 5.818-2.345 13.662c-4.377 25.495-8.74 34.307-18.777 37.922-4.993 1.798-5 1.808-5.764 7.27-.42 3.008-.842 12.22-.937 20.47-.208 18.043.926 22.757 8.13 33.793 5.374 8.232 8.071 15.664 8.071 22.241 0 7.257 1.246 16.432 2.154 15.87.481-.297 1.769-2.292 2.86-4.433 2.383-4.67 2.563-11.954.506-20.472-1.633-6.766-1.92-14.32-.62-16.37 1.243-1.963 8.283 10.298 11.696 20.37 5.979 17.645 2.166 35.619-10.655 50.22-2.064 2.351-2.835 4.036-2.352 5.14 3.94 8.998 4.728 13.044 4.701 24.14-.015 6.325-.56 13.75-1.21 16.5-1.29 5.448-7.834 19.293-16.543 35-7.567 13.646-8.878 18.23-7.34 25.673 1.502 7.272.471 10.53-4.202 13.275-2.963 1.74-5.168 2.048-14.495 2.023-10.532-.028-13.006-.559-19.623-4.209-.343-.19-2.488 4.294-4.766 9.963-3.806 9.47-4.132 11.005-4.021 18.91.134 9.562-.773 12.133-5.062 14.351-5.966 3.085-22.052 4.217-34.369 2.417zm13.773-8.903c.467-4.74 1.111-7 1.996-7 1 0 1.186 1.673.794 7.153l-.512 7.153 6.776-.694c10.023-1.027 13.245-2.656 14.082-7.122.378-2.014.402-6.088.054-9.051-.975-8.297 4.767-22.181 19.826-47.939 15.508-26.527 18.084-31.668 19.995-39.906 1.807-7.794 3.108-10.505 9.833-20.49 12.044-17.879 14.214-27.481 14.153-62.604-.05-28.374-.017-28.212-8.23-40.793-6.434-9.856-8.23-17.247-8.114-33.404.046-6.491.407-14.39.803-17.553.395-3.162.448-5.75.118-5.75-.896 0-8.568 15.564-11.338 23-1.332 3.575-3.66 11.45-5.174 17.5-3.773 15.075-6.653 20.808-14.067 27.993-41.315 40.043-76.622 66.486-98.927 74.089-10.763 3.669-26.968 4.486-37.686 1.901-8.927-2.153-13.672-4.456-18.885-9.166-2.19-1.978-4.13-3.421-4.313-3.207-.34.4-3.065 15.208-4.12 22.39-1.43 9.721-17.122 51.613-21.793 58.178-1.307 1.837-5.038 5.403-8.29 7.923-6.86 5.316-8.328 7.52-8.377 12.573-.034 3.483 3.802 9.826 5.942 9.826.44 0 1.093-1.561 1.45-3.47.82-4.37 5.41-10.093 6.899-8.603.73.73.404 1.733-1.073 3.31-2.478 2.646-4.535 7.588-3.874 9.31.253.66 2.184 1.507 4.29 1.88 2.107.374 4.561.893 5.455 1.154 1.22.356 1.899-.592 2.726-3.803 1.312-5.098 5.298-10.422 7.01-9.364.85.525.49 1.569-1.25 3.637-2.528 3.004-4.31 8.583-3.122 9.77.374.374 4.804.654 9.845.624 16.307-.099 19.997-3.48 20.966-19.213 1.131-18.35 2.478-21.986 16.177-43.674 4.536-7.182 9.47-15.475 10.964-18.43 1.815-3.59 3.049-5.038 3.719-4.368 1.177 1.177-.984 5.794-8.457 18.07l-5.071 8.33 1.934 3.608c1.064 1.985 5.084 6.83 8.934 10.768 14.679 15.013 30.642 18.347 60.257 12.586 5.091-.99 9.464-2.009 9.717-2.262.79-.79 6.418-24.11 7.813-32.373.797-4.716 1.866-8.037 2.674-8.307 2.114-.704.676 8.29-4.901 30.658-9.07 36.375-10.054 38.993-20.517 54.556-4.983 7.412-5.543 8.778-5.543 13.526 0 4.672.392 5.672 3.4 8.68 1.87 1.87 3.805 3.4 4.3 3.4.495 0 1.893-3.375 3.106-7.5 1.472-5.001 2.705-7.5 3.7-7.5 1.835 0 1.88-.518-.506 5.761-3.786 9.961-3.15 10.83 8.121 11.103l5.621.136.69-7zm56.667-38.25c.209-6.891.441-8.087 1.651-8.495.91-.306 1.25 1.237 1.25 5.662 0 6.798.503 7.154 6.539 4.632 4.347-1.817 5.71-5.062 4.29-10.208-1.895-6.863-.447-13.479 5.276-24.102 13.931-25.86 17.689-34.084 18.927-41.427 2.219-13.153.147-30.435-4.431-36.972-1.41-2.012-1.487-1.946-2.103 1.786-1.96 11.88-4.617 17.705-17.274 37.874-1.725 2.75-4.069 8.525-5.207 12.832-2.484 9.399-4.833 14.164-18.516 37.575-5.775 9.88-10.5 18.417-10.5 18.972 0 1.37 4.06 4.121 6.081 4.121 1.19 0 1.88-1.411 2.528-5.172.49-2.844 1.503-5.373 2.253-5.62 1.1-.363 1.225.729.651 5.672l-.71 6.12h4.598c4.501 0 4.6-.068 4.697-3.25zm-125.852-22.39c1.114-2.446.946-2.836-2.254-5.25-6.652-5.02-11.837-10.237-15.597-15.696l-3.79-5.504-2.354 3.795c-4.838 7.8-7.252 13.329-7.252 16.61 0 2.943.487 3.599 3.75 5.057 5.034 2.248 11.35 3.387 19.522 3.519 6.396.103 6.838-.037 7.975-2.532zm6.524-75.972c12.998-3.386 33.749-15.995 56.73-34.472 13.521-10.872 27.026-23.446 24-22.345l-9.649 3.517c-14.085 5.137-29.454 5.755-37.655 1.514-4.052-2.095-13.678-11.025-16.074-14.91-1.083-1.756-3.358-7.005-5.057-11.666-2.159-5.921-4.847-10.74-8.923-16-9.13-11.778-9.648-13.074-9.61-24.026.019-5.225.638-11.3 1.378-13.5 2.626-7.816 12.21-31.755 16.734-41.8 6.856-15.222 9.169-24.926 7.83-32.853-.848-5.015-2.517-5.653-8.897-3.401-9.414 3.323-49.059 22.757-51.237 25.117-4.335 4.695-6.562 13-7.088 26.437-.457 11.68-.284 13.26 2.63 24.083 1.714 6.37 3.108 12.896 3.096 14.5-.031 4.094-3.132 10.469-8.458 17.391-6.176 8.026-19.695 34.394-23.553 45.94-3.651 10.925-3.514 14.31.963 23.775 3.277 6.93 6.072 9.311 10.929 9.311h3.414l-4.53-4.842c-8.093-8.652-8.898-11.65-6.113-22.737 1.097-4.367 2.29-6.842 3.645-7.568 3.416-1.828 19.305-.506 27.196 2.264 6.113 2.146 7.083 2.833 7.87 5.58 1.149 4.004-1.356 12.324-5.71 18.967-3.363 5.131-7.413 7.106-14.882 7.26-6.635.136-4.27 4.19 4.78 8.192 12.306 5.444 30.009 3.898 44.47-3.883l4.5-2.42-5.364 5.135c-6.179 5.914-12.614 9.448-21.222 11.653-10.304 2.64-21.1-.597-27.951-8.38-4.31-4.896-5.061-4.294-2.038 1.63 6.184 12.124 32.188 18.178 53.846 12.537zm158.519-22.138c9.858-13.535 12.817-26.704 9.165-40.79-1.826-7.044-7.358-19.46-8.67-19.46-.506 0-.684.788-.396 1.75.288.963 1.235 5.931 2.105 11.04 2.138 12.559 1.182 17.574-4.522 23.71-2.647 2.848-2.824 3.647-3.5 15.75-.83 14.861-.005 15.995 5.818 8zm-119.79-70.137c5.906-3.388 14.5-12.229 14.5-14.915 0-1.038-.787-2.564-1.75-3.39-3.609-3.1-4.081-2.97-3.551.978.689 5.139-1.657 10.318-6.265 13.833-4.846 3.696-12.698 4.058-17.11.79-4.462-3.306-7.324-8.239-7.324-12.622 0-4.632 1.157-7.142 5.317-11.537 4.195-4.432 1.107-4.438-3.94-.007-3.582 3.145-8.347 11.607-8.367 14.858-.01 1.76 9.737 10.64 14.49 13.203 4.405 2.374 8.377 2.036 14-1.19zm3.5-13.113c2.603-2.602 2.538-5.798-.174-8.685-2.672-2.845-6.17-2.97-8.826-.315-3.96 3.961-1.08 11 4.5 11 1.375 0 3.4-.9 4.5-2zm-97.357-2.712c.631-2.514-.933-12.911-2.12-14.098-1.36-1.36-1.681 1.37-1.028 8.753.726 8.2 1.922 10.23 3.148 5.345zm183.718-34.924c2.552-.35 4.635-.912 4.63-1.25-.007-.337-3.819-.73-8.473-.872-15.53-.473-30.193-4.704-37.257-10.75-4.236-3.626-10.445-12.471-16.316-23.242-1.873-3.437-3.728-6.25-4.121-6.25-.394 0 .14 2.487 1.185 5.526 6.8 19.764 19.634 32.127 37.353 35.98 6.823 1.484 15.95 1.825 22.999.858zM386.804 560.12c-12.628-3.295-17.112-7.821-31.53-31.821-10.542-17.547-17.505-25.346-33.34-37.344-18.419-13.955-23.137-19.722-34.993-42.763-4.342-8.438-8.177-14.305-12.27-18.771-6.22-6.79-14.282-12.362-15.68-10.838-1.337 1.458-3.865 10.315-5.673 19.883-1.252 6.622-1.68 14.021-1.62 28 .104 24.732 1.552 39.14 4.27 42.5 1.113 1.375 3.81 5.158 5.995 8.405 5.362 7.974 5.43 12.108.269 16.64-11.682 10.256-30.184 12.648-45.861 5.928-4.367-1.872-4.436-1.976-4.431-6.687.009-7.463 1.608-11.533 6.916-17.598l4.909-5.61-1.43-5.478c-2.793-10.693-4.389-25.3-4.395-40.221-.006-15.802-.183-16.852-7.06-41.879-2.977-10.836-2.892-24.734.257-42 1.646-9.028 2.152-14.374 1.654-17.5-.394-2.475-1.029-10.125-1.41-17-1.355-24.46 3.364-46.285 13.609-62.935 3.113-5.06 3.175-5.39 2.523-13.376-.367-4.504-1.843-15.164-3.279-23.689-3.408-20.234-3.623-33.905-.621-39.5 8.54-15.915 29.432-19.899 44.138-8.416 1.274.995 3.626 3.457 5.227 5.471 2.304 2.899 2.7 4.055 1.904 5.544-1.592 2.975-6.695 5.064-14.842 6.075-4.143.515-8.16 1.457-8.93 2.095-3.027 2.513 1.118 26.619 6.463 37.584 3.11 6.382 6.412 8.147 15.236 8.147 5.301 0 5.886-.2 5.45-1.864-.716-2.74 5.902-15.072 10.337-19.26 2.915-2.752 4.982-3.77 8.592-4.23 5.772-.738 10.494-3.06 22.182-10.905 9.136-6.132 14.245-8.74 17.122-8.74.891 0 3.589 2.024 5.994 4.5l4.374 4.5 5.287-2.115c17.353-6.942 28.523-9.399 39.119-8.607 6.934.519 7.426.4 15.062-3.621 6.39-3.365 8.92-5.44 13.276-10.886 2.96-3.7 6.382-7.286 7.606-7.968 3.147-1.754 16.927-1.38 24.724.669 10.31 2.71 15.865 5.875 25.5 14.53 4.95 4.445 10.238 8.835 11.75 9.756 3.605 2.192 3.47 3.043-.758 4.81-4.83 2.017-7.258 1.147-15.16-5.431-12.04-10.021-14.35-10.877-18.228-6.748-4.427 4.712-8.215 24.187-5.081 26.124 1.742 1.077 6.655 11.644 10.35 22.261 1.943 5.579 5.375 13.675 7.627 17.992 3.59 6.878 4.196 9.018 4.9 17.291.442 5.193.466 9.824.054 10.291-.413.467 2.653 5.192 6.813 10.5 16.328 20.836 20.297 29.23 18.366 38.848-1.486 7.396-3.908 11.364-8.424 13.803-2.037 1.1-3.707 2.675-3.711 3.5-.04 7.145-6.057 14.97-14.995 19.499-3.528 1.788-4.828 2.957-4.284 3.852.43.707 5.9 8.584 12.155 17.505 12.669 18.065 14.639 19.83 28.593 25.604 17.425 7.21 20.962 10.915 20.962 21.955 0 14.496-13.276 21.168-31.256 15.706-10.124-3.075-16.75-8.54-34.846-28.744-8.807-9.832-19.06-20.724-22.788-24.203l-6.775-6.327-9.632 9.836c-11.134 11.37-20.838 18.906-30.319 23.545-3.736 1.828-6.705 3.934-6.728 4.772-.11 4.048 4.264 20.213 6.957 25.708 3.684 7.517 7.864 11.24 20.62 18.365 14.487 8.092 20.467 15.05 20.704 24.09.142 5.429-1.75 6.818-10.256 7.531l-7.232.607 4.921 4.305c5.772 5.048 7.692 8.968 6.778 13.836-1.902 10.14-23.068 15.577-41.707 10.713zm11.647-5.404c-.353-1.787-1.128-4.512-1.723-6.055-.791-2.052-.776-3.112.058-3.946 1.685-1.685 3.83 1.668 5.202 8.128l1.14 5.376 5.539-.651c3.046-.358 5.927-.891 6.403-1.185 1.504-.93.94-4.509-1.352-8.588-1.896-3.374-2.005-4.078-.75-4.88 1.902-1.216 4.528 1.854 6.114 7.149.643 2.146 1.522 3.902 1.954 3.902 1.44 0 3.898-4.412 3.898-7 0-3.804-2.06-6.13-12.25-13.823-12.926-9.758-14.93-11.829-19.095-19.722-5.865-11.118-12.979-19.82-30.882-37.777-9.225-9.252-16.773-17.465-16.773-18.25 0-1.127 1.84-1.43 8.75-1.435 15.636-.012 31.509-5.191 46.812-15.273 7.159-4.716 14.84-11.67 24.37-22.064 4.922-5.366 5.558-5.754 7.788-4.738 4.924 2.244 10.9 8.001 26.557 25.582 8.816 9.9 18.323 20.166 21.126 22.813 7.235 6.83 16.336 11.03 24.986 11.53l6.889.399-.686-2.87c-.377-1.58-1.548-4.068-2.601-5.53-1.68-2.333-1.733-2.81-.429-3.893.818-.678 1.617-1.057 1.777-.841.159.216 1.273 1.69 2.475 3.277 1.203 1.587 2.186 3.923 2.186 5.191 0 3.288 1.372 3.707 4.383 1.338 3.222-2.534 3.374-5.954.473-10.647-1.753-2.836-1.894-3.625-.773-4.318.872-.539 2.066-.228 3.278.852 1.828 1.63 1.875 1.598 1.168-.8-1.866-6.333-4.11-7.933-21.603-15.418-4.717-2.018-10.219-5.024-12.228-6.68-2.009-1.656-9.29-11.05-16.178-20.875l-12.526-17.865-3.747 1.11c-2.06.61-8.472 1.098-14.247 1.084-8.729-.02-11.922-.491-18.935-2.793-18.75-6.152-41.625-17.781-66.565-33.837-19.283-12.415-21.305-14.534-29.097-30.485-3.663-7.5-9.284-16.98-12.94-21.828-3.554-4.713-6.463-8.76-6.463-8.991 0-.233 1.463-.43 3.25-.44 5.401-.029 16.25-2.687 21.926-5.372 6.178-2.923 12.905-9.201 16.595-15.488 2.918-4.973 6.254-16.093 6.18-20.601-.037-2.21-.939-.576-3.355 6.075-4.283 11.793-8.3 19.086-12.07 21.913-12.573 9.431-35.447 15.057-44.997 11.067-4.436-1.854-9.823-9.968-14.014-21.111l-3.22-8.562-7.898-.21c-12.456-.33-16.559-3.822-21.373-18.194-2.548-7.605-5.331-26.012-4.559-30.15.837-4.48 2.461-5.415 11.25-6.465 8.798-1.052 13.285-2.535 13.285-4.39 0-1.602-6.903-7.876-10.994-9.992-8.688-4.493-21.247-2.314-28.507 4.946-7.35 7.35-8.091 14.757-3.908 39.051 1.42 8.25 2.826 20.408 3.122 27.017l.54 12.017-3.092 4.875c-10.814 17.052-15.107 42.152-12.218 71.449 1.175 11.92 1.114 13.357-1.06 25.142-3.67 19.896-3.253 28.81 2.343 50l4.62 17.5.482 20.5c.459 19.555 1.42 26.734 5.243 39.17.322 1.046-1.174 3.57-4.009 6.76-5.916 6.662-7.562 10.016-7.562 15.412 0 4.252.172 4.51 4.02 6.05 2.212.885 4.42 1.608 4.907 1.608.487 0 1.19-2.215 1.563-4.922.8-5.823 2.398-8.427 4.396-7.166 1.112.701 1.161 1.516.25 4.13-.625 1.791-1.136 4.54-1.136 6.108 0 2.804.094 2.85 5.75 2.845 3.163-.003 7.438-.474 9.5-1.047 4.248-1.18 4.625-2.745 2.261-9.381-1.401-3.934-1.236-5.567.565-5.567 1.088 0 3.512 5.126 4.393 9.291l.59 2.792 4.413-3.17c2.427-1.742 4.674-3.848 4.993-4.68.846-2.205-2.758-8.984-7.887-14.834l-4.473-5.101-1.176-15.381c-.673-8.792-.946-23.528-.638-34.399.45-15.84.955-20.624 3.03-28.635 2.886-11.14 5.075-15.883 7.333-15.883 3.185 0 12.91 6.53 18.956 12.725 4.845 4.966 7.545 9.072 12.524 19.044 7.688 15.396 14.144 25.353 19.991 30.83 2.407 2.255 9.842 8.224 16.523 13.265 6.68 5.042 13.718 10.905 15.637 13.03 4.14 4.581 11.31 15.163 18.707 27.606 6.077 10.223 11.357 17.256 15.6 20.775 4.308 3.576 12.257 6.23 19.738 6.59 2.675.128 2.794-.042 2.187-3.115zm19.48-29.5c-.002-.962-.912-3.24-2.022-5.06-2.04-3.346-1.898-5.19.4-5.19 1.594 0 5.625 7.086 5.625 9.887 0 2.224 2.19 2.705 6.75 1.483 2.767-.741 2.882-3.384.385-8.878-2.378-5.235-6.767-8.984-17.61-15.04-17.15-9.58-22.424-16.52-27.25-35.859-1.386-5.55-2.645-10.236-2.798-10.41-.154-.176-2.686.398-5.628 1.274s-9.317 1.876-14.168 2.223l-8.82.63 14.004 14.095c18.687 18.81 25.298 27.054 31.457 39.233 2.943 5.819 9.613 12.052 13.544 12.657 5.4.831 6.134.706 6.13-1.045zm38.87-132.78c9.411-2.219 10.554-3.246 3.701-3.328-10.327-.123-20.92-4.566-27.445-11.512l-2.332-2.482 6.023 2.433c11.406 4.607 23.66 4.187 34.636-1.187 6.065-2.97 10.114-6.673 9.096-8.32-.365-.59-3.299-1.074-6.52-1.074-5.691 0-5.967-.127-9.838-4.524-4.424-5.026-7.188-10.178-7.188-13.399 0-4.12 16.749-12.077 25.422-12.077 2.935 0 3.454.51 6.049 5.938 3.545 7.419 3.468 10.738-.414 17.616-3.166 5.61-2.6 6.916 1.693 3.91 2.365-1.657 5.257-9.877 5.24-14.895-.004-1.688-1.068-5.319-2.363-8.069-3.783-8.034-18.1-27.349-29.337-39.578-3.416-3.717-6.517-7.98-6.892-9.474-.375-1.494-.395-7.494-.045-13.332.686-11.451-1.028-21.706-5.202-31.116-3.619-8.158-5.68-9.756-16.15-12.524-27.362-7.234-37.269-9.577-39.28-9.291-5.58.793-1.89 14.931 7.357 28.184 10.653 15.268 21.736 33.553 23.432 38.66 2.917 8.783 2.325 14.802-2.382 24.217-2.743 5.485-4.62 11.022-5.571 16.434-1.637 9.31-4.071 14.67-9.282 20.438-5.948 6.584-10.167 8.225-22.275 8.665-5.775.21-12.412-.057-14.75-.594-2.337-.537-4.25-.686-4.249-.332.001.81 20.782 12.642 31.742 18.073 25.601 12.688 41.599 16.2 57.124 12.54zm28.094-44.922c2.082-2.509.845-5.048-2.46-5.048-2.067 0-3.079.549-3.32 1.798-.396 2.062 1.467 4.702 3.32 4.702.69 0 1.797-.653 2.46-1.452zm-80.076-21.455c.865-.548-.263-.707-3-.424-8.318.86-15.36-5.827-14.657-13.919.179-2.062-.001-3.75-.4-3.75-1.742 0-5.967 6.987-5.367 8.876.624 1.966 7.796 7.115 12.54 9.003 3.144 1.251 9.062 1.368 10.884.214zm10.235-16.73c-1.576-3.458-1.899-2.813-1.32 2.637.426 4.02.585 4.26 1.495 2.242.719-1.593.667-3.03-.175-4.88zm-6.32.437c.66-.66 1.2-2.37 1.2-3.8 0-1.43-.54-3.14-1.2-3.8-.66-.66-2.37-1.2-3.8-1.2-1.43 0-3.14.54-3.8 1.2-.66.66-1.2 2.37-1.2 3.8 0 1.43.54 3.14 1.2 3.8.66.66 2.37 1.2 3.8 1.2 1.43 0 3.14-.54 3.8-1.2zm60.292-15.885-.965-2.415-.063 2.584c-.035 1.42.265 2.911.666 3.312 1.187 1.188 1.402-.88.362-3.481z"/></svg>