<?xml version="1.0" encoding="UTF-8"?>
<svg height="100" width="100">

  <defs>
    <linearGradient x1="10" y1="10" x2="100" y2="100" id="LG1" gradientUnits="userSpaceOnUse">
      <stop style="stop-color:#8094A1;stop-opacity:1;" offset="0.05"/>
      <stop style="stop-color:#AED9FF;stop-opacity:1;" offset="0.5"/>
      <stop style="stop-color:#C4E4FF;stop-opacity:1;" offset="0.7"/>
      <stop style="stop-color:#E9F9FF;stop-opacity:1;" offset="1"/>
    </linearGradient>
    <radialGradient cx="100" cy="100" fx="100" fy="100" r="140" id="RG1" gradientUnits="userSpaceOnUse">
      <stop style="stop-color:#fff;stop-opacity:0" offset="0.6" />
      <stop style="stop-color:#fff;stop-opacity:1" offset="1" />
    </radialGradient>
    <linearGradient x1="20" y1="20" x2="40" y2="40" id="LG2" gradientUnits="userSpaceOnUse">
      <stop style="stop-color:#fff;stop-opacity:0" offset="1" />
      <stop style="stop-color:#fff;stop-opacity:1" offset="0" />
    </linearGradient>
  </defs>
  
  <path style="fill:#666" d="M 3,73 6,35 c 0,0 18,-25 24,-25 5,0 31,-3 36,-3 16,0 30,11 30,23 0,12 0,23 0,40 0,17 -10,30 -28,30 -5,0 -37,0 -41,0 C 4,100 3,73 3,73 z"/>
  <path style="fill:url(#LG1);stroke:#888;stroke-width:3" d="M 3,70 C 3,55 3,45 3,33 3,18 13,7 28,7 28,7 61,7 66,7 81,7 91,17 91,32 91,47 91,55 91,70 91,85 81,95 66,95 61,95 32,95 28,95 13,95 3,85 3,70 z"/>
  <path style="fill:url(#RG1)" d="M 8,84 8,33 C 8,21 17,12 30,12 l 50,0"/>
  <path style="fill:url(#RG1)" d="M 8,84 8,33 C 8,21 17,12 30,12 l 50,0"/>
  <path style="fill:none;stroke:url(#LG2);stroke-width:4" d="m 11,84 0,-49 c 0,-12 8,-21 21,-21 16,0 25,0 48,0"/>
  <path style="fill:#333" d="m 20,57 c 0,0 11,2 24,26 C 55,66 92,11 99,4 99,4 83,0 82,2 77,11 57,52 45,67 38,54 22,38 22,40 c 0,5 -2,17 -2,17 z"/>

</svg>
