<?xml version="1.0" encoding="UTF-8"?>
<svg xmlns="http://www.w3.org/2000/svg" version="1.1" height="48px" width="48px" viewBox="0 0 192 192">
  <g transform="scale(0.75)">
  <path style="fill:#EDEDED;stroke:#607D8B;stroke-width:6;" d="m 42,10 108,0 a 12 12 0 0 1 12,12  l 0,148 a 12,12 0 0 1 -12,12 l -108,0 a 12,12 0 0 1 -12,-12 l 0,-148 a 12,12 0 0 1 12,-12 z m 54,48 48,0 m -96,24 96,0 m -96,24 96,0 m -96,24 96,0 m -96,-96 24,0 0,24 -24,0 z"/>
  </g>
  <g transform="translate(48,48) scale(0.75)">
  <path style="fill:#EDEDED;stroke:#607D8B;stroke-width:6;" d="m 42,10 108,0 a 12 12 0 0 1 12,12  l 0,148 a 12,12 0 0 1 -12,12 l -108,0 a 12,12 0 0 1 -12,-12 l 0,-148 a 12,12 0 0 1 12,-12 z m 54,48 48,0 m -96,24 96,0 m -96,24 96,0 m -96,24 96,0 m -96,-96 24,0 0,24 -24,0 z"/>
  </g>
</svg>
