<?xml version="1.0" encoding="UTF-8"?>
<svg xmlns="http://www.w3.org/2000/svg" version="1.1" height="24px" width="24px" viewBox="0 0 192 192">
  <circle cx="96" cy="96" r="88" style="fill:#5B4904;stroke:#222"/>
  <circle cx="96" cy="96" r="84" style="fill:#A8965D;stroke:#FFEF7C"/>
  <path style="fill:#5B4904" d="m 140,40 -19,0 -24,24 -24,-24 -19,0 36,36 0,6 -14,0 0,14 14,0 0,6 -14,0 0,14 14,0 0,36 14,0 0,-36 14,0 0,-14 -14,0 0,-6 14,0 0,-14 -14,0 0,-6 z"/>
  <path style="fill:#F2E9D2" d="m 134,44 -19,0 -24,24 -24,-24 -19,0 36,36 0,6 -14,0 0,14 14,0 0,6 -14,0 0,14 14,0 0,36 14,0 0,-36 14,0 0,-14 -14,0 0,-6 14,0 0,-14 -14,0 0,-6 z"/>
</svg>
