<?xml version="1.0" encoding="UTF-8"?>
<svg xmlns="http://www.w3.org/2000/svg" version="1.1" height="24px" width="24px" viewBox="0 0 192 192">
  <g transform="scale(0.75)">
  <path style="fill:#3E2723;stroke:none" d="m 22,30 148,0 a 12 12 0 0 1 12,12  l 0,108 a 12,12 0 0 1 -12,12 l -148,0 a 12,12 0 0 1 -12,-12 l 0,-108 a 12,12 0 0 1 12,-12 z"/>
  <path style="fill:#3E3AF3;stroke:none" d="m 22,50  a 10 10 0 0 1 10,-10 l 128,0 a 10 10 0 0 1 10,10 l 0,88 -53,-80 -42,60  -31,-42 -22,32 z"/>
  <circle style="fill:#FFF;stroke:none" cx="50" cy="56" r="10"/>
  </g>
  <g transform="translate(48,48) scale(0.75)">
  <path style="fill:#3E2723;stroke:none" d="m 22,30 148,0 a 12 12 0 0 1 12,12  l 0,108 a 12,12 0 0 1 -12,12 l -148,0 a 12,12 0 0 1 -12,-12 l 0,-108 a 12,12 0 0 1 12,-12 z"/>
  <path style="fill:#00BCD4;stroke:none" d="m 22,50  a 10 10 0 0 1 10,-10 l 128,0 a 10 10 0 0 1 10,10 l 0,88 -53,-80 -42,60  -31,-42 -22,32 z"/>
  <circle style="fill:#FFEF62;stroke:none" cx="50" cy="56" r="10"/>
  </g>
</svg>
