<?xml version="1.0" encoding="UTF-8"?>
<svg xmlns="http://www.w3.org/2000/svg" version="1.1" height="24px" width="24px" viewBox="0 0 192 192">
  <path style="fill:#3E2723" d="m 22,68 16,0 0,56 -16,0 z"/>
  <path style="fill:#94776D;stroke:#3E2723;stroke-width:3;stroke-linecap:square;" d="m 38,110 q 30,10 52,12 q 3,2 6,1 q 10,0 22,-2 q 10,0 22,-2 c 10,-1 10,-12 -3,-11 q -12,2 -30,1 q -13,-2 -37,-9 q 9,2 32,7 c 10,1 10,-14 2,-17 q -15,-10 -30,-15 q -5,-3 -15,-1 q -11,0 -21,3 z"/>
  <path style="fill:#DDCCC7;" d="m 99,91 q -3,6 -3,12 c 13,5 14,-9 3,-12"/>
</svg>
