<?xml version="1.0" encoding="UTF-8"?>
<svg xmlns="http://www.w3.org/2000/svg" version="1.1" height="256px" width="256px" viewBox="0 0 192 192">
  <path style="fill:#BDBDBD;stroke:none" d="m 10,42 0,-12 86,-22 86,22 0,12 -86,42 -86,-42 z"/>
  <path style="fill:#EDEDED;stroke:#545454;stroke-width:6;" d="m 42,22 108,0 a 12 12 0 0 1 12,12 l 0,108 a 12,12 0 0 1 -12,12 l -108,0 a 12,12 0 0 1 -12,-12 l 0,-108 a 12,12 0 0 1 12,-12 z m 6,32 96,0 m -96,24 76,0 m -76,24 96,0 m -96,24 56,0"/>
  <path style="fill:#919191;stroke:none" d="m 10,42 86,42 86,-42 0,108 a 12,12 0 0 1 -12,12 l -148,0 a 12,12 0 0 1 -12,-12 l 0,-108 z"/>
</svg>
