<?xml version="1.0" encoding="UTF-8"?>
<svg xmlns="http://www.w3.org/2000/svg" version="1.1" height="64px" width="64px" viewBox="0 0 100 100">
  <path style="fill:#E3E3BF;" d="m 19,4 62,0 q 5,0 5,5 l 0,82 q 0,5 -5,5 l -62,0 q -5,0 -5,-5 l 0,-82 q 0,-5 5,-5 z"/>
  <path style="fill:#222222;stroke:none;" d="m 80,80 c -5,0 -5,0 -8,-8 L 60,17 58,17 31,64 C 22.2,78 21.2,79 16.7,79 l 0,2 18.3,0 0,-2 c -4,0 -6,0 -4,-4  l 6,-10 25,0 2,8 c 1,3 1,6 -6,7 l 0,2 22,0 0,-2 M 41,57 56,30 61,57 41,57"/>
</svg>
