<?xml version="1.0" encoding="UTF-8"?>
<svg xmlns="http://www.w3.org/2000/svg" version="1.1" height="64px" width="64px" viewBox="0 0 100 100">
  <path style="fill:#E3E3BF;" d="m 19,4 62,0 q 5,0 5,5 l 0,82 q 0,5 -5,5 l -62,0 q -5,0 -5,-5 l 0,-82 q 0,-5 5,-5 z"/>
  <path style="fill:#222222;stroke:none;" d="m 82,79 c -5,0 -5,0 -10,-7 L 51,17 47,17 28,64 C 21.2,78 20.2,79 15.7,79 l 0,2 20.3,0 0,-2 c -3,0 -5,0 -3,-7 l 4.3,-10 19.5,0 3,8 c 1,3 1,6 1,7 0,3 -1,3 -7,3 l 0,2 28,0 0,-2 M 39.5,56 47.5,34.5 55,56 39.5,56"/>
</svg>
