<?xml version="1.0" encoding="UTF-8"?>
<svg xmlns="http://www.w3.org/2000/svg" version="1.1" height="22px" width="22px" viewBox="0 0 100 100">
  <path style="fill:#ffffff;stroke:none;" d="m 65,3 0,19 19,0 z"/>
  <path style="fill:#EBEBDA;stroke:#777777;stroke-width:2;" d="m 65,3 0,19 19,0 0,74 -72,0 0,-93 53,0 19,19"/>
  <path style="fill:none;stroke:#444444;stroke-width:2px;" d="m 32,26 44,0 -44,0 z m 0,9 44,0 -44,0 z m 0,9 44,0 -44,0 z m 0,9 44,0 -44,0 z m 0,9 44,0 -44,0 z m 0,9 44,0 -44,0 z "/>
  <path style="fill:#5E9FCE;stroke:#111;" d="M 15,50 30,30 30,70 z"/>
</svg>
