<?xml version="1.0" encoding="UTF-8"?>
<svg xmlns="http://www.w3.org/2000/svg" version="1.1" height="32px" width="32px" viewBox="0 0 192 192">
  <path style="fill:#9E9E9E;stroke:none" d="m 42,10 108,0 a 12 12 0 0 1 12,12  l 0,148 a 12,12 0 0 1 -12,12 l -108,0 a 12,12 0 0 1 -12,-12 l 0,-148 a 12,12 0 0 1 12,-12 z"/>
  <path style="fill:#263238;stroke:none" d="m 96,156 a 56,56 0 1 1 0.01,0 z"/>
  <path style="fill:#eee" d="m 98,112 a 4,4 0 1 1 -2,0 l 0,-6 -11,-2.75 q -1,-0.25 -1,-1 l 0,-4 a 3,3 0 1 1 2,0 l 0,3 10,2.5 0,-22 -2,0 3,-5 3,5 -2,0 0,17 10,-2.5 0,-3 -2,0 0,-6 6,0 0,6 -2,0 0,4 q 0,0.75 -1,1 l -11,2.75 z"/>
</svg>
