<?xml version="1.0" encoding="UTF-8"?>
<svg xmlns="http://www.w3.org/2000/svg" version="1.1" height="32px" width="32px" viewBox="0 0 192 192">
  <path style="fill:#EDEDED;stroke:#919191;stroke-width:6;" d="m 32,20 128,0 a 12 12 0 0 1 12,12  l 0,128 a 12,12 0 0 1 -12,12 l -128,0 a 12,12 0 0 1 -12,-12 l 0,-128 a 12,12 0 0 1 12,-12 z"/>
  <g transform="scale(1.6) translate(10,10)">
  <path  style="fill:#08A0B5;" d="m 30,50 0,-25 40,0 0,25 z"/>
  <path  style="fill:#8BC34A;" d="m 10,75 0,-25 40,0 0,25 z"/>
  <path  style="fill:#F44336;" d="m 50,75 0,-25 40,0 0,25 z"/>
  <path  style="fill:#08A0B5;" d="m 35,25 0,-5 10,0 0,5 z m 20,0 0,-5 10,0 0,5 z"/>
  <path  style="fill:#8BC34A;" d="m 15,50 0,-5 10,0 0,5 z"/>
  <path  style="fill:#F44336;" d="m 75,50 0,-5 10,0 0,5 z"/>
  </g>
</svg>
