<?xml version="1.0" encoding="UTF-8"?>
<svg xmlns="http://www.w3.org/2000/svg" version="1.1" height="32px" width="32px" viewBox="0 0 192 192">
  <g transform="scale(1.8) translate(3,3)">
  <path  style="fill:#444" d="m 15,45 c 0,70 70,70 70,0 l -30,0 0,5 a 5,5 0 1 1 -10,0 l 0,-5 z a 30,32 0 1 1 70,0 m -2,0 a 28,30 0 1 0 -66,0"/>
  <path  style="fill:#666" d="m 19,43 a 30,34 0 0 1 30,-31.5 l 0,21.5 a 5,5 0 0 0 -4,5 l 0,5 z m 62,0 a 30,34 0 0 0 -30,-31.5 l 0,21.5 a 5,5 0 0 1 4,5 l 0,5 z"/>
  <path  style="fill:#999" d="m 47,38 a 3,3 0 0 1 6,0 l 0,12  a 3,3 0 0 1 -6,0 "/>
  <path  style="fill:#000" d="m 49,7.6 c -1,-2 1,-4 0,-6 l 2,0 c 1,2 -1,4 0,6 z"/>
  </g>
</svg>
