/* XPM */
static char * ripoff_xpm[] = {
"48 48 166 2",
"  	c None",
". 	c #F6E4E4",
"+ 	c #D88484",
"@ 	c #C23E3E",
"# 	c #B51818",
"$ 	c #B20E0E",
"% 	c #BA2525",
"& 	c #CE6565",
"* 	c #F3D8D8",
"= 	c #E7B3B3",
"- 	c #C23F3F",
"; 	c #F8E9E9",
"> 	c #FDF9F9",
", 	c #D68080",
"' 	c #B31111",
") 	c #B10A0A",
"! 	c #B41414",
"~ 	c #E9BABA",
"{ 	c #F7E7E7",
"] 	c #CB5A5A",
"^ 	c #C54A4A",
"/ 	c #FEFCFC",
"( 	c #D06A6A",
"_ 	c #C64A4A",
": 	c #D37474",
"< 	c #D67F7F",
"[ 	c #CD6161",
"} 	c #B61818",
"| 	c #F8E8E8",
"1 	c #FFFEFE",
"2 	c #E09E9E",
"3 	c #B61919",
"4 	c #F9EBEB",
"5 	c #C03A3A",
"6 	c #D57C7C",
"7 	c #F3D9D9",
"8 	c #C44646",
"9 	c #C54848",
"0 	c #B20D0D",
"a 	c #EBC0C0",
"b 	c #F0D0D0",
"c 	c #BE3333",
"d 	c #FDFAFA",
"e 	c #D98888",
"f 	c #CE6464",
"g 	c #FEFEFE",
"h 	c #B20C0C",
"i 	c #B92323",
"j 	c #F8EAEA",
"k 	c #BA2626",
"l 	c #BF3434",
"m 	c #BF3737",
"n 	c #CA5959",
"o 	c #D67D7D",
"p 	c #C75050",
"q 	c #C34141",
"r 	c #D47979",
"s 	c #FEFAFA",
"t 	c #C13C3C",
"u 	c #DC9191",
"v 	c #C34444",
"w 	c #ECC2C2",
"x 	c #F4DBDB",
"y 	c #B51515",
"z 	c #B31010",
"A 	c #EFCDCD",
"B 	c #E1A1A1",
"C 	c #BC2D2D",
"D 	c #FDF8F8",
"E 	c #DC9292",
"F 	c #B30F0F",
"G 	c #CB5B5B",
"H 	c #B71D1D",
"I 	c #E7B2B2",
"J 	c #FAEEEE",
"K 	c #C95656",
"L 	c #BA2828",
"M 	c #C64C4C",
"N 	c #F7E6E6",
"O 	c #EEC9C9",
"P 	c #BB2929",
"Q 	c #D06D6D",
"R 	c #FBF2F2",
"S 	c #C44747",
"T 	c #E5AFAF",
"U 	c #B82020",
"V 	c #EABEBE",
"W 	c #FCF7F7",
"X 	c #D16E6E",
"Y 	c #F1D2D2",
"Z 	c #F9EEEE",
"` 	c #C95454",
" .	c #D98787",
"..	c #F2D8D8",
"+.	c #BF3636",
"@.	c #FCF6F6",
"#.	c #F0D1D1",
"$.	c #BA2727",
"%.	c #C95757",
"&.	c #E1A2A2",
"*.	c #F9ECEC",
"=.	c #B61B1B",
"-.	c #BE3131",
";.	c #BD2F2F",
">.	c #D47878",
",.	c #BC2B2B",
"'.	c #F2D6D6",
").	c #C85252",
"!.	c #B10B0B",
"~.	c #B71C1C",
"{.	c #F2D5D5",
"].	c #DD9696",
"^.	c #CC5E5E",
"/.	c #F5E1E1",
"(.	c #C34343",
"_.	c #C85454",
":.	c #D06C6C",
"<.	c #C24040",
"[.	c #EBC1C1",
"}.	c #B92424",
"|.	c #B41212",
"1.	c #CA5757",
"2.	c #DB8F8F",
"3.	c #F6E2E2",
"4.	c #CB5C5C",
"5.	c #C13B3B",
"6.	c #C13D3D",
"7.	c #ECC5C5",
"8.	c #FCF5F5",
"9.	c #DF9B9B",
"0.	c #B31212",
"a.	c #BB2A2A",
"b.	c #FBF4F4",
"c.	c #FEFDFD",
"d.	c #E09D9D",
"e.	c #B82121",
"f.	c #B51717",
"g.	c #F5DFDF",
"h.	c #DF9C9C",
"i.	c #EFCCCC",
"j.	c #D06B6B",
"k.	c #E9BBBB",
"l.	c #EDC6C6",
"m.	c #D47676",
"n.	c #B92222",
"o.	c #E1A0A0",
"p.	c #DA8A8A",
"q.	c #B41313",
"r.	c #B61A1A",
"s.	c #D27171",
"t.	c #DF9A9A",
"u.	c #E8B6B6",
"v.	c #ECC4C4",
"w.	c #EDC5C5",
"x.	c #CA5858",
"y.	c #E09F9F",
"z.	c #B51616",
"A.	c #E6B2B2",
"B.	c #FBF1F1",
"C.	c #ECC3C3",
"D.	c #EEC8C8",
"E.	c #FDF7F7",
"F.	c #F9EDED",
"G.	c #D27272",
"H.	c #E3A6A6",
"I.	c #F0CECE",
"                                                                                                ",
"                                                                                                ",
"                                                                                                ",
"                                                                                                ",
"                                                                                                ",
"                                                                                                ",
"                                                                                                ",
"                                                                                                ",
"                      . + @ # $ % & *                   = - ;                                   ",
"                  > , ' ) ) ) ) ) ) ! ~             { ] ) ) ^ /                                 ",
"                  ( _ : < [ } ) ) ) ) } |       1 2 3 ) ) ) ) +                                 ",
"                            4 5 ) ) ) ) 6     7 8 9 % ) ) ) ) 0 a                               ",
"                              b ) ) ) ) c d e ' f g a h ) ) ) ) i j                             ",
"                                k ) ) ) $ l m n +     o ) ) ) ) ) p 1                           ",
"                                q ) ) ) ) r s + +     d t ) ) ) ) ) u                           ",
"                                v ) ) ) ) w   + +       x y ) ) ) ) z A                         ",
"                                @ ) ) ) ) w   + +         B ) ) ) ) ) C D                       ",
"                            1 E F ) ) ) ) w   + +           G ) ) ) H I                         ",
"                          J K L L ) ) ) ) w   + +           J k ) M N                           ",
"                        O P Q R S ) ) ) ) w   + +           T U E 1                             ",
"                    1 u i V     S ) ) ) ) w   + +       W X c Y                                 ",
"                  Z ` ) h  .1   S ) ) ) ) w   + +     ..+.- @.                                  ",
"                #.$.) ) ) ) %.R S ) ) ) ) w   + +   &.! ) ) G *.                                ",
"                > E =.) ) ) ) -.;.) ) ) ) w   + >.[ ) ) ) ) ) ,.'.                              ",
"                    { ).) ) ) ) ) ) ) ) ) w   + !.) ) ) ) ) ) ) ~.{.                            ",
"                      1 + !.) ) ) ) ) ) ) w   + n ].^.' ) ) ) ) ) i j                           ",
"                          E ) ) ) ) ) ) ) w   + +     /.(.) ) ) ) ) _.                          ",
"                            :.) ) ) ) ) ) w   + +       @.<.) ) ) ) ) [.                        ",
"                            R }.) ) ) ) ) w   + +         /.|.) ) ) ) 1.                        ",
"                              2.) ) ) ) ) w   + +           : ) ) ) ) $ |                       ",
"                              . ) ) ) ) ) w   + +           3.$ ) ) ) ) E                       ",
"                                k ) ) ) ) w   + +             4.) ) ) ) 5.                      ",
"                                6.) ) ) ) w   + +             7.) ) ) ) ) Y                     ",
"                          8.9.t ) ) ) ) ) 0.L a.[ b.            +.) ) ) ) f                     ",
"                      c.d.e.) ) ) ) ) ) ) ) ) ) ) f.X g.  J >   h.) ) ) ) 0 i.                  ",
"                    N S ) ) ) ) ) ) ) ) ) ) ) ) ) ) ) F j.c k.  8.~.) ) ) ) C l.m.              ",
"                  #.n.) ) ) ) ) ) ) ) ) ) ) ) ) ) ) ) ) h o.      p.) ) ) ) ) q.k.              ",
"                Y r.) $ @ s.t.u.v.w.u.E x.q.) ) ) ) ) !.y.        @.P ) ) ) z.w                 ",
"              { c & A.R                   B.2.~.) ) !.2             C.$ ) 3 D.                  ",
"              | E.                            F.G.F d.                H.% I.                    ",
"                                                  j                                             ",
"                                                                                                ",
"                                                                                                ",
"                                                                                                ",
"                                                                                                ",
"                                                                                                ",
"                                                                                                ",
"                                                                                                "};
