<?xml version="1.0" encoding="UTF-8"?>
<svg xmlns="http://www.w3.org/2000/svg" version="1.1" height="22px" width="22px" viewBox="0 0 192 192">
  <g transform="rotate(45 96 96)">
  <path style="fill:#263238;" d="m 24,72 a 48 48 0 0 0 48,-48 l 48,0 a 48 48 0 0 0 48,48 l 0,48 a 48 48 0 0 0 -48,48 l-48,0 a 48 48 0 0 0 -48,-48 z m 72,-12 a 36 36 1 1 0 0.1,0 z"/>
  </g>
  <g transform="scale(0.7) translate(105,75)">
  <path style="fill:#646464;" d="m 102,112 a 52,52 0 1 1 10,-10 l 50,50 -10,10 z"/>
  <circle style="fill:#FFF;" cx="70" cy="70" r="40"/>
  </g>
</svg>
