<?xml version="1.0" encoding="UTF-8"?>
<svg xmlns="http://www.w3.org/2000/svg" version="1.1" height="22px" width="22px" viewBox="0 0 192 192">
  <path style="fill:#919191;stroke:none" d="m 22,30 148,0 a 12 12 0 0 1 12,12 l 0,108 a 12,12 0 0 1 -12,12 l -148,0 a 12,12 0 0 1 -12,-12 l 0,-108 a 12,12 0 0 1 12,-12 z"/>
  <path style="fill:#BDBDBD;stroke:none" d="m 22,30 148,0 a 12 12 0 0 1 12,12 l -86,42 -86,-42 a 12,12 0 0 1 12,-12 z"/>
  <g transform="translate(90,90)">
  <path style="fill:#FFC107;stroke:none" d="M 91,80 58,16 C 54,7.1 46,7.1 42,16 42,16 11,77 9,81 6.2,86 5.8,91 14,91 l 67,0 c 12,0 14,-3 10,-11 z"/>
  <path style="fill:#3E2723;" d="M 46,63 43,35 57,35 54,63 z"/>
  <circle cx="50" cy="73" r="7" style="fill:#3E2723"/>
  </g>
</svg>
