<?xml version="1.0" encoding="UTF-8"?>
<svg xmlns="http://www.w3.org/2000/svg" version="1.1" height="22px" width="22px" viewBox="0 0 192 192">
  <path style="fill:#919191;stroke:none" d="m 22,30 148,0 a 12 12 0 0 1 12,12 l 0,108 a 12,12 0 0 1 -12,12 l -148,0 a 12,12 0 0 1 -12,-12 l 0,-108 a 12,12 0 0 1 12,-12 z"/>
  <path style="fill:#BDBDBD;stroke:none" d="m 22,30 148,0 a 12 12 0 0 1 12,12 l -86,42 -86,-42 a 12,12 0 0 1 12,-12 z"/>
  <path style="fill:#3E3AF3;stroke:#3E3AF3;stroke-width:3;fill-opacity:0.5;" d="m 112,96 0,16 a 12,12 0 0 0 12,12 l 32,0 0,-12 28,28 -28,28 0,-12 -32,0 a 44,44 0 0 1 -44,-44 l 0,-16 z"/>
</svg>
