<?xml version="1.0" encoding="UTF-8"?>
<svg xmlns="http://www.w3.org/2000/svg" version="1.1" height="22px" width="22px" viewBox="0 0 192 192">
  <g transform="scale(1.8) translate(3,3)">
  <path style="fill:#F44336;" d="m 5,10 30,0 0,40 -30,0 z"/>
  <path style="fill:#4CAF50;" d="m 35,10 30,0 0,40 -30,0 z"/>
  <path style="fill:#2196F3;" d="m 65,10 30,0 0,40 -30,0 z"/>
  <path style="fill:#FFEB3B;" d="m 5,50 30,0 0,40 -30,0 z"/>
  <path style="fill:#9C27B0;" d="m 35,50 30,0 0,40 -30,0 z"/>
  <path style="fill:#009688;" d="m 65,50 30,0 0,40 -30,0 z"/>
  <path style="fill:#FFF;" d="m 75,60 -7.5,7.5 -10,-30 30,10 -7.5,7.5 12.5,10 -7.5,7.5 z"/>
  </g>
</svg>
