<?xml version="1.0" encoding="UTF-8"?>
<svg xmlns="http://www.w3.org/2000/svg" version="1.1" height="22px" width="22px" viewBox="0 0 192 192">
  <g transform="scale(1.92)">
  <path style="fill:#616161;" d="m 10,10 5,75 q 0.1,5 5,5 l 60,0 q 5,-0.1 5,-5 l 5,-75 z"/>
  <path style="fill:#FF9800;" d="m 78,17 -24,0 0,30 9,0 c 6,0 13,-7 15,-30 z"/>
  <path style="fill:#FF9800;" d="m 78,17 0,39 c 0,0 0,8 -6,8 -14,0 -32,0 -32,0 L 40,78 16,51 40,25 40,40 c 0,0 23,0 23,0 11,0 15,-20 15,-23 z"/>
  </g>
</svg>
