<?xml version="1.0" encoding="UTF-8"?>
<svg xmlns="http://www.w3.org/2000/svg" version="1.1" height="48px" width="48px" viewBox="0 0 100 100">
  <path style="fill:#E3E3BF;" d="m 19,4 62,0 q 5,0 5,5 l 0,82 q 0,5 -5,5 l -62,0 q -5,0 -5,-5 l 0,-82 q 0,-5 5,-5 z"/>
  <path style="fill:#222222;stroke:none;" d="m 81,79 c -5,0 -5,0 -10,-8 L 50,17 48,17 29,64 C 22.2,78 21.2,79 16.7,79 l 0,2 18.3,0 0,-2 c -4,0 -6,0 -6,-4 0,-1 0,-3 1,-4 l 4,-10 25,0 4,8 c 1,3 1,6 1,7 0,3 -1,3 -7,3 l 0,2 24,0 0,-2 M 36,57 47,30 57,57 36,57"/>
  <path style="fill:#222222;stroke:none;" d="M 81,85 81,89 17,89 17,85 z"/>
</svg>
