<?xml version="1.0" encoding="UTF-8"?>
<svg xmlns="http://www.w3.org/2000/svg" version="1.1" height="24px" width="24px" viewBox="0 0 100 100">
  <path style="fill:#fff;stroke:none;" d="m 65,3 0,19 19,0 z"/>
  <path style="fill:#EBEBDA;stroke:#777;stroke-width:2;" d="m 65,3 0,19 19,0 0,74 -72,0 0,-93 53,0 19,19"/>
  <path style="fill:#222" d="m 78,50 c -5,2 -7,10 -7,13 -1,5 5,4 8,-2 l 0,5 c -1,3 -8,8 -10,6 -5,-4 0,-14 2,-18 1,-3 4,-7 7,-7 z M 68,29 c -2,0 -3,0 -4,2 -3,6 -10,17 -14,34 -1,4 1,9 4,8 3,-1 8,-1 12,-12 2,-6 3,-14 0,-14 -4,0 -4,0 -4,0 z m -5,20 c 1,2 -3,13 -6,16 -2,3 -3,1 -2,-1 1,-2 5,-14 5,-14 1,-1 2,-1 3,-1 z M 43,57 C 39,49 33,45 28,48 c -3,2 -1,11 3,15 6,6 15,10 21,-2 l -2,-2 c -4,9 -11,8 -15,5 -5,-4 -8,-11 -6,-12 2,-1 5,3 6,5 z M 57,21 c -2,0 -9,7 -16,18 -8,13 -12,26 -14,28 -3,3 -5,3 -5,1 0,-2 2,-3 3,-4 2,-1 2,-4 -1,-5 -3,0 -4,1 -5,2 -2,4 0,13 4,12 4,-1 8,-9 12,-18 2,-3 13,-23 18,-29 -1,5 -14,29 -15,33 -3,8 -5,15 1,20 8,5 21,3 25,1 4,-2 7,2 8,4 0,-6 4,-4 7,-1 -1,-4 -1,-7 -11,-7 -8,0 -16,8 -24,-2 -3,-6 7,-32 8,-36 1,-3 7,-15 5,-17 z"/>
</svg>
