<?xml version="1.0" encoding="UTF-8"?>
<svg xmlns="http://www.w3.org/2000/svg" version="1.1" height="64px" width="64px" viewBox="0 0 100 100">
  <g style="stroke:#333333;stroke-width:2">
  <path style="fill:#C4C48B" d="m 3,16 94,0 0,68 -94,0 z"/>
  <path style="fill:#EAEAAB" d="m 4,16 34,33 c 7,7 15,7 23,0 L 96,16 z"/>
  <path style="fill:none" d="M 96,84 59,51 M 4,84 40,51"/>
  </g>
  <g transform="scale(0.4), translate(30,30)">
  <path style="fill:none;stroke:#646464;stroke-width:12;stroke-linecap:round" d="m 64,96 0,-48 a 32,32 0 0 1 64,0 l 0,104 a 24,24 0 0 1 -48,0 l 0,-64 a 16,16 0 0 1 32,0 l 0,32"/>
  </g>
</svg>
