<?xml version="1.0" encoding="UTF-8"?>
<svg xmlns="http://www.w3.org/2000/svg" version="1.1" height="22px" width="22px" viewBox="0 0 100 100">
  <path style="fill:#888888;" d="M 13,71 C 20,67 23,61 23,61 10,53 6.1,47 7,36 8,23 19,6 46,6 68,6 84,19 84,38 84,66 47,70 36,66 26,72 19,71 13,71 z"/>
  <path style="fill:#708E9C;" d="M 96,91 C 86,87 85,81 85,81 92,75 96,70 95,61 94,52 80,39 65,40 44,41 35,55 36,65 c 1,10 12,24 36,22 0,0 14,6 24,4 z"/>
  <path style="fill:none;stroke:#eeeeee;stroke-width:2.5" d="M 72,79 C 82,72 82,59 73,52"/>
  <circle cx="62" cy="58" r="3.5" style="fill:#eeeeee" />
  <circle cx="62" cy="72" r="3.5" style="fill:#eeeeee" />
</svg>
