<?xml version="1.0" encoding="UTF-8"?>
<svg xmlns="http://www.w3.org/2000/svg" version="1.1" height="22px" width="22px" viewBox="0 0 100 100">
  <path style="fill:#ffffff;stroke:none;" d="m 65,3 0,19 19,0 z"/>
  <path style="fill:#222222;stroke:#999999;stroke-width:2;" d="m 65,3 0,19 19,0 0,74 -72,0 0,-93 53,0 19,19"/>
  <path style="fill:#555555;stroke:#aaaaaa;stroke-width:1.5" d="m 13,49 8,0 2,-16 2,16 5,-34 1,34 4,-10 3,11 3,-7 1,6 5,-29 2,29 4,-15 2,16 5,-11 c 0,0 4,11 4,10 0,-1 3,-29 3,-29 l 3,29 2,-14 2,15 9,0 0,5 -9,0 L 72,70 70,57 67,83 64,57 60,65 55,54 53,70 49,55 47,85 42,55 41,61 38,55 35,65 31,55 30,90 25,53 23,73 21,55 13,55 z"/>
  <path style="fill:#CF9100;stroke:#333333;stroke-width:2;" d="M 25,68 85,5 c 0,0 5,1 8,4 3,3 4,8 4,8 L 38,80 22,84 z"/>
  <path style="fill:#eeeeee" d="M 85,9 28,69 30,71 87,11 z"/>
  <path style="fill:#555555" d="m 22,84 7,-2 -5,-5 z"/>
</svg>
