<?xml version="1.0" encoding="UTF-8"?>
<svg xmlns="http://www.w3.org/2000/svg" version="1.1" height="100" width="100">

  <path style="fill:none;stroke:#666666;stroke-width:6;" d="M 16,74 C -3,49 7,5 50,5 95,5 99,51 84,74"/>
  <path style="fill:none;stroke:#444444;stroke-width:5;" d="M 27,68 C 11,48 22,18 50,18 77,18 87,47 73,68"/>
  <path style="fill:none;stroke:#222222;stroke-width:4;" d="M 36,63 C 27,51 31,30 50,30 69,30 73,53 64,63"/>
  <path style="fill:#222222;" d="m 41,100 5,-40 c 0,0 -6,-1 -6,-9 0,-6 4,-10 10,-10 6,0 10,4 10,10 0,7 -5,9 -5,9 l 5,40 z"/>

</svg>
