<?xml version="1.0" encoding="UTF-8"?>
<svg xmlns="http://www.w3.org/2000/svg" version="1.1" height="22px" width="22px" viewBox="0 0 192 192">
  <circle cx="96" cy="96" r="88" style="fill:#5B4904;stroke:#222"/>
  <circle cx="96" cy="96" r="84" style="fill:#A8965D;stroke:#FFEF7C"/>
  <path style="fill:#5B4904" d="m 107,20 -14,0 0,7 a 64,37 0 0 0 0,73.5 l 0,45.5 a 50,23 0 0 1 -42,-18 l -7.3,14 a 64,37 0 0 0 49.3,18 l 0,7 14,0 0,-7 a 64,37 0 0 0 0,-73.5 l 0,-45.5 a 50,23 0 0 1 42,18 l 7.3,-14 a 64,37 0 0 0 -49.3,-18 z m -14,21 0,45.5 a 50,23 0 0 1 0,-45.5 z m 14,60.5 a 50,23 0 0 1 0,45.5 z"/>
  <path style="fill:#F2E9D2" d="m 103,25 -14,0 0,7 a 64,37 0 0 0 0,73.5 l 0,45.5 a 50,23 0 0 1 -42,-18 l -7.3,14 a 64,37 0 0 0 49.3,18 l 0,7 14,0 0,-7 a 64,37 0 0 0 0,-73.5 l 0,-45.5 a 50,23 0 0 1 42,18 l 7.3,-14 a 64,37 0 0 0 -49.3,-18 z m -14,21 0,45.5 a 50,23 0 0 1 0,-45.5 z m 14,60.5 a 50,23 0 0 1 0,45.5 z"/>
</svg>
