<?xml version="1.0" encoding="UTF-8"?>
<svg xmlns="http://www.w3.org/2000/svg" version="1.1" height="48px" width="48px" viewBox="0 0 100 100">
  <path style="fill:#E3E3BF;" d="m 19,4 62,0 q 5,0 5,5 l 0,82 q 0,5 -5,5 l -62,0 q -5,0 -5,-5 l 0,-82 q 0,-5 5,-5 z"/>
  <g style="stroke:#333;stroke-width:1;">
  <path style="fill:#EF4545;" d="m 18,30 0,-10 40,0 0,10 -4,-4 -13,0 0,44 4,4 -14,0 4,-4 0,-44 -13,0 -4,4 z" />
  <path style="fill:#666;" d="m 38,42 0,-10 40,0 0,10 -4,-4 -13,0 0,44 4,4 -14,0 4,-4 0,-44 -13,0 -4,4 z" />
  </g>
</svg>
