<?xml version="1.0" encoding="UTF-8"?>
<svg xmlns="http://www.w3.org/2000/svg" version="1.1" height="16px" width="16px" viewBox="0 0 100 100">
  <path style="fill:#E3E3BF;" d="m 19,4 62,0 q 5,0 5,5 l 0,82 q 0,5 -5,5 l -62,0 q -5,0 -5,-5 l 0,-82 q 0,-5 5,-5 z"/>
  <g style="fill:none;stroke:#000;stroke-width:2;">
  <path style="fill:#ccc;" d="m 21,25 18,0 0,60 -18,0 z" />
  <path d="m 40,25 18,0 0,60 -18,0 " />
  <path d="m 58,25 18,0 0,60 -18,0 " />
  </g>
  <path style="stroke:#000;stroke-width:3;" d="m 22,36 54,0" />
  <path style="fill:#1D7044;stroke:none;opacity:0.75;" d="m 25,30 20,20 -20,20 10,0 15,-15 15,15 10,0 -20,-20 20,-20 -10,0 -15,15 -15,-15" />
</svg>
