<?xml version="1.0" encoding="UTF-8"?>
<svg xmlns="http://www.w3.org/2000/svg" version="1.1" height="16px" width="16px" viewBox="0 0 100 100">
  <path style="fill:#E3E3BF;" d="m 19,4 62,0 q 5,0 5,5 l 0,82 q 0,5 -5,5 l -62,0 q -5,0 -5,-5 l 0,-82 q 0,-5 5,-5 z"/>
  <path fill="#333333" d="m 62,11 c -9,0 -19,3 -24,12 -3,5 -2,14 -2,21 0,0 -6,0 -8,0 0,14 0,28 0,41 1,9 10,15 18,15 13,0 26,0 39,0 5,-1 15,-7 15,-14 0,-15 -1,-27 -1,-42 -3,0 -5,0 -8,0 C 91,41 92,29 88,22 81,14 71,11 62,11 z m 21,21 c 0,4 0,8 0,11 -13,0 -26,0 -39,0 0,-5 0,-7 0,-12 0,-8 10,-13 19,-12 9,0 19,2 20,13 z M 63,54 c 8,0 10,10 4,15 1,3 3,14 4,18 -5,0 -11,0 -16,0 1,-6 3,-12 4,-18 -5,-5 -4,-14 4,-15 z"/>
</svg>
