<?xml version="1.0" encoding="UTF-8"?>
<svg xmlns="http://www.w3.org/2000/svg" version="1.1" height="48px" width="48px" viewBox="0 0 100 100">
  <path style="fill:#BEAF9B;stroke:none" d="m 10,30 80,0 q 5,0 5,5 l 0,55 q 0,5 -5,5 l -80,0 q -5,0 -5,-5 l 0,-55 q 0,-5 5,-5 z"/>
  <path style="fill:#666;fill-rule:evenodd;" d="m 50,30 -6,0 0,3 6,0 z m 0,3 6,0 0,3 -6,0 z m 0,3 -6,0 0,3 6,0 z m 0,3 6,0 0,3 -6,0 z m 0,3 -6,0 0,3 6,0 z m 0,3 6,0 0,3 -6,0 z m 0,3 -6,0 0,3 6,0 z m 0,3 6,0 0,3 -6,0 z
  m -17,14 a 8,12 1 1 0 0,16 l -3,-2 a 4.5,8 1 1 1 0,-12 z m 3,-4 0,24 4,0 0,-12 4,0 a 5,5 0 0 0 0,-12 z m 4,4 4,0 a 2,2 1 0 1 0,4 l -4,0 z m 13,-4 0,4 3,0 0,16 -3,0 0,4 10,0 0,-4 -3,0 0,-16 3,0 0,-4 z m 20,0 a 8,12 1 1 0 0.1,0 z m 0,4 a 4.5,8 1 1 1 -0.1,0 z"/>
</svg>
