<?xml version="1.0" encoding="UTF-8"?>
<svg xmlns="http://www.w3.org/2000/svg" version="1.1" height="48px" width="48px" viewBox="0 0 100 100">
  <path style="fill:#222222;stroke:#888888" d="M 92,25 92,82 59,99 9,82 10,25 59,36 z"/>
  <path style="fill:#888888;stroke:#222222;stroke-width:1" d="M 10,25 1,10 38,4 47,18 53,3 98,8 92,25 59,36 z"/>
  <path style="fill:#333333;stroke:#222222;stroke-width:1" d="M 10,25 47,18 92,25 59,36 z"/>
  <path style="fill:none;stroke:#444444;stroke-width:1.5" d="m 59,38 0,59"/>
  <path style="fill:#666666;stroke:none;" d="M 1,41 10,25 59,36 92,25 99,42 66,55 59,36 51,56 z"/>
  <path style="fill:#B1B091;stroke:none;" d="m 13,50 0,24 4,1.2 0,-24 z m 6,1.8 0,24 4,1.2 0,-16 6,17.8 4,1.2 0,-24 -4,-1.2 0,16 -6,-17.8 z m 16,4.8 0,24 4,1.2 0,-24 m 2,0.6 0,4 5,1.5 0,20 4,1.2 0,-20 5,1.5 0,-4 z"/>
</svg>
