<?xml version="1.0" encoding="UTF-8"?>
<svg xmlns="http://www.w3.org/2000/svg" version="1.1" height="48px" width="48px" viewBox="0 0 100 100">
  <path style="fill:#E3E3BF;" d="m 19,4 62,0 q 5,0 5,5 l 0,82 q 0,5 -5,5 l -62,0 q -5,0 -5,-5 l 0,-82 q 0,-5 5,-5 z"/>
  <g transform="scale(0.4) translate(22,30)">
  <path style="fill:none;stroke:#919191;stroke-width:6;" d="m 32,62 128,0 m -128,16 128,0 m -128,16 128,0 m -128,16 128,0 m -128,16 128,0" />
  <path style="fill:#3F51B5;" d="m 112,96 32,0 0,48 -16,-16 -16,16 z"/>
  <circle style="fill:#A8965D;" cx="128" cy="76" r="28"/>
  </g>
</svg>
