<?xml version="1.0" encoding="UTF-8"?>
<svg xmlns="http://www.w3.org/2000/svg" version="1.1" height="48px" width="48px" viewBox="0 0 100 100">
  <path style="fill:#ffffff;stroke:none;" d="m 65,3 0,19 19,0 z"/>
  <path style="fill:#EBEBDA;stroke:#777777;stroke-width:2;" d="m 65,3 0,19 19,0 0,74 -72,0 0,-93 53,0 19,19"/>
  <path style="fill:none;stroke:#444444;stroke-width:2px;" d="m 21,26 54,0 -54,0 z m 0,9 54,0 -54,0 z m 0,9 54,0 -54,0 z m 0,8 23,0 -23,0 z m 0,10 54,0 -54,0 z"/>
  <!--<path style="fill:#CF9100;stroke:#333333;stroke-width:2;" d="M 25,68 85,5 c 0,0 5,1 8,4 3,3 4,8 4,8 L 38,80 22,84 z"/>
  <path style="fill:#eeeeee" d="M 85,9 28,69 30,71 87,11 z"/>
  <path style="fill:#333333" d="m 22,84 7,-2 -5,-5 z"/>-->
</svg>
