<?xml version="1.0" encoding="UTF-8"?>
<svg xmlns="http://www.w3.org/2000/svg" version="1.1" height="48px" width="48px" viewBox="0 0 100 100">
  <path style="fill:#E3E3BF;" d="m 19,4 62,0 q 5,0 5,5 l 0,82 q 0,5 -5,5 l -62,0 q -5,0 -5,-5 l 0,-82 q 0,-5 5,-5 z"/>
  <ellipse cx="35" cy="80" rx="20" ry="8" style="stroke:#333333;stroke-width:2;fill:#FFFF00;fill-opacity:0.5"/>
  <path d="m 15,79 20,-50 20,50" style="stroke:#333333;stroke-width:2;fill:#FFFF00;fill-opacity:0.5"/>
  <path style="fill:#CF9100;" d="M 46,80 90,32 c 0,0 4,1 6,4 2,2 2,5 2,5 L 55,87 44,90 z"/>
  <path style="fill:#eeeeee" d="M 89,36 49,80 51,81 91,37 z"/>
  <path style="fill:#333333" d="m 44,90 4,-1 -3,-4 z"/>
</svg>
