#define iconify_width 12
#define iconify_height 12
static unsigned char iconify_bits[] = {
 0x00, 0x00, 0x00, 0x00, 0x00, 0x00, 0x00, 0x00, 0x00, 0x00, 0x00, 0x00,
 0x00, 0x00, 0x00, 0x00, 0xFF, 0x0F, 0xFF, 0x0F, 0xFF, 0x0F, 0x00, 0x00 };
