#define max_width 12
#define max_height 12
static unsigned char max_bits[] = {
 0xFF, 0x0F, 0xFF, 0x0F, 0x03, 0x0C, 0x03, 0x0C, 0x03, 0x0C, 0x03, 0x0C,
 0x03, 0x0C, 0x03, 0x0C, 0x03, 0x0C, 0xFF, 0x0F, 0xFF, 0x0F, 0xFF, 0x0F };
