#define menu_width 12
#define menu_height 12
static unsigned char menu_bits[] = {
 0x00, 0x00, 0x20, 0x00, 0x70, 0x00, 0x20, 0x00, 0x00, 0x00, 0x20, 0x00,
 0x70, 0x00, 0x20, 0x00, 0x00, 0x00, 0x20, 0x00, 0x70, 0x00, 0x20, 0x00 };
