<?xml version="1.0" encoding="UTF-8"?>
<svg xmlns="http://www.w3.org/2000/svg" version="1.1" height="22px" width="22px" viewBox="0 0 192 192">
  <g transform="scale(1.8) translate(3,3)">
  <ellipse cx="50" cy="50" rx="20" ry="20" style="fill:#188FD1"/>
  <path d="M 8.5,26 A 48,48 0 0 1 91.5,26 L 62,29.5 A 24,24 0 0 0 26,50 z" style="fill:#EA3939"/>
  <path d="M 50,98 A 48,48 0 0 1 8.5,26 L 26,50 A 24,24 0 0 0 62,70.5 z" style="fill:#4AAE48"/>
  <path d="M 91.5,26 A 48,48 0 0 1 50,98 L 62,70.5 A 24,24 0 0 0 62,29.5 z" style="fill:#FED14B"/>
  </g>
</svg>
