<?xml version="1.0" encoding="UTF-8"?>
<svg xmlns="http://www.w3.org/2000/svg" version="1.1" height="22px" width="22px" viewBox="0 0 192 192">
  <path style="fill:#EDEDED;stroke:#757575;stroke-width:6;" d="m 42,10 108,0 a 12 12 0 0 1 12,12  l 0,148 a 12,12 0 0 1 -12,12 l -108,0 a 12,12 0 0 1 -12,-12 l 0,-148 a 12,12 0 0 1 12,-12 z"/>
  <g transform="scale(1.92) translate(0,-10)">
  <path style="fill:none;stroke:#757575;stroke-width:5;" d="M 25,60 30,60 35,70 40,40 70,40 M 45,50 65,70 M 65,50 45,70"/>
  <path style="fill:none;stroke:#FFC107;stroke-width:2;" d="M 22,31 22,86 M 18,80 82,80 M 78,86 78,31 M 82,35 18,35"/>
  </g>
</svg>
