<?xml version="1.0" encoding="UTF-8"?>
<svg xmlns="http://www.w3.org/2000/svg" version="1.1" height="22px" width="22px" viewBox="0 0 192 192">
  <path style="fill:#EDEDED;stroke:#4CAF50;stroke-width:6;" d="m 42,10 108,0 a 12 12 0 0 1 12,12  l 0,148 a 12,12 0 0 1 -12,12 l -108,0 a 12,12 0 0 1 -12,-12 l 0,-148 a 12,12 0 0 1 12,-12 z"/>
  <g transform="scale(1.92) translate(0,-10)">
  <path d="M 25,40 75,40 75,80 25,80 z" style="fill:#4CAF50;fill-opacity:0.3;stroke:#4CAF50;stroke-width:3;" />
  <path d="M 25,50 75,50 M 25,57 75,57 M 25,64 75,64 M 25,71 75,71 M 42,40 42,80 M 61,40 61,80" style="fill:none;stroke:#4CAF50;stroke-width:1;" />
  </g>
</svg>
