<?xml version="1.0" encoding="UTF-8"?>
<svg xmlns="http://www.w3.org/2000/svg" version="1.1" height="22px" width="22px" viewBox="0 0 192 192">
  <path style="fill:#EDEDED;stroke:none;" d="m 32,20 128,0 a 12 12 0 0 1 12,12  l 0,128 a 12,12 0 0 1 -12,12 l -128,0 a 12,12 0 0 1 -12,-12 l 0,-128 a 12,12 0 0 1 12,-12 z"/>
  <path style="fill:none;stroke:#70BF73;stroke-width:6;" d="m 32,20 24,0 0,152 -24,0 a 12,12 0 0 1 -12,-12 l 0,-128 a 12,12 0 0 1 12,-12 z"/>
  <path style="fill:#70BF73;fill-opacity:0.4;stroke:#70BF73;stroke-width:6;" d="m 56,20 104,0 a 12 12 0 0 1 12,12  l 0,128 a 12,12 0 0 1 -12,12 l -104,0 z"/>
  <path style="stroke:#70BF73;stroke-width:6;fill:none;" d="m 20,48 152,0 z m 0,24 152,0 z m 0,24 152,0 z m 0,24 152,0 z m 0,24 152,0 z"/>
</svg>
