<?xml version="1.0" encoding="UTF-8"?>
<svg xmlns="http://www.w3.org/2000/svg" version="1.1" height="22px" width="22px" viewBox="0 0 192 192">
  <path style="fill:#4CAF50;stroke:#D5D5D5;stroke-width:6;" d="m 22,30 148,0 a 12 12 0 0 1 12,12  l 0,108 a 12,12 0 0 1 -12,12 l -148,0 a 12,12 0 0 1 -12,-12 l 0,-108 a 12,12 0 0 1 12,-12 z"/>
  <path style="fill:none;stroke:#FFEB3B;stroke-width:3;" d="m 13,96 48,0 3,-18 10,60 13,-39 2,12 3,-18 4,24 10,-60 5,30 6,-36 13,39 3,-18 13,39 2.5,-15 30.5,0"/>
</svg>
