<?xml version="1.0" encoding="UTF-8"?>
<svg xmlns="http://www.w3.org/2000/svg" version="1.1" height="22px" width="22px" viewBox="0 0 192 192">
  <path style="fill:#EDEDED;" d="m 22,30 128,0 a 12 12 0 0 1 12,12 l 0,88 a 12,12 0 0 1 -12,12 l -128,0 a 12,12 0 0 1 -12,-12 l 0,-88 a 12,12 0 0 1 12,-12 z"/>
  <path style="fill:#08A0B5;" d="m 22,30 128,0 a 12 12 0 0 1 12,12 l 0,6 -152,0 0,-6 a 12,12 0 0 1 12,-12 z"/>
  <path style="fill:none;stroke:#919191;stroke-width:6;" d="m 22,30 128,0 a 12 12 0 0 1 12,12 l 0,88 a 12,12 0 0 1 -12,12 l -128,0 a 12,12 0 0 1 -12,-12 l 0,-88 a 12,12 0 0 1 12,-12 z"/>
  <path style="fill:#EDEDED;" d="m 42,50 128,0 a 12 12 0 0 1 12,12 l 0,88 a 12,12 0 0 1 -12,12 l -128,0 a 12,12 0 0 1 -12,-12 l 0,-88 a 12,12 0 0 1 12,-12 z"/>
  <path style="fill:#08A0B5;" d="m 42,50 128,0 a 12 12 0 0 1 12,12 l 0,6 -152,0 0,-6 a 12,12 0 0 1 12,-12 z"/>
  <path style="fill:none;stroke:#919191;stroke-width:6;" d="m 42,50 128,0 a 12 12 0 0 1 12,12 l 0,88 a 12,12 0 0 1 -12,12 l -128,0 a 12,12 0 0 1 -12,-12 l 0,-88 a 12,12 0 0 1 12,-12 z"/>
</svg>
