<?xml version="1.0" encoding="UTF-8" standalone="no"?>
<!DOCTYPE svg PUBLIC "-//W3C//DTD SVG 1.0//EN" "http://www.w3.org/TR/2001/PR-SVG-20010719/DTD/svg10.dtd">
<svg width="60cm" height="23cm" viewBox="1 -274 1415 442" xmlns="http://www.w3.org/2000/svg" xmlns:xlink="http://www.w3.org/1999/xlink">
  <text font-size="12.8" style="fill: #000000;text-anchor:start;font-family:sans-serif;font-style:normal;font-weight:normal" x="1" y="-261">
    <tspan x="1" y="-261">2003</tspan>
  </text>
  <text font-size="12.8" style="fill: #000000;text-anchor:start;font-family:sans-serif;font-style:normal;font-weight:normal" x="69" y="-208">
    <tspan x="69" y="-208"></tspan>
  </text>
  <text font-size="12.8" style="fill: #000000;text-anchor:start;font-family:sans-serif;font-style:normal;font-weight:normal" x="99" y="-261">
    <tspan x="99" y="-261">2004</tspan>
  </text>
  <text font-size="12.8" style="fill: #000000;text-anchor:start;font-family:sans-serif;font-style:normal;font-weight:normal" x="200.758" y="-260.856">
    <tspan x="200.758" y="-260.856">2005</tspan>
  </text>
  <text font-size="12.8" style="fill: #000000;text-anchor:start;font-family:sans-serif;font-style:normal;font-weight:normal" x="300.46" y="-261.21">
    <tspan x="300.46" y="-261.21">2006</tspan>
  </text>
  <text font-size="12.8" style="fill: #000000;text-anchor:start;font-family:sans-serif;font-style:normal;font-weight:normal" x="400.516" y="-260.856">
    <tspan x="400.516" y="-260.856">2007</tspan>
  </text>
  <text font-size="12.8" style="fill: #000000;text-anchor:start;font-family:sans-serif;font-style:normal;font-weight:normal" x="501.102" y="-260.856">
    <tspan x="501.102" y="-260.856">2008</tspan>
  </text>
  <text font-size="12.8" style="fill: #000000;text-anchor:start;font-family:sans-serif;font-style:normal;font-weight:normal" x="600.804" y="-260.856">
    <tspan x="600.804" y="-260.856">2009</tspan>
  </text>
  <text font-size="12.8" style="fill: #000000;text-anchor:start;font-family:sans-serif;font-style:normal;font-weight:normal" x="700.152" y="-260.502">
    <tspan x="700.152" y="-260.502">2010</tspan>
  </text>
  <text font-size="12.8" style="fill: #000000;text-anchor:start;font-family:sans-serif;font-style:normal;font-weight:normal" x="800.64" y="-260.502">
    <tspan x="800.64" y="-260.502">2011</tspan>
  </text>
  <text font-size="12.8" style="fill: #000000;text-anchor:start;font-family:sans-serif;font-style:normal;font-weight:normal" x="900.694" y="-260.502">
    <tspan x="900.694" y="-260.502">2012</tspan>
  </text>
  <text font-size="12.8" style="fill: #000000;text-anchor:start;font-family:sans-serif;font-style:normal;font-weight:normal" x="1001" y="-261">
    <tspan x="1001" y="-261">2013</tspan>
  </text>
  <text font-size="12.8" style="fill: #000000;text-anchor:start;font-family:sans-serif;font-style:normal;font-weight:normal" x="1101" y="-261">
    <tspan x="1101" y="-261">2014</tspan>
  </text>
  <text font-size="12.8" style="fill: #000000;text-anchor:start;font-family:sans-serif;font-style:normal;font-weight:normal" x="1200" y="-261">
    <tspan x="1200" y="-261">2015</tspan>
  </text>
  <text font-size="12.8" style="fill: #000000;text-anchor:start;font-family:sans-serif;font-style:normal;font-weight:normal" x="1300.74" y="-261.21">
    <tspan x="1300.74" y="-261.21">2016</tspan>
  </text>
  <line style="fill: none; fill-opacity:0; stroke-width: 6; stroke: #ffa500" x1="536.55" y1="-18.07" x2="699.938" y2="-18.445"/>
  <line style="fill: none; fill-opacity:0; stroke-width: 6; stroke: #0000ff" x1="491.426" y1="-18.195" x2="536.8" y2="-18.07"/>
  <line style="fill: none; fill-opacity:0; stroke-width: 6; stroke: #ffa500" x1="360.174" y1="-18.1325" x2="491.32" y2="-18.1325"/>
  <line style="fill: none; fill-opacity:0; stroke-width: 6; stroke: #008000" x1="223.52" y1="-18.125" x2="360.144" y2="-18.125"/>
  <text font-size="12.8" style="fill: #000000;text-anchor:start;font-family:sans-serif;font-style:normal;font-weight:normal" x="59.5132" y="-24.8594">
    <tspan x="59.5132" y="-24.8594">0.1</tspan>
  </text>
  <text font-size="12.8" style="fill: #000000;text-anchor:start;font-family:sans-serif;font-style:normal;font-weight:normal" x="223.032" y="-24.8594">
    <tspan x="223.032" y="-24.8594">1.0</tspan>
  </text>
  <text font-size="12.8" style="fill: #000000;text-anchor:start;font-family:sans-serif;font-style:normal;font-weight:normal" x="359.88" y="-24.6826">
    <tspan x="359.88" y="-24.6826">2.0</tspan>
  </text>
  <text font-size="12.8" style="fill: #000000;text-anchor:start;font-family:sans-serif;font-style:normal;font-weight:normal" x="491.936" y="-24.8596">
    <tspan x="491.936" y="-24.8596">3.0</tspan>
  </text>
  <text font-size="12.8" style="fill: #000000;text-anchor:start;font-family:sans-serif;font-style:normal;font-weight:normal" x="536.31" y="-24.6828">
    <tspan x="536.31" y="-24.6828">4.0</tspan>
  </text>
  <text font-size="12.8" style="fill: #000000;text-anchor:start;font-family:sans-serif;font-style:normal;font-weight:normal" x="641.666" y="-24.8594">
    <tspan x="641.666" y="-24.8594">4.2</tspan>
  </text>
  <text font-size="12.8" style="fill: #000000;text-anchor:start;font-family:sans-serif;font-style:normal;font-weight:normal" x="702.832" y="-24.6826">
    <tspan x="702.832" y="-24.6826">4.3</tspan>
  </text>
  <line style="fill: none; fill-opacity:0; stroke-width: 6; stroke-dasharray: 4; stroke: #800080" x1="697.16" y1="-22.9716" x2="759.38" y2="-129.568"/>
  <line style="fill: none; fill-opacity:0; stroke-width: 6; stroke: #800080" x1="756.198" y1="-126.74" x2="859.076" y2="-126.86"/>
  <text font-size="12.8" style="fill: #000000;text-anchor:start;font-family:sans-serif;font-style:normal;font-weight:normal" x="756.9" y="-135.168">
    <tspan x="756.9" y="-135.168">5.0</tspan>
  </text>
  <text font-size="12.8" style="fill: #000000;text-anchor:start;font-family:sans-serif;font-style:normal;font-weight:normal" x="854.634" y="-134.638">
    <tspan x="854.634" y="-134.638">5.2.5</tspan>
  </text>
  <line style="fill: none; fill-opacity:0; stroke-width: 6; stroke-dasharray: 4; stroke: #7f7f7f" x1="697.338" y1="-14.8399" x2="767.63" y2="164.677"/>
  <text font-size="12.8" style="fill: #000000;text-anchor:start;font-family:sans-serif;font-style:normal;font-weight:normal" x="768.464" y="154.837">
    <tspan x="768.464" y="154.837">1.0</tspan>
  </text>
  <line style="fill: none; fill-opacity:0; stroke-width: 6; stroke: #7f7f7f" x1="765.258" y1="162.743" x2="1302.23" y2="162.701"/>
  <g>
    <line style="fill: none; fill-opacity:0; stroke-width: 6; stroke-dasharray: 4; stroke: #ffa500" x1="701.312" y1="-18.32" x2="736.946" y2="-18.4296"/>
    <path style="fill: #ffa500" d="M 741.946 -18.445 C 741.952,-16.445 739.958,-14.4388 737.958,-14.4327 C 735.958,-14.4265 733.952,-16.4204 733.946,-18.4204 C 733.94,-20.4204 735.934,-22.4265 737.934,-22.4327 C 739.934,-22.4388 741.94,-20.445 741.946,-18.445z"/>
    <line style="fill: none; fill-opacity:0; stroke-width: 6; stroke: #ffa500" x1="739.431" y1="-23.4373" x2="739.461" y2="-13.4373"/>
  </g>
  <text font-size="12.8" style="fill: #000000;text-anchor:start;font-family:sans-serif;font-style:normal;font-weight:normal" x="741.67" y="-24.6828">
    <tspan x="741.67" y="-24.6828">4.3.2</tspan>
  </text>
  <line style="fill: none; fill-opacity:0; stroke-width: 6; stroke-dasharray: 4; stroke: #0000ff" x1="721.63" y1="-18.3825" x2="879.236" y2="-217.956"/>
  <line style="fill: none; fill-opacity:0; stroke-width: 6; stroke: #0000ff" x1="877.114" y1="-216.542" x2="1090.27" y2="-216.632"/>
  <text font-size="12.8" style="fill: #000000;text-anchor:start;font-family:sans-serif;font-style:normal;font-weight:normal" x="878.852" y="-225.148">
    <tspan x="878.852" y="-225.148">5.3.0</tspan>
  </text>
  <line style="fill: none; fill-opacity:0; stroke-width: 6; stroke-dasharray: 20 8 4 8; stroke: #800080" x1="858.168" y1="-126.86" x2="1262.07" y2="-126.82"/>
  <text font-size="12.8" style="fill: #000000;text-anchor:start;font-family:sans-serif;font-style:normal;font-weight:normal" x="900.418" y="-134.814">
    <tspan x="900.418" y="-134.814">5.2.8</tspan>
  </text>
  <line style="fill: none; fill-opacity:0; stroke-width: 6; stroke-dasharray: 12 2.4 2.4 2.4 2.4 2.4; stroke: #0000ff" x1="1089.27" y1="-216.632" x2="1412" y2="-216.542"/>
  <text font-size="12.8" style="fill: #000000;text-anchor:start;font-family:sans-serif;font-style:normal;font-weight:normal" x="1194.23" y="-225.148">
    <tspan x="1194.23" y="-225.148">5.7.0</tspan>
  </text>
  <text font-size="12.8" style="fill: #000000;text-anchor:start;font-family:sans-serif;font-style:normal;font-weight:normal" x="1289.69" y="-225.148">
    <tspan x="1289.69" y="-225.148">6.3.0</tspan>
  </text>
  <line style="fill: none; fill-opacity:0; stroke-width: 6; stroke-dasharray: 4; stroke: #800080" x1="1144.73" y1="-125.445" x2="1229.89" y2="-41.3564"/>
  <line style="fill: none; fill-opacity:0; stroke-width: 6; stroke-dasharray: 10 2 2 2 2 2; stroke: #800080" x1="1226.76" y1="-43.421" x2="1412.02" y2="-43.421"/>
  <text font-size="12.8" style="fill: #000000;text-anchor:start;font-family:sans-serif;font-style:normal;font-weight:normal" x="1227.64" y="-51.3758">
    <tspan x="1227.64" y="-51.3758">6.0</tspan>
  </text>
  <text font-size="12.8" style="fill: #000000;text-anchor:start;font-family:sans-serif;font-style:normal;font-weight:normal" x="1303.83" y="-236.462">
    <tspan x="1303.83" y="-236.462"></tspan>
  </text>
  <text font-size="12.8" style="fill: #000000;text-anchor:start;font-family:sans-serif;font-style:normal;font-weight:normal" x="1301.71" y="-51.7296">
    <tspan x="1301.71" y="-51.7296">6.0.5</tspan>
  </text>
  <text font-size="12.8" style="fill: #000000;text-anchor:start;font-family:sans-serif;font-style:normal;font-weight:normal" x="986.344" y="-224.97">
    <tspan x="986.344" y="-224.97">Slacko</tspan>
  </text>
  <text font-size="12.8" style="fill: #000000;text-anchor:start;font-family:sans-serif;font-style:normal;font-weight:normal" x="982.632" y="-134.815">
    <tspan x="982.632" y="-134.815">Lupu</tspan>
  </text>
  <text font-size="12.8" style="fill: #000000;text-anchor:start;font-family:sans-serif;font-style:normal;font-weight:normal" x="1342.86" y="-50.376">
    <tspan x="1342.86" y="-50.376">Tahrpup</tspan>
  </text>
  <text font-size="12.8" style="fill: #000000;text-anchor:start;font-family:sans-serif;font-style:normal;font-weight:normal" x="116.801" y="-25.7434">
    <tspan x="116.801" y="-25.7434">Puppy</tspan>
  </text>
  <text font-size="17.7687" style="fill: #000000;text-anchor:start;font-family:sans-serif;font-style:normal;font-weight:normal" x="94.338" y="-204.642">
    <tspan x="94.338" y="-204.642">Puppy Linux Timeline</tspan>
  </text>
  <line style="fill: none; fill-opacity:0; stroke-width: 6; stroke-dasharray: 4; stroke: #800080" x1="882.156" y1="7.0655" x2="990.156" y2="81.5656"/>
  <g>
    <line style="fill: none; fill-opacity:0; stroke-width: 6; stroke: #800080" x1="990.228" y1="81.4752" x2="1074.77" y2="81.5923"/>
    <path style="fill: #800080" d="M 1079.77 81.5992 C 1079.77,83.5992 1077.76,85.5964 1075.76,85.5937 C 1073.76,85.5909 1071.77,83.5881 1071.77,81.5881 C 1071.77,79.5881 1073.78,77.5909 1075.78,77.5937 C 1077.78,77.5964 1079.77,79.5992 1079.77,81.5992z"/>
    <line style="fill: none; fill-opacity:0; stroke-width: 6; stroke: #800080" x1="1077.28" y1="76.5957" x2="1077.26" y2="86.5957"/>
  </g>
  <text font-size="12.8" style="fill: #000000;text-anchor:start;font-family:sans-serif;font-style:normal;font-weight:normal" x="990.192" y="75.0402">
    <tspan x="990.192" y="75.0402">5.4</tspan>
  </text>
  <text font-size="12.8" style="fill: #000000;text-anchor:start;font-family:sans-serif;font-style:normal;font-weight:normal" x="1079.94" y="75.3332">
    <tspan x="1079.94" y="75.3332">5.7.1</tspan>
  </text>
  <text font-size="12.8" style="fill: #000000;text-anchor:start;font-family:sans-serif;font-style:normal;font-weight:normal" x="1020.48" y="75.0402">
    <tspan x="1020.48" y="75.0402">Precise</tspan>
  </text>
  <line style="fill: none; fill-opacity:0; stroke-width: 6; stroke: #800080" x1="1285.68" y1="104.182" x2="1314.21" y2="104.18"/>
  <line style="fill: none; fill-opacity:0; stroke-width: 6; stroke-dasharray: 4; stroke: #800080" x1="1255.98" y1="160.165" x2="1285.68" y2="102.536"/>
  <text font-size="12.8" style="fill: #000000;text-anchor:start;font-family:sans-serif;font-style:normal;font-weight:normal" x="1281.96" y="95.172">
    <tspan x="1281.96" y="95.172">7.3</tspan>
  </text>
  <text font-size="12.8" style="fill: #000000;text-anchor:start;font-family:sans-serif;font-style:normal;font-weight:normal" x="1313.68" y="95.288">
    <tspan x="1313.68" y="95.288">7.4</tspan>
  </text>
  <text font-size="12.8" style="fill: #000000;text-anchor:start;font-family:sans-serif;font-style:normal;font-weight:normal" x="1161.43" y="96.3488">
    <tspan x="1161.43" y="96.3488">Quirky Werewolf</tspan>
  </text>
  <text font-size="12.8" style="fill: #000000;text-anchor:start;font-family:sans-serif;font-style:normal;font-weight:normal" x="1225.38" y="155.056">
    <tspan x="1225.38" y="155.056">7.0</tspan>
  </text>
  <text font-size="12.8" style="fill: #000000;text-anchor:start;font-family:sans-serif;font-style:normal;font-weight:normal" x="946.53" y="155.38">
    <tspan x="946.53" y="155.38">Quirky</tspan>
  </text>
  <g>
    <line style="fill: none; fill-opacity:0; stroke-width: 2; stroke: #000000" x1="1108.43" y1="-101.814" x2="1102.4" y2="-197.045"/>
    <polygon style="fill: #000000" points="1101.93,-204.53 1107.55,-194.867 1102.4,-197.045 1097.57,-194.234 "/>
    <polygon style="fill: none; fill-opacity:0; stroke-width: 2; stroke: #000000" points="1101.93,-204.53 1107.55,-194.867 1102.4,-197.045 1097.57,-194.234 "/>
  </g>
  <text font-size="12.8" style="fill: #000000;text-anchor:start;font-family:sans-serif;font-style:normal;font-weight:normal" x="1093.95" y="-87.357">
    <tspan x="1093.95" y="-87.357">Woof-CE</tspan>
  </text>
  <g>
    <line style="fill: none; fill-opacity:0; stroke-width: 2; stroke: #000000" x1="654.892" y1="-97.5146" x2="689.196" y2="-33.271"/>
    <polygon style="fill: #000000" points="692.729,-26.6551 683.608,-33.1212 689.196,-33.271 692.429,-37.8314 "/>
    <polygon style="fill: none; fill-opacity:0; stroke-width: 2; stroke: #000000" points="692.729,-26.6551 683.608,-33.1212 689.196,-33.271 692.429,-37.8314 "/>
  </g>
  <text font-size="12.8" style="fill: #000000;text-anchor:start;font-family:sans-serif;font-style:normal;font-weight:normal" x="545.998" y="-107.414">
    <tspan x="545.998" y="-107.414">From Unleashed to Woof</tspan>
  </text>
  <text font-size="16.3012" style="fill: #000000;text-anchor:start;font-family:sans-serif;font-style:normal;font-weight:normal" x="77.5" y="4.3874">
    <tspan x="77.5" y="4.3874">Legend</tspan>
  </text>
  <line style="fill: none; fill-opacity:0; stroke-width: 6; stroke-dasharray: 4; stroke: #000000" x1="78.0744" y1="16.7426" x2="97" y2="16.7624"/>
  <text font-size="11.334" style="fill: #000000;text-anchor:start;font-family:sans-serif;font-style:normal;font-weight:normal" x="105.03" y="20.0428">
    <tspan x="105.03" y="20.0428">Development</tspan>
  </text>
  <line style="fill: none; fill-opacity:0; stroke-width: 6; stroke: #000000" x1="78.5" y1="32.2624" x2="96" y2="32.2624"/>
  <text font-size="11.334" style="fill: #000000;text-anchor:start;font-family:sans-serif;font-style:normal;font-weight:normal" x="105.384" y="35.616">
    <tspan x="105.384" y="35.616">Stable</tspan>
  </text>
  <line style="fill: none; fill-opacity:0; stroke-width: 6; stroke-dasharray: 6 2.4 1.2 2.4; stroke: #000000" x1="78.0744" y1="64.055" x2="96.3244" y2="63.93"/>
  <text font-size="11.334" style="fill: #000000;text-anchor:start;font-family:sans-serif;font-style:normal;font-weight:normal" x="105.161" y="67.991">
    <tspan x="105.161" y="67.991">Maintained by commumity</tspan>
  </text>
  <line style="fill: none; fill-opacity:0; stroke-width: 6; stroke: #800080" x1="78.0744" y1="80.055" x2="95.9494" y2="80.18"/>
  <text font-size="11.334" style="fill: #000000;text-anchor:start;font-family:sans-serif;font-style:normal;font-weight:normal" x="104.954" y="84.3874">
    <tspan x="104.954" y="84.3874">Ubuntu Binary Compatibility</tspan>
  </text>
  <line style="fill: none; fill-opacity:0; stroke-width: 6; stroke: #0000ff" x1="77.8976" y1="96.2746" x2="95.7726" y2="96.2746"/>
  <text font-size="11.334" style="fill: #000000;text-anchor:start;font-family:sans-serif;font-style:normal;font-weight:normal" x="105.777" y="99.9178">
    <tspan x="105.777" y="99.9178">Slackware Binary Compatibility</tspan>
  </text>
  <line style="fill: none; fill-opacity:0; stroke-width: 6; stroke: #ffa500" x1="77.9494" y1="112.243" x2="95.9494" y2="112.118"/>
  <text font-size="11.334" style="fill: #000000;text-anchor:start;font-family:sans-serif;font-style:normal;font-weight:normal" x="105.812" y="116.211">
    <tspan x="105.812" y="116.211">T2 Binary Compatibility</tspan>
  </text>
  <line style="fill: none; fill-opacity:0; stroke-width: 6; stroke: #008000" x1="77.9494" y1="127.555" x2="95.9494" y2="127.555"/>
  <text font-size="11.334" style="fill: #000000;text-anchor:start;font-family:sans-serif;font-style:normal;font-weight:normal" x="105.439" y="131.461">
    <tspan x="105.439" y="131.461">Early stage limited Vector Linux Compatibility</tspan>
  </text>
  <line style="fill: none; fill-opacity:0; stroke-width: 6; stroke-dasharray: 4; stroke: #008000" x1="60.0102" y1="-18.25" x2="226.218" y2="-18.125"/>
  <text font-size="12.8" style="fill: #000000;text-anchor:start;font-family:sans-serif;font-style:normal;font-weight:normal" x="1339.36" y="-147.25">
    <tspan x="1339.36" y="-147.25">64 bit</tspan>
    <tspan x="1339.36" y="-131.25">Support</tspan>
    <tspan x="1339.36" y="-115.25">Added</tspan>
  </text>
  <g>
    <line style="fill: none; fill-opacity:0; stroke-width: 2; stroke: #000000" x1="1327.36" y1="-118.25" x2="1297.13" y2="-190.273"/>
    <polygon style="fill: #000000" points="1294.22,-197.188 1302.7,-189.903 1297.13,-190.273 1293.48,-186.032 "/>
    <polygon style="fill: none; fill-opacity:0; stroke-width: 2; stroke: #000000" points="1294.22,-197.188 1302.7,-189.903 1297.13,-190.273 1293.48,-186.032 "/>
  </g>
  <g>
    <line style="fill: none; fill-opacity:0; stroke-width: 2; stroke: #000000" x1="1327.11" y1="-118.608" x2="1315.31" y2="-81.5274"/>
    <polygon style="fill: #000000" points="1313.04,-74.3807 1311.3,-85.4262 1315.31,-81.5274 1320.83,-82.3931 "/>
    <polygon style="fill: none; fill-opacity:0; stroke-width: 2; stroke: #000000" points="1313.04,-74.3807 1311.3,-85.4262 1315.31,-81.5274 1320.83,-82.3931 "/>
  </g>
  <g>
    <line style="fill: none; fill-opacity:0; stroke-width: 2; stroke: #000000" x1="1335.65" y1="40.4912" x2="1315.21" y2="68.6731"/>
    <polygon style="fill: #000000" points="1310.8,74.7437 1312.63,63.7134 1315.21,68.6731 1320.72,69.5858 "/>
    <polygon style="fill: none; fill-opacity:0; stroke-width: 2; stroke: #000000" points="1310.8,74.7437 1312.63,63.7134 1315.21,68.6731 1320.72,69.5858 "/>
  </g>
  <text font-size="12.8" style="fill: #000000;text-anchor:start;font-family:sans-serif;font-style:normal;font-weight:normal" x="1339.36" y="38.75">
    <tspan x="1339.36" y="38.75">64 bit</tspan>
  </text>
  <g>
    <line style="fill: none; fill-opacity:0; stroke-width: 2; stroke: #000000" x1="1108" y1="-102" x2="1130.13" y2="-111.993"/>
    <polygon style="fill: #000000" points="1136.96,-115.08 1129.91,-106.407 1130.13,-111.993 1125.79,-115.521 "/>
    <polygon style="fill: none; fill-opacity:0; stroke-width: 2; stroke: #000000" points="1136.96,-115.08 1129.91,-106.407 1130.13,-111.993 1125.79,-115.521 "/>
  </g>
  <line style="fill: none; fill-opacity:0; stroke-width: 6; stroke-dasharray: 4; stroke: #ffa500" x1="702.11" y1="-18.1987" x2="825.744" y2="3.89"/>
  <g>
    <line style="fill: none; fill-opacity:0; stroke-width: 6; stroke: #ffa500" x1="825" y1="3.89" x2="1034" y2="3.89"/>
    <path style="fill: #ffa500" d="M 1039 3.89 C 1039,5.89 1037,7.89 1035,7.89 C 1033,7.89 1031,5.89 1031,3.89 C 1031,1.89 1033,-0.11 1035,-0.11 C 1037,-0.11 1039,1.89 1039,3.89z"/>
    <line style="fill: none; fill-opacity:0; stroke-width: 6; stroke: #ffa500" x1="1036.5" y1="-1.11" x2="1036.5" y2="8.89"/>
  </g>
  <line style="fill: none; fill-opacity:0; stroke-width: 6; stroke-dasharray: 4; stroke: #ffa500" x1="859.482" y1="3.4405" x2="896.382" y2="-46.3946"/>
  <g>
    <line style="fill: none; fill-opacity:0; stroke-width: 6; stroke: #ffa500" x1="894" y1="-45.11" x2="1034.09" y2="-44.9405"/>
    <path style="fill: #ffa500" d="M 1039.09 -44.9344 C 1039.09,-42.9344 1037.09,-40.9368 1035.09,-40.9392 C 1033.09,-40.9417 1031.09,-42.9441 1031.09,-44.9441 C 1031.1,-46.9441 1033.1,-48.9417 1035.1,-48.9392 C 1037.1,-48.9368 1039.1,-46.9344 1039.09,-44.9344z"/>
    <line style="fill: none; fill-opacity:0; stroke-width: 6; stroke: #ffa500" x1="1036.6" y1="-49.9374" x2="1036.59" y2="-39.9374"/>
  </g>
  <text font-size="12.8" style="fill: #000000;text-anchor:start;font-family:sans-serif;font-style:normal;font-weight:normal" x="894.082" y="-52.9168">
    <tspan x="894.082" y="-52.9168">5.2.2</tspan>
  </text>
  <text font-size="12.8" style="fill: #000000;text-anchor:start;font-family:sans-serif;font-style:normal;font-weight:normal" x="1039.05" y="-52.9168">
    <tspan x="1039.05" y="-52.9168">5.5</tspan>
  </text>
  <text font-size="12.8" style="fill: #000000;text-anchor:start;font-family:sans-serif;font-style:normal;font-weight:normal" x="957.582" y="-52.74">
    <tspan x="957.582" y="-52.74">Racy</tspan>
  </text>
  <text font-size="12.8" style="fill: #000000;text-anchor:start;font-family:sans-serif;font-style:normal;font-weight:normal" x="825.462" y="-4.0987">
    <tspan x="825.462" y="-4.0987">5.1.1</tspan>
  </text>
  <text font-size="12.8" style="fill: #000000;text-anchor:start;font-family:sans-serif;font-style:normal;font-weight:normal" x="1039.11" y="-4.24516">
    <tspan x="1039.11" y="-4.24516">5.5</tspan>
  </text>
  <text font-size="12.8" style="fill: #000000;text-anchor:start;font-family:sans-serif;font-style:normal;font-weight:normal" x="959.436" y="-3.65416">
    <tspan x="959.436" y="-3.65416">Wary</tspan>
  </text>
  <text font-size="12.8" style="fill: #000000;text-anchor:start;font-family:sans-serif;font-style:normal;font-weight:normal" x="1105.67" y="155.106">
    <tspan x="1105.67" y="155.106">6.0</tspan>
  </text>
  <text font-size="12.8" style="fill: #000000;text-anchor:start;font-family:sans-serif;font-style:normal;font-weight:normal" x="1301.23" y="154.754">
    <tspan x="1301.23" y="154.754">7.2.1</tspan>
  </text>
  <line style="fill: none; fill-opacity:0; stroke-width: 6; stroke: #7f7f7f" x1="78.2934" y1="144.04" x2="96.1478" y2="144.04"/>
  <text font-size="11.334" style="fill: #000000;text-anchor:start;font-family:sans-serif;font-style:normal;font-weight:normal" x="105.901" y="147.856">
    <tspan x="105.901" y="147.856">T2 Binary Compatibility (Quirky)</tspan>
  </text>
  <line style="fill: none; fill-opacity:0; stroke-width: 6; stroke-dasharray: 8 1.6 1.6 1.6 1.6 1.6; stroke: #000000" x1="78.75" y1="48.125" x2="96.25" y2="48.125"/>
  <text font-size="11.3339" style="fill: #000000;text-anchor:start;font-family:sans-serif;font-style:normal;font-weight:normal" x="105.75" y="51.625">
    <tspan x="105.75" y="51.625">Built with Woof-CE (Stable)</tspan>
  </text>
</svg>
