<?xml version="1.0" encoding="UTF-8"?>
<svg xmlns="http://www.w3.org/2000/svg" version="1.1" height="256px" width="256px" viewBox="0 0 100 100">
  <path style="fill:#35728E;" d="m 34,5 a 32,32 0 1 0 0.1,0 z"/>
  <path style="fill:none;stroke:#ddd;stroke-width:1;stroke-linecap:butt;" d="m 34,5 0,64 a 37.33,37.33 0 0 1 0,-64 a 37.33,37.33 0 0 1 0,64 m -32,-32 64,0 m -8,-21.33 a 42.66,42.66 0 0 1 -48,0 m 0,42.66 a 42.66,42.66 0 0 1 48,0"/>
  <path style="fill:#E3E3BF;" d="m 42,22 45,0 q 4,0 4,4 l 0,67 q 0,4 -4,4 l -45,0 q -4,0 -4,-4 l 0,-67 q 0,-4 4,-4 z"/>
  <path style="fill:none;stroke:#444444;stroke-width:2px;" d="m 43,47 40,0 -40,0 z m 0,7 40,0 -40,0 z m 0,5 40,0 -40,0 z m 0,7 17,0 -17,0 z m 0,9 40,0 -40,0 z"/>
  <path style="fill:#CF9100" d="M 46,80 90,32 c 0,0 4,1 6,4 2,2 2,5 2,5 L 55,87 44,90 z"/>
  <path style="fill:#eeeeee" d="M 89,36 49,80 51,81 91,37 z"/>
  <path style="fill:#333333" d="m 44,90 4,-1 -3,-4 z"/>
</svg>
