<?xml version="1.0" encoding="UTF-8"?>
<svg xmlns="http://www.w3.org/2000/svg" version="1.1" height="256px" width="256px" viewBox="0 0 100 100">
  <path style="fill:none;stroke:#aaaaaa;stroke-width:4.5;" d="M 9,33 C 4,19 15,6 28,8 49,11 61,10 71,8 85,6 95,16 92,28 89,38 89,61 92,71 95,83 86,94 71,92 61,89 41,90 30,92 17,95 4,83 8,70"/>
  <path style="fill:none;stroke:#533100;stroke-width:4;" d="M 9,29 C 7,20 15,7 28,9 49,12 61,11 71,9 83,7 94,17 91,28 88,38 88,61 91,71 94,80 86,93 71,91 61,93 39,92 30,91 17,94 6,81 9,71"/>
  <path style="fill:#E70000;stroke:#e70000" d="M 50 4.6 C 39 4.5 29 9 19 18 C 0 36 0 65 18 81 C 40 100 63 100 81 82 C 100 63 100 36 82 19 C 71 9.5 60 4.8 50 4.6 z M 50 28 C 55 28 61 30 65 35 C 73 44 73 57 65 65 C 59 71 45 75 35 66 C 25 57 27 42 34 35 C 38 30 44 28 50 28 z "/>
  <path style="fill:#ffffff;stroke:#555555" d="M 31,61 11,71 C 11,71 6,74 5,67 1,53 1,47 6,33 7,28 9.1,29 12,30 l 19,9 c 0,0 -3,4 -3,11 0,7 3,11 3,11 z m 30,7 10,21 c 0,0 2,4 -4,6 -14,4 -19,4 -33,0 -5,-1 -5,-4 -4,-7 l 9,-19 c 0,0 4,2 11,2 7,0 11,-3 11,-3 z M 68,39 89,29 c 0,0 5,-3 7,4 4,14 3,21 -2,35 -1,4 -4,4 -7,2 L 68,61 c 0,0 3,-5 3,-11 0,-5 -3,-11 -3,-11 z M 39,31 29,11 c 0,0 -3,-4 4,-6 14,-4 20,-4 34,0 5,1.4 4,3.1 3,6 l -9,20 c 0,0 -4,-3 -11,-3 -7,0 -11,3 -11,3 z"/>
</svg>
