<?xml version="1.0" encoding="UTF-8"?>
<svg xmlns="http://www.w3.org/2000/svg" version="1.1" height="256px" width="256px" viewBox="0 0 192 192">
  <path style="fill:#EDEDED;stroke:#545454;stroke-width:6;" d="m 42,10 108,0 a 12 12 0 0 1 12,12  l 0,148 a 12,12 0 0 1 -12,12 l -108,0 a 12,12 0 0 1 -12,-12 l 0,-148 a 12,12 0 0 1 12,-12 z m 6,48 96,0 m -96,24 96,0 m -96,24 96,0 m -96,24 56,0"/>
  <path style="fill:#3E3AF3;stroke:none;fill-opacity:0.5;" d="m 44,40 104,0 0,88 -30,0 0,16 -74,0 z"/>
</svg>
