<?xml version="1.0" encoding="UTF-8"?>
<svg xmlns="http://www.w3.org/2000/svg" version="1.1" height="256px" width="256px" viewBox="0 0 192 192">
  <path style="fill:#EDEDED;stroke:#545454;stroke-width:6;" d="m 42,10 108,0 a 12 12 0 0 1 12,12  l 0,148 a 12,12 0 0 1 -12,12 l -108,0 a 12,12 0 0 1 -12,-12 l 0,-148 a 12,12 0 0 1 12,-12 z"/>
  <g transform="scale(1.92)">
  <path style="fill:#222222;stroke:none;" d="m 81,79 c -5,0 -5,0 -10,-8 L 50,17 48,17 29,64 C 22.2,78 21.2,79 16.7,79 l 0,2 18.3,0 0,-2 c -4,0 -6,0 -6,-4 0,-1 0,-3 1,-4 l 4,-10 25,0 4,8 c 1,3 1,6 1,7 0,3 -1,3 -7,3 l 0,2 24,0 0,-2 M 36,57 47,30 57,57 36,57"/>
  <path style="fill:#222222;stroke:none;" d="M 79,48 79,51 21,51 21,48 z"/>
  </g>
</svg>
