<?xml version="1.0" encoding="UTF-8"?>
<svg xmlns="http://www.w3.org/2000/svg" version="1.1" height="256px" width="256px" viewBox="0 0 192 192">
  <path style="fill:#919191;stroke:none" d="m 10,30 172,0 0,120 a 12,12 0 0 1 -12,12 l -148,0 a 12,12 0 0 1 -12,-12 l 0,-120 z"/>
  <path style="fill:#BDBDBD;stroke:none" d="m 10,30 86,-22 86,22 -86,42 -86,-42 z"/>
  <path style="fill:none;stroke:#545454;stroke-width:8;stroke-linecap:round;" d="m 32,136 a 32,32 0 0 1 12,-24 l 12,-12 a 16,16 1 1 0 0,-0.1 m 32,0 a 12,12 0 0 1 16,0 a 16,16 1 1 0 0,-0.1 m 32,0 12,12  a 32,32 0 0 1 12,24"/>
</svg>
