<?xml version="1.0" encoding="UTF-8"?>
<svg xmlns="http://www.w3.org/2000/svg" version="1.1" height="22px" width="22px" viewBox="0 0 192 192">
  <path style="fill:#3E2723;stroke:none" d="m 22,30 148,0 a 12 12 0 0 1 12,12  l 0,108 a 12,12 0 0 1 -12,12 l -148,0 a 12,12 0 0 1 -12,-12 l 0,-108 a 12,12 0 0 1 12,-12 z"/>
  <path style="fill:#00BCD4;stroke:none" d="m 22,50  a 10 10 0 0 1 10,-10 l 128,0 a 10 10 0 0 1 10,10 l 0,88 -53,-80 -42,60  -31,-42 -22,32 z"/>
  <circle style="fill:#FFEF62;stroke:none" cx="50" cy="56" r="10"/>
  <g transform="translate(90,90)">
  <path style="fill:#FF5E5E;" d="M 20,4 3,21 33,50 3,80 20,97 49,67 79,97 95,80 65,50 95,20 80,4 50,34 z"/>
  </g>
</svg>
