<?xml version="1.0" encoding="UTF-8"?>
<svg xmlns="http://www.w3.org/2000/svg" version="1.1" height="22px" width="22px" viewBox="0 0 192 192">
  <g transform="rotate(-45 96 166)">
  <path d="m 96,42  a 124,124 0 0 1 124,124 l 12,0 a 136,136 0 0 0 -136,-136 z" style="fill:#545454;"/>
  <path d="m 96,66  a 100,100 0 0 1 100,100 l 12,0 a 112,112 0 0 0 -112,-112 z" style="fill:#545454;"/>
  <path d="m 96,90   a 76,76 0 0 1 76,76  l 12,0 a 88,88 0 0 0 -88,-88 z" style="fill:#545454;"/>
  <path d="m 96,114  a 52,52 0 0 1 52,52  l 12,0 a 64,64 0 0 0 -64,-64 z" style="fill:#545454;"/>
  <path d="m 96,166 0,-40 a 40 40  0 0 1 40,40 z" style="fill:#545454;"/>
  </g>
  <g transform="scale(2)">
  <circle cx="27" cy="27" r="24" style="fill:#F1AB24;stroke:#875900;stroke-width:2;fill-opacity:0.8;stroke-opacity:0.6"/>
  <path fill="#333333" d="m 27,7 c -4,0 -9,2 -11,6 -1,2 -1,9 -1,9 0,0 -2,0 -3,0 0,5 0,11 0,17 0,3 4,6 7,6 6,0 11,0 17,0 2,0 6,-3 6,-6 0,-6 0,-11 0,-17 -2,0 -2,0 -3,0 0,0 0,-6 -1,-9 C 36,9 31,7 27,7 z m 8,9 0,6 -16,0 c 0,-6 0,-6 0,-6 0,-4 5,-5 8,-5 3,0 8,1 8,5 z m -9,10 c 4,0 5,4 2,6 l 2,8 -7,0 2,-8 c -3,-2 -2,-6 1,-6 z"/>
  </g>
</svg>
