<?xml version="1.0" encoding="UTF-8"?>
<svg xmlns="http://www.w3.org/2000/svg" version="1.1" height="22px" width="22px" viewBox="0 0 192 192">
  <g transform="scale(2.5) translate(-10,-10)">
  <path style="fill:#545454" d="m 20,50 60,0 0,30 -60,0 z"/>
  <path style="fill:#4CAF50" d="m 25,52 a 2,2 0 1 0 0.1,0 z"/>
  <path style="fill:#FFF;stroke:#9E9E9E;stroke-width:3" d="m 30,50 0,-30 40,0 0,30 m -30,-25 20,0 m -20,7 20,0 m -20,7 20,0 m -20,7 20,0"/>
  </g>
  <g transform="scale (0.5) translate(160,160)">
  <circle style="fill:#D03D32;stroke:none" cx="96" cy="96" r="74"/>
  <path style="fill:#FFF;stroke:none" d="m 38,84 116,0 0,24 -116,0 z"/>
  </g>
</svg>
