<?xml version="1.0" encoding="UTF-8"?>
<svg xmlns="http://www.w3.org/2000/svg" version="1.1" height="22px" width="22px" viewBox="0 0 192 192">
  <path style="fill:#94776D;" d="m 42,10 108,0 a 12 12 0 0 1 12,12  l 0,148 a 12,12 0 0 1 -12,12 l -108,0 a 12,12 0 0 1 -12,-12 l 0,-148 a 12,12 0 0 1 12,-12 z "/>
  <path style="fill:#EDEDED;stroke:#545454;stroke-width:4;" d="m 52,20 88,0 a 12 12 0 0 1 12,12  l 0,128 a 12,12 0 0 1 -12,12 l -88,0 a 12,12 0 0 1 -12,-12 l 0,-128 a 12,12 0 0 1 12,-12 z m 6,48 76,0 m -76,24 76,0 m -76,24 76,0 m -50,-88 20,0"/>
  <g transform="translate(90,90)">
  <path style="fill:#FFC107;stroke:none" d="M 91,80 58,16 C 54,7.1 46,7.1 42,16 42,16 11,77 9,81 6.2,86 5.8,91 14,91 l 67,0 c 12,0 14,-3 10,-11 z"/>
  <path style="fill:#3E2723;" d="M 46,63 43,35 57,35 54,63 z"/>
  <circle cx="50" cy="73" r="7" style="fill:#3E2723"/>
  </g>
</svg>
