/* XPM */
static char * deb_xpm[] = {
"16 14 78 1",
" 	c None",
".	c #8F5902",
"+	c #F6F0E5",
"@	c #E2CCA8",
"#	c #E3D0B2",
"$	c #E3D0B1",
"%	c #E5D2B2",
"&	c #E7D3B2",
"*	c #E0C599",
"=	c #E2CEAD",
"-	c #E2CAA6",
";	c #BA9861",
">	c #F1E5D2",
",	c #EFE0C7",
"'	c #935E08",
")	c #99630D",
"!	c #945E07",
"~	c #9A650E",
"{	c #9B650F",
"]	c #A06A14",
"^	c #A26D19",
"/	c #A87B33",
"(	c #F9F3EA",
"_	c #CDAE7C",
":	c #B79255",
"<	c #946212",
"[	c #F2E7D3",
"}	c #EDDDC3",
"|	c #95610E",
"1	c #9B6A1B",
"2	c #A87C35",
"3	c #A87D37",
"4	c #C2A26D",
"5	c #F3E7D0",
"6	c #CBAE7F",
"7	c #C4A36D",
"8	c #93600F",
"9	c #EBDBC0",
"0	c #C4A673",
"a	c #F0D5AB",
"b	c #F0D4A8",
"c	c #EFD3A8",
"d	c #EFD3A7",
"e	c #EFD1A1",
"f	c #EFD5AB",
"g	c #C4A570",
"h	c #C9AB7B",
"i	c #AD8544",
"j	c #F0D5AD",
"k	c #F0D1A2",
"l	c #F0CE99",
"m	c #F0CD97",
"n	c #EFCC94",
"o	c #EFCA90",
"p	c #EEC98E",
"q	c #EEC78A",
"r	c #EDC587",
"s	c #EDC485",
"t	c #EED3A8",
"u	c #AC8443",
"v	c #93600E",
"w	c #C3A370",
"x	c #F0D7AF",
"y	c #F0D7AE",
"z	c #EFD7AE",
"A	c #EFD6AE",
"B	c #D8B57E",
"C	c #000000",
"D	c #C78C33",
"E	c #D5AE74",
"F	c #D29A46",
"G	c #DDA858",
"H	c #DFBB83",
"I	c #E7B66A",
"J	c #ECCD9E",
"K	c #E5CB9F",
"L	c #8F5D0C",
"M	c #855201",
"  ............  ",
"..+@#$$%%&*=-;..",
".>,'))!~{]^/(_:<",
".[}|||1123345678",
".90abbbbbcdefgh8",
".ijklmnopqrrstuv",
".wxxxxxyyzzzAAB.",
"................",
" .CCDDCCCDCCCE. ",
" .CFCFCFFFCFFC. ",
" .CGCGCCGGCCCH. ",
" .CICICIIICIIC. ",
" .CCJJCCCJCCCK. ",
" L............M "};
