<?xml version="1.0" encoding="UTF-8"?>
<svg xmlns="http://www.w3.org/2000/svg" version="1.1" height="64px" width="64px" viewBox="0 0 100 100">
  <path style="fill:#666;" d="M 5,15 C 5,15 5,5 15,5 l 70,0 c 0,0 10,0 10,10 l 0,70 c 0,0 0,10 -10,10 L 15,95 C 15,95 5,95 5,85 z"/>
  <path style="fill:#8C8C8C;" d="m 52,19 c 0,0 0,-4 4,-4 l 27,0 c 0,0 4,0 4,4 l 0,24 c 0,0 0,4 -4,4 l -27,0 c 0,0 -4,0 -4,-5 z m -39,0 c 0,0 0,-4 4,-4 l 27,0 c 0,0 4,0 4,4 l 0,24 c 0,0 0,4 -4,4 l -27,0 c 0,0 -4,0 -4,-5 z"/>
  <path style="fill:#8C8C8C;" d="m 52,56 c 0,0 0,-4 4,-4 l 27,0 c 0,0 4,0 4,4 l 0,24 c 0,0 0,4 -4,4 l -27,0 c 0,0 -4,0 -4,-5 z m -39,0 c 0,0 0,-4 4,-4 l 27,0 c 0,0 4,0 4,4 l 0,25 c 0,0 0,4 -4,4 l -27,0 c 0,0 -4,0 -4,-5 z"/>
  <path style="fill:#BDB47F" d="m 38,74 -4,-7 4,-6 -5,0 -2,3 -2,-3 -5,0 4,6 -4,7 5,0 2,-4 2,4 5,0 m 25,-5 14,0 0,4 -14,0 z m 0,-7 14,0 0,4 -14,0 z m -1,-34 15,0 0,4 -15,0 z m -33,-6 4,0 0,6 6,0 0,4 -6,0 0,6 -4,0 0,-6 -6,0 0,-4 6,0 z"/>
</svg>
