<?xml version="1.0" encoding="UTF-8"?>
<svg xmlns="http://www.w3.org/2000/svg" version="1.1" height="64px" width="64px" viewBox="0 0 100 100">
  <path style="fill:#B87E3B;" d="m 60 15 c -70,15 -70,100 0,70 c 40,-20 40,-55 15,-60 c -4,-1 -6,-4 -6,-6 c 0,-4 -5,-5 -9,-4 z"/>
  <path style="fill:#D53C32;" d="m 56 68 c 10,1, 12,9 0,8 c -6,-1 -5,-9 0,-8 z"/>
  <path style="fill:#32D544;" d="m 30 38 c -10,1, -12,9 0,8 c 6,-1 5,-9 0,-8 z"/>
  <path style="fill:#3258D5;" d="m 21 51 c -10,-3, -9,12 0,11 c 6,-1 5,-9 0,-11 z"/>
  <path style="fill:#ECEC34;" d="m 23 69 c 10,-3, 9,12 0,11 c -6,-1 -5,-9 0,-11 z"/>
  <path style="fill:#B6228B;" d="m 39 74 c 10,-6, 9,12 0,11 c -6,-1 -5,-7 0,-11 z"/>
  <!--path style="fill:#FF994E;" d="m 47 27 c -10,-6, -9,12 0,11 c 6,-1 5,-7 0,-11 z"/-->
  <path style="fill:#C8C288;" d="m 53,47 c -50,-60 -50,-40 -6,6"/>
  <path style="fill:#929292;" d="m 53,47 -6,6 6,6 6,-6 z"/>
  <path style="fill:#313131;" d="m 59,53 -6,6 c -2,4 14,9 16,15 c 5,-6 0,-20 -10,-21"/>
</svg>
