<?xml version="1.0" encoding="UTF-8" standalone="no"?>
<!DOCTYPE svg PUBLIC "-//W3C//DTD SVG 20010904//EN"
"http://www.w3.org/TR/2001/REC-SVG-20010904/DTD/svg10.dtd">
<!-- Created with Inkscape ("http://www.inkscape.org/") -->
<svg
   version="1.0"
   x="0.0000000"
   y="0.0000000"
   width="162.50000"
   height="162.50000"
   id="svg101"
   sodipodi:version="0.32"
   inkscape:version="0.36"
   sodipodi:docname="/usr/local/lib/X11/themes/Outline-svg/archive.svg"
   sodipodi:docbase="/usr/local/lib/X11/themes/Outline-svg"
   xmlns="http://www.w3.org/2000/svg"
   xmlns:inkscape="http://www.inkscape.org/namespaces/inkscape"
   xmlns:sodipodi="http://sodipodi.sourceforge.net/DTD/sodipodi-0.dtd"
   xmlns:xlink="http://www.w3.org/1999/xlink">
  <sodipodi:namedview
     id="base" />
  <defs
     id="defs24" />
  <rect
     width="99.376991"
     height="121.36733"
     x="31.307421"
     y="20.820257"
     style="font-size:12.000000;fill:#ffc100;fill-opacity:0.333333;fill-rule:evenodd;stroke:none;stroke-width:10.409400;stroke-linecap:round;stroke-linejoin:round;stroke-opacity:1;"
     id="rect173" />
  <path
     d="M 28.437500,153.86700 C 28.437500,153.86700 138.12500,153.86700 138.12500,153.86700 C 138.12500,153.86700 138.63300,33.515700 138.63300,33.515700 C 138.63300,33.515700 110.70300,10.156200 110.70300,10.156200 C 110.70300,10.156200 28.945300,10.156200 28.945300,10.156200 C 28.945300,10.156200 28.945300,154.88300 28.437500,153.86700 z "
     transform="matrix(0.224076,0.000000,0.000000,0.224076,33.39290,26.78930)"
     style="font-size:12.000000;fill:#ffc100;fill-opacity:1;fill-rule:evenodd;stroke:#4a4b4f;stroke-width:11.1569;stroke-linecap:round;stroke-linejoin:round;stroke-dasharray:none;stroke-dashoffset:0;"
     id="path218" />
  <path
     d="M 108.67200,10.664100 C 108.67200,10.664100 109.18000,36.562500 109.18000,36.562500 C 109.18000,36.562500 140.66400,36.562500 140.66400,36.562500"
     transform="matrix(0.224076,0.000000,0.000000,0.224076,32.48260,27.47210)"
     style="font-size:12.000000;fill:#f0f0f8;fill-opacity:0.19607796;fill-rule:evenodd;stroke:#4a4b4f;stroke-width:6.2500000;stroke-linecap:round;stroke-linejoin:round"
     id="path219" />
  <path
     d="M 28.437500,153.86700 C 28.437500,153.86700 138.12500,153.86700 138.12500,153.86700 C 138.12500,153.86700 138.63300,33.515700 138.63300,33.515700 C 138.63300,33.515700 110.70300,10.156200 110.70300,10.156200 C 110.70300,10.156200 28.945300,10.156200 28.945300,10.156200 C 28.945300,10.156200 28.945300,154.88300 28.437500,153.86700 z "
     transform="matrix(0.224076,0.000000,0.000000,0.224076,62.27780,26.78930)"
     style="font-size:12.000000;fill:#ffc100;fill-opacity:1;fill-rule:evenodd;stroke:#4a4b4f;stroke-width:11.1569;stroke-linecap:round;stroke-linejoin:round;stroke-dasharray:none;"
     id="path153" />
  <path
     d="M 108.67200,10.664100 C 108.67200,10.664100 109.18000,36.562500 109.18000,36.562500 C 109.18000,36.562500 140.66400,36.562500 140.66400,36.562500"
     transform="matrix(0.224076,0.000000,0.000000,0.224076,61.36750,27.47210)"
     style="font-size:12.000000;fill:#f0f0f8;fill-opacity:0.19607796;fill-rule:evenodd;stroke:#4a4b4f;stroke-width:6.2500000;stroke-linecap:round;stroke-linejoin:round"
     id="path154" />
  <path
     d="M 28.437500,153.86700 C 28.437500,153.86700 138.12500,153.86700 138.12500,153.86700 C 138.12500,153.86700 138.63300,33.515700 138.63300,33.515700 C 138.63300,33.515700 110.70300,10.156200 110.70300,10.156200 C 110.70300,10.156200 28.945300,10.156200 28.945300,10.156200 C 28.945300,10.156200 28.945300,154.88300 28.437500,153.86700 z "
     transform="matrix(0.224076,0.000000,0.000000,0.224076,91.16290,26.78930)"
     style="font-size:12.000000;fill:#ffc100;fill-opacity:1;fill-rule:evenodd;stroke:#4a4b4f;stroke-width:11.1569;stroke-linecap:round;stroke-linejoin:round;stroke-dasharray:none;"
     id="path155" />
  <path
     d="M 108.67200,10.664100 C 108.67200,10.664100 109.18000,36.562500 109.18000,36.562500 C 109.18000,36.562500 140.66400,36.562500 140.66400,36.562500"
     transform="matrix(0.224076,0.000000,0.000000,0.224076,90.25250,27.47210)"
     style="font-size:12.000000;fill:#f0f0f8;fill-opacity:0.19607796;fill-rule:evenodd;stroke:#4a4b4f;stroke-width:6.2500000;stroke-linecap:round;stroke-linejoin:round"
     id="path156" />
  <path
     d="M 28.437500,153.86700 C 28.437500,153.86700 138.12500,153.86700 138.12500,153.86700 C 138.12500,153.86700 138.63300,33.515700 138.63300,33.515700 C 138.63300,33.515700 110.70300,10.156200 110.70300,10.156200 C 110.70300,10.156200 28.945300,10.156200 28.945300,10.156200 C 28.945300,10.156200 28.945300,154.88300 28.437500,153.86700 z "
     transform="matrix(0.224076,0.000000,0.000000,0.224076,33.39290,63.12850)"
     style="font-size:12.000000;fill:#ffc100;fill-opacity:1;fill-rule:evenodd;stroke:#4a4b4f;stroke-width:11.1569;stroke-linecap:round;stroke-linejoin:round;stroke-dasharray:none;"
     id="path161" />
  <path
     d="M 108.67200,10.664100 C 108.67200,10.664100 109.18000,36.562500 109.18000,36.562500 C 109.18000,36.562500 140.66400,36.562500 140.66400,36.562500"
     transform="matrix(0.224076,0.000000,0.000000,0.224076,32.48260,63.81130)"
     style="font-size:12.000000;fill:#f0f0f8;fill-opacity:0.19607796;fill-rule:evenodd;stroke:#4a4b4f;stroke-width:6.2500000;stroke-linecap:round;stroke-linejoin:round"
     id="path162" />
  <path
     d="M 28.437500,153.86700 C 28.437500,153.86700 138.12500,153.86700 138.12500,153.86700 C 138.12500,153.86700 138.63300,33.515700 138.63300,33.515700 C 138.63300,33.515700 110.70300,10.156200 110.70300,10.156200 C 110.70300,10.156200 28.945300,10.156200 28.945300,10.156200 C 28.945300,10.156200 28.945300,154.88300 28.437500,153.86700 z "
     transform="matrix(0.224076,0.000000,0.000000,0.224076,62.27780,63.12850)"
     style="font-size:12.000000;fill:#ffc100;fill-opacity:1;fill-rule:evenodd;stroke:#4a4b4f;stroke-width:11.1569;stroke-linecap:round;stroke-linejoin:round;stroke-dasharray:none;"
     id="path163" />
  <path
     d="M 108.67200,10.664100 C 108.67200,10.664100 109.18000,36.562500 109.18000,36.562500 C 109.18000,36.562500 140.66400,36.562500 140.66400,36.562500"
     transform="matrix(0.224076,0.000000,0.000000,0.224076,61.36750,63.81130)"
     style="font-size:12.000000;fill:#f0f0f8;fill-opacity:0.19607796;fill-rule:evenodd;stroke:#4a4b4f;stroke-width:6.2500000;stroke-linecap:round;stroke-linejoin:round"
     id="path164" />
  <path
     d="M 28.437500,153.86700 C 28.437500,153.86700 138.12500,153.86700 138.12500,153.86700 C 138.12500,153.86700 138.63300,33.515700 138.63300,33.515700 C 138.63300,33.515700 110.70300,10.156200 110.70300,10.156200 C 110.70300,10.156200 28.945300,10.156200 28.945300,10.156200 C 28.945300,10.156200 28.945300,154.88300 28.437500,153.86700 z "
     transform="matrix(0.224076,0.000000,0.000000,0.224076,91.16290,63.12850)"
     style="font-size:12.000000;fill:#ffc100;fill-opacity:1;fill-rule:evenodd;stroke:#4a4b4f;stroke-width:11.1569;stroke-linecap:round;stroke-linejoin:round;stroke-dasharray:none;"
     id="path165" />
  <path
     d="M 108.67200,10.664100 C 108.67200,10.664100 109.18000,36.562500 109.18000,36.562500 C 109.18000,36.562500 140.66400,36.562500 140.66400,36.562500"
     transform="matrix(0.224076,0.000000,0.000000,0.224076,90.25250,63.81130)"
     style="font-size:12.000000;fill:#f0f0f8;fill-opacity:0.19607796;fill-rule:evenodd;stroke:#4a4b4f;stroke-width:6.2500000;stroke-linecap:round;stroke-linejoin:round"
     id="path166" />
  <path
     d="M 28.437500,153.86700 C 28.437500,153.86700 138.12500,153.86700 138.12500,153.86700 C 138.12500,153.86700 138.63300,33.515700 138.63300,33.515700 C 138.63300,33.515700 110.70300,10.156200 110.70300,10.156200 C 110.70300,10.156200 28.945300,10.156200 28.945300,10.156200 C 28.945300,10.156200 28.945300,154.88300 28.437500,153.86700 z "
     transform="matrix(0.224076,0.000000,0.000000,0.224076,33.39290,99.46810)"
     style="font-size:12.000000;fill:#ffc100;fill-opacity:1;fill-rule:evenodd;stroke:#4a4b4f;stroke-width:11.1569;stroke-linecap:round;stroke-linejoin:round;stroke-dasharray:none;"
     id="path167" />
  <path
     d="M 108.67200,10.664100 C 108.67200,10.664100 109.18000,36.562500 109.18000,36.562500 C 109.18000,36.562500 140.66400,36.562500 140.66400,36.562500"
     transform="matrix(0.224076,0.000000,0.000000,0.224076,32.48260,100.1510)"
     style="font-size:12.000000;fill:#f0f0f8;fill-opacity:0.19607796;fill-rule:evenodd;stroke:#4a4b4f;stroke-width:6.2500000;stroke-linecap:round;stroke-linejoin:round"
     id="path168" />
  <path
     d="M 28.437500,153.86700 C 28.437500,153.86700 138.12500,153.86700 138.12500,153.86700 C 138.12500,153.86700 138.63300,33.515700 138.63300,33.515700 C 138.63300,33.515700 110.70300,10.156200 110.70300,10.156200 C 110.70300,10.156200 28.945300,10.156200 28.945300,10.156200 C 28.945300,10.156200 28.945300,154.88300 28.437500,153.86700 z "
     transform="matrix(0.224076,0.000000,0.000000,0.224076,62.27780,99.46810)"
     style="font-size:12.000000;fill:#ffc100;fill-opacity:1;fill-rule:evenodd;stroke:#4a4b4f;stroke-width:11.1569;stroke-linecap:round;stroke-linejoin:round;stroke-dasharray:none;"
     id="path169" />
  <path
     d="M 108.67200,10.664100 C 108.67200,10.664100 109.18000,36.562500 109.18000,36.562500 C 109.18000,36.562500 140.66400,36.562500 140.66400,36.562500"
     transform="matrix(0.224076,0.000000,0.000000,0.224076,61.36750,100.1510)"
     style="font-size:12.000000;fill:#f0f0f8;fill-opacity:0.19607796;fill-rule:evenodd;stroke:#4a4b4f;stroke-width:6.2500000;stroke-linecap:round;stroke-linejoin:round"
     id="path170" />
  <path
     d="M 28.437500,153.86700 C 28.437500,153.86700 138.12500,153.86700 138.12500,153.86700 C 138.12500,153.86700 138.63300,33.515700 138.63300,33.515700 C 138.63300,33.515700 110.70300,10.156200 110.70300,10.156200 C 110.70300,10.156200 28.945300,10.156200 28.945300,10.156200 C 28.945300,10.156200 28.945300,154.88300 28.437500,153.86700 z "
     transform="matrix(0.224076,0.000000,0.000000,0.224076,91.16290,99.46810)"
     style="font-size:12.000000;fill:#ffc100;fill-opacity:1;fill-rule:evenodd;stroke:#4a4b4f;stroke-width:11.1569;stroke-linecap:round;stroke-linejoin:round;stroke-dasharray:none;"
     id="path171" />
  <path
     d="M 108.67200,10.664100 C 108.67200,10.664100 109.18000,36.562500 109.18000,36.562500 C 109.18000,36.562500 140.66400,36.562500 140.66400,36.562500"
     transform="matrix(0.224076,0.000000,0.000000,0.224076,90.25250,100.1510)"
     style="font-size:12.000000;fill:#f0f0f8;fill-opacity:0.19607796;fill-rule:evenodd;stroke:#4a4b4f;stroke-width:6.2500000;stroke-linecap:round;stroke-linejoin:round"
     id="path172" />
  <path
     d="M 4.57031 31.859 C 4.57031 31.859 32.9105 31.859 32.9105 31.859 C 32.9105 31.859 32.9105 5.1172 32.9105 5.1172 C 32.9105 5.1172 5.22938 31.1363 4.57031 31.859 z "
     style="font-size:12;fill:#ffa100;fill-rule:evenodd;stroke:#4a4b4f;stroke-width:2.5;stroke-linecap:round;stroke-linejoin:round;fill-opacity:1;stroke-dasharray:none;"
     id="path601" />
  <path
     d="M 158.399 130.605 C 158.399 130.605 129.526 130.605 129.526 130.605 C 129.526 130.605 129.526 158.945 129.526 158.945 C 129.526 158.945 157.727 131.371 158.399 130.605 z "
     style="font-size:12;fill:#ffa100;fill-rule:evenodd;stroke:#4a4b4f;stroke-width:2.5;stroke-linecap:round;stroke-linejoin:round;fill-opacity:1;stroke-dasharray:none;"
     id="path602" />
</svg>
