<?xml version="1.0" encoding="UTF-8" standalone="no"?>
<!DOCTYPE svg PUBLIC "-//W3C//DTD SVG 20010904//EN"
"http://www.w3.org/TR/2001/REC-SVG-20010904/DTD/svg10.dtd">
<!-- Created with Inkscape ("http://www.inkscape.org/") -->
<svg
   version="1.0"
   x="0.0000000"
   y="0.0000000"
   width="162.50000"
   height="162.50000"
   id="svg101"
   sodipodi:version="0.32"
   inkscape:version="0.36"
   sodipodi:docname="/usr/local/lib/X11/themes/Outline-svg/configuration.svg"
   sodipodi:docbase="/usr/local/lib/X11/themes/Outline-svg"
   xmlns="http://www.w3.org/2000/svg"
   xmlns:inkscape="http://www.inkscape.org/namespaces/inkscape"
   xmlns:sodipodi="http://sodipodi.sourceforge.net/DTD/sodipodi-0.dtd"
   xmlns:xlink="http://www.w3.org/1999/xlink">
  <sodipodi:namedview
     id="base" />
  <defs
     id="defs12" />
  <ellipse
     cx="80.742188"
     cy="80.742188"
     rx="59.921875"
     ry="59.921875"
     transform="matrix(0.869243,0.000000,0.000000,0.869243,11.31150,10.81980)"
     style="font-size:12.000000;fill:#ffc100;fill-opacity:1;fill-rule:evenodd;stroke:#4a4b4f;stroke-width:2.87607;stroke-linecap:round;stroke-linejoin:round;stroke-dasharray:none;"
     id="path137" />
  <path
     d="M 85.039400,34.940900 C 85.039400,34.940900 85.039400,13.681100 85.039400,13.681100"
     transform="matrix(1.050000,0.000000,0.000000,1.050000,-7.795250,-7.770290)"
     style="font-size:12.000000;fill:none;fill-rule:evenodd;stroke:#4a4b4f;stroke-width:9.3750000;stroke-linecap:round;stroke-linejoin:round"
     id="path254" />
  <path
     d="M 135.07800,84.804700 C 135.07800,84.804700 155.90600,84.547200 155.90600,84.547200"
     transform="matrix(1.050000,0.000000,0.000000,1.050000,-7.795250,-7.770290)"
     style="font-size:12.000000;fill:none;fill-rule:evenodd;stroke:#4a4b4f;stroke-width:9.3750000;stroke-linecap:round;stroke-linejoin:round"
     id="path255" />
  <path
     d="M 85.039400,134.15400 C 85.039400,134.15400 85.039400,155.41300 85.039400,155.41300"
     transform="matrix(1.050000,0.000000,0.000000,1.050000,-7.795250,-7.770290)"
     style="font-size:12.000000;fill:none;fill-rule:evenodd;stroke:#4a4b4f;stroke-width:9.3750000;stroke-linecap:round;stroke-linejoin:round"
     id="path256" />
  <path
     d="M 35.433100,84.547200 C 35.433100,84.547200 14.173200,84.547200 14.173200,84.547200"
     transform="matrix(1.050000,0.000000,0.000000,1.050000,-7.795250,-7.770290)"
     style="font-size:12.000000;fill:none;fill-rule:evenodd;stroke:#4a4b4f;stroke-width:9.3750000;stroke-linecap:round;stroke-linejoin:round"
     id="path257" />
  <path
     d="M 49.606300,49.114200 C 49.606300,49.114200 35.433100,34.940900 35.433100,34.940900"
     transform="matrix(1.050000,0.000000,0.000000,1.050000,-7.795250,-7.770290)"
     style="font-size:12.000000;fill:none;fill-rule:evenodd;stroke:#4a4b4f;stroke-width:9.3750000;stroke-linecap:round;stroke-linejoin:round"
     id="path258" />
  <path
     d="M 49.606300,119.98000 C 49.606300,119.98000 35.433100,134.15400 35.433100,134.15400"
     transform="matrix(1.050000,0.000000,0.000000,1.050000,-7.795250,-7.770290)"
     style="font-size:12.000000;fill:none;fill-rule:evenodd;stroke:#4a4b4f;stroke-width:9.3750000;stroke-linecap:round;stroke-linejoin:round"
     id="path259" />
  <path
     d="M 120.47200,49.114200 C 120.47200,49.114200 134.64600,34.940900 134.64600,34.940900"
     transform="matrix(1.050000,0.000000,0.000000,1.050000,-7.795250,-7.770290)"
     style="font-size:12.000000;fill:none;fill-rule:evenodd;stroke:#4a4b4f;stroke-width:9.3750000;stroke-linecap:round;stroke-linejoin:round"
     id="path260" />
  <path
     d="M 120.47200,119.98000 C 120.47200,119.98000 134.64600,134.15400 134.64600,134.15400"
     transform="matrix(1.050000,0.000000,0.000000,1.050000,-7.795250,-7.770290)"
     style="font-size:12.000000;fill:none;fill-rule:evenodd;stroke:#4a4b4f;stroke-width:9.3750000;stroke-linecap:round;stroke-linejoin:round"
     id="path261" />
</svg>
