<?xml version="1.0" encoding="UTF-8" standalone="no"?>
<!DOCTYPE svg PUBLIC "-//W3C//DTD SVG 20010904//EN"
"http://www.w3.org/TR/2001/REC-SVG-20010904/DTD/svg10.dtd">
<!-- Created with Inkscape ("http://www.inkscape.org/") -->
<svg
   version="1.0"
   x="0.0000000"
   y="0.0000000"
   width="162.50000"
   height="162.50000"
   id="svg101"
   sodipodi:version="0.32"
   inkscape:version="0.36"
   sodipodi:docname="/usr/local/lib/X11/themes/Outline-svg/connect.svg"
   sodipodi:docbase="/usr/local/lib/X11/themes/Outline-svg"
   xmlns="http://www.w3.org/2000/svg"
   xmlns:inkscape="http://www.inkscape.org/namespaces/inkscape"
   xmlns:sodipodi="http://sodipodi.sourceforge.net/DTD/sodipodi-0.dtd"
   xmlns:xlink="http://www.w3.org/1999/xlink">
  <sodipodi:namedview
     id="base" />
  <defs
     id="defs11" />
  <ellipse
     cx="80.742188"
     cy="80.742188"
     rx="59.921875"
     ry="59.921875"
     transform="matrix(0.805085,0.000000,0.000000,0.805085,25.89420,8.120710)"
     style="font-size:12.000000;fill:#ffc100;fill-opacity:1;fill-rule:evenodd;stroke:#4a4b4f;stroke-width:3.10526;stroke-linecap:round;stroke-linejoin:round;stroke-dasharray:none;"
     id="path137" />
  <path
     d="M 118.87310,126.96620 C 93.375750,147.99950 55.662200,144.41430 34.584610,118.95360 C 13.507010,93.492850 17.026470,55.773120 42.450470,34.651230"
     transform="matrix(1.093220,0.000000,0.000000,1.093220,2.629500,-15.14400)"
     style="font-size:12.000000;fill:none;fill-opacity:0.19607796;fill-rule:evenodd;stroke:#4a4b4f;stroke-width:2.28682;stroke-linecap:round;stroke-linejoin:round;stroke-dasharray:none;"
     id="path138" />
  <path
     d="M 35.546800,5.0781300 L 49.765600,20.820300"
     transform="translate(-6.093750,5.585940)"
     style="font-size:12.000000;fill:none;fill-rule:evenodd;stroke:#4a4b4f;stroke-width:12.500000;stroke-linecap:round;stroke-linejoin:round"
     id="path139" />
  <path
     d="M 138.63300,120.86000 L 152.85200,138.12500"
     transform="translate(-8.125000,5.585940)"
     style="font-size:12.000000;fill:none;fill-rule:evenodd;stroke:#4a4b4f;stroke-width:12.500000;stroke-linecap:round;stroke-linejoin:round"
     id="path140" />
  <path
     d="M 84.296900,133.04700 L 81.250000,146.25000"
     transform="translate(-8.125000,5.585940)"
     style="font-size:12.000000;fill:none;fill-rule:evenodd;stroke:#4a4b4f;stroke-width:12.500000;stroke-linecap:round;stroke-linejoin:round"
     id="path141" />
  <path
     d="M 43.671900,106.13300 L 31.992200,114.76500"
     transform="translate(-8.125000,5.585940)"
     style="font-size:12.000000;fill:none;fill-rule:evenodd;stroke:#4a4b4f;stroke-width:12.500000;stroke-linecap:round;stroke-linejoin:round"
     id="path142" />
  <path
     d="M 34.023400,61.953100 L 18.789100,60.429700"
     transform="translate(-8.125000,5.585940)"
     style="font-size:12.000000;fill:none;fill-rule:evenodd;stroke:#4a4b4f;stroke-width:12.500000;stroke-linecap:round;stroke-linejoin:round"
     id="path143" />
  <path
     d="M 63.779500,155.41300 C 63.779500,155.41300 77.952800,155.41300 77.952800,155.41300 C 77.952800,155.41300 77.952800,127.06700 77.952800,127.06700 C 77.952800,127.06700 99.212600,119.98000 99.212600,105.80700 C 92.126000,105.80700 85.039400,105.80700 85.039400,105.80700 C 85.039400,105.80700 85.039400,84.547200 85.039400,84.547200 C 85.039400,84.547200 85.039400,105.80700 85.039400,105.80700 C 85.039400,105.80700 56.692900,105.80700 56.692900,105.80700 C 56.692900,105.80700 56.692900,84.547200 56.692900,84.547200 C 56.692900,84.547200 56.692900,105.80700 56.692900,105.80700 C 56.692900,105.80700 42.519700,105.80700 42.519700,105.80700 C 42.519700,119.98000 63.779500,127.06700 63.779500,127.06700 C 63.779500,127.06700 63.779500,155.41300 63.779500,155.41300 z "
     transform="matrix(0.973904,0.000000,0.000000,0.973904,21.79197,-42.35462)"
     style="font-size:12.000000;fill:#ffa100;fill-opacity:1;fill-rule:evenodd;stroke:#4a4b4f;stroke-width:6.2500000;stroke-linecap:round;stroke-linejoin:round;"
     id="path1912" />
</svg>
