<?xml version="1.0" encoding="UTF-8" standalone="no"?>
<!DOCTYPE svg PUBLIC "-//W3C//DTD SVG 20010904//EN"
"http://www.w3.org/TR/2001/REC-SVG-20010904/DTD/svg10.dtd">
<!-- Created with Inkscape ("http://www.inkscape.org/") -->
<svg
   version="1.0"
   x="0.0000000"
   y="0.0000000"
   width="162.50000"
   height="162.50000"
   id="svg101"
   sodipodi:version="0.32"
   inkscape:version="0.36"
   sodipodi:docname="/usr/local/lib/X11/themes/Outline-svg/draw.svg"
   sodipodi:docbase="/usr/local/lib/X11/themes/Outline-svg"
   xmlns="http://www.w3.org/2000/svg"
   xmlns:inkscape="http://www.inkscape.org/namespaces/inkscape"
   xmlns:sodipodi="http://sodipodi.sourceforge.net/DTD/sodipodi-0.dtd"
   xmlns:xlink="http://www.w3.org/1999/xlink">
  <sodipodi:namedview
     id="base" />
  <defs
     id="defs5" />
  <path
     d="M 75.835303,115.35701 C 75.906924,123.06886 63.261977,129.35615 47.558178,129.41691 C 31.854380,129.47767 19.009272,123.28899 18.833446,115.57755 C 18.657620,107.86611 31.217330,101.53774 46.919962,101.42581 C 62.622594,101.31389 75.551044,107.46057 75.831068,115.17127"
     transform="matrix(1.392704,0.191345,-0.215737,1.235249,6.840722,-34.05746)"
     style="fill:#bfd3e7;fill-opacity:0.148148;stroke:#4a4b4f;stroke-width:2.0312202;stroke-linecap:round;stroke-linejoin:round;stroke-miterlimit:4.0000000;stroke-opacity:1.0000000;"
     id="path1685" />
  <path
     d="M 75.835303,115.35701 C 75.906924,123.06886 63.261977,129.35615 47.558178,129.41691 C 31.854380,129.47767 19.009272,123.28899 18.833446,115.57755 C 18.657620,107.86611 31.217330,101.53774 46.919962,101.42581 C 62.622594,101.31389 75.551044,107.46057 75.831068,115.17127"
     transform="matrix(1.347800,0.185176,-0.208781,1.195422,9.865202,-120.8576)"
     style="fill:#ffa100;fill-opacity:1;stroke:#4a4b4f;stroke-width:1.94634;stroke-linecap:round;stroke-linejoin:round;stroke-miterlimit:4.0000000;stroke-opacity:1.0000000;stroke-dasharray:none;"
     id="path1686" />
  <path
     d="M 10.7781 20.8457 C 10.2108 46.6576 88.3556 49.4941 87.3628 30.2061 L 87.3628 121.683 C 86.5119 143.098 8.65074 138.56 8.22527 113.173 L 10.7781 20.8457 z "
     style="fill:#ffc100;fill-opacity:1;fill-rule:evenodd;stroke:#4a4b4f;stroke-width:2.5;stroke-linecap:butt;stroke-linejoin:miter;stroke-miterlimit:4.0000000;stroke-opacity:1.0000000;stroke-dasharray:none;"
     id="path1687" />
  <path
     d="M 75.835303,115.35701 C 75.906924,123.06886 63.261977,129.35615 47.558178,129.41691 C 31.854380,129.47767 19.009272,123.28899 18.833446,115.57755 C 18.657620,107.86611 31.217330,101.53774 46.919962,101.42581 C 62.622594,101.31389 75.551044,107.46057 75.831068,115.17127"
     transform="matrix(1.426033,0.195924,-0.220899,1.264810,74.40202,-16.63871)"
     style="fill:#fd7f00;fill-opacity:0.155556;stroke:#4a4b4f;stroke-width:2.5000000;stroke-linecap:round;stroke-linejoin:round;stroke-miterlimit:4.0000000;stroke-opacity:1.0000000;"
     id="path1062" />
  <path
     d="M 158.269 141.558 C 163.41 163.592 67.9309 162.858 76.7444 126.135 L 123.015 29.1868 L 158.269 141.558 z "
     style="fill:#ffa100;fill-opacity:1;fill-rule:evenodd;stroke:#4a4b4f;stroke-width:2.5;stroke-linecap:round;stroke-linejoin:round;stroke-miterlimit:4.0000000;stroke-opacity:1.0000000;stroke-dasharray:none;"
     id="path1063" />
</svg>
