<?xml version="1.0" encoding="UTF-8" standalone="no"?>
<!DOCTYPE svg PUBLIC "-//W3C//DTD SVG 20010904//EN"
"http://www.w3.org/TR/2001/REC-SVG-20010904/DTD/svg10.dtd">
<!-- Created with Inkscape ("http://www.inkscape.org/") -->
<svg
   version="1.0"
   x="0.0000000"
   y="0.0000000"
   width="162.50000"
   height="162.50000"
   id="svg101"
   sodipodi:version="0.32"
   inkscape:version="0.36"
   sodipodi:docname="/usr/local/lib/X11/themes/Outline-svg/games.svg"
   sodipodi:docbase="/usr/local/lib/X11/themes/Outline-svg"
   xmlns="http://www.w3.org/2000/svg"
   xmlns:inkscape="http://www.inkscape.org/namespaces/inkscape"
   xmlns:sodipodi="http://sodipodi.sourceforge.net/DTD/sodipodi-0.dtd"
   xmlns:xlink="http://www.w3.org/1999/xlink">
  <sodipodi:namedview
     id="base" />
  <defs
     id="defs5" />
  <path
     d="M 5.6577326,4.7312109 L 5.1404870,158.41831 L 157.72791,158.41831 L 157.72791,4.2238718"
     style="fill:#ffc300;fill-opacity:0;fill-rule:evenodd;stroke:#4f4f4f;stroke-width:6.2500000;stroke-linecap:round;stroke-linejoin:round;stroke-miterlimit:4.0000000;stroke-opacity:1.0000000;"
     id="path1685" />
  <path
     d="M 39.699024,137.49578 C 39.734853,145.34784 33.412395,151.74947 25.560496,151.81135 C 17.708597,151.87323 11.286028,145.57205 11.198096,137.72040 C 11.110163,129.86875 17.390002,123.42531 25.241318,123.31132 C 33.092633,123.19734 39.556874,129.45577 39.696906,137.30666"
     transform="translate(1.017928,-1.017928)"
     style="fill:#ffff00;fill-opacity:1;stroke:#4f4f4f;stroke-width:6.2500000;stroke-linecap:round;stroke-linejoin:round;stroke-miterlimit:4.0000000;stroke-opacity:1.0000000;"
     id="path1686" />
  <path
     d="M 39.699024,137.49578 C 39.734853,145.34784 33.412395,151.74947 25.560496,151.81135 C 17.708597,151.87323 11.286028,145.57205 11.198096,137.72040 C 11.110163,129.86875 17.390002,123.42531 25.241318,123.31132 C 33.092633,123.19734 39.556874,129.45577 39.696906,137.30666"
     transform="translate(38.17228,-1.017928)"
     style="fill:#ff0000;fill-opacity:1;stroke:#4f4f4f;stroke-width:6.2500000;stroke-linecap:round;stroke-linejoin:round;stroke-miterlimit:4.0000000;stroke-opacity:1.0000000;"
     id="path1687" />
  <path
     d="M 39.699024,137.49578 C 39.734853,145.34784 33.412395,151.74947 25.560496,151.81135 C 17.708597,151.87323 11.286028,145.57205 11.198096,137.72040 C 11.110163,129.86875 17.390002,123.42531 25.241318,123.31132 C 33.092633,123.19734 39.556874,129.45577 39.696906,137.30666"
     transform="translate(74.30871,-1.017928)"
     style="fill:#ff0000;fill-opacity:1;stroke:#4f4f4f;stroke-width:6.2500000;stroke-linecap:round;stroke-linejoin:round;stroke-miterlimit:4.0000000;stroke-opacity:1.0000000;"
     id="path1688" />
  <path
     d="M 39.699024,137.49578 C 39.734853,145.34784 33.412395,151.74947 25.560496,151.81135 C 17.708597,151.87323 11.286028,145.57205 11.198096,137.72040 C 11.110163,129.86875 17.390002,123.42531 25.241318,123.31132 C 33.092633,123.19734 39.556874,129.45577 39.696906,137.30666"
     transform="translate(111.4631,-1.017928)"
     style="fill:#ffff00;fill-opacity:1;stroke:#4f4f4f;stroke-width:6.2500000;stroke-linecap:round;stroke-linejoin:round;stroke-miterlimit:4.0000000;stroke-opacity:1.0000000;"
     id="path1689" />
  <path
     d="M 39.699024,137.49578 C 39.734853,145.34784 33.412395,151.74947 25.560496,151.81135 C 17.708597,151.87323 11.286028,145.57205 11.198096,137.72040 C 11.110163,129.86875 17.390002,123.42531 25.241318,123.31132 C 33.092633,123.19734 39.556874,129.45577 39.696906,137.30666"
     transform="translate(1.017928,-37.15435)"
     style="fill:#ff0000;fill-opacity:1;stroke:#4f4f4f;stroke-width:6.2500000;stroke-linecap:round;stroke-linejoin:round;stroke-miterlimit:4.0000000;stroke-opacity:1.0000000;"
     id="path1690" />
  <path
     d="M 39.699024,137.49578 C 39.734853,145.34784 33.412395,151.74947 25.560496,151.81135 C 17.708597,151.87323 11.286028,145.57205 11.198096,137.72040 C 11.110163,129.86875 17.390002,123.42531 25.241318,123.31132 C 33.092633,123.19734 39.556874,129.45577 39.696906,137.30666"
     transform="translate(38.17228,-37.15435)"
     style="fill:#ff0000;fill-opacity:1;stroke:#4f4f4f;stroke-width:6.2500000;stroke-linecap:round;stroke-linejoin:round;stroke-miterlimit:4.0000000;stroke-opacity:1.0000000;"
     id="path1691" />
  <path
     d="M 39.699024,137.49578 C 39.734853,145.34784 33.412395,151.74947 25.560496,151.81135 C 17.708597,151.87323 11.286028,145.57205 11.198096,137.72040 C 11.110163,129.86875 17.390002,123.42531 25.241318,123.31132 C 33.092633,123.19734 39.556874,129.45577 39.696906,137.30666"
     transform="translate(74.30871,-37.15435)"
     style="fill:#ffff00;fill-opacity:1;stroke:#4f4f4f;stroke-width:6.2500000;stroke-linecap:round;stroke-linejoin:round;stroke-miterlimit:4.0000000;stroke-opacity:1.0000000;"
     id="path1692" />
  <path
     d="M 39.699024,137.49578 C 39.734853,145.34784 33.412395,151.74947 25.560496,151.81135 C 17.708597,151.87323 11.286028,145.57205 11.198096,137.72040 C 11.110163,129.86875 17.390002,123.42531 25.241318,123.31132 C 33.092633,123.19734 39.556874,129.45577 39.696906,137.30666"
     transform="translate(1.017928,-74.81767)"
     style="fill:#ffff00;fill-opacity:1;stroke:#4f4f4f;stroke-width:6.2500000;stroke-linecap:round;stroke-linejoin:round;stroke-miterlimit:4.0000000;stroke-opacity:1.0000000;"
     id="path1693" />
  <path
     d="M 39.699024,137.49578 C 39.734853,145.34784 33.412395,151.74947 25.560496,151.81135 C 17.708597,151.87323 11.286028,145.57205 11.198096,137.72040 C 11.110163,129.86875 17.390002,123.42531 25.241318,123.31132 C 33.092633,123.19734 39.556874,129.45577 39.696906,137.30666"
     transform="translate(38.17228,-74.81767)"
     style="fill:#ff0000;fill-opacity:1;stroke:#4f4f4f;stroke-width:6.2500000;stroke-linecap:round;stroke-linejoin:round;stroke-miterlimit:4.0000000;stroke-opacity:1.0000000;"
     id="path1694" />
  <path
     d="M 39.699024,137.49578 C 39.734853,145.34784 33.412395,151.74947 25.560496,151.81135 C 17.708597,151.87323 11.286028,145.57205 11.198096,137.72040 C 11.110163,129.86875 17.390002,123.42531 25.241318,123.31132 C 33.092633,123.19734 39.556874,129.45577 39.696906,137.30666"
     transform="translate(74.30871,-74.81767)"
     style="fill:#ffff00;fill-opacity:1;stroke:#4f4f4f;stroke-width:6.2500000;stroke-linecap:round;stroke-linejoin:round;stroke-miterlimit:4.0000000;stroke-opacity:1.0000000;"
     id="path1695" />
  <path
     d="M 39.699024,137.49578 C 39.734853,145.34784 33.412395,151.74947 25.560496,151.81135 C 17.708597,151.87323 11.286028,145.57205 11.198096,137.72040 C 11.110163,129.86875 17.390002,123.42531 25.241318,123.31132 C 33.092633,123.19734 39.556874,129.45577 39.696906,137.30666"
     transform="translate(38.17228,-112.4809)"
     style="fill:#ff0000;fill-opacity:1;stroke:#4f4f4f;stroke-width:6.2500000;stroke-linecap:round;stroke-linejoin:round;stroke-miterlimit:4.0000000;stroke-opacity:1.0000000;"
     id="path1696" />
</svg>
