<?xml version="1.0" encoding="UTF-8" standalone="no"?>
<!DOCTYPE svg PUBLIC "-//W3C//DTD SVG 20010904//EN"
"http://www.w3.org/TR/2001/REC-SVG-20010904/DTD/svg10.dtd">
<!-- Created with Inkscape ("http://www.inkscape.org/") -->
<svg
   version="1.0"
   x="0.0000000"
   y="0.0000000"
   width="162.50000"
   height="162.50000"
   id="svg101"
   xmlns="http://www.w3.org/2000/svg"
   xmlns:sodipodi="http://sodipodi.sourceforge.net/DTD/sodipodi-0.dtd"
   xmlns:inkscape="http://www.inkscape.org/namespaces/inkscape"
   xmlns:xlink="http://www.w3.org/1999/xlink"
   sodipodi:version="0.32"
   inkscape:version="0.36"
   sodipodi:docname="/usr/local/lib/X11/themes/Outline-svg/home.svg"
   sodipodi:docbase="/usr/local/lib/X11/themes/Outline-svg">
  <sodipodi:namedview
     id="base" />
  <defs
     id="defs4" />
  <path
     d="M 14.173200,191.93900 C 17.716500,191.93900 57.246600,191.93900 70.866100,191.93900 C 70.866100,191.93900 70.866100,128.16000 70.866100,128.16000 C 70.866100,128.16000 106.29900,128.16000 113.38600,128.16000 C 113.38600,128.16000 113.38600,191.93900 113.38600,191.93900 C 127.89100,191.93900 164.76400,191.93900 170.07900,191.93900 C 170.07900,174.22300 170.07900,92.726700 170.07900,78.553400 C 162.99200,71.466800 141.73200,50.207000 134.64600,43.120400 C 134.64600,28.947100 134.64600,14.773900 134.64600,0.60068100 C 127.55900,0.60068100 120.47200,0.60068100 113.38600,0.60068100 C 113.38600,7.6873000 113.38600,14.773900 113.38600,28.947100 C 106.29900,21.860500 99.212600,14.773900 92.126000,7.6873000 C 56.692900,36.033800 35.433100,57.293600 14.173200,78.553400 C 14.173200,99.813300 14.173200,170.67900 14.173200,191.93900 z "
     transform="matrix(0.761041,0.000000,0.000000,0.761041,10.47340,8.373170)"
     style="font-size:12.000000;fill:#ffc100;fill-opacity:1;fill-rule:evenodd;stroke:#4a4b4f;stroke-width:3.28497;stroke-linecap:round;stroke-linejoin:round;stroke-dasharray:none;"
     id="path171" />
</svg>
