<?xml version="1.0" encoding="UTF-8" standalone="no"?>
<!DOCTYPE svg PUBLIC "-//W3C//DTD SVG 20010904//EN"
"http://www.w3.org/TR/2001/REC-SVG-20010904/DTD/svg10.dtd">
<!-- Created with Inkscape ("http://www.inkscape.org/") -->
<svg
   version="1.0"
   x="0.0000000"
   y="0.0000000"
   width="162.50000"
   height="162.50000"
   id="svg101"
   sodipodi:version="0.32"
   inkscape:version="0.36"
   sodipodi:docname="/usr/local/lib/X11/themes/Outline-svg/lock.svg"
   sodipodi:docbase="/usr/local/lib/X11/themes/Outline-svg"
   xmlns="http://www.w3.org/2000/svg"
   xmlns:inkscape="http://www.inkscape.org/namespaces/inkscape"
   xmlns:sodipodi="http://sodipodi.sourceforge.net/DTD/sodipodi-0.dtd"
   xmlns:xlink="http://www.w3.org/1999/xlink">
  <sodipodi:namedview
     id="base" />
  <defs
     id="defs9" />
  <path
     d="M 28.437500,153.86700 C 28.437500,153.86700 138.12500,153.86700 138.12500,153.86700 C 138.12500,153.86700 138.63300,33.515700 138.63300,33.515700 C 138.63300,33.515700 110.70300,10.156200 110.70300,10.156200 C 110.70300,10.156200 28.945300,10.156200 28.945300,10.156200 C 28.945300,10.156200 28.945300,154.88300 28.437500,153.86700 z "
     transform="matrix(0.500000,0.000000,0.000000,0.500000,-6.982430,79.09300)"
     style="font-size:12.000000;fill:#ffc100;fill-opacity:1;fill-rule:evenodd;stroke:#4a4b4f;stroke-width:5;stroke-linecap:round;stroke-linejoin:round;stroke-dasharray:none;"
     id="path218" />
  <path
     d="M 108.67200,10.664100 C 108.67200,10.664100 109.18000,36.562500 109.18000,36.562500 C 109.18000,36.562500 140.66400,36.562500 140.66400,36.562500"
     transform="matrix(0.500000,0.000000,0.000000,0.500000,-9.013620,80.61650)"
     style="font-size:12.000000;fill:#f0f0f8;fill-opacity:0.19607796;fill-rule:evenodd;stroke:#4a4b4f;stroke-width:6.2500000;stroke-linecap:round;stroke-linejoin:round"
     id="path219" />
  <path
     d="M 18.281200,107.14800 C 18.281200,107.14800 19.296900,23.128600 19.296900,23.128600 C 19.296900,23.128600 62.968800,23.128600 62.968800,23.128600 C 62.968800,23.128600 62.968800,33.792600 62.968800,33.792600 C 62.968800,33.792600 142.18800,33.792600 142.18800,33.792600 C 142.18800,33.792600 142.18800,46.718800 142.18800,46.718800"
     transform="matrix(0.530275,0.000000,0.000000,0.634615,76.66240,82.06040)"
     style="font-size:12.000000;fill:#ff8000;fill-opacity:1;fill-rule:evenodd;stroke:#4a4b4f;stroke-width:4.30957;stroke-linecap:round;stroke-linejoin:round;stroke-dasharray:none;"
     id="path312" />
  <path
     d="M 152.34400,47.226600 C 152.34400,47.226600 34.531200,47.226600 34.531200,47.226600 C 34.531200,47.226600 18.789100,107.14800 18.789100,107.14800 C 18.789100,107.14800 139.64800,107.14800 139.64800,107.14800 C 139.64800,107.14800 153.86700,47.734400 152.34400,47.226600 z "
     transform="matrix(0.530275,0.000000,0.000000,0.634615,76.66240,82.06040)"
     style="font-size:12.000000;fill:#ffc100;fill-opacity:1;fill-rule:evenodd;stroke:#4a4b4f;stroke-width:4.30957;stroke-linecap:round;stroke-linejoin:round;stroke-dasharray:none;"
     id="path311" />
  <path
     d="M 50.7663 59.7832 C 50.7631 37.7929 65.728 19.9658 84.1862 19.9714 C 102.644 19.977 117.602 37.8132 117.589 59.8035 "
     style="font-size:12;fill:#f0f0f8;fill-opacity:0.196078;fill-rule:evenodd;stroke:#4a4b4f;stroke-width:10.8716;stroke-linecap:round;stroke-linejoin:round;"
     id="path137" />
  <rect
     width="85.326469"
     height="64.115074"
     x="40.938381"
     y="62.966003"
     style="font-size:12.000000;fill:#ffa100;fill-opacity:1;fill-rule:evenodd;stroke:#4a4b4f;stroke-width:2.5;stroke-linecap:round;stroke-linejoin:round;stroke-dasharray:none;"
     id="rect572" />
</svg>
