<?xml version="1.0" encoding="UTF-8" standalone="no"?>
<!DOCTYPE svg PUBLIC "-//W3C//DTD SVG 20010904//EN"
"http://www.w3.org/TR/2001/REC-SVG-20010904/DTD/svg10.dtd">
<!-- Created with Inkscape ("http://www.inkscape.org/") -->
<svg
   version="1.0"
   x="0.0000000"
   y="0.0000000"
   width="162.50000"
   height="162.50000"
   id="svg101"
   sodipodi:version="0.32"
   inkscape:version="0.36"
   sodipodi:docname="/usr/local/lib/X11/themes/Outline-svg/paint.svg"
   sodipodi:docbase="/usr/local/lib/X11/themes/Outline-svg"
   xmlns="http://www.w3.org/2000/svg"
   xmlns:inkscape="http://www.inkscape.org/namespaces/inkscape"
   xmlns:sodipodi="http://sodipodi.sourceforge.net/DTD/sodipodi-0.dtd"
   xmlns:xlink="http://www.w3.org/1999/xlink">
  <sodipodi:namedview
     id="base" />
  <defs
     id="defs10" />
  <rect
     width="146.072601"
     height="110.209116"
     x="7.634456"
     y="24.800380"
     style="font-size:12;fill:#ffc100;fill-opacity:1;fill-rule:evenodd;stroke:#4a4a4f;stroke-width:2.5;stroke-linecap:round;stroke-linejoin:round;stroke-dashoffset:0;stroke-dasharray:none;"
     id="rect884" />
  <rect
     width="126.610124"
     height="35.446922"
     x="17.528512"
     y="42.187344"
     style="font-size:12;fill:#80aaff;fill-rule:evenodd;stroke:#4a4a4f;stroke-width:2.5;fill-opacity:0.325926;stroke-dasharray:none;"
     id="rect1067" />
  <ellipse
     cx="82.139084"
     cy="93.467262"
     rx="18.223206"
     ry="18.223206"
     transform="matrix(2.595877,0.000000,0.000000,1.210474,-130.9749,-24.92228)"
     style="font-size:12.000000;fill:#ffff00;fill-rule:evenodd"
     id="path1068" />
  <path
     d="M 17.6496 106.003 C 17.6496 106.003 17.6497 75.7092 17.6497 75.7092 C 57.868 71.5619 98.7595 71.5619 144.194 75.7092 C 144.194 75.7092 144.194 106.184 144.194 106.184 C 144.194 106.184 17.6497 106.003 17.6496 106.003 z "
     style="font-size:12;fill:#00256d;fill-rule:evenodd;stroke:#494a4f;stroke-width:2.5;stroke-dasharray:none;"
     id="path1066" />
  <rect
     width="126.544838"
     height="11.095655"
     x="17.649653"
     y="106.003517"
     style="font-size:12;fill:#ff4422;fill-rule:evenodd;stroke:#494b4f;stroke-width:2.5;stroke-dasharray:none;"
     id="rect1065" />
  <path
     d="M 17.354540,82.404660 C 30.698320,89.617640 60.992350,75.552310 78.303250,85.289740 C 58.828400,78.437530 31.058950,91.780880 17.354540,82.404660 z "
     style="font-size:12.000000;fill:#494951;fill-opacity:1;fill-rule:evenodd;"
     id="path1070" />
  <path
     d="M 74.336330,92.502680 C 87.680110,99.715660 117.97410,85.650340 135.28500,95.387760 C 115.81020,88.535560 88.040740,101.87890 74.336330,92.502680 z "
     style="font-size:12.000000;fill:#494b4f;fill-opacity:1;fill-rule:evenodd;"
     id="path1071" />
</svg>
