<?xml version="1.0" encoding="UTF-8" standalone="no"?>
<!DOCTYPE svg PUBLIC "-//W3C//DTD SVG 20010904//EN"
"http://www.w3.org/TR/2001/REC-SVG-20010904/DTD/svg10.dtd">
<!-- Created with Inkscape ("http://www.inkscape.org/") -->
<svg
   version="1.0"
   x="0.0000000"
   y="0.0000000"
   width="162.50000"
   height="162.50000"
   id="svg101"
   sodipodi:version="0.32"
   sodipodi:docname="/usr/local/lib/X11/themes/Outline-svg/pc.svg"
   sodipodi:docbase="/usr/local/lib/X11/themes/Outline-svg"
   inkscape:version="0.36"
   xmlns="http://www.w3.org/2000/svg"
   xmlns:inkscape="http://www.inkscape.org/namespaces/inkscape"
   xmlns:sodipodi="http://sodipodi.sourceforge.net/DTD/sodipodi-0.dtd"
   xmlns:xlink="http://www.w3.org/1999/xlink">
  <sodipodi:namedview
     id="base" />
  <defs
     id="defs103">
    <linearGradient
       x1="0.0000000"
       y1="0.0000000"
       x2="1.0000000"
       y2="0.0000000"
       id="linearGradient166"
       gradientUnits="objectBoundingBox"
       spreadMethod="pad">
      <stop
         style="stop-color:#f0f0f8;stop-opacity:0.24710000;"
         offset="0.0000000"
         id="stop167" />
      <stop
         style="stop-color:#f0f0f8;stop-opacity:0.60390002;"
         offset="1.0000000"
         id="stop168" />
    </linearGradient>
    <linearGradient
       x1="0.0000000"
       y1="0.0000000"
       x2="1.0000000"
       y2="0.0000000"
       id="linearGradient157"
       gradientUnits="objectBoundingBox"
       spreadMethod="pad">
      <stop
         style="stop-color:#4a4b4f;stop-opacity:0.33329999;"
         offset="0.0000000"
         id="stop158" />
      <stop
         style="stop-color:#c2c2ca;stop-opacity:0.34119999;"
         offset="1.0000000"
         id="stop159" />
    </linearGradient>
    <linearGradient
       x1="0.0000000"
       y1="0.0000000"
       x2="1.0000000"
       y2="0.0000000"
       id="linearGradient151"
       gradientUnits="objectBoundingBox"
       spreadMethod="pad">
      <stop
         style="stop-color:#4a4b4f;stop-opacity:0.0000000;"
         offset="0.0000000"
         id="stop152" />
      <stop
         style="stop-color:#c2c2ca;stop-opacity:1.0000000;"
         offset="1.0000000"
         id="stop153" />
    </linearGradient>
    <linearGradient
       x1="0.0000000"
       y1="0.0000000"
       x2="1.0000000"
       y2="0.0000000"
       id="linearGradient111"
       gradientUnits="objectBoundingBox"
       spreadMethod="pad">
      <stop
         style="stop-color:#000000;stop-opacity:0.80390000;"
         offset="0.0000000"
         id="stop112" />
      <stop
         style="stop-color:#c2c2ca;stop-opacity:1.0000000;"
         offset="1.0000000"
         id="stop113" />
    </linearGradient>
    <linearGradient
       x1="0.42460099"
       y1="1.0108700"
       x2="0.59523797"
       y2="-0.032608699"
       id="linearGradient114"
       xlink:href="#linearGradient151"
       gradientUnits="objectBoundingBox"
       spreadMethod="pad" />
    <linearGradient
       x1="0.78857100"
       y1="0.88281697"
       x2="0.33714300"
       y2="0.46875000"
       id="linearGradient115"
       xlink:href="#linearGradient151"
       gradientUnits="objectBoundingBox"
       spreadMethod="pad" />
    <linearGradient
       x1="0.081480898"
       y1="0.10322500"
       x2="0.98518503"
       y2="0.96129000"
       id="linearGradient154"
       xlink:href="#linearGradient111"
       gradientUnits="objectBoundingBox"
       spreadMethod="pad" />
    <linearGradient
       x1="0.83132201"
       y1="0.91406202"
       x2="0.16867501"
       y2="0.10156200"
       id="linearGradient156"
       xlink:href="#linearGradient157"
       gradientUnits="objectBoundingBox"
       spreadMethod="pad" />
    <linearGradient
       x1="0.15841600"
       y1="0.16129200"
       x2="0.84158403"
       y2="0.87741899"
       id="linearGradient160"
       xlink:href="#linearGradient111"
       gradientUnits="objectBoundingBox"
       spreadMethod="pad" />
    <radialGradient
       cx="0.36190501"
       cy="0.35156199"
       r="0.38062099"
       fx="0.36190501"
       fy="0.35156199"
       id="radialGradient161"
       xlink:href="#linearGradient166"
       gradientUnits="objectBoundingBox"
       spreadMethod="reflect" />
    <linearGradient
       x1="0.0000000"
       y1="0.0000000"
       x2="1.0000000"
       y2="0.0000000"
       id="linearGradient169"
       xlink:href="#linearGradient151"
       gradientUnits="objectBoundingBox"
       spreadMethod="reflect" />
  </defs>
  <path
     d="M 152.399 16.5759 C 152.399 16.5759 10.6663 16.5759 10.6663 16.5759 C 10.6663 16.5759 10.6663 94.5286 10.6663 94.5286 C 10.6663 94.5286 60.2726 94.5286 60.2726 94.5286 C 60.2726 94.5286 74.4455 108.702 74.4455 108.702 C 74.4455 108.702 24.8392 108.702 24.8392 108.702 C 24.8392 108.702 10.6662 115.788 10.6662 115.788 C 10.6662 115.788 152.399 115.788 152.399 115.788 C 152.399 115.788 138.226 108.702 138.226 108.702 C 138.226 108.702 88.6188 108.702 88.6188 108.702 C 88.6188 108.702 102.792 94.5286 102.792 94.5286 C 102.792 94.5286 152.399 94.5286 152.399 94.5286 C 152.399 94.5286 152.399 16.5759 152.399 16.5759 z "
     style="font-size:12.000000;fill:#ffa100;fill-opacity:1;fill-rule:evenodd;stroke:#4a4b4f;stroke-width:2.5;stroke-linecap:round;stroke-linejoin:round;stroke-dasharray:none;"
     id="path422" />
  <path
     d="M 10.6664 120.905 C 10.6664 120.905 152.399 120.905 152.399 120.905 C 152.399 120.905 152.399 146.799 152.399 146.799 C 152.399 146.799 10.6663 146.799 10.6663 146.799 C 10.6663 146.799 10.6664 120.905 10.6664 120.905 z "
     style="font-size:12;fill:#ffc100;fill-rule:evenodd;stroke:#494b4f;stroke-width:3.10035;stroke-linecap:round;stroke-linejoin:round;"
     id="path424" />
  <rect
     width="125.429443"
     height="61.445343"
     x="18.814064"
     y="24.707968"
     style="font-size:12.000000;fill:#ffc100;fill-opacity:1;fill-rule:evenodd;"
     id="rect425" />
  <rect
     style="font-size:12;fill:#49494f;fill-opacity:1;fill-rule:evenodd;stroke-width:3pt;"
     id="rect584"
     width="61.270493"
     height="11.188522"
     x="86.844261"
     y="125.737709" />
</svg>
