<?xml version="1.0" encoding="UTF-8" standalone="no"?>
<!DOCTYPE svg PUBLIC "-//W3C//DTD SVG 20010904//EN"
"http://www.w3.org/TR/2001/REC-SVG-20010904/DTD/svg10.dtd">
<!-- Created with Inkscape ("http://www.inkscape.org/") -->
<svg
   version="1.0"
   x="0.0000000"
   y="0.0000000"
   width="162.50000"
   height="162.50000"
   id="svg101"
   sodipodi:version="0.32"
   inkscape:version="0.36"
   sodipodi:docname="/usr/local/lib/X11/themes/OutlineOrange/spread.svg"
   sodipodi:docbase="/usr/local/lib/X11/themes/OutlineOrange"
   xmlns="http://www.w3.org/2000/svg"
   xmlns:inkscape="http://www.inkscape.org/namespaces/inkscape"
   xmlns:sodipodi="http://sodipodi.sourceforge.net/DTD/sodipodi-0.dtd"
   xmlns:xlink="http://www.w3.org/1999/xlink">
  <sodipodi:namedview
     id="base" />
  <defs
     id="defs26" />
  <rect
     width="145.11417"
     height="148.65353"
     x="9.0535192"
     y="7.5436950"
     style="font-size:12.000000;fill:#ffc100;fill-opacity:1;fill-rule:evenodd;stroke:none;stroke-width:6.2089920;stroke-linecap:round;stroke-linejoin:round;stroke-dashoffset:0.0000000;stroke-opacity:1;"
     id="rect884" />
  <rect
     width="55.879124"
     height="36.990505"
     x="18.708385"
     y="63.331306"
     style="font-size:12.000000;color:#000000;fill:none;fill-rule:evenodd;stroke:#4a4b4f;stroke-width:2.5;stroke-linecap:round;stroke-linejoin:round;stroke-dashoffset:0.0000000;font-family:Bitstream Vera Sans;stroke-dasharray:none;"
     id="rect1155" />
  <rect
     width="55.879124"
     height="36.990505"
     x="88.854492"
     y="63.331306"
     style="font-size:12.000000;color:#000000;fill:none;fill-rule:evenodd;stroke:#4a4b4f;stroke-width:2.5;stroke-linecap:round;stroke-linejoin:round;stroke-dashoffset:0.0000000;font-family:Bitstream Vera Sans;stroke-dasharray:none;"
     id="rect1156" />
  <rect
     width="55.879124"
     height="36.990505"
     x="18.708385"
     y="109.92241"
     style="font-size:12.000000;color:#000000;fill:none;fill-rule:evenodd;stroke:#4a4b4f;stroke-width:2.5;stroke-linecap:round;stroke-linejoin:round;stroke-dashoffset:0.0000000;font-family:Bitstream Vera Sans;stroke-dasharray:none;"
     id="rect1160" />
  <rect
     width="55.879124"
     height="36.990505"
     x="88.854492"
     y="109.92241"
     style="font-size:12.000000;color:#000000;fill:none;fill-rule:evenodd;stroke:#4a4b4f;stroke-width:2.5;stroke-linecap:round;stroke-linejoin:round;stroke-dashoffset:0.0000000;font-family:Bitstream Vera Sans;stroke-dasharray:none;"
     id="rect1161" />
  <rect
     width="55.879124"
     height="36.990505"
     x="18.708385"
     y="16.578041"
     style="font-size:12.000000;color:#000000;fill:none;fill-rule:evenodd;stroke:#4a4b4f;stroke-width:2.5;stroke-linecap:round;stroke-linejoin:round;stroke-dashoffset:0.0000000;font-family:Bitstream Vera Sans;stroke-dasharray:none;"
     id="rect1628" />
  <rect
     width="55.879124"
     height="36.990505"
     x="88.854492"
     y="16.578041"
     style="font-size:12.000000;color:#000000;fill:none;fill-rule:evenodd;stroke:#4a4b4f;stroke-width:2.5;stroke-linecap:round;stroke-linejoin:round;stroke-dashoffset:0.0000000;font-family:Bitstream Vera Sans;stroke-dasharray:none;"
     id="rect1629" />
  <path
     d="M 32.661800,43.791670 L 37.993950,26.217630 L 42.949670,43.791670 L 40.857860,36.480880 L 34.883460,36.480880 L 32.661800,43.791670 z "
     style="font-size:12.000000;color:#000000;fill:none;fill-rule:evenodd;stroke:#000000;stroke-width:2.5963399;stroke-linecap:round;stroke-linejoin:round;stroke-dashoffset:0.0000000;font-family:Bitstream Vera Sans"
     id="path605" />
  <path
     d="M 104.53330,26.217630 L 104.57090,43.791670 C 109.12910,43.791670 113.72490,43.791670 113.72500,39.025210 C 113.72500,33.669010 108.94070,33.669010 104.57090,33.669010 C 107.92360,33.669010 111.91670,33.669010 111.91670,29.946510 C 111.91670,26.217630 107.96130,26.217630 104.53330,26.217630 z "
     style="font-size:12.000000;color:#000000;fill:none;fill-rule:evenodd;stroke:#000000;stroke-width:2.5963399;stroke-linecap:round;stroke-linejoin:round;stroke-dashoffset:0.0000000;font-family:Bitstream Vera Sans"
     id="path614" />
  <g
     transform="matrix(2.733041,0.000000,0.000000,2.733041,43.32591,-92.38012)"
     style="font-size:12.000000;color:#000000;stroke-dashoffset:0.0000000;font-family:Bitstream Vera Sans"
     id="g6788">
    <path
       d="M 124.26540,414.21040 L 146.36900,399.83310 L 146.64100,520.24240"
       transform="matrix(5.066564e-2,0.000000,0.000000,5.066564e-2,-2.826158,23.30106)"
       style="fill:none;fill-rule:evenodd;stroke:#000000;stroke-width:18.750000;stroke-linecap:round;stroke-linejoin:round;stroke-dashoffset:0.0000000"
       id="path6782" />
    <path
       d="M 119.83850,520.24250 L 170.98340,520.24250"
       transform="matrix(5.066564e-2,0.000000,0.000000,5.066564e-2,-2.826158,23.30106)"
       style="fill:none;fill-rule:evenodd;stroke:#000000;stroke-width:18.750000;stroke-linecap:round;stroke-linejoin:round;stroke-dashoffset:0.0000000"
       id="path6783" />
  </g>
  <path
     d="M 51.136390,77.029610 C 51.004950,74.663700 54.290880,72.955110 55.999570,72.955110 C 57.839680,72.955110 60.468420,73.875110 60.336990,76.898210 C 60.074130,81.761300 51.399260,86.230200 51.399260,90.173300 L 60.336990,90.173300 L 60.336990,90.173300"
     style="font-size:12.000000;color:#000000;fill:none;fill-rule:evenodd;stroke:#000000;stroke-width:2.5963891;stroke-linecap:round;stroke-linejoin:round;stroke-dashoffset:0.0000000;font-family:Bitstream Vera Sans"
     id="path6791" />
  <path
     d="M 50.674560,123.42120 C 50.674560,120.92390 53.434740,119.34660 55.932060,119.34660 C 58.429340,119.34660 60.532360,121.18680 60.532340,123.28980 C 60.532340,126.31280 57.772180,127.62720 55.012000,127.62720 C 57.772180,127.62720 60.926630,129.07300 60.795200,132.62180 C 60.926630,135.51340 58.166480,137.22210 55.800600,137.22210 C 53.434740,137.22210 50.805990,135.25050 50.805990,133.67330"
     style="font-size:12.000000;color:#000000;fill:none;fill-rule:evenodd;stroke:#000000;stroke-width:2.5963891;stroke-linecap:round;stroke-linejoin:round;stroke-dashoffset:0.0000000;font-family:Bitstream Vera Sans"
     id="path6792" />
  <path
     d="M 32.661800,90.351230 L 37.993950,72.777180 L 42.949670,90.351230 L 40.857860,83.040440 L 34.883460,83.040440 L 32.661800,90.351230 z "
     style="font-size:12.000000;color:#000000;fill:none;fill-rule:evenodd;stroke:#000000;stroke-width:2.5963399;stroke-linecap:round;stroke-linejoin:round;stroke-dashoffset:0.0000000;font-family:Bitstream Vera Sans"
     id="path1849" />
  <path
     d="M 32.661800,137.07140 L 37.993950,119.49740 L 42.949670,137.07140 L 40.857860,129.76060 L 34.883460,129.76060 L 32.661800,137.07140 z "
     style="font-size:12.000000;color:#000000;fill:none;fill-rule:evenodd;stroke:#000000;stroke-width:2.5963399;stroke-linecap:round;stroke-linejoin:round;stroke-dashoffset:0.0000000;font-family:Bitstream Vera Sans"
     id="path1850" />
  <path
     d="M 104.53330,72.777180 L 104.57090,90.351230 C 109.12910,90.351230 113.72490,90.351230 113.72500,85.584770 C 113.72500,80.228570 108.94070,80.228570 104.57090,80.228570 C 107.92360,80.228570 111.91670,80.228570 111.91670,76.506070 C 111.91670,72.777180 107.96130,72.777180 104.53330,72.777180 z "
     style="font-size:12.000000;color:#000000;fill:none;fill-rule:evenodd;stroke:#000000;stroke-width:2.5963399;stroke-linecap:round;stroke-linejoin:round;stroke-dashoffset:0.0000000;font-family:Bitstream Vera Sans"
     id="path1851" />
  <path
     d="M 104.53330,119.49740 L 104.57090,137.07140 C 109.12910,137.07140 113.72490,137.07140 113.72500,132.30490 C 113.72500,126.94870 108.94070,126.94870 104.57090,126.94870 C 107.92360,126.94870 111.91670,126.94870 111.91670,123.22620 C 111.91670,119.49740 107.96130,119.49740 104.53330,119.49740 z "
     style="font-size:12.000000;color:#000000;fill:none;fill-rule:evenodd;stroke:#000000;stroke-width:2.5963399;stroke-linecap:round;stroke-linejoin:round;stroke-dashoffset:0.0000000;font-family:Bitstream Vera Sans"
     id="path1852" />
  <g
     transform="matrix(2.733041,0.000000,0.000000,2.733041,113.1449,-92.38012)"
     style="font-size:12.000000;color:#000000;stroke-dashoffset:0.0000000;font-family:Bitstream Vera Sans"
     id="g1853">
    <path
       d="M 124.26540,414.21040 L 146.36900,399.83310 L 146.64100,520.24240"
       transform="matrix(5.066564e-2,0.000000,0.000000,5.066564e-2,-2.826158,23.30106)"
       style="fill:none;fill-rule:evenodd;stroke:#000000;stroke-width:18.750000;stroke-linecap:round;stroke-linejoin:round;stroke-dashoffset:0.0000000"
       id="path1854" />
    <path
       d="M 119.83850,520.24250 L 170.98340,520.24250"
       transform="matrix(5.066564e-2,0.000000,0.000000,5.066564e-2,-2.826158,23.30106)"
       style="fill:none;fill-rule:evenodd;stroke:#000000;stroke-width:18.750000;stroke-linecap:round;stroke-linejoin:round;stroke-dashoffset:0.0000000"
       id="path1855" />
  </g>
  <path
     d="M 120.95540,77.029610 C 120.82390,74.663700 124.10990,72.955110 125.81860,72.955110 C 127.65870,72.955110 130.28740,73.875110 130.15600,76.898210 C 129.89310,81.761300 121.21820,86.230200 121.21820,90.173300 L 130.15600,90.173300 L 130.15600,90.173300"
     style="font-size:12.000000;color:#000000;fill:none;fill-rule:evenodd;stroke:#000000;stroke-width:2.5963891;stroke-linecap:round;stroke-linejoin:round;stroke-dashoffset:0.0000000;font-family:Bitstream Vera Sans"
     id="path1856" />
  <path
     d="M 120.49360,123.42120 C 120.49360,120.92390 123.25370,119.34660 125.75110,119.34660 C 128.24830,119.34660 130.35140,121.18680 130.35130,123.28980 C 130.35130,126.31280 127.59120,127.62720 124.83100,127.62720 C 127.59120,127.62720 130.74560,129.07300 130.61420,132.62180 C 130.74560,135.51340 127.98550,137.22210 125.61960,137.22210 C 123.25370,137.22210 120.62500,135.25050 120.62500,133.67330"
     style="font-size:12.000000;color:#000000;fill:none;fill-rule:evenodd;stroke:#000000;stroke-width:2.5963891;stroke-linecap:round;stroke-linejoin:round;stroke-dashoffset:0.0000000;font-family:Bitstream Vera Sans"
     id="path1857" />
</svg>
