<?xml version="1.0" encoding="UTF-8" standalone="no"?>
<!DOCTYPE svg PUBLIC "-//W3C//DTD SVG 20010904//EN"
"http://www.w3.org/TR/2001/REC-SVG-20010904/DTD/svg10.dtd">
<!-- Created with Inkscape ("http://www.inkscape.org/") -->
<svg
   version="1.0"
   x="0.0000000"
   y="0.0000000"
   width="162.50000"
   height="162.50000"
   id="svg101"
   sodipodi:version="0.32"
   inkscape:version="0.36"
   sodipodi:docname="/usr/local/lib/X11/themes/Outline-svg/webedit.svg"
   sodipodi:docbase="/usr/local/lib/X11/themes/Outline-svg"
   xmlns="http://www.w3.org/2000/svg"
   xmlns:inkscape="http://www.inkscape.org/namespaces/inkscape"
   xmlns:sodipodi="http://sodipodi.sourceforge.net/DTD/sodipodi-0.dtd"
   xmlns:xlink="http://www.w3.org/1999/xlink">
  <sodipodi:namedview
     id="base" />
  <defs
     id="defs14">
    <linearGradient
       id="linearGradient571">
      <stop
         style="stop-color:#000;stop-opacity:1;"
         offset="0"
         id="stop572" />
      <stop
         style="stop-color:#fff;stop-opacity:1;"
         offset="1"
         id="stop573" />
    </linearGradient>
    <linearGradient
       xlink:href="#linearGradient571"
       id="linearGradient574"
       x1="0.953642"
       y1="0.937500"
       x2="0.066225"
       y2="0.000000" />
  </defs>
  <ellipse
     cx="81.469795"
     cy="76.767242"
     rx="61.576012"
     ry="61.576015"
     transform="matrix(1.133609,0.000000,0.000000,1.133609,-11.68347,-6.318512)"
     style="font-size:12.000000;fill:#ffc100;fill-opacity:1;fill-rule:evenodd;stroke:#4a4b4f;stroke-width:2.20535;stroke-linecap:round;stroke-linejoin:round;stroke-dasharray:none;stroke-dashoffset:0;"
     id="path1504" />
  <path
     style="fill:#ff7300;fill-rule:evenodd;stroke:black;stroke-opacity:1;stroke-width:1pt;stroke-linejoin:miter;stroke-linecap:butt;fill-opacity:0.325926;"
     d="M 87.9098 90.041 C 88.0874 90.041 88.265 90.041 88.4426 90.041 C 87.7322 90.041 89.8634 90.041 90.5738 90.041 C 93.4013 90.142 95.5091 90.9183 98.0328 91.6393 C 100.519 91.6393 103.005 91.6393 105.492 91.6393 C 108.058 91.6393 109.075 92.0769 109.754 90.041 C 111.206 88.5894 111.842 86.0555 112.951 84.7131 C 113.299 81.7925 114.306 80.6737 114.549 77.7869 C 115.124 79.5127 115.528 82.2758 115.615 84.7131 C 116.508 87.095 116.777 88.8938 118.279 91.1066 C 119.838 93.0155 121.207 94.8935 122.541 97.5 C 124.323 99.5409 124.872 100.829 126.27 102.295 C 127.105 103.686 127.336 104.567 127.336 107.09 C 127.336 109.419 127.557 112.509 126.803 114.016 C 126.34 115.984 125.465 118.028 124.672 119.877 C 124.383 123.31 122.982 123.322 121.475 125.205 C 119.42 125.765 117.776 126.334 116.68 127.869 C 114.834 128.685 114.298 130.191 113.484 132.131 C 112.108 135.455 111.305 132.385 110.287 130 C 109.72 127.682 109.449 127.389 106.557 127.336 C 105.05 126.583 101.96 126.803 99.6311 126.803 C 96.6841 126.803 95.2832 127.185 92.7049 127.869 C 91.2194 128.879 89.1045 129.219 87.9098 130.533 C 85.8319 131.444 84.0145 132.23 82.0492 133.197 C 79.4292 133.197 78.9255 133.343 77.7869 131.066 C 76.1915 129.311 74.9311 127.399 73.5246 125.205 C 72.9831 123.129 71.7961 120.88 71.3934 118.279 C 70.5451 115.734 70.8531 113.463 71.9262 111.885 C 72.4293 109.747 73.238 108.287 74.0574 106.557 C 74.589 104.608 75.3915 102.912 76.1885 101.23 C 76.6983 99.0632 77.5831 97.6885 77.7869 94.8361 C 78.3223 92.5273 79.5585 91.3615 79.918 88.9754 C 81.91 87.8103 82.9713 87.5935 84.1803 84.7131 C 85.7705 83.3995 86.1997 81.3291 86.8443 85.2459 C 87.0242 86.8653 87.4842 87.629 87.9098 90.041 z "
     id="path577" />
  <path
     style="fill:#ff7300;fill-rule:evenodd;stroke:black;stroke-opacity:1;stroke-width:1pt;stroke-linejoin:miter;stroke-linecap:butt;fill-opacity:1;"
     d="M 88.9754 65 C 89.153 65 89.3306 65 89.5082 65 C 88.7978 65 90.929 65 91.6393 65 C 93.8916 64.6956 96.006 63.8892 98.5656 63.4016 C 101.192 63.2141 103.458 62.6416 106.025 62.3361 C 109.1 62.3727 110.571 62.8767 111.885 64.4672 C 114.507 64.7056 115.489 65.4392 117.746 66.5984 C 120.047 66.5984 122.226 66.7172 123.607 67.6639 C 122.514 69.0189 120.74 68.7295 118.279 68.7295 C 115.615 68.7295 112.951 68.7295 110.287 68.7295 C 107.275 68.9446 105.664 69.6345 102.828 69.7951 C 101.43 70.4939 97.8283 70.6716 96.4344 71.3934 C 93.0342 71.3934 92.3311 70.9842 90.5738 68.7295 C 89.7199 67.5911 89.5993 66.6636 88.9754 65 z "
     id="path578" />
  <path
     style="fill:#ff7300;fill-rule:evenodd;stroke:black;stroke-opacity:1;stroke-width:1pt;stroke-linejoin:miter;stroke-linecap:butt;fill-opacity:0.333333;"
     d="M 76.1885 63.4016 C 76.1885 63.224 76.1885 63.0464 76.1885 62.8689 C 76.1885 64.3072 76.1537 63.5757 76.7213 60.7377 C 77.3241 58.5276 78.2982 57.5412 79.3852 55.9426 C 80.3808 54.4785 81.6507 53.2087 83.1148 52.2131 C 84.4137 50.9746 85.676 49.8669 87.3771 49.0164 C 88.545 47.4181 90.8058 46.4453 92.1721 45.2869 C 93.7513 44.2131 94.8901 43.0708 96.4344 41.5574 C 97.215 39.7667 97.9808 40.1563 98.0328 37.2951 C 98.0328 34.8087 98.0328 32.3224 98.0328 29.8361 C 97.3994 27.936 97.3253 25.4864 96.4344 23.4426 C 96.4028 20.7903 96.116 18.6782 94.8361 17.0492 C 93.2318 16.2611 91.4775 14.4482 88.9754 13.8525 C 86.4891 13.8525 84.0027 13.8525 81.5164 13.8525 C 78.9689 13.2156 77.0048 12.7869 74.0574 12.7869 C 71.3421 12.7869 69.2567 13.0324 67.1311 13.3197 C 65.9157 14.6567 64.0593 15.146 61.8033 15.4508 C 59.5359 15.7572 57.5997 16.2642 55.9426 17.0492 C 54.1686 17.6787 52.597 18.8254 51.1475 20.2459 C 49.2762 21.3064 48.0832 22.5773 46.3525 23.4426 C 44.6631 24.589 42.2156 24.7964 41.0246 26.1066 C 39.2475 27.2001 38.3877 28.0871 37.2951 30.3689 C 35.8244 31.4719 35.7874 32.4897 33.5656 33.0328 C 32.388 34.5048 30.3059 35.7886 28.7705 37.2951 C 27.2312 38.0856 26.4966 38.4549 26.1066 40.4918 C 24.6568 41.6894 23.7854 43.0077 22.377 44.7541 C 21.3267 46.461 20.7476 47.7087 19.7131 50.082 C 19.0626 51.7896 18.6475 53.9264 18.6475 56.4754 C 19.653 57.6925 19.8366 60.7844 20.7787 62.3361 C 22.4083 63.2366 26.0829 63.0114 28.2377 62.3361 C 31.2572 62.1204 32.4076 61.2454 34.0984 60.2049 C 36.1722 58.8073 36.8877 59.4026 38.8934 60.2049 C 40.8767 61.8043 41.6478 62.688 44.2213 64.4672 C 47.445 64.4672 50.9251 64.7041 53.8115 63.9344 C 56.6393 63.7744 56.9462 62.6585 57.0082 66.0656 C 56.8249 68.6317 56.3812 71.0683 55.9426 73.5246 C 55.9426 75.1707 55.806 76.8943 56.4754 77.7869 C 58.9463 77.7869 61.7138 77.8167 63.4016 77.2541 C 65.0766 75.2602 65.2709 74.274 65.5328 71.3934 C 66.3098 69.8394 66.5699 66.8604 66.5984 64.4672 C 68.0815 63.4587 70.562 62.9724 72.9918 62.3361 C 74.481 62.3361 73.3594 62.27 76.1885 63.4016 z "
     id="path579" />
  <path
     style="fill:#ff7300;fill-rule:evenodd;stroke:black;stroke-opacity:1;stroke-width:1pt;stroke-linejoin:miter;stroke-linecap:butt;fill-opacity:0.325926;"
     d="M 15.4508 72.459 C 16.6855 72.2783 21.948 71.5365 23.9754 70.8607 C 27.1212 70.636 28.0996 69.9668 29.3033 68.1967 C 31.038 67.0171 31.6121 66.0292 31.9672 63.4016 C 32.679 62.9271 32.9128 62.3507 33.0328 61.2705 C 33.8939 63.0885 34.639 64.4083 35.1639 67.1311 C 34.9718 69.6287 34.2979 71.2634 34.0984 74.0574 C 34.1975 76.8322 34.7303 79.1288 35.6967 81.5164 C 37.061 84.0077 38.641 85.4139 38.8934 88.4426 C 39.6359 90.6701 39.4262 93.3523 39.4262 95.9016 C 39.3159 98.8798 38.5305 99.6544 37.8279 101.762 C 37.6493 104.262 37.3492 106.874 36.7623 109.221 C 36.4864 111.263 36.1127 113.701 35.6967 115.615 C 35.6967 118.101 35.6967 120.587 35.6967 123.074 C 35.6967 125.105 36.0052 126.237 34.6311 127.336 C 33.3778 125.757 31.3846 123.206 29.8361 122.008 C 28.9453 120.561 27.3527 118.731 26.6393 116.68 C 25.1274 115.622 24.032 113.451 22.377 111.885 C 21.3908 109.826 19.9085 107.818 18.1148 106.025 C 17.0826 103.474 16.1944 101.516 15.9836 98.5656 C 15.1863 97.026 14.9233 93.7915 14.3852 91.6393 C 14.3852 89.153 14.3852 86.6667 14.3852 84.1803 C 14.8317 81.68 15.3553 79.3955 15.4508 76.7213 C 14.9231 74.6104 14.8365 75.7352 15.4508 72.459 z "
     id="path580" />
  <path
     style="fill:#a80000;fill-rule:evenodd;stroke:black;stroke-opacity:1;stroke-width:1pt;stroke-linejoin:miter;stroke-linecap:butt;fill-opacity:1;"
     d="M 149.18 24.5082 C 45.8197 107.623 45.8197 107.623 45.8197 107.623 L 55.9426 111.352 L 55.9426 111.352 L 59.1393 118.279 L 59.1393 118.279 L 58.6066 124.672 L 58.6066 124.672 L 160.902 41.0246 L 160.902 41.0246 L 158.238 29.3033 L 158.238 29.3033 L 153.975 25.5738 L 153.975 25.5738 L 149.18 24.5082 z "
     id="path567" />
  <path
     style="fill:#cc9757;fill-rule:evenodd;stroke:black;stroke-opacity:1;stroke-width:1pt;stroke-linejoin:miter;stroke-linecap:butt;fill-opacity:1;"
     d="M 45.2869 108.689 C 35.1639 125.738 35.6967 126.27 35.6967 126.27 L 38.3607 126.803 L 37.8279 128.934 L 37.8279 128.934 L 58.0738 124.672 L 58.0738 124.672 L 58.6066 119.344 L 58.6066 119.344 L 55.9426 112.418 L 55.9426 112.418 L 45.2869 108.689 z "
     id="path568" />
  <path
     style="fill:#5c0000;fill-rule:evenodd;stroke:none;stroke-opacity:1;stroke-width:1pt;stroke-linejoin:miter;stroke-linecap:butt;fill-opacity:0.637037;"
     d="M 159.526 35.6905 L 58.1323 117.346 L 58.673 124.106 L 161.148 41.0982 L 159.526 35.6905 z "
     id="path576" />
  <path
     sodipodi:type="arc"
     style="fill:#241c1e;fill-rule:evenodd;stroke:none;fill-opacity:1;stroke-opacity:1;stroke-width:3pt;stroke-linejoin:miter;stroke-linecap:butt;"
     id="path581"
     d="M 38.123962 128.161392 A 1.757488 1.622295 0 1 0 34.608986,128.161392 A 1.75749 1.6223 0 1 0 38.124 128.161 L 36.366474 128.161392 z"
     sodipodi:cx="36.366474"
     sodipodi:cy="128.161392"
     sodipodi:rx="1.757488"
     sodipodi:ry="1.622295"
     transform="matrix(1.230769,0.000000,0.000000,1.166667,-8.797830,-21.08982)" />
</svg>
