<?xml version="1.0" encoding="UTF-8"?>
<svg xmlns="http://www.w3.org/2000/svg" version="1.1" height="32px" width="32px" viewBox="0 0 192 192">
  <path style="fill:#616161;" d="m 10,90 15,0 0,-15 12,0 0,15 149,0 0,12 -15,0 0,15 -12,0 0,-15 -149,0 z"/>
  <g transform="scale(0.7)">
  <g transform="translate(15,15)">
  <path style="fill:#EDEDED;stroke:#919191;stroke-width:6;" d="m 70,10 108,0 a 12 12 0 0 1 12,12  l 0,198 a 12,12 0 0 1 -12,12 l -108,0 a 12,12 0 0 1 -12,-12 l 0,-198 a 12,12 0 0 1 12,-12 z"/>
  <path style="fill:#919191;" d="m 80,40 88,0 0,20 -88,0 z m 0,40 88,0 0,20 -88,0 z m 0,40 88,0 0,20 -88,0 z m 0,40 88,0 0,20 -88,0 z"/>
  <circle style="fill:#4CAF50;" cx="80" cy="195" r="6"/>
  <circle style="fill:#E91E63;" cx="168" cy="195" r="6"/>
  </g>
  </g>
</svg>
