<?xml version="1.0" encoding="iso-8859-1"?>
<!DOCTYPE svg PUBLIC "-//W3C//DTD SVG 1.0//EN"
"http://www.w3.org/TR/2001/REC-SVG-20010904/DTD/svg10.dtd">
<!-- Generated by EVE, www.myeve.org -->

<svg width="    750px" height="    220px" viewBox="     6     55   601   176" preserveAspectRatio="none"
 text-rendering="optimizeLegibility" shape-rendering="crispEdges" >

<ellipse cx="194" cy="138" rx="20" ry="20" fill="#80FF80" stroke="#000000" stroke-width="1" />
<polyline fill="none" stroke="#000000" stroke-width="1"
 points=" 231,167 251,177 261,197 256,212 241,225 221,225 206,212 201,197 224,125" />
<rect x="209" y="103" width="48" height="24" rx="0" ry="0" fill="#FF8000" stroke="#000000" stroke-width="1" />
<text  font-family="Times New Roman" font-size="12" x="332" y="67">
 Element #3.
 <tspan x="332" y="82">Who owns me?: blank </tspan>

 <tspan x="332" y="97">Lock: ticked    CANNOT EDIT COMP-OBJ </tspan>

 <tspan x="332" y="112">Lock: not-ticked   CAN EDIT COMP-OBJ </tspan>
 </text>
<text  font-family="Times New Roman" font-size="12" x="110" y="194" text-anchor="end">
 Element #1.
 <tspan x="110" y="209" text-anchor="end">Lock: ticked </tspan>

 <tspan x="110" y="224" text-anchor="end">Who owns me?: 3 </tspan>
 </text>
<text  font-family="Times New Roman" font-size="12" x="350" y="160">
 Element #2.
 <tspan x="350" y="175">Who owns me?: 3 </tspan>

 <tspan x="350" y="190">Lock: ticked   LOCKED TO ELEMENT #3 </tspan>
 </text>
<path  fill="none" stroke="#000000" stroke-width="1"
 d=" M 324 64 L 270 94" />
<polygon fill="#000000" stroke="#000000" stroke-width="1"
 points=" 277,92 270,94 273,88" />
<path  fill="none" stroke="#000000" stroke-width="1"
 d=" M 342 157 L 273 177" />
<polygon fill="#000000" stroke="#000000" stroke-width="1"
 points=" 279,177 273,177 277,173" />
<path  fill="none" stroke="#000000" stroke-width="1"
 d=" M 116 189 L 163 156" />
<polygon fill="#000000" stroke="#000000" stroke-width="1"
 points=" 156,156 163,156 158,162" />

</svg>
