<?xml version="1.0" encoding="UTF-8"?>
<svg xmlns="http://www.w3.org/2000/svg" version="1.1" height="24px" width="24px" viewBox="0 0 192 192">
  <path style="fill:#545454;stroke:#9E9E9E;stroke-width:4;" d="m 64,20 96,0 a 9 9 0 0 1 9,9  l 0,96 a 9,9 0 0 1 -9,9 l -90,0 -15,-15 0,-90 a 9,9 0 0 1 9,-9 z"/>
  <path style="fill:#9E9E9E;" d="m 96,84 60,0 0,45 -60,0 z"/>
  <path style="fill:#545454;stroke:#9E9E9E;stroke-width:4;" d="m 32,52 96,0 a 9 9 0 0 1 9,9  l 0,96 a 9,9 0 0 1 -9,9 l -90,0 -15,-15 0,-90 a 9,9 0 0 1 9,-9 z"/>
  <path style="fill:#9E9E9E;" d="m 52,116 60,0 0,45 -60,0 z"/>
</svg>
