<?xml version="1.0" encoding="UTF-8"?>
<svg xmlns="http://www.w3.org/2000/svg" version="1.1" height="64px" width="64px" viewBox="0 0 100 100">
  <path style="fill:#222;stroke:#666;stroke-width:0,5" d="m 80,12 c -10,0 -10,0 -10,6 l 20,0 c 0,-6 0,-6 -10,-6"/>
  <path style="fill:#666;stroke:#222;stroke-width:2" d="M 96,18 4,18 c -2,0 -3,2 -3,4 l 0,60 c 0,2 1,3 3,3 l 92,0 c 2,0 3,-1 3,-3 l 0,-61 c 0,-4 -3,-3 -3,-3"/>
  <path style="fill:#ddd;stroke:#222;stroke-width:1" d="m 8,23 22,0 c 2,0 2,11 0,11 L 8,34 C 6,34 6,23 8,23 z m 69,54 15,0 c 2,0 2,3 0,3 l -15,0 c -2,0 -2,-3 0,-3 z"/>
  <path style="fill:#222;stroke:#aaa;stroke-width:1" d="M 60,27 C 74,27 83,39 83,52 83,66 72,74 60,74 47,74 37,64 37,51 37,38 47,27 60,27 z"/>
  <path style="fill:#999;stroke:#ddd;stroke-width:1" d="m 60,34 c 9,0 16,9 16,17 0,8 -7,16 -16,16 -9,0 -16,-8 -16,-16 0,-8 7,-17 16,-17 z"/>
  <path style="fill:#ddd" d="m 71,45 c 6,13 -8,22 -17,17 8,0 16,-6 17,-17 z"/>
</svg>
