<?xml version="1.0" encoding="UTF-8"?>
<svg xmlns="http://www.w3.org/2000/svg" version="1.1" height="64px" width="64px" viewBox="0 0 100 100">
  <path style="fill:#444;stroke:#111" d="m 3,76 0,6 c 0,0 0,2 2,3 4.6,2 26,7 49,10 4,1 7,-2 7,-2 L 97,58 97,51 59,88 z"/>
  <path style="fill:#666;stroke:#555" d="M 97,52 60,88 c 0,0 -6,4 -20,4 C 26,92 17,92 2,81 2,80 1,76 1,76 c 0,0 -0.17,0 2,2 12,10 27,11 39,11 12,0 19,-6 19,-6 L 97,50 z"/>
  <path style="fill:#999;stroke:#ddd" d="M 97,50 84,48 81,50 55,45 58,43 51,42 3,73 c 0,0 -2,1 -2,3 3,4 7.2,6 14,9 10,4 23,4 29,4 12,0 19,-8 19,-8 z"/>
  <path style="fill:#444;stroke:#111" d="m 15,74 c 8,3 11,1 20,4 5,2 12,3 12,3 0,0 -3,1 -3,6 0,0 -13,1 -22,-2 -9,-3 -10,-5 -10,-5 0,0 -1,-3 3,-6 z"/>
  <path style="fill:#A9DCFF;stroke:#555" d="M 47,48 18,67 c 0,0 -5,3 -1,4 5,1 33,7 36,8 6,1 8,-2 8,-2 L 83,58 c 0,0 6,-4 1,-5 -6,-1 -28,-5 -31,-6 -4,-1 -6,1 -6,1 z"/>
  <circle cx="27" cy="81" r="3" fill="#20C738" stroke="#003B00"/>
  <path style="fill:#aaa;stroke:#666" d="M 93,47 94,45 74,11 C 74,11 71,7 67,7 63,7 57,5.4 52,4 45,2 37,2 30,2 23,2 19,1 19,3 l 0,1 c 12,1 39,4 46,5 3,0.4 6,2 8,5 2,3 20,33 20,33 z"/>
  <path style="fill:#666;stroke:#888" d="m 93,47 -9,-1 -2,-3 -25,-4 1,2 -6,-1 c 0,0 -5,0 -8,-4 C 41,32 19,7 19,7 c 0,0 -3,-3 0,-3 3,0 46,5 46,5 0,0 5,0 10,8 2,3 18,30 18,30 l 0,0"/>
  <path style="fill:#3C5E77;stroke:#999" d="M 23,7 65,11 85,42 48,36 z"/>
  <path style="fill:#222" d="m 55,45 3,-2 0,-2 -1,-2 25,4 2,3 0,2 -3,2 z"/>
</svg>
