<?xml version="1.0" encoding="UTF-8"?>
<svg xmlns="http://www.w3.org/2000/svg" version="1.1" height="64px" width="64px" viewBox="0 0 100 100">
  <path style="fill:#cccccc;" d="m 2.1,87 c 0,-5 0,-16 0,-20 0,-1 0,-3 2,-3 4,0 29,0 31,0 2,0 2,2 2,4 0,4 0,17 0,19 0,1 0,2 -3,2 -2,0 -28,0 -30,0 -2,0 -2,-2 -2,-2 z"/>
  <path style="fill:#333333;" d="m 4,66 31,0 0,21 -31,0 z"/>
  <path style="fill:#cccccc;" d="m 63,87 c 0,-5 0,-16 0,-20 0,-1 0,-3 2,-3 4,0 29,0 31,0 2,0 2,2 2,4 0,4 0,17 0,19 0,1 0,2 -3,2 -2,0 -28,0 -30,0 -2,0 -2,-2 -2,-2 z"/>
  <path style="fill:#333333;" d="m 65,66 31,0 0,21 -31,0 z"/>
  <path style="fill:#cccccc;" d="m 32,35 c 0,-5 0,-16 0,-20 0,-1 0,-3 2,-3 4,0 29,0 31,0 2,0 2,2 2,4 0,4 0,17 0,19 0,1 0,2 -3,2 -2,0 -28,0 -30,0 -2,0 -2,-2 -2,-2 z"/>
  <path style="fill:#333333;" d="m 34,14 31,0 0,21 -31,0 z"/>
  <path style="fill:#222222;" d="m 2,49 13.5,0 a 5,5 0 0 1 9,0 l 20,0 a 5,5 0 0 1 3,-3 l 0,-9 3.5,0 0,9 a 5,5 0 0 1 3,3 l 21.5,0 a 5,5 0 0 1 9,0 l 13.5,0 0,4 -13.25,0 a 5,5 0 0 1 -3,3 l 0,8 -3.5,0 0,-8 a 5,5 0 0 1 -3,-3 l -21.5,0 a 5,5 0 0 1 -9,0 l -20,0 a 5,5 0 0 1 -3,3 l 0,8 -3.5,0 0,-8 a 5,5 0 0 1 -3,-3 l -13.25,0 z"/>
</svg>
