<?xml version="1.0" encoding="UTF-8"?>
<svg xmlns="http://www.w3.org/2000/svg" version="1.1" height="24px" width="24px" viewBox="0 0 100 100">
  <path style="fill:#E3E3BF;" d="m 19,4 62,0 q 5,0 5,5 l 0,82 q 0,5 -5,5 l -62,0 q -5,0 -5,-5 l 0,-82 q 0,-5 5,-5 z"/>
  <path style="fill:none;stroke:#444444;stroke-width:2px;" d="m 21,26 54,0 -54,0 z m 0,9 54,0 -54,0 z m 0,9 54,0 -54,0 z m 0,8 23,0 -23,0 z m 0,10 54,0 -54,0 z"/>
  <path style="fill:#FFEB3B;stroke:#BF3603;stroke-width:6;" d="m 25,75 50,0 -25,17 z"/>
</svg>
