<?xml version="1.0" encoding="UTF-8"?>
<svg xmlns="http://www.w3.org/2000/svg" version="1.1" height="24px" width="24px" viewBox="0 0 100 100">
  <path style="fill:#4F6C50;" d="m 10,10 5,75 q 0.1,5 5,5 l 60,0 q 5,-0.1 5,-5 l 5,-75 z"/>
  <path style="fill:#6EBBE1;stroke:none;" d="m 25.3,33 a 30,30 0 0 1 49.4,0 l -1.5,5.4 -5.5,-1.4 a 22,22 1 0 0 -35.4,0 l -0.7,-5.4 z"/>
  <g transform="rotate(120 50 50)">
  <path style="fill:#E16E6E;stroke:none;" d="m 25.3,33 a 30,30 0 0 1 49.4,0 l -1.5,5.4 -5.5,-1.4 a 22,22 1 0 0 -35.4,0 l -0.7,-5.4 z"/>
  </g>
  <g transform="rotate(240 50 50)">
  <path style="fill:#6EE182;stroke:none;" d="m 25.3,33 a 30,30 0 0 1 49.4,0 l -1.5,5.4 -5.5,-1.4 a 22,22 1 0 0 -35.4,0 l -0.7,-5.4 z"/>
  </g>
</svg>
