<?xml version="1.0" encoding="UTF-8"?>
<svg xmlns="http://www.w3.org/2000/svg" version="1.1" height="48px" width="48px" viewBox="0 0 100 100">
  <defs>
  <radialGradient id="RG1" cx="50%" cy="35%" fx="50%" fy="35%" r="28%">
  <stop style="stop-color:rgb(103,155,203);stop-opacity:0.75;" offset="0%"/>
  <stop style="stop-color:rgb(18,49,65);stop-opacity:1;" offset="100%"/>
  </radialGradient>
  </defs>
  <ellipse cx="35" cy="34" rx="32" ry="30" style="stroke-width:3;stroke:#123141;fill:none;"/>
  <ellipse cx="35" cy="34" rx="32" ry="30" style="fill:url(#RG1);fill-opacity:1;fill-rule:nonzero"/>
  <path style="fill:#ffffff;stroke:none;" d="m 76,31 0,13 13,0 z"/>
  <path style="fill:#EBEBDA;stroke:#777777;stroke-width:2;" d="m 76,31 0,13 13,0 0,54 -52,0 0,-67 39,0 13,13"/>
  <path style="fill:none;stroke:#444444;stroke-width:2px;" d="m 43,47 40,0 -40,0 z m 0,7 40,0 -40,0 z m 0,5 40,0 -40,0 z m 0,7 17,0 -17,0 z m 0,9 40,0 -40,0 z"/>
  <path style="fill:#CF9100;stroke:#333333;stroke-width:2;" d="M 46,80 90,32 c 0,0 4,1 6,4 2,2 2,5 2,5 L 55,87 44,90 z"/>
  <path style="fill:#eeeeee" d="M 89,36 49,80 51,81 91,37 z"/>
  <path style="fill:#333333" d="m 44,90 4,-1 -3,-4 z"/>
  <ellipse cx="35" cy="34" rx="32" ry="30" style="fill:url(#RG1);fill-opacity:1;fill-rule:nonzero"/>
  <g style="fill:none;stroke:#aaaaaa;stroke-width:1.5px;stroke-linecap:butt;" >
  <path d="M 36,64 C 22,56 19,46 19,34 19,22 26,10 36,4 l 0,60 C 36,64 54,55 54,34 54,13 36,4 36,4" />
  <path d="m 4,34 63,0 0,0"/>
  <path d="m 13,15 c 0,0 12,7 23,7 13,0 23,-7 23,-7"/>
  <path d="m 13,54 c 0,0 9,-7 23,-7 16,0 23,7 23,7"/>
  </g>
</svg>
