<?xml version="1.0" encoding="UTF-8"?>
<svg xmlns="http://www.w3.org/2000/svg" version="1.1" height="48px" width="48px" viewBox="0 0 100 100">
  <ellipse cx="50" cy="50" rx="48" ry="48" style="fill:#659BF5"/>
  <path d="M 14,9 7,26.5 A 49,49 0 1 0 81,13 Q 86,20 88,33 Q 79,18 65,11 Q 80,26 79,49 Q 76,41 70,36 A 24,24 0 0 1 43,74 Q 57,70 57,56 L 49,56 A 9,9 0 1 1 35,49 L 44,43 L 39,39 Q 40,34 38,31 L 46,30 L 45,27 L 36,25 L 34,12 L 28,19 Q 23,17 18,19 z" style="fill:#EF8043"/>
  <path d="M 39,39 Q 40,34 38,31 L 46,30 L 47,32 z M 57,56 L 49,56 Q 53,50 57,56 z" style="fill:#FEF7CE"/>
  <path d="M 45,27 L 47,32 L 51,28 z" style="fill:#2D2D2D" />
</svg>
