<?xml version="1.0" encoding="UTF-8"?>
<svg xmlns="http://www.w3.org/2000/svg" version="1.1" height="48px" width="48px" viewBox="0 0 100 100">
  <path style="fill:#6B6551;stroke:#999;stroke-width:2;stroke-linejoin:round" d="M 16,37 19,36 19,15 C 19,42 77,32 77,9 L 77,36 C 75,72 40,76 17,50 z"/>
  <path style="fill:#333;stroke:#000;stroke-width:2;" transform="rotate(45 10 45)" d="M 17,38 A 10 7 0 1 1 16,37 z"/>
  <g style="fill:#FFF;stroke:#000;stroke-width:2;">
  <ellipse cx="30" cy="38" rx="7" ry="7"/>
  <ellipse cx="50" cy="38" rx="10" ry="10"/>
  </g>
  <g style="fill:#000;stroke:none;">
  <path d="M 40,57 C 55,57 56,54 57,49 C 58,56 57,61 40,57 z"/>
  <ellipse cx="32" cy="38" rx="4" ry="4"/>
  <ellipse cx="52" cy="38" rx="6" ry="6"/>
  <path d="M 96,72 96,88 83,76 C 78,72 89,61 96,72 z"/>
  </g>
  <path style="fill:#DE872B;stroke:#653A0A;stroke-width:2;" d="M 57,53 55,56 72,67 75,61 z"/>
  <path style="fill:#BBB;stroke:#999;stroke-width:2;" d="M 73.5,68 76.5,62 85,67 81,72 z"/>
</svg>
