<?xml version="1.0" encoding="UTF-8"?>
<svg xmlns="http://www.w3.org/2000/svg" version="1.1" height="48px" width="48px" viewBox="0 0 100 100">
  <path style="fill:#FFF;stroke:#5E5E5E;stroke-width:2;" d="m 19,4 62,0 q 5,0 5,5 l 0,82 q 0,5 -5,5 l -62,0 q -5,0 -5,-5 l 0,-82 q 0,-5 5,-5 z"/>
  <path style="fill:none;stroke:#5E5E5E;stroke-width:5;" d="M 25,60 30,60 35,70 40,40 70,40 M 45,50 65,70 M 65,50 45,70"/>
  <path style="fill:none;stroke:#FF8908;stroke-width:2;" d="M 22,31 22,86 M 18,80 82,80 M 78,86 78,31 M 82,35 18,35"/>
</svg>
