/* XPM */
static char * mp16_xpm[] = {
"16 16 23 1",
" 	c None",
".	c #FF4500",
"+	c #F00000",
"@	c #EBBCAB",
"#	c #E4E4E4",
"$	c #E7ABAB",
"%	c #ED3939",
"&	c #F86D39",
"*	c #F29472",
"=	c #BFC0C0",
"-	c #505454",
";	c #F82200",
">	c #EA7272",
",	c #780000",
"'	c #B40000",
")	c #000000",
"!	c #FB3400",
"~	c #3C0000",
"{	c #FA2E00",
"]	c #7C1100",
"^	c #A00000",
"/	c #BC2200",
"(	c #F41100",
"    ...+++++    ",
"   .@##$%++++   ",
"  &######%++++  ",
" .#######$+++++ ",
".*#=-#-=##++++++",
".##--#--##++++++",
".##--#--##++++++",
";%#==>==#%++++++",
";+++++++++++,+++",
".++')))'++++''++",
" !+~+++~+,!++,+ ",
" {!+++++++]!++^ ",
".+,/(+++++,,,'++",
".++']/;++](++,++",
" !+++',  .++++++",
"  .;+++   !++++ "};
