/* XPM */
static char *maximize_xpm[] = {
"18 23 6 1",
" 	c None",
"1	c #838383",
"2	c #E9E9E9",
"3	c #DBDBDB",
"4	c #C3C3C3",
"5	c #B0B0B0",
"                  ",
"                  ",
"111111111111111111",
"112222222222222211",
"122222222222222221",
"122222222222222221",
"122222222222222221",
"122221111111122221",
"122221111111122221",
"122221122221122221",
"122221122221122221",
"122221122221122221",
"122221122221122221",
"122221111111122221",
"122221111111122221",
"122222222222222221",
"122222222222222221",
"122222222222222221",
"112222222222222211",
"111111111111111111",
"                  ",
"                  ",
"                  "
};
