/* XPM */
static char *title_xpm[] = {
"16 23 9 1",
" 	c None",
"1	c #989898",
"2	c #EBEBEB",
"3	c #606060",
"4	c #C3C3C3",
"5	c #7D7D7D",
"6	c #D8D8D8",
"7	c #FFFFFF",
"8	c #888888",
"1111111111111   ",
"22222222222221  ",
"444444444444445 ",
"4444444444444453",
"4444444444444453",
"4444444444444453",
"4444444444444453",
"4444444444444453",
"4444444444444453",
"4444444444444453",
"4444444444444453",
"4444444444444453",
"4444444444444453",
"4444444444444453",
"4444444444444453",
"4444444444444453",
"4444444444444453",
"4444444444444453",
"4444444444444453",
"4444444444444453",
"6666666666666677",
"6666666666666666",
"8888888888888888"
};
