/* XPM */
static char *title_xpm[] = {
"16 23 5 1",
" 	c None",
"1	c #989898",
"2	c #FFFFFF",
"3	c #606060",
"4	c #E8E8E8",
"1111111111111   ",
"22222222222221  ",
"444444444444441 ",
"4444444444444413",
"4444444444444413",
"4444444444444413",
"4444444444444413",
"4444444444444413",
"4444444444444413",
"4444444444444413",
"4444444444444413",
"4444444444444413",
"4444444444444413",
"4444444444444413",
"4444444444444413",
"4444444444444413",
"4444444444444413",
"4444444444444413",
"4444444444444413",
"4444444444444413",
"4444444444444422",
"4444444444444444",
"1111111111111111"
};
