/* XPM */
static char *top_xpm[] = {
"25 44 7 1",
" 	c None",
"1	c #989898",
"2	c #EBEBEB",
"3	c #C3C3C3",
"4	c #FFFFFF",
"5	c #D8D8D8",
"6	c #888888",
"   1111111111111111111111",
"  12222222222222222222222",
" 133333333333333333333333",
"1233333333333333333333333",
"1233333333333333333333333",
"1233333333333333333333333",
"1233333333333333333333333",
"1233333333333333333333333",
"1233333333333333333333333",
"1233333333333333333333333",
"1233333333333333333333333",
"1233333333333333333333333",
"1233333333333333333333333",
"1233333333333333333333333",
"1233333333333333333333333",
"1233333333333333333333333",
"1233333333333333333333333",
"1233333333333333333333333",
"1233333333333333333333333",
"1233333333333333333333333",
"1455555555555555555555555",
"1455555555555555555555555",
"1456666666666666666666666",
"1456                     ",
"1456                     ",
"1456                     ",
"1456                     ",
"1456                     ",
"1456                     ",
"1456                     ",
"1456                     ",
"1456                     ",
"1456                     ",
"1456                     ",
"1456                     ",
"1456                     ",
"1456                     ",
"1456                     ",
"1456                     ",
"1456                     ",
"1456                     ",
"1456                     ",
"1456                     ",
"1456                     "
};
