/* XPM */
static char *close_xpm[] = {
"14 23 5 1",
" 	c None",
"1	c #A0A0A0",
"2	c #FFFFFF",
"3	c #E8E8E8",
"4	c #D3D3D3",
"              ",
"              ",
"              ",
"              ",
"11111111111111",
"13333333333331",
"13333333333331",
"13333333333331",
"13333333333331",
"13333333333331",
"13333333333331",
"13333333333331",
"13333333333331",
"13333333333331",
"13333333333331",
"13333333333331",
"13333333333331",
"11111111111111",
"              ",
"              ",
"              ",
"              ",
"              "
};
