<?xml version="1.0" encoding="UTF-8"?>
<svg xmlns="http://www.w3.org/2000/svg" version="1.1" height="24px" width="24px" viewBox="0 0 100 100">
  <g transform="scale(0.8) translate(24,0)">
  <path style="fill:#D0CEA9;stroke:#222222;stroke-width:2" d="M 4,88 C 4,87 3.6,25 3.6,25 3.6,25 3,20 8,20 c -1,0 6,0 6,0 l 0,-6 c 0,0 0,-3 3,-3 l 17,0 c 0,0 3,0 3,3 l 0,6 43,0 c 0,0 4,0 4,4 l -2,64 z"/>
  <path style="fill:#E8DC88;stroke:#222222;stroke-width:2;fill-opacity:0.8" d="M 4,88 15,40 c 0,0 0,-7 8,-7 10,0 66,0 66,0 0,0 9,-1 7,6 -2,7 -12,49 -12,49 z"/>
  </g>
  <g transform="scale(0.5) translate(18,12)">
  <path style="fill:#616161;" d="m 10,144 82,0 0,-15 12,0 0,15 82,0 0,12 -176,0 z"/>
  </g>
</svg>
