<?xml version="1.0" encoding="UTF-8"?>
<svg xmlns="http://www.w3.org/2000/svg" version="1.1" height="24px" width="24px" viewBox="0 0 100 100">
  <path style="fill:#dddddd:" d="m 84,31 c 0,0 -28,16 -67,1 l 5,53 c 0,0 4,11 27,11 26,0 30,-11 30,-11 l 5,-54 z"/>
  <path style="fill:#bbbbbb;stroke:#666666" d="m 79,82 c 0,0 -27,-25 -57,1 l 0,2 c 0,0 4,11 27,11 26,0 30,-11 30,-11 z"/>
  <path style="fill:#888888;stroke:#444444;stroke-width:2" d="M 84 31 C 84 31 56 47 17 32 L 22 85 C 22 85 26 96 49 96 C 75 96 79 85 79 85 L 84 31 z M 27 40 L 28 40 C 32 41 32 45 32 45 L 36 82 C 36 82 36 86 33 85 C 30 84 30 80 30 80 L 26 44 C 26 44 25 40 27 40 z M 73 40 C 76 40 75 44 75 44 L 71 80 C 71 80 70 85 67 85 C 64 85 65 81 65 81 L 69 45 C 69 45 70 40 73 40 z M 50 44 C 54 44 54 47 54 47 L 54 85 C 54 85 53 88 50 88 C 47 88 46 85 46 85 L 46 47 C 46 47 46 44 50 44 z "/>
  <ellipse cx="50" cy="23" rx="42" ry="17" style="fill:#555555;"/>
  <ellipse cx="50" cy="19" rx="42" ry="17" style="fill:#aaaaaa;"/>
  <ellipse cx="50" cy="18" rx="37" ry="13" style="fill:#333333;"/>
  <ellipse cx="50" cy="20" rx="37" ry="12" style="fill:#666666;"/>
  <path style="fill:#aaaaaa;stroke:#333333;stroke-width:1" d="M 32,19 C 32,2 50,2 50,2 50,2 68,2 68,19 l -5,0 C 63,19 64,6.9 50,6.9 37,6.9 37,19 37,19 z"/>
</svg>
