<?xml version="1.0" encoding="UTF-8"?>
<svg xmlns="http://www.w3.org/2000/svg" version="1.1" height="32px" width="32px" viewBox="0 0 100 100">
  <path style="fill:#B1974D;" d="m 19,4 62,0 q 5,0 5,5 l 0,82 q 0,5 -5,5 l -62,0 q -5,0 -5,-5 l 0,-82 q 0,-5 5,-5 z"/>
  <path style="fill:#5B4335;" d="m 25,4 0,92 l -6,0 q -5,0 -5,-5 l 0,-82 q 0,-5 5,-5 z"/>
  <path style="fill:#5B4335;fill-rule:evenodd;" d="m 30,65 12,-30 4,0 6,30 -4,0 -2,-10 -8,0 -4,10 z m 15.25,-14 -1.8,-10, -3.6,10 z m 20.9,-2.2 0.1,-1.8 4,0 -1,18 -4,0 0.1,-1.8 c -3.6,3.6 -10,2 -9.1,-7.2 c 1.2,-9 9,-10 10,-7 z m -0.5,7 c -1,6 -7,6 -6,0 c 1,-6 7,-6 6,0"/>
</svg>
