<?xml version="1.0" encoding="UTF-8"?>
<svg xmlns="http://www.w3.org/2000/svg" version="1.1" height="32px" width="32px" viewBox="0 0 100 100">
  <path style="fill:#E3E3BF;" d="m 19,4 62,0 q 5,0 5,5 l 0,82 q 0,5 -5,5 l -62,0 q -5,0 -5,-5 l 0,-82 q 0,-5 5,-5 z"/>
  <path style="fill:none;stroke:#444444;stroke-width:2px;" d="m 21,26 54,0 -54,0 z m 0,9 54,0 -54,0 z m 0,9 54,0 -54,0 z m 0,8 23,0 -23,0 z m 0,10 54,0 -54,0 z"/>
  <path style="fill:#CF9100" d="M 25,68 85,5 c 0,0 5,1 8,4 3,3 4,8 4,8 L 38,80 22,84 z"/>
  <path style="fill:#eeeeee" d="M 85,9 28,69 30,71 87,11 z"/>
  <path style="fill:#333333" d="m 22,84 7,-2 -5,-5 z"/>
</svg>
