<?xml version="1.0" encoding="UTF-8" standalone="no"?>
<svg width="100" height="100" version="1.1">


 <g style="fill:#222222;stroke:#222222;stroke-width:8;stroke-linecap:round;stroke-linejoin:round">
  <path d="M 46 4 54 4 50 10 z"/>
  <path d="M 70 8 78 13 70 18 z"/>
  <path d="M 30 8 22 13 26 18 z"/>
 </g>  
 
 <ellipse style="fill:#777777;" cx="50" cy="52" rx="47" ry="47"/>
 <ellipse style="fill:#666666;" cx="50" cy="52" rx="42" ry="42"/>
 <ellipse style=";stroke-width:6pt;stroke:#222222;fill:none;" cx="50" cy="52" rx="42" ry="42"/>
 
 <g style="fill:#aaaaaa;">
  <ellipse cx="50" cy="11" rx="3" ry="3"/>
  <ellipse cx="91" cy="52" rx="3" ry="3"/>
  <ellipse cx="50" cy="93" rx="3" ry="3"/>
  <ellipse cx="9" cy="52" rx="3" ry="3"/>
  </g>
 <path style="stroke:#00DA11;stroke-width:5;fill:none;" d="M 50 52 45 26"/>
 <path style="stroke:#00FF13;stroke-width:4;fill:none;" d="M 50 52 28 75"/>
 <ellipse style="fill:#00FF13;" cx="50" cy="52" rx="4.5" ry="4.5"/>
</svg>