<?xml version="1.0" encoding="UTF-8"?>
<svg xmlns="http://www.w3.org/2000/svg" version="1.1" height="32px" width="32px" viewBox="0 0 100 100">
  <path style="fill:#E3E3BF;" d="m 19,4 62,0 q 5,0 5,5 l 0,82 q 0,5 -5,5 l -62,0 q -5,0 -5,-5 l 0,-82 q 0,-5 5,-5 z"/>
  <path style="fill:#F83700;" d="m 34,30 18,0 0,4 12,0 0,4 -34,0 0,-4 4,0 z m 4,28 4,0 0,8 8,0 0,-4 4,0 0,8 -4,0 0,4 4,0 0,-4 4,0 0,8 4,0 0,8 -12,0 0,-4 -8,0 0,4 -12,0 0,-8 4,0 0,-8 4,0 0,4 4,0 0,-4 -4,0 z"/>
  <path style="fill:#AE7E00;" d="m 30,38 12,0 0,4 -4,0 0,4 4,0 0,4 -8,0 0,-8 -4,0 z m 20,0 4,0 0,8 -4,0 z m 4,8 4,0 0,4 8,0 0,4 -16,0 0,-4 4,0 z m -20,8 -8,0 0,-12 4,0 0,8 4,0 z m -4,4 8,0 0,12 -4,0 0,4 -4,0 0,-4 -8,0 0,-4 4,0 0,-4 4,0 z m 12,0 12,0 0,4 -4,0 0,4 -8,0 z m 12,4 12,0 0,4 4,0 0,4 -8,0 0,4 -4,0 0,-4 -4,0 z m 0,24 12,0 0,4 4,0 0,4 -16,0 z m -16,0 -12,0 0,4 -4,0 0,4 16,0 z"/>
  <path style="fill:#FFA246;" d="m 30,42 4,0 0,8 -4,0 z m 12,-4 8,0 0,8 4,0 0,4 -4,0 0,4 12,0 0,4 -28,0 0,-8 8,0 0,-4 -4,0 0,-4 4,0 z m 12,0 4,0 0,4 8,0 0,4 4,0 0,4 -12,0 0,-4 -4,0 z m 8,32 8,0 0,12 -8,0 0,-4 -4,0 0,-4 4,0 z m -32,0 0,4 4,0 0,4 -4,0 0,4 -8,0 0,-12 z m 8,0 4,0 0,4 -4,0 z m 12,0 4,0 0,4 -4,0 z"/>
</svg>
