<?xml version="1.0" encoding="UTF-8"?>
<svg xmlns="http://www.w3.org/2000/svg" version="1.1" height="32px" width="32px" viewBox="0 0 100 100">
  <path style="fill:#BE9BB6;stroke:none" d="m  10,30 80,0 q 5,0 5,5 l 0,55 q 0,5 -5,5 l -80,0 q -5,0 -5,-5 l 0,-55 q 0,-5 5,-5 z"/>
  <path style="fill:#666;fill-rule:evenodd;" d="m 50,30 -6,0 0,3 6,0 z m 0,3 6,0 0,3 -6,0 z m 0,3 -6,0 0,3 6,0 z m 0,3 6,0 0,3 -6,0 z m 0,3 -6,0 0,3 6,0 z m 0,3 6,0 0,3 -6,0 z m 0,3 -6,0 0,3 6,0 z m 0,3 6,0 0,3 -6,0 z
  m -24,10 0,24 4,0 a 12,12 0 0 0 0,-24 z m 4,4 a 8,8 1 0 1 0,16 z m 14,-4 0,24 13,0 0,-4 -9,0 0,-6 6,0 0,-4, -6,0 0,-6 9,0 0,-4 z m 16,0 0,24 7,0 a 6,6 0 0 0 2,-12 a 6,6 0 0 0 -2,-12 z m 4,3.5 3,0 a 2.5,2.5 1 0 1 0,5 l -3,0 z m 0,12 3,0 a 2.5,2.5 1 0 1 0,5 l -3,0 z"/>
</svg>
