<?xml version="1.0" encoding="UTF-8"?>
<svg xmlns="http://www.w3.org/2000/svg" version="1.1" height="32px" width="32px" viewBox="0 0 100 100">
  <path style="fill:#E3E3BF;" d="m 19,4 62,0 q 5,0 5,5 l 0,82 q 0,5 -5,5 l -62,0 q -5,0 -5,-5 l 0,-82 q 0,-5 5,-5 z"/>
  <path d="M 38 81.1 q 9 -18 0 -36 q -9 -18 0 -36" style="stroke:#E8B7B0;stroke-width:8;fill:none;" />
  <path d="M 46 85 q 9 -18 0 -36 q -9 -18 0 -36" style="stroke:#BB5F5A;stroke-width:12;fill:none;" />
  <path d="M 53 88.5 q 9 -18 0 -36 q -9 -18 0 -36" style="stroke:#E8B7B0;stroke-width:4;fill:none;" />
  <path d="M 58 91 q 9 -18 0 -36 q -9 -18 0 -36" style="stroke:#BB5F5A;stroke-width:8;fill:none;" />
</svg>
