<?xml version="1.0" encoding="UTF-8"?>
<svg xmlns="http://www.w3.org/2000/svg" version="1.1" height="256px" width="256px" viewBox="0 0 100 100">
  <ellipse cx="50" cy="55" rx="47" ry="30" style="fill:#5B4904;stroke:#222"/>
  <ellipse cx="50" cy="45" rx="47" ry="30" style="fill:#A8965D;stroke:#FFEF7C"/>
  <g transform="scale(0.5, 0.25), translate(12, 78)">
  <path style="fill:#5B4904" d="m 76,37 30,0 a 32,32 0 0 1 0,64 l -16,0 0,60 -14,0 z m 14,14 0,36 12,0 a 18,18 0 0 0 0,-36 z"/>
  <path style="fill:#5B4904" d="m 70,55 70,0 -0,10 -70,0 z m 0,20 70,0 0,10 -70,0 z"/>
  <path style="fill:#F2E9D2" d="m 68,34 30,0 a 32,32 0 0 1 0,64 l -16,0 0,60 -14,0 z m 14,14 0,36 12,0 a 18,18 0 0 0 0,-36 z"/>
  <path style="fill:#F2E9D2" d="m 64,52 70,0 -0,10 -70,0 z m 0,20 70,0 0,10 -70,0 z"/>
  </g>
</svg>
