<?xml version="1.0" encoding="UTF-8"?>
<svg xmlns="http://www.w3.org/2000/svg" version="1.1" height="24px" width="24px" viewBox="0 0 100 100">
  <ellipse cx="50" cy="55" rx="47" ry="30" style="fill:#5B4904;stroke:#222"/>
  <ellipse cx="50" cy="45" rx="47" ry="30" style="fill:#A8965D;stroke:#FFEF7C"/>
  <g transform="scale(0.5, 0.25), translate(12, 78)">
  <path style="fill:#5B4904" d="m 96,100 0,-14 -14,0 -3,-10 a 20,20 1 1 1 38,-2 l 14,0 a 34,34 1 1 0 -66,5 l 2,7 -7,0 0,14 10,0 a 24,24 0 0 1 -10,30 l 6,13 a 24,24 0 0 1 24,-6 a 48,48 0 0 0 40,0 l -6,-13 a 34,34 0 0 1 -30,0 a 38,38 0 0 0 -11,-3 a 38,38 0 0 0 2,-21 z"/>
  <path style="fill:#F2E9D2" d="m 90,106 0,-14 -14,0 -3,-10 a 20,20 1 1 1 38,-2 l 14,0 a 34,34 1 1 0 -66,5 l 2,7 -7,0 0,14 10,0 a 24,24 0 0 1 -10,30 l 6,13 a 24,24 0 0 1 24,-6 a 48,48 0 0 0 40,0 l -6,-13 a 34,34 0 0 1 -30,0 a 38,38 0 0 0 -11,-3 a 38,38 0 0 0 2,-21 z"/>
  </g>
</svg>
