<?xml version="1.0" encoding="UTF-8"?>
<svg xmlns="http://www.w3.org/2000/svg" version="1.1" height="64px" width="64px" viewBox="0 0 100 100">
  <path style="fill:#E3E3BF;" d="m 19,4 62,0 q 5,0 5,5 l 0,82 q 0,5 -5,5 l -62,0 q -5,0 -5,-5 l 0,-82 q 0,-5 5,-5 z"/>
  <path style="fill:none;stroke:#444444;stroke-width:2px;" d="m 32,26 44,0 -44,0 z m 0,9 44,0 -44,0 z m 0,9 44,0 -44,0 z m 0,9 44,0 -44,0 z m 0,9 44,0 -44,0 z m 0,9 44,0 -44,0 z "/>
  <path style="fill:#5E9FCE;stroke:#111;" d="M 31,50 16,30 16,70 z"/>
</svg>
