<?xml version="1.0" encoding="UTF-8"?>
<svg xmlns="http://www.w3.org/2000/svg" version="1.1" height="64px" width="64px" viewBox="0 0 100 100">
  <g style="stroke:none;">
  <path style="fill:#C4C48B" d="m 3,16 94,0 0,68 -94,0 z"/>
  <path style="fill:#EAEAAB" d="m 4,16 34,33 c 7,7 15,7 23,0 L 96,16 z"/>
  <path style="fill:none" d="M 96,84 59,51 M 4,84 40,51"/>
  </g>
  <path style="fill:#4CBB4F;stroke:#004100;stroke-width:3;stroke-opacity:0.6;fill-opacity:0.7" d="M 27,73 C 20,58 23,37 35,27 45,19 60,16 72,18 L 72,5 97,28 72,54 72,41 C 72,41 51,35 40,46 29,57 27,73 27,73 z"/>
</svg>
