<?xml version="1.0" encoding="UTF-8"?>
<svg xmlns="http://www.w3.org/2000/svg" version="1.1" height="64px" width="64px" viewBox="0 0 192 192">
  <path style="fill:#EDEDED;stroke:#919191;stroke-width:6;" d="m 32,20 128,0 a 12 12 0 0 1 12,12  l 0,128 a 12,12 0 0 1 -12,12 l -128,0 a 12,12 0 0 1 -12,-12 l 0,-128 a 12,12 0 0 1 12,-12 z"/>
  <path style="fill:none;stroke:#424242;stroke-width:10;stroke-linecap:round;" d="m 96,96 -25,-50 m 25,50 40,0 m -40,-64 0,1 m 0,126 0,1 m -64,-64 1,0 m 126,0 1,0"/>
</svg>
