<?xml version="1.0" encoding="UTF-8"?>
<svg xmlns="http://www.w3.org/2000/svg" xmlns:xlink="http://www.w3.org/1999/xlink" version="1.1" height="64px" width="64px" viewBox="0 0 192 192">
  <path style="fill:#8097A2;stroke:#919191;stroke-width:6;" d="m 32,20 96,0 a 12 12 0 0 1 12,12  l 0,64 a 12,12 0 0 1 -12,12 l -96,0 a 12,12 0 0 1 -12,-12 l 0,-64 a 12,12 0 0 1 12,-12 z"/>
  <path style="fill:#607D8B;stroke:#919191;stroke-width:6;" d="m 64,84 96,0 a 12 12 0 0 1 12,12  l 0,64 a 12,12 0 0 1 -12,12 l -96,0 a 12,12 0 0 1 -12,-12 l 0,-64 a 12,12 0 0 1 12,-12 z"/>
  <g transform="translate(90,90)">
  <path style="fill:#FF5E5E;" d="M 20,4 3,21 33,50 3,80 20,97 49,67 79,97 95,80 65,50 95,20 80,4 50,34 z"/>
  </g>
</svg>
