<?xml version="1.0" encoding="UTF-8"?>
<svg xmlns="http://www.w3.org/2000/svg" version="1.1" height="64px" width="64px" viewBox="0 0 192 192">
  <g transform="scale(2.5) translate(-10,-10)">
  <path style="fill:#545454" d="m 20,50 60,0 0,30 -60,0 z"/>
  <path style="fill:#4CAF50" d="m 25,52 a 2,2 0 1 0 0.1,0 z"/>
  <path style="fill:#FFF;stroke:#9E9E9E;stroke-width:3" d="m 30,50 0,-30 40,0 0,30 m -30,-25 20,0 m -20,7 20,0 m -20,7 20,0 m -20,7 20,0"/>
  </g>
  <g transform="translate(90,90)">
  <path style="fill:#FFC107;stroke:none" d="M 91,80 58,16 C 54,7.1 46,7.1 42,16 42,16 11,77 9,81 6.2,86 5.8,91 14,91 l 67,0 c 12,0 14,-3 10,-11 z"/>
  <path style="fill:#3E2723;" d="M 46,63 43,35 57,35 54,63 z"/>
  <circle cx="50" cy="73" r="7" style="fill:#3E2723"/>
  </g>
</svg>
