<?xml version="1.0" encoding="UTF-8"?>
<svg xmlns="http://www.w3.org/2000/svg" version="1.1" height="64px" width="64px" viewBox="0 0 192 192">
  <path style="fill:#94776D;" d="m 42,10 108,0 a 12 12 0 0 1 12,12  l 0,148 a 12,12 0 0 1 -12,12 l -108,0 a 12,12 0 0 1 -12,-12 l 0,-148 a 12,12 0 0 1 12,-12 z "/>
  <path style="fill:#EDEDED;stroke:#545454;stroke-width:4;" d="m 52,20 88,0 a 12 12 0 0 1 12,12  l 0,128 a 12,12 0 0 1 -12,12 l -88,0 a 12,12 0 0 1 -12,-12 l 0,-128 a 12,12 0 0 1 12,-12 z m 6,48 76,0 m -76,24 76,0 m -76,24 76,0 m -50,-88 20,0"/>
  <g transform="scale (0.5) translate(160,160)">
  <circle style="fill:#D03D32;stroke:none" cx="96" cy="96" r="74"/>
  <path style="fill:#FFF;stroke:none" d="m 38,84 116,0 0,24 -116,0 z"/>
  </g>
</svg>
