<?xml version="1.0" encoding="UTF-8"?>
<svg xmlns="http://www.w3.org/2000/svg" version="1.1" height="24px" width="24px" viewBox="0 0 100 100">
  <path style="fill:#ff0000;stroke:#000;stroke-width:2" d="m 50,50 -40,0 a 40,40 0 0 1 40,-40 z"/>
  <path style="fill:#00ff00;stroke:#000;stroke-width:2" d="m 50,50 0,-40 a 40,40 0 0 1 40,40 z"/>
  <path style="fill:#0000ff;stroke:#000;stroke-width:2" d="m 50,50 40,0 a 40,40 0 0 1 -40,40 z"/>
  <path style="fill:#ffff00;stroke:#000;stroke-width:2" d="m 50,50 0,40 a 40,40 0 0 1 -40,-40 z"/>
  <path style="fill:#ffffff;stroke:#666;stroke-width:2" d="m 75,60 -7.5,7.5 -10,-30 30,10 -7.5,7.5 12.5,10 -7.5,7.5 z"/>
</svg>
