<?xml version="1.0" encoding="UTF-8"?>
<svg xmlns="http://www.w3.org/2000/svg" version="1.1" height="16px" width="16px" viewBox="0 0 192 192">
  <path style="fill:#EDEDED;stroke:#919191;stroke-width:6;" d="m 32,20 128,0 a 12 12 0 0 1 12,12  l 0,128 a 12,12 0 0 1 -12,12 l -128,0 a 12,12 0 0 1 -12,-12 l 0,-128 a 12,12 0 0 1 12,-12 z"/>
  <g transform="scale(2) translate(20,20)">
  <path style="fill:#263238;" d="m 30,30 c -8,0 -15,2 -15,11 0,5 4,7 9,7 9,-1 13,-7 13,-16 l 0,-2 -7,0 m 16,-2 0,26 -9,0 0,-8 C 33,53 29,55 22,55 16,55 14,54 10,51 8,48 6.7,45 6.7,41 6.7,35 8,32 11,29 c 3,-3 9,-4 17,-4 l 9,0 c 0,-3 -1,-7 -4,-9 -6,-4 -17,-1 -23,1 l 0,-6 c 5,-2.5 10,-3.6 16,-3.6 5,0 10,1.9 15,6.6 3,3 5,7 5,14"/>
  </g>
  <path style="fill:#263238;" d="m 88,52 12,-18 10,4 z"/>
</svg>
