<?xml version="1.0" encoding="UTF-8"?>
<svg xmlns="http://www.w3.org/2000/svg" version="1.1" height="16px" width="16px" viewBox="0 0 192 192">
  <path style="fill:#F76F31;stroke:none;stroke-width:1;" d="m 66,14 60,0 14,16 10,-2 10,10 0,10 14,20 -18,70 a 20 20 0 0 1 -8,10 l -40,30 a 20 20 0 0 1 -24,0 l -40,-30 a 20 20 0 0 1 -8,-10 l -18,-70 14,-20 0,-10 10,-10 10,2 z" />
  <path style="fill:#FFF;stroke:none;" d="m 56,42 14,4 a 20 20 0 0 0 8,0 l 14,-4 a 20,20 0 0 1 8,0 l 14,4 a 20 20 0 0 0 8,0 l 14,-4 20,28 a 10 10 0 0 1 0,8 l -22,22 3,8 a 20 15 0 0 1 0,8 a 25 25 0 0 1 -8,8 a 8 8 0 0 1 -6,0 a 40 40 0 0 1 -20,-14 a 4 4 0 0 1 0,-4 l 12,-12 a 4 4 0 0 0 0,-4 l -4,-12 a 10 10 0 0 1 2,-7 a 40 40 0 0 1 24,-10 a 60 60 0 0 0 -30,6 l 4,24 a 40,40 0 0 1 -30,0 l 4,-24 a 60 60 0 0 0 -30,-6 a 40 40 0 0 1 24,10 a 10 10 0 0 1 2,7 l -4,12 a 4 4 0 0 0 0,4 l 12,12 a 4 4 0 0 1 0,4 a 40 40 0 0 1 -20,14 a 8 8 0 0 1 -6,0 a 25 25 0 0 1 -8,-8 a 20 15 0 0 1 0,-8 l 3,-8 -22,-22 a 10 10 0 0 1 0,-8 z" />
  <path style="fill:#FFF;stroke:none;" d="m 92,120 a 10 10 0 0 1 8,0 l 20,10 -24,20 -24,-20 z" />
</svg>
