<?xml version="1.0" encoding="UTF-8"?>
<svg xmlns="http://www.w3.org/2000/svg" version="1.1" height="16px" width="16px" viewBox="0 0 192 192">
  <g transform="scale(1.8) translate(3,3)">
  <path style="fill:#545454" d="M 10,3.1 10,97 90,97 90,3.1 z m 4,5.9 6,0 0,5 -6,0 z m 66,0 6,0 0,5 -6,0 z m -66,11 6,0 0,5 -6,0 z m 66,0 6,0 0,5 -6,0 z m -66,11 6,0 0,5 -6,0 z m 66,0 6,0 0,5 -6,0 z m -66,11 6,0 0,5 -6,0 z m 66,0 6,0 0,5 -6,0 z m -66,11 6,0 0,5 -6,0 z m 66,0 6,0 0,5 -6,0 z m -66,11 6,0 0,5 -6,0 z m 66,0 6,0 0,5 -6,0 z m -66,11 6,0 0,5 -6,0 z m 66,0 6,0 0,5 -6,0 z m -66,11 6,0 0,5 -6,0 z m 66,0 6,0 0,5 -6,0 z m -57,-81 54,0 0,26 -54,0 z m 0,29 54,0 0,28 -54,0 z m 0,31 54,0 0,30 -54,0 z"/>
  </g>
</svg>
