<?xml version="1.0" encoding="UTF-8"?>
<svg xmlns="http://www.w3.org/2000/svg" version="1.1" height="16px" width="16px" viewBox="0 0 192 192">
  <path style="fill:#EDEDED;stroke:#03A9F4;stroke-width:6;" d="m 42,10 108,0 a 12 12 0 0 1 12,12  l 0,148 a 12,12 0 0 1 -12,12 l -108,0 a 12,12 0 0 1 -12,-12 l 0,-148 a 12,12 0 0 1 12,-12 z"/>
  <g transform="scale(1.92) translate(0,-5)">
  <path style="fill:none;stroke:#03A9F4;stroke-width:3;" d="M 20,30 40,30 M 20,40 40,40 M 20,50 40,50 M 20,60 80,60 M 20,70 80,70 M 20,80 65,80"/>
  <path style="fill:#03A9F4;fill-opacity:0.4;stroke:#03A9F4;stroke-width:3;" d="M 50,28 80,28 80,52 50,52 z"/>
  </g>
</svg>
