<?xml version="1.0" encoding="UTF-8"?>
<svg xmlns="http://www.w3.org/2000/svg" version="1.1" height="16px" width="16px" viewBox="0 0 192 192">
  <g transform="scale(1.92)">
  <path style="fill:#FF9800;" d="m 60 15 c -70,15 -70,100 0,70 c 40,-20 40,-55 15,-60 c -4,-1 -6,-4 -6,-6 c 0,-4 -5,-5 -9,-4 z"/>
  <path style="fill:#4CAF50;" d="m 56 68 c 10,1, 12,9 0,8 c -6,-1 -5,-9 0,-8 z"/>
  <path style="fill:#F44336;" d="m 23 69 c 10,-3, 9,12 0,11 c -6,-1 -5,-9 0,-11 z"/>
  <path style="fill:#2196F3;" d="m 39 74 c 10,-6, 9,12 0,11 c -6,-1 -5,-7 0,-11 z"/>
  </g>
</svg>
