<?xml version="1.0" encoding="UTF-8"?>
<svg xmlns="http://www.w3.org/2000/svg" version="1.1" height="16px" width="16px" viewBox="0 0 192 192">
  <g transform="scale(1.92)">
  <path style="fill:#999;" d="m 50,15 a 35,35 0 1 0 0.1,0 z" />
  <path style="fill:#bbb;" d="m 55,17 a 35,35 0 1 0 0.1,0 z" />
  <path style="fill:#444;" d="m 55,47 a 5,5 0 1 0 0.1,0 z" />
  <g transform="rotate(-75 55 52)">
  <path style="fill:#444;" d="m 55,20 a 10,10 0 1 0 0.1,0 z" />
  </g>
  <g transform="rotate(-10 55 52)">
  <path style="fill:#444;" d="m 55,20 a 10,10 0 1 0 0.1,0 z" />
  </g>
  <g transform="rotate(55 55 52)">
  <path style="fill:#444;" d="m 55,20 a 10,10 0 1 0 0.1,0 z" />
  </g>
  <g transform="rotate(120 55 52)">
  <path style="fill:#444;" d="m 55,20 a 10,10 0 1 0 0.1,0 z" />
  </g>
  <g transform="rotate(-30 50 50)">
  <path style="fill:#FF732F;" d="m 40,40 0,30 15,0 0,-30 z" />
  </g>
  <g transform="rotate(-45 25 75)">
  <path style="fill:#111;" d="m 25,40 0,71 25,0 0,-71 z m 1,1.5 3,0 0,3 -3,0 z m 0,5 3,0 0,3 -3,0 z m 0,5 3,0 0,3 -3,0 z m 0,5 3,0 0,3 -3,0 z m 0,5 3,0 0,3 -3,0 z m 0,5 3,0 0,3 -3,0 z m 0,5 3,0 0,3 -3,0 z m 0,5 3,0 0,3 -3,0 z m 0,5 3,0 0,3 -3,0 z m 0,5 3,0 0,3 -3,0 z m 0,5 3,0 0,3 -3,0 z m 0,5 3,0 0,3 -3,0 z m 0,5 3,0 0,3 -3,0 z m 0,5 3,0 0,3 -3,0 z m 20,0 3,0 0,3 -3,0 z m 0,-5 3,0 0,3 -3,0 z m 0,-5 3,0 0,3 -3,0 z m 0,-5 3,0 0,3 -3,0 z m 0,-5 3,0 0,3 -3,0 z m 0,-5 3,0 0,3 -3,0 z m 0,-5 3,0 0,3 -3,0 z m 0,-5 3,0 0,3 -3,0 z m 0,-5 3,0 0,3 -3,0 z m 0,-5 3,0 0,3 -3,0 z m 0,-5 3,0 0,3 -3,0 z m 0,-5 3,0 0,3 -3,0 z m 0,-5 3,0 0,3 -3,0 z m 0,-5 3,0 0,3 -3,0 z"/>
  <path style="fill:#92B0C9" d="m 30,41 0,9 15,0 0,-9 z m 0,10 0,9 15,0 0,-9 z m 0,10 0,9 15,0 0,-9 z m 0,10 0,9 15,0 0,-9 z m 0,10 0,9 15,0 0,-9 z m 0,10 0,9 15,0 0,-9 z m 0,10 0,9 15,0 0,-9 z"/>
  </g>
  <path style="fill:#CCC8C6" d="m 53,56 q -10,10 0,20 l 8,0 0,-20 z " />
  <path style="fill:#444" d="m 55,56 q -4,10 0,20 l 3,0 q -4,-10 0,-20 z " />
  <path style="fill:#848485" d="m 68,46 a 10,20  0 1 0 0.1,0 z " />
  <path style="fill:#EEE" d="m 70,46 a 10,20  0 1 0 0.1,0 z " />
  <path style="fill:#949494" d="m 70,50 a 8,16  0 1 0 0.1,0 z " />
  <path style="fill:#A8A8E1" d="m 68,56 a 5,10  0 1 0 0.1,0 z " />
  </g>
</svg>
