<?xml version="1.0" encoding="UTF-8"?>
<svg xmlns="http://www.w3.org/2000/svg" version="1.1" height="16px" width="16px" viewBox="0 0 192 192">
  <g transform="scale(1.8) translate(3,3)">
  <path style="fill:#FFF;" d="m 50,12 a 38,38 0 1 0 0.1,0 z"/>
  <path style="fill:#EF3939;" d="m 3,25 q 1,-21 22,-22 q 25,-2 50,0 q 21,1 22,22 q 2,25 0,50 q -1,21 -22,22 q -25,2 -50,0 q -21,-1 -22,-22 q -2,-25 0,-50 z m 47,-13 a 38,38 0 1 0 0.1,0 z"/>
  <g transform="scale(0.8)">
  <path style="fill:#EF3939;" d="m 30,45 26,47 q 7,11 14,0 l 26,-47 a 7.5,7.5 0 1 0 -13.5,0 a 15,15 0 1 1 -28.5,13.5 l -11,-20  a 7,7 0 1 0 -13,6.5 z"/>
  </g>
  </g>
</svg>
