<?xml version="1.0" encoding="UTF-8"?>
<svg xmlns="http://www.w3.org/2000/svg" version="1.1" height="48px" width="48px" viewBox="0 0 192 192">
  <path style="fill:#EDEDED;stroke:#545454;stroke-width:6;" d="m 42,10 108,0 a 12 12 0 0 1 12,12  l 0,148 a 12,12 0 0 1 -12,12 l -108,0 a 12,12 0 0 1 -12,-12 l 0,-148 a 12,12 0 0 1 12,-12 z m 6,48 96,0 m -96,24 96,0 m -96,24 96,0"/>
  <path style="fill:#FFC107;stroke:#545454;stroke-width:3;" d="m 145,45 10,10 -90,90 -10,-10 90,-90 z"/>
  <path style="fill:#FFEF62;stroke:#545454;stroke-width:3;" d="m 65,145 -14,5 4,-15 z"/>
  <path style="fill:#646464;stroke:#545454;stroke-width:3;" d="m 55.667,148.333 -4.667,1.667 1.333,-5 z"/>
</svg>
