<?xml version="1.0" encoding="UTF-8"?>
<svg xmlns="http://www.w3.org/2000/svg" version="1.1" height="48px" width="48px" viewBox="0 0 192 192">
  <path style="fill:#EDEDED;stroke:#545454;stroke-width:6;" d="m 42,10 108,0 a 12 12 0 0 1 12,12  l 0,148 a 12,12 0 0 1 -12,12 l -108,0 a 12,12 0 0 1 -12,-12 l 0,-148 a 12,12 0 0 1 12,-12 z"/>
  <g transform="scale(1.92)">
  <path style="fill:#545454;stroke:none;" d="m 82,79 c -5,0 -5,0 -10,-7 L 51,17 47,17 28,64 C 21.2,78 20.2,79 15.7,79 l 0,2 20.3,0 0,-2 c -3,0 -5,0 -3,-7 l 4.3,-10 19.5,0 3,8 c 1,3 1,6 1,7 0,3 -1,3 -7,3 l 0,2 28,0 0,-2 M 39.5,56 47.5,34.5 55,56 39.5,56"/>
  </g>
</svg>
