<?xml version="1.0" encoding="UTF-8"?>
<svg xmlns="http://www.w3.org/2000/svg" version="1.1" height="48px" width="48px" viewBox="0 0 192 192">
  <path style="fill:#EDEDED;stroke:#545454;stroke-width:6;" d="m 32,20 128,0 a 12 12 0 0 1 12,12  l 0,128 a 12,12 0 0 1 -12,12 l -128,0 a 12,12 0 0 1 -12,-12 l 0,-128 a 12,12 0 0 1 12,-12 z"/>
  <g transform="scale(1.6) translate(10,10)">
  <path style="fill:#545454;stroke-width:3" d="m 5,50 15,15 0,-30 -15,15 m 90,0 -15,-15 0,30 15,-15 m -45,45 -15,-15 30,0 -15,15 m 0,-90 15,15 -30,0 15,-15"/>
  </g>
</svg>
