/* XPM */
static char *gwhere_xpm[] = {
"16 16 14 1",
"0	c #000000",
"1	c #191919",
"2	c #333333",
"3	c #007F7F",
"4	c #7F0000",
"5	c #7F7F00",
"6	c #4C4C4C",
"7	c #666667",
"8	c #7F7F7F",
"9	c #00FFFF",
"A	c #FF0000",
"B	c #FFFF00",
"C	c #999999",
" 	c None",
"   0 133C631 1  ",
"  0 6838288C7 0 ",
"   6C2     283 0",
"  C000     000C1",
"06200       0018",
" C 0 00 0 0000 8",
"610  25 4 051404",
"3    5A05 504151",
"C   055445542444",
"3   004BA 514511",
"110  02772272226",
" 8  017637737778",
"013 000000000 32",
"  86 000 000 28 ",
" 0 871      2810",
"   013CC8C96100 "
};
