<?xml version="1.0" encoding="UTF-8"?>
<svg xmlns="http://www.w3.org/2000/svg" xmlns:xlink="http://www.w3.org/1999/xlink" version="1.1" height="64px" width="64px" viewBox="0 0 192 192">
  <defs>
  <linearGradient id="grad1" x1="30%" y1="0%" x2="100%" y2="0%">
  <stop offset="0%" style="stop-color:rgb(185,250,250);stop-opacity:1" />
  <stop offset="100%" style="stop-color:rgb(208,236,236);stop-opacity:1" />
  </linearGradient>
  </defs>
  <path style="fill:#919191;stroke:#919191;stroke-width:6;" d="m 32,160 a 12 12 0 0 1 -10,-14 l 36,-48 a 12 12 0 0 1 6,-6 l 64,0  a 12 12 0 0 1 6,6 l 36,48 a 12 12 0 0 1 -10,14 z"/>
  <path style="fill:url(#grad1);" d="m 26,142 36,-48 68,0 36,48 z"/>
  <circle style="fill:#E91E63;" cx="158" cy="155" r="3"/>
  <path style="fill:#545454;" d="m 165,30 10,10 -90,90 -10,-10 90,-90 z"/>
  <path style="fill:#545454;" d="m 85,130 -14,5 4,-15 z"/>0
  <g transform="scale(0.8) translate(0,130)">
  <path  style="fill:#444" d="m 15,45 c 0,70 70,70 70,0 l -30,0 0,5 a 5,5 0 1 1 -10,0 l 0,-5 z a 30,32 0 1 1 70,0 m -2,0 a 28,30 0 1 0 -66,0"/>
  <path  style="fill:#666" d="m 19,43 a 30,34 0 0 1 30,-31.5 l 0,21.5 a 5,5 0 0 0 -4,5 l 0,5 z m 62,0 a 30,34 0 0 0 -30,-31.5 l 0,21.5 a 5,5 0 0 1 4,5 l 0,5 z"/>
  <path  style="fill:#999" d="m 47,38 a 3,3 0 0 1 6,0 l 0,12  a 3,3 0 0 1 -6,0 "/>
  <path  style="fill:#000" d="m 49,7.6 c -1,-2 1,-4 0,-6 l 2,0 c 1,2 -1,4 0,6 z"/>
  </g>
</svg>
