<?xml version="1.0" encoding="UTF-8"?>
<svg xmlns="http://www.w3.org/2000/svg" version="1.1" height="64px" width="64px" viewBox="0 0 192 192">
  <path style="fill:#545454;stroke:#EDEDED;stroke-width:5;" d="m 20,172 156,0 a 20,20 0 0 0 -20,-20 l -116,0 a 20,20 0 0 0 -20,20 z m 20,-20 116,0 a 20,20 0 0 0 -20,-20 l -76,0 a 20,20 0 0 0 -20,20 z m 25,-20 c 0,-20 10,-35 20,-50 c 5,-5 -5,-15 -15,-8 l -25,15 c -3,10 -35,0 -17,-22 l 25,-35 a 20,20 0 0 1 10,-5 l 0,-15 20,15 c 60,0 70,70 60,85 l -15,-5 5,25 z"/>
</svg>
