<?xml version="1.0" encoding="UTF-8"?>
<svg xmlns="http://www.w3.org/2000/svg" xmlns:xlink="http://www.w3.org/1999/xlink" version="1.1" height="64px" width="64px" viewBox="0 0 192 192">
  <path style="fill:#616161;" d="m 10,90 25,0 0,-15 12,0 0,15 102,0 0,-15 12,0 0,15 25,0 0,12 -82,0 0,15 -12,0 0,-15 -82,0 z"/>
  <path style="fill:#607D8B;stroke:#919191;stroke-width:6;" d="m 16,30 48,0 a 6 6 0 0 1 6,6  l 0,32 a 6,6 0 0 1 -6,6 l -48,0 a 6,6 0 0 1 -6,-6 l 0,-32 a 6,6 0 0 1 6,-6 z"/>
  <path style="fill:#607D8B;stroke:#919191;stroke-width:6;" d="m 132,30 48,0 a 6 6 0 0 1 6,6  l 0,32 a 6,6 0 0 1 -6,6 l -48,0 a 6,6 0 0 1 -6,-6 l 0,-32 a 6,6 0 0 1 6,-6 z"/>
  <path style="fill:#607D8B;stroke:#919191;stroke-width:6;" d="m 74,116 48,0 a 6 6 0 0 1 6,6  l 0,32 a 6,6 0 0 1 -6,6 l -48,0 a 6,6 0 0 1 -6,-6 l 0,-32 a 6,6 0 0 1 6,-6 z"/>
  <path style="fill:#757575;stroke:#424242;stroke-width:4;" d="m 86,40 0,16 a 20 20 0 0 0 16,0 l 0,-16 a 20 20 0 0 1 4,36 l 0,80 a 12 12 0 0 1 -24,0 l 0,-80 a 20 20 0 0 1 4,-36"/>
</svg>
