<?xml version="1.0" encoding="UTF-8"?>
<svg xmlns="http://www.w3.org/2000/svg" version="1.1" height="64px" width="64px" viewBox="0 0 192 192">
  <path style="fill:#94776D;stroke:none;" d="m 42,10 108,0 a 12 12 0 0 1 12,12  l 0,148 a 12,12 0 0 1 -12,12 l -108,0 z"/>
  <path style="fill:#3E2723" d="m 42,10 a 12,12 0 0 0 -12,12 l 0,148 a 12,12 0 0 0 12,12 z"/>
  <g transform="scale(0.6) translate(60,60)">
  <circle style="fill:#FF9800;stroke:#FFF;stroke-width:10;" cx="96" cy="96" r="74"/>
  <path style="fill:#FFF;stroke:none" d="m 78,76 -16,0 a 30 30 0 1 1 50,21 a 20 20 0 0 0 -8,16 l -16,0 a 36 36 0 0 1 14,-28 a 14 14 0 1 0 -24,-9 z"/>
  <circle style="fill:#FFF;stroke:none" cx="96" cy="134" r="11"/>
  </g>
</svg>
