/* XPM */
static char * umax_logo_xpm[] = {
"256 48 5 1",
" 	c None",
".	c #FF0033",
"+	c #F41A4B",
"@	c #F90D3F",
"#	c #EE2858",
"                                                                                                                                                                                                                                                                ",
"                                                                                                                                                                                                                                                                ",
"                                                                                                                                                                                                                                                                ",
"                                                                                                                                                                                                                                                                ",
"                                                                                                                                                                                                                                                                ",
"                                                                                                                                                                                                                                                                ",
"                                                                                                                                                                                                                                                                ",
"                                                                                                                                                                                                                                                                ",
"                                                                                                                                                                                                                                                                ",
"                                                                                                                                                                                                                                                                ",
"                                                                                                                                                                                                                                                                ",
"                                                         ..........          ..........    ............            +...........              ...........                ..........         .........@                                                           ",
"                                                         ..........          ..........    ............#           ............              ............                ..........       ..........                                                            ",
"                                                         ..........          ..........    .............           ............             .............                 ..........     @.........                                                             ",
"                                                         ..........          ..........    .............          .............             ..............                #.........@   #.........                                                              ",
"                                                         ..........          ..........    .............@         .............            @..............                 @.........#  .........#                                                              ",
"                                                         ..........          ..........    ..............        @.............            ...............@                 ..........+.........@                                                               ",
"                                                         ..........          ..........    ..............+       ..............           @................                  ...................                                                                ",
"                                                         ..........          ..........    ...............      #..............           .................@                  .................                                                                 ",
"                                                         ..........          ..........    ...............      ...............          +..................                  #...............                                                                  ",
"                                                         ..........          ..........    ................     ...............          ...................+                  @.............#                                                                  ",
"                                                         ..........          ..........    ................    @...............         +....................                   ............@                                                                   ",
"                                                         ..........          ..........    ................+   ................         .......... @.........+                   ...........                                                                    ",
"                                                         ..........          ..........    .................  +................        #..........  ..........                   ...........                                                                    ",
"                                                         ..........          ..........    .................  .................        ..........   ..........#                 #...........@                                                                   ",
"                                                         ..........          ..........    .................. .................        ..........    ..........                 .............+                                                                  ",
"                                                         ..........          ..........    .......... ............... .........       ..........     ..........                ...............                                                                  ",
"                                                         ..........          ..........    .......... ..............  .........       ..........      ..........              .................                                                                 ",
"                                                         ..........          ..........    ..........  .............  .........      ...........................             @..................                                                                ",
"                                                         ..........          ..........    ..........  ............   .........      ............................           #.........@..........                                                               ",
"                                                         #..........        ..........@    ..........   ...........   .........     .............................           .........# @.........@                                                              ",
"                                                          ...........      ...........     ..........   ..........    .........     ..............................         .........@   ..........#                                                             ",
"                                                          #..........................#     ..........    .........    .........    ...............................        ..........     ..........                                                             ",
"                                                           #........................#      ..........    ........     .........    ..........           ...........      @.........       ..........                                                            ",
"                                                             ......................        ..........    +.......     .........   @..........            ..........     #.........        #..........                                                           ",
"                                                               @................@          ..........     ......      .........   ..........             ..........@    .........#         @.........@                                                          ",
"                                                                   ..........              ..........     +.....      .........  @..........              ..........   .........@           @.........#                                                         ",
"                                                                                                                                                                                                                                                                ",
"                                                                                                                                                                                                                                                                ",
"                                                                                                                                                                                                                                                                ",
"                                                                                                                                                                                                                                                                ",
"                                                                                                                                                                                                                                                                ",
"                                                                                                                                                                                                                                                                ",
"                                                                                                                                                                                                                                                                ",
"                                                                                                                                                                                                                                                                ",
"                                                                                                                                                                                                                                                                ",
"                                                                                                                                                                                                                                                                ",
"                                                                                                                                                                                                                                                                "};
