<?xml version="1.0" encoding="UTF-8"?>
<svg xmlns="http://www.w3.org/2000/svg" version="1.1"  height="32" width="32" viewBox="0 0 100 100">

  <path style="fill:none;stroke:none;" d="m 65,3 0,19 19,0 z"/>
  <path style="fill:none;stroke:#000;stroke-width:6;" d="m 65,3 0,19 19,0 0,74 -72,0 0,-93 53,0 19,19"/>
  <path style="fill:none;stroke:#000;stroke-width:3;" d="m 21,26 54,0 -54,0 z m 0,9 54,0 -54,0 z m 0,9 54,0 -54,0 z m 0,8 23,0 -23,0 z m 0,10 54,0 -54,0 z"/>

  <path style="fill:#000;" d="M 25,68 85,5 c 0,0 5,1 8,4 3,3 4,8 4,8 L 38,80 22,84 z"/>

</svg>
