<?xml version="1.0" encoding="UTF-8"?>
<svg xmlns="http://www.w3.org/2000/svg" version="1.1" height="16px" width="16px" viewBox="0 0 192 192">
  <path style="fill:#EDEDED;stroke:#919191;stroke-width:6;" d="m 32,20 128,0 a 12 12 0 0 1 12,12  l 0,128 a 12,12 0 0 1 -12,12 l -128,0 a 12,12 0 0 1 -12,-12 l 0,-128 a 12,12 0 0 1 12,-12 z"/>
  <g transform="scale(0.5)">
  <g transform="translate(45,45)">
  <path style="fill:#9E9E9E;stroke:none" d="m 96,8 a 88 88 1 1 0 0.1,0 z m -0.1 104 a 16 16 0 1 1 0.1,0 z"/>
  </g>
  <g transform="translate(145,145)">
  <path style="fill:#646464;stroke:none" d="m 96,8 a 88 88 1 1 0 0.1,0 z m -0.1 104 a 16 16 0 1 1 0.1,0 z"/>
  </g>
  </g>
</svg>
