<?xml version="1.0" encoding="UTF-8"?>
<svg xmlns="http://www.w3.org/2000/svg" version="1.1" height="16px" width="16px" viewBox="0 0 192 192">
  <path style="fill:#EDEDED;stroke:#545454;stroke-width:6;" d="m 42,10 108,0 a 12 12 0 0 1 12,12  l 0,148 a 12,12 0 0 1 -12,12 l -108,0 a 12,12 0 0 1 -12,-12 l 0,-148 a 12,12 0 0 1 12,-12 z"/>
  <path style="fill:#F44336" d="m 144,48 0,-20 c -40,0 -48,40 -58,68 c -9,27 -12,48 -38,48 l 0,20 c 40,0 48,-40 58,-68 l 24,0 0,-20 -18,0 c 6,-16 8,-28 32,-28 z"/>
</svg>
