<?xml version="1.0" encoding="UTF-8"?>
<svg xmlns="http://www.w3.org/2000/svg" version="1.1" height="16px" width="16px" viewBox="0 0 192 192">
  <path style="fill:#EDEDED;stroke:#919191;stroke-width:6;" d="m 32,20 128,0 a 12 12 0 0 1 12,12  l 0,128 a 12,12 0 0 1 -12,12 l -128,0 a 12,12 0 0 1 -12,-12 l 0,-128 a 12,12 0 0 1 12,-12 z"/>
  <g transform="scale(1.92)">
  <g style="fill:#616161;stroke:none;">
  <path  d="m 25.3,33 a 30,30 0 0 1 49.4,0 l -1.5,5.4 -5.5,-1.4 a 22,22 1 0 0 -35.4,0 l -0.7,-5.4 z"/>
  <g transform="rotate(120 50 50)">
  <path d="m 25.3,33 a 30,30 0 0 1 49.4,0 l -1.5,5.4 -5.5,-1.4 a 22,22 1 0 0 -35.4,0 l -0.7,-5.4 z"/>
  </g>
  <g transform="rotate(240 50 50)">
  <path d="m 25.3,33 a 30,30 0 0 1 49.4,0 l -1.5,5.4 -5.5,-1.4 a 22,22 1 0 0 -35.4,0 l -0.7,-5.4 z"/>
  </g>
  </g>
  </g>
</svg>
