<?xml version="1.0" encoding="UTF-8"?>
<svg xmlns="http://www.w3.org/2000/svg" version="1.1" height="16px" width="16px" viewBox="0 0 192 192">
  <path style="fill:#EDEDED;stroke:#545454;stroke-width:6;" d="m 42,10 108,0 a 12 12 0 0 1 12,12  l 0,148 a 12,12 0 0 1 -12,12 l -108,0 a 12,12 0 0 1 -12,-12 l 0,-148 a 12,12 0 0 1 12,-12 z"/>
  <g transform="scale(1.92)">
  <path style="fill:#545454" d="m 20,50 60,0 0,30 -60,0 z"/>
  <path style="fill:#4CAF50" d="m 25,52 a 2,2 0 1 0 0.1,0 z"/>
  <path style="fill:none;stroke:#9E9E9E;stroke-width:2" d="m 30,50 0,-30 40,0 0,30 m -30,-25 20,0 m -20,7 20,0 m -20,7 20,0 m -20,7 20,0"/>
  <path style="fill:#EDEDED;fill-rule:evenodd;" d="m 35,53 0,24 4,0 0,-12 4,0 a 5,5 0 0 0 0,-12 z m 4,4 4,0 a 2,2 1 0 1 0,4 l -4,0 z m 25,4 3,-3 c -4,-6 -13,-6, -16,0 c -2,5 0,8 6.5,9 c 9,1 4,12 -4.5,3 l -3,3 c 4,6 13,6, 16,0 c 2,-5 0,-8 -6.5,-9 c -9,-1 -4,-12 4.5,-3 z"/>
  </g>
</svg>
