<?xml version="1.0" encoding="UTF-8"?>
<svg xmlns="http://www.w3.org/2000/svg" version="1.1" height="48px" width="48px" viewBox="0 0 192 192">
  <path style="fill:#EDEDED;stroke:#424242;stroke-width:4;" d="m 42,10 108,0 a 12 12 0 0 1 12,12  l 0,148 a 12,12 0 0 1 -12,12 l -108,0 a 12,12 0 0 1 -12,-12 l 0,-148 a 12,12 0 0 1 12,-12 z"/>
  <g transform="scale(0.15) translate(220,90)">
  <path style="fill:#F44336;stroke:none;" d="m 82,79 c -5,0 -5,0 -10,-7 L 51,17 47,17 28,64 C 21.2,78 20.2,79 15.7,79 l 0,2 20.3,0 0,-2 c -3,0 -5,0 -3,-7 l 4.3,-10 19.5,0 3,8 c 1,3 1,6 1,7 0,3 -1,3 -7,3 l 0,2 28,0 0,-2 M 39.5,56 47.5,34.5 55,56 39.5,56"/>
  </g>
  <path style="fill:#F44336;" d="m 40,30 c 0,-1.5 5,-2.5   5,1.5   c -0.5,2.5, -1,2.5 -5,7.5           c -4,-5 -4.5,-5 -5,-7.5   c 0,-4 5,-3 5,-1.5"/>
  <path style="fill:#F44336;" d="m 96,90 c 0,-3 10,-5 10,3         c -1,5,-2,5 -10,15           c -8,-10 -9,-10 -10,-15 c 0,-8 10,-6 10,-3"/>
  <g transform="rotate(180,96,96) scale(0.15) translate(220,90)">
  <path style="fill:#F44336;stroke:none;" d="m 82,79 c -5,0 -5,0 -10,-7 L 51,17 47,17 28,64 C 21.2,78 20.2,79 15.7,79 l 0,2 20.3,0 0,-2 c -3,0 -5,0 -3,-7 l 4.3,-10 19.5,0 3,8 c 1,3 1,6 1,7 0,3 -1,3 -7,3 l 0,2 28,0 0,-2 M 39.5,56 47.5,34.5 55,56 39.5,56"/>
  </g>
  <g transform="rotate(180,152,162)">
  <path style="fill:#F44336;" d="m 152,162 c 0,-1.5 5,-2.5 5,1.5 c -0.5,2.5, -1,2.5 -5,7.5  c -4,-5 -4.5,-5 -5,-7.5 c 0,-4 5,-3 5,-1.5"/>
  </g>
</svg>
