<?xml version="1.0" encoding="UTF-8"?>
<svg xmlns="http://www.w3.org/2000/svg" version="1.1" height="32px" width="32px" viewBox="0 0 192 192">
  <path style="fill:#545454;fill-opacity:0.5;stroke:#545454;stroke-width:6;" d="m 42,56 16,0 a 32,32 0 0 1 0,64 l -16,0 a 32,32 0 0 1 0,-64 z m 0,16 a 16,16 0 0 0 0,32 l 16,0 a 16,16 0 0 0 0,-32 z"/>
  <path style="fill:#545454;fill-opacity:0.5;stroke:#545454;stroke-width:6;" d="m 134,56 16,0 a 32,32 0 0 1 0,64 l -16,0 a 32,32 0 0 1 0,-64 z m 0,16 a 16,16 0 0 0 0,32 l 16,0 a 16,16 0 0 0 0,-32 z"/>
  <path style="fill:#545454;stroke:#545454;stroke-width:6;" d="m 66,80 60,0 a 8,8 0 0 1 0,16 l -60,0 a 8,8 0 0 1 0,-16 z"/>
  <path style="fill:#FFEB3B;stroke:#BF3603;stroke-width:6;" d="m 64,144 64,0 -32,32 z"/>
</svg>
