<?xml version="1.0" encoding="UTF-8"?>
<svg xmlns="http://www.w3.org/2000/svg" version="1.1" height="32px" width="32px" viewBox="0 0 192 192">
  <path style="fill:#088278;stroke:none" d="m 22,60 48,0 a 6 6 0 0 1 6,6 a 6 6 0 0 0 6,6 l 88,0 a 12 12 0 0 1 12,12  l 0,66 a 12,12 0 0 1 -12,12 l -148,0 a 12,12 0 0 1 -12,-12 l 0,-78 a 12,12 0 0 1 12,-12 z"/>
  <path style="fill:#263238;" d="m 22,30 48,0 a 6 6 0 0 1 6,6 a 6 6 0 0 0 6,6 l 88,0 a 12 12 0 0 1 12,12  l 0,30 a 12 12 0 0 0 -12,-12 l -88,0 a 6 6 0 0 1 -6,-6 a 6 6 0 0 0 -6,-6 l -48,0  a 12 12 0 0 0 -12,12 l 0,-30 a 12,12 0 0 1 12,-12 z"/>
</svg>
