<?xml version="1.0" encoding="UTF-8"?>
<svg xmlns="http://www.w3.org/2000/svg" version="1.1" height="32px" width="32px" viewBox="0 0 192 192">
  <path style="fill:#545454;stroke:none" d="m 32,20 128,0 a 12 12 0 0 1 12,12  l 0,128 a 12,12 0 0 1 -12,12 l -120,0 -20,-20 0,-120 a 12,12 0 0 1 12,-12 z"/>
  <path style="fill:#9E9E9E;" d="m 60,102 80,0 0,60 -80,0 z"/>
  <path style="fill:#FFC107;" d="m 145,35 10,10 -90,90 -10,-10 90,-90 z"/>
  <path style="fill:#FFEF62;" d="m 65,135 -14,5 4,-15 z"/>
  <path style="fill:#646464;" d="m 55.667,138.333 -4.667,1.667 1.333,-5 z"/>
</svg>
