<?xml version="1.0" encoding="UTF-8"?>
<svg xmlns="http://www.w3.org/2000/svg" version="1.1" height="256px" width="256px" viewBox="0 0 100 100">
  <rect style="fill:#eeeeee;stroke:#444444;stroke-width:2" width="98" height="98" x="1" y="1"/>
  <path style="fill:#888888;" d="m 93,7.8 0,5.2 c -5,-2 -15,-4 -19,1 -2,3 -3,6 -3,11 0,4 1,8 3,10 6,5 14,3 19,0 l 0,6 C 90,42 86,43 83,43 71,42 65,35 65,25 66,13 73,5.6 84,5.5 c 3,-0.1 6,1.1 9,2.3"/>
  <path style="fill:#555555;" d="m 30,30 c -8,0 -15,2 -15,11 0,5 4,7 9,7 9,-1 13,-7 13,-16 l 0,-2 -7,0 m 16,-2 0,26 -9,0 0,-8 C 33,53 29,55 22,55 16,55 14,54 10,51 8,48 6.7,45 6.7,41 6.7,35 8,32 11,29 c 3,-3 9,-4 17,-4 l 9,0 c 0,-3 -1,-7 -4,-9 -6,-4 -17,-1 -23,1 l 0,-6 c 5,-2.5 10,-3.6 16,-3.6 5,0 10,1.9 15,6.6 3,3 5,7 5,14"/>
  <path style="fill:#000000;" d="m 88,74 c 0,5 -1,9 -4,13 -3,4 -7,5 -12,5 -4,0 -8,-2 -12,-5 -3,-3 -4,-6 -4,-11 l 0,-32 c 0,-2 -2,-4 -4,-4 l -2,0 0,-2 c 5,0 8,0 13,0 l 0,23 c 2,-2 5,-4 9,-4 5,0 10,2 12,5 3,4 4,8 4,12 l 0,0 m -6,0 c 0,-8 -6,-13 -10,-13 -4,0 -7,1 -9,2 l 0,20 c 2,3 5,4 9,4 3,0 10,-4 10,-13"/>
</svg>
