<?xml version="1.0" encoding="UTF-8"?>
<svg xmlns="http://www.w3.org/2000/svg" version="1.1" height="64px" width="64px" viewBox="0 0 100 100">
  <path style="fill:#FFF;stroke:#179B03;stroke-width:2;" d="m 19,4 62,0 q 5,0 5,5 l 0,82 q 0,5 -5,5 l -62,0 q -5,0 -5,-5 l 0,-82 q 0,-5 5,-5 z"/>
  <path d="M 25,40 75,40 75,80 25,80 z" style="fill:#9AEC8D;fill-opacity:0.3;stroke:#179B03;stroke-width:3;" />
  <path d="M 25,50 75,50 M 25,57 75,57 M 25,64 75,64 M 25,71 75,71 M 42,40 42,80 M 61,40 61,80" style="fill:none;stroke:#179B03;stroke-width:1;" />
</svg>
