/* XPM */
static char *geany_xpm[] = {
"16 16 9 1",
" 	c None",
"1	c #DEDEDE",
"2	c #BDBDBD",
"3	c #738494",
"4	c #FFD600",
"5	c #FFA500",
"6	c #FFFF00",
"7	c #FF0000",
"8	c #B52121",
"      12        ",
"   112221212    ",
"  1222222222 12 ",
" 222223222322   ",
" 332 33         ",
"333          4 4",
" 6     65   4   ",
" 6     65   5   ",
"  6  6744445    ",
"   4 4747878   4",
"   644444445    ",
"    6444445     ",
"      6445      ",
"       65       ",
"    66456455    ",
"                "
};
