<?xml version="1.0" encoding="UTF-8"?>
<svg xmlns="http://www.w3.org/2000/svg" version="1.1" height="32px" width="32px" viewBox="0 0 100 100">
  <path style="fill:#ddd;stroke:#111;stroke-width:0,5" d="m 19,8 c 0,0 0,-7.73 8,-7 l 44,4 c 0,0 7,0 7,11 l -2,76 c 0,0 1,7 -9,5 L 26,88 c 0,0 -6,-1 -6,-9 z"/>
  <path style="fill:#ff0000;stroke:#ff0000;stroke-width:0,5" d="m 46.6,58.5 c -2.5,-3.6 -7,-9.5 -7,-14.5 0,-2 1,-5 3,-5 2,0 3.4,1.6 4,4 1,-2 1.8,-3 3.4,-3 1.6,0 4.5,2 4,7 -0.5,5 -7.4,11.5 -7.4,11.5 z M 25,20 c 0.3,-2.1 3.5,-1.5 3.6,1.5 0,2.2 -2.6,4.4 -3.5,6.1 -2.1,-2 -3.7,-5.5 -3.6,-7.6 -0.1,-2 2.9,-2.4 3.5,0 z m 44,59.6 c -0.4,2 -3.6,1.4 -3.6,-1.6 0,-2.2 2.6,-4.4 3.6,-6 2,2 3.6,5.5 3.5,7.6 0,2 -3,2.4 -3.5,0 z m -3,3.6 c 0.4,0.2 0.5,0.3 0.8,1.4 l 2.1,8 0.2,0 1.7,-6.6 c 0.5,-2 0.7,-2.1 1.1,-2.2 l 0,-0.3 -1.8,-0.1 0,0.2 c 0.4,0.1 0.7,0.3 0.7,0.7 0,0.2 -0.1,0.4 -0.1,0.5 L 70.3,86.5 68,86.2 67.7,84.8 c -0.1,-0.4 -0.1,-0.7 -0.1,-0.9 0,-0.4 0.1,-0.5 0.5,-0.5 l 0,-0.2 -2.1,-0.2 0,0.2 m 4.1,3.8 -1,3.7 -0.9,-3.9 1.9,0.2 M 28,16.3 C 27.6,16.2 27.6,16.1 27.3,15 L 25.1,6.92 25,6.91 23.2,13.6 c -0.6,2 -0.6,2.1 -1.1,2.1 l 0,0.4 1.7,0.1 0,-0.4 c -0.4,0 -0.5,-0.1 -0.5,-0.5 0,-0.2 0,-0.4 0,-0.6 l 0.4,-1.6 2.2,0.3 0.3,1.4 c 0.2,0.3 0.2,0.7 0.2,0.9 0,0.3 -0.1,0.4 -0.5,0.4 l 0,0.3 2.1,0.3 0,-0.4 m -4.2,-3.7 1,-3.74 1,3.94 -2,-0.2"/>
</svg>
