<?xml version="1.0" encoding="UTF-8"?>
<svg xmlns="http://www.w3.org/2000/svg" version="1.1" height="22px" width="22px" viewBox="0 0 192 192">
  <path style="fill:#EDEDED;stroke:#545454;stroke-width:6;" d="m 42,10 108,0 a 12 12 0 0 1 12,12  l 0,148 a 12,12 0 0 1 -12,12 l -108,0 a 12,12 0 0 1 -12,-12 l 0,-148 a 12,12 0 0 1 12,-12 z"/>
  <path style="fill:none;stroke:#FF5722;stroke-width:10;" d="m 70,60 -10,80 m 30,0 10,-80 "/>
  <path style="fill:none;stroke:#FF5722;stroke-width:10;" d="m 55,80 60,0 m -65,40 60,0 "/>
  <path style="fill:none;stroke:#FF5722;stroke-width:10;" d="m 135,60 0,60 m 0,10 0,10"/>
</svg>
