<?xml version="1.0" encoding="UTF-8"?>
<svg xmlns="http://www.w3.org/2000/svg" version="1.1" height="22px" width="22px" viewBox="0 0 192 192">
  <path style="fill:#EDEDED;stroke:#919191;stroke-width:6;" d="m 32,20 128,0 a 12 12 0 0 1 12,12  l 0,128 a 12,12 0 0 1 -12,12 l -128,0 a 12,12 0 0 1 -12,-12 l 0,-128 a 12,12 0 0 1 12,-12 z"/>
  <g transform="scale(1.92) translate(3,-8)">
  <path style="fill:#F83700;" d="m 34,30 18,0 0,4 12,0 0,4 -34,0 0,-4 4,0 z m 4,28 4,0 0,8 8,0 0,-4 4,0 0,8 -4,0 0,4 4,0 0,-4 4,0 0,8 4,0 0,8 -12,0 0,-4 -8,0 0,4 -12,0 0,-8 4,0 0,-8 4,0 0,4 4,0 0,-4 -4,0 z"/>
  <path style="fill:#AE7E00;" d="m 30,38 12,0 0,4 -4,0 0,4 4,0 0,4 -8,0 0,-8 -4,0 z m 20,0 4,0 0,8 -4,0 z m 4,8 4,0 0,4 8,0 0,4 -16,0 0,-4 4,0 z m -20,8 -8,0 0,-12 4,0 0,8 4,0 z m -4,4 8,0 0,12 -4,0 0,4 -4,0 0,-4 -8,0 0,-4 4,0 0,-4 4,0 z m 12,0 12,0 0,4 -4,0 0,4 -8,0 z m 12,4 12,0 0,4 4,0 0,4 -8,0 0,4 -4,0 0,-4 -4,0 z m 0,24 12,0 0,4 4,0 0,4 -16,0 z m -16,0 -12,0 0,4 -4,0 0,4 16,0 z"/>
  <path style="fill:#FFA246;" d="m 30,42 4,0 0,8 -4,0 z m 12,-4 8,0 0,8 4,0 0,4 -4,0 0,4 12,0 0,4 -28,0 0,-8 8,0 0,-4 -4,0 0,-4 4,0 z m 12,0 4,0 0,4 8,0 0,4 4,0 0,4 -12,0 0,-4 -4,0 z m 8,32 8,0 0,12 -8,0 0,-4 -4,0 0,-4 4,0 z m -32,0 0,4 4,0 0,4 -4,0 0,4 -8,0 0,-12 z m 8,0 4,0 0,4 -4,0 z m 12,0 4,0 0,4 -4,0 z"/>
  </g>
</svg>
