<?xml version="1.0" encoding="UTF-8"?>
<svg xmlns="http://www.w3.org/2000/svg" version="1.1" height="22px" width="22px" viewBox="0 0 192 192">
  <path style="fill:#08A0B5;stroke:none" d="m 22,30 148,0 a 12 12 0 0 1 12,12  l 0,108 a 12,12 0 0 1 -12,12 l -148,0 a 12,12 0 0 1 -12,-12 l 0,-108 a 12,12 0 0 1 12,-12 z"/>
  <defs>
  <linearGradient id="grad1" x1="100%" y1="0%" x2="0%" y2="0%">
  <stop offset="40%" style="stop-color:rgb(214,32,37);stop-opacity:1" />
  <stop offset="20%" style="stop-color:rgb(0,0,0);stop-opacity:1" />
  </linearGradient>
  </defs>
  <path style="fill:url(#grad1)" d="m 40,116 c -40,-60 152,-60 112,0 l -12,-4 c 20,-50 -108,-50 -88,0 z"/>
  <path style="fill:#000" d="m 102,112 a 6 6 1 1 0 0,4 l 30,-2 z "/>
</svg>
