<?xml version="1.0" encoding="UTF-8"?>
<svg xmlns="http://www.w3.org/2000/svg" version="1.1" height="22px" width="22px" viewBox="0 0 192 192">
  <path style="fill:#EDEDED;stroke:#919191;stroke-width:6;" d="m 32,20 128,0 a 12 12 0 0 1 12,12  l 0,128 a 12,12 0 0 1 -12,12 l -128,0 a 12,12 0 0 1 -12,-12 l 0,-128 a 12,12 0 0 1 12,-12 z"/>
  <path style="fill:#3E2723" d="m 32,72 40,0 0,16 -12,0 0,48 -16,0 0,-48 -12,0 z"/>
  <path style="fill:#F44336" d="m 76,72 40,0 0,16 -12,0 0,48 -16,0 0,-48 -12,0 z"/>
  <path style="fill:#3E2723" d="m 120,72 40,0 0,16 -24,0 0,12 16,0 0,16 -16,0 0,20 -16,0 z"/>
</svg>
