<?xml version="1.0" encoding="UTF-8"?>
<svg xmlns="http://www.w3.org/2000/svg" version="1.1" height="22px" width="22px" viewBox="0 0 192 192">
  <path style="fill:#EDEDED;stroke:#545454;stroke-width:6;" d="m 42,10 108,0 a 12 12 0 0 1 12,12  l 0,148 a 12,12 0 0 1 -12,12 l -108,0 a 12,12 0 0 1 -12,-12 l 0,-148 a 12,12 0 0 1 12,-12 z"/>
  <rect style="fill:#545454" width="96" height="86" x="48" y="80"/>
  <path style="fill:#9E9E9E" d="m 58,80 0,-10 a 38 38 0 0 1 76,0 l 0,10 -20,0 0,-10 a 18 18 0 0 0 -36,0 l 0,10 z"/>
</svg>
