<?xml version="1.0" encoding="UTF-8"?>
<svg xmlns="http://www.w3.org/2000/svg" version="1.1" height="22px" width="22px" viewBox="0 0 192 192">
  <path style="fill:#EDEDED;stroke:#919191;stroke-width:6;" d="m 32,20 128,0 a 12 12 0 0 1 12,12  l 0,128 a 12,12 0 0 1 -12,12 l -128,0 a 12,12 0 0 1 -12,-12 l 0,-128 a 12,12 0 0 1 12,-12 z"/>
  <path style="stroke:#6D4C41;stroke-width:6;fill:none;" d="m 32,82 112,0 a 6,6 0 0 1 6,-6 l 6,0 m -124,32 112,0 a 6,6 0 0 0 6,6 l 6,0"/>
  <path style="fill:#919191;stroke-width:6;" d="m 106,89 -24,0 0,-6 -12,12 12,12 0,-6 24,0 z"/>
</svg>
