<?xml version="1.0" encoding="UTF-8" standalone="no"?>
<!DOCTYPE svg PUBLIC "-//W3C//DTD SVG 1.0//EN"
"http://www.w3.org/TR/2001/REC-SVG-20010904/DTD/svg10.dtd">
<!-- Created with Sodipodi ("http://www.sodipodi.com/") -->
<svg
   xmlns="http://www.w3.org/2000/svg"
   xmlns:xlink="http://www.w3.org/1999/xlink"
   version="1.0"
   x="0"
   y="0"
   width="214.100006"
   height="168.612503"
   viewBox="0 0 254 192"
   id="svg602"
   xml:space="preserve"><defs
   id="defs603"><filter
   id="Drop_Shadow"
   filterUnits="objectBoundingBox"
   x="-10%"
   y="-10%"
   width="150%"
   height="150%"><feGaussianBlur
   in="SourceAlpha"
   stdDeviation="3"
   result="blurredAlpha" /><feOffset
   in="blurredAlpha"
   dx="3"
   dy="3"
   result="offsetBlurredAlpha" /><feFlood
   result="flooded"
   style="flood-color:rgb(0,0,0);flood-opacity:0.65" /><feComposite
   in="flooded"
   operator="in"
   in2="offsetBlurredAlpha"
   result="coloredShadow" /><feComposite
   in="SourceGraphic"
   in2="coloredShadow"
   operator="over" /></filter><filter
   id="Bevel"
   filterUnits="objectBoundingBox"
   x="-10%"
   y="-10%"
   width="150%"
   height="150%"><feGaussianBlur
   in="SourceAlpha"
   stdDeviation="2"
   result="blur" /><feSpecularLighting
   in="blur"
   surfaceScale="5"
   specularConstant="0.5"
   specularExponent="10"
   result="specOut"
   style="lighting-color:rgb(255,255,255)"><fePointLight
   x="-5000"
   y="-10000"
   z="20000" /></feSpecularLighting><feComposite
   in="specOut"
   in2="SourceAlpha"
   operator="in"
   result="specOut2" /><feComposite
   in="SourceGraphic"
   in2="specOut2"
   operator="arithmetic"
   k1="0"
   k2="1"
   k3="1"
   k4="0"
   result="litPaint" /></filter></defs><g
   style="font-size:12;stroke:#000000;"
   id="logo"><g
   id="g607"><path
   d="M 0 150.996 C 33.92 170.387 79.011 182.209 128.5 182.209 C 176.546 182.209 220.442 171.063 254 152.671 L 254 0 L 0 0 L 0 150.996 z "
   style="fill:#3b5b27;stroke:none;"
   id="path608" /><path
   d="M 0 119.892 C 33.92 139.283 79.011 151.105 128.5 151.105 C 176.546 151.105 220.442 139.959 254 121.567 L 254 0 L 0 0 L 0 119.892 z "
   style="fill:#531334;stroke:none;"
   id="path609" /><path
   d="M 0 82.189 C 33.79 101.202 78.428 112.771 127.375 112.771 C 175.962 112.771 220.301 101.371 254 82.606 L 254 0 L 0 0 L 0 82.189 z "
   style="fill:#660000;stroke:none;"
   id="path610" /></g><linearGradient
   id="gleam"
   gradientUnits="objectBoundingBox"><stop
   style="stop-color:#ffffff;stop-opacity:1;"
   offset="0"
   id="stop612" /><stop
   style="stop-color:#fffefb;stop-opacity:1;"
   offset="3.48000005e-2"
   id="stop613" /><stop
   style="stop-color:#fefcf1;stop-opacity:1;"
   offset="6.58999979e-2"
   id="stop614" /><stop
   style="stop-color:#fcf8de;stop-opacity:1;"
   offset="9.56000015e-2"
   id="stop615" /><stop
   style="stop-color:#f9f2c5;stop-opacity:1;"
   offset="0.1245"
   id="stop616" /><stop
   style="stop-color:#f6eaa4;stop-opacity:1;"
   offset="0.1524"
   id="stop617" /><stop
   style="stop-color:#f2e17c;stop-opacity:1;"
   offset="0.1798"
   id="stop618" /><stop
   style="stop-color:#f6eba9;stop-opacity:1;"
   offset="0.23909999"
   id="stop619" /><stop
   style="stop-color:#faf4ce;stop-opacity:1;"
   offset="0.29800001"
   id="stop620" /><stop
   style="stop-color:#fdfae9;stop-opacity:1;"
   offset="0.35249999"
   id="stop621" /><stop
   style="stop-color:#fefef9;stop-opacity:1;"
   offset="0.40090001"
   id="stop622" /><stop
   style="stop-color:#ffffff;stop-opacity:1;"
   offset="0.4382"
   id="stop623" /><stop
   style="stop-color:#fdfdfa;stop-opacity:1;"
   offset="0.46990001"
   id="stop624" /><stop
   style="stop-color:#f7f6eb;stop-opacity:1;"
   offset="0.50830001"
   id="stop625" /><stop
   style="stop-color:#ecead2;stop-opacity:1;"
   offset="0.55019999"
   id="stop626" /><stop
   style="stop-color:#dedab0;stop-opacity:1;"
   offset="0.59469998"
   id="stop627" /><stop
   style="stop-color:#cbc684;stop-opacity:1;"
   offset="0.64109999"
   id="stop628" /><stop
   style="stop-color:#b4ad4f;stop-opacity:1;"
   offset="0.6886"
   id="stop629" /><stop
   style="stop-color:#b3ac4c;stop-opacity:1;"
   offset="9.99999978e-3"
   id="stop630" /><stop
   style="stop-color:#c4be70;stop-opacity:1;"
   offset="0.7317"
   id="stop631" /><stop
   style="stop-color:#d4ce92;stop-opacity:1;"
   offset="0.77749997"
   id="stop632" /><stop
   style="stop-color:#e0dbac;stop-opacity:1;"
   offset="0.82450002"
   id="stop633" /><stop
   style="stop-color:#e9e4be;stop-opacity:1;"
   offset="0.87269998"
   id="stop634" /><stop
   style="stop-color:#eee9c9;stop-opacity:1;"
   offset="0.92269999"
   id="stop635" /><stop
   style="stop-color:#f0ebcd;stop-opacity:1;"
   offset="0.97750002"
   id="stop636" /></linearGradient><g
   id="g637"><g
   id="g638"><path
   d="M 79.42 140.876 C 72.461 152.178 62.832 158.477 50.304 158.477 C 40.676 158.477 30.932 153.019 24.32 145.197 L 32.556 142.965 C 37.544 147.569 44.04 150.499 50.304 150.499 C 58.424 150.499 64.34 147.29 69.908 141.294 L 21.885 87.799 C 28.961 77.186 38.125 71.161 50.305 71.301 C 59.817 71.301 69.677 76.905 76.173 84.729 L 67.937 86.823 C 62.949 82.358 56.453 79.427 50.305 79.427 C 42.649 79.427 37.081 82.078 31.745 87.381 L 79.42 140.876 z M 88.353 139.348 L 43.345 89.051 C 45.781 88.078 47.405 87.799 50.305 87.799 C 56.105 87.799 63.761 91.969 66.197 95.72 L 88.237 90.162 C 81.625 75.784 66.661 63.075 50.305 63.075 C 33.601 63.075 20.725 72.561 12.837 88.911 L 58.773 140.043 C 55.757 141.57 53.669 142.127 50.305 142.127 C 44.389 142.127 36.733 137.959 34.297 134.207 L 12.257 139.765 C 18.985 154.138 33.833 166.849 50.304 166.849 C 67.588 166.849 80.58 156.658 88.352 139.348 L 88.353 139.348 z "
   style="fill:url(#gleam);stroke:none;"
   id="path639" /><path
   d="M 164.471 22.422 L 126.191 122.433 L 88.05 22.422 L 97.238 22.422 L 126.191 98.126 L 155.144 22.422 L 164.471 22.422 z M 177.694 11.454 L 150.133 11.454 L 126.191 74.006 L 102.249 11.454 L 74.688 11.454 L 126.191 146.419 L 177.694 11.454 z "
   style="fill:url(#gleam);stroke:none;"
   id="path640" /><path
   d="M 238.68 118.251 C 236.94 140.242 221.396 157.427 202.605 157.427 C 182.613 157.427 166.329 137.876 166.329 113.789 C 166.329 89.936 182.613 70.251 202.605 70.251 C 210.256 70.251 217.336 73.195 223.136 78.105 L 217.104 83.126 C 212.812 80.198 207.933 78.525 202.605 78.525 C 186.426 78.525 173.217 94.37 173.217 113.789 C 173.217 133.282 186.426 149.448 202.605 149.448 C 215.132 149.448 225.92 139.824 230.212 126.463 L 212.58 126.463 L 212.58 118.251 L 238.68 118.251 z M 245.872 113.789 L 245.872 110.025 L 205.726 110.025 L 205.726 134.673 L 217.22 134.673 C 213.276 138.709 208.165 141.076 202.605 141.076 C 190.125 141.076 180.07 128.967 180.07 113.788 C 180.07 98.803 190.124 86.75 202.605 86.75 C 208.165 86.75 213.392 89.105 217.22 93.122 L 234.388 78.942 C 226.5 68.437 215.132 62.024 202.605 62.024 C 178.909 62.024 159.352 85.355 159.352 113.788 C 159.352 142.472 178.909 165.797 202.605 165.797 C 226.5 165.797 245.872 142.472 245.872 113.788 L 245.872 113.789 z "
   style="fill:url(#gleam);stroke:none;"
   id="path641" /></g></g></g></svg>
