<?xml version="1.0" encoding="UTF-8"?>
<svg xmlns="http://www.w3.org/2000/svg" version="1.1" height="64px" width="64px" viewBox="0 0 100 100">
  <path style="fill:#012652;stroke:#888888" d="M 92,25 92,82 59,99 9,82 10,25 59,36 z"/>
  <path style="fill:#5E7894;stroke:#222222;stroke-width:1" d="M 10,25 1,10 38,4 47,18 53,3 98,8 92,25 59,36 z"/>
  <path style="fill:#333333;stroke:#222222;stroke-width:1" d="M 10,25 47,18 92,25 59,36 z"/>
  <path style="fill:none;stroke:#444444;stroke-width:1.5" d="m 59,38 0,59"/>
  <path style="fill:#3C5776;stroke:none;" d="M 1,41 10,25 59,36 92,25 99,42 66,55 59,36 51,56 z"/>
  <path style="fill:#B1B091;stroke:none;" d="m 11,49.4 0,24 4,1.2 0,-10 4,11.2 4,1.2 -4.4,-13.2 c 6,1.6 6,-10 0,-12 z m 14,4.2 0,24 4,1.2 0,-12 4,1.2 c 6,1.6 6,-10 0,-12 z m 14,4 0,24 4,1.2 0,-16 3,7.8 4,1.2 3,-6.6 0,16.6 4,1.2 0,-24 -6,-1.8 -3,6 -3,-7.8 z"/>
  <path style="fill:#012652;stroke:none;" d="m 15,59.2 0,-5 2,0.6 c 3,1 3,6 0,5 z m 14,3.2 0,-4 2,0.6 c 3,1 3,5 0,4 z"/>
</svg>
