<?xml version="1.0" encoding="UTF-8"?>
<svg xmlns="http://www.w3.org/2000/svg" version="1.1" height="64px" width="64px" viewBox="0 0 100 100">
  <path style="fill:#007415;stroke:#333;stroke-width:2" d="m 5,25 20,1 c 0,0 9,-1 2,-6 -5,-3 -4,-15 8,-16 8,-0.7 13,2.9 13,9 0,7 -9,9 -4,13 2,2 28,0 28,0 0,0 -2,21 -1,24 1,5 7,4 9,0 4,-6 16,-4 17,8 1,9 -5,14 -8,14 -9,0 -7,-5 -13,-5 -4,0 -4,3 -4,8 0,3 2,17 2,17 0,0 -18,3 -22,3 -4,0 -8,1 -9,-3 -1,-4 6,-9 1,-13 -5,-4 -17,-5 -17,5 0,4 4,6 3,9 -1,4 -7,3 -14,2 C 8.8,94 7,94 7,94 L 4,65 c 0,0 0,-4 4,-4 4,0 4,5 9,5 5,0 8,-3 8,-9 C 25,51 18,42 10,49 2,56 5,25 5,25"/>
</svg>
