<?xml version="1.0" encoding="UTF-8"?>
<svg xmlns="http://www.w3.org/2000/svg" version="1.1" height="64px" width="64px" viewBox="0 0 100 100">
  <path style="fill:#A5C7D7;stroke:none;" d="m 10,15 80,0 q 5,0 5,5 l 0,60 q 0,5 -5,5 l -80,0 q -5,0 -5,-5 l 0,-60 q 0,-5 5,-5 z"/>
  <path style="fill:#574F4E" d="m 5,61 9,-16 12,20 12,-20 3,3 5,-9 9,15 3,7 4,6 11,-17 3,-8 6,-6 9,20 4,4 0,20 q 0,5 -5,5 l -80,0 q -5,0 -5,-5 z"/>
  <path style="fill:#4B7550" d="m 5,71 c 5,-2 17 -1 20,0 c 4,1 14,2 17,0 c 3,-2 5 -2 9,0 c 5,3 15 -2 20,1  c 5,1 8,-1 12,2  c 5,1 6,1 12,0 l 0,6 q 0,5 -5,5 l -80,0 q -5,0 -5,-5 z"/>
  <path style="fill:#295CC6" d="m 5,75 c 7,1 15,0 12,5 c -2, 3 7,4 10,3 c 2,-1 4,0 6,2 l -23,0 q -5,0 -5,-5 z"/>
  <path style="fill:#F8FBAF" d="m 20,20 a 5,5 0 1 0 0.1,1 z"/>
</svg>
