<?xml version="1.0" encoding="UTF-8"?>
<svg xmlns="http://www.w3.org/2000/svg" version="1.1" height="64px" width="64px" viewBox="0 0 100 100">
  <path style="fill:#ffffff;stroke:none;" d="m 65,3 0,19 19,0 z"/>
  <path style="fill:#EBEBDA;stroke:#777777;stroke-width:2;" d="m 65,3 0,19 19,0 0,74 -72,0 0,-93 53,0 19,19"/>
  <!--<circle cx="38%" cy="58%" r="37" style="fill:url(#Gradient);stroke:#222222;stroke-width:2;fill-opacity:0.9;stroke-opacity:0.8" mask="url(#mask_circle)"/>
  <circle cx="38%" cy="58%" r="10" fill="none" stroke="#222222" style="stroke-width:2;stroke-opacity:0.8" />-->
  <path style="fill:#222222;stroke:#666666" d="m 37,68 0,-50 39,8 0,57 c 0,0 -5,10 -21,7 -8,-2 -8,-12 1,-14 5,-1 12,0 15,2 l 0,-42 -29,-8 0,46 c 0,0 -4,11 -20,6 -6,-2 -10,-11 -1,-14 6,-2 12,0 16,2 z"/>
</svg>
