<?xml version="1.0" encoding="UTF-8"?>
<svg xmlns="http://www.w3.org/2000/svg" version="1.1" height="64px" width="64px" viewBox="0 0 100 100">
  <path style="fill:#ffffff;stroke:none;" d="m 65,3 0,19 19,0 z"/>
  <path style="fill:#EBEBDA;stroke:#777777;stroke-width:2;" d="m 65,3 0,19 19,0 0,74 -72,0 0,-93 53,0 19,19"/>
  <path d="M 38 81.1 q 9 -18 0 -36 q -9 -18 0 -36" style="stroke:#E8B7B0;stroke-width:8;fill:none;" />
  <path d="M 46 85 q 9 -18 0 -36 q -9 -18 0 -36" style="stroke:#BB5F5A;stroke-width:12;fill:none;" />
  <path d="M 53 88.5 q 9 -18 0 -36 q -9 -18 0 -36" style="stroke:#E8B7B0;stroke-width:4;fill:none;" />
  <path d="M 58 91 q 9 -18 0 -36 q -9 -18 0 -36" style="stroke:#BB5F5A;stroke-width:8;fill:none;" />
</svg>
