<?xml version="1.0" encoding="UTF-8"?>
<svg xmlns="http://www.w3.org/2000/svg" version="1.1" height="64px" width="64px" viewBox="0 0 100 100">
  <path style="fill:#EBEBDA;stroke:#777777;stroke-width:2;" d="m 65,3 0,19 19,0 0,74 -72,0 0,-93 53,0 19,19"/>
  <defs>
  <linearGradient x1="20" y1="60" x2="60" y2="40" id="Gradient" gradientUnits="userSpaceOnUse">
  <stop style="stop-color:#666666;stop-opacity:1" offset="0" />
  <stop style="stop-color:#cccccc;stop-opacity:1" offset="1" />
  </linearGradient>
  </defs>
  <path style="fill:url(#Gradient);stroke:#222222;stroke-width:2" d="M 18,68 18,83 C 28,93 68,93 78,83 L 78,68"/>
  <ellipse cx="48" cy="68" rx="30" ry="10" style="stroke-width:2; stroke:#222222; fill:url(#Gradient)"/>
  <path style="fill:url(#Gradient);stroke:#222222;stroke-width:2" d="M 18,48 18,63 C 28,73 68,73 78,63 L 78,48"/>
  <ellipse cx="48" cy="48" rx="30" ry="10" style="stroke-width:2; stroke:#222222; fill:url(#Gradient)"/>
  <path style="fill:url(#Gradient);stroke:#222222;stroke-width:2" d="M 18,28 18,43 C 28,53 68,53 78,43 L 78,28"/>
  <ellipse cx="48" cy="28" rx="30" ry="10" style="stroke-width:2; stroke:#222222; fill:url(#Gradient)"/>
  <path style="fill:#ffffff;stroke:none;" d="m 65,3 0,19 19,0 z"/>
</svg>
