/* XPM */
static char *mhwaveedit_xpm[] = {
"16 16 30 2",
"00	c #F7963B",
"01	c #EB9A44",
"02	c #1C2DEA",
"03	c #0B1364",
"04	c #0C1365",
"05	c #0A1057",
"06	c #DF9E4D",
"07	c #0D156D",
"08	c #D2A156",
"09	c #C7A65F",
"0A	c #999999",
"0B	c #0F1985",
"0C	c #BBAA68",
"0D	c #AFAE72",
"0E	c #A2B17B",
"0F	c #97B684",
"10	c #FF0000",
"11	c #6F0000",
"12	c #6E0000",
"13	c #8BBA8D",
"14	c #770000",
"15	c #5F0000",
"16	c #7FBE96",
"17	c #C55656",
"18	c #BF6060",
"19	c #C85151",
"1A	c #67C6A9",
"1B	c #5BCAB2",
"1C	c #4FCEBB",
"1D	c #43D1C4",
"00000000000000000000000000000000",
"01010101010101010101010101010101",
"06060602060602070606020606070606",
"08080807020203070808020808070808",
"09090907030309070909020202070909",
"0B030C070C0C0C070C0C020C0C070C02",
"0D0B03070D0D0D070D0D020D0D05040D",
"0E0E0B070E0E0E020202020E0E030E0E",
"0F0F0F0F0F0F0F0F0F0F0F0F0F0F0F0F",
"13131014131313111414101411101313",
"16101514161616141616101616161016",
"10180A190A0A0A190A0A100A0A0A0A17",
"1A1A1A1410101A141A1A101414151A1A",
"1B1B1B11111210141B1B101B1B1B1B1B",
"1C1C1C101C1C10141C1C101010151C1C",
"1D1D1D1D1D1D1D1D1D1D1D1D1D1D1D1D"
};
