<?xml version="1.0" encoding="UTF-8"?>
<svg xmlns="http://www.w3.org/2000/svg" version="1.1" height="48px" width="48px" viewBox="0 0 100 100">
  <g style="stroke:#333333;stroke-width:2">
  <path style="fill:#C4C48B" d="m 3,16 94,0 0,68 -94,0 z"/>
  <path style="fill:#EAEAAB" d="m 4,16 34,33 c 7,7 15,7 23,0 L 96,16 z"/>
  <path style="fill:none" d="M 96,84 59,51 M 4,84 40,51"/>
  </g>
  <g transform="scale(0.6), translate(56,56)">
  <path style="fill:#ffffff;stroke:none;" d="m 65,3 0,19 19,0 z"/>
  <path style="fill:#EBEBDA;stroke:#777777;stroke-width:2;" d="m 65,3 0,19 19,0 0,74 -72,0 0,-93 53,0 19,19"/>
  <g transform="scale(0.4) translate(22,30)">
  <path style="fill:none;stroke:#919191;stroke-width:6;" d="m 32,62 128,0 m -128,16 128,0 m -128,16 128,0 m -128,16 128,0 m -128,16 128,0" />
  <path style="fill:#3F51B5;" d="m 112,96 32,0 0,48 -16,-16 -16,16 z"/>
  <circle style="fill:#A8965D;" cx="128" cy="76" r="28"/>
  </g>
  </g>
</svg>
