<?xml version="1.0" encoding="UTF-8"?>
<svg xmlns="http://www.w3.org/2000/svg" version="1.1" height="64px" width="64px" viewBox="0 0 192 192">
  <g transform="scale(2.5) translate(-10,-10)">
  <path style="fill:#545454" d="m 20,50 60,0 0,30 -60,0 z"/>
  <path style="fill:#4CAF50" d="m 25,52 a 2,2 0 1 0 0.1,0 z"/>
  <path style="fill:#FFF;stroke:#9E9E9E;stroke-width:3" d="m 30,50 0,-30 40,0 0,30 m -30,-25 20,0 m -20,7 20,0 m -20,7 20,0 m -20,7 20,0"/>
  </g>
  <g transform="translate(100 100) scale(0.5)">
  <circle style="fill:#546E7A;stroke:none" cx="96" cy="96" r="74"/>
  <path style="fill:#FFF;stroke:none" d="m 108,76 -24,8 0,64 24,0 z"/>
  <circle style="fill:#FFF;stroke:none" cx="96" cy="54" r="12"/>
  </g>
</svg>
