#define max_width 12
#define max_height 12
static unsigned char max_bits[] = {
 0x00, 0x00, 0x00, 0x00, 0x00, 0x00, 0x60, 0x00, 0xF0, 0x00, 0x98, 0x01,
 0x0C, 0x03, 0x06, 0x06, 0x00, 0x00, 0x00, 0x00, 0x00, 0x00, 0x00, 0x00 };
