<?xml version="1.0" encoding="UTF-8"?>
<svg xmlns="http://www.w3.org/2000/svg" version="1.1" height="16px" width="16px" viewBox="0 0 100 100">
  <ellipse cx="50" cy="55" rx="47" ry="30" style="fill:#5B4904;stroke:#222"/>
  <ellipse cx="50" cy="45" rx="47" ry="30" style="fill:#A8965D;stroke:#FFEF7C"/>
  <g transform="scale(0.5, 0.25), translate(12, 78)">
  <path style="fill:#5B4904" d="m 149 36 a 70,74 1 1 0 0,112 l -6,-13 a 56,60 1 1 1 0,-86 z"/>
  <path style="fill:#5B4904" d="m 23,71 60,0 0,14 -60,0 z m 0,28 60,0 0,14 -60,0 z"/>
  <path style="fill:#F2E9D2" d="m 146 40 a 70,74 1 1 0 0,112 l -6,-13 a 56,60 1 1 1 0,-86 z"/>
  <path style="fill:#F2E9D2" d="m 20,75 60,0 0,14 -60,0 z m 0,28 60,0 0,14 -60,0 z"/>
  </g>
</svg>
