<?xml version="1.0" encoding="UTF-8"?>
<svg xmlns="http://www.w3.org/2000/svg" version="1.1" height="64px" width="64px" viewBox="0 0 100 100">
  <path style="fill:#888888;" d="m 41,28 36,41 c 6,-1 14,1 17,7 4,8 -1,19 -1,19 L 85,79 71,87 77,97 C 73,97 66,96 63,89 61,84 63,79 63,79 L 27,37 C 18,38 10,37 5,28 0,19 3,9 6,6 L 16,27 35,18 27,2 c 6,0 12,2.9 15,9 4,9 -1,17 -1,17 z"/>
  <path style="fill:#aaaaaa;" d="M 37,60 76,20 C 76,20 81,8 86,3 l 11,10 c 0,0 -4,7 -15,12 L 42,66 z"/>
  <path style="fill:#4E86A0;" d="M 34,57 C 34,57 9.8,72 5,82 2,88 12,99 19,96 28,93 43,73 45,69 z"/>
</svg>
