<?xml version="1.0" encoding="UTF-8"?>
<svg xmlns="http://www.w3.org/2000/svg" version="1.1" height="64px" width="64px" viewBox="0 0 100 100">
  <path style="fill:#111111;stroke:#666666" d="m 41,81 0,8 c 0,0 -6,0 -7,0 -4,0 -6,6 -6,6 2,0 43,0 44,0 0,0 -1,-6 -4,-6 -2,0 -7,0 -7,0 l 0,-8"/>
  <path style="fill:#ffffff;stroke:#000000;stroke-width:4px;stroke-linecap:butt" d="m 4.7,74 c 0,-16 0,-45 0,-57 0,-4 0,-8.8 5.2,-8.8 9.1,0 76.1,0 81.1,0 5,0 5,4.8 5,12.8 0,11 0,46 0,53 0,1 0,5 -8,5 -5,0 -74,0 -78.1,0 -5.2,0 -5.2,-5 -5.2,-5 z"/>
  <path style="fill:#333333;stroke:#ffffff" d="M 7.8,12 93,12 93,75 7.8,75 z"/>
  <path style="fill:#407380" d="M 84,13 84,41 45,42 39,74 8,74 8,13 z"/>
  <path style="fill:#aaaaaa;stroke:#111111;stroke-width:2;stroke-linejoin:bevel" d="m 55,71 9,0 0,27 -9,0 z m 34,-36 7,0 0,16 -34,11 0,7 -5,0 0,-10 35,-11 0,-10 -3,0 z m -60,0 4,0 0,3 -4,0 z"/>
  <path style="fill:#529BB0;stroke:#6EB3C7;stroke-width:2;stroke-linejoin:bevel;" d="m 35,28 0,18 52,0 0,-18 z"/>
  <path style="fill:#73D0E8;stroke-linejoin:bevel;" d="m 36,30 49,0 0,3 -49,0 z"/>
</svg>
