<?xml version="1.0" encoding="UTF-8"?>
<svg xmlns="http://www.w3.org/2000/svg" version="1.1" height="500px" width="500px" viewBox="0 0 100 100">

  <linearGradient id="grad" y2="-20%">
    <stop stop-color="#111111" offset="0" />
    <stop stop-color="#666666" offset="1" />
  </linearGradient>
  <path style="fill:url(#grad);stroke:none;" d="m 1,10 98,0 0,80 -98,0 z"/>
  <path style="fill:#FFFFFF;stroke:none;" d="m 2,60 8,-20 6,0 8,20 -5,0 -2,-5 -8,0 -2,5 z m 11,-15 -2,5 4,0 z m 13,15 0,-20 5,0 7,7 7,-7 5,0 0,20 -5,0 0,-13 -7,7 -7,-7 0,13 z m 28,0 0,-20 8,0 a 10,10 0 0 1 0,20 z m 5,-5 3,0 a 5,5 0 0 0 0,-10 l -3,0 z"/>
  <path style="fill:#009362;stroke:none;" d="m 74,60 0,-8 7,-7 0,8 8,0 -7,7 z m 1,-23 23,0 0,23 -7,-7 0,-10 -10,0 z"/>
</svg>
