<?xml version="1.0" encoding="UTF-8"?>
<svg xmlns="http://www.w3.org/2000/svg" version="1.1" height="500px" width="500px" viewBox="0 0 100 100">
  <path style="fill:#FFFADC;stroke:none;" d="m 1,10 98,0 0,80 -98,0 z"/>
  <path style="fill:#0072C6;stroke:none;" d="m 5,30 6,0 0,6 -6,0 z m 0,9, 6,0 0,27 a 6,6 0 0 1 -6,-6 z m 12,0 15,0 a 6,6 0 0 1 6,6 l 0,21 -6,0 0,-18 a 3,3 0 0 0 -3,-3 l -6,0 0,21 -6,0 z m 27,-6 0,27 a 6,6 0 0 0 6,6 l 6,0 0,-6 -3,0 a 3,3 0 0 1 -3,-3 l 0,-12 6,0 0,-6 -6,0 0,-6 z m 38,22 -18,0 a 6.5,6.5 0 0 0 12,3 l 4.5,4.5 a 14,16 0 0 1 -19,0 a 16,16 0 0 1 0,-19 a 14,19 0 0 1 18,1 a 14,13 0 0 1 2.5,9 z m -6,-6 a 6.2,6.2 0 0 0 -12,0 z m 10,-19 6,0 0,36 a 6,6 0 0 1 -6,-6 "/>

</svg>
