<?xml version="1.1" encoding="UTF-8"?>
<svg height="100" width="100">

  <path style="fill:#E7E6E0;stroke:#222222;stroke-width:2" d="m 2.7,96 c 0,-1 -0.4,-63 -0.4,-63 0,0 -0.6,-5 4.4,-5 -1,0 6.3,0 6.3,0 l 0,-6 c 0,0 0,-3 3,-3 l 17,0 c 0,0 3,0 3,3 l 0,6 43,0 c 0,0 4,0 4,4 l -2,64 z"/>

  <circle cx="31" cy="73" r="18" style="fill:#FF7000" />
  <path style="fill:none;stroke:#ED6800;stroke-width:12" d="M 93,90 C 97,34 79,5.6 16,8 M 68,81 C 71,51 57,35 25,36"/>

  <path style="fill:#E9E3BB;stroke:#222222;stroke-width:2;fill-opacity:0.3;stroke-opacity:0.7" d="M 2.7,96 13,53 c 0,0 0,0 10,0 10,0 60,0 60,0 0,0 10,0 10,0 0,9 -10,43 -10,43 z"/>
</svg>
