<?xml version="1.0" encoding="UTF-8"?>
<svg xmlns="http://www.w3.org/2000/svg" version="1.1" height="24px" width="24px" viewBox="0 0 192 192">
  <path style="fill:#EDEDED;stroke:#545454;stroke-width:6;" d="m 42,10 108,0 a 12 12 0 0 1 12,12  l 0,148 a 12,12 0 0 1 -12,12 l -108,0 a 12,12 0 0 1 -12,-12 l 0,-148 a 12,12 0 0 1 12,-12 z"/>
  <g transform="scale(1.6) translate(10,10)" style="stroke:#545454;stroke-width:3.0;fill:none;">
  <path d="m 23 20 0 10 z m 10 0 0 10 z m 20 0 0 10 z m 10 0 0 10 z m 10 0 0 10"/>
  <path d="m 41 28 a 3 4.5 1 1 1 1 1 z"/>
  <path d="m 33 36 0 10 z m 10 0 0 10 z m 20 0 0 10 z m 10 0 0 10"/>
  <path d=" m 21 44 a 3 4.5 1 1 1 1 1 z m 30 0 a 3 4.5 1 1 1 1 1 z"/>
  <path d="m 23 52 0 10 z m 10 0 0 10 z m 20 0 0 10 z m 10 0 0 10 z m 10 0 0 10"/>
  <path d="m 41 60 a 3 4.5 1 1 1 1 1 z"/>
  <path d="m 33 68 0 10 z m 10 0 0 10 z m 20 0 0 10 z m 10 0 0 10"/>
  <path d=" m 21 76 a 3 4.5 1 1 1 1 1 z m 30 0 a 3 4.5 1 1 1 1 1 z"/>
  </g>
</svg>
