<?xml version="1.0" encoding="UTF-8"?>
<svg xmlns="http://www.w3.org/2000/svg" version="1.1" height="24px" width="24px" viewBox="0 0 192 192">
  <path style="fill:#8097A2;stroke:none" d="m 22,30 148,0 a 12 12 0 0 1 12,12  l 0,108 a 12,12 0 0 1 -12,12 l -148,0 a 12,12 0 0 1 -12,-12 l 0,-108 a 12,12 0 0 1 12,-12 z"/>
  <path style="fill:#D70751" d="m 96,96 a 12 12 0 1 0 0,-24 a 18 18 0 1 0 0,36 a 24 24 0 1 0 0,-48 a 36 36 0 0 0 -36,36 a 54 54 0 0 0 36,50 a 52 52 0 0 1 -32,-50 a 32 32 0 0 1 32,-32 a 20 20 0 0 1 0,42 a 16 16 0 0 1 0,-33 a 11 11 0 0 1 0,23 z"/>
</svg>
