<?xml version="1.0" encoding="UTF-8"?>
<svg xmlns="http://www.w3.org/2000/svg" version="1.1" height="24px" width="24px" viewBox="0 0 192 192">
  <path style="fill:#EDEDED;stroke:#919191;stroke-width:6;" d="m 32,20 128,0 a 12 12 0 0 1 12,12  l 0,128 a 12,12 0 0 1 -12,12 l -128,0 a 12,12 0 0 1 -12,-12 l 0,-128 a 12,12 0 0 1 12,-12 z"/>
  <path style="fill:none;stroke:#545454;stroke-width:6;" d="m 40,48 112,0 a 6,6 0 0 1 6,6 l 0,84 a 6,6 0 0 1 -6,6 l -112,0 a 6,6 0 0 1 -6,-6 l 0,-84 a 6,6 0 0 1 6,-6 z"/>
  <path style="fill:none;stroke:#545454;stroke-width:8;" d="m 80,68 -10,20 m 40,-20 10,20 m -25,10 0,20"/>
</svg>
