<?xml version="1.0" encoding="UTF-8"?>
<svg xmlns="http://www.w3.org/2000/svg" version="1.1" height="24px" width="24px" viewBox="0 0 192 192">
  <path style="fill:#EDEDED;stroke:#919191;stroke-width:6;" d="m 32,20 128,0 a 12 12 0 0 1 12,12  l 0,128 a 12,12 0 0 1 -12,12 l -128,0 a 12,12 0 0 1 -12,-12 l 0,-128 a 12,12 0 0 1 12,-12 z"/>
  <path style="stroke:#919191;stroke-width:6;fill:#919191;fill-opacity:0.5;" d="m 46,48 102,0 0,96 -102,0 z m 0,24 102,0 m -102,16 102,0 m -102,16 102,0 m -102,16 102,0"/>
</svg>
