<?xml version="1.0" encoding="UTF-8"?>
<svg xmlns="http://www.w3.org/2000/svg" version="1.1" height="24px" width="24px" viewBox="0 0 192 192">
  <path style="fill:#EDEDED;stroke:#919191;stroke-width:6;" d="m 42,10 108,0 a 12 12 0 0 1 12,12  l 0,148 a 12,12 0 0 1 -12,12 l -108,0 a 12,12 0 0 1 -12,-12 l 0,-148 a 12,12 0 0 1 12,-12 z"/>
  <g transform="translate(0,32)">
  <g transform="rotate(45 96 96) scale(0.75)">
  <path style="fill:#919191;" d="m 24,72 a 48 48 0 0 0 48,-48 l 48,0 a 48 48 0 0 0 48,48 l 0,48 a 48 48 0 0 0 -48,48 l-48,0 a 48 48 0 0 0 -48,-48 z m 72,-12 a 36 36 1 1 0 0.1,0 z"/>
  </g>
  </g>
</svg>
