<?xml version="1.0" encoding="UTF-8"?>
<svg xmlns="http://www.w3.org/2000/svg" version="1.1" height="24px" width="24px" viewBox="0 0 192 192">
  <path style="fill:#EDEDED;stroke:#545454;stroke-width:6;" d="m 42,10 108,0 a 12 12 0 0 1 12,12  l 0,148 a 12,12 0 0 1 -12,12 l -108,0 a 12,12 0 0 1 -12,-12 l 0,-148 a 12,12 0 0 1 12,-12 z"/>
  <path style="fill:#FF5722;fill-opacity:0.6;stroke:#FF5722;stroke-width:6;" d="m 70,50 -30,50 60,0 z"/>
  <path style="fill:#009688;fill-opacity:0.6;stroke:#009688;stroke-width:6;" d="m 110,80 a 30,30 1 1 0 0.1,0 z"/>
  <path style="fill:#FFC107;" d="m 145,45 10,10 -90,90 -10,-10 90,-90 z"/>
  <path style="fill:#FFEF62;" d="m 65,145 -14,5 4,-15 z"/>
  <path style="fill:#646464;" d="m 55.667,148.333 -4.667,1.667 1.333,-5 z"/>
</svg>
