<?xml version="1.0" encoding="UTF-8"?>
<svg xmlns="http://www.w3.org/2000/svg" version="1.1" height="32px" width="32px" viewBox="0 0 192 192">
  <path style="fill:#EDEDED;stroke:#545454;stroke-width:6;" d="m 42,10 108,0 a 12 12 0 0 1 12,12  l 0,148 a 12,12 0 0 1 -12,12 l -108,0 a 12,12 0 0 1 -12,-12 l 0,-148 a 12,12 0 0 1 12,-12 z"/>
  <g transform="scale(1.92)">
  <path style="fill:none;stroke:#8BC34A;stroke-width:5;" d="m 22,50 0,25 m 0,-20 a 6,6 0 0 1 10,0 l 0,20 m 0,-20 a 6,6 0 0 1 10,0 l 0,20 m 38,-15 -27,0 17,-25 0,40" />
  </g>
</svg>
