<?xml version="1.0" encoding="UTF-8"?>
<svg xmlns="http://www.w3.org/2000/svg" version="1.1" height="32px" width="32px" viewBox="0 0 192 192">
  <path style="fill:#EDEDED;stroke:#545454;stroke-width:6;" d="m 42,10 108,0 a 12 12 0 0 1 12,12  l 0,148 a 12,12 0 0 1 -12,12 l -108,0 a 12,12 0 0 1 -12,-12 l 0,-148 a 12,12 0 0 1 12,-12 z"/>
  <g transform="scale(1.6) translate(10,7)" style="fill:none;stroke:#088278;stroke-width:5;stroke-linecap:round">
  <path d="m 35,30 -15,20 15,20 " />
  <path d="m 39,40 a 12,12 0 1 1 12,19 q -4,3 -3,6 m 0,7 0,1" />
  <path d="m 65,30 15,20 -15,20 " />
  </g>
</svg>
