<?xml version="1.0" encoding="UTF-8"?>
<svg xmlns="http://www.w3.org/2000/svg" version="1.1" height="32px" width="32px" viewBox="0 0 192 192">
  <path style="fill:#EDEDED;stroke:#545454;stroke-width:6;" d="m 42,10 108,0 a 12 12 0 0 1 12,12  l 0,148 a 12,12 0 0 1 -12,12 l -108,0 a 12,12 0 0 1 -12,-12 l 0,-148 a 12,12 0 0 1 12,-12 z"/>
  <path style="fill:#FF9800" d="m 48,72 36,0 a 9 9 0 0 1 9,-9 l 6,0 a 9 9 0 0 1 9,9 l 36,0 a 6 6 0 0 1 6,6 l 0,60 a 6 6 0 0 1 -6,6 l -96,0 a 6 6 0 0 1 -6,-6 l 0,-60 a 6 6 0 0 1 6,-6
  m 43.5,-6 a 3 3 0 0 0 0,6 l 9,0 a 3 3 0 0 0 0,-6 z"/>
</svg>
