<?xml version="1.0" encoding="UTF-8"?>
<svg xmlns="http://www.w3.org/2000/svg" version="1.1" height="32px" width="32px" viewBox="0 0 192 192">
  <path style="fill:#94776D;stroke:none" d="m 22,30 148,0 a 12 12 0 0 1 12,12  l 0,108 a 12,12 0 0 1 -12,12 l -148,0 a 12,12 0 0 1 -12,-12 l 0,-108 a 12,12 0 0 1 12,-12 z"/>
  <path style="fill:#3E2723;fill-rule:evenodd;" d="m 42,87 6,-6 c -8,-12 -26,-12, -32,0 c -4,10 0,16 13,18 c 18,2 8,24 -9,6 l -6,6 c 8,12 26,12 32,0 c 4,-10 0,-16 -13,-18 c -18,-2 -8,-24 9,-6 z
  m 18,-8 a 13,17 0 1 0 0.1,0 z m 0,8 a 6,9 0 1 1 -0.1,0 z m 11,20 -5,5 4,4 5,-5 z m 4,-26.5 0,18 a 12,12 0 1 0 24,0 l 0,-17 -6,0 0,17 a 6,6 0 1 1 -12,0 l 0,-17 z
  m 23,29 9,-28 6,0 9.5,30 -6,-1 -3.3,-10.3 -6,0 -3,9.3 z m 10,-15 4,0 -2,-7 z
  m 36,-5 4.5,-4.5 c -6,-9 -19.5,-9, -24,0 c -3,7.5 0,12 9.75,13.5 c 13.5,1.5 6,18 -7.25,4.5 l -4.5,4.5 c 6,9 19.5,9 24,0 c 3,-7.5 0,-12 -9.75,-13.5 c -13.5,-1.5 -6,-18 7.25,-4.5 z
  m 7,-15 0,43 8,2 0,-19 10,0 0,24 8,3 0,-61 -8,3 0,23 -10,0 0,-20 z"/>
</svg>
