<?xml version="1.0" encoding="UTF-8"?>
<svg xmlns="http://www.w3.org/2000/svg" version="1.1" height="32px" width="32px" viewBox="0 0 192 192">
  <path style="fill:#94776D;stroke:none" d="m 22,30 148,0 a 12 12 0 0 1 12,12  l 0,108 a 12,12 0 0 1 -12,12 l -148,0 a 12,12 0 0 1 -12,-12 l 0,-108 a 12,12 0 0 1 12,-12 z"/>
  <path style="fill:#3E2723;" d="m 88,30 0,32 -4,0 0,24 24,0 0,-24 -4,0 0,-32 -6,0 0,32,-4,0 0,-32 z m 0,44 16,0 0,6 -16,0 z"/>
  <path style="fill:#3E2723;" d="m 56,76 0,20 -6,0 0,6 6,0 0,40 6,0 0,-40 6,0 0,-6 -6,0 0,-20 z
  m 46,26 6,0 0,40 -6,0 0,-5 a 19,20 0 1 1 0,-30 z m -2,19 a 11,13 1 1 0 0.01,1 z
  m 20,-19 -6,0 0,40 6,0 0,-24 a 11,11 0 1 1 22,0 l 6,0 a 16,16 0 0 0 -28,-12"/>
</svg>
