<?xml version="1.0" encoding="UTF-8"?>
<svg xmlns="http://www.w3.org/2000/svg" version="1.1" height="32px" width="32px" viewBox="0 0 192 192">
  <path style="fill:#94776D;stroke:none;" d="m 42,10 108,0 a 12 12 0 0 1 12,12  l 0,148 a 12,12 0 0 1 -12,12 l -108,0 z"/>
  <path style="fill:#3E2723" d="m 42,10 a 12,12 0 0 0 -12,12 l 0,148 a 12,12 0 0 0 12,12 z"/>
  <g transform="scale(1.92)">
  <path style="fill:#3E2723;fill-rule:evenodd;" d="m 57,45 4,0 -1,13 c -0.3,1.5 0,1.5 2,0 a 12,12 0 1 0 -19.5,-13 c -7,22 14,26 27,17 l 1,3.5 c -13,7 -37,5 -32.5,-18 a 15.5,15 0 1 1 24.5,14 c -4,2 -7,2 -6,-3 c -2,5 -12,5 -10,-6 c 2,-10 11,-8 10,-6 z m -0.5,7 c 0.5,-6 -5,-6 -6.5,0 c -1.5,9 5,8 6.5,0 "/>
  </g>
</svg>
