<?xml version="1.0" encoding="UTF-8"?>
<svg xmlns="http://www.w3.org/2000/svg" version="1.1" height="32px" width="32px" viewBox="0 0 192 192">
  <path style="fill:#EDEDED;stroke:#919191;stroke-width:6;" d="m 32,20 128,0 a 12 12 0 0 1 12,12  l 0,128 a 12,12 0 0 1 -12,12 l -128,0 a 12,12 0 0 1 -12,-12 l 0,-128 a 12,12 0 0 1 12,-12 z"/>
  <g transform="scale(1.2) translate(30,30)">
  <path style="fill:#616161" d="M 10,3.1 10,97 90,97 90,3.1 z m 4,5.9 6,0 0,5 -6,0 z m 66,0 6,0 0,5 -6,0 z m -66,11 6,0 0,5 -6,0 z m 66,0 6,0 0,5 -6,0 z m -66,11 6,0 0,5 -6,0 z m 66,0 6,0 0,5 -6,0 z m -66,11 6,0 0,5 -6,0 z m 66,0 6,0 0,5 -6,0 z m -66,11 6,0 0,5 -6,0 z m 66,0 6,0 0,5 -6,0 z m -66,11 6,0 0,5 -6,0 z m 66,0 6,0 0,5 -6,0 z m -66,11 6,0 0,5 -6,0 z m 66,0 6,0 0,5 -6,0 z m -66,11 6,0 0,5 -6,0 z m 66,0 6,0 0,5 -6,0 z"/>
  <path style="fill:#607D8B" d="m 23,5 54,0 0,26 -54,0 z m 0,29 54,0 0,28 -54,0 z m 0,31 54,0 0,30 -54,0 z"/>
  </g>
</svg>
