<?xml version="1.0" encoding="UTF-8"?>
<svg xmlns="http://www.w3.org/2000/svg" version="1.1" height="64px" width="64px" viewBox="0 0 100 100">
  <defs>
  <linearGradient id="cd" x1="0%" y1="0%" x2="100%" y2="100%">
  <stop offset="0%" stop-color="#585858"/>
  <stop offset="50%" stop-color="#989898"/>
  <stop offset="100%" stop-color="#585858"/>
  </linearGradient>
  </defs>
  <path stroke="url(#cd)" fill="none" stroke-width="22" d="m 20,40 a 1 1 0 1 0 30,30 a 1 1 0 1 0 -30,-30 z"/>
  <path style="fill:#222222;" d="m 59,75 0,-50 39,8 0,57 c 0,0 -5,10 -21,7 -8,-2 -8,-12 1,-14 5,-1 12,0 15,2 l 0,-42 -29,-8 0,46 c 0,0 -4,11 -20,6 -6,-2 -10,-11 -1,-14 6,-2 12,0 16,2 z"/>
  <path style="fill:#111111" d="M 3,-2 3,0 6,0 6,-2 z M 6,0 6,1 3,1 3,0 1,0 1,61 39,61 39,0 37,0 37,1 34,1 34,0 z m 28,0 3,0 0,-2 -3,0 z M 3,5 6,5 6,8 3,8 z m 31,0 3,0 0,3 -3,0 z m -31,7 3,0 0,3 -3,0 z m 31,0 3,0 0,3 -3,0 z m -31,7 3,0 0,3 -3,0 z m 31,0 3,0 0,3 -3,0 z m -31,7 3,0 0,3 -3,0 z m 31,0 3,0 0,3 -3,0 z m -31,7 3,0 0,3 -3,0 z m 31,0 3,0 0,3 -3,0 z m -31,7 3,0 0,3 -3,0 z m 31,0 3,0 0,3 -3,0 z m -31,7 3,0 0,3 -3,0 z m 31,0 3,0 0,3 -3,0 z m -31,7 3,0 0,3 -3,0 z m 31,0 3,0 0,3 -3,0 z"/>
  <path style="fill:#92B0C9" d="m 8,0 24,0 0,16 -24,0 z m 0,18 24,0 0,19 -24,0 z m 0,21 24,0 0,19 -24,0 z"/>
</svg>
