/* XPM */
static char * error_xpm[] = {
"34 44 65 1",
" 	c None",
".	c #DDD9DC",
"+	c #CBCACC",
"@	c #BBBBBD",
"#	c #C86867",
"$	c #BA9393",
"%	c #D9D7D8",
"&	c #C4C2C4",
"*	c #D67D78",
"=	c #D47474",
"-	c #BF5C5C",
";	c #B07374",
">	c #E59A9B",
",	c #DD8B8B",
"'	c #C6B9BA",
")	c #E9B1B1",
"!	c #E3A29F",
"~	c #B54C4C",
"{	c #D4C7C8",
"]	c #D47F80",
"^	c #E2E1E0",
"/	c #EDC4C4",
"(	c #F5D3D3",
"_	c #E8E9E6",
":	c #CDB8B9",
"<	c #AF5150",
"[	c #A64342",
"}	c #F6F4F1",
"|	c #C25752",
"1	c #993736",
"2	c #BCA8AA",
"3	c #CEA3A6",
"4	c #8D2827",
"5	c #7D1F1F",
"6	c #BB6867",
"7	c #C3A5A6",
"8	c #811514",
"9	c #975B5A",
"0	c #C55353",
"a	c #B2B1B3",
"b	c #D2AEAE",
"c	c #A6A7A7",
"d	c #8F2123",
"e	c #9C9A9B",
"f	c #947474",
"g	c #DEA4A8",
"h	c #C48585",
"i	c #D89394",
"j	c #910E0E",
"k	c #D15E61",
"l	c #C94141",
"m	c #B82423",
"n	c #921D1C",
"o	c #B02C2C",
"p	c #A41917",
"q	c #AB3938",
"r	c #9F2E2D",
"s	c #B84542",
"t	c #A04E4B",
"u	c #CB2325",
"v	c #CB3131",
"w	c #9C090D",
"x	c #AB0C0F",
"y	c #C41819",
"z	c #C91212",
"              .+@@+.              ",
"             .+@##$@+             ",
"            %&**=#-;$+.           ",
"           %&>,,==#-;$@+          ",
"          +')!>,*=##-~;@+         ",
"       ..&{)))>>]=##--~;$++       ",
"     ^^%{/(//))>,]=##-~~~;$@++    ",
"  __.%:)//((//)>,*=##--~<<[;$@@++ ",
"}_{::!))/((((/)>,]=##-|~~~[[1;$2@+",
"^3>>!!))/(((//)>,*=##-|~~[[11144$+",
"^3>>>!))/(((/))>]==#-|~[[[[11445;&",
"{,,>>!))/(}())>,]=#|-67$<11144889@",
"+,,,>!!)/}}}/>,]##-0-7@a$114488892",
"{*,,,>!)}}}_^b*#-0~<2@ccc;dd88889a",
"{**,,,>)}_^_^%!||~~7acceef5888859a",
"'***,,,>g^}^^%+h~[$accecf58858559a",
"&=***,,,,i^}%%%&[2ccccef55jjjjjj9@",
"&==**]]]=kh%^^%+@'cceef58jjddjjj;@",
"{===**]=klm6%%%+@accef58jddddnd5;a",
"&$===]=kloop6%^+&acef5jjndppppn4$@",
"&$##==#0qmomr:%&@cce9jjdpppppppr$@",
"+3####0sqmmqb^%+@ceeetppprrrrrr[2+",
".2#0|00sqmqb%%&@@ceeeetrroooooo~'+",
" :ss00ssq[7+&+@aeeeeeee<oouuuuo6& ",
" @;ss0sss2++@@af5teeeea76uvvvuuh+ ",
" &$ssss~2@acaaf5jjtecc@&'-vvvvs'+ ",
" .:;sqq6cacccf8jjwj1aa@+%3uuvv#&  ",
"  @$qqqq$eecf5jjwwxp<@+_21yuul7+  ",
"  .';rrqqfef8jjwwpxxr-&bqyzuu-&   ",
"   @$rrrq4t5jjjwwpxrozlqyyzuv3+   ",
"    :;rrrrjjjjjwwprozzzzzzuu6+    ",
"    .$qrrrrnjjjwpxroyzzzzzulb+    ",
"     @;qqqrnnjwwprouuzzuuuv$+     ",
"     .@;<qqrdjwwpoouuuuuuv={      ",
"      .76<<qqrwprouuuuuvvk{.      ",
"       .$]--ssrooovvvvvvkb.       ",
"        &3]-||ssslllllkk3.        ",
"         +$h==---kkkkkk3.         ",
"          +2h==]]]===,2%          ",
"           {a$gg,,,,3'.           ",
"            .&33gg3b&{            ",
"              .+3&&+              ",
"                .+.               ",
"                 .                "};
