/* XPM */
static char * icon_file_library_24_xpm[] = {
"24 24 129 2",
"  	c None",
". 	c #323232",
"+ 	c #565656",
"@ 	c #282828",
"# 	c #484848",
"$ 	c #353535",
"% 	c #5C5C5C",
"& 	c #545454",
"* 	c #5A5A5A",
"= 	c #7A7A7A",
"- 	c #7C7C7C",
"; 	c #595959",
"> 	c #3C3C3C",
", 	c #7D7D7D",
"' 	c #343434",
") 	c #A3A3A3",
"! 	c #EEEEEE",
"~ 	c #EBEBEB",
"{ 	c #E9E9E9",
"] 	c #E6E6E6",
"^ 	c #C2C2C2",
"/ 	c #E0E0E0",
"( 	c #E5E5E5",
"_ 	c #E8E8E8",
": 	c #C8C8C8",
"< 	c #C6C6C6",
"[ 	c #E4E4E4",
"} 	c #E2E2E2",
"| 	c #B8B8B8",
"1 	c #B6B6B6",
"2 	c #D7D7D7",
"3 	c #D3D3D3",
"4 	c #CECECE",
"5 	c #CCCCCC",
"6 	c #D0D0D0",
"7 	c #D2D2D2",
"8 	c #D6D6D6",
"9 	c #D5D5D5",
"0 	c #D1D1D1",
"a 	c #B3B3B3",
"b 	c #686868",
"c 	c #C3C3C3",
"d 	c #C5C5C5",
"e 	c #BFBFBF",
"f 	c #BDBDBD",
"g 	c #A7A7A7",
"h 	c #666666",
"i 	c #B9B9B9",
"j 	c #C4C4C4",
"k 	c #B4B4B4",
"l 	c #A5A5A5",
"m 	c #ACACAC",
"n 	c #C0C0C0",
"o 	c #BEBEBE",
"p 	c #BBBBBB",
"q 	c #6A6A6A",
"r 	c #7E7E7E",
"s 	c #BCBCBC",
"t 	c #71827D",
"u 	c #14C622",
"v 	c #07D01E",
"w 	c #06D01E",
"x 	c #09D21D",
"y 	c #34BA42",
"z 	c #AFAFB7",
"A 	c #BABABA",
"B 	c #8C8C8C",
"C 	c #444444",
"D 	c #404040",
"E 	c #3F3F3F",
"F 	c #747474",
"G 	c #6E7C7A",
"H 	c #08E010",
"I 	c #00FE00",
"J 	c #31BD4E",
"K 	c #B2B2B2",
"L 	c #2F2F2F",
"M 	c #B7B7B7",
"N 	c #E7E7E7",
"O 	c #1D9E38",
"P 	c #A5CDB7",
"Q 	c #B0B0B0",
"R 	c #989898",
"S 	c #5E5E5E",
"T 	c #12B623",
"U 	c #8CD1A4",
"V 	c #AFAFAF",
"W 	c #9B9B9B",
"X 	c #C7C7C7",
"Y 	c #8ACFA4",
"Z 	c #9E9E9E",
"` 	c #606060",
" .	c #C9C9C9",
"..	c #B5B5B5",
"+.	c #18B825",
"@.	c #95D8A4",
"#.	c #9A9A9A",
"$.	c #627476",
"%.	c #24EC2F",
"&.	c #808080",
"*.	c #717171",
"=.	c #767676",
"-.	c #616161",
";.	c #A9A9A9",
">.	c #6CBA73",
",.	c #0EEF17",
"'.	c #4AEC52",
").	c #BED8C2",
"!.	c #7F7F7F",
"~.	c #2B2B2B",
"{.	c #DCDCDC",
"].	c #D4D4D4",
"^.	c #999999",
"/.	c #636363",
"(.	c #AEAEAE",
"_.	c #ADADAD",
":.	c #949494",
"<.	c #969696",
"[.	c #ABABAB",
"}.	c #AAAAAA",
"|.	c #A8A8A8",
"1.	c #6D6D6D",
"2.	c #6C6C6C",
"3.	c #464646",
"4.	c #696969",
"5.	c #4E4E4E",
"6.	c #535353",
"7.	c #434343",
"8.	c #4A4A4A",
"                . + @       # @                 ",
"                $ % @       & @                 ",
"                $ * @       & @                 ",
"          = - - ; > & , , , > ' - - -           ",
"        ) ! ~ { ] ^ / ( ] _ : < [ } } |         ",
"        1 { 2 3 4 5 5 4 6 7 8 9 3 0 6 a b       ",
"        | _ 5 < < ^ c d < < < < c e f g h       ",
"        i _ : < j ^ k l g m n j ^ o p l b       ",
"q q q b r _ < < s t u v w x y z o A | B C % % % ",
"D D D E F _ < < G H I I I I I J f 1 K B L @ @ @ ",
"        M N < f O I I I I I I I P K Q R S       ",
"        1 ( < | T I I I I I I I U Q V W %       ",
"        k ] X | T I I I I I I I Y Q V Z `       ",
"        K (  ...+.I I I I I I I @.V V Z `       ",
"@ @ @ @ #.[ d p $.I I I I I I %.4 V V &.# + + + ",
", *.=.=.-./ o a ;.>.,.I I I '.).a V V !.~.@ @ @ ",
"@ @ @ @ W {.i Q V M < 7 7 ].o V V V V ^.+       ",
"        ;.9 k Q V V V V V V V V V V V R /.r !.  ",
"        Z 6 Q V V V V V V (.(.V V _._.:.b -     ",
"        <.n m (._.[.}.[.}.;.|.;.|.g g = h       ",
"        1.*.q 2.q 3.b q 4.b 5.3.` S S 6.        ",
"                7.8.@       & @                 ",
"                7.8.@       + @                 ",
"                7.8.@       + @                 "};
