/* XPM */
static char * ok_xpm[] = {
"35 45 64 1",
" 	c None",
".	c #CBC9CD",
"+	c #B7B5B9",
"@	c #B7BFB4",
"#	c #A4B8A2",
"$	c #65B756",
"%	c #3AA832",
"&	c #86A486",
"*	c #B8BEBD",
"=	c #6EB664",
"-	c #81D377",
";	c #6AC466",
">	c #52B64C",
",	c #319823",
"'	c #74A56D",
")	c #8FD48D",
"!	c #76C66C",
"~	c #67C95E",
"{	c #30952C",
"]	c #1B9519",
"^	c #62A361",
"/	c #C2C7C3",
"(	c #BDD2BB",
"_	c #A2D99E",
":	c #3A9E34",
"<	c #258D20",
"[	c #368535",
"}	c #81AA7C",
"|	c #D6DBD4",
"1	c #DDD9DC",
"2	c #BBD8B4",
"3	c #B9E3B5",
"4	c #3CA73B",
"5	c #258624",
"6	c #508C4F",
"7	c #E9E8EB",
"8	c #157513",
"9	c #106C11",
"0	c #648A65",
"a	c #8DD27D",
"b	c #0E600F",
"c	c #469847",
"d	c #287529",
"e	c #2BA727",
"f	c #AEB3B5",
"g	c #A8A8AB",
"h	c #299E22",
"i	c #9DBF9A",
"j	c #0F8C0C",
"k	c #9B999D",
"l	c #245F22",
"m	c #158315",
"n	c #098404",
"o	c #89958B",
"p	c #50A74C",
"q	c #79B472",
"r	c #107A0A",
"s	c #B2C5B1",
"t	c #B6C1AF",
"u	c #54A844",
"v	c #4CA941",
"w	c #9FC490",
"x	c #82C86A",
"y	c #9ACF87",
"              ...++..              ",
"             .@#$%&*+.             ",
"            .@#$$$%=&*+            ",
"           .@-;;>>%,%'&+.          ",
"          .*)--!~>%{]{^&+.         ",
"        ../(_)--;$>:{<<[}*+.       ",
"     |1./(23__)-;>>4{{<556&/+.     ",
" 77||(((23333_)-!;>4:{{<5856&*+... ",
"77|(((__33333_)-;;>4:{{55889[[0&#*.",
"7(a--))__333__)-;>>4:]<<588889b8[&.",
"1(----)__33__))!;>4%:{<55c6d9bbbd&.",
".(~---))___)))!;>4%::,5<'++#dbbb90.",
"/*~~---)))))!!;>>4e:,:<^f++g0bbbb0+",
"/*~~--a---;;;>>>%eh,]<c*g+gg0bbbb0+",
".i~~~---;;;>>>%%%e]]j<#+gggklbbbb0f",
"/i;~;;;;;>>>4e4e]jmnm}*fggklbblbb0+",
"/i~~~;;;>>eeee]jnjnnc.+ggg0bbbblb0+",
".i;~;;;;>>%e]jjnnnn<@*+fk0bbbbbbb&+",
".i=~~;;>>eh]jjnnnnm'..fgob99bbbbb&+",
"1i=>;;>>%]]jnnnnmnc/.++k699999bb9&+",
"1*=>>>>ehpiq:nnnnmi.+ff08r899999d#.",
" *=>>>e4p777(cnnr^+*f+o9rrr88999d*.",
" .=>>44%=71../^n5@f+gf6rrrr8r8996/.",
" *i>4444:s...*f^}f+gg09nnnmmrr88'. ",
" .i$4%:4{{i.+fffgggggdnnmnmmm88[#+ ",
" 1i$4::{{55&+ggggggg6n<<<<<mmmm[/. ",
"  .ip::{]]m5&gkkkggo8<<,,,<<<55}.  ",
"   *$:::{<<55okkkgg6<,,,,,{<<<ct.  ",
"   .ip:::{]5m[okkk0r],:::,,{<{}/   ",
"   .*$::::{<mm[oko[],:::::{{{c@.   ",
"    .ip::::{<m5[6d<,:%%%%::{u}1    ",
"    1*}pppp{{<5<<{],:%%%%%:uc*.    ",
"     .iqvupp{{<<,{::%vvvv%%c#.     ",
"      .#=$ppp:::{:%%vvvvvv%}1      ",
"       +iq$upuvp:v>>>>>uuuq|.      ",
"       .+iq$$=vuu$>>>>>>u=@|       ",
"        .+wxxx!$~xx~~~~~=t.        ",
"         .@wxxxxxxxx~~~qt.         ",
"          .@wxxaa-xxxxq@1          ",
"           ..tyaaaaayi/.           ",
"            ..______s/.            ",
"             .._____..             ",
"              ..___..              ",
"               .....               ",
"                ...                "};
