/* XPM */
static char * question_xpm[] = {
"35 43 64 1",
" 	c None",
".	c #082F9F",
"+	c #0032AA",
"@	c #202E99",
"#	c #103BAA",
"$	c #1E3CB1",
"%	c #1545B0",
"&	c #2E429F",
"*	c #2B44A8",
"=	c #2345B9",
"-	c #2F50C7",
";	c #444E9E",
">	c #2C55BF",
",	c #2D58B7",
"'	c #2C56CA",
")	c #4350B7",
"!	c #4358A0",
"~	c #3B5FB6",
"{	c #4160D5",
"]	c #3D67D8",
"^	c #4569B9",
"/	c #4169C4",
"(	c #5863B5",
"_	c #5569A6",
":	c #5A66AF",
"<	c #4D6DE0",
"[	c #4872E0",
"}	c #5D75BF",
"|	c #577BDC",
"1	c #5C7BCF",
"2	c #6E7DB0",
"3	c #6A7DC0",
"4	c #697FC9",
"5	c #7985AA",
"6	c #5D8FE3",
"7	c #718ACD",
"8	c #668ED9",
"9	c #778FCC",
"0	c #8393BE",
"a	c #8C94B4",
"b	c #8A95BC",
"c	c #7F99D6",
"d	c #869ACF",
"e	c #77A5EB",
"f	c #A1A8BB",
"g	c #97AACF",
"h	c #97ACDD",
"i	c #A0ABCA",
"j	c #8AB5F0",
"k	c #B2B1B2",
"l	c #B3B4BE",
"m	c #AFB5C5",
"n	c #A1BAE7",
"o	c #ACBAE1",
"p	c #B3C4E3",
"q	c #C0C2CD",
"r	c #C1C3C6",
"s	c #C8C9C6",
"t	c #C3CFEC",
"u	c #CFD4E4",
"v	c #DAD9DB",
"w	c #DFE1DE",
"x	c #E4E3E8",
"y	c #ECEDEE",
"                vssv               ",
"              vvqmmlsv             ",
"             vqihccdirv            ",
"           vsrihc7447aqkv          ",
"          rrquohd74}}3dlrv         ",
"        vvruuuohc73}}:}2frsv       ",
"     wwvrquuuuohd93}}::(3dfrsv     ",
" vvvyvvquutttuohd97}}:::::}0flsssv ",
"wyvrupptutttttohdc74}}:::::(32bimrx",
"vwonnonoottttonohhc7}}}::::::(::4fs",
"xvhhnnnooopppuuxxxxuqd3::::::;!;(ak",
"wuhhhhnoooooxyyyyyyxxxi_::::!;;;;ak",
"vqhhhhhhohhhxyyyyxyywxxi::!!!;;;&5k",
"sqhhhddhdcchxyyyxxyxxxxs!;!;;&&&&5k",
"sqhhcdccc74cxxi022oxxxxv_*&&@@@@@5k",
"vqhhdc9774}4h2:,)$*ixxxv2@@@@@@@@5k",
"slhdc9734}}:(,*#.++bvvxw_@.@@@@**bk",
"qqgdc973}^^,##+.++$irvvr!.####*%)5s",
"sqgd997}}~*##++++$3lqrvi@#%%%%%%)as",
"vrgd77}}~$#+++++.3lllqk!#%%=====)fs",
"vrg099}~%#+++++$9kkllm_========))mv",
" ri073^,%##++++^kkkkl_#=----'==)1lv",
" sm07^,>%%#+++%ikklf_%=-''-''-'-3r ",
" vmc1~~,%%#+++,llkk_#='-'{{{{{--ds ",
" vsd1/,,%%#+++(rqqf&=-'{{{{{{{{|mv ",
"  sb11,,,%##++^lmla%--{{]{{{{{{4qv ",
"  vm71/,>%$##+$&;,,--'{]]]{{{{<as  ",
"   rd1^,,%%$$$#=>%=-'{]]<<<<{{1lv  ",
"   vm8^,,,%$#$,0fi9]/{]<<[[[<<ds   ",
"    r06/,,%=$$gkmlm9]]]<<<[[<1lv   ",
"    vm81//>'#>mllmqh]]<[[<<[[bv    ",
"     ri6^/,>%=grqqui/]<[[[[<4rv    ",
"     vqc8^/,>%^iqup/]][[[<<|iv     ",
"      km88|/,'$>/^/]][[[[<[bvv     ",
"      vsie86//>]//]]][[[[<3vv      ",
"       vric866//]][[|[[<[4qv       ",
"        vrgj8861|1|||||[1mv        ",
"         vsgjjee8666|||8mv         ",
"          rkinjjeee666cpv          ",
"           ksmnnjjjjegqv           ",
"            vrrppnnpmsv            ",
"             vvsrqsqvv             ",
"               vvssvv              "};
