<?xml version="1.0" encoding="UTF-8"?>
<svg xmlns="http://www.w3.org/2000/svg" version="1.1" height="24px" width="24px" viewBox="0 0 100 100">
  <path style="fill:#BEAF9B;stroke:none" d="m 10,30 80,0 q 5,0 5,5 l 0,55 q 0,5 -5,5 l -80,0 q -5,0 -5,-5 l 0,-55 q 0,-5 5,-5 z"/>
  <path style="fill:#666;fill-rule:evenodd;" d="m 50,30 -6,0 0,3 6,0 z m 0,3 6,0 0,3 -6,0 z m 0,3 -6,0 0,3 6,0 z m 0,3 6,0 0,3 -6,0 z m 0,3 -6,0 0,3 6,0 z m 0,3 6,0 0,3 -6,0 z m 0,3 -6,0 0,3 6,0 z m 0,3 6,0 0,3 -6,0 z
  m -29,10 0,4 3,0 0,16 -3,0 0,4 10,0 0,-4 -3,0 0,-16 3,0 0,-4 z m 13,0 0,24 4,0 0,-14 8,14 4,0 0,-24 -4,0 0,14 -8,-14 z m 19,0 0,4 3,0 0,16 -3,0 0,4 10,0 0,-4 -3,0 0,-16 3,0 0,-4 z m 13,0 0,4 5,0 0,20 4,0 0,-20, 5,0 0,-4 z"/>
</svg>
