<?xml version="1.0" encoding="UTF-8"?>
<svg xmlns="http://www.w3.org/2000/svg" version="1.1" height="24px" width="24px" viewBox="0 0 100 100">
  <path style="fill:#EBEBDA;stroke:#777777;stroke-width:2;" d="m 65,3 0,19 19,0 0,74 -72,0 0,-93 53,0 19,19"/>
  <path style="fill:#E99D85;stroke:#041E31;stroke-width:3;" d="m 78,17 -24,0 0,30 9,0 c 6,0 13,-7 15,-30 z"/>
  <path style="fill:#E99D85;stroke:#041E31;stroke-width:3;" d="m 78,17 0,39 c 0,0 0,8 -6,8 -14,0 -32,0 -32,0 L 40,78 16,51 40,25 40,40 c 0,0 23,0 23,0 11,0 15,-20 15,-23 z"/>
  <path style="fill:#ffffff;stroke:none;" d="m 65,3 0,19 19,0 z"/>
</svg>
