<?xml version="1.0" encoding="UTF-8"?>
<svg xmlns="http://www.w3.org/2000/svg" version="1.1" height="24px" width="24px" viewBox="0 0 100 100">
  <path style="fill:#660816;stroke:#888888" d="M 92,25 92,82 59,99 9,82 10,25 59,36 z"/>
  <path style="fill:#98797E;stroke:#222222;stroke-width:1" d="M 10,25 1,10 38,4 47,18 53,3 98,8 92,25 59,36 z"/>
  <path style="fill:#333333;stroke:#222222;stroke-width:1" d="M 10,25 47,18 92,25 59,36 z"/>
  <path style="fill:none;stroke:#444444;stroke-width:1.5" d="m 59,38 0,59"/>
  <path style="fill:#A8535F;stroke:none;" d="M 1,41 10,25 59,36 92,25 99,42 66,55 59,36 51,56 z"/>
  <path style="fill:#B1B091;stroke:none;" d="m 16,51 0,24 4,1.2 c 8,2.4 8,-21.6 0,-24 z m 12,3.6 0,24 10,3 0,-4 -6,-1.6 0,-6 4,1.2 0,-4 -4,-1.2 0,-6 6,1.6 0,-4 z m 14,4 0,24 4,1.2 c 8,2.4 8,-9.6 2,-12  c 6,2.4 6,-9.6 -2,-12 z"/>
  <path style="fill:#660816;stroke:none;" d="m 19,72 0,-16 1,0.3 c 3,1 3,16 0,16 z"/>
  <path style="fill:#660816;stroke:none;" d="m 45,67.4 0,-4 2,0.6 c 3,1 3,5 0,4 z m 0,11 0,-4 2,0.6 c 3,1 3,5 0,4 z"/>
</svg>
