<?xml version="1.0" encoding="UTF-8"?>
<svg xmlns="http://www.w3.org/2000/svg" version="1.1" height="24px" width="24px" viewBox="0 0 100 100">
  <defs>
  <linearGradient id="cd" x1="0%" y1="0%" x2="100%" y2="100%">
  <stop offset="0%" stop-color="#585858"/>
  <stop offset="50%" stop-color="#989898"/>
  <stop offset="100%" stop-color="#585858"/>
  </linearGradient>
  </defs>
  <path stroke="url(#cd)" fill="none" stroke-width="34" d="M 27,28 A 1 1 0 1 0 72 72 A 1 1 0 1 0 27 28z"/>
  <path style="fill:#222222;fill-rule:evenodd;stroke:none" d="m 28,65 0,4 3,0 0,15.5 -3,0 0,4 10,0 0,-4 -3,0 0,-15.5 3,0 0,-4 z m 27,7.5 3,-3 c -4,-6 -13,-6, -16,0 c -2,5 0,8 6.5,9 c 9,1 4,12 -4.5,3 l -3,3 c 4,6 13,6, 16,0 c 2,-5 0,-8 -6.5,-9 c -9,-1 -4,-12 4.5,-3 z m 13,-7.5 a 9,12 0 1 0 0.1 0 z m 0,4 a 5,8 1 1 0 0.1 0 z "/>
</svg>
