<?xml version="1.0" encoding="UTF-8"?>
<svg xmlns="http://www.w3.org/2000/svg" version="1.1" height="24px" width="24px" viewBox="0 0 100 100">
  <path style="fill:#ffffff;stroke:none;" d="m 65,3 0,19 19,0 z"/>
  <path style="fill:#EBEBDA;stroke:#777777;stroke-width:2;" d="m 65,3 0,19 19,0 0,74 -72,0 0,-93 53,0 19,19"/>
  <defs>
  <radialGradient id="RG1" cx="48%" cy="50%" fx="48%" fy="50%" r="28%">
  <stop style="stop-color:rgb(103,155,203);stop-opacity:0.75;" offset="0%"/>
  <stop style="stop-color:rgb(18,49,65);stop-opacity:1;" offset="100%"/>
  </radialGradient>
  </defs>
  <ellipse cx="48" cy="50" rx="32" ry="30" style="fill:url(#RG1)"/>
  <g style="fill:none;stroke:#aaaaaa;stroke-width:1.5px;stroke-linecap:butt;" >
  <path d="M 48,80 C 34,72 31,62 31,50 31,38 38,26 48,20 l 0,60 C 48,80 66,71 66,50 66,29 48,20 48,20" />
  <path d="m 17,50 63,0 0,0"/>
  <path d="m 25,31 c 0,0 12,7 23,7 13,0 23,-7 23,-7"/>
  <path d="m 25,70 c 0,0 9,-7 23,-7 16,0 23,7 23,7"/>
  </g>
  <ellipse cx="48" cy="50" rx="32" ry="30" style="stroke-width:3;stroke:#123141;fill:none;"/>
</svg>
