<?xml version="1.0" encoding="UTF-8"?>
<svg xmlns="http://www.w3.org/2000/svg" version="1.1" height="24px" width="24px" viewBox="0 0 100 100">
  <path style="fill:#E3E3BF;" d="m 19,4 62,0 q 5,0 5,5 l 0,82 q 0,5 -5,5 l -62,0 q -5,0 -5,-5 l 0,-82 q 0,-5 5,-5 z"/>
  <defs>
  <radialGradient
  id="RG1" cx="40%" cy="50%" fx="40%" fy="50%" r="40%">
  <stop style="stop-color:rgb(103,155,203);stop-opacity:1;" offset="0%"/>
  <stop style="stop-color:rgb(0,68,130);stop-opacity:1;" offset="100%"/>
  </radialGradient>
  </defs>
  <path style="fill:#004B90;stroke:#333;stroke-width:2;" d="m 25,35 10,-10 30,0 10,10 -10,10 -30,0 z" />
  <path style="fill:url(#RG1);fill-opacity:1;fill-rule:nonzero;stroke:#333;stroke-width:2;" d="m 25,35 10,10 30,0 10,-10 5,20 -5,20 -10,10 -30,0 -10,-10 -5,-20 z" />
  <g style="fill:none;stroke:#333;stroke-width:1;">
  <path d="m 20,55 10,10 40,0 10,-10" />
  <path d="m 35,45 -5,20 5,20" />
  <path d="m 65,45 5,20 -5,20" />
  </g>
</svg>
