<?xml version="1.0" encoding="UTF-8"?>
<svg xmlns="http://www.w3.org/2000/svg" version="1.1" height="16px" width="16px" viewBox="0 0 192 192">
  <g transform="scale(1.8) translate(3,3)">
  <path d="M 60,27 L 57,30 L 43,30 L 40,27 L 40,36 Q 40,38 39,40 L 20,87 A 3,3 0 0 0 20,92 L 80,92  A 3,3 0 0 0 80,87 L 61,40 Q 60,38 60,36 L 60,27 z" style="fill:#4CAF50;stroke:none" />
  <path d="M 36,10 Q 40,10 40,14 L 40,36 Q 40,38 39,40 L 20,87 A 3,3 0 0 0 20,92 L 80,92  A 3,3 0 0 0 80,87 L 61,40 Q 60,38 60,36 L 60,14 Q 60,10 64,10" style="fill:none;stroke:#9E9E9E;stroke-width:3" />
  </g>
</svg>
