<?xml version="1.0" encoding="UTF-8"?>
<svg xmlns="http://www.w3.org/2000/svg" version="1.1" height="22px" width="22px" viewBox="0 0 192 192">
  <path style="fill:#545454" d="m 32,72 148,0 a 12,12 0 0 1 12,12 l 0,60 a 12,12 0 0 1 -12,12 l -148,0 a 12,12 0 0 1 -12,-12 l 0,-60 a 12,12 0 0 1 12,-12 z"/>
  <path style="fill:#4CAF50" d="m 35,82 a 5,5 0 1 0 0.1,0 z m 20,0 a 5,5 0 1 0 0.1,0 z m 20,0 a 5,5 0 1 0 0.1,0 z m 20,0 a 5,5 0 1 0 0.1,0 z"/>
  <path style="fill:#9E9E9E;" d="m 130,72 0,-35 a 6,6 0 0 1 12,0 l 0,35 z"/>
</svg>
