<?xml version="1.0" encoding="UTF-8"?>
<svg xmlns="http://www.w3.org/2000/svg" version="1.1" height="48px" width="48px" viewBox="0 0 100 100">
  <path style="fill:#fff" d="m 83,22 0,15 15,0 z"/>
  <path style="fill:#EBEBDA;stroke:#666666;stroke-width:1.5;" d="m 83,22 0,15 15,0 0,60 -53,0 0,-75 38,-0 15,15"/>
  <path style="fill:#fff" d="m 40,1 0,15 15,0 z"/>
  <path style="fill:#EBEBDA;stroke:#666666;stroke-width:1.5;" d="m 40,1 0,15 15,0 0,60 -53,0 0,-75 38,-0 15,15"/>
  <g transform="scale(0.4)">
  <path style="fill:#5A5A5A;stroke:#222222;stroke-width:4;" d="M 20,4 3,21 33,50 3,80 20,97 49,67 79,97 95,80 65,50 95,20 80,4 50,34 z"/>
  </g>
</svg>
