<?xml version="1.0" encoding="UTF-8"?>
<svg xmlns="http://www.w3.org/2000/svg" version="1.1" height="48px" width="48px" viewBox="0 0 100 100">
  <path style="fill:#E3E3BF;" d="m 19,4 62,0 q 5,0 5,5 l 0,82 q 0,5 -5,5 l -62,0 q -5,0 -5,-5 l 0,-82 q 0,-5 5,-5 z"/>
  <g transform="scale(0.4), translate(26,30)">
  <path style="fill:none;stroke:#919191;stroke-width:6;" d="m 96,62 64,0 m -64,16 64,0 m -64,16 64,0 m -64,16 64,0 m -64,16 64,0" />
  <path style="fill:#263238;stroke:none;" d="m 52,96 a 18,18 1 1 1 0.1,0 z m 35.9,36 -72,0 0,-9 a 12,12 0 0 1 8,-10 a 90,90 0 0 1 56,0 a 12,12 0 0 1 8,10 z"/>
  </g>
  <g transform="scale(0.4)">
  <path style="fill:#FF8500;stroke:#825B0A;stroke-width:4" d="M 98,43 74,66 79,99 49,84 19,99 25,66 1,42 34,37 49,7 64,37 z"/>
  </g>
</svg>
