<?xml version="1.0" encoding="UTF-8"?>
<svg xmlns="http://www.w3.org/2000/svg" version="1.1" height="48px" width="48px" viewBox="0 0 100 100">
  <path style="fill:#555555;stroke:#222222;stroke-width:1.5px;" d="m 29,34 -1,7 -7,3 -6,-4 -6.2,7 3.2,5 -3,8 -6.2,1 0.2,9 6.5,1 2.5,6 -3.9,7 6.9,7 6,-4 7,3 1,7 10,0 1,-7 6,-3 6,4 8,-7 -5,-7 2,-5 9,-1 0,-10 -8,-1 -3,-7 4,-6 -6,-7 -6,4 -8,-3 -1,-7 z m 4,14 c 9,0 18,8 18,16 0,11 -9,18 -18,18 -9,0 -17,-7 -17,-18 0,-8 8,-16 17,-16 z"/>
  <path style="fill:#333" d="m 73,67 a 20,20 0 1 0 -4,4 l 18,18 4,-4 -18,-18 z m -16,6 a 18,18 1 1 1 0.1,0 z "/>
  <path style="fill:#666;opacity:0.5" d="m 57,73 a 18,18 1 1 1 0.1,0 z "/>
</svg>
