<?xml version="1.0" encoding="UTF-8"?>
<svg xmlns="http://www.w3.org/2000/svg" version="1.1" height="24px" width="24px" viewBox="0 0 100 100">
  <path style="fill:#35728E;" d="m 34,3 a 32,32 0 1 0 0.1,0 z"/>
  <path style="fill:none;stroke:#ddd;stroke-width:1;stroke-linecap:butt;" d="m 34,3 0,64 a 37.33,37.33 0 0 1 0,-64 a 37.33,37.33 0 0 1 0,64 m -32,-32 64,0 m -8,-21.33 a 42.66,42.66 0 0 1 -48,0 m 0,42.66 a 42.66,42.66 0 0 1 48,0"/>
  <path style="fill:none;stroke:#444444;stroke-width:2px;" d="m 43,47 40,0 -40,0 z m 0,7 40,0 -40,0 z m 0,5 40,0 -40,0 z m 0,7 17,0 -17,0 z m 0,9 40,0 -40,0 z"/>
  <ellipse cx="35" cy="22" rx="5" ry="5" style="fill:#000000;stroke:#cccccc;stroke-width:2"/>
  <path style="fill:none;stroke:#000000;stroke-width:4;" d="M 38,81 C 12,92 3.9,67 10,58 17,46 32,46 39,35 41,32 41,25 36,22"/>
  <path style="fill:#FF3D3D;fill-opacity:0.85" d="M 15,4.6 5,15 25,35 5.5,55 15,65 35,45 55,65 65,55 45,35 65,14 55,4.6 35,25 z"/>
  <path style="fill:none;stroke:#666;stroke-width:4px;stroke-linecap:butt" d="m 39,83 c 0,-8 0,-25 0,-31 0,-2 0,-5 3,-5 6,0 45,0 48,0 3,0 3,3 3,7 0,6 0,26 0,29 0,1 0,3 -5,3 -3,0 -43,0 -46,0 -3,0 -3,-3 -3,-3 z"/>
  <path style="fill:#444444;stroke:#cccccc" d="m 41,49 50,0 0,35 -50,0 z"/>
</svg>
