<?xml version="1.0" encoding="UTF-8"?>
<svg xmlns="http://www.w3.org/2000/svg" version="1.1" height="32px" width="32px" viewBox="0 0 100 100">
  <path style="fill:none;stroke:#222222;stroke-width:4;" d="m 4,17 35,69 c 4,9 18,9 22,0 C 61,86 95,20 97,15 99,10 97,3 88,3 L 17,3 C 5,3 0,8 4,17 z"/>
  <path style="fill:#C90000;stroke:#eeeeee;stroke-width:2" d="m 6,17 34,67 c 4,9 16,9 20,0 C 60,84 92,22 94,17 97,11 97,5 88,5 L 19,5 C 7,5 2,8 6,17 z"/>
  <path style="fill:#eeeeee" d="m 24,15 c 4,0 47,0 55,0 4,0 5,1 2,7 0,0 -24,47 -28,54 -2,4 -4,3 -6,0 C 41,66 18,19 18,19 c -2,-4 0,-4 6,-4 z"/>
  <path style="fill:#222222" d="m 51,56 c 2,0 4,2 4,5 0,2 -2,4 -4,4 -3,0 -5,-2 -5,-4 0,-3 2,-5 5,-5 z M 35,30 c 3,-5 6,-10 16,-10 10,0 16,6 16,11 0,10 -13,10 -13,15 0,6 0,7 0,7 l -7,0 c 0,0 0,-10 0,-11 0,-6 13,-6 12,-11 -1,-4 -7,-4 -9,-4 -5,0 -9,4 -10,7 z"/>
</svg>
