<?xml version="1.0" encoding="UTF-8"?>
<svg xmlns="http://www.w3.org/2000/svg" version="1.1" height="24px" width="24px" viewBox="0 0 192 192">
  <path style="fill:#EDEDED;stroke:#FFEB3B;stroke-width:12;" d="m 96,8 a 88 88 1 1 0 0.1,0 z"/>
  <path style="fill:#FE5621;" d="m 96,96 0,-80 a 80,80 0 0 0 -40,11"/>
  <path style="fill:none;stroke:#424242;stroke-width:10;stroke-linecap:round;" d="m 96,96 -40,-65 m 40,65 60,0"/>
  <g transform="translate(90,90)">
  <path style="fill:#FFC107;stroke:none" d="M 91,80 58,16 C 54,7.1 46,7.1 42,16 42,16 11,77 9,81 6.2,86 5.8,91 14,91 l 67,0 c 12,0 14,-3 10,-11 z"/>
  <path style="fill:#3E2723;" d="M 46,63 43,35 57,35 54,63 z"/>
  <circle cx="50" cy="73" r="7" style="fill:#3E2723"/>
  </g>
</svg>
