<?xml version="1.0" encoding="UTF-8"?>
<svg xmlns="http://www.w3.org/2000/svg" version="1.1"
   width="250"
   height="250"
   viewBox="0 0 250 250">

  <rect
     style="fill:#333333;fill-opacity:0.94666666"
     id="rect2993"
     width="252.5685"
     height="250.85617"
     x="0"
     y="-2.8421709e-14" />
  <g
     transform="matrix(0.99312431,0,0,0.99312431,-251.83552,-281.95998)"
     id="g4">
    <path
       d="m 501.03566,410.41024 a 121.21831,121.21831 0 0 1 -242.43662,0 121.21831,121.21831 0 1 1 242.43662,0 z"
       style="fill:#555555;fill-opacity:0.7;stroke:none"
       id="path6" />
    <path
       style="fill:#222222;fill-opacity:0.7;stroke:none"
       d="m 472.13111,409.44081 a 92.106908,92.428964 0 0 1 -184.21381,0 92.106908,92.428964 0 1 1 184.21381,0 z"
       id="path8" />
    <path
       style="fill:#5e9650;fill-opacity:1;stroke:none;opacity:0.37068966"
       d="m 437.5715,408.08111 c 0.13148,5.96297 -4.12062,7.85375 -4.12062,7.85375 l -76.04949,44.26375 c 0,0 -6.0419,5.40881 -11.6598,2.09506 -5.61789,-3.31375 -3.83958,-7.41217 -3.83958,-7.41217 l -0.16135,-93.06158 c 0,0 -0.77792,-4.09591 2.91118,-6.74892 3.68909,-2.653 7.8907,-0.19875 7.8907,-0.19875 5.41544,2.6741 75.80342,42.62657 78.26138,44.45766 0,0 6.63609,2.78824 6.76758,8.7512 z"
       id="path10" />
  </g>

</svg>
