<?xml version="1.0" encoding="UTF-8"?>
<svg xmlns="http://www.w3.org/2000/svg" version="1.1" height="100" width="100">

  <path style="fill:#666" d="m 0,41 15,0 21,-23 9,0 0,67 -9,0 L 14,62 0,62 z"/>
  <g style="fill:none;stroke:#666;stroke-width:5">
    <path d="m 55,27 c 24,23 0,48 0,48"/>
    <path d="M 63,15 C 100,53 62,88 62,88"/>
    <path d="M 72,5 C 120,54 73,97 73,97"/>
  </g>
  <path style="fill:#35ff35;fill-opacity:0.8;stroke:#007300;stroke-width:2" d="M 23,37 C 27,42 45,79 48,95 54,85 54,67 98,20 83,29 62,47 47,61 43,56 35,46 23,37"/>

</svg>
