<?xml version="1.0" encoding="UTF-8"?>
<svg xmlns="http://www.w3.org/2000/svg" version="1.1" height="256px" width="256px" viewBox="0 0 100 100">
  <path style="fill:#444;stroke:#444; stroke-width:6px" d="m 97,12 0,81 c 0,3 -1,4 -4,4 L 7,97 C 4,97 3,95 3,92 L 3,7 C 3,5 3,3 7,3 l 81,0 z"/>
  <path style="fill:#999" d="m 72,38 c 4,0 4,-2 4,-4 L 76,3 24,3 24,34 c 0,2 1,4 4,4 l 44,0 z M 62,34 c -7,0 -6,-3 -6,-3 l 0,-18 c 0,0 -1,-3 6,-3 6,0 5,3 5,3 l 0,18 c 0,0 1,3 -5,3 z "/>
  <path style="fill:#C5A01F" d="M 32,84 84,22 c 0,0 7,0 11,5 4,4 3,10 3,10 L 48,97 31,99 Z"/>
  <path style="fill:#ccc" d="M 84,27 36,84 38,85 86,28 Z"/>
  <path style="fill:#000" d="m 31,99 8,-1 -7,-6 z"/>
</svg>
