<svg width="100" height="100">
 <rect style="fill:#40B240" width="50" height="10" x="3" y="89"/>
 <rect style="fill:#37c837" width="65" height="10" x="3" y="61"/>
 <rect style="fill:#55C755" width="80" height="10" x="3" y="33"/>
 <rect style="fill:#78D578" width="95" height="10" x="3" y="5"/>

 <path style="fill:#444444;stroke:none;" d="M 60 107 C 60 107 53 61 53 60 C 53 59 38 55 37 40 C 36 27 37 16 50 15 C 51 17 51 35 51 38 C 55 38 77 37 80 38 C 80 33 80 15 79 11 C 80 12 95 16 95 38 C 96 51 87 59 80 61 C 81 71 80 61 87 107 z "/>

</svg>
