<?xml version="1.0" encoding="UTF-8"?>
<svg xmlns="http://www.w3.org/2000/svg" version="1.1" height="32px" width="32px" viewBox="0 0 192 192">
  <g transform="rotate(-45 96 166)">
  <path d="m 96,66  a 100,100 0 0 1 100,100 l 12,0 a 112,112 0 0 0 -112,-112 z" style="fill:#545454;"/>
  <path d="m 96,90   a 76,76 0 0 1 76,76  l 12,0 a 88,88 0 0 0 -88,-88 z" style="fill:#545454;"/>
  <path d="m 96,114  a 52,52 0 0 1 52,52  l 12,0 a 64,64 0 0 0 -64,-64 z" style="fill:#545454;"/>
  <path d="m 96,166 0,-40 a 40 40  0 0 1 40,40 z" style="fill:#545454;"/>
  </g>
</svg>
