<?xml version="1.0" encoding="UTF-8"?>
<svg xmlns="http://www.w3.org/2000/svg" version="1.1" height="22px" width="22px" viewBox="0 0 100 100">
  <path style="fill:#333333;" d="m 11,3 64,0 13,11 0,16 -3,0 0,7 3,0 0,60 -77,0 z"/>
  <path style="fill:#AEAC94;" d="m 51,40 -13,0 c -15,0 -16,8 0,12 c 4,1 4,4 0,4 l -14,0 -1,5 14,0 c 15,0 16,-10 0,-14 c -4,-1 -4,-4 0,-4 l 13.5,0 z
  m 3,0 q 6,0.25 9,0.75 l -4,3 q -2,-0.5 -5.5,-0.75 z m 11.5,1.75 q 1.5,0.5 2.5,1 l -6,2 -2,-0.5 z m 3.5,2 c 7,4 6,18 -19,17 l 1.4,-7 c 14,-1 16,-6 12,-8.5 z"/>
</svg>
