<?xml version="1.0" encoding="UTF-8"?>
<svg xmlns="http://www.w3.org/2000/svg" version="1.1" height="22px" width="22px" viewBox="0 0 100 100">
  <path style="fill:#666;" d="m 19,4 62,0 q 5,0 5,5 l 0,82 q 0,5 -5,5 l -62,0 q -5,0 -5,-5 l 0,-82 q 0,-5 5,-5 z"/>
  <path style="fill:#bbb;stroke:#999;stroke-width:3" d="m 50 20 a 25,25 0 1 0 0.1,0 z"/>
  <path style="fill:#bbb;" d="m 20,7 a 2,2 0 1 0 0.1,0 z m 60,0 a 2,2 0 1 0 0.1,0 z m 0,80 a 2,2 0 1 0 0.1,0 z m -60,0 a 2,2 0 1 0 0.1,0 z"/>
  <path style="fill:#444" d="m 51,57 a 4,4 0 1 1 -2,0 l 0,-6 -11,-2.75 q -1,-0.25 -1,-1 l 0,-4 a 3,3 0 1 1 2,0 l 0,3 10,2.5 0,-22 -2,0 3,-5 3,5 -2,0 0,17 10,-2.5 0,-3 -2,0 0,-6 6,0 0,6 -2,0 0,4 q 0,0.75 -1,1 l -11,2.75 z"/>
</svg>
