<?xml version="1.0" encoding="UTF-8"?>
<svg xmlns="http://www.w3.org/2000/svg" version="1.1" height="22px" width="22px" viewBox="0 0 100 100">
  <path style="fill:#E3E3BF;" d="m 19,4 62,0 q 5,0 5,5 l 0,82 q 0,5 -5,5 l -62,0 q -5,0 -5,-5 l 0,-82 q 0,-5 5,-5 z"/>
  <path style="fill:#333333;stroke:none;" d="m 50,46 -16,-16 16,-16 16,16 -16,16"/>
  <path style="fill:#333333;stroke:none;" d="m 48,48 -16,-16 -16,16 16,16 16,-16"/>
  <path style="fill:#333333;stroke:none;" d="m 52,48 16,-16 16,16 -16,16 -16,-16"/>
  <path style="fill:#E3E3BF;stroke:#333333;stroke-width:2;" d="m 50,55 16,16 -16,16 -16,-16 16,-16"/>
</svg>
