<?xml version="1.0" encoding="UTF-8"?>
<svg xmlns="http://www.w3.org/2000/svg" version="1.1" height="22px" width="22px" viewBox="0 0 100 100">
  <path  style="fill:#444;stroke:#333" d="M 29,19 C 26,15 23,16 18,15 10,14 5.7,8.5 4.7,-0.42 l 5.1,-0 C 9.8,-0.43 8.9,10 22,11 c 6,0 9,2 11,6 1,1 -4,2 -4,2 z"/>
  <path  style="fill:#444;stroke:#333;stroke-width:2" d="m 67,20 c 14,9 26,24 30,39 2,9 3,26 -11,33 C 71,99 57,100 41,88 26,76 12,59 6.8,52 3.4,48 1.9,44 2.5,37 2.4,32 2.2,31 13,25 36,15 46,16 54,16 c 7,0 13,4 13,4 z"/>
  <path  style="fill:#626262;stroke:#ccc" d="m 81,32 c 2,5 -20,11 -20,11 0,0 -12,-19 -28,-25 0,0 12,-2 19,-2 5,0 10,0 19,6 6,5 10,10 10,10 z M 8.4,28 C 19,32 29,44 31,48 c 2,3 2,4 10,3 8,-1 19,-8 19,-8 C 60,43 48,24 32,18 27,20 15,24 8.4,28 z"/>
  <path  style="fill:#333;stroke:#ccc;stroke-width:1.5" d="M 40,22 C 37,25 49,36 52,32 56,29 45,19 40,22 z"/>
  <path  style="fill:none;stroke:#222;stroke-width:2" d="m 67,20 c 14,9 26,24 30,39 2,9 3,26 -11,33 C 71,99 57,100 41,88 26,76 12,59 6.8,52 3.4,48 1.9,44 2.5,37 2.4,32 2.2,31 13,25 36,15 46,16 54,16 c 7,0 13,4 13,4 z"/>
  <path  style="fill:#ccc" d="M 32,53 C 43,77 76,92 96,64 80,98 39,84 32,53 z"/>
</svg>
