<?xml version="1.0" encoding="UTF-8"?>
<svg xmlns="http://www.w3.org/2000/svg" version="1.1" viewBox="0 0 192 192" height="512" width="512">
  <defs>
    <radialGradient id="RG1" cx="50%" cy="50%" fx="50%" fy="50%" r="50%">
      <stop style="stop-color:rgb(172,113,113);stop-opacity:0.75;" offset="0%"/>
      <stop style="stop-color:rgb(172,53,53);stop-opacity:1;" offset="100%"/>
    </radialGradient>
  </defs>
  <g transform="rotate(-30 45 135) translate(-60 40) skewX(30) scale(1 0.7)">
    <ellipse cx="66" cy="130" rx="52" ry="40" style="fill:url(#RG1)"/>
    <ellipse cx="66" cy="127" rx="26" ry="20" style="stroke:rgb(172,53,53);fill:url(#RG1)"/>
  </g>
  <g transform="rotate(-35 45 135) translate(-60 40) skewX(30) scale(1 0.7)">
    <path d="m 108,95 a 46,40 0 0 1 8,70  a 39,36.5 0 1 0 -8,-70 z
           m 33.5,-8 a 48,44.5 0 0 1 8,84  a 48,48 0 1 0 -8,-84 z" style="stroke:rgb(172,53,53);fill:rgb(172,53,53);"/>
  </g>
</svg>
