<?xml version="1.0" encoding="UTF-8"?>
<svg xmlns="http://www.w3.org/2000/svg" version="1.1" height="16px" width="16px" viewBox="0 0 192 192">
  <path style="fill:none;stroke:#545454;stroke-width:10" d="m 22,30 148,0 a 12 12 0 0 1 12,12  l 0,108 a 12,12 0 0 1 -12,12 l -148,0 a 12,12 0 0 1 -12,-12 l 0,-108 a 12,12 0 0 1 12,-12 z"/>
  <g transform="rotate(45,96,96)">
  <path style="fill:#D03D32;stroke:none;opacity:0.75;" d="m 80,10 32,0 0,70 70,0 0,32 -70,0 0,70 -32,0 0,-70 -70,0 0,-32 70,0 z"/>
  </g>
</svg>
