<?xml version="1.0" encoding="UTF-8"?>
<svg xmlns="http://www.w3.org/2000/svg" version="1.1" height="16px" width="16px" viewBox="0 0 192 192">
  <path style="fill:#545454;stroke:none" d="m 22,72 160,0 0,78 a 12,12 0 0 1 -12,12 l -148,0 a 12,12 0 0 1 -12,-12 l 0,-78 z"/>
  <path style="fill:#646464;" d="m 22,42 40,0 12,-12 44,0 12,12 40,0 a 12 12 0 0 1 12,12  l 0,18 -172,0 0,-18 a 12,12 0 0 1 12,-12 z"/>
  <circle style="fill:#FFF;" cx="96" cy="100" r="36"/>
  <circle style="fill:#03A9F4;" cx="96" cy="100" r="28"/>
  <circle style="fill:#9E9E9E;" cx="170" cy="54" r="6"/>
</svg>
