<?xml version="1.0" encoding="UTF-8"?>
<svg xmlns="http://www.w3.org/2000/svg" version="1.1" height="16px" width="16px" viewBox="0 0 100 100">
  <path style="fill:#222222;stroke:#222222" d="m 14,91 0,4 c 0,0 -2,0 -3,0 -1,0 -2,2 -2,2 1,0 18,0 19,0 0,0 -1,-2 -2,-2 -1,0 -3,0 -3,0 l 0,-4"/>
  <path style="fill:#cccccc;stroke:#000000;stroke-width:2px;stroke-linecap:butt" d="m 2.1,89 c 0,-5 0,-16 0,-20 0,-1 0,-3 1.9,-3 3.9,0 29,0 31,0 2,0 2,2 2,4 0,4 0,17 0,19 0,1 0,2 -3,2 C 32,91 6,91 4,91 2.1,91 2.1,89 2.1,89 z"/>
  <path style="fill:#333333;stroke:#cccccc" d="m 4,68 31,0 0,21 -31,0 z"/>
  <path style="fill:#222222;stroke:#222222" d="m 76,91 0,4 c 0,0 -2,0 -3,0 -1,0 -2,2 -2,2 1,0 19,0 20,0 0,0 -1,-2 -2,-2 -1,0 -3,0 -3,0 l 0,-4"/>
  <path style="fill:#cccccc;stroke:#000000;stroke-width:2px;stroke-linecap:butt" d="m 63,89 c 0,-5 0,-16 0,-20 0,-1 0,-3 2,-3 4,0 29,0 31,0 2,0 2,2 2,4 0,4 0,17 0,19 0,1 0,2 -3,2 -2,0 -28,0 -30,0 -2,0 -2,-2 -2,-2 z"/>
  <path style="fill:#333333;stroke:#cccccc" d="m 65,68 31,0 0,21 -31,0 z"/>
  <path style="fill:#222222;stroke:#222222" d="m 44,30 0,4 c 0,0 -2,0 -3,0 -1,0 -2,2 -2,2 1,0 19,0 20,0 0,0 -1,-2 -2,-2 -1,0 -3,0 -3,0 l 0,-4"/>
  <path style="fill:#cccccc;stroke:#000000;stroke-width:2px;stroke-linecap:butt" d="m 32,28 c 0,-5 0,-16 0,-20 0,-1 0,-3 2,-3 4,0 29,0 31,0 2,0 2,2 2,4 0,4 0,17 0,19 0,1 0,2 -3,2 -2,0 -28,0 -30,0 -2,0 -2,-2 -2,-2 z"/>
  <path style="fill:#333333;stroke:#cccccc" d="m 34,7 31,0 0,21 -31,0 z"/>
  <path style="fill:none;stroke:#222222;stroke-width:4" d="m 2,51 18,0 0,13 0,-13 78,0 -18,0 0,13 0,-13 -31,0 0,-14"/>
  <ellipse cx="49" cy="51" rx="5" ry="5" style="fill:#222222;"/>
  <ellipse cx="20" cy="51" rx="5" ry="5" style="fill:#222222;"/>
  <ellipse cx="80" cy="51" rx="5" ry="5" style="fill:#222222;"/>
</svg>
