<?xml version="1.0" encoding="UTF-8"?>
<svg xmlns="http://www.w3.org/2000/svg" version="1.1" height="16px" width="16px" viewBox="0 0 100 100">
  <defs>
  <radialGradient id="RG1" cx="50%" cy="50%" fx="63%" fy="60%" r="60%">
  <stop style="stop-color:rgb(254,201,111);stop-opacity:1;" offset="20%"/>
  <stop style="stop-color:rgb(42,25,2);stop-opacity:1;" offset="100%"/>
  </radialGradient>
  <radialGradient id="RG2" cx="50%" cy="50%" fx="50%" fy="50%" r="50%">
  <stop style="stop-color:rgb(103,155,203);stop-opacity:0.75;" offset="0%"/>
  <stop style="stop-color:rgb(18,49,65);stop-opacity:1;" offset="100%"/>
  </radialGradient>
  </defs>
  <ellipse cx="35" cy="34" rx="32" ry="30" style="stroke-width:4;stroke:#dddddd;fill:none;"/>
  <ellipse cx="35" cy="34" rx="32" ry="30" style="fill:url(#RG2);fill-opacity:1;fill-rule:nonzero"/>
  <g style="fill:none;stroke:#aaaaaa;stroke-width:1.5px;stroke-linecap:butt;" >
  <path d="M 36,64 C 22,56 19,46 19,34 19,22 26,10 36,4 l 0,60 C 36,64 54,55 54,34 54,13 36,4 36,4" />
  <path d="m 4,34 63,0 0,0"/>
  <path d="m 13,15 c 0,0 12,7 23,7 13,0 23,-7 23,-7"/>
  <path d="m 13,54 c 0,0 9,-7 23,-7 16,0 23,7 23,7"/>
  </g>
  <ellipse cx="35" cy="34" rx="32" ry="30" style="stroke-width:3;stroke:#123141;fill:none;"/>
  <path style="fill:none;stroke:#eeeeee;stroke-width:5" d="m 35,67 c 0,0 -3,-9 -3,-42 19,8 27,-1 32,-8"/>
  <path style="fill:url(#RG1);stroke:#333333;stroke-width:4" d="M 64,19 C 59,25 52,34 33,26 34,66 33,82 64,96 96,82 97,69 96,26 77,34 68,25 64,19 z"/>
</svg>
