/* XPM */
static char *notecase16_xpm[] = {
"16 16 5 1",
"0	c #000000",
"1	c #808080",
"2	c #C0C0C0",
"3	c #FFFFFF",
" 	c None",
"                ",
"                ",
"      3220      ",
"  010101120010  ",
" 22222222222223 ",
"1222222222222233",
"1233333333332233",
"1211111111112233",
"122222222222223 ",
"1222222222212233",
"1222222222222232",
"123333333333223 ",
"121111111111221 ",
"11111111111112  ",
"                ",
"                "
};
