<?xml version="1.0" encoding="UTF-8"?>
<svg xmlns="http://www.w3.org/2000/svg" version="1.1" height="256px" width="256px" viewBox="0 0 100 100">
  <path style="fill:#E3E3BF;" d="m 19,4 62,0 q 5,0 5,5 l 0,82 q 0,5 -5,5 l -62,0 q -5,0 -5,-5 l 0,-82 q 0,-5 5,-5 z"/>
  <path style="fill:none;stroke:#444444;stroke-width:2px;" d="m 21,26 54,0 -54,0 z m 0,9 54,0 -54,0 z m 0,9 54,0 -54,0 z m 0,8 23,0 -23,0 z m 0,10 54,0 -54,0 z"/>
  <path style="fill:#000;fill-rule:evenodd;opacity:0.7" d="m 26,50 0,24 4,0 0,-12 1,0 5,12 4,0 -5 -12 a 6,6 0 0 0 -1,-12 z m 4,4 4,0 a 2,2 1 0 1 0,4 l -4,0 z m 12,-4 0,4 5,0 0,20 4,0 0,-20, 5,0 0,-4 z m 16,0 0,24 4,0  0,-12 5,0 0,-4, -5,0 0,-4 8,0 0,-4"/>
</svg>
