<?xml version="1.0" encoding="UTF-8"?>
<svg xmlns="http://www.w3.org/2000/svg" version="1.1" height="256px" width="256px" viewBox="0 0 100 100">
  <!-- puppy -->
  <path style="fill:#eed;stroke:#000;stroke-width:2;stroke-linejoin:round" d="m 22,22 a 30.66,30.66 0 1 0 53.33,-3.33 c 1.33,-5.33 .66,-6.66 0,-13.33 q -5.33,-1.33 -9.33,-0.66 c -0.66,-0.66 -2.66,2.66 -1.33,4 a 30.66,30.66 0 0 0 -34,2.33 c -13.33,-10 -12,10 -9.33,10.66 c 2,2 11.33,-4 10,-6.66 "/>
  <path style="fill:#968A8A;stroke:none" d="m 74.33,6.33 c -1,3.33 -4.66,3.33 -7,0 l 0,3.33 a 30.66,30.66 0 0 1 6.66,6.66 q 0.66,-5 0.33,-10"/>
  <path style="fill:none;stroke:#000;stroke-width:2;stroke-linejoin:round" d="m 75,5 c -1.33,5.33 -5.33,5.33 -9.33,-0.66"/>
  <path style="fill:#000;fill-rule:evenodd;stroke:none;" d="m 66,25 a 4.66,4.66 0 1 0 0.1,0 z m -31.33,-6 a 8.66,8.66 0 1 0 0.1,0 z m 0,6 a 4.66,4.66 1 1 0 0.1,0 z m 7.533,10.66 13.33,0 a 1.266,1.266 0 0 1 1.166,2 l -6.66,5.33 a 1,1 0 0 1 -1.33,0 l -6.66,-5.33 a 1.266,1.266 0 0 1 1.166,-2"/>
  <!-- /puppy -->
  <path style="fill:#BEAF9B;stroke:none" d="m 10,30 80,0 q 5,0 5,5 l 0,55 q 0,5 -5,5 l -80,0 q -5,0 -5,-5 l 0,-55 q 0,-5 5,-5 z"/>
  <path style="fill:#666;fill-rule:evenodd;" d="m 50,30 -6,0 0,3 6,0 z m 0,3 6,0 0,3 -6,0 z m 0,3 -6,0 0,3 6,0 z m 0,3 6,0 0,3 -6,0 z m 0,3 -6,0 0,3 6,0 z m 0,3 6,0 0,3 -6,0 z m 0,3 -6,0 0,3 6,0 z m 0,3 6,0 0,3 -6,0 z
  m -24,10 0,24 4,0 0,-12 4,0 a 5,5 0 0 0 0,-12 z m 4,4 4,0 a 2,2 1 0 1 0,4 l -4,0 z m 13,-4 0,24 13,0 0,-4 -9,0 0,-6 6,0 0,-4, -6,0 0,-6 9,0 0,-4 z m 16,0 0,4 5,0 0,20 4,0 0,-20, 5,0 0,-4 z"/>
</svg>
