<?xml version="1.0" encoding="UTF-8"?>
<svg xmlns="http://www.w3.org/2000/svg" version="1.1" height="256px" width="256px" viewBox="0 0 100 100">
  <path style="fill:#E3E3BF;" d="m 19,4 62,0 q 5,0 5,5 l 0,82 q 0,5 -5,5 l -62,0 q -5,0 -5,-5 l 0,-82 q 0,-5 5,-5 z"/>
  <path style="fill:#eee;stroke:#999;stroke-width:1" d="m 19,22 61,0 0,59 -61,0 z"/>
  <path style="fill:#BEAF9B;stroke:#444" d="m 25,28 49,0 0,46 -49,0 z"/>
  <path style="fill:#57413C;:none;opacity:0.75;" d="m 40,30 0,40 8,0 0,-20 8,0 a 10,10 0 0 0 0,-20 z m 8,8 8,0 a 2,2 1 0 1 0,4 l -8,0 z" />
</svg>
