<?xml version="1.0" encoding="UTF-8"?>
<svg xmlns="http://www.w3.org/2000/svg" version="1.1" height="256px" width="256px" viewBox="0 0 100 100">
  <path style="fill:#9BA8BE;stroke:none" d="m  10,30 80,0 q 5,0 5,5 l 0,55 q 0,5 -5,5 l -80,0 q -5,0 -5,-5 l 0,-55 q 0,-5 5,-5 z"/>
  <path style="fill:#666;fill-rule:evenodd;" d="m 50,30 -6,0 0,3 6,0 z m 0,3 6,0 0,3 -6,0 z m 0,3 -6,0 0,3 6,0 z m 0,3 6,0 0,3 -6,0 z m 0,3 -6,0 0,3 6,0 z m 0,3 6,0 0,3 -6,0 z m 0,3 -6,0 0,3 6,0 z m 0,3 6,0 0,3 -6,0 z
  m -22,10 0,24 4,0 0,-12 1,0 5,12 4,0 -5 -12 a 6,6 0 0 0 -1,-12 z m 4,4 4,0 a 2,2 1 0 1 0,4 l -4,0 z m 12,-4 0,24 4,0 0,-12 4,0 a 5,5 0 0 0 0,-12 z m 4,4 4,0 a 2,2 1 0 1 0,4 l -4,0 z m 11,-4 0,24 4,0 0,-14 3,6 4,0 3,-6 0,14 4,0 0,-24 -4,0 -5,10 -5,-10 z"/>
</svg>
