<?xml version="1.0" encoding="UTF-8"?>
<svg xmlns="http://www.w3.org/2000/svg" version="1.1" height="256px" width="256px" viewBox="0 0 100 100">
  <path style="fill:#BEAF9B;stroke:none" d="m 10,30 80,0 q 5,0 5,5 l 0,55 q 0,5 -5,5 l -80,0 q -5,0 -5,-5 l 0,-55 q 0,-5 5,-5 z"/>
  <path style="fill:#666;fill-rule:evenodd;" d="m 50,30 -6,0 0,3 6,0 z m 0,3 6,0 0,3 -6,0 z m 0,3 -6,0 0,3 6,0 z m 0,3 6,0 0,3 -6,0 z m 0,3 -6,0 0,3 6,0 z m 0,3 6,0 0,3 -6,0 z m 0,3 -6,0 0,3 6,0 z m 0,3 6,0 0,3 -6,0 z"/>
  <path style="fill:#6AB344;fill-rule:evenodd;stroke:none;" d="m 35,58 0,19.5 q 0,4.5 4.5,4.5 l 1.5,0 0,7.5 c 0,6 7.5,6 7.5,0 l 0,-7.5 l 3,0 0,7.5 c 0,6 7.5,6 7.5,0 l 0,-7.5 1.5,0 q 4.5,0 4.5,-4.5 l 0,-19.5 z m 0,-1.5 a 15,15 0 0 1 6.75,-12.75 l -3,-5.625 c -1.5,-2.625 1.5,-4.125 3,-1.5 l 3,5.25 a 15,15 0 0 1 10.5,0 l 3,-5.25 c 1.5,-2.625 4.5,-1.125 3,1.5 l -3,5.25 a 15,15 0 0 1 6.75,12.75 z m 9.75,-10.5 a 1.5,1.5 1 1 0 0.01,0 z m 10.5,0 a 1.5,1.5 1 1 0 0.01,0 z"/>
  <path style="fill:none;stroke:#6AB344;stroke-width:5;stroke-linecap:round" d="m 31.5,60.5 0,12 m 37,-12 0,12"/>
</svg>
