/* XPM */
static char *gparted16_xpm[] = {
"16 16 161 2",
"  	c None",
"01	c #5A6A21",
"02	c #526726",
"03	c #5F6C17",
"04	c #6D93A5",
"05	c #0764B1",
"06	c #346966",
"07	c #6F6F0E",
"08	c #6E6E10",
"09	c #78722D",
"0A	c #986428",
"0B	c #708DA6",
"0C	c #0865B3",
"0D	c #97AC7D",
"0E	c #DECD3A",
"0F	c #BCB034",
"10	c #70700D",
"11	c #71712B",
"12	c #898999",
"13	c #A1A1B2",
"14	c #A6A6B7",
"15	c #99969B",
"16	c #E84D3E",
"17	c #9D4B53",
"18	c #7E96B6",
"19	c #DED99B",
"1A	c #FFE741",
"1B	c #DACA59",
"1C	c #696973",
"1D	c #69692B",
"1E	c #7B7B68",
"1F	c #A8A8BC",
"20	c #BBBBCD",
"21	c #BEBECF",
"22	c #A39CA1",
"23	c #E34B3C",
"24	c #DB4134",
"25	c #CDBDC6",
"26	c #D2CA91",
"27	c #CABB4E",
"28	c #C2B874",
"29	c #A6A5C1",
"2A	c #5E5E5D",
"2B	c #6A6A02",
"2C	c #868691",
"2D	c #AFAFC3",
"2E	c #B9B9CB",
"2F	c #BDBDCE",
"30	c #BBB8C7",
"31	c #C5B4C0",
"32	c #C9B9C4",
"33	c #CAC9D5",
"34	c #7E7E89",
"35	c #81819C",
"36	c #B6B6D5",
"37	c #E2E2EF",
"38	c #ACACCE",
"39	c #76767F",
"3A	c #63630B",
"3B	c #727208",
"3C	c #9898A5",
"3D	c #B4B4C7",
"3E	c #B8B8CA",
"3F	c #C2C2D2",
"40	c #C7C7D6",
"41	c #BDBDC9",
"42	c #84849B",
"43	c #E2E2EE",
"44	c #D0D0E4",
"45	c #9A9AC3",
"46	c #D9D9EA",
"47	c #DCDCEC",
"48	c #5C5C74",
"49	c #707024",
"4A	c #B6B6C9",
"4B	c #BCBCCD",
"4C	c #BFBFD0",
"4D	c #C4C4D3",
"4E	c #BABAC7",
"4F	c #9898B2",
"50	c #C5C5DF",
"51	c #BFBFDA",
"52	c #9E9EC6",
"53	c #C2C2DC",
"54	c #C5C5DE",
"55	c #65657F",
"56	c #83834C",
"57	c #E4E4EA",
"58	c #E5E5EA",
"59	c #E2E2E7",
"5A	c #E0E0E5",
"5B	c #DDDDE2",
"5C	c #DBDBDF",
"5D	c #D9D9DD",
"5E	c #C9C9CD",
"5F	c #9696AB",
"60	c #A7A7CB",
"61	c #B5B5D4",
"62	c #DADAEB",
"63	c #B1B1D1",
"64	c #595969",
"65	c #999978",
"66	c #FBFBFB",
"67	c #F9F9F9",
"68	c #F5F5F5",
"69	c #F2F2F2",
"6A	c #EEEEEE",
"6B	c #EBEBEB",
"6C	c #E7E7E7",
"6D	c #E3E3E3",
"6E	c #AAAAAD",
"6F	c #72728D",
"70	c #C0C0DA",
"71	c #D1D1E5",
"72	c #B3B3CE",
"73	c #47475A",
"74	c #565602",
"75	c #B8B8A3",
"76	c #EAEAEA",
"77	c #E9E9E9",
"78	c #E8E8E8",
"79	c #E6E6E6",
"7A	c #C7C7C8",
"7B	c #777787",
"7C	c #8585A3",
"7D	c #6B6B76",
"7E	c #797979",
"7F	c #B8B8C3",
"80	c #E0E0E0",
"81	c #D9D9D9",
"82	c #D8D8D8",
"83	c #D7D7D7",
"84	c #DDDDDD",
"85	c #E1E1E1",
"86	c #ADADAE",
"87	c #D3D3D3",
"88	c #A4A4A6",
"89	c #B2B2BE",
"8A	c #D6D6D6",
"8B	c #CBCBCB",
"8C	c #C5C5C5",
"8D	c #BEBEBE",
"8E	c #D0D0D0",
"8F	c #C8DBCD",
"90	c #C9DBCE",
"91	c #A4A4A7",
"92	c #8E8E71",
"93	c #CCCCD1",
"94	c #CBCBD0",
"95	c #C8C8CD",
"96	c #C7C7CC",
"97	c #C6C6CB",
"98	c #CACACF",
"99	c #CFCFD4",
"9A	c #C2C9C8",
"9B	c #BEC5C5",
"9C	c #84846E",
"9D	c #727207",
"9E	c #72721E",
"9F	c #72721D",
"A0	c #727205",
"              010203            ",
"              040506            ",
"    070808090A0B0C0D0E0F10      ",
"  1112131415161718191A1B1C1D    ",
"  1E1F202122232425262728292A2B  ",
"  2C2D2E2F303132333435363738393A",
"3B3C3D3E20213F404142434445464748",
"491F3D4A2E4B4C4D4E4F505152535455",
"565758595A5B5C5D5E5F606162606364",
"65666768696A6B6C6D6E6F7071727374",
"757677777878786C6C797A7B7C7D7E  ",
"7F8081828383848585858581868788  ",
"89768A8B8C8D8E6A6A6A6A6A8F9091  ",
"9293949596979899999999999A9B9C  ",
"9D9E9E9E9E9E9E9E9E9E9E9E9E9FA0  ",
"                                "
};
