<?xml version="1.0" encoding="UTF-8"?>
<svg xmlns="http://www.w3.org/2000/svg" version="1.1" height="32px" width="32px" viewBox="0 0 100 100">
  <path style="fill:#549E45;stroke:#2A5F1F;stroke-width:2" d="m 39,19 57,-17 0,38 -7,3 0,14 -28,13 0,-16 -14,7 0,16 -8,4 z"/>
  <path style="fill:#ccc" d="m 77,18 13,-4 0,18 -13,5 z m -31,8 20,-6 0,22 -20,8 z"/>
  <path style="fill:#333;stroke:#111;stoke-width:2" d="m 80,19 13,-4 0,18 -13,5 z m -31,8 20,-6 0,22 -20,8 z"/>
  <path style="fill:#CDB754;stroke:#6A5600" d="m 85,45 2,-1 0,14 -2,1 z m -5,2 2,-1 0,14 -2,1 z m -5,2 2,-1 0,14 -2,1 z m -5,17 0,-15 2,-1 0,15 z m -5,2 0,-15 2,-1 0,15 z"/>
  <path style="fill:#888;stroke:#333" d="M 14 15 L 15 82 C 15 82 22 85 21 95 L 34 97 C 33 87 39 86 39 86 L 39 17 L 14 15 z M 18 54 L 25 55 L 25 72 L 18 71 L 18 54 z "/>
  <path style="fill:#aaa;stroke:#555" d="M 16.7,13.7 5,17 l 9,1 4.7,-1.4 6.3,0.6 -4,1.8 9,1 10,-4 z"/>
</svg>
