<?xml version="1.0" encoding="UTF-8"?>
<svg xmlns="http://www.w3.org/2000/svg" version="1.1" height="32px" width="32px" viewBox="0 0 100 100">
  <path style="fill:#888888;stroke:#222222;stroke-width:1.5px" d="M 3,88 3,7 C 3,4 4,3 7,3 l 86,0 c 3,0 4,2 4,5 l 0,85 c 0,2 0,4 -4,4 l -81,0 z"/>
  <path style="fill:#555555" d="m 6,6 0,81 7,7 81,0 0,-88 z"/>
  <path style="fill:#bbbbbb;stroke:#444444;stroke-width:2px" d="M 28 62 C 24 62 24 64 24 66 L 24 97 L 76 97 L 76 66 C 76 64 75 62 72 62 L 28 62 z M 38 66 C 45 66 44 69 44 69 L 44 87 C 44 87 45 90 38 90 C 32 90 33 87 33 87 L 33 69 C 33 69 32 66 38 66 z "/>
  <rect style="fill:#1BBB28;fill-opacity:0.7" width="66" height="10" x="17" y="4"/>
  <rect style="fill:#eeeeee;" width="66" height="42" x="17" y="14"/>
  <rect style="fill:#333333;" width="6" height="6" x="8" y="9"/>
  <path style="fill:none;stroke:#888888;stroke-width:2px" d="m 21,47 58,0 M 21,35 79,35 M 21,24 79,24"/>
</svg>
