<?xml version="1.0" encoding="UTF-8"?>
<svg xmlns="http://www.w3.org/2000/svg" xmlns:xlink="http://www.w3.org/1999/xlink" version="1.1" height="64px" width="64px" viewBox="0 0 192 192">
  <path style="fill:#545454;stroke:none" d="m 20,65 20,5 0,-15 a 12,12 0 0 1 12,-12 l 112,0 a 12,12 0 0 1 12,12 l 0,10 10,0 0,40 -10,0 0,25 a 12,12 0 0 1 -12,12 l -112,0 a 12,12 0 0 1 -12,-12 l 0,-15 -20,5 z" />
  <circle style="fill:#4CAF50;" cx="143" cy="75" r="5"/>
  <circle style="fill:#E91E63;" cx="158" cy="75" r="5"/>
</svg>
