<?xml version="1.0" encoding="UTF-8"?>
<svg xmlns="http://www.w3.org/2000/svg" version="1.1" height="64px" width="64px" viewBox="0 0 192 192">
  <path style="fill:#EDEDED;stroke:#919191;stroke-width:6;" d="m 22,60 148,0 a 12 12 0 0 1 12,12  l 0,78 a 12,12 0 0 1 -12,12 l -148,0 a 12,12 0 0 1 -12,-12 l 0,-78 a 12,12 0 0 1 12,-12 z"/>
  <circle style="fill:#659BF5;" cx="140" cy="89" r="10"/>
  <circle style="fill:#E91E63;" cx="165" cy="112" r="10"/>
  <circle style="fill:#FFEB3B;" cx="140" cy="136" r="10"/>
  <circle style="fill:#4CAF50;" cx="115" cy="112" r="10"/>
  <path style="fill:#646464;" d="m 48,84 20,0 0,20 20,0 0,20 -20,0 0,20 -20,0 0,-20 -20,0 0,-20 20,0 z"/>
  <path style="fill:none;stroke:#646464;stroke-width:10;" d="m 96,57 c 0,-10 20,-20 20,-30"/>
</svg>
