<?xml version="1.0" encoding="UTF-8"?>
<svg xmlns="http://www.w3.org/2000/svg" version="1.1" height="64px" width="64px" viewBox="0 0 192 192">
  <defs>
  <linearGradient id="grad1" x1="30%" y1="0%" x2="100%" y2="0%">
  <stop offset="0%" style="stop-color:rgb(185,250,250);stop-opacity:1" />
  <stop offset="100%" style="stop-color:rgb(208,236,236);stop-opacity:1" />
  </linearGradient>
  </defs>
  <path style="fill:#EDEDED;stroke:#545454;stroke-width:6;" d="m 42,10 108,0 a 12 12 0 0 1 12,12  l 0,148 a 12,12 0 0 1 -12,12 l -108,0 a 12,12 0 0 1 -12,-12 l 0,-148 a 12,12 0 0 1 12,-12 z"/>
  <path style="fill:url(#grad1);stroke:#545454;stroke-width:6;" d="m 52,20 88,0 a 12 12 0 0 1 12,12 l 0,48 a 12,12 0 0 1 -12,12 l -88,0 a 12,12 0 0 1 -12,-12 l 0,-48 a 12,12 0 0 1 12,-12 z" />
  <rect width="15" height="60" x="42" y="108" style="fill:#9E9E9E;stroke:#424242;stroke-width:7" />
  <rect width="15" height="60" x="70" y="108" style="fill:#9E9E9E;stroke:#424242;stroke-width:7" />
  <path style="fill:#9E9E9E;stroke:#424242;stroke-width:7" d="m 122,114 24,25 -24,25 z" />
</svg>
