<?xml version="1.0" encoding="UTF-8"?>
<svg xmlns="http://www.w3.org/2000/svg" version="1.1" height="64px" width="64px" viewBox="0 0 192 192">
  <defs>
  <linearGradient id="grad1" x1="30%" y1="0%" x2="100%" y2="0%">
  <stop offset="0%" style="stop-color:rgb(185,185,185);stop-opacity:1" />
  <stop offset="100%" style="stop-color:rgb(236,236,236);stop-opacity:1" />
  </linearGradient>
  </defs>
  <path style="fill:url(#grad1);" d="m 62,10 68,0 a 12 12 0 0 1 12,12  l 0,128 a 12,12 0 0 1 -12,12 l -68,0 a 12,12 0 0 1 -12,-12 l 0,-128 a 12,12 0 0 1 12,-12 z"/>
  <path style="fill:#545454;" d="m 52,10 88,0 a 12 12 0 0 1 12,12  l 0,148 -12,12 -88,0 -12,-12 l 0,-148 a 12,12 0 0 1 12,-12 z m 12,20 a 12 12 0 0 0 -12,12 l 0,96 a 12 12 0 0 0 12,12 l 64,0 a 12,12 0 0 0 12,-12 l 0,-96 a 12,12 0 0 0 -12,-12 z"/>
</svg>
