<?xml version="1.0" encoding="UTF-8"?>
<svg xmlns="http://www.w3.org/2000/svg" version="1.1" height="64px" width="64px" viewBox="0 0 192 192">
  <defs>
  <linearGradient id="grad1" x1="30%" y1="0%" x2="100%" y2="0%">
  <stop offset="0%" style="stop-color:rgb(185,250,250);stop-opacity:1" />
  <stop offset="100%" style="stop-color:rgb(208,236,236);stop-opacity:1" />
  </linearGradient>
  </defs>
  <path style="fill:url(#grad1);" d="m 63,10 66,0 a 12 12 0 0 1 12,12  l 0,148 a 12,12 0 0 1 -12,12 l -66,0 a 12,12 0 0 1 -12,-12 l 0,-148 a 12,12 0 0 1 12,-12 z"/>
  <path style="fill:#545454;" d="m 63,10 66,0 a 12 12 0 0 1 12,12  l 0,148 a 12,12 0 0 1 -12,12 l -66,0 a 12,12 0 0 1 -12,-12 l 0,-148 a 12,12 0 0 1 12,-12 z m 6,15 a 12 12 0 0 0 -12,12 l 0,118 a 12 12 0 0 0 12,12 l 54,0 a 12,12 0 0 0 12,-12 l 0,-118 a 12,12 0 0 0 -12,-12 z"/>
  <g transform="scale(0.8) translate(25,15)">
  <path style="fill:#545454;fill-opacity:0.5" d="m 129,68 a 25,25 0 0 0 -23,-3 q -7,4 -14,0 a 25,25 0 0 0 -23,3 a 35,35 0 0 0 -15,32 a 56,56 0 0 0 20,40 c 7,5 11,5 18,1 c 4,-2 8,-2 12,0 c 7,5 11,5 18,-1 a 56,56 0 0 0 15,-30 a 24,24 0 0 1 -8,-42 z m -32,-8 a 20,20 0 0 1 20,-20 a 20,20 0 0 1 -20,20 z"/>
  </g>
  <circle style="fill:none;stroke:#D5D5D5;stroke-width:2" cx="96" cy="174" r="4"/>
</svg>
