<?xml version="1.0" encoding="UTF-8"?>
<svg xmlns="http://www.w3.org/2000/svg" xmlns:xlink="http://www.w3.org/1999/xlink" version="1.1" height="48px" width="48px" viewBox="0 0 100 100">
  <g transform="scale(0.521)">
  <defs>
  <linearGradient x1="50" y1="40" x2="50" y2="100" id="LG1" gradientUnits="userSpaceOnUse">
  <stop style="stop-color:#FFEB3B;stop-opacity:1" offset="0" />
  <stop style="stop-color:#C0AC00;stop-opacity:1" offset="1" />
  </linearGradient>
  <linearGradient x1="50" y1="40" x2="50" y2="100" id="LG2" gradientUnits="userSpaceOnUse">
  <stop style="stop-color:#FE5621;stop-opacity:1" offset="0" />
  <stop style="stop-color:#FF926F;stop-opacity:1" offset="1" />
  </linearGradient>
  </defs>
  <path style="fill:url(#LG1);stroke:#919191;stroke-width:6;" d="m 20,144 156,0 a 78,78 0 0 0 -156,0 z"/>
  <path style="fill:url(#LG2);stroke:#919191;stroke-width:6;" d="m 64,156 96,0 0,-144 z"/>
  <path style="fill:#757575;" d="m 86,40 0,16 a 20 20 0 0 0 16,0 l 0,-16 a 20 20 0 0 1 4,36 l 0,80 a 12 12 0 0 1 -24,0 l 0,-80 a 20 20 0 0 1 4,-36"/>
  </g>
</svg>
