<?xml version="1.0" encoding="UTF-8"?>
<svg xmlns="http://www.w3.org/2000/svg" version="1.1" height="22px" width="22px" viewBox="0 0 100 100">
  <path style="fill:#E3E3BF;" d="m 19,4 62,0 q 5,0 5,5 l 0,82 q 0,5 -5,5 l -62,0 q -5,0 -5,-5 l 0,-82 q 0,-5 5,-5 z"/>
  <path style="fill:#444" d="m 20,50 60,0 0,30 -60,0 z"/>
  <path style="fill:#00FF00" d="m 25,52 a 2,2 0 1 0 0.1,0 z"/>
  <path style="fill:none;stroke:#999;stroke-width:1.5" d="m 30,50 0,-30 40,0 0,30 m -30,-25 20,0 m -20,7 20,0 m -20,7 20,0 m -20,7 20,0"/>
  <path style="fill:#CCC;fill-rule:evenodd;" d="m 35,53 0,24 4,0 0,-12 4,0 a 5,5 0 0 0 0,-12 z m 4,4 4,0 a 2,2 1 0 1 0,4 l -4,0 z m 25,4 3,-3 c -4,-6 -13,-6, -16,0 c -2,5 0,8 6.5,9 c 9,1 4,12 -4.5,3 l -3,3 c 4,6 13,6, 16,0 c 2,-5 0,-8 -6.5,-9 c -9,-1 -4,-12 4.5,-3 z"/>
</svg>
