<?xml version="1.0" encoding="UTF-8"?>
<svg xmlns="http://www.w3.org/2000/svg" version="1.1" height="22px" width="22px" viewBox="0 0 100 100">
  <path style="fill:#BEAF9B;stroke:none" d="m 10,30 80,0 q 5,0 5,5 l 0,55 q 0,5 -5,5 l -80,0 q -5,0 -5,-5 l 0,-55 q 0,-5 5,-5 z"/>
  <path style="fill:#666;fill-rule:evenodd;" d="m 50,30 -6,0 0,3 6,0 z m 0,3 6,0 0,3 -6,0 z m 0,3 -6,0 0,3 6,0 z m 0,3 6,0 0,3 -6,0 z m 0,3 -6,0 0,3 6,0 z m 0,3 6,0 0,3 -6,0 z m 0,3 -6,0 0,3 6,0 z m 0,3 6,0 0,3 -6,0 z
  m -13,14 3,-3 c -4,-6 -13,-6, -16,0 c -2,5 0,8 6.5,9 c 9,1 4,12 -4.5,3 l -3,3 c 4,6 13,6, 16,0 c 2,-5 0,-8 -6.5,-9 c -9,-1 -4,-12 4.5,-3 z m 6,-7 0,23 4,0  0,-11 5,0 0,-4, -5,0 0,-4 8,0 0,-4 z m 28,7.5 3,-3 c -4,-6 -13,-6, -16,0 c -2,5 0,8 6.5,9 c 9,1 4,12 -4.5,3 l -3,3 c 4,6 13,6, 16,0 c 2,-5 0,-8 -6.5,-9 c -9,-1 -4,-12 4.5,-3 z"/>
</svg>
