<?xml version="1.0" encoding="UTF-8"?>
<svg xmlns="http://www.w3.org/2000/svg" version="1.1" height="16px" width="16px" viewBox="0 0 100 100">
  <path style="fill:#888;" d="m 10,10 10,0 0,80 -4,0 0,-76 -6,0 z"/>
  <path style="fill:#549E45;" d="m 20,25 70,0 0,50 -10,0 0,-10 q -1,-2 -2,0 l 0,10 -38,0 0,-10 q 0,-1 -1,-1 l -15,0 q -1,0 -1,1 l 0,10 -3,0 z"/>
  <path style="fill:#333;" d="m 35,30 20,0 0,20 -20,0 z m 27,0 25,0 0,20 -25,0 z"/>
  <path style="fill:#CDB754;" d="m 87,62 2,0 0,12 -2,0 z m -3,0 2,0 0,12 -2,0 z m -3,0 2,0 0,12 -2,0 z m -6,0 2,0 0,12 -2,0 z m -3,0 2,0 0,12 -2,0 z m -3,0 2,0 0,12 -2,0 z m -3,0 2,0 0,12 -2,0 z m -3,0 2,0 0,12 -2,0 z m -3,0 2,0 0,12 -2,0 z m -3,0 2,0 0,12 -2,0 z m -3,0 2,0 0,12 -2,0 z m -3,0 2,0 0,12 -2,0 z m -3,0 2,0 0,12 -2,0 z m -3,0 2,0 0,12 -2,0 z m -3,0 2,0 0,12 -2,0 z"/>
</svg>
