<?xml version="1.0" encoding="UTF-8"?>
<svg xmlns="http://www.w3.org/2000/svg" version="1.1" height="16px" width="16px" viewBox="0 0 100 100">
  <defs>
  <linearGradient id="cd1" x1="0%" y1="0%" x2="100%" y2="100%">
  <stop offset="0%" stop-color="#585858"/>
  <stop offset="50%" stop-color="#989898"/>
  <stop offset="100%" stop-color="#585858"/>
  </linearGradient>
  </defs>
  <path stroke="url(#cd1)" fill="none" stroke-width="22" d="m 20,20 a 1 1 0 1 0 30,30 a 1 1 0 1 0 -30,-30 z"/>
  <path style="fill:#222222;" d="M 60,52 60,2.1 99,9.6 99,69 c 0,0 -5,9 -21,5 -8,-2 -8,-12 1,-14 5,-1 12,0 15,2 l 0,-42 -29,-8 0,46 c 0,0 -4,11 -20,6 -6,-2 -10,-11 -1,-14 6,-2 12,0 16,2 z"/>
</svg>
