<?xml version="1.0" encoding="UTF-8"?>
<svg xmlns="http://www.w3.org/2000/svg" version="1.1" height="32px" width="32px" viewBox="0 0 192 192">
  <g transform="scale(1.8) translate(3,3)">
  <path style="fill:#666;" d="m 8,20 32,0 0,32 -32,0 z m 35,0 32,0 0,32 -32,0 z m -17.5,34.5 32,0 0,32 -32,0 z m 35,0 32,0 0,32 -32,0 z z"/>
  <path style="fill:#333;" d="m 14,22 20,0 q 4,0 4,4 l 0,20 q 0,4 -4,4 l -20,0 q -4,0 -4,-4 l 0,-20 q 0,-4 4,-4 z m 35,0 20,0 q 4,0 4,4 l 0,20 q 0,4 -4,4 l -20,0 q -4,0 -4,-4 l 0,-20 q 0,-4 4,-4 z m -17.5,34.5 20,0 q 4,0 4,4 l 0,20 q 0,4 -4,4 l -20,0 q -4,0 -4,-4 l 0,-20 q 0,-4 4,-4 z m 35,0 20,0 q 4,0 4,4 l 0,20 q 0,4 -4,4 l -20,0 q -4,0 -4,-4 l 0,-20 q 0,-4 4,-4 z"/>
  <path style="fill:#CCC;fill-rule:evenodd;" d="m 26,45 a 7.5,10 0 1 1 2.8,-2 l 2,2 -2.8,2 z m 1,-4.4 a 4.5,7 0 1 0 -2.8,1.8 l -0.5 -0.5 2.8,-1.8 z
  m 21,-14 4,18 4,0 3,-14 3,14 4,0 4,-18 -3,0 -3,14 -3,-14 -4,0 -3,14 -3,-14 z m -17,54 7,-18 6,0 7,18 -3.5,0 -2.33,-6 -8.5,0 -2.33,6 z m 6.33,-8.5 7,0 -2.5,-7 -1.75,0 z m 44,-5 2.2,-2.2 c -3.28,-4.92 -10.66,-4.92, -13.12,0 c -1.64,4.1 0,6.56 5.33,7.38 c 7.38,0.82 3.28,9.84 -3.69,2.46 l -2.2,2.2 c 3.28,4.92 10.66,4.92, 13.2,0 c 1.64,-4.1 0,-6.56 -5.33,-7.38 c -7.38,-0.82 -3.28,-9.84 3.69,-2.46 z"/>
  </g>
  <path style="fill:#F6695E;stroke:#F6695E;stroke-width:3;" d="m 80,96 0,16 a 12,12 0 0 1 -12,12 l -32,0 0,-12 -28,28 28,28 0,-12 32,0 a 44,44 0 0 0 44,-44 l 0,-16 z"/>
</svg>
