<?xml version="1.0" encoding="UTF-8"?>
<svg xmlns="http://www.w3.org/2000/svg" version="1.1" height="32px" width="32px" viewBox="0 0 192 192">
  <path style="fill:#FFFFFF;stroke:#616161;stroke-width:10;" d="m 22,30 148,0 a 12 12 0 0 1 12,12  l 0,108 a 12,12 0 0 1 -12,12 l -148,0 a 12,12 0 0 1 -12,-12 l 0,-108 a 12,12 0 0 1 12,-12 z"/>
  <rect style="fill:#03A9F4" width="10" height="10" x="30" y="45"/>
  <rect style="fill:#545454" width="10" height="10" x="30" y="65"/>
  <rect style="fill:#009688" width="10" height="10" x="30" y="85"/>
  <path style="fill:#757575;stroke:#424242;stroke-width:4;" d="m 86,40 0,16 a 20 20 0 0 0 16,0 l 0,-16 a 20 20 0 0 1 4,36 l 0,80 a 12 12 0 0 1 -24,0 l 0,-80 a 20 20 0 0 1 4,-36 z"/>
</svg>
