<?xml version="1.0" encoding="UTF-8"?>
<svg xmlns="http://www.w3.org/2000/svg" version="1.1" height="256px" width="256px" viewBox="0 0 192 192">
  <path style="fill:#EDEDED;stroke:#545454;stroke-width:6;" d="m 42,10 108,0 a 12 12 0 0 1 12,12  l 0,148 a 12,12 0 0 1 -12,12 l -108,0 a 12,12 0 0 1 -12,-12 l 0,-148 a 12,12 0 0 1 12,-12 z"/>
  <g transform="scale(1.92)">
  <path style="fill:none;stroke:#94776D;stroke-width:5;" d="m 30,50 0,35 m 18,-22 a 9,10.5 0 1 1 0,-0.1 z m 25,0 a 9,10.5 0 1 1 0,-0.1 z" />
  </g>
</svg>
