<?xml version="1.0" encoding="UTF-8"?>
<svg xmlns="http://www.w3.org/2000/svg" version="1.1" height="16px" width="16px" viewBox="0 0 100 100">
  <path style="fill:#ffffff;stroke:none;" d="m 65,3 0,19 19,0 z"/>
  <path style="fill:#EBEBDA;stroke:#777777;stroke-width:2;" d="m 65,3 0,19 19,0 0,74 -72,0 0,-93 53,0 19,19"/>
  <g style="fill:none;stroke:#000;stroke-width:2;">
  <path style="fill:#ccc;" d="m 18,25 18,0 0,60 -18,0 z" />
  <path d="m 36,25 18,0 0,60 -18,0 " />
  <path d="m 54,25 18,0 0,60 -18,0 " />
  </g>
  <path style="stroke:#000;stroke-width:3;" d="m 18,36 54,0" />
  <path style="stroke:#1D7044;stroke-width:5;fill:none;opacity:0.75;" d="m 25,50 10,25 z m -3,25 18,-25" />
</svg>
