<?xml version="1.0" encoding="UTF-8"?>
<svg xmlns="http://www.w3.org/2000/svg" version="1.1" height="16px" width="16px" viewBox="0 0 100 100">
  <path style="fill:#ffffff;stroke:none;" d="m 65,3 0,19 19,0 z"/>
  <path style="fill:#EBEBDA;stroke:#777777;stroke-width:2;" d="m 65,3 0,19 19,0 0,74 -72,0 0,-93 53,0 19,19"/>
  <defs>
  <linearGradient x1="50" y1="0" x2="50" y2="60" id="Gradient2" gradientUnits="userSpaceOnUse">
  <stop style="stop-color:#301D00;stop-opacity:1" offset="0.2" />
  <stop style="stop-color:#FFAB00;stop-opacity:1" offset="1" />
  </linearGradient>
  </defs>
  <path style="fill:#eee;stroke:#999;stroke-width:1" d="m 19,22 61,0 0,59 -61,0 z"/>
  <path style="fill:url(#Gradient2);stroke:#444" d="m 25,28 49,0 0,46 -49,0 z"/>
  <path style="stroke:#57413C;stroke-width:5;fill:none;opacity:0.75;" d="m 25,50 -3,25 m 3,-22.5 6,0 a 5 5 0 1 1 0 12 l -8 0 z" />
</svg>
