<?xml version="1.0" encoding="UTF-8"?>
<svg xmlns="http://www.w3.org/2000/svg" version="1.1" height="16px" width="16px" viewBox="0 0 100 100">
  <path style="fill:#ffffff;stroke:none;" d="m 65,3 0,19 19,0 z"/>
  <path style="fill:#EBEBDA;stroke:#777777;stroke-width:2;" d="m 65,3 0,19 19,0 0,74 -72,0 0,-93 53,0 19,19"/>
  <g style="stroke:#333;stroke-width:1;">
  <path style="fill:#EF4545;" d="m 18,30 0,-10 40,0 0,10 -4,-4 -13,0 0,44 4,4 -14,0 4,-4 0,-44 -13,0 -4,4 z" />
  <path style="fill:#666;" d="m 38,42 0,-10 40,0 0,10 -4,-4 -13,0 0,44 4,4 -14,0 4,-4 0,-44 -13,0 -4,4 z" />
  </g>
</svg>
