/* XPM */
static char *homebank_xpm[] = {
"16 16 171 2",
"  	c None",
"01	c #204A87",
"02	c #315790",
"03	c #6884AE",
"04	c #6885AE",
"05	c #325891",
"06	c #5776A4",
"07	c #C5D0E0",
"08	c #D8DFEA",
"09	c #B3C2D7",
"0A	c #B4C3D7",
"0B	c #D9E0EB",
"0C	c #C7D2E1",
"0D	c #5B7AA6",
"0E	c #8198BA",
"0F	c #D6DDE9",
"10	c #6180AC",
"11	c #396198",
"12	c #3E659C",
"13	c #40679D",
"14	c #40689D",
"15	c #6988B2",
"16	c #D8E0EB",
"17	c #869DBE",
"18	c #5D7BA7",
"19	c #CED7E5",
"1A	c #40659A",
"1B	c #456CA1",
"1C	c #5277A8",
"1D	c #587BAB",
"1E	c #4D73A6",
"1F	c #4A71A5",
"20	c #4F74A6",
"21	c #D3DBE8",
"22	c #6381AC",
"23	c #274F8A",
"24	c #CDD6E4",
"25	c #5B7BA8",
"26	c #3E669C",
"27	c #486FA3",
"28	c #6385B2",
"29	c #DFE6EF",
"2A	c #E5EAF2",
"2B	c #6881A2",
"2C	c #577CAD",
"2D	c #5177A9",
"2E	c #6C8CB5",
"2F	c #D1DBE7",
"30	c #2B548D",
"31	c #5978A6",
"32	c #BAC7DA",
"33	c #3B639A",
"34	c #476EA2",
"35	c #7694BC",
"36	c #EEF2F7",
"37	c #FEFEFE",
"38	c #EEEEEE",
"39	c #707C8B",
"3A	c #5C81B1",
"3B	c #5379AA",
"3C	c #C2CFE0",
"3D	c #6180AB",
"3E	c #829ABC",
"3F	c #95AAC8",
"40	c #41699E",
"41	c #849EC1",
"42	c #E9EEF4",
"43	c #F0F3F8",
"44	c #EDEDEE",
"45	c #EEEEEF",
"46	c #EEEFF0",
"47	c #EBEDEF",
"48	c #94ADCD",
"49	c #5B81B1",
"4A	c #A3B8D1",
"4B	c #8BA1C1",
"4C	c #9CAFCA",
"4D	c #7C96BB",
"4E	c #819BBF",
"4F	c #DCE3ED",
"50	c #E1E8F1",
"51	c #E4EAF2",
"52	c #DBDCDE",
"53	c #DBDCDD",
"54	c #E0E2E5",
"55	c #E6ECF4",
"56	c #E3EAF2",
"57	c #96AFCD",
"58	c #8FA8C8",
"59	c #A4B6CF",
"5A	c #849BBD",
"5B	c #9AAECB",
"5C	c #4970A4",
"5D	c #BCC8D6",
"5E	c #DBDBCB",
"5F	c #E3E0C8",
"60	c #CED2CF",
"61	c #A9ADB1",
"62	c #AFAFAF",
"63	c #CBCCCE",
"64	c #C2D0E2",
"65	c #678BB9",
"66	c #A9BCD5",
"67	c #8DA3C3",
"68	c #5D7CA8",
"69	c #C1CDDE",
"6A	c #4B637A",
"6B	c #D0C793",
"6C	c #D4CDAA",
"6D	c #DAD0AB",
"6E	c #BEB47C",
"6F	c #877624",
"70	c #818A93",
"71	c #B6B6B6",
"72	c #B1BECC",
"73	c #698DBA",
"74	c #CAD6E5",
"75	c #6684AF",
"76	c #2A528C",
"77	c #D1DAE7",
"78	c #677988",
"79	c #C2B881",
"7A	c #CDC395",
"7B	c #D0C596",
"7C	c #B1A76B",
"7D	c #A08B19",
"7E	c #8D8559",
"7F	c #A5A5A6",
"80	c #ABBCD1",
"81	c #89A5C8",
"82	c #D7DFEB",
"83	c #325991",
"84	c #6280AC",
"85	c #D2DAE5",
"86	c #AAA88C",
"87	c #BEB580",
"88	c #C2B582",
"89	c #A79D60",
"8A	c #9F8819",
"8B	c #938548",
"8C	c #AEBCCD",
"8D	c #A7BDD8",
"8E	c #DEE6EF",
"8F	c #6B88B2",
"90	c #859DBF",
"91	c #DEE4EE",
"92	c #839AB4",
"93	c #6D8496",
"94	c #7293BD",
"95	c #7294BB",
"96	c #7291B6",
"97	c #99B1D0",
"98	c #E3E8F1",
"99	c #8DA4C4",
"9A	c #09172A",
"9B	c #56739C",
"9C	c #C9D4E3",
"9D	c #E2E9F1",
"9E	c #CBD7E7",
"9F	c #CDD9E8",
"A0	c #E4EBF2",
"A1	c #CDD8E5",
"A2	c #567296",
"A3	c #02060C",
"A4	c #000000",
"A5	c #0A172A",
"A6	c #223B5F",
"A7	c #5B708E",
"A8	c #596E8B",
"A9	c #203656",
"AA	c #071220",
"          010203040501          ",
"      01060708090A0B0C0D01      ",
"    010E0F101112131415161701    ",
"    18191A121B1C1D1E1F202122    ",
"  232425262728292A2B2C2D2E2F30  ",
"  31323334353637  38393A3B3C3D  ",
"  3E3F404142434445464748494A4B  ",
"  4C4D4E4F50515253545556575859  ",
"  5A5B5C5D5E5F6061626364656667  ",
"  68696A6B6C6D6E6F707172737475  ",
"  767778797A7B7C7D7E7F80818283  ",
"    8485868788898A8B8C8D8E8F    ",
"    019091929394959697989901    ",
"      9A9B9C9D9E9FA0A1A2A3A4    ",
"      A4A4A5A6A7A8A9AAA4A4A4    ",
"        A4A4A4A4A4A4A4A4A4      "
};
