<?xml version="1.0" encoding="UTF-8"?>
<svg xmlns="http://www.w3.org/2000/svg" version="1.1" height="24px" width="24px" viewBox="0 0 100 100">
  <path style="fill:#666" d="m 20,39 c -2,7 5.1,9.3 8,10 4,1 10,-7 10,-7 l 19,2 -15,12 c -3,4 -12,12 -9,29 l -1,5 -2,0 -1,8 50,0 -1,-8 -2,0 -1,-5 -3,0 C 72,85 69,78 73,68 77,58 80,47 79,39 78,31 67,17 57,17 47,17 40,18 37,22 34,26 20,39 20,39 z"/>
  <path style="fill:#ccc" d="m 33,85 c 42,0 42,0 42,0 l 1,5 -44,0 z M 60,55 C 55,67 54.8,75.9 54,79 53,83 43.7,84.9 45,78 48,62 58,57 60,55 z M 38,79 c 0,2 -2,4 -5,3 C 30,81 34,72 38,66 42,60 53,52 59,50 51,57 43,63 38,79 z M 20,40 c 0,-4 0,-4 8,-10 4.5,-3.4 7,-5 8,-8 0,-3 8.7,-5.6 13,-7 L 50,3 c 0,0 7,6 7,9 0,3 0,3 0,3 0,0 17,2 19,24 0,0 -7,-17 -18,-18 -7,-0.6 -9,4 -13,5 -4,1 1.9,-4.3 -2,-5 -6,-1 -8.1,3.2 -5,4 4,1 3,3 1,3 -4.1,0 -4,2 -6,5 -2,3 -10,7 -13,7 z"/>
  <path style="fill:#222" d="m 29,47 c 5,-4 8,-8 11,-7 4.2,1.4 17,2 19,-1 4,-6 4,-6.1 4,1 0,7 -2,7 -10,10 -8,3 -11,6 -11,6 1,-5 8,-8 10,-10 2,-2 -6,-1 -11,-3 -4.7,-1.9 -7,6 -10,6 -4.1,0 -2,-2 -2,-2 z M 57,12 c 0,0 18,0 22,27 l -2,3 C 77,42 75,18 57,15 z m -11,4 3,-1 0,-3 -5,0 z m -9,7 c 3,2 5,0 5,0 -2,-3 -5,0 -5,0 z"/>
</svg>
