/* XPM */
static char *notecase_xpm[] = {
/* columns rows colors chars-per-pixel */
"32 32 5 1",
"  c black",
". c #808080",
"X c #C0C0C0",
"o c gray100",
"O c None",
/* pixels */
"OOOOOOOOOOOOOOOOOOOOOOOOOOOOOOOO",
"OOOOOOOOOOOOOOOOOOOOOOOOOOOOOOOO",
"OOOOOOOOOOOOOOOOOOOOOOOOOOOOOOOO",
"OOOOOOOOOOOO......OOOOOOOOOOOOOO",
"OOOOOOOOOOO.oXXXXX OOOOOOOOOOOOO",
"OOOOO...OO.oX    XX OO.  .OOOOOO",
"OOO. o.   .X .... X    o.   OOOO",
"OO.X    XX   XXXX   XX    XX OOO",
"O.XXXXXXXXXXXXXXXXXXXXXXXXXXo.OO",
".oooooooooooooooooooooooooo..o.O",
".oXXXXXXXXXXXXXXXXXXXXXXXXX.o.o.",
".oXXXXXXXXXXXXXXXXXXXXXXXXX.oo.o",
".oXXoooooooooooooooooooXXXX.ooo.",
".oXoXXXXXXXXXXXXXXXXXX..XXX.oooo",
".oXX...................XXXX.ooo ",
".oXXXXXXXXXXXXXXXXXXXXXXXXX..o O",
".oXXXXXXXXXXXXXXXXXXXXXXXXX.o.OO",
".oXXoooooooooooooooooooXXXX.oo.O",
".oXoXXXXXXXXXXXXXXXXXX..XXX.ooo.",
".oXX...................XXXX.oooo",
".oXXXXXXXXXXXXXXXXXXXXXXXXX.ooX ",
".oXXXXXXXXXXXXXXXXXXXXXXXXX.oX O",
".oXXoooooooooooooooooooXXXX.o OO",
".oXoXXXXXXXXXXXXXXXXXX..XXX.  OO",
".oXX...................XXXX.. OO",
".oXXXXXXXXXXXXXXXXXXXXXXXXX. OOO",
"..........................X OOOO",
"O                          OOOOO",
"OOOOOOOOOOOOOOOOOOOOOOOOOOOOOOOO",
"OOOOOOOOOOOOOOOOOOOOOOOOOOOOOOOO",
"OOOOOOOOOOOOOOOOOOOOOOOOOOOOOOOO",
"OOOOOOOOOOOOOOOOOOOOOOOOOOOOOOOO"
};
