<?xml version="1.0" encoding="UTF-8"?>
<svg xmlns="http://www.w3.org/2000/svg" version="1.1" height="24px" width="24px" viewBox="0 0 192 192">
  <path style="fill:#94776D;stroke:none;" d="m 42,10 108,0 a 12 12 0 0 1 12,12  l 0,148 a 12,12 0 0 1 -12,12 l -108,0 z"/>
  <path style="fill:#3E2723" d="m 42,10 a 12,12 0 0 0 -12,12 l 0,148 a 12,12 0 0 0 12,12 z"/>
  <g transform="scale(1.92)">
  <path style="fill:#3E2723;fill-rule:evenodd;" d="m 30,65 12,-30 4,0 6,30 -4,0 -2,-10 -8,0 -4,10 z m 15.25,-14 -1.8,-10, -3.6,10 z m 20.9,-2.2 0.1,-1.8 4,0 -1,18 -4,0 0.1,-1.8 c -3.6,3.6 -10,2 -9.1,-7.2 c 1.2,-9 9,-10 10,-7 z m -0.5,7 c -1,6 -7,6 -6,0 c 1,-6 7,-6 6,0"/>
  </g>
</svg>
