<?xml version="1.0" encoding="UTF-8"?>
<svg xmlns="http://www.w3.org/2000/svg" version="1.1" height="24px" width="24px" viewBox="0 0 192 192">
  <path style="fill:#919191;stroke:#424242;stroke-width:6;" d="m 42,10 108,0 a 12 12 0 0 1 12,12  l 0,148 a 12,12 0 0 1 -12,12 l -108,0 a 12,12 0 0 1 -12,-12 l 0,-148 a 12,12 0 0 1 12,-12 z"/>
  <path style="fill:#6B6B6B;stroke:#424242;stroke-width:6;" d="m 52,20 88,0 a 12 12 0 0 1 12,12  l 0,44 a 12,12 0 0 1 -12,12 l -88,0 a 12,12 0 0 1 -12,-12 l 0,-44 a 12,12 0 0 1 12,-12 z"/>
  <path style="fill:#6B6B6B;stroke:#424242;stroke-width:6;" d="m 52,103 88,0 a 12 12 0 0 1 12,12  l 0,44 a 12,12 0 0 1 -12,12 l -88,0 a 12,12 0 0 1 -12,-12 l 0,-44 a 12,12 0 0 1 12,-12 z"/>
  <path style="fill:none;stroke:#424242;stroke-width:6;" d="m 90,42 12,0 m -12,83 12,0"/>
</svg>
