<?xml version="1.0" encoding="UTF-8"?>
<svg xmlns="http://www.w3.org/2000/svg" version="1.1" height="22px" width="22px" viewBox="0 0 100 100">
  <path style="fill:#ffffff;stroke:none;" d="m 65,3 0,19 19,0 z"/>
  <path style="fill:#EBEBDA;stroke:#777777;stroke-width:2;" d="m 65,3 0,19 19,0 0,74 -72,0 0,-93 53,0 19,19"/>
  <g style="fill:none;stroke:#4B2B14;stroke-width:2;">
  <path d="m 45 50 a 20 2 0 1 0 20 1"/>
  <path d="m 45 58 a 15 2 0 1 0 15 1"/>
  <path d="m 45 66 a 12 2 0 1 0 12 1"/>
  <path d="m 45 74 a 25 2 0 1 0 25 1"/>
  <!--<path d="m 65 55 a 9 6 0 0 1 -5 12"/>-->
  <path d="m 45 45 a 8 9 0 0 0 -1 -12 a 8 9 0 0 1 1 -12"/>
  <path d="m 55 47 a 7 8 0 0 0 -2 -13 a 8 9 0 0 1 2 -13"/>
  </g>
</svg>
