<?xml version="1.0" encoding="UTF-8"?>
<svg xmlns="http://www.w3.org/2000/svg" version="1.1" height="22px" width="22px" viewBox="0 0 100 100">
  <path style="fill:#ffffff;stroke:none;" d="m 65,3 0,19 19,0 z"/>
  <path style="fill:#EBEBDA;stroke:#777777;stroke-width:2;" d="m 65,3 0,19 19,0 0,74 -72,0 0,-93 53,0 19,19"/>
  <path style="fill:#0ff00;stroke:#777;stroke-width:2;stroke-linecap:round;opacity:0.5" d="M 50,80 25,45 75,45 z"/>
  <path style="fill:none;stroke:#333;stroke-width:2;stroke-linecap:round;" d="m 31,76 c 1,3 7,4 10,1 2,-3 1,-4 1,-4 0,0 2,2 6,2 5,0 5,-6 5,-6"/>
  <path style="fill:#333" d="m 34,67 11,-3 c 2,-1 2,0 2,1 l -4,8 c -1,1 -1,1 -2,0 l -7,-4 c -2,-1 0,-2 0,-2 z M 21,55 c -4,0 -8,4 -8,9 0,5 3,9 8,9 6,0 10,-4 10,-9 l -3,0 c 0,2 -1,4 -4,4 -3,0 -4,-2 -4,-4 0,-2 2,-4 4,-4 3,0 4,2 4,4 l 0,0 3,0 c 0,-5 -4,-9 -10,-9 z"/>
  <circle style="fill:#333" cx="51" cy="56" r="6"/>
</svg>
