<?xml version="1.0" encoding="UTF-8"?>
<svg xmlns="http://www.w3.org/2000/svg" version="1.1" height="22px" width="22px" viewBox="0 0 100 100">
  <defs>
  <radialGradient id="grad1" cx="30%" cy="0%" r="70%" fx="25%" fy="25%">
  <stop offset="0%" style="stop-color:rgb(255,255,255);stop-opacity:1" />
  <stop offset="100%" style="stop-color:rgb(200,210,220);stop-opacity:1" />
  </radialGradient>
  </defs>
  <path style="fill:#D0A154;stroke:#222222;stroke-width:1" d="M 10,25 1,10 38,4 47,18 53,3 98,8 92,25 59,36 z"/>
  <path style="fill:#333333;stroke:#222222;stroke-width:1" d="M 10,25 47,18 92,25 59,36 z"/>
  <!-- puppy -->
  <path style="fill:url(#grad1);stroke:#000;stroke-width:1.5;stroke-linejoin:round" d="m 20,21 q 3.33,-4.66 13.33,-0.66 c 2,2 9.33,0.66 5.33,-8 c -1.66,-4 -6.66,-7 -6.66,-6.66 q -10,-2.66 -16,4 q -2,7.33 0,16.66 a 30.66,30.66 0 1 0 56.66,-9.33 c 3.33,-3.33 3.33,-8.66 0.66,-12.66 q -2,-1.33 -4.66,-2 q -5.66,-1.66 -16.66,0 a 30.66,30.66 0 0 0 -20.66,3" />
  <path style="fill:none;stroke:#000;stroke-width:1.5;stroke-linejoin:round" d="m 60,6 q 5.33,4 8,10 q 2.66,3.33 5.33,0"/>
  <path style="fill:#000;fill-rule:evenodd;stroke:none;" d="m 64,17.66 a 5.33,5.33 0 1 0 0.1,0 z m -33.9,4.66 a 10.66,10.66 0 1 0 0.1,0 z m 1.9,6 a 4.66,4.66 1 1 0 0.1,0 z m 20.9,14.66 5.33,-8 q 0.66,-2 -1.33,-2.66 l -13.33,2.66 q -2.66,1.33 -0.66,3.33 l 8.66,4 q 1.33,2 2.66,-2.66 z" />
  <!-- /puppy -->
  <path style="fill:#AA803B;stroke:#888888" d="M 92,25 92,82 59,99 9,82 10,25 59,36 z"/>
  <path style="fill:none;stroke:#444444;stroke-width:1.5" d="m 59,38 0,59"/>
  <path style="fill:#AF9262;stroke:none;" d="M 1,41 10,25 59,36 92,25 99,42 66,55 59,36 51,56 z"/>
  <path style="fill:#222222;stroke:none;" d="m 13,50 0,24 4,1.2 0,-12 4,1.2 c 6,1.6 6,-10 0,-12 z m 15,4.5 0,24 10,3 0,-4 -6,-1.6 0,-6 4,1.2 0,-4 -4,-1.2 0,-6 6,1.6 0,-4 z m 14,4 0,4 5,1.5 0,20 4,1.2 0,-20 5,1.5 0,-4 z"/>
  <path style="fill:#AA803B;stroke:none;" d="m 17,59.5 0,-4 2,0.6 c 3,1 3,5 0,4 z"/>
</svg>
