<?xml version="1.0" encoding="UTF-8"?>
<svg xmlns="http://www.w3.org/2000/svg" version="1.1" height="22px" width="22px" viewBox="0 0 100 100">
  <path style="fill:#222222;stroke:#888888" d="M 92,25 92,82 59,99 9,82 10,25 59,36 z"/>
  <path style="fill:#888888;stroke:#222222;stroke-width:1" d="M 10,25 1,10 38,4 47,18 53,3 98,8 92,25 59,36 z"/>
  <path style="fill:#333333;stroke:#222222;stroke-width:1" d="M 10,25 47,18 92,25 59,36 z"/>
  <path style="fill:none;stroke:#444444;stroke-width:1.5" d="m 59,38 0,59"/>
  <path style="fill:#99CC00;stroke:none;" d="M 23,80 43,87 43,64 23,57 z M 43,62 C 43,42 23,32 23,55 z"/>
  <path style="fill:none;stroke:#99CC00;stroke-width:5;stroke-linecap:round" d="M 19,60 19,72 M 47,69 47,81 M 28,80 28,85 M 38,83.5 38,88.5"/>
  <path style="fill:#222222;stroke:none" d="M 28,51 a 1,2 0 1 1 0,0.1 z M 36,53.5 a 1,2 0 1 1 0,0.1 z "/>
  <path style="fill:#666666;stroke:none;" d="M 1,41 10,25 59,36 92,25 99,42 66,55 59,36 51,56 z"/>
</svg>
