<?xml version="1.0" encoding="UTF-8"?>
<svg xmlns="http://www.w3.org/2000/svg" version="1.1" height="22px" width="22px" viewBox="0 0 100 100">
  <path style="fill:#E3E3BF;" d="m 19,4 62,0 q 5,0 5,5 l 0,82 q 0,5 -5,5 l -62,0 q -5,0 -5,-5 l 0,-82 q 0,-5 5,-5 z"/>
  <g style="fill:#386DA1;">
  <path d = "m 38 65 l -3 0 a 5 10 0 0 1 0,-20 l 15,0 l 0,-3 l -10,0 l 0,-6 a 9 5 0 0 1 18,0 l 0,14 a 3,3 0 0 1 -3,3 l -12,0 a 5,5 0 0 0 -5,5 z"/>
  <ellipse style="fill:#fff;" rx="2" ry="2" cx="46" cy="38" />
  </g>
  <g style="fill:#FFC83A;">
  <path d = "m 61 45 l 0,6 a 5,5 0 0 1 -5,5 l -12,0 a 3,3 0 0 0 -3,3 l 0,14 a 9,5 0 0 0 18,0 l 0,-6 l -10,0  l 0,-3 l 15,0 a 5 10 0 0 0 0,-20 l -3 0 z" />
  <ellipse style="fill:#fff;" rx="2" ry="2" cx="53" cy="71" />
  </g>
</svg>
