<?xml version="1.0" encoding="UTF-8"?>
<svg xmlns="http://www.w3.org/2000/svg" version="1.1" height="22px" width="22px" viewBox="0 0 100 100">
  <path style="fill:#fff;" d="m 10,30 80,0 q 5,0 5,5 l 0,55 q 0,5 -5,5 l -80,0 q -5,0 -5,-5 l 0,-55 q 0,-5 5,-5 z"/>
  <path style="fill:#666;fill-rule:evenodd;" d="m 10,20 20,0 0,5 a 2.5,2.5 0 0 0 5,0 l 0,-5 30,0 0,5 a 2.5,2.5 0 0 0 5,0 l 0,-5 20,0 q 5,0 5,5 l 0,65 q 0,5 -5,5 l -80,0 q -5,0 -5,-5 l 0,-65 q 0,-5 5,-5 z m 0,15 0,55 80,0 0,-55 z m 21,-17 a 1.5,1.5 0 0 1 3,0 l 0,7 a 1.5,1.5 0 0 1 -3,0 l 0,7 z m 35,0  a 1.5,1.5 0 0 1 3,0 l 0,7 a 1.5,1.5 0 0 1 -3,0 l 0,7 z m -32,24 30,0 -19,40 -7,0 16,-34 -20,0 "/>
</svg>
