/* XPM */
static char *bottom_xpm[] = {
"25 25 5 1",
" 	c None",
"1	c #FFFFFF",
"2	c #D8D8D8",
"3	c #888888",
"4	c #606060",
"                     1234",
"                     1234",
"                     1234",
"                     1234",
"                     1234",
"                     1234",
"                     1234",
"                     1234",
"                     1234",
"                     1234",
"                     1234",
"                     1234",
"                     1234",
"                     1234",
"                     1234",
"                     1234",
"                     1234",
"                     1234",
"                     1234",
"                     1234",
"                     1234",
"1111111111111111111111234",
"222222222222222222222224 ",
"33333333333333333333334  ",
"4444444444444444444444   "
};
