/* XPM */
static char *hide_xpm[] = {
"18 23 6 1",
" 	c None",
"1	c #5B5B5B",
"2	c #C1C1C1",
"3	c #B3B3B3",
"4	c #9B9B9B",
"5	c #888888",
"                  ",
"                  ",
"111111111111111111",
"112222222222222211",
"122222222222222221",
"122222222222222221",
"122222222222222221",
"122222222222222221",
"122222222222222221",
"122222222222222221",
"122222222222222221",
"122222222222222221",
"122222222222222221",
"122222222222222221",
"122222222222222221",
"122111111111111221",
"122111111111111221",
"122222222222222221",
"112222222222222211",
"111111111111111111",
"                  ",
"                  ",
"                  "
};
