/* XPM */
static char *top_xpm[] = {
"25 44 6 1",
" 	c None",
"1	c #989898",
"2	c #606060",
"3	c #FFFFFF",
"4	c #888888",
"5	c #D8D8D8",
"                         ",
"                         ",
"                         ",
"                         ",
"                         ",
"                         ",
"                         ",
"                         ",
"                         ",
"                         ",
"                         ",
"                         ",
"                         ",
"                         ",
"                         ",
"                         ",
"                         ",
"                         ",
"                         ",
"1111111111111111111111   ",
"33333333333333333333331  ",
"555555555555555555555554 ",
"4444444444444444444443542",
"                     3542",
"                     3542",
"                     3542",
"                     3542",
"                     3542",
"                     3542",
"                     3542",
"                     3542",
"                     3542",
"                     3542",
"                     3542",
"                     3542",
"                     3542",
"                     3542",
"                     3542",
"                     3542",
"                     3542",
"                     3542",
"                     3542",
"                     3542",
"                     3542"
};
