<?xml version="1.0" encoding="UTF-8"?>
<svg xmlns="http://www.w3.org/2000/svg" version="1.1" height="16px" width="16px" viewBox="0 0 192 192">
  <path style="fill:#9E9E9E;stroke:#545454;stroke-width:3;" d="m 60,5 c -15,10 -15,20 -10,30 l 72,92 20,-16 z"/>
  <path style="fill:#9E9E9E;stroke:#545454;stroke-width:3;" d="m 132,5 c 15,10 15,20 10,30 l -72,92 -20,-16 z"/>
  <g transform="rotate(33,57,145)">
  <path style="fill:#616161;stroke:#424242;stroke-width:3;" d="m 46,105 a 30 40 0 1 1 -0.1,0 z m 0,18 a 16 24 0 1 0 0.1,0 z"/>
  </g>
  <g transform="rotate(-33,135,145)">
  <path style="fill:#616161;stroke:#424242;stroke-width:3;" d="m 146,105 a 30 40 0 1 1 -0.1,0 z m 0,18 a 16 24 0 1 0 0.1,0 z"/>
  </g>
</svg>
