<?xml version="1.0" encoding="UTF-8"?>
<svg xmlns="http://www.w3.org/2000/svg" version="1.1" height="16px" width="16px" viewBox="0 0 192 192">
  <g transform="rotate(45 96 96)">
  <path style="fill:#7A8483;" d="m 24,72 a 48 48 0 0 0 48,-48 l 48,0 a 48 48 0 0 0 48,48 l 0,48 a 48 48 0 0 0 -48,48 l-48,0 a 48 48 0 0 0 -48,-48 z m 72,-12 a 36 36 1 1 0 0.1,0 z"/>
  </g>
  <path style="fill:#263238;" d="m 86,128 a 32,32 1 1 1 -58,-8 l 36,-50 a 12,12 0 0 1 22,0 l 0,4 20,0 0,-4 a 12,12 0 0 1 22,0 l 36,50  a 32,32 1 1 1 -58,8 z m -5,8 a 26,26 1 1 0 0,0.1 z m 82,0 a 26,26 1 1 0 0,0.1 z"/>
</svg>
