<?xml version="1.0" encoding="UTF-8"?>
<svg xmlns="http://www.w3.org/2000/svg" version="1.1" height="256px" width="256px" viewBox="0 0 100 100">
  <path style="fill:#FFF;stroke:#03649C;stroke-width:2;" d="m 19,4 62,0 q 5,0 5,5 l 0,82 q 0,5 -5,5 l -62,0 q -5,0 -5,-5 l 0,-82 q 0,-5 5,-5 z"/>
  <path style="fill:none;stroke:#03649C;stroke-width:3;" d="M 20,30 40,30 M 20,40 40,40 M 20,50 40,50 M 20,60 80,60 M 20,70 80,70 M 20,80 65,80"/>
  <path style="fill:#03649C;fill-opacity:0.4;stroke:#03649C;stroke-width:3;" d="M 50,28 80,28 80,52 50,52 z"/>
</svg>
