<?xml version="1.0" encoding="UTF-8"?>
<svg xmlns="http://www.w3.org/2000/svg" version="1.1" height="256px" width="256px" viewBox="0 0 100 100">
  <path style="fill:#FFF;stroke:#86039A;stroke-width:2;" d="m 19,4 62,0 q 5,0 5,5 l 0,82 q 0,5 -5,5 l -62,0 q -5,0 -5,-5 l 0,-82 q 0,-5 5,-5 z"/>
  <path d="M 27,40 A 23 10 0 1 1 27,41 z M 27,53 A 23 10 0 1 0 73,53 M 27,66 A 23 10 0 1 0 73,66 M 27,79 A 23 10 0 1 0 73,79 L 73,40 M 27,40 L 27,79" style="fill:none;stroke:#86039A;stroke-width:3;" />
</svg>
