<?xml version="1.0" encoding="UTF-8"?>
<svg xmlns="http://www.w3.org/2000/svg" version="1.1" height="24px" width="24px" viewBox="0 0 100 100">
  <g style="fill:#222222">
  <path d="M 6,20 C 55,15 45,75 74,70 74,61 74,54 74,54 L 96,76 75,97 c 0,0 0,-12 0,-17 -42,1 -20,-52 -69,-51 0,-4 0,-5 0,-9 z"/>
  <path d="M 49,35 C 53,22 65,21 75,21 75,18 75,4 75,4 L 96,25 75,47 c 0,0 0,-13 0,-17 -10,0 -17,3 -21,14 C 52,42 50,37 49,35 z"/>
  <path d="m 5,71 c 18,2 25,-6 31,-15 2,4 3,5 5,9 C 38,73 25,84 5,80 5,77 5,76 5,71 z"/>
  </g>
</svg>
