<?xml version="1.0" encoding="UTF-8"?>
<svg xmlns="http://www.w3.org/2000/svg" version="1.1" height="24px" width="24px" viewBox="0 0 192 192">
  <g transform="scale(1.92)">
  <path style="fill:#424242;" d="m 30,35 0,40 a 20,20 1 1 0 40,0 l 0,-40 z"/>
  <path style="fill:#A4A4A4;" d="m 35,35 0,-25 30,0 0,25 z"/>
  <path style="fill:#646464" d="m 40,22 0,4 5,0 0,-4 z m 15,0 0,4 5,0 0,-4 z"/>
  <path style="fill:#FFF" d="m 51,80 a 4,4 0 1 1 -2,0 l 0,-6 -11,-2.75 q -1,-0.25 -1,-1 l 0,-4 a 3,3 0 1 1 2,0 l 0,3 10,2.5 0,-22 -2,0 3,-5 3,5 -2,0 0,17 10,-2.5 0,-3 -2,0 0,-6 6,0 0,6 -2,0 0,4 q 0,0.75 -1,1 l -11,2.75 z"/>
  </g>
</svg>
