<?xml version="1.0" encoding="UTF-8"?>
<svg xmlns="http://www.w3.org/2000/svg" version="1.1" height="24px" width="24px" viewBox="0 0 192 192">
  <defs>
  <linearGradient id="grad1" x1="30%" y1="0%" x2="100%" y2="0%">
  <stop offset="0%" style="stop-color:rgb(185,250,250);stop-opacity:1" />
  <stop offset="100%" style="stop-color:rgb(208,236,236);stop-opacity:1" />
  </linearGradient>
  </defs>
  <path style="fill:url(#grad1);" d="m 63,10 66,0 a 12 12 0 0 1 12,12  l 0,148 a 12,12 0 0 1 -12,12 l -66,0 a 12,12 0 0 1 -12,-12 l 0,-148 a 12,12 0 0 1 12,-12 z"/>
  <path style="fill:#545454;" d="m 63,10 66,0 a 12 12 0 0 1 12,12  l 0,148 a 12,12 0 0 1 -12,12 l -66,0 a 12,12 0 0 1 -12,-12 l 0,-148 a 12,12 0 0 1 12,-12 z m 6,15 a 12 12 0 0 0 -12,12 l 0,118 a 12 12 0 0 0 12,12 l 54,0 a 12,12 0 0 0 12,-12 l 0,-118 a 12,12 0 0 0 -12,-12 z"/>
  <g transform="scale(1.8) translate(3,-12)">
  <path style="fill:#6AB344;fill-rule:evenodd;stroke:none;" d="m 35.5,58 0,19.5 q 0,4.5 4.5,4.5 l 1.5,0 0,7.5 c 0,6 7.5,6 7.5,0 l 0,-7.5 l 3,0 0,7.5 c 0,6 7.5,6 7.5,0 l 0,-7.5 1.5,0 q 4.5,0 4.5,-4.5 l 0,-19.5 z m 0,-1.5 a 15,15 0 0 1 6.75,-12.75 l -3,-5.625 c -1.5,-2.625 1.5,-4.125 3,-1.5 l 3,5.25 a 15,15 0 0 1 10.5,0 l 3,-5.25 c 1.5,-2.625 4.5,-1.125 3,1.5 l -3,5.25 a 15,15 0 0 1 6.75,12.75 z m 9.75,-10.5 a 1.5,1.5 1 1 0 0.01,0 z m 10.5,0 a 1.5,1.5 1 1 0 0.01,0 z"/>
  <path style="fill:none;stroke:#6AB344;stroke-width:5;stroke-linecap:round" d="m 32,60.5 0,12 m 37,-12 0,12"/>
  </g>
</svg>
