<?xml version="1.0" encoding="UTF-8"?>
<svg xmlns="http://www.w3.org/2000/svg" version="1.1" height="64px" width="64px" viewBox="0 0 192 192">
  <path style="fill:#EDEDED;stroke:#919191;stroke-width:6;" d="m 32,20 128,0 a 12 12 0 0 1 12,12  l 0,128 a 12,12 0 0 1 -12,12 l -128,0 a 12,12 0 0 1 -12,-12 l 0,-128 a 12,12 0 0 1 12,-12 z"/>
  <g transform="scale(1.4) translate(18,20)">
  <g style="fill:#000;stroke:none;">
  <path d="m 30,85 q 5,-4 1,-10 q -8,-20 10,-45 q 4,-5 0,-8 a 12,12 0 1 1 18,0 q -4,3 0,8 q 16,25 10,45 q -5,6 1,10 z"/>
  <path d="m 50,50 q 2,-5 0,-10 c -40,5 -40,15  0,10 z" />
  <path d="m 50,50 q -2,-5 0,-10 c 40,5 40,15  0,10 z" />
  </g>
  <path style="fill:#DBFDC8;stroke:none;" d="m 47,12 a 3,3 0 1 0 0,0.1 z m 12,0 a 3,3 0 1 0 0,0.1 z"/>
  <path style="fill:#666;stroke:none;" d="m 45,13.5 a 1,1 0 1 0 0,0.1 z m 12,0 a 1,1 0 1 0 0,0.1 z"/>
  <g style="fill:#F3C937;stroke:none;">
  <path d="m 56,20 a 6,3 0 1 0 0,0.1 z"/>
  <path d="m 47,90 q 2,-5 0,-10 c -40,5 -40,15  0,10 z" />
  <path d="m 53,90 q -2,-5 0,-10 c 40,5 40,15  0,10 z" />
  </g>
  <path style="fill:#FFF;stroke:none;" d="m 45,84 a 12,24 0 1 1 10,0 z"/>
  </g>
</svg>
