<?xml version="1.0" encoding="UTF-8"?>
<svg xmlns="http://www.w3.org/2000/svg" version="1.1" height="256px" width="256px" viewBox="0 0 192 192">
  <path style="fill:#919191;stroke:none" d="m 22,30 148,0 a 12 12 0 0 1 12,12 l 0,108 a 12,12 0 0 1 -12,12 l -148,0 a 12,12 0 0 1 -12,-12 l 0,-108 a 12,12 0 0 1 12,-12 z"/>
  <path style="fill:#BDBDBD;stroke:none" d="m 22,30 148,0 a 12 12 0 0 1 12,12 l -86,42 -86,-42 a 12,12 0 0 1 12,-12 z"/>
  <path style="fill:#3E3AF3;stroke:#3E3AF3;stroke-width:3;fill-opacity:0.5;" d="m 64,84 6,-16 86,0 3,-8 9,16 -21,16 3,-8 z"/>
  <path style="fill:#F6695E;stroke:#F6695E;stroke-width:3;fill-opacity:0.5;" d="m 160,128 -86,0 -3,8 -9,-16 21,-16 -3,8 86,0 z"/>
</svg>
