<?xml version="1.0" encoding="UTF-8"?>
<svg xmlns="http://www.w3.org/2000/svg" xmlns:xlink="http://www.w3.org/1999/xlink" version="1.1" height="256px" width="256px" viewBox="0 0 192 192">
  <path style="fill:#0E1E98;stroke:#919191;stroke-width:6;" d="m 32,20 96,0 a 12 12 0 0 1 12,12  l 0,64 a 12,12 0 0 1 -12,12 l -96,0 a 12,12 0 0 1 -12,-12 l 0,-64 a 12,12 0 0 1 12,-12 z"/>
  <path style="fill:#607D8B;stroke:#919191;stroke-width:6;" d="m 64,84 96,0 a 12 12 0 0 1 12,12  l 0,64 a 12,12 0 0 1 -12,12 l -96,0 a 12,12 0 0 1 -12,-12 l 0,-64 a 12,12 0 0 1 12,-12 z"/>
</svg>
