<?xml version="1.0" encoding="UTF-8"?>
<svg xmlns="http://www.w3.org/2000/svg" version="1.1" height="256px" width="256px" viewBox="0 0 192 192">
  <g transform="scale(1.92)">
  <path style="fill:#616161;" d="m 10,10 5,75 q 0.1,5 5,5 l 60,0 q 5,-0.1 5,-5 l 5,-75 z"/>
  <g style="fill:#FF5722;stroke:none;">
  <path  d="m 25.3,33 a 30,30 0 0 1 49.4,0 l -1.5,5.4 -5.5,-1.4 a 22,22 1 0 0 -35.4,0 l -0.7,-5.4 z"/>
  <g transform="rotate(120 50 50)">
  <path d="m 25.3,33 a 30,30 0 0 1 49.4,0 l -1.5,5.4 -5.5,-1.4 a 22,22 1 0 0 -35.4,0 l -0.7,-5.4 z"/>
  </g>
  <g transform="rotate(240 50 50)">
  <path d="m 25.3,33 a 30,30 0 0 1 49.4,0 l -1.5,5.4 -5.5,-1.4 a 22,22 1 0 0 -35.4,0 l -0.7,-5.4 z"/>
  </g>
  </g>
  </g>
</svg>
