<?xml version="1.0" encoding="UTF-8"?>
<svg xmlns="http://www.w3.org/2000/svg" version="1.1" height="100" width="100">
  <g style="fill:#000;stroke:#fff;stroke-width:3;">
    <path d="M 40,60 Q 34,60 34,55 Q 34,47 23,47 Q 17,47 16,39 Q 14,29 16,17 C 17,13 18,5 41,3 Q 50,2 59,3  C 82,5 83,13 84,17 Q 86,29 84,39 Q 83,47 77,47 Q 66,47 66,55 Q 66,59 60,59 L 60,56 40,56 z M 77,89 17,67 Q 14,66 11,67 C 0,71 0,62 7,58 C 2,47 14,44 18,58 Q 18,61 22,63 L 79,83 Q 83,85 85,82 C 92,74 100,81 92,89 C 98,96 85,100 81,92 Q 80,90 77,89 z "/>
    <path d="M 23,89 83,67 Q 86,66 89,67 C 100,71 100,62 93,58 C 98,47 86,44 82,58 Q 82,61 78,63 L 21,83 Q 17,85 15,82 C 8,74 0,81 8,89 C 2,96 15,100 19,92 Q 20,90 23,89 z"/>
  </g>
  <path style="fill:#fff;stroke:#fff;stroke-width:3;" d="M 47,44 Q 43,46 43,49 Q 43,51 47,51 Q 48,50 47,44 z M 53,43 Q 57,46 57,49 Q 57,51 53,51 Q 52,50 53,43 z M 43,32 Q 38,28 31,27 C 20,26 21,36 25,38 Q 34,42 41,37 C 46,33 44,34 43,32 z M 57,32 Q 62,28 69,27 C 80,26 79,36 75,38 Q 66,42 59,37 C 54,33 56,34 57,32 z"/>
</svg>
