<?xml version="1.0" encoding="UTF-8"?>
<svg xmlns="http://www.w3.org/2000/svg" version="1.1" height="48px" width="48px" viewBox="0 0 192 192">
  <path style="fill:#EDEDED;stroke:#545454;stroke-width:6;" d="m 42,10 108,0 a 12 12 0 0 1 12,12  l 0,148 a 12,12 0 0 1 -12,12 l -108,0 a 12,12 0 0 1 -12,-12 l 0,-148 a 12,12 0 0 1 12,-12 z m 6,48 96,0 m -96,24 96,0 m -96,24 96,0"/>
  <defs>
  <linearGradient id="grad1" x1="30%" y1="0%" x2="100%" y2="0%">
  <stop offset="0%" style="stop-color:rgb(10,145,206);stop-opacity:1" />
  <stop offset="100%" style="stop-color:rgb(68,100,120);stop-opacity:1" />
  </linearGradient>
  <linearGradient id="grad2" x1="0%" y1="0%" x2="100%" y2="0%">
  <stop offset="0%" style="stop-color:rgb(10,220,206);stop-opacity:1" />
  <stop offset="100%" style="stop-color:rgb(68,150,75);stop-opacity:1" />
  </linearGradient>
  </defs>
  <g transform="scale(0.5) translate(128,162)">
  <path style="fill:url(#grad1);stroke:none" d="m 96,8 a 88 88 1 1 0 0.1,0 z"/>
  <path style="fill:url(#grad2);stroke:none" d="m 96,8 a 88 88 0 0 0 -16,1.5 l 12,12 5,-1 -2,-4 z m -32,6 a 88 88 0 0 0 -55,68 l 3,2 10,0 7,6 0,4 8,4 3,0 2,2 0,8 -6,6 0,6 4,6 3,6 8,5 -3,32.5  a 88 88 0 0 0 14,7.6 l 18,-22 -1,-8 5,-6 10,-11 0,-10 -19,-7 -7,-11 -6,-3 -6,-6 -6,0 -5,3 -10,-3 0,-6 -5,-1 -1,-1 1,-6 -5,0 -1,3 -3,0 -4,-4 -1,-8 5,-3 5,1 2,-2 5,0 4,4 2,-1 -1,-6 8,-8 -0.5,-3 3,-0.5 -0.3,-3 4,-1 2,2 5,0 2.5,-2.5 -2.5,-2.5 -3,0 -0.5,-1 8,0 8,-8 6,-1 -3,-6 -5,-5 z
  m 105.8,130 a 88 88 0 0 0 -34.8,-127 l 3,10 -2,8 10,0 1,-8 6,5 -7,5 -7,0 4,4 0,4 -1,1 -9,0 -1,6 4,4 3,1 6,-8 3,0 0,-3 6,0 10,4 4,3 2,2 -1,-0.5 -2,5 -12,-3 1,-3 -9,0 -8,6 -4,1 -2,2 0,2 -3,2 -4,6 0,12 5,5 4,8 7,0 5,-4 3,0 3,5 4,0 0,7 3,6 0,14 -2,4 z"/>
  </g>
  <path style="fill:#FFC107;stroke:#545454;stroke-width:3;" d="m 145,35 10,10 -90,90 -10,-10 90,-90 z"/>
  <path style="fill:#FFEF62;stroke:#545454;stroke-width:3;" d="m 65,135 -14,5 4,-15 z"/>
  <path style="fill:#646464;stroke:#545454;stroke-width:3;" d="m 55.667,138.333 -4.667,1.667 1.333,-5 z"/>
</svg>
