<?xml version="1.0" encoding="UTF-8"?>
<svg xmlns="http://www.w3.org/2000/svg" version="1.1" height="48px" width="48px" viewBox="0 0 192 192">
  <defs>
  <linearGradient id="grad1" x1="30%" y1="0%" x2="100%" y2="0%">
  <stop offset="0%" style="stop-color:rgb(26,69,192);stop-opacity:1" />
  <stop offset="100%" style="stop-color:rgb(0,164,269);stop-opacity:1" />
  </linearGradient>
  <linearGradient id="grad2" x1="0%" y1="0%" x2="100%" y2="0%">
  <stop offset="0%" style="stop-color:rgb(240,30,63);stop-opacity:1" />
  <stop offset="100%" style="stop-color:rgb(255,243,94);stop-opacity:1" />
  </linearGradient>
  </defs>
  <g transform="scale(1.8) translate(3,3)">
  <ellipse cx="50" cy="50" rx="48" ry="48" style="fill:url(#grad1)"/>
  <path d="M 14,9 Q 7,18 7,26.5 A 49,49 0 1 0 81,13 Q 86,20 88,33 Q 79,18 65,11 Q 80,26 79,49 Q 76,41 70,36 A 24,24 0 1 1 30,64 C 47,70 54,55 57,56 Q 59,56 59,54 C 54,45 40,64 35,49 A 6 6 0 0 1 44,43 C 46,40 34,26 42,12 Q 35,13 32,19 Q 26,16 18,19 Q 14,16 14,9 Z" style="fill:url(#grad2)"/>
  <path d="M 39.2,24 Q 42,30 50,30 Q 52,30 52,34 Q 52,36 43,38 Q 39,28 39.2,24z" style="fill:url(#grad2)"/>
  <path d="M 50,30 Q 54,30 52,34 Q 52,30 50,30 z" style="fill:#723E3B"/>
  </g>
</svg>
