<?xml version="1.0" encoding="UTF-8"?>
<svg xmlns="http://www.w3.org/2000/svg" version="1.1" height="48px" width="48px" viewBox="0 0 192 192">
  <path style="fill:#EDEDED;stroke:#9C27B0;stroke-width:6;" d="m 42,10 108,0 a 12 12 0 0 1 12,12  l 0,148 a 12,12 0 0 1 -12,12 l -108,0 a 12,12 0 0 1 -12,-12 l 0,-148 a 12,12 0 0 1 12,-12 z"/>
  <g transform="scale(1.92) translate(0,-10)">
  <path d="M 27,40 A 23 10 0 1 1 27,41 z M 27,53 A 23 10 0 1 0 73,53 M 27,66 A 23 10 0 1 0 73,66 M 27,79 A 23 10 0 1 0 73,79 L 73,40 M 27,40 L 27,79" style="fill:none;stroke:#9C27B0;stroke-width:3;" />
  </g>
</svg>
