<?xml version="1.0" encoding="UTF-8"?>
<svg xmlns="http://www.w3.org/2000/svg" version="1.1" height="64px" width="64px" viewBox="0 0 100 100">
  <path style="fill:#E3E3BF;" d="m 19,4 62,0 q 5,0 5,5 l 0,82 q 0,5 -5,5 l -62,0 q -5,0 -5,-5 l 0,-82 q 0,-5 5,-5 z"/>
  <path style="fill:#777777;" d="m 45,24 -1,7 -7,3 -6,-4 -6.2,7 3.2,5 -3,8 -6.2,1 0.2,9 6.5,1 2.5,6 -3.9,7 6.9,7 6,-4 7,3 1,7 10,0 1,-7 6,-3 6,4 8,-7 -5,-7 2,-5 9,-1 0,-10 -8,-1 -3,-7 4,-6 -6,-7 -6,4 -8,-3 -1,-7 z m 4,14 c 9,0 18,8 18,16 0,11 -9,18 -18,18 -9,0 -17,-7 -17,-18 0,-8 8,-16 17,-16 z"/>
</svg>
