/* XPM */
static char *logo2_xpm[] = {
"32 32 256 2",
"  	c None",
"BA	c #200001",
"CA	c #26255B",
"DA	c #710000",
"EA	c #5C085C",
"FA	c #0C0411",
"GA	c #231129",
"HA	c #750A98",
"IA	c #4E1478",
"JA	c #A65827",
"KA	c #612571",
"LA	c #2B425F",
"MA	c #26164F",
"NA	c #3D0E5B",
"OA	c #8018AA",
"PA	c #9B475E",
"QA	c #0C112E",
"RA	c #3A0000",
"SA	c #443F7D",
"TA	c #211C4B",
"UA	c #740C7A",
"VA	c #3F215B",
"WA	c #59386C",
"XA	c #050309",
"YA	c #231D39",
"ZA	c #9E0201",
"aA	c #E3541E",
"bA	c #5C2F97",
"cA	c #3E3C8C",
"dA	c #223B51",
"eA	c #582788",
"fA	c #0D091A",
"gA	c #46281C",
"hA	c #1D2863",
"iA	c #5E117A",
"jA	c #220323",
"kA	c #0A0101",
"lA	c #3E226B",
"mA	c #424B5E",
"nA	c #430D52",
"oA	c #7425B9",
"pA	c #2D0941",
"qA	c #4C1C82",
"rA	c #341B54",
"sA	c #732987",
"tA	c #17101E",
"uA	c #A120B0",
"vA	c #841687",
"wA	c #2B2669",
"xA	c #762D93",
"yA	c #530B59",
"zA	c #1B1032",
"0A	c #611E93",
"1A	c #222535",
"2A	c #B60200",
"3A	c #4F0000",
"4A	c #473C74",
"5A	c #393A99",
"6A	c #8D0E06",
"7A	c #D5663B",
"8A	c #C13D16",
"9A	c #500A6E",
"+A	c #5A1F6F",
"/A	c #731183",
"AB	c #49276E",
"BB	c #300836",
"CB	c #1A041C",
"DB	c #342048",
"EB	c #212B3D",
"FB	c #67338A",
"GB	c #40334E",
"HB	c #512562",
"IB	c #3D1746",
"JB	c #3C257F",
"KB	c #1C0D29",
"LB	c #5D2599",
"MB	c #201225",
"NB	c #524979",
"OB	c #2F0D06",
"PB	c #8A0D93",
"QB	c #742CB4",
"RB	c #5D2479",
"SB	c #6B1782",
"TB	c #171917",
"UB	c #4E4566",
"VB	c #570C20",
"WB	c #2A335D",
"XB	c #09020C",
"YB	c #654D76",
"ZB	c #403298",
"aB	c #692386",
"bB	c #550854",
"cB	c #542B95",
"dB	c #3A306C",
"eB	c #3F335B",
"fB	c #3E2456",
"gB	c #B00C1B",
"hB	c #A01C09",
"iB	c #36353F",
"jB	c #E67739",
"kB	c #B54241",
"lB	c #140001",
"mB	c #320949",
"nB	c #4D347F",
"oB	c #271344",
"pB	c #250C3B",
"qB	c #451A72",
"rB	c #130413",
"sB	c #2D2E6E",
"tB	c #6D2DA3",
"uB	c #5F0000",
"vB	c #892488",
"wB	c #311A67",
"xB	c #731677",
"yB	c #5E1B78",
"zB	c #1B1F2A",
"0B	c #2C2456",
"1B	c #5B0C70",
"2B	c #902392",
"3B	c #0D0D24",
"4B	c #181A37",
"5B	c #4E1A13",
"6B	c #44436E",
"7B	c #6B249A",
"8B	c #402B71",
"9B	c #101923",
"+B	c #1B0623",
"/B	c #51267D",
"AC	c #772290",
"BC	c #851B0A",
"CC	c #721A82",
"DC	c #642579",
"EC	c #642784",
"FC	c #7D2C9B",
"GC	c #4F407A",
"HC	c #351A3F",
"IC	c #49348D",
"JC	c #2A2142",
"KC	c #5B3273",
"LC	c #641673",
"MC	c #3E2465",
"NC	c #3C0A39",
"OC	c #321244",
"PC	c #49195D",
"QC	c #310C14",
"RC	c #06090D",
"SC	c #3B040E",
"TC	c #0B0B0D",
"UC	c #4E218A",
"VC	c #7C147C",
"WC	c #314970",
"XC	c #3A1B4C",
"YC	c #242662",
"ZC	c #4A124F",
"aC	c #75118A",
"bC	c #2D3170",
"cC	c #1A0A04",
"dC	c #3740A1",
"eC	c #44414F",
"fC	c #433B92",
"gC	c #4F5066",
"hC	c #0D0C13",
"iC	c #562D77",
"jC	c #31354B",
"kC	c #8D0E85",
"lC	c #100C2F",
"mC	c #BC1006",
"nC	c #472054",
"oC	c #663497",
"pC	c #3F1C64",
"qC	c #660868",
"rC	c #F16F2B",
"sC	c #B115AF",
"tC	c #584679",
"uC	c #442D79",
"vC	c #9C5A5E",
"wC	c #4F030E",
"xC	c #13051B",
"yC	c #66249D",
"zC	c #12112B",
"0C	c #531568",
"1C	c #110D17",
"2C	c #783787",
"3C	c #43316B",
"4C	c #632A89",
"5C	c #6F1494",
"6C	c #151426",
"7C	c #2F1B37",
"8C	c #6D2D87",
"9C	c #621B84",
"+C	c #190A1C",
"/C	c #261F26",
"AD	c #A4040B",
"BD	c #434F6B",
"CD	c #7F0000",
"DD	c #7B1FAB",
"ED	c #531762",
"FD	c #312752",
"GD	c #1C0F39",
"HD	c #4B408A",
"ID	c #430201",
"JD	c #AC1206",
"KD	c #50397E",
"LD	c #763995",
"MD	c #2A2562",
"ND	c #541207",
"OD	c #632B7C",
"PD	c #310B3A",
"QD	c #2B194A",
"RD	c #6B2191",
"SD	c #950E95",
"TD	c #2B0B2E",
"UD	c #2F0001",
"VD	c #E86123",
"WD	c #28071E",
"XD	c #29252E",
"YD	c #7B0D86",
"ZD	c #6E138A",
"aD	c #12091B",
"bD	c #6A1571",
"cD	c #34276A",
"dD	c #433C9B",
"eD	c #2B133E",
"fD	c #422863",
"gD	c #312B74",
"hD	c #4A0B51",
"iD	c #58104F",
"jD	c #31190C",
"kD	c #4A1A7B",
"lD	c #70187C",
"mD	c #8E1B82",
"nD	c #625A76",
"oD	c #180417",
"pD	c #89270E",
"qD	c #411852",
"rD	c #191123",
"sD	c #3B0C4C",
"tD	c #4A4273",
"uD	c #6627A4",
"vD	c #130B22",
"wD	c #601083",
"xD	c #473770",
"yD	c #400B45",
"zD	c #524186",
"0D	c #682C78",
"1D	c #4A3155",
"2D	c #522488",
"3D	c #651B7B",
"4D	c #5F2E8F",
"5D	c #5C297C",
"6D	c #302644",
"7D	c #2B1C3F",
"8D	c #444864",
"9D	c #302D6B",
"+D	c #68389D",
"/D	c #3B2A55",
"                                                                ",
"                                                          RChC  ",
"                                                    XAXDeCmAEB  ",
"                                            XA      UBnDgCmA9B  ",
"                                        GAOCOD+C    UBgCmAjChC  ",
"                                      HB2CLDxAeD  1CNBBDBD1A    ",
"                          xC+B9A1BpAXAKA0DOD8CXC  rDNB6BBDzB    ",
"                      eDkDDDOAHA5CCC+BIBODOD8CfD  7DGC4AtD6C    ",
"              FApAFAUCQBoA5C9A1BSBxBNCFA3DODFBAB  /D4AKD4A6C    ",
"        +CGDlAqA0ApBUCLByCIAxCPDCCxBZCXA3D5DFBiCXBxDxDzDSA6C    ",
"  XAHCVAiC/BuCqBIApAMAcByCNA    LC/AZCXALC+AFBiCFA3CFDHDSA6C    ",
"  XCHBfDfDrAMApCkDrAXA2DyCmB    bD/AhDXAiA0CRD5DGAKDzAfCcA6C    ",
"  JCfBfDFDtAXBzAABlAXA2DyCpA    UAYDnAXBwDsDSBODMCKDzCZBfCQA    ",
"  1CrAfDJC      QDnB1C2DuDOC  xCPBYDPDXAwDpA3DRDoCnBfAZB5AQA    ",
"    DBcDTA  MAGDXB8BvDUCyCIB  hDSDUACBXBZDCB0CRD+DMCXBdD5AlC    ",
"    FDcDTA  wBGD  fAXB2DyCPCyDsCkCbBXBXBZD+BZCyCoCrAFAdD5AQA    ",
"    0BgDMA  JBzA      eA7BFCuASDqCjA  XBYDCBOCtBbA7DXAdCdCQA    ",
"    CA9DMD0BICGA      4CFCAC/AEAWD    XB5C+BeDtBcBQAQCPAvC/C    ",
"    CA9DgDICuC6C      ODFCEDjAXB      XBaCjAvDuDUCWDJDkB7AJAXA  ",
"    YC9DwAwAgD6C      ODFCPD          XBYDCBXBLBqAwCgBdDYBjB/C  ",
"    MDgDTAQA3CGA    FA8CsAPD          oDvATD  ECqBSCADnBtCrCgA  ",
"    YCbC4B  3C6C    tAoCaBPD          NC2BKA+CyBNAQCADMC1DVDjD  ",
"    hAbC4B  6DtA    1C4D9CPD          VCvBsAnCsDpA1CVB3B5BaAcC  ",
"    YCbC4B  hCXA    xC4CSByAXB      oDmDbD0CKBXAFA      hB8AXA  ",
"    MD9D4B          KBaBlDvAqC      rBiDTD+C          lBmCND    ",
"    WBdBYA        hCKCKAbDlDbBXA      XB              3AZA      ",
"    WBdBGBrD      MBWAnCZCNC+B                      lBCDRA  pD  ",
"  9BWCeBeBGBXB    rB7C1CoD                          IDuB  6ABC  ",
"  LALAjCiBXD                                      XA3A3ADA2AID  ",
"RCdAEB1ATBTC                                      XA3AuBCD2AID  ",
"  9BRCXA                                          XAlBlBBAUDlB  ",
"                                                                "
};
