<?xml version="1.0" encoding="UTF-8"?>
<svg xmlns="http://www.w3.org/2000/svg" version="1.1" height="22px" width="22px" viewBox="0 0 192 192">
  <g transform="scale(0.8) translate(24,0)">
  <path style="fill:#FFFFFF;stroke:#616161;stroke-width:10;" d="m 22,30 148,0 a 12 12 0 0 1 12,12  l 0,108 a 12,12 0 0 1 -12,12 l -148,0 a 12,12 0 0 1 -12,-12 l 0,-108 a 12,12 0 0 1 12,-12 z"/>
  <rect style="fill:#03A9F4" width="10" height="10" x="30" y="45"/>
  <rect style="fill:#545454" width="10" height="10" x="30" y="65"/>
  <rect style="fill:#009688" width="10" height="10" x="30" y="85"/>
  </g>
  <path style="fill:#616161;" d="m 10,144 82,0 0,-15 12,0 0,15 82,0 0,12 -176,0 z"/>
</svg>
