<?xml version="1.0" encoding="UTF-8"?>
<svg xmlns="http://www.w3.org/2000/svg" version="1.1" height="256px" width="256px" viewBox="0 0 100 100">
  <path fill="#333333" d="M 10 37 L 10 79 C 10 95 22 98 31 98 L 70 98 C 82 98 92 90 92 81 L 92 37 z M 50 49 C 53 49 56 50 58 53 C 62 59 55 65 55 65 L 60 85 L 41 85 L 46 65 C 46 65 45 64 43 61 C 41 57 42 54 45 51 C 46 50 48 49 50 49 z M 20 37 20 23 A 19 19 0 0 1 28 7 A 50 50 0 0 1 72 7 A 19 19 0 0 1 80 23 L 80 37 72 37 72 23 A 11 11 0 0 0 68 14 A 42 42 0 0 0 32 14 A 11 11 0 0 0 28 23 L 28 37 z"/>
</svg>
