<?xml version="1.0" encoding="UTF-8"?>
<svg xmlns="http://www.w3.org/2000/svg" version="1.1" height="256px" width="256px" viewBox="0 0 192 192">
  <defs>
  <linearGradient x1="10" y1="100" x2="10" y2="0" id="Grad1" gradientUnits="userSpaceOnUse">
  <stop style="stop-color:rgb(32,91,160);stop-opacity:1" offset="0" />
  <stop style="stop-color:rgb(111,201,241);stop-opacity:1" offset="1" />
  </linearGradient>
  <linearGradient id="Grad2" x1="0%" y1="0%" x2="100%" y2="0%">
  <stop style="stop-color:rgb(204,204,204);stop-opacity:1" offset="0" />
  <stop style="stop-color:rgb(149,146,146);stop-opacity:1" offset="1" />
  </linearGradient>
  </defs>
  <ellipse cx="96" cy="96" rx="92" ry="92" style="fill:url(#Grad2)"/>
  <!--path d="M 10,73 A 44,44 0 0 0 10,27 Q 40,15 95,34 Q 86,42 86,40 Q 40,42 15,73 z" style="fill:url(#Grad1)"/-->
  <path d="m 6,73 a 124,124 0 0 1 182,32 a 92,92 0 0 1 -3,18 c -40,-40, -100,-40 -170,18 l -2,-3 c 40,-50 30,-60 -8,-58z " style="fill:url(#Grad1)"/>
</svg>
