<?xml version="1.0" encoding="UTF-8"?>
<svg xmlns="http://www.w3.org/2000/svg" version="1.1" height="256px" width="256px" viewBox="0 0 192 192">
  <path style="fill:#EDEDED;stroke:#94776D;stroke-width:6;" d="m 42,10 108,0 a 12 12 0 0 1 12,12  l 0,148 a 12,12 0 0 1 -12,12 l -108,0 a 12,12 0 0 1 -12,-12 l 0,-148 a 12,12 0 0 1 12,-12 z"/>
  <g transform="scale(1.92) translate(0,-10)">
  <path d="M 25,30 75,30 75,70 25,70 z M 35,45 65,45 M 35,56 65,56" style="fill:#94776D;fill-opacity:0.3;stroke:#94776D;stroke-width:3;" />
  <path d="M 35,85 50,70, 65,85" style="fill:none;stroke:#94776D;stroke-width:3;" />
  </g>
</svg>
