<?xml version="1.0" encoding="UTF-8"?>
<svg xmlns="http://www.w3.org/2000/svg" version="1.1" height="256px" width="256px" viewBox="0 0 192 192">
  <path style="fill:#94776D;stroke:none" d="m 22,30 148,0 a 12 12 0 0 1 12,12  l 0,108 a 12,12 0 0 1 -12,12 l -148,0 a 12,12 0 0 1 -12,-12 l 0,-108 a 12,12 0 0 1 12,-12 z"/>
  <path style="fill:#3E2723;" d="m 88,30 0,32 -4,0 0,24 24,0 0,-24 -4,0 0,-32 -6,0 0,32,-4,0 0,-32 z m 0,44 16,0 0,6 -16,0 z"/>
  <g transform="scale(0.6)">
  <g transform="translate(120,110)">
  <path style="fill:#9E9E9E;stroke:none" d="m 96,8 a 88 88 1 1 0 0.1,0 z m -0.1 104 a 16 16 0 1 1 0.1,0 z"/>
  </g>
  </g>
  <g transform="scale(0.4) translate(295,13)">
  <path style="fill:#FF9800;stroke:#BF3603;stroke-width:6;" d="m 96,10 25,50.2 57,10.2 -40,39.4 8,56 -50.3,-25 -50.3,25 8,-56 -40,-39.4 57,-10.2 25,-50.2 z"/>
  </g>
</svg>
