<?xml version="1.0" encoding="UTF-8"?>
<svg xmlns="http://www.w3.org/2000/svg" version="1.1" height="32px" width="32px" viewBox="0 0 100 100">
  <path style="fill:#ffffff;stroke:none;" d="m 65,3 0,19 19,0 z"/>
  <path style="fill:#EBEBDA;stroke:#777777;stroke-width:2;" d="m 65,3 0,19 19,0 0,74 -72,0 0,-93 53,0 19,19"/>
  <path style="fill:none;stroke:#444444;stroke-width:2px;" d="m 21,26 54,0 -54,0 z m 0,9 54,0 -54,0 z m 0,9 54,0 -54,0 z m 0,8 23,0 -23,0 z m 0,10 54,0 -54,0 z"/>
  <path style="stroke:#02e;stroke-width:5;fill:none;opacity:0.75;" d="m 25,50 0,25 10,-20 0,20, 12.5,-25" />
</svg>
