<?xml version="1.0" encoding="UTF-8"?>
<svg xmlns="http://www.w3.org/2000/svg" version="1.1" height="32px" width="32px" viewBox="0 0 100 100">
  <path style="fill:#BEAF9B;stroke:none" d="m  10,30 80,0 q 5,0 5,5 l 0,55 q 0,5 -5,5 l -80,0 q -5,0 -5,-5 l 0,-55 q 0,-5 5,-5 z"/>
  <path style="fill:#666;fill-rule:evenodd;" d="m 50,30 -6,0 0,3 6,0 z m 0,3 6,0 0,3 -6,0 z m 0,3 -6,0 0,3 6,0 z m 0,3 6,0 0,3 -6,0 z m 0,3 -6,0 0,3 6,0 z m 0,3 6,0 0,3 -6,0 z m 0,3 -6,0 0,3 6,0 z m 0,3 6,0 0,3 -6,0 z
  m -26,10 0,4 5,0 0,20 4,0 0,-20, 5,0 0,-4 z m 15,24 9,-24 4,0 9,24 -4,0 -3,-8 -8,0 -3,8 z m 8,-12 3,-8 3,8 z m 16,-12 0,24 4,0 0,-12 1,0 5,12 4,0 -5 -12 a 6,6 0 0 0 -1,-12 z m 4,4 4,0 a 2,2 1 0 1 0,4 l -4,0 z"/>
</svg>
