<?xml version="1.0" encoding="UTF-8"?>
<svg xmlns="http://www.w3.org/2000/svg" version="1.1" height="32px" width="32px" viewBox="0 0 100 100">
  <path style="fill:#B1974D;" d="m 19,4 62,0 q 5,0 5,5 l 0,82 q 0,5 -5,5 l -62,0 q -5,0 -5,-5 l 0,-82 q 0,-5 5,-5 z"/>
  <path style="fill:#5B4335;" d="m 25,4 0,92 l -6,0 q -5,0 -5,-5 l 0,-82 q 0,-5 5,-5 z"/>
  <path style="fill:#5B4335;fill-rule:evenodd;" d="m 57,45 4,0 -1,13 c -0.3,1.5 0,1.5 2,0 a 12,12 0 1 0 -19.5,-13 c -7,22 14,26 27,17 l 1,3.5 c -13,7 -37,5 -32.5,-18 a 15.5,15 0 1 1 24.5,14 c -4,2 -7,2 -6,-3 c -2,5 -12,5 -10,-6 c 2,-10 11,-8 10,-6 z m -0.5,7 c 0.5,-6 -5,-6 -6.5,0 c -1.5,9 5,8 6.5,0 "/>
</svg>
