<?xml version="1.0" encoding="UTF-8"?>
<svg xmlns="http://www.w3.org/2000/svg" version="1.1" height="32px" width="32px" viewBox="0 0 100 100">
  <path style="fill:#ffffff;stroke:none;" d="m 65,3 0,19 19,0 z"/>
  <path style="fill:#EBEBDA;stroke:#777777;stroke-width:2;" d="m 65,3 0,19 19,0 0,74 -72,0 0,-93 53,0 19,19"/>
  <path style="fill:none;stroke:#3F51B5;stroke-width:5;" d="m 24,50 0,35 m 18,-22 a 9,10.5 0 1 1 0,-0.1 z m 25,0 a 9,10.5 0 1 1 0,-0.1 z m 8,-25 0,30 a 5,5 0 0 0 5,5 m -10,-23 10,0" />
</svg>
