<?xml version="1.0" encoding="UTF-8"?>
<svg xmlns="http://www.w3.org/2000/svg" version="1.1" height="16px" width="16px" viewBox="0 0 100 100">
  <path style="fill:#555555;" d="M 78,0 68,13 c 0,0 4,1 7,3 L 90,0 z"/>
  <path style="fill:#C7A751;" d="M 61,18 C 53,18 42,22 33,31 24,40 9.7,59 8,69 c -3,17 9,23 18,24 -1,-2 -1,-5 -1,-8 4,5 6,8 15,9 -2,-4 -2,-8 -2,-8 0,0 8,9 22,9 -3,-3 -3,-8 -3,-8 0,0 8,7 18,5 -2,-2 -4,-4 -5,-6 3,1 6,3 16,1 -2,-1 -6,-3 -8,-5 7,0 10,-3 12,-6 -9,0 -17,-1 -20,-9 -3,-9 6,-22 7,-27 1,-5 3,-15 -5,-19 4,0 7,-2 3,-5 -3,-2 -7,-3 -10,-3 -3,0 -7,2 -4,5 z"/>
  <path style="fill:#A3262A;" d="m 26,41 c 4,11 27,14 44,10 l 4,-7 C 74,44 58,46 47,44 35,42 33,33 33,33 z"/>
</svg>
