<?xml version="1.0" encoding="UTF-8"?>
<svg xmlns="http://www.w3.org/2000/svg" version="1.1" height="16px" width="16px" viewBox="0 0 100 100">
  <path style="fill:#C53949" d="M 3,31 31,3 69,3 97,31 97,70 70,97 29,97 3,70 z"/>
  <path style="fill:#C53949;stroke:#eeeeee;stroke-width:3" d="M 33,8 67,8 92,33 92,68 68,92 31,92 8,68 8,33 z"/>
  <path style="fill:#fff;stroke:#222;stroke-width:3" d="m 63,55 0,-30 c 0,-6 -9,-6 -9,0 l 0,23 0,-28 c 0,-6 -9,-6 -9,1 l 0,27 0,-22 c 0,-6 -8,-6 -8,0 l 0,23 c 0,1 0,-16 0,-16 0,-5 -8,-6 -8,0 l 0,35 c 0,18 31,26 39,3 2,-9 5,-20 7,-23 2,-4 4,-6 -1,-6 -10,0 -8,11 -11,13 z"/>
</svg>
