<?xml version="1.0" encoding="UTF-8"?>
<svg xmlns="http://www.w3.org/2000/svg" version="1.1" height="16px" width="16px" viewBox="0 0 100 100">
  <path style="fill:#222222;" d="M 17,43 C 10,50 4,48 0,56 l 0,7 c 0,0 8,-14 17,-3 z"/>
  <path style="fill:#cccccc;" d="m 61,65 25,0 c 6,0 6,10 0,10 l -25,0 z"/>
  <path style="fill:#cccccc;" d="m 61,28 25,0 c 6,0 6,10 0,10 l -25,0 z"/>
  <path style="fill:#555555;" d="m 61,25 c 0,0 0,50 0,55 0,4 0,5 -4,5 -7,0 -20,0 -24,0 -4,0 -10,-3 -13,-10 -4,-10 -6,-32 1,-48 4,-9 8,-8 13,-8 5,0 19,0 23,0 4,0 4,1 4,6 z"/>
  <path style="fill:#888888;" d="m 57,24 -29,0 c 0,0 -6,15 -6,27 0,12 1,17 6,28 l 29,0 z"/>
  <rect style="fill:#222222;" width="6" height="100" x="94" y="0"/>
</svg>
