<?xml version="1.0" encoding="UTF-8"?>
<svg xmlns="http://www.w3.org/2000/svg" version="1.1" height="16px" width="16px" viewBox="0 0 100 100">
  <path style="fill:#E3E3BF;" d="m 19,4 62,0 q 5,0 5,5 l 0,82 q 0,5 -5,5 l -62,0 q -5,0 -5,-5 l 0,-82 q 0,-5 5,-5 z"/>
  <!--path style="fill:#888888;stroke:#111111;stroke-width:2" d="m 41,28 36,41 c 6,-1 14,1 17,7 4,8 -1,19 -1,19 L 85,79 71,87 77,97 C 73,97 66,96 63,89 61,84 63,79 63,79 L 27,37 C 18,38 10,37 5,28 0,19 3,9 6,6 L 16,27 35,18 27,2 c 6,0 12,2.9 15,9 4,9 -1,17 -1,17 z"/-->
  <path style="fill:#888888;" d="m 20,5 a 14,14 0 0 0 10,23 l 30,50 a 13,13 0 0 0 6,20 l -4,-13 c 3,-5 9,-6 13,-4 l 4,13 a 13,13 0 0 0 -8,-21 l -30,-50 a 14,14 0 0 0 -7,-21 l 5,14 c -4,6 -10,6 -14,4 l -5,-15 z"/>
</svg>
