/* XPM */
static char *xupgrade24_xpm[] = {
"24 24 34 1",
"A	c #FFFFC7",
"B	c #FF0000",
"C	c #C0C0A3",
"D	c #808080",
"E	c #BF4040",
"F	c #BFBFB0",
"G	c #BFBFBF",
"H	c #DE5F5F",
"I	c #FFFFFF",
"J	c #FF8080",
"K	c #808063",
"L	c #000000",
"M	c #BF4031",
"N	c #00003F",
"O	c #00007F",
"P	c #40407F",
"Q	c #FF8063",
"R	c #0000FF",
"S	c #4040BF",
"T	c #7F7FFF",
"U	c #7F0000",
"V	c #3F3FFF",
"W	c #404040",
"X	c #7F7F7F",
"Y	c #9F9F9F",
"Z	c #DFDFDF",
"a	c #C0C095",
"b	c #606051",
"c	c #5F5F5F",
"d	c #606060",
"e	c #505050",
"f	c #48D048",
"g	c #C0C0C0",
"h	c #A0A0A0",
"AAAAAAAAAffffffffffAAAAA",
"AAAAAAfffffffffffffAAAAA",
"AAAAffAAAAAAfffffffARRRA",
"AAffAAAffffAAAfffffARRRA",
"AfAAAffAAAAffAAAfffARRRA",
"fAAffAAAAfAAAffAAffAAAAA",
"AfAAAffAAfAffAAAfffARRRA",
"AAffAAAffffAAAfffffARRRA",
"AAAAffAAAAAAfffffffARRRA",
"AAAAAAfffffffffffffARRRA",
"AAAAAAAAAffffffffffARRRA",
"AAAAAAAAAAAAAAAAAAAARRRA",
"AAAAAAAAAAAAAAAAAAAARRRA",
"AAAAAAAABBBBBBBBBBBBRRRA",
"AAAAAAABAABAAAAAABBBRRRA",
"AAAAAABAAABAAAAAABBBRRRA",
"AAAAABAAAABBBAABBBAABBAA",
"AAAABAAAAABBBAABBBAABBAA",
"AAABAABBAABBBAABBBBBBBAA",
"AABIABBBAABBBAABBBAABBAA",
"ABAABBBBAABBBAABBBAABBAA",
"BAABBBBBAABBBAABBBAABBAA",
"BBBBBBBBBBBBBBBBBBBBBBAA",
"BBBBBBBBBBBBBBBBBBBBBBAA"
};
