<?xml version="1.0" encoding="UTF-8"?>
<svg xmlns="http://www.w3.org/2000/svg" version="1.1" height="256px" width="256px" viewBox="0 0 100 100">
  <path style="fill:#ffffff;stroke:none;" d="m 66,3 0,19 19,0 z"/>
  <path style="fill:#EBEBDA;stroke:#777777;stroke-width:2;" d="m 66,3 0,19 19,0 0,74 -72,0 0,-93 53,0 19,19"/>
  <path style="fill:#222222;stroke:none;" d="m 82,79 c -5,0 -5,0 -10,-7 L 51,17 47,17 28,64 C 21.2,78 20.2,79 15.7,79 l 0,2 20.3,0 0,-2 c -3,0 -5,0 -3,-7 l 4.3,-10 19.5,0 3,8 c 1,3 1,6 1,7 0,3 -1,3 -7,3 l 0,2 28,0 0,-2 M 39.5,56 47.5,34.5 55,56 39.5,56"/>
</svg>
