<?xml version="1.0" encoding="UTF-8"?>
<svg xmlns="http://www.w3.org/2000/svg" version="1.1" height="100" width="100">

  <path style="fill:#778899;" d="m 73,27.25 c -0.75,0 -2.25,0.9 -2.25,2.25 l 0,7.5 -21.75,0 c -3,0 -4.5,2.25 -4.5,3.75 l 0,53.25 c 0,2.25 1.5,4.5 4.5,4.5 l 27,0 c 1.5,0 4.5,-2.25 4.5,-4.5 l 0,-53.25 c 0,-1.5 -3,-3.75 -4.5,-3.75 L 76,29.35 C 76,28 74.5,27.25 73,27.25 z m -23.25,13.5 24.75,0 c 1.5,0 1.5,1.5 1.5,1.5 l 0,22.5 c 0,2.25 0,2.25 -1.5,2.25 l -24.75,0 c -0.75,0 -1.5,0 -1.5,-2.25 l 0,-22.5 c 0,0 0,-1.5 1.5,-1.5 z"/>

  <path style="fill:#dddddd;" d="m 21,90 8,0 -2.5,-70 3.5,0 0,-3 -10,0 0,3 3.5,0 -2.5,70 z"/>
  <path style="fill:#B0C4DE;stroke:#222222;stroke-width:1;" d="m 20,5 0,30 -10,0 0,-30 10,0 z"/>
  <path style="fill:#B0C4DE;stroke:#222222;stroke-width:1;" d="m 30,5 0,30 10,0 0,-30 -10,0 z"/>
  <path style="fill:#2BB927;stroke:#222222;stroke-width:1;opacity:0.75;" d="m 37,20 0,60 -25,-25 7,-7 7,7 0,-35 9,0 z"/>
  
</svg>
