<?xml version="1.0" encoding="UTF-8"?>
<svg xmlns="http://www.w3.org/2000/svg" version="1.1" height="100" width="100">

  <path style="fill:#cccccc;" d="m 73,27.25 c -0.75,0 -2.25,0.9 -2.25,2.25 l 0,7.5 -21.75,0 c -3,0 -4.5,2.25 -4.5,3.75 l 0,53.25 c 0,2.25 1.5,4.5 4.5,4.5 l 27,0 c 1.5,0 4.5,-2.25 4.5,-4.5 l 0,-53.25 c 0,-1.5 -3,-3.75 -4.5,-3.75 L 76,29.35 C 76,28 74.5,27.25 73,27.25 z m -23.25,13.5 24.75,0 c 1.5,0 1.5,1.5 1.5,1.5 l 0,22.5 c 0,2.25 0,2.25 -1.5,2.25 l -24.75,0 c -0.75,0 -1.5,0 -1.5,-2.25 l 0,-22.5 c 0,0 0,-1.5 1.5,-1.5 z"/>

  <path style="fill:#bbbbbb;" d="m 21,90 8,0 -2.5,-70 3.5,0 0,-3 -10,0 0,3 3.5,0 -2.5,70 z"/>
  <path style="fill:#aaaaaa;stroke:#222222;stroke-width:1;" d="m 20,5 0,30 -10,0 0,-30 10,0 z"/>
  <path style="fill:#aaaaaa;stroke:#222222;stroke-width:1;" d="m 30,5 0,30 10,0 0,-30 -10,0 z"/>
  
  <path style="fill:#FF3D3D;fill-opacity:0.6;stroke:#730000;stroke-width:2" d="M 53,44 44,53 61,71 44,88 53,97 71,80 88,97 96,88 80,71 97,52 89,44 71,61 z"/>
</svg>
