<?xml version="1.0" encoding="UTF-8"?>
<svg xmlns="http://www.w3.org/2000/svg" version="1.1" height="100" width="100">

  <g transform="rotate(-45 50 80)">
    <path d="m 50,62 a 18,18 0 0 1 18,18 l 7,0 a 25,25 0 0 0 -25,-25 z" style="fill:#2BB927;stroke:#222222;stroke-width:1"/>
    <path d="m 50,47 a 33,33 0 0 1 33,33 l 7,0 a 40,40 0 0 0 -40,-40 z" style="fill:none;stroke:#222222;stroke-width:1"/>
    <path d="m 50,32 a 48,48 0 0 1 48,48 l 7,0 a 55,55 0 0 0 -55,-55 z" style="fill:none;stroke:#222222;stroke-width:1"/>
    <path d="m 50,17 a 63,63 0 0 1 63,63 l 7,0 a 70,70 0 0 0 -70,-70 z" style="fill:none;stroke:#222222;stroke-width:1"/>
  </g>
  <ellipse cx="50" cy="80" rx="10" ry="10" style="fill:#2BB927;stroke:#222222;stroke-width:2"/>
</svg>
