<?xml version="1.0" encoding="UTF-8"?>
<svg xmlns="http://www.w3.org/2000/svg" version="1.1" height="64px" width="64px" viewBox="0 0 192 192">
  <path style="fill:#EDEDED;stroke:#545454;stroke-width:6;" d="m 42,10 108,0 a 12 12 0 0 1 12,12  l 0,148 a 12,12 0 0 1 -12,12 l -108,0 a 12,12 0 0 1 -12,-12 l 0,-148 a 12,12 0 0 1 12,-12 z"/>
  <g transform="scale(1.92)">
  <rect style="fill:#D0D0A8;stroke:#545454;stroke-width:3" width="47" height="40" x="26" y="40"/>
  <rect style="fill:#9E9E9E" width="44" height="5" x="27.5" y="73.5"/>
  <rect style="fill:#03A9F4" width="5" height="5" x="30" y="45"/>
  <rect style="fill:#545454" width="5" height="5" x="30" y="51.5"/>
  <rect style="fill:#009688" width="5" height="5" x="30" y="58"/>
  </g>
</svg>
