<?xml version="1.0" encoding="UTF-8"?>
<svg xmlns="http://www.w3.org/2000/svg" version="1.1" height="64px" width="64px" viewBox="0 0 192 192">
  <path style="fill:#94776D;stroke:none" d="m 22,30 148,0 a 12 12 0 0 1 12,12  l 0,108 a 12,12 0 0 1 -12,12 l -148,0 a 12,12 0 0 1 -12,-12 l 0,-108 a 12,12 0 0 1 12,-12 z"/>
  <g transform="translate(46,46)">
  <defs>
  <radialGradient id="grad1" cx="50%" cy="-20%" r="70%" fx="25%" fy="25%">
  <stop offset="0%" style="stop-color:rgb(255,255,255);stop-opacity:1" />
  <stop offset="100%" style="stop-color:rgb(200,210,220);stop-opacity:1" />
  </radialGradient>
  </defs>
  <path style="fill:url(#grad1);stroke:#000;stroke-width:2" d="M 10,30 Q 14,25 30,29 C 33,32 44,30 38,17 C 36,11 28,8 28,7 Q 13,3 4,14 Q 1,25 4,39 A 46,46 0 1 0 89,25  C 94,20 94,12 90,6 Q 87,4 83,3 Q 71,1 58,4 A 46,46 0 0 0 28,7"/>
  <path style="fill:none;stroke:#000;stroke-width:2" d="M 69,10 Q 77,16 81,25 Q 85,30 89,25"/>
  <path style="fill:none;stroke:#000;stroke-width:3;stroke-linecap:round;" d="M 41,70 A 11,11 0 0 0 61,65 A 11,11 0 0 0  81,60"/>
  <g style="fill:#000;fill-rule:evenodd;stroke:none;">
  <path d="m 75,27 a 8,8 0 1 0 0.1,0 z m -48,5 a 16,16 0 1 0 0.1,0 z m 3,9 a 7,7 1 1 0 0.1,0 z" />
  <path d="M 62,64 69,52 Q 70,49 67,48 L 47,54 Q 43,56 46,59 L 59,65 Q 61,68 63,61 z"/>
  </g>
  </g>
</svg>
