<?xml version="1.0" encoding="UTF-8"?>
<svg xmlns="http://www.w3.org/2000/svg" version="1.1" height="64px" width="64px" viewBox="0 0 192 192">
  <path style="fill:#EDEDED;stroke:#919191;stroke-width:6;" d="m 32,20 128,0 a 12 12 0 0 1 12,12  l 0,128 a 12,12 0 0 1 -12,12 l -128,0 a 12,12 0 0 1 -12,-12 l 0,-128 a 12,12 0 0 1 12,-12 z"/>
  <circle style="fill:#FF9800" cx="54" cy="136" r="12"/>
  <path style="stroke:#FF9800;stroke-width:10;fill:none;" d="m 44,86 a 60,60 0 0 1 60,60 m -60,-96 a 96,96 0 0 1 96,96"/>
</svg>
