<?xml version="1.0" encoding="UTF-8"?>
<svg xmlns="http://www.w3.org/2000/svg" version="1.1" height="64px" width="64px" viewBox="0 0 192 192">
  <path style="fill:#94776D;stroke:none" d="m 22,30 148,0 a 12 12 0 0 1 12,12  l 0,108 a 12,12 0 0 1 -12,12 l -148,0 a 12,12 0 0 1 -12,-12 l 0,-108 a 12,12 0 0 1 12,-12 z"/>
  <path style="fill:#3E2723;" d="m 88,30 0,32 -4,0 0,24 24,0 0,-24 -4,0 0,-32 -6,0 0,32,-4,0 0,-32 z m 0,44 16,0 0,6 -16,0 z"/>
  <path style="fill:#3E2723;" d="m 56,102 0,40 6,0 0,-40 z m 3,-6 a 3,3 0 1 1 0.01,0 z m 16,6 -6,0 0,40 6,0 0,-24 a 11,11 0 1 1 22,0 l 0,24 6,0 0,-24 a 16,16 0 0 0 -28,-12
  m 34,-4 0,40 6,0 0,-40 z m 3,-6 a 3,3 0 1 1 0.01,0 z  m 15,-20 0,20 -6,0 0,6 6,0 0,40 6,0 0,-40 6,0 0,-6 -6,0 0,-20 z"/>
</svg>
