<?xml version="1.0" encoding="UTF-8"?>
<svg xmlns="http://www.w3.org/2000/svg" version="1.1" height="64px" width="64px" viewBox="0 0 192 192">
  <path style="fill:#EDEDED;stroke:#919191;stroke-width:6;" d="m 22,30 148,0 a 12 12 0 0 1 12,12  l 0,108 a 12,12 0 0 1 -12,12 l -148,0 a 12,12 0 0 1 -12,-12 l 0,-108 a 12,12 0 0 1 12,-12 z"/>
  <path style="fill:none;stroke:#919191;stroke-width:6;" d="m 32,62 128,0 m -128,16 128,0 m -128,16 128,0 m -128,16 128,0 m -128,16 128,0" />
  <path style="fill:#3F51B5;" d="m 112,96 32,0 0,48 -16,-16 -16,16 z"/>
  <circle style="fill:#A8965D;" cx="128" cy="76" r="28"/>
</svg>
