<?xml version="1.0" encoding="UTF-8"?>
<svg xmlns="http://www.w3.org/2000/svg" version="1.1" height="64px" width="64px" viewBox="0 0 192 192">
  <path style="fill:#EDEDED;stroke:#545454;stroke-width:6;" d="m 42,10 108,0 a 12 12 0 0 1 12,12  l 0,148 a 12,12 0 0 1 -12,12 l -108,0 a 12,12 0 0 1 -12,-12 l 0,-148 a 12,12 0 0 1 12,-12 z"/>
  <g transform="scale(1.6) translate(10,10)">
  <path style="fill:#9C642E;" d="M 35,86 C 38,81 39,72 38,67 Q 36,61 37,52 C 24,61 13,35 22,25 Q 22,24 20,22 C 16,24 10,16 22,16 Q 22,17 26,13 C 35,12 41,10 34,32 C 31,40 34,42 36,33 Q 39,26 46,23 Q 47,22 50,16 C  50,9 69,7 70,18 Q 73,21 76,26 Q78,27 79,32 Q 80,36 82,40 Q 84,48 82,57 Q 81,58 80,55 Q 82,50 80,44 C 80,38 78,37 78,44 Q 77,49 78,63 Q 80,66 80,68 Q 83,70 80,72 Q 78,89 80,83 L 80,87 L 75,87 Q 76,82 77,79 Q 78,76 77,71 Q 77,69 77,66 Q 76,61 75,59 Q 74,58 72,52 Q 71,49 70,50 Q 66,57 67,67 Q 68,68 66,70 Q 64,71 61,76 Q 60,77 62,79 L 64,80 Q 65,83 63,87 L 59,82 L 57,86 L 50,86 L 52,83 Q 55,82 56,80 Q 57,78 55,76 Q 53,74 49,71 Q 46,67 48,64 Q 50,62 50,57 Q 48,53 44,57 Q 43,58 44,59 Q 45,61 43,64 Q 41,65 42,70 Q 42,73 40,75 C 40,75 40,80 40,83 L 40,86 z M 59,75 C 63,71 64,69 61,56 Q 59,50 57,55 Q 58,59 56,62 Q 57,63 55,65 L 53,68 Q 51,69 53,70 Q 53,73 57,75 Q 58,76 59,75 z"/>
  </g>
</svg>
