<?xml version="1.0" encoding="UTF-8"?>
<svg xmlns="http://www.w3.org/2000/svg" version="1.1" height="32px" width="32px" viewBox="0 0 100 100">
  <path style="fill:#D2D2C1;" d="m 49,22 45,0 q 4,0 4,4 l 0,67 q 0,4 -4,4 l -45,0 q -4,0 -4,-4 l 0,-67 q 0,-4 4,-4 z"/>
  <path style="fill:#E3E3BF;" d="m 6,1 45,0 q 4,0 4,4 l 0,67 q 0,4 -4,4 l -45,0 q -4,0 -4,-4 l 0,-67 q 0,-4 4,-4 z"/>
  <path style="fill:#FF3D3D;fill-opacity:0.7;" d="M 49,43 40,52 58,70 40,88 49,97 67,79 84,97 93,88 76,70 94,51 85,43 68,61 z"/>
</svg>
