<?xml version="1.0" encoding="UTF-8"?>
<svg xmlns="http://www.w3.org/2000/svg" version="1.1" height="256px" width="256px" viewBox="0 0 100 100">
  <path style="fill:#444;stroke:#333;stroke-width:1.5" d="m 18,42 c 4,4 16,20 16,20 0,0 -2,8 0,13 C 33,75 11,52 11,52 11,52 -6,36 5,19 c 6,10 7,17 13,23 z"/>
  <path style="fill:#555;stroke:#444;stroke-width:2;stroke-linejoin:round" d="m 4,23 c 1,-8 11,-10 16,-9 5,1 12,2 23,11 L 71,48 34,62 13,42 C 7.5,35 3,30 4,23 z"/>
  <path style="fill:#444;stroke:#222;" d="M 72,48 34,62 c 0,0 -3,10 1,14 L 71,61 c 4,-5 1,-13 1,-13 z"/>
  <path style="fill:#C5C3BA;stroke:#333" d="m 70,53 -32,12 0,8 20,22 34,-17 0,-8 z"/>
  <path style="fill:#757368" d="M 38,65 58,86 58,94 38,73 z"/>
  <path style="fill:none;stroke:#fff" d="M 58,86 39,66"/>
  <path style="fill:#444" d="M 59,86 91,71 91,77 59,93 z"/>
  <path style="fill:#eee" d="m 87,74 2,2 -28,14 -2,-3 z"/>
  <path style="fill:#555;stroke:#555" d="m 66,64 8,-3 5,4 -8,4 z m -16,7 9,-4 5,5 -9,4 z"/>
  <path style="fill:#eee" d="m 25.8,28.6 8.8,2.7 -3.6,1.7 9.8,10.3 2.3,-7 -2.1,-2.3 -1.4,0.7 -2.8,-3.1 4.4,-2 2.5,2.7 -1.5,0.9 2.8,2.8 -2.9,8.6 3.4,3.8 c 0,0 2,-0.3 3.4,1.3 1,1.1 0.8,2.1 -0.3,2.9 -1.4,0.6 -2.9,0.9 -4.4,-0.7 -1.1,-1.5 0.1,-2.5 0.1,-2.5 L 42,47 32.5,49.7 29.9,46.8 c 0,0 -2.4,0.1 -4.1,-1.7 -0.9,-1.3 -0.3,-3.2 1.4,-3.7 2.1,-0.8 3.3,0.1 4.3,1.1 1.8,1.8 -0.2,3.8 -0.2,3.8 l 1.7,1.7 7.7,-2.2 -11,-12 -3.6,1.8 z"/>
</svg>
