<?xml version="1.0" encoding="UTF-8"?>
<svg xmlns="http://www.w3.org/2000/svg" version="1.1" height="256px" width="256px" viewBox="0 0 100 100">
  <path style="fill:#333333;stroke:#333333;stroke-width:3" d="M 4.2,61 18,22 c 0,0 0,-2 5,-2 7,0 47,0 52,0 6,0 6,2 6,2 l 15,41 c 0,0 1,2 1,9 0,10 0,15 0,20 0,5 -4,5 -4,5 L 8.2,97 c 0,0 -6,1 -6,-7 0,-9 0,-14 0,-20 0,-6 2,-9 2,-9 z"/>
  <path style="fill:#777777;stroke:#777777;stroke-width:2.5" d="m 5.2,70 0,21 c 0,4 1.2,4 3.8,4 l 80,0 c 3,0 5,0 5,-5 l 0,-20"/>
  <path style="fill:#999999;stroke:#dddddd;stroke-width:2.5" d="M 6.2,63 20,24 c 0,0 1,-2 4,-2 5,0 47,0 51,0 3,0 4,2 4,2 0,0 13,35 14,39 1,4 3,8 -5,8 -6,0 -78,0 -78,0 -6.8,0 -4.8,-4 -3.8,-8 z"/>
  <path style="fill:#eeeeee;" d="m 50,31 c 16,0 31,6 33,16 2,9 -9,20 -32,20 C 25,67 14,55 16,46 18,36 34,31 50,31 z"/>
  <path style="fill:#bbbbbb;" d="M 50,31 C 66,31 81,37 83,47 85,56 69,64 51,64 30,64 14,55 16,46 18,36 34,31 50,31 z"/>
  <path style="fill:#cccccc;" d="m 87,62 c 4,0 4,5 0,5 -4,0 -4,-5 0,-5 z m -75,0 c 4,0 4,5 0,5 -3.8,0 -3.8,-5 0,-5 z"/>
  <path style="fill:#666666;stroke:#555555" d="m 13,77 74,0 0,14 -74,0 z"/>
  <path style="fill:none;stroke:#999999;stroke-width:1.5" d="m 85,77 0,14 m -4,-14 0,14 m -4,-14 0,14 m -4,-14 0,14 m -4,-14 0,14 m -4,-14 0,14"/>
  <path style="fill:#222222" d="m 50,32 4,5 -3,0 0,12 7,-3 0,-2 -2,0 0,-5 6,0 0,5 -2,0 0,3 -9,4 0,6 c 0,0 2,1 2,3 0,2 -1,3 -3,3 -2,0 -3,-1 -3,-3 0,-2 2,-3 2,-3 l 0,-2 -9,-5 0,-4 c 0,0 -2,-1 -2,-3 0,-1 1,-3 3,-3 2,0 3,2 3,3 0,2 -2,3 -2,3 l 0,3 7,4 0,-16 -3,0 z"/>
</svg>
