/* XPM */
static char *seamonkey16_xpm[] = {
"16 16 216 2",
"  	c None",
"01	c #FEFEFF",
"02	c #D2D2EE",
"03	c #9A9AD8",
"04	c #6C6CC6",
"05	c #6465C3",
"06	c #8788D0",
"07	c #C8C8E9",
"08	c #D6D6EF",
"09	c #8E8DD5",
"0A	c #8685D3",
"0B	c #7979CE",
"0C	c #5455BF",
"0D	c #03039E",
"0E	c #000096",
"0F	c #2E2CAA",
"10	c #7F7CCB",
"11	c #D5D5EF",
"12	c #C7C7EA",
"13	c #8888D4",
"14	c #A2A1DE",
"15	c #8D8DD6",
"16	c #6E6FCA",
"17	c #5556C0",
"18	c #1717A5",
"19	c #7E7FCE",
"1A	c #C7DFFB",
"1B	c #BCDFFD",
"1C	c #9EA4DD",
"1D	c #A9A8DC",
"1E	c #D9D9F1",
"1F	c #8B8BD5",
"20	c #A9A8E1",
"21	c #8A89D4",
"22	c #6C6CC9",
"23	c #5253BF",
"24	c #2929AD",
"25	c #5B5ABF",
"26	c #CEECFF",
"27	c #A9D8FF",
"28	c #A5DAFF",
"29	c #9C9FDA",
"2A	c #09089C",
"2B	c #C7C7E9",
"2C	c #9393D7",
"2D	c #A2A1DF",
"2E	c #8A8AD5",
"2F	c #6C6DCA",
"30	c #5152BE",
"31	c #3536B2",
"32	c #1716A5",
"33	c #B3BCE8",
"34	c #AADBFF",
"35	c #74BFFF",
"36	c #7CCAFF",
"37	c #C0CEF0",
"38	c #1110A1",
"39	c #3737B1",
"3A	c #D7D6EF",
"3B	c #8786D3",
"3C	c #8B8AD4",
"3D	c #696AC8",
"3E	c #4E50BD",
"3F	c #3536B3",
"40	c #1213A4",
"41	c #3431AC",
"42	c #BFDFFC",
"43	c #77BEFF",
"44	c #57B1FF",
"45	c #59BBFF",
"46	c #BBECFF",
"47	c #6765C3",
"48	c #02049F",
"49	c #B9B9E4",
"4A	c #A2A3DC",
"4B	c #8081D3",
"4C	c #7C7DD2",
"4D	c #6162C5",
"4E	c #4242B6",
"4F	c #1E1FA7",
"50	c #7270C6",
"51	c #9DD6FF",
"52	c #47A5FF",
"53	c #3FA5FF",
"54	c #5DBCFF",
"55	c #A7E4FF",
"56	c #8B8ED4",
"57	c #1618A8",
"58	c #7C7DCF",
"59	c #9396E1",
"5A	c #AEB1F8",
"5B	c #B8B8FD",
"5C	c #AAAAF6",
"5D	c #8D8EE6",
"5E	c #7173DA",
"5F	c #6967D7",
"60	c #C0CDF3",
"61	c #51AEFF",
"62	c #309AFF",
"63	c #46ABFF",
"64	c #6BC3FF",
"65	c #A3E0FF",
"66	c #BDC2F4",
"67	c #8D8FF2",
"68	c #9292E4",
"69	c #8686E2",
"6A	c #6364FC",
"6B	c #7475FF",
"6C	c #6364FF",
"6D	c #6768FF",
"6E	c #8183FF",
"6F	c #C8C4FF",
"70	c #95CFFF",
"71	c #349CFF",
"72	c #44A6FF",
"73	c #53B5FF",
"74	c #79CBFF",
"75	c #BBE8FF",
"76	c #9996FF",
"77	c #6E6EFF",
"78	c #8383E5",
"79	c #9494E4",
"7A	c #0C0EF9",
"7B	c #1719FF",
"7C	c #1012FF",
"7D	c #0507FF",
"7E	c #3633FF",
"7F	c #BCD4FF",
"80	c #4FABFF",
"81	c #4DAAFF",
"82	c #4CB1FF",
"83	c #66C1FF",
"84	c #97DCFF",
"85	c #CAD6FF",
"86	c #5352FF",
"87	c #4C4DFC",
"88	c #8484E2",
"89	c #D6D6EE",
"8A	c #1113F0",
"8B	c #1113FF",
"8C	c #0E10FF",
"8D	c #1616FF",
"8E	c #AEB5FF",
"8F	c #6CBBFF",
"90	c #4EADFF",
"91	c #57B9FF",
"92	c #6FC8FF",
"93	c #98DDFF",
"94	c #CAE0FF",
"95	c #7471FF",
"96	c #5152FF",
"97	c #5656F6",
"98	c #B7B7E7",
"99	c #FFFFFD",
"9A	c #5253E3",
"9B	c #0003FE",
"9C	c #1515FF",
"9D	c #9CA1FF",
"9E	c #81CBFF",
"9F	c #65C0FF",
"A0	c #8FDAFF",
"A1	c #C1E5FF",
"A2	c #B8BEFF",
"A3	c #6766FF",
"A4	c #5051FF",
"A5	c #6160FF",
"A6	c #6B6CE7",
"A7	c #FAFAFA",
"A8	c #D2D2F0",
"A9	c #3734EC",
"AA	c #9DA7FF",
"AB	c #A5DDFF",
"AC	c #ACD8FF",
"AD	c #CBE0FF",
"AE	c #BDC6FF",
"AF	c #9B9BFF",
"B0	c #6865FF",
"B1	c #4747FF",
"B2	c #5253FF",
"B3	c #6464FF",
"B4	c #5C5CF0",
"B5	c #C5C5EC",
"B6	c #FEFFFF",
"B7	c #CAE1FB",
"B8	c #ACD9FE",
"B9	c #97A1FF",
"BA	c #4945FF",
"BB	c #3A38FF",
"BC	c #3433FF",
"BD	c #3536FF",
"BE	c #4546FF",
"BF	c #5859FF",
"C0	c #6060FF",
"C1	c #5C5CEE",
"C2	c #B0B0E9",
"C3	c #F1F9FF",
"C4	c #C2E1FF",
"C5	c #CDE9FF",
"C6	c #EAEBF8",
"C7	c #514FE5",
"C8	c #1718F3",
"C9	c #2728FB",
"CA	c #3738FD",
"CB	c #4546FD",
"CC	c #4F50FC",
"CD	c #5656F5",
"CE	c #6B6BE6",
"CF	c #C4C5EB",
"D0	c #F9FCFF",
"D1	c #FDFEFF",
"D2	c #FFFFFC",
"D3	c #C4C4EA",
"D4	c #8282E2",
"D5	c #6E6FE3",
"D6	c #7272E3",
"D7	c #BABAE7",
"          02030405060701        ",
"      08090A0B0C0D0E0F1011      ",
"    12131415161718191A1B1C1D    ",
"  1E1F202122232425262728292A2B  ",
"  2C2D2E2F30313233343536373839  ",
"3A3B3C3D3E3F40414243444546474849",
"4A4B4C4D4E4F0E505152535455565758",
"595A5B5C5D5E5F606162636465666768",
"696A6B6C6D6E6F707172737475767778",
"797A7B7C7D7E7F808182838485868788",
"898A8B8C8D8E8F909192939495969798",
"999A9B9C9D9E9FA055A1A2A3A4A5A6A7",
"  A8A9AAABACADAEAFB0B1B2B3B4B5  ",
"  B6B7B8B9BABBBCBDBEBFC0C1C2    ",
"C3C4C5C6C7C8C9CACBCCCDCECF      ",
"D0D1    D2D3D4D5D669D7A7        "
};
