/* XPM */
static char * Animation2_xpm[] = {
"16 15 19 1",
".	c #000000",
"#	c None",
"a	c #3E3E3E",
"b	c #404040",
"c	c #6B635A",
"d	c #756251",
"e	c #786655",
"f	c #7D6B5B",
"g	c #806E5E",
"h	c #808080",
"i	c #847362",
"j	c #8A7B6A",
"k	c #8F8070",
"l	c #928373",
"m	c #968878",
"n	c #9A8C7C",
"o	c #9D9080",
"p	c #A19585",
"q	c #A59A8A",
"##.#b........b#.",
"##...dddeffii...",
"##.#bddeffiijb#.",
"##...deffiijj...",
"##.#beffiijjkb#.",
"##...fgiijjkl...",
"##.#bgiijjklmb#.",
"##..............",
"##.#bijjllmnob#.",
"##...jjllmnop...",
"##.#bjllmnoppbh.",
"##...llmnopp...b",
"##.#blmnopqqc.b#",
"##...nnopqqc..h#",
"##.#b.......a###"};
