/* XPM */
static char * ballorange16_xpm[] = {
"16 16 77 1",
" 	c None",
".	c #060302",
"+	c #663615",
"@	c #90400C",
"#	c #EA6307",
"$	c #E96205",
"%	c #E75E02",
"&	c #883602",
"*	c #512304",
"=	c #522C11",
"-	c #D46414",
";	c #EE6A0E",
">	c #F37B22",
",	c #F27A20",
"'	c #EE6D12",
")	c #EB6509",
"!	c #C65103",
"~	c #441A02",
"{	c #F4862F",
"]	c #FCD2A8",
"^	c #FDE6CF",
"/	c #FBC691",
"(	c #F79844",
"_	c #F68931",
":	c #F47E24",
"<	c #F17014",
"[	c #8A3A05",
"}	c #ED690C",
"|	c #F89C52",
"1	c #FEECDA",
"2	c #FEFAF5",
"3	c #FEF3E8",
"4	c #FAAF63",
"5	c #F79C46",
"6	c #F58830",
"7	c #F27519",
"8	c #F58C36",
"9	c #FCC68F",
"0	c #FEF0E2",
"a	c #FDDBB8",
"b	c #FCB872",
"c	c #F9A95A",
"d	c #F89E49",
"e	c #F68831",
"f	c #E86004",
"g	c #EF6C0F",
"h	c #F89A47",
"i	c #FDDCBC",
"j	c #FCC48B",
"k	c #FBB36A",
"l	c #F8A24E",
"m	c #F6923C",
"n	c #F06E11",
"o	c #FBC187",
"p	c #FCC893",
"q	c #F6913A",
"r	c #F2771C",
"s	c #F8A351",
"t	c #FAAE62",
"u	c #FBB166",
"v	c #F48027",
"w	c #F68E36",
"x	c #FCCE9F",
"y	c #FCC791",
"z	c #ED690D",
"A	c #F2781C",
"B	c #FAB471",
"C	c #FAB577",
"D	c #CF5B0C",
"E	c #5E2D0D",
"F	c #C85506",
"G	c #EF7217",
"H	c #F1751A",
"I	c #D36212",
"J	c #542E17",
"K	c #8D3D08",
"L	c #643212",
"                ",
"      ....      ",
"    +@##$%&*    ",
"   =-;>>,')!~   ",
"  *!{]^/(_:<!*  ",
"  [}|1234567)&  ",
" .%}890abcde;f. ",
" .$gh9ijbklmn#. ",
" .$gmopbbbdqr#. ",
" .%}esbtkkuhr#. ",
"  &)vwdlsx3y}&  ",
"  *!zAemqB^CDE  ",
"   ~F}}gGGHIJ   ",
"    *&%$%%KL    ",
"      ....      ",
"                "};
