/* XPM */
static char * c2_xpm[] = {
"16 15 25 1",
".	c #000000",
"#	c #0000C6",
"a	c #1C1FCC",
"b	c #202020",
"c	c #2121CD",
"d	c #2F34D0",
"e	c #3336D1",
"f	c #3838D2",
"g	c #404040",
"h	c #606060",
"i	c #6671DA",
"j	c #7878E0",
"k	c #7D8AE0",
"l	c #808080",
"m	c #9CADE6",
"n	c #A0A0A0",
"o	c #B0C7CA",
"p	c #B8B8EF",
"q	c #C0C0C0",
"r	c #CEE5E8",
"s	c #D4EBF2",
"t	c #D8EFF2",
"u	c #F6F6FD",
"v	c None",
"w	c #FFFFFF",
"hhhhhhhhhhhhhhhg",
"htttttttttttttt.",
"htgttttttttttgt.",
"hwwwwjc#cjwwwww.",
"hwgwp#####pwwgw.",
"httte#iti#dtttt.",
"htgt##sttttttgt.",
"hwww##uwwwwwwww.",
"hwgwf#jwj#ewwgw.",
"htttm#####mtttt.",
"htgttka#aitthhhb",
"hwwwwwwwwwwwhwqg",
"hwgwwwwwwwwnlqgn",
"httttttttrohqglv",
"g..........bgnvv"};
