/* XPM */
static char * Card_xpm[] = {
"16 15 21 1",
" 	c None",
"!	c #004100",
"#	c #618261",
"$	c #008200",
"%	c #006100",
"&	c #000000",
"/	c #73A673",
"(	c #399239",
")	c #A6B6A6",
"=	c #419641",
"+	c #414141",
"*	c #319231",
"-	c #4D9A4D",
"[	c #FFFFFF",
"]	c #002000",
"{	c #C2C2C2",
"}	c #65A265",
"<	c #D7D7D7",
">	c #828282",
",	c #616161",
".	c #C6CA79",
"                ",
"     !#         ",
"    !$%!#       ",
"   !$&//%!#     ",
"  !$&&&()=%!#   ",
" !$&&&&+*)-$[!# ",
"  ]$&&+${&}[<>! ",
"   !{+${&&[<&<, ",
"  !.,${&&[<&<,  ",
" !.,.,$$[<<<,   ",
"  !.,.{[<&<,    ",
"   !.][<&<,     ",
"    ! [<<,      ",
"     [<>,       ",
"      >         "};
