/* XPM */
static char * chat16_xpm[] = {
"16 16 5 1",
" 	c #FFFFFFFFFFFF",
".	c #FFFF40404040",
"X	c #000000000000",
"o	c #FFFFA5A50000",
"O	c #EEEEEEEE0000",
"  .XXXX  .X     ",
" .XoOOoX .X     ",
".XoO   O .X XX  ",
".Xo      .XX .X ",
".Xo      .Xo .X ",
".Xo      .Xo .X ",
".XoO   O .X  OX ",
" .XOOOoX .X X X ",
"  .XXXX     X   ",
"      XXX  XXXo ",
"     X  .X OX.o ",
"        .X  X.o ",
"     oXXXX  X.o ",
"    .X  .X  X.o ",
"    .X  .X  X.o ",
"     oXXXoX XX.o"};
