/* XPM */
static char *contact16_xpm[] = {
"16 16 150 2",
"00	c None",
"01	c #6C6C12",
"02	c #848359",
"03	c #86855A",
"04	c #717120",
"05	c #D5D5D2",
"06	c #FDFBF2",
"07	c #FBF6E4",
"08	c #D7D1B9",
"09	c #72701E",
"0A	c #4D4D00",
"0B	c #595900",
"0C	c #8B895E",
"0D	c #E2D0A9",
"0E	c #DCCBA9",
"0F	c #DCC9A5",
"10	c #DEC694",
"11	c #A59F7B",
"12	c #666600",
"13	c #0D0D00",
"14	c #000000",
"15	c #3E3D39",
"16	c #CE9B48",
"17	c #DD9E39",
"18	c #DC9C39",
"19	c #C98D31",
"1A	c #D0C39D",
"1B	c #706F07",
"1C	c #1A1A00",
"1D	c #875D1D",
"1E	c #DD9931",
"1F	c #DD9831",
"20	c #BF8429",
"21	c #D4C193",
"22	c #646311",
"23	c #231405",
"24	c #B46B1A",
"25	c #985D18",
"26	c #A56218",
"27	c #8F5312",
"28	c #54380F",
"29	c #D99229",
"2A	c #D89129",
"2B	c #9D6A1D",
"2C	c #C7BC98",
"2D	c #5E5D0C",
"2E	c #673B0D",
"2F	c #D07A1D",
"30	c #D27C1E",
"31	c #CE781C",
"32	c #B76816",
"33	c #3C2D0B",
"34	c #A06B1A",
"35	c #B0721B",
"36	c #373D11",
"37	c #AFA986",
"38	c #302F06",
"39	c #72450B",
"3A	c #C46E16",
"3B	c #9D5913",
"3C	c #A45C13",
"3D	c #B66513",
"3E	c #344614",
"3F	c #236623",
"40	c #1C531C",
"41	c #216321",
"42	c #445A34",
"43	c #256C26",
"44	c #344B11",
"45	c #504303",
"46	c #914E0E",
"47	c #743F0B",
"48	c #583008",
"49	c #84470C",
"4A	c #216521",
"4B	c #339633",
"4C	c #308D30",
"4D	c #2D882D",
"4E	c #2A822A",
"4F	c #297F29",
"50	c #277629",
"51	c #444905",
"52	c #444C48",
"53	c #687E95",
"54	c #494847",
"55	c #2B1908",
"56	c #2D1F12",
"57	c #444A51",
"58	c #425466",
"59	c #214C2B",
"5A	c #2F8E2F",
"5B	c #308F30",
"5C	c #2C872C",
"5D	c #287E28",
"5E	c #257825",
"5F	c #32490E",
"60	c #5B6766",
"61	c #738EA9",
"62	c #738FAB",
"63	c #7089A2",
"64	c #DEDEDF",
"65	c #C3CAD1",
"66	c #637C97",
"67	c #617D99",
"68	c #56718C",
"69	c #1F402C",
"6A	c #2B832C",
"6B	c #28772C",
"6C	c #1C551D",
"6D	c #214A18",
"6E	c #505324",
"6F	c #64809B",
"70	c #66829E",
"71	c #6985A1",
"72	c #6985A0",
"73	c #BBC4CC",
"74	c #9FB1C2",
"75	c #708AA3",
"76	c #9BACBD",
"77	c #536F8C",
"78	c #3C536B",
"79	c #333300",
"7A	c #40492C",
"7B	c #577490",
"7C	c #5C7894",
"7D	c #5E7B97",
"7E	c #5F7B98",
"7F	c #94A2B0",
"80	c #7189A2",
"81	c #6F87A0",
"82	c #6C849C",
"83	c #4E6A87",
"84	c #425E7B",
"85	c #444607",
"86	c #3F566D",
"87	c #516D8A",
"88	c #54708D",
"89	c #55718E",
"8A	c #677D94",
"8B	c #516E8B",
"8C	c #496582",
"8D	c #405C79",
"8E	c #223242",
"8F	c #4F4F04",
"90	c #373E1E",
"91	c #3E472A",
"92	c #485134",
"93	c #3F482B",
"94	c #3B4426",
"  	c None",
"00000000000000000102030400000000",
"00000000000000010506070809000000",
"00000000000A0B0C0D0E0F1011000000",
"0000001213141415161718191A1B0000",
"0000001C141414141D1E1F2021220000",
"000000232425262728292A2B2C2D0000",
"0000002E2F3031323334353637380000",
"000000393A3B3C3D3E3F404142434400",
"00000045464748494A4B4C4D4E4F5051",
"001252535455565758595A5B5C5D5E5F",
"12606162636465666768696A6B6C6D0B",
"6E6F707172737475767778790A120000",
"7A7B7C7D7E7F80818283840A00000000",
"85868788898A8B838C8D8E1200000000",
"000B8F9091929394  0A120000000000",
"00000000000000000000000000000000"
};
