/* XPM */
static char * d2_xpm[] = {
"20 20 5 1",
" 	c #FFFFFFFFFFFF",
".	c #FFFF00000000",
"X	c #BEFBBEFBBEFB",
"o	c #000000000000",
"O	c #79E77DF779E7",
"      ..            ",
"      ..    .       ",
"       .   ..       ",
"       .   .        ",
" XoX      .         ",
"   OoX              ",
"    OoOO       Xooo ",
"     XoooO    Xo  Xo",
"       Xooo  Xo    o",
"         Ooo Oo  OoX",
"ooooooooooo oooooX  ",
"XXooooooooooooo     ",
"    XXXXXXXX   oX   ",
"              o Oo  ",
"    .  .     Xo   o ",
"   .   .     Xo   o ",
"  ..   .      Xooo  ",
"  .    ..           ",
"       ..           ",
"                    "};
