/* XPM */
static char default_xpm[] = {
"16 15 32 1",
" 	c None",
"!	c #7D7D65",
"#	c #9E9E92",
"$	c #654D18",
"%	c #92866D",
"&	c #9A7124",
"/	c #AE9A71",
"(	c #BEBEA6",
")	c #7D6941",
"=	c #D7AE79",
"+	c #B28E59",
"*	c #695120",
"-	c #CA9E5D",
"[	c #FFFFCA",
"]	c #FFFFE7",
"{	c #AA966D",
"}	c #FFCE9A",
"<	c #CAB686",
">	c #BA9661",
",	c #AAA296",
".	c #8A6D39",
"|	c #9E7D49",
"@	c #79795D",
"~	c #826531",
"'	c #DFDFC6",
"?	c #797559",
"0	c #756D49",
"1	c #9E9E86",
"2	c #71653D",
"3	c #6D5D31",
"4	c #716941",
"5	c #8E7951",
"   !#  $%  %    "
"&/ !(!)=+$%+*%  "
"$-&/[](!{=+==+* "
")=}-&<[](!{===* "
"%+}}}-&<[](!{=>*"
",.}}}}}-&<[](!|)"
" $}}}}}}}-&<]@~%"
" )=}}}}}}}}&'?* "
" %+}}}}}}}}&(0) "
" ,.}}}}}}}}&12% "
"  $+}}}}}}}&!3  "
"   %$+}}}}}&4)  "
"     %$+}}}&3%  "
"       %$+}&*   "
"         %$$5   "
};
