/* XPM */
static char * grubconfig_xpm[] = {
"16 16 9 1",
" 	c none",
".	c #B6DAB6DA0000",
"X	c #492449240000",
"o	c #8E3892480000",
"O	c #FFFFFFFF0000",
"+	c #D75CDB6C0000",
"@	c #00000000B6DA",
"#	c #0000000069A6",
"$	c #00000000D75C",
"       .X       ",
"     XoOXoO     ",
"   O. oOXoO.Xo  ",
"  .oOXXOXoO XoO ",
"  . oOXo  .XoO  ",
" XXXXo      XXX ",
" OOOOO      ooo ",
".ooooo       OOO",
".+++++..     XXX",
"++++++++.    ooo",
".+@#++@#.    OOO",
".+$#++$#+.   XXX",
" .+++++++.  ooo ",
" .+++++++.  OOO ",
"  .++++..    .  ",
"   ....      .  "};
