/* XPM */
static char *gz[] = {
/* width height num_colors chars_per_pixel */
"    16    15       10            1",
/* colors */
". c None",
"# c #616161",
"a c #414141",
"b c #ffffff",
"c c #000000",
"d c #202020",
"e c #c2c2c2",
"f c #a2a2a2",
"g c #828282",
"h c #dfdfdf",
/* pixels */
"...###a...###a..",
"...#ggc...#ggc..",
"...#ggc...#ggc..",
"..##ggca.##ggca.",
"..#ggggc.#ggggc.",
"...#ggc...#ggc..",
"....#c.....#c...",
".#############a.",
".#bbbbbbbbbbbbc.",
"..#bbeeeebbbbc..",
"...#hbbbbbbbhc..",
"...#ggggggbg#c..",
"..#bbbbbbbfgea#.",
".#bebbbbhe#eagf.",
".accccccccdaf..."
};
