/* XPM */
/* Drawn for the K Desktop Environment */
/* See http://www.kde.org */
static char*kiconedit[]={
"16 16 20 1",
"d c #ff8000",
"n c #008000",
"p c #0000c0",
". c None",
"k c #c0ffc0",
"r c #000080",
"m c #00ff00",
"c c #ffdca8",
"g c #ffffc0",
"j c #808000",
"l c #00c000",
"# c #000000",
"b c #ffa858",
"i c #ffff00",
"h c #c0c000",
"q c #0000ff",
"e c #ffc0c0",
"a c #c05800",
"f c #ff0000",
"o c #c0c0ff",
"............###.",
"...........#abb#",
"..........#cbab#",
".........#cbdd#.",
"######..#cbdd#..",
"#eeff#..#add#...",
"#eeff#######....",
"#ccdbdd#........",
"#dddbdd###......",
"#gghihhjj#......",
"#hhhihhjj###....",
"#kklmllnnnn#....",
"#lllmllnnnn#....",
"#oopqpprprr#....",
"#oopqpprprr#....",
"############...."};
