/* XPM */
static char * mail_attach_xpm[] = {
"24 24 107 2",
"  	c None",
". 	c #000000",
"+ 	c #7B7B78",
"@ 	c #C7C7C3",
"# 	c #F1F0EB",
"$ 	c #BFBFBC",
"% 	c #5F5E5E",
"& 	c #E3E3DF",
"* 	c #F3F3EF",
"= 	c #F2F2EE",
"- 	c #F1F1EC",
"; 	c #F0EFEB",
"> 	c #D2D2CD",
", 	c #969592",
"' 	c #616060",
") 	c #B5B5B4",
"! 	c #F8F8F6",
"~ 	c #F6F6F3",
"{ 	c #F5F5F2",
"] 	c #F2F1ED",
"^ 	c #F1F0EC",
"/ 	c #F0EFEA",
"( 	c #EFEEE9",
"_ 	c #4F4F4D",
": 	c #BDBCB8",
"< 	c #A7A6A3",
"[ 	c #C6C6C4",
"} 	c #7C7C7B",
"| 	c #525251",
"1 	c #F5F4F1",
"2 	c #F4F3F0",
"3 	c #999894",
"4 	c #62625F",
"5 	c #BCBCB6",
"6 	c #EBE9E3",
"7 	c #838381",
"8 	c #D7D6D4",
"9 	c #A8A8A6",
"0 	c #7E7D7C",
"a 	c #DAD9D5",
"b 	c #EFEEE8",
"c 	c #EEEDE7",
"d 	c #4F4E4C",
"e 	c #BCBBB6",
"f 	c #EBE9E2",
"g 	c #EAE8E1",
"h 	c #F6F5F2",
"i 	c #B5B4B1",
"j 	c #9B9A97",
"k 	c #92918E",
"l 	c #EEEDE8",
"m 	c #EDECE6",
"n 	c #4E4E4C",
"o 	c #797976",
"p 	c #797874",
"q 	c #E9E8E1",
"r 	c #E8E7DF",
"s 	c #B4B3AF",
"t 	c #D0D0CD",
"u 	c #BEBDB9",
"v 	c #7A7A77",
"w 	c #979691",
"x 	c #EAE9E2",
"y 	c #959590",
"z 	c #787773",
"A 	c #B8B7B0",
"B 	c #E6E4DC",
"C 	c #A9A9A6",
"D 	c #626260",
"E 	c #ECEBE4",
"F 	c #EBEAE3",
"G 	c #E9E7E0",
"H 	c #E8E6DF",
"I 	c #E7E5DD",
"J 	c #777671",
"K 	c #93918C",
"L 	c #BEBDB8",
"M 	c #989793",
"N 	c #ECEAE4",
"O 	c #E8E6DE",
"P 	c #E6E4DB",
"Q 	c #E4E3DA",
"R 	c #75746F",
"S 	c #91908A",
"T 	c #EEECE7",
"U 	c #62615F",
"V 	c #EBEAE4",
"W 	c #E7E6DE",
"X 	c #E6E5DC",
"Y 	c #E5E4DB",
"Z 	c #E4E2DA",
"` 	c #CCCBC4",
" .	c #A3A29D",
"..	c #B6B5B2",
"+.	c #BCBCB7",
"@.	c #CDCCC6",
"#.	c #959490",
"$.	c #ECEBE5",
"%.	c #61615E",
"&.	c #E9E8E0",
"*.	c #CECDC7",
"=.	c #797875",
"-.	c #969590",
";.	c #CFCEC8",
">.	c #AEADA8",
",.	c #585754",
"'.	c #7B7A76",
"                                                ",
"            . . . .                             ",
"          .         .   .                       ",
"          .   .     .   .                       ",
"          .   .     .   .                       ",
"          .   .     .   .   . . . .             ",
"          .   .   . . . . . + @ # $ .           ",
"        . . . . . % . & * = - ; > , .           ",
"      . ' ) ! . ~ { . * ] ^ / ( _ : < .         ",
"      . [ } | . 1 2 . ] # / ( 3 4 5 6 .         ",
"      . 7 8 9 . 0 a . # / b c d e f g .         ",
"        . h 1 . i j . k l m n o p q r s .       ",
"        . t * . ^ ; . u v n w x y z A B .       ",
"        . C ] ^ . . D m E F g G H I J K .       ",
"          . # / b L M N 6 g G O I P Q R S .     ",
"          . ; b T U V x q r W X Y Z `  .. .     ",
"          . ..m +.w x q r W B @.#.. . .         ",
"            . $.%.x &.H *.y . . .               ",
"            . =.-.;.>.. . .                     ",
"            . ,.'.. .                           ",
"              . .                               ",
"                                                ",
"                                                ",
"                                                "};
