/* XPM */
static char * mini-modules_xpm[] = {
"16 16 4 1",
" 	c None s None",
".	c Black",
"X	c Yellow",
"o	c red",
"                ",
"    ......      ",
"   .XXXXXX.     ",
"   .Xooooo.     ",
"   .Xooooo.     ",
"   .Xooooo.     ",
"   .Xooooo.     ",
"    ......      ",
" ...... ......  ",
".XXXXXX.XXXXXX. ",
".Xooooo.Xooooo. ",
".Xooooo.Xooooo. ",
".Xooooo.Xooooo. ",
".Xooooo.Xooooo. ",
" ...... ......  ",
"                "};
