/* XPM */
static char *shooter_xpm[] = {
"16 16 16 1",
"0	c #000000",
"1	c #FF0000",
"2	c #00FF00",
"3	c #FFFF00",
"4	c #0000FF",
"5	c #FF00FF",
"6	c #00FFFF",
"7	c #FFFFFF",
"8	c #DBDBDB",
"9	c #B6B6B6",
" 	c None",
"B	c #6D6D6D",
"C	c #494949",
"D	c #242424",
"E	c #DB0000",
"F	c #B60000",
"                ",
"              0 ",
"  00000000000000",
" 009999999999990",
" 099999999999990",
" 099999999000000",
" 0009990000     ",
"   09990  0     ",
"   09990  0     ",
"  09999000      ",
"  099990        ",
" 099990         ",
" 099990         ",
"099990          ",
"D99990          ",
" 0000           "
};
