/* XPM */
static char *noname[] = {
/* width height ncolors chars_per_pixel */
"16 16 15 1",
/* colors */
"  c None",
". c #4342E7",
"X c #A87C6B",
"o c #E04400",
"O c #EA3700",
"+ c #4242E7",
"@ c #4343E7",
"# c #7BCA00",
"$ c #E63300",
"% c #86CC00",
"& c #FFC900",
"* c #FFC700",
"= c #EA3600",
"- c #8AB500",
"; c #7DC800",
/* pixels */
"                ",
"    $=O=o       ",
"   O=OOOO;;   % ",
"   OOOOO=;;;;;; ",
"   OOOOOo;;;;;# ",
"  oOOOOO-;;;;;; ",
"  OO=O=O;;;;;;  ",
"  @...@@%;;;;;  ",
"  +....X*&**&&  ",
" @.....******   ",
" +....+*****&   ",
" @....@*****&   ",
" .+@+.X*****    ",
"      ******    ",
"                ",
"                "
};
