/* XPM */
static char *mini[]={
"16 16 89 2",
"Qt c None",
".b c #000000",
".n c #010101",
".8 c #050504",
".z c #143433",
".i c #173a38",
".L c #215250",
".7 c #235351",
".q c #296967",
".h c #2a6a68",
".3 c #2b2b2c",
".A c #2c5a58",
".O c #2f5d5b",
".o c #357270",
"#l c #38250a",
".1 c #39393b",
"#o c #397573",
"#e c #3a260a",
"#d c #3b7674",
".w c #3c3c3e",
"#i c #3c7675",
".c c #414143",
".a c #424244",
".# c #49494b",
"#. c #4b320e",
".j c #4d4d4f",
".y c #4d908e",
".U c #50491d",
".E c #559b99",
".r c #565657",
".v c #58585a",
".m c #5b5b5d",
"#w c #604012",
".D c #625821",
".B c #636365",
".N c #65acaa",
".G c #69696a",
"#c c #6b4815",
".6 c #6f4d1c",
".Y c #6f4e1d",
".Q c #72bab8",
".0 c #73bab8",
"#k c #7cc2c0",
".T c #828283",
"## c #84612b",
"#f c #906c33",
".9 c #949495",
".V c #978530",
".M c #97d4d2",
"#v c #987339",
"#q c #99743a",
".k c #99999a",
".5 c #9c7741",
".S c #a0a0a1",
"#m c #a48350",
".u c #aaaaaa",
".F c #aadbdd",
".2 c #acacad",
".p c #acdbdc",
".l c #b1b1b2",
"#s c #b38a56",
"#b c #b48d5b",
".t c #b4b4b6",
".H c #b7b7b8",
".g c #bcbcbe",
"#j c #bde5e3",
"#h c #be9a6d",
".Z c #bee1e0",
".C c #c0c0c1",
"#t c #c1e5e5",
"#p c #c4e7e5",
".P c #c5e6e6",
".X c #c7ab56",
".f c #c9c9cb",
".x c #c9e7e8",
".4 c #ceac7f",
".K c #cfb262",
"#u c #d3b186",
"#a c #debd96",
".I c #dededf",
".e c #e3e3e4",
"#r c #e5c49d",
"#g c #e7ceab",
"#n c #ebd4b3",
".R c #ebebec",
".d c #eeeeee",
".J c #f0e4bb",
".s c #f4f4f4",
".W c #fdf5dc",
"QtQtQtQtQtQtQt.#.a.a.bQtQtQtQtQt",
"QtQtQtQtQtQt.c.d.e.f.g.b.h.iQtQt",
"QtQtQtQt.j.b.k.l.m.n.b.o.p.qQtQt",
"QtQtQt.r.s.t.u.v.wQt.o.x.y.z.A.i",
"QtQtQt.B.C.s.D.DQt.h.p.E.z.A.F.b",
"Qt.w.G.H.I.D.J.K.D.L.M.N.O.P.Q.h",
".w.R.S.T.m.U.V.W.X.Y.Z.M.Q.0.h.i",
".1.2.R.v.3Qt.U.V.4.5.6.h.h.7.iQt",
"Qt.8.9.bQtQtQt#.###a#b#c.bQtQtQt",
"QtQt.b.aQtQt#d.y#e#f#g#h#cQtQtQt",
"QtQtQtQtQt#i#j#k.L#l#m#n#h#cQtQt",
"QtQtQtQt#o#p#k.h.bQt#l#q#r#s#cQt",
"QtQtQt.A#t#k.h.bQtQtQt#l#q#u#v#c",
"QtQtQt.i#k.h.bQtQtQtQtQt#l#v#w#l",
"QtQtQtQt.i.bQtQtQtQtQtQtQt#l#lQt",
"QtQtQtQtQtQtQtQtQtQtQtQtQtQtQtQt"};
