/* XPM */
static char *internetutility_xpm[] = {
"24 24 8 1",
"0	c #000000",
"1	c #FF0000",
"2	c #00FF00",
"3	c #B2B240",
"4	c #3333B6",
"5	c #A0A0A0",
" 	c None",
"7	c #FFFFFF",
"   00000                ",
"    077700              ",
"     0777700            ",
"      0777700           ",
"      07777700          ",
"      077777700         ",
"      007777770         ",
"     0000777770044      ",
"    0000007777770400    ",
"   00000  00077770440   ",
"  00000  0330777704430  ",
" 00000  033340770443330 ",
"00000   033444004443330 ",
"0000   03344444444443330",
" 00    03443443344444330",
"       04444444444444430",
"       04444344344444440",
"       04444333334444440",
"        044333333344340 ",
"        044333333344340 ",
"         0443343444340  ",
"          04444444440   ",
"           004333000    ",
"            000000      "
};
