/* XPM */
static char * mini_go_xpm[] = {
/* width height ncolors cpp [x_hot y_hot] */
"16 16 5 1",
/* colors */
" 	s none	m none	c none",
".	c #808080",
"X	s iconColor5	m black	c blue",
"o	c red",
"O	s iconColor2	m white	c white",
/* pixels */
"   .       .    ",
"  XXX     ooo   ",
" XOOXX   oOOoo  ",
".XOOXX...oOOoo..",
" XXXXX.  ooooo. ",
"  XXX..   ooo.. ",
"   ...     ...  ",
"   .       .    ",
"   .       .    ",
"  ooo     XXX   ",
" oOOoo   XOOXX  ",
".oOOoo...XOOXX..",
" ooooo.  XXXXX. ",
"  ooo..   XXX.. ",
"   ...     ...  ",
"   .       .    "};
