/* XPM */
static char * mini_monitor_xpm[] = {
/* width height ncolors cpp [x_hot y_hot] */
"16 16 8 1 0 0",
/* colors */
" 	s none	m none	c none",
".	s iconGray5	m black	c #808080",
"X	c #c0c0c0",
"o	s iconColor6	m white	c yellow",
"O	s iconColor1	m black	c black",
"+	s iconColor2	m white	c white",
"@	c #000080",
"#	s iconColor5	m black	c blue",
/* pixels */
"           .    ",
"XXXXXXXXXX.oOXXX",
"X++++++++.ooO++O",
"X+@@@@@@@oOoO.oO",
"X+@#####o##oooOO",
"X+@####ooO#ooO+O",
"X+@####Ooo##O#+O",
"X+@#####oO####+O",
"X+@##oO#######+O",
"X+@###o#######+O",
"X+@###########+O",
"X++++++++++++++O",
"OOOOOOOOOOOOOOOO",
"    .++++++O    ",
"  OOOOOOOOOOOO  ",
"                "};
