/* XPM */
static char *mini_xpm[] = {
"16 16 8 1",
"0	c #00FF00",
"1	c #808080",
"2	c #FFFF00",
"3	c #C0C0C0",
"4	c #000000",
"5	c #00FFFF",
"6	c #00FF00",
"7	c #FFFFFF",
"0000011111000000",
"0001122333440000",
"0015222333334000",
"0165522333373400",
"0166522333733400",
"1336652337333340",
"1333651413333340",
"1333364043333340",
"1333371415333340",
"1333733762533340",
"0137333362553400",
"0173333362255400",
"0013333366224000",
"0001133366440000",
"0000011444000000",
"0000000000000000"
};
