/* XPM */
static char * mini_diskett_xpm[] = {
/* width height ncolors cpp [x_hot y_hot] */
"16 16 7 1 0 0",
/* colors */
" 	c #000080",
".	s iconColor1	m black	c black",
"X	s none	m none	c none",
"o	s iconColor6	m white	c yellow",
"O	s iconGray1	m white	c #e0e0e0",
"+	s iconColor2	m white	c white",
"@	c #C0C0C0",
/* pixels */
"  ...........  X",
"  ooooooooooo  .",
"  OOOOOOOOOOO  .",
"  +++++++++++  .",
"  OOOOOOOOOOO  .",
"  +++++++++++  .",
"  OOOOOOOOOOO  .",
"  +++++++++++  .",
"               .",
"    @@@@@@@    .",
"    @  @@@@    .",
"    @  @@@@    .",
"    @  @@@@    .",
"    @  @@@@    .",
"X   @@@@@@@    .",
"XX.............."};
