/* XPM */
static char *mini[] = {
/* width height num_colors chars_per_pixel */
"    16    16        4            1",
/* colors */
". c none s none",
"# c #000000",
"a c #ffffff",
"b c #c6c6c6",
/* pixels */
"...#.#.#.#.#....",
"..#a.a.a.a.a#...",
"..a#a#a#a#a#a#..",
"..aaaaaaaaaab#..",
"..aaaaaaaaaab#..",
"..aa###a##aab#..",
"..aaaaaaaaaab#..",
"..aa######aab#..",
"..aaaaaaaaaab#..",
"..aa######aab#..",
"..aaaaaaaaaab#..",
"..aa######aab#..",
"..aaaaaaaaaab#..",
"..aaaaaaaaaab#..",
"..bbbbbbbbbbb#..",
"..###########..."
};
