/* XPM */
static char * mini_icons_xpm[] = {
/* width height ncolors cpp [x_hot y_hot] */
"16 16 8 1 0 0",
/* colors */
" 	c #808080",
".	s none	m none	c none",
"X	s iconColor2	m white	c white",
"o	s iconColor1	m black	c black",
"O	s iconColor5	m black	c blue",
"+	s iconColor4	m white	c green",
"@	s iconColor3	m black	c red",
"#	s iconColor6	m white	c yellow",
/* pixels */
"      ..      ..",
" XXXXXo. XXXXXo.",
" XOOOXo. X+++Xo.",
" XOOOXo. X+++Xo.",
" XOOOXo. X+++Xo.",
" XXXXXo. XXXXXo.",
".oooooo..oooooo.",
"................",
"      ..      ..",
" XXXXXo. XXXXXo.",
" X@@@Xo. X###Xo.",
" X@@@Xo. X###Xo.",
" X@@@Xo. X###Xo.",
" XXXXXo. XXXXXo.",
".oooooo..oooooo.",
"................"};
