/* XPM */
static char *noname[] = {
/* width height ncolors chars_per_pixel */
"16 16 15 1",
/* colors */
"  c None",
". c #527FB9",
"X c #6186B9",
"o c #5A87BF",
"O c #618CC2",
"+ c #BEDA5A",
"@ c #D9BE22",
"# c #4974AD",
"$ c #426A25",
"% c #EFDC44",
"& c #6FB12C",
"* c #8CD445",
"= c #9EB722",
"- c #76C82C",
"; c #3A546E",
/* pixels */
" $$$$$$$$$$$$$$ ",
" $            $ ",
" #OOOOOOOOOO#   ",
" #OOOOOoooooX   ",
" #Ooo.......X   ",
" ;XXXXXXXXXX#   ",
"        &&&---- ",
"        *+++++* ",
"        ******* ",
"        ****--* ",
"        &&&&&&& ",
"      @%%@      ",
"      %%%%      ",
"      %%%%      ",
"      %%%%      ",
"      ====      "
};
