/* XPM */
static char *noname[] = {
/* width height ncolors chars_per_pixel */
"16 16 16 1",
/* colors */
"  c None",
". c #1992D1",
"X c #1793D1",
"o c #27D5ED",
"O c #3AA9D8",
"+ c #1794D0",
"@ c #1792D0",
"# c #1794D3",
"$ c #39A6D6",
"% c #1391D1",
"& c #34A0D7",
"* c #2F9ED5",
"= c #3AA3D9",
"- c #1692D0",
"; c #2097D3",
": c #259AD4",
/* pixels */
"       .:       ",
"       +:       ",
"      #;:$      ",
"      :::=      ",
"      ***&*     ",
"     ===&&=     ",
"    *OO=====    ",
"    OOO=&&&O    ",
"   OO*.XXXX.;   ",
"   :.XX-XXXX#   ",
"  %XXXX  XXXX#  ",
"  @XXXX  #XXXX  ",
" .XXXX.  #XXXXo ",
" XXXXX.  @XXXXX ",
"XX.X        +XX#",
"X.            .X"
};
