/* XPM */
static char *mini_xpm[] = {
"24 24 16 1",
"0	c #000000",
"1	c #FF0000",
"2	c #00FF00",
"3	c #FFFF00",
"4	c #0000FF",
"5	c #FF00FF",
"6	c #00FFFF",
"7	c #FFFFFF",
"8	c #DBDBDB",
"9	c #B6B6B6",
"A	c #929292",
"B	c #6D6D6D",
"C	c #494949",
"D	c #242424",
"E	c #DB0000",
" 	c None",
" 0000000000000000000000 ",
"0EEEEEEEEEEEEEEEEEEEEEE0",
"0E00000000000000000000E0",
"0E03333333333333333330E0",
"0E03333344333333333330E0",
"0E03333433433333333330E0",
"0E03333433433333333330E0",
"0E03333344333333333330E0",
"0E03344444444333333330E0",
"0E03333344333333333330E0",
"0E03333344333333333330E0",
"0E03333434333333333330E0",
"0E03334334333333333330E0",
"0E03334333433333333330E0",
"0E03334333343333333330E0",
"0E03333333333333333330E0",
"0E00000000000000000000E0",
"0EEEEEEEEEEEEEEEEEEEEEE0",
"0E0000EE00EEEEEEEEEE00E0",
"0E0000EEEE0EEEEEEE0000E0",
"0E0000EEEE0EEEEE000000E0",
"0E0000EE00EEEE00000000E0",
"0EEEEEEEEEEEEEEEEEEEEEE0",
" 0000000000000000000000 "
};
