/* XPM */
static char * folder_t_xpm[] = {
"16 16 7 1",
" 	c None s None",
".	c #808080",
"X	c #c0c0c0",
"o	c #ffff00",
"B	c #0000ff",
"O	c #000000",
"#	c #ffffff",
"                ",
"  .....         ",
" .XoXoX.        ",
".XoXoXoX......  ",
".############.O ",
".#oXoX......... ",
".#XoX.#########O",
".#oXo.#BBBBBB.#O",
".#XoX.#B#BBBB.#O",
".#oXo.#BBBBBB.#O",
".#XoX.#BBBBBB.#O",
".#oXo.#BBBBBB.#O",
"......#.......#O",
" OOOOOOOOOOOOOO ",
"       .###X.   ",
"      OOOOOOOOO "};
