/* XPM */
static char * mini_tk_xpm[] = {
"16 16 3 1",
" 	c #8B8B23232323",
".	c #55551A1A8B8B",
"X	c #FFFFFAFACDCD",
"                ",
"................",
"XXXXX....XXXXXXX",
"XXXXX...XX    XX",
"XXXXX..XXX....XX",
"XXXXX..XXX...XXX",
"XXXX..XXXX..XXXX",
"XXXX..XXX..XXX..",
"XXXX..XXX.XX....",
"XXX..XXX.....XXX",
"XXX..XXX...XXXXX",
"XXX..XXX....XXXX",
"XX..XXX..XX..XXX",
"XX..XXX..XXX..XX",
"X ..XX..XXXXX..X",
" ...X ..XXXXXX.."};
