/* XPM */
static char * mini-camera_xpm[] = {
"16 16 4 1",
" 	c None s None",
".	c black",
"X	c white",
"o	c #808080",
"                ",
"      ......    ",
"     .XXXXXX.   ",
" ....Xo...oX... ",
".XXXX.......XXX.",
".......ooo......",
".Xoo..oXXoo..oo.",
".Xoo..oXooo..oo.",
".Xoo..ooooo..oo.",
".Xooo..ooo..ooo.",
".Xooo.......ooo.",
".Xooooo...ooooo.",
" .............. ",
"                ",
"                ",
"                "};
