/* XPM */
static char *resize2[] = {
/* width height num_colors chars_per_pixel */
"    14    14       10            1",
/* colors */
". c None",
"# c Green4",
"a c Yellow4",
"b c Green2",
"c c Yellow2",
"d c Cyan4",
"e c Red4",
"f c Red2",
"g c Cyan2",
"h c White",
/* pixels */
"ffffff..cccccc",
"feeee....aaaac",
"feeh......haac",
"fehh......hhac",
"fe..h....h..ac",
"f....h..h....c",
"......hh......",
"......hh......",
"b....h..h....g",
"b#..h....h..dg",
"b#hh......hhdg",
"b##h......hddg",
"b####....ddddg",
"bbbbbb..gggggg"
};
