/* XPM */
static char * mini-fractal_xpm[] = {
"16 16 8 1",
" 	c None s None",
".	c black",
"X	c #808080",
"o	c red",
"O	c yellow",
"+	c #c0c0c0",
"@	c #008000",
"#	c blue",
"                ",
" ..X    X...X   ",
".....  .ooOoO.  ",
".  ....ooOoOoO. ",
"+. .@.@Oo...oooX",
"   .o@o@.   .oO.",
"   .@o@.  . .oo.",
"   .@@.  .  .#o.",
"  .ooo. .   .##X",
"  .oo.  .. .##. ",
" .oOo.  .####.  ",
" .OoO.   ...X   ",
".OoOo.          ",
".oOoO.          ",
".OoOo.          ",
"                "};
