/* XPM */
static char *mini_xpm[] = {
"16 16 10 1",
"0	c #E6E6FA",
"1	c #2F4F4F",
" 	c None",
"3	c #000000",
"4	c #708090",
"5	c #F5DEB3",
"6	c #CD853F",
"7	c #2E8B57",
"8	c #00FFFF",
"9	c #DCDCDC",
"       33333333 ",
"    3  44444453 ",
"    33 44444563 ",
"    38344445663 ",
"333338834436663 ",
"388888883436663 ",
"388888888336663 ",
"388888883436663 ",
"333338834431163 ",
"    38344436163 ",
"    33 44436663 ",
"    3  33336663 ",
"3333333444366633",
"4444444444366344",
"4444444444363444",
"4444444444334444"
};
