/* XPM */
static char * mini_books_xpm[] = {
/* width height ncolors cpp [x_hot y_hot] */
"16 16 7 1 0 0",
/* colors */
" 	s none	m none	c none",
".	c #808080",
"X	c white",
"o	c #FF0000",
"O	c #0000FF",
"+	s iconColor1	m black	c black",
"@	c #FFFF00",
/* pixels */
"                ",
"   .XX.    .XX. ",
"  .XX.oXO .XX.+ ",
" .....XOO....@+ ",
" .oo...OO.@@.@+ ",
" .oo.O.OO.++.@+ ",
" .oo.OO.O.@@.@+ ",
" .oo.+O.O.@@.@+ ",
" .oo.oOO..@@.@+ ",
" .oo.o+O..@@.@+ ",
" .oo.o+OO.@@.@+ ",
" .XX.o++O.XX.@+ ",
" .oo.+  +.@@.+  ",
" .+++    .+++   ",
"                ",
"                "};
