/* XPM */
static char * mini_xkeycaps_xpm[] = {
/* width height ncolors cpp [x_hot y_hot] */
"16 16 6 1 0 0",
/* colors */
" 	s none	m none	c none",
".	s iconColor3	m black	c red",
"X	s iconColor1	m black	c black",
"o	s iconColor2	m white	c white",
"O	c #C0C0C0",
"+	c #808080",
/* pixels */
"    ...     .   ",
"     ...   .    ",
"      ... .     ",
"       . .      ",
"      . ...     ",
"     .   ...    ",
"    .     ...   ",
"                ",
"XXXXXXXXXXXXXXXX",
"XoOXoOXoOXoOXoOX",
"XO+XO+XO+XO+XO+X",
"XXXXXXXXXXXXXXXX",
"  XoOXoOXoOXoOX ",
"  XO+XO+XO+XO+X ",
"  XXXXXXXXXXXXX ",
"                "};
