/* XPM */
static char * mini-clock_xpm[] = {
"16 16 4 1",
" 	c None s None",
".	c Black",
"X	c White",
"o	c #c0c0c0",
"                ",
"      .....     ",
"    ..XXXXX..   ",
"   .oXXX.XXXo.  ",
"   .XXXX.XXXX.  ",
"  .XXXXX.XXXXX. ",
"  .XXXXX.XXXXX. ",
"  .XXXX..XXXXX. ",
"  .XXXXX..XXXX. ",
"  .XXXXX.X.XXX. ",
"   .XXXXXXXXX.  ",
"   .oXXXXXXXo.  ",
"    ..XXXXX..   ",
"      .....     ",
"                ",
"                "};
