/* XPM */
static char * mini_cat_xpm[] = {
/* width height ncolors cpp [x_hot y_hot] */
"16 16 4 1 0 0",
/* colors */
" 	s none	m none	c none",
".	s iconColor1	m black	c black",
"X	s iconColor6	m white	c yellow",
"o	c #FF0000",
/* pixels */
"                ",
"  ...           ",
" .XX.      . .  ",
".XX.      .X.X. ",
".X.       .XXX. ",
".X. .... .XXXXX.",
".XX.XXXX..X.X.X.",
".XXXXXXXXXXXoXX.",
" .XXXXXXXXXXXX. ",
" .XXXXXXXXXXX.  ",
".X.XXX.XXXXXX.  ",
".XX.XX....XX.   ",
".X..X. .X..XX.  ",
".XX.XX..XX.XX.  ",
"... ..  .. ..   ",
"                "};
