/* XPM */
static char * mini_clipboard_xpm[] = {
/*Filename: /home/peraza/icons/1/2/mini-clipboard.xpm Size:16x16*/
"16 16 8 1",
/*xpm Size:16x16*/
" 	s None	m none	c None",
".	s iconColor1	m black	c black",
"X	s iconColor6	m white	c yellow",
"o	c #808000",
"O	c #808080",
"+	c #c0c0c0",
"@	c #000080",
"#	s iconColor2	m white	c white",
/* pixels P*/
"                ",
"     ....       ",
" .....XX.....   ",
".oOo.X..X.OoO.  ",
".OO.++++++.Oo.O ",
".oO........OO.O ",
".OoOoOoOoOoOo.O ",
".oOoOo@@@@@@@.O ",
".OoOoO@#####@@O ",
".oOoOo@#####@#@ ",
".OoOoO@#...#@@@@",
".oOoOo@########@",
".OoOoO@#......#@",
" .....@########@",
"  OOOO@@@@@@@@@@",
"       OOOOOOOOO"};
