/* XPM */
static char * mini_cave_xpm[] = {
/* width height num_colors chars_per_pixel */
"16 16 13 1",
/* colors */
" 	s iconColor7	m white	c cyan",
".	c #0072fd",
"X	c #0000fc",
"o	c #0000b8",
"O	c #00ff8f",
"+	c #00ff0a",
"@	c #ff8400",
"#	c #72ff00",
"$	s iconColor6	m white	c yellow",
"%	c #0f0f6d",
"&	c #ff0000",
"*	c #ff4500",
"=	c #ffc700",
/* pixels */
"     ...XXXooooo",
"      ...XXXoooo",
"OO+@#@oO ..XXXXo",
"$$%O O%&$$O..XXX",
"%%%% X $%  O...X",
"O%%%%%$%%o+ $   ",
"%%%%%%%X%X %%+OO",
"+%%%%%%%%*%**#$%",
"%%%%%%%%%*@$==&%",
"%%%%%%%%%%=##*%%",
"%%%%%%%%%%=#O.%%",
"%%%%%%%%.#=#+O%%",
"%%%%%%%%%%%=$&%%",
"%%%%%%%%%%% %%%%",
"%%%%%%%%%%%%%%%%",
"%%%%%%%%%%%%%%%%"};
