/* XPM */
static char *noname[] = {
/* width height ncolors chars_per_pixel */
"16 16 15 1",
/* colors */
"  c None",
". c #FFA858",
"X c #FFC0FF",
"o c gainsboro",
"O c #C0C000",
"+ c #CFB0B0",
"@ c #808080",
"# c #C000C0",
"$ c #E1E1C1",
"% c #585858",
"& c #800080",
"* c white",
"= c #DF0000",
"- c #C0FFFF",
"; c #808000",
/* pixels */
"                ",
" *@*@*@*@*@*    ",
" @&%%&%%&%%@    ",
" *%%&@+&%%&*    ",
" @&&%ooo%&%@    ",
" *%&+$oX        ",
" @&&oXo *@*@*@* ",
" *=&@oo @;%;%;@ ",
" @&&&.X *;;-+;* ",
" *&=#$o @;$$$+@ ",
" @##$oX *O$ooO* ",
" *#=#&# @OO$$O@ ",
" @=#=#= *O$o$O* ",
" *@*@*@ @OOOOO@ ",
"        *@*@*@* ",
"                "
};
