/* XPM */
static char * mini-pdf_xpm[] = {
"16 16 2 1",
"     c None s None",
"o    c red",
"                ",
"      o         ",
"     o o        ",
"     ooo        ",
"      oo        ",
"      oo        ",
"      o o       ",
"     o   ooooo  ",
"     o  oooo  o ",
"     oooo   oo  ",
"    oo          ",
"   oo           ",
" ooo            ",
" o o            ",
" oo             ",
"                "};

