/* XPM */
static char * mini-book1_xpm[] = {
"16 16 6 1",
" 	c None s None",
".	c black",
"X	c red",
"o	c yellow",
"O	c #808080",
"#	c white",
"                ",
"       ..       ",
"     ..XX.      ",
"   ..XXXXX.     ",
" ..XXXXXXXX.    ",
".ooXXXXXXXXX.   ",
"..ooXXXXXXXXX.  ",
".X.ooXXXXXXXXX. ",
".XX.ooXXXXXX..  ",
" .XX.ooXXX..#O  ",
"  .XX.oo..##OO. ",
"   .XX..##OO..  ",
"    .X.#OO..    ",
"     ..O..      ",
"      ..        ",
"                "};
