/* XPM */
static char * jx_xpm[] = {
/**/
"20 14 6 1",
/**/
" 	s None	c None",
"r	c #ff0000",
"b      c #0000ff",
"g      c #00ff00",
"y      c #ffff00",
"B      c #000000",
/**/
/*"                    ",*/
"           BBBB     ",
"         BBBBBBBB   ",
"  B     BBBrBBgBBB  ",
"  B B BBBBrrBBggBB  ",
"    BBBBBBrrBBggBB  ",
"  r     BBrBBBBgBB  ",
"  r r rrBBBBBBBBBB  ",
"    rrrrBBBbBByBBB  ",
"  b     BBbbBByyBB  ",
"  b b bbBBbbBByyBB  ",
"    bbbbBBbBBBByBB  ",
"  B     BBBBBBBBBB  ",
"  B B BBBBB    BBB  ",
"    BBBBB        B  "};
/*"                    "};*/
