/* XPM */
static char * image_name[] = {
"14 14 35 1",
" 	c #D75CDF7DE79D",
".	c #A69979E78E38",
"X	c #D75CD34CD75C",
"o	c #BEFBB6DABEFB",
"O	c #AEBAAEBAB6DA",
"+	c #492449245144",
"@	c #71C679E78617",
"#	c #00001C718E38",
"$	c #28A22CB230C2",
"%	c #186120812081",
"&	c #208128A25144",
"*	c #514471C68E38",
"=	c #96589658AEBA",
"-	c #FFFFFFFFFFFF",
";	c #AEBAB2CACF3C",
":	c #FFFFF3CEFFFF",
">	c #EFBEF3CEF7DE",
",	c #CF3CC71BCF3C",
"<	c #9E799A699E79",
"1	c #5965A289D75C",
"2	c #10402CB2F7DE",
"3	c #38E36DB6A699",
"4	c #0000FFFFFFFF",
"5	c #FFFFFBEEFFFF",
"6	c #BEFBC30BBEFB",
"7	c #5144A2894924",
"8	c #965896589658",
"9	c #BEFBC30BCF3C",
"0	c #000000001861",
"q	c #79E786179E79",
"w	c #E79DE79DEFBE",
"e	c #79E79248B6DA",
"r	c #0820596528A2",
"t	c #28A24D349658",
"y	c #000008200820",
"             .",
"XXoOXOXXOXOX +",
" @#$$#X%&&&* &",
"X=-;-;:::>::,+",
"X<;>;1-;;;2-;&",
" ;>3>1>;41;5 $",
"X;1->>>;>---;&",
";6#7##;#*#&*O%",
"X8-;;;>;-;>; %",
"91919191>1;>;0",
" q;4>4:;11;1 &",
";;:w;:-1 9->O%",
"Oe;;;;;;1>;;1%",
"&r#rr#rr&rtrry"};
