/* XPM */
static char * mini-maze_xpm[] = {
"16 16 3 1",
"+      c None s None",
" 	c black",
".	c white",
"++++++++++++++++",
"                ",
" ... .......... ",
" . . .        . ",
" . . . ... .... ",
" . ... . . .    ",
" .     . . .... ",
" ....... .    . ",
" .       ...... ",
" ........     . ",
" .     .. ... . ",
" . ...... . . . ",
" . .      . . . ",
" . ........ . . ",
"                ",
"++++++++++++++++"};
