/* XPM */
static char * mini-iconify_xpm[] = {
"16 14 3 1",
" 	c None",
".	c red",
"X  c black",
"...............X",
".XXXXXXXXXXXXX.X",
".X            .X",
".X            .X",
".X            .X",
".X    ....X   .X",
".X    ....X   .X",
".X    ....X   .X",
".X    XXXXX   .X",
".X            .X",
".X            .X",
".X            .X",
"...............X",
"XXXXXXXXXXXXXXXX"};
