/* XPM */
static char *noname[] = {
/* width height ncolors chars_per_pixel */
"16 16 16 1",
/* colors */
"  c None",
". c #185EA2",
"X c #0971B7",
"o c #C0CEDF",
"O c #547DB3",
"+ c #57A3D3",
"@ c #253773",
"# c #889BC0",
"$ c #0465AE",
"% c #0D79BD",
"& c #0F4873",
"* c #85B5E0",
"= c #191B73",
"- c #2183C3",
"; c #263775",
": c #35487D",
/* pixels */
"     @@;;;;     ",
"   &;:O#OO::@   ",
"  ;:O##ooo#O:;  ",
"  ;:O#oooo#O:;= ",
" @@;.O***o+O.;; ",
" ;;&.$+*-+X$$.; ",
"=@;&.o*++*o-.;@@",
"@@@@#*#*****;@@;",
"@@;&*-.$$$.*.;@;",
" ;&.*%$$X$$*..;:",
" ;..*-XXXX-*X.& ",
" &.$-+%%%%++$$. ",
"  .$X++++++%X$  ",
"   XX%-++--%X   ",
"    %%-----%    ",
"                "
};
