/* XPM */
static char *noname[] = {
/* width height ncolors chars_per_pixel */
"16 16 16 1",
/* colors */
"  c #B7C2C7",
". c #7B929C",
"X c #A0A7AC",
"o c #1B4154",
"O c #5B6D75",
"+ c #1D2E38",
"@ c #0B1319",
"# c #CDD4D6",
"$ c #173241",
"% c #7C8183",
"& c #949DA1",
"* c #345160",
"= c gray90",
"- c #1A3D4F",
"; c #183646",
": c #183849",
/* pixels */
" XXXXXXXXXXXXX&O",
"=##############X",
"=##############X",
" XXXXXXXXXXXXXX.",
"X.......%.&&%%.O",
"&OOO%...=#%**OO*",
".:%X%O% O;+O%%++",
"%+$oooo-+.==%+++",
"%oo;+*OO =&+oo+@",
"%;*X=##==O$oo-+@",
"O%%*++++*$---;+@",
"O+$::::::::::$+@",
"O;;;;;;;;;;;;$+@",
"O$$$$$$$$$$$$$+@",
"O::::::::::::$+@",
"%ooooooooo----++"
};
