/* XPM */
static char *noname[] = {
/* width height ncolors chars_per_pixel */
"16 16 16 1",
/* colors */
"  c None",
". c #D6C5A3",
"X c #E3DAC0",
"o c #B3B9BF",
"O c #41352A",
"+ c #91836A",
"@ c #DEA07A",
"# c #8A694F",
"$ c #ECC598",
"% c #3C92F3",
"& c #75B5EF",
"* c #7692A7",
"= c #F0D8A4",
"- c #B0926F",
"; c #FFF2BC",
": c #FFECA8",
/* pixels */
"#++++++++++++O  ",
"+.....**o$...   ",
"+.;;;X%&&;;;;   ",
"+.;==:&%o:=;:   ",
"+.;:::o&:::;:   ",
"+$;&&&&&&&&;:   ",
"+.&%oX&&oo%&:   ",
"+.%&&:Xo:&&%X   ",
"+.&%o=;;;X%&;   ",
"+=X&: O##@o==   ",
"+.&&o @@@####   ",
"+o&&% $:=#@+=-  ",
"+$o&:##$$#++#:-O",
"+.&%o;=#$----:;#",
"+.%&&;;=+#+#$=:#",
"+-**o....-@.#O  "
};
