/* XPM */
static char * mini_question_xpm[] = {
"16 16 5 1",
" 	s None	c None",
".	c red",
"X	c white",
"o	c black",
"O	c #808080",
"       ...      ",
"     ......     ",
"    .X......    ",
"   .X..oo...o   ",
"   ...o  ...o   ",
"    oo   ...o   ",
"        ...o    ",
"       ...o     ",
"      ..oo      ",
"      ....o     ",
"      O..O      ",
"       Ooo      ",
"      OX..      ",
"      ....O     ",
"       ..oO     ",
"        oO      "};
