/* XPM */
static char * mini_news_xpm[] = {
/* width height ncolors cpp [x_hot y_hot] */
"16 16 4 1 0 0",
/* colors */
" 	s iconColor1	m black	c black",
".	s iconColor2	m white	c white",
"X	c #C0C0C0",
"o	c #808080",
/* pixels */
" .. X  o . . o  ",
"  . X .. . .  ..",
"    X  o . . . .",
" .  X ..     .. ",
" .. X  o. . .  o",
"................",
"oooooooo ooooooo",
" .  .  X .X.ooX ",
". .o..o. XoXooX ",
".    .oX o X oX ",
" .o..  .        ",
".  . . XXo.XX.o.",
"..  o.   .  oo  ",
" . .  .o.oX.oo.o",
". o..o .  .  .  ",
"oo.o .o .o  .o. "};
