/* XPM */
static char * gnome_xpm[] = {
"16 16 7 1",
"       c None",
".      c white",
"+      c gray85",
"@      c black",
"#      c #C6BEB7",
"$      c #B2A79F",
"&      c #96877B",
"     .+@        ",
"  #$@#&@@       ",
"  &@@@@@@       ",
" # @@ @@        ",
" @@  .+$$       ",
" @@ .$$$@@      ",
".  ..$$$&@      ",
"$@ .$$$@@       ",
" @ +$&@@@       ",
"   #$@@  $$$&   ",
"   #$@@  &#&@   ",
"   $$&@   +&@   ",
"    $$$$###&@   ",
"    &$$$$$$@@   ",
"     @$$$$@@    ",
"      @@@@@     ",
};
