/* XPM */
static char *mini_xpm[] = {
"24 24 8 1",
"0	c #000000",
"1	c #FF0000",
"2	c #B2B240",
"3	c #D8D84E",
"4	c #6E6E2E",
"5	c #A0A0A0",
" 	c None",
"7	c #FFFFFF",
"   00000                ",
"    077700              ",
"     0777700444444444   ",
"      0777700333333424  ",
"      07777700333334224 ",
"      077777700333342224",
"      007777770333344444",
"     0000777770033333334",
"    00000077777703333334",
"   000004300077770333334",
"  00000 4333077770333334",
" 00000  4333307703333334",
"00000   4344330033344434",
"0000    4333333333333334",
" 00     4344444443444334",
"        4333333333333334",
"        4344443443433334",
"        4333333333333334",
"        4344344434443334",
"        4333333333333334",
"        4344443443333334",
"        4333333333333334",
"        4333333333333334",
"        4444444444444444"
};
