/* XPM */
static char * mini-bomb_xpm[] = {
"16 16 6 1",
" 	c None s None",
".	c black",
"X	c #808080",
"o	c #c0c0c0",
"O	c yellow",
"#	c white",
"                ",
"       ...      ",
"      .   .     ",
"     .     .    ",
"    ...     .   ",
"   .....    .   ",
"  .X#o...    .  ",
" X.#X....X   .  ",
" ..oX.....   O O",
" .......O. O OO ",
" ......Xo.  OOO ",
" X.....X.X  O   ",
"  .......       ",
"   X...X        ",
"                ",
"                "};
