/* XPM */
static char * mini_keyboard_xpm[] = {
/* width height ncolors cpp [x_hot y_hot] */
"17 16 5 1 0 0",
/* colors */
" 	s none	m none	c none",
".	c #808080",
"X	s iconColor2	m white	c white",
"o	s iconColor1	m black	c black",
"O	c #C0C0C0",
/* pixels */
" ............... ",
".XXXXXXXXXXXXXX.o",
".X..............o",
".X.XOoXOoXOoXOo.o",
".X.O.oO.oO.oO.o.o",
".XOoooooooooooo.o",
".XOoXOoXOoXXXOo.o",
".XOoO.oOOoOOO.o.o",
".XOoooooooooooo.o",
".X.XOoXXXXOoXOo.o",
".X.O.oOOOO.oO.o.o",
".X.oooooooooooo.o",
"................o",
" ooooooooooooooo ",
"                 ",
"                 "};
