/* XPM */
static char *noname[] = {
/* width height ncolors chars_per_pixel */
"16 16 16 1",
/* colors */
"  c None",
". c #EA0566",
"X c #CA043C",
"o c #D5084A",
"O c #D40849",
"+ c #D4084C",
"@ c #D80B49",
"# c #D80349",
"$ c #D6094A",
"% c #D4094B",
"& c red",
"* c #D50B4A",
"= c #D5094A",
"- c #D40C48",
"; c #D60949",
": c #D5094B",
/* pixels */
"     -===$=o    ",
"    :===;====&  ",
"   ==$*.  oo=*  ",
"  :=:X     &==  ",
" +==   $=$: *=@ ",
" %=-  OO# :##=% ",
" :=&  =*    X=- ",
" o:   $o    o:  ",
" ;=   O=   X;o  ",
" O=+   oo=o=:   ",
" &*;    oo=O    ",
"  *=&           ",
"  #*o           ",
"   $=o          ",
"    +$o         ",
"     .o:*       "
};
