/* XPM */
static char *noname[] = {
/* width height ncolors chars_per_pixel */
"16 16 16 1",
/* colors */
"  c None",
". c #E91808",
"X c #B2431A",
"o c #E4730E",
"O c #F06131",
"+ c #8E2A0C",
"@ c #B51518",
"# c #BF680D",
"$ c #E2361C",
"% c #CC0000",
"& c #E74C2A",
"* c #EE7451",
"= c #BF0202",
"- c #F88904",
"; c #F49D4B",
": c #43140A",
/* pixels */
"          .$&@  ",
"      $OOO@**&  ",
"    oo*;;;&**$  ",
"   -;;X;***&@$  ",
"   -;;oX++$OOO$ ",
"  o;;;X    +$$$ ",
"&O&;;o      $$$X",
"**O#-#      ++++",
"OO$o-o      =%%@",
":@+---     %=%%:",
"   o--o   %=%%= ",
"   #--+===%%%%: ",
"    ##=%%%=#oX  ",
"      ==%%X---  ",
"          X---  ",
"           #oX  "
};
