/* XPM */
static char * mini-exp_xpm[] = {
"16 16 4 1",
" 	c None s None",
".	c black",
"X	c #808080",
"o	c yellow",
"                ",
"       .        ",
"       .   .X   ",
"      .o. ..    ",
" ......oo.o.    ",
"  .oooooooo....X",
"   .oooooooooo. ",
"    .oooooooo.  ",
"   ..ooooooo.   ",
"   .oooooooo.   ",
"  .oo..oo..oo.  ",
" .... .oo. ...  ",
" X     ..    .X ",
"        .       ",
"                ",
"                "};
