/* XPM */
static char *mini_xpm[] = {
"16 16 31 1",
"A	c #000000",
"B	c #222222",
"C	c #333333",
"D	c #334433",
"E	c #444433",
"F	c #444444",
"G	c #445544",
"H	c #556655",
"I	c #557755",
"J	c #666655",
"K	c #667755",
"L	c #667766",
"M	c #668866",
"N	c #778866",
"O	c #778877",
"P	c #779977",
"Q	c #888877",
"R	c #889977",
"S	c #889988",
"T	c #999988",
"U	c #88AA88",
"V	c #99AA88",
"W	c #99AA99",
"X	c #AAAA99",
"Y	c #AABB99",
"Z	c #AABBAA",
"a	c #BBCCAA",
"b	c #BBCCBB",
"c	c #CCCCBB",
"d	c #EEEEDD",
" 	c None",
"                ",
"   AAAAAAAA     ",
"  BYadQTFXWAA   ",
" AaYbJBCBWVVVA  ",
" AKVUUPPMLHGGA  ",
"  ANLLHHGGDBA   ",
"  ALBBBBBBBLA   ",
"  AcHZGSFRELA   ",
"  AcHZGSFRELA   ",
"  AcHZGSFRELA   ",
"  AcHZGSFRELA   ",
"  AcHZGSFRELAAA ",
"  AcHZGSFRELAAA ",
"   APOKNIMLAAA  ",
"    AAAAAAA     ",
"                "
};
