/* XPM */
static char * briefcase_t_xpm[] = {
"16 16 6 1",
" 	c None s None",
".	c #808000",
"X	c #c0c0c0",
"o	c black",
"O	c #808080",
"#      c white",
"                ",
"     .....      ",
"    .#XXXX.     ",
"    .Xoooo.     ",
" .......o.....o ",
".#X#XoXOXoX#X#.o",
".XX.OXo##Xo.X.Oo",
".#.O##Xo##Xo.X.o",
".X...........OOo",
".#.XXXXXXXXX.X.o",
".XX.X.X.X.X.X.Oo",
".#.X.X.X.X.X.X.o",
".XX.X.X.X.X.X.Oo",
"...............o",
" oooooooooooooo ",
"                "};
