/* XPM */
static char *mini-sh[] = {
/* width height num_colors chars_per_pixel */
"    16    16       6            1",
/* colors */
"  c None s None",
"# c #c0c0c0",
"a c black",
"b c white",
"d c #808080",
"e c #0000ff",
/* pixels */
"                ",
"                ",
"aaaaaaaaaaaaaaaa",
"adddddddddddddda",
"adeeeeeeeeeeeeda",
"adddddddddddddda",
"adbbbbbbbbbbbbda",
"adbabbbbbbbbbbda",
"adbbabbbbbbbbbda",
"adbabbbbbbbbbbda",
"adbbbbbbbbbbbbda",
"adbbbbbbbbbbbbda",
"adbbbbbbbbbbbbda",
"adbbbbbbbbbbbbda",
"adddddddddddddda",
"aaaaaaaaaaaaaaaa",
"                "
"                "
};
