/* XPM */
static char *noname[] = {
/* width height ncolors chars_per_pixel */
"16 16 16 1",
/* colors */
"  c #A7A7A7",
". c #898989",
"X c gray49",
"o c #515151",
"O c gray98",
"+ c gray23",
"@ c #CACACA",
"# c #BCBCBC",
"$ c gray58",
"% c gray44",
"& c gray40",
"* c #585858",
"= c #4C4C4C",
"- c #464646",
"; c gray22",
": c #343434",
/* pixels */
";===X      X===;",
";=&oX######Xo&=;",
";*O%========%Oo;",
";*O%%......&%Oo;",
";*O%.@@@&#@.%Oo;",
";*O%.@@#-o#.%Oo;",
";*O%.@@#% ..%Oo;",
";o.*.@@#%@..&Xo;",
";o%*.@#$%@@.*%=;",
";*O%..-;=@@.%Oo;",
";*O%.-:+$@@.%Oo;",
";*O%.$& @@@.%Oo;",
";*O%&......&%Oo;",
";*O%========%Oo;",
";o%*X######X*%=;",
";===X      X===;"
};
