/* XPM */
static char * diff_xpm[] = {
"16 16 4 1",
"  c None s None",
". c red",
"# c black",
"$ c white",
"                ",
"     ###########",
"   #....#$$$$$$#",
"  #.  #$.#$$$$$#",
" #.  $#$$.#$$$$#",
" #. $ #$$.#$$$$#",
" #.   #$$.#$$$$#",
"##.####$$.#$$$$#",
"#$#.$$##..######",
"#$$#.......#    ",
"#$$$#####...#   ",
"#$$$$$$$$#...#  ",
"#$$$$$$$$##...# ",
"#$$$$$$$$# #..# ",
"##########  ##  ",
"                "
};

