/* XPM */
static char *mini.stick_xpm[] = {
"16 16 3 1",
" 	c None",
"1	c #000000",
"2	c #00FF00",
"                ",
"     11111      ",
"    1222221     ",
"    1222221     ",
"    1122211     ",
"     12221      ",
"     12221      ",
"     12221      ",
"     12221      ",
"    1222221     ",
"   122222221    ",
"  11111111111   ",
"      121       ",
"      121       ",
"      121       ",
"                "
};
