/* XPM */
static char * mini-resize_xpm[] = {
"16 16 4 1",
" 	c None s None",
".	c black",
"X	c #000080",
"o	c white",
"                ",
"........... ... ",
".XXXXXXXXX.   . ",
".XXXXXXXXX.     ",
".ooooooooo.   . ",
".oooooo.oo.   . ",
".ooooo...o.     ",
".oooooo....   . ",
".ooooooo... . . ",
".............   ",
"          ... . ",
".        .... . ",
".             . ",
".. .. .. .. ... ",
"                ",
"                "};

