/* XPM */
static char * mini_exclam_xpm[] = {
"16 16 5 1",
" 	s None	c None",
".	c #808080",
"X	c #008000",
"o	c white",
"O	c black",
"        .X      ",
"       .oXX.    ",
"      .oXXXO    ",
"      XXXXXO    ",
"     .XXXXO.    ",
"     XXXXXO     ",
"     XXXXO      ",
"     XXXO       ",
"     XXO        ",
"     XO         ",
"     O          ",
"   .oXX         ",
"   XXXX.        ",
"    XXO.        ",
"    .O.         ",
"                "};
