/* XPM */
static char * mini_x3_xpm[] = {
"22 16 6 1",
"     c None s None",
".    c black",
"X    c red",
"o    c green",
"O    c yellow",
"+    c blue",
"                      ",
"                      ",
". . . ......       ...",
"      .XXXXX.     .o. ",
" X X X .XXXXX.   .o.  ",
"  X X X .XXXXX. .o.   ",
"         .XXXXX.o.    ",
"    . . . .XXX.O.     ",
"     . . . .X.OOO.    ",
"          .+.OOOOO.   ",
"   + + + .+. .OOOOO.  ",
"  + + + .+.   .OOOOO. ",
"       .+.     .OOOOO.",
". . . ...       ......",
"                      ",
"                      "};

