/* XPM */
static char * mini_hex_xpm[] = {
/* width height ncolors cpp [x_hot y_hot] */
"16 16 5 1 0 0",
/* colors */
" 	s none	m none	c none",
".	c #808080",
"X	s iconColor2	m white	c white",
"o	s iconColor1	m black	c black",
"O	s iconColor5	m black	c blue",
/* pixels */
" ...........    ",
" .XXXXXXXXX.o   ",
" .XXOXXXOXX.Xo  ",
" .XOXOXOOXX.ooo ",
" .XOXOXXOXXXOXo ",
" .XXOXXXOXXXOXo ",
" .XXXXXXXXXXXXo ",
" .XXOXXXOXXXOXo ",
" .XOOXXOXOXOOXo ",
" .XXOXXOXOXXOXo ",
" .XXOXXXOXXXOXo ",
" .XXXXXXXXXXXXo ",
" .XXOXXXOXXXOXo ",
" .XOXOXOXOXOOXo ",
" .XOXOXOXOXXOXo ",
" .ooooooooooooo "};
