/* XPM */
static char * mini-happy_xpm[] = {
"16 16 3 1",
" 	c None s None",
".	c black",
"X	c yellow",
"                ",
"      .....     ",
"    ..XXXXX..   ",
"   .XXXXXXXXX.  ",
"   .XX..X..XX.  ",
"  .XXX..X..XXX. ",
"  .XXX..X..XXX. ",
"  .XXXXXXXXXXX. ",
"  .XXXXXXXXXXX. ",
"  .XX.XXXXX.XX. ",
"   .XX.....XX.  ",
"   .XXX...XXX.  ",
"    ..XXXXX..   ",
"      .....     ",
"                ",
"                "};
