/* XPM */
static char *mini_xpm[] = {
"16 16 64 1",
" 	c None",
"B	c #FFFFFF",
"C	c #C2C2C2",
"D	c #606060",
"E	c #494949",
"F	c #424242",
"G	c #3A3A3A",
"H	c #333333",
"I	c #303030",
"J	c #6F6F6F",
"K	c #EAEAEA",
"L	c #414141",
"M	c #040404",
"N	c #3B3B3B",
"O	c #6A6A6A",
"P	c #808080",
"Q	c #828282",
"R	c #878787",
"S	c #8C8C8C",
"T	c #161616",
"U	c #818181",
"V	c #E4E4E4",
"W	c #1E1E1E",
"X	c #232323",
"Y	c #C9C9C9",
"Z	c #FFD7BE",
"a	c #FFB383",
"b	c #FFA770",
"c	c #FFA66E",
"d	c #FFA268",
"e	c #FFC8A5",
"f	c #B4B4B4",
"g	c #C6C6C6",
"h	c #4B4B4B",
"i	c #202020",
"j	c #F0EEEC",
"k	c #FFA46C",
"l	c #FF6200",
"m	c #FF9D60",
"n	c #E9E5E2",
"o	c #171717",
"p	c #5B5B5B",
"q	c #C5C5C5",
"r	c #BBBBBB",
"s	c #FFDAC3",
"t	c #FFB07F",
"u	c #FFB98E",
"v	c #FFD9C2",
"w	c #B7B7B7",
"x	c #292929",
"y	c #EBEBEB",
"z	c #7D7D7D",
"0	c #141414",
"1	c #7F7F7F",
"2	c #787878",
"3	c #676767",
"4	c #3E3E3E",
"5	c #535353",
"6	c #EEEEEE",
"7	c #6C6C6C",
"8	c #323232",
"9	c #363636",
"+	c #6E6E6E",
"/	c #C1C1C1",
"                ",
"                ",
"                ",
"    BBBBBBBBBBBB",
"  BBBCDEFGHIIIJB",
" BBKLMNOPPQRSTUB",
" BVWXYZabcdef gB",
"BBhijkllllmnopBB",
"Bq rstttuvwxWyB ",
"Bz0PP12J34 56BB ",
"B7III89G4+/BB   ",
"BBBBBBBBBBBB    ",
"                ",
"                ",
"                ",
"                "
};
