/* XPM */
static char * mini-nscape_xpm[] = {
"15 16 5 1",
" 	c None s None",
".	c #808080",
"X	c Black",
"o	c White",
"O	c blue",
"               ",
"               ",
" ...     ....X ",
" .oo.    .oooX ",
"  .oo.    .oX  ",
"  .ooo.   .oX  ",
"  .oXoo.  .oX  ",
"  .oX.oo. .oX  ",
"  .oX .oo..oX  ",
"  .oX  .oo.oX  ",
"  .oX   .oooX  ",
"  .oXOOOOXooX  ",
" OXoXXXXXXXXXO ",
"OXoooXXXXXXXXXO",
"XXXXXXXXXXXXXXX",
"               "};
