/* XPM */
static char * mini-slon_xpm[] = {
"16 16 5 1",
" 	c None s None",
".	c black",
"X	c #808080",
"O	c #c0c0c0",
"o	c white",
"                ",
"      ....X     ",
"     .ooOX.X    ",
"    .o.oooO.X   ",
"   .oooooooX.X  ",
"  X.o..ooooO.X  ",
"   ... .oooX.X  ",
"       .ooo.XX  ",
"       .ooO.X   ",
"      .oooO.X   ",
"     .oooOX.X   ",
"    .XXXX....   ",
"   .ooooooOXX.  ",
"   ...........X ",
"    XXXXXXXXXXX ",
"                "};
