/* XPM */
static char *mini-tick_xpm[] = {
"16 16 10 1",
"0	c #55E155",
"1	c #1DD71D",
"2	c #E3FAE3",
"3	c #AAF0AA",
"4	c #72E672",
"5	c #39DC39",
"6	c #00D200",
" 	c None",
"8	c #C7F5C7",
"9	c #8EEB8E",
"             232",
"           85668",
"          86664 ",
"         21660  ",
"         56612  ",
"        06662   ",
"       36663    ",
"  28  21664     ",
" 0662 0665      ",
"3666936612      ",
"266611668       ",
" 5666664        ",
" 966661         ",
" 266668         ",
"  4660          ",
"   22           "
};
