/* XPM */
static char *move2[] = {
/* width height num_colors chars_per_pixel */
"    14    14       6            1",
/* colors */
". c None",
"b c Green2",
"c c Yellow2",
"g c Red2",
"h c Cyan2",
"i c White",
/* pixels */
"......bb......",
".....bbbb.....",
"....bbbbbb....",
"......bb......",
"..c...bb...h..",
".cc........hh.",
"ccccc.ii.hhhhh",
"ccccc.ii.hhhhh",
".cc........hh.",
"..c...gg...h..",
"......gg......",
"....gggggg....",
".....gggg.....",
"......gg......"
};
