/* XPM */
static char *mini_xpm[] = {
"24 24 16 1",
" 	c None",
"1	c #FF0000",
"2	c #00FF00",
"3	c #FFFF00",
"4	c #0000FF",
"5	c #FF00FF",
"6	c #00FFFF",
"7	c #FFFFFF",
"8	c #DBDBDB",
"9	c #B6B6B6",
"A	c #929292",
"B	c #6D6D6D",
"C	c #494949",
"D	c #000000",
"E	c #DB0000",
"F	c #B60000",
"      FFFF              ",
"       F77F             ",
"        F77FFF          ",
"         F777FF         ",
"         F7777FF        ",
"         F77777FF       ",
"         FF77777F       ",
"         FFF7777F       ",
"        FFFFF777FF999D7D",
"       FFFFFFFF777F99DDD",
"      FFFFFDDDF777FDDDDD",
"     FFFFF7D99F77F999D7D",
"    FFFFFD7D999FF9999D7D",
"   FFFFF DDD999999999DDD",
"  FFFFF  DDD999919999DDD",
" FFFFF   D7D991119999D7D",
"FFFFF    D7D117719999D7D",
" FFF    111177771E999DDD",
"  F     171777771EDDDDDD",
"        171777771E999D7D",
"        111177771E999D7D",
"         DDD117719999DDD",
"         DDD991119999DDD",
"         D7D999919999D7D"
};
