/* XPM */
static char *noname[] = {
/* width height ncolors chars_per_pixel */
"16 16 15 1",
/* colors */
"  c None",
". c #E40000",
"X c #C3C9D5",
"o c #E71F1F",
"O c #7FE719",
"+ c #A2ED59",
"@ c #729FCF",
"# c #D3EEB7",
"$ c #95EB41",
"% c #BFEB85",
"& c #ECECD9",
"* c #EB4E4E",
"= c #EE8F8F",
"- c #83AAD4",
"; c #E6EEF6",
/* pixels */
"     ;;XXX;     ",
" ;;XX--@@--X;   ",
"&&-@@@@@@-@@-;; ",
"&*=-@@@@@-@@@@;;",
";o.=-@@@@-@X#%+#",
";*..*X@-X#%$OOO#",
";*...o#%$$OOOOO&",
";*....%OO$OOOO$;",
";*....%O$+OOOO+;",
" *..*o#OOO+$OO+;",
" =**..%OOOO$$O% ",
" =o...%OOOOOO+% ",
"  =*..%OOOOOO+# ",
"   =*.%OOO$%#;  ",
"    =*%O+##     ",
"     &##&       "
};
