/* XPM */
static char *mini_xpm[] = {
"24 24 6 1 0 0",
" 	c None",
"1	c #000000",
"2	c #C0C0C0",
"3	c #FFFFFF",
"4	c #494949",
"5	c #600606",
"       5555             ",
"        5335            ",
"         533555         ",
"          533355        ",
"          5333355       ",
"          53333355      ",
"          55333335      ",
"          55533335      ",
"         555553333551   ",
"        55555555333351  ",
"       555551   533351  ",
"      55555111  5335 1  ",
"     555552221   55  1  ",
"    5555511111   1  111 ",
"   55555 12221  11 11111",
"  55555  12221 111 12221",
" 55555   11111 11  12221",
"  555     111  1   11111",
"   5       1   1   12221",
"           1   1   11111",
"           1   1    1 1 ",
"           1   1    1 1 ",
"           11111        ",
"            111         "
};
