/* XPM */
static char * mini_nosound_xpm[] = {
/* width height ncolors cpp [x_hot y_hot] */
"16 16 6 1 0 0",
/* colors */
" 	c red",
".	s none	m none	c none",
"X	c #808080",
"o	s iconColor2	m white	c white",
"O	s iconColor6	m white	c yellow",
"+	s iconColor1	m black	c black",
/* pixels */
"  .....XX.....  ",
"   ...XXoX..X   ",
".   .XOXOX..   .",
"..   OXOoOX   .X",
"...   XoOo   X..",
".XXO   Xo   ....",
"XoXoo      .....",
"XOXOOO    X.XXXX",
"XXXXOX    X.....",
".++OX      .....",
"...+   oo   XX..",
"...   +ooo   ..X",
"..   +X+oX.   ..",
".   ..++o+..   .",
"   ....X+....   ",
"  ............  "};
