/* XPM */
static char * mini-hextris_xpm[] = {
"16 16 5 1",
" 	c None s None",
".	c #808080",
"X	c yellow",
"o	c black",
"O	c red",
"                ",
"                ",
"      ...       ",
"     .XXXo      ",
"    .XOOOOo     ",
"     oOOOo.     ",
"      ooo.      ",
"     .XXXo.     ",
"  ...XOOOOo..   ",
" .XXXoOOOoXXXo  ",
".XOOOOoooXOOOOo ",
" oOOOo.  oOOOo. ",
"  ooo.    ooo.  ",
"                ",
"                ",
"                "};
