/* XPM */
static char * mini-ray_xpm[] = {
"16 16 4 1",
" 	c None s None",
".	c black",
"X	c yellow",
"o	c #808080",
"                ",
"     .........  ",
"     .XXXXXX.o  ",
"    .XXXXXX.o   ",
"    .XXXXX.o    ",
"   .XXXXX.o     ",
"   .XXXX.....   ",
"  .XXXXXXXX.o   ",
"  .....XXX.o    ",
"   oo.XXX.o     ",
"     .XX.o      ",
"    .XX.o       ",
"    .X.o        ",
"   .X.o         ",
"   ..o          ",
"   .            "};
