/* XPM */
static char *mini_xpm[] = {
"16 16 8 1",
" 	c None",
"1	c #808080",
"2	c #C0C0C0",
"3	c #000000",
"4	c #008000",
"5	c #FFFFFF",
"6	c #00FF00",
"7	c #FF0000",
"          4444 5",
"         466664 ",
"        46665564",
"        46665564",
"        46666664",
"        46666664",
"  1111111466664 ",
" 122222222444413",
"1555555555555113",
"1222222222242113",
"1222222222222113",
"1211111111112113",
"1255555555552113",
"111111111111113 ",
" 3333333333333  ",
"                "
};
