/* XPM */
static char * mini_sound_xpm[] = {
/* width height ncolors cpp [x_hot y_hot] */
"16 16 5 1 0 0",
/* colors */
" 	s none	m none	c none",
".	c #808080",
"X	s iconColor2	m white	c white",
"o	s iconColor6	m white	c yellow",
"O	s iconColor1	m black	c black",
/* pixels */
"       ..      .",
"      ..X.  .   ",
"     .o.o.      ",
"    .o.oXo.    .",
"   .oo.XoX. ..  ",
" ..oXX..Xo.     ",
".X.XXX.XOX.     ",
".o.ooo.XOo. ....",
"....o...OX.     ",
" OOo.o.OXo.     ",
"   Oo..XXX. ..  ",
"    O.OXXX.    .",
"     O.OX.      ",
"      OOXO  .   ",
"       .O      .",
"                "};
