/* XPM */
static char *mini_xpm[] = {
"17 16 3 1 0 0",
" 	c None",
"1	c #000000",
"2	c #C0C0C0",
"        111111   ",
"       111   11  ",
" 1 1  11111   1  ",
" 1 1  12221   1  ",
"11111 11111  111 ",
"12221 12221 11111",
"11111 11111 12221",
"12221  1 1  12221",
"12221  1 1  11111",
"11111 11111 12221",
" 111  12221 11111",
"  1   11111  1 1 ",
"  1   12221  1 1 ",
"  1   11111      ",
"  11   111       ",
"   111111        "
};
