/* XPM */
static char *mini_xpm[] = {
"16 16 5 1",
" 	c None",
"1	c #000000",
"2	c #0000FF",
"3	c #808080",
"4	c #FFFFFF",
" 111111111111111",
" 122222222222221",
" 122222222222221",
" 144444444444441",
" 141444444444441",
" 144144444444441",
" 141444444444441",
" 144444444444441",
" 144444444444441",
" 144444444444441",
" 144444444444441",
" 111111111111111",
"      11        ",
"     11         ",
"111111          ",
"11111           "
};
