/* XPM */
static char * mini-run_xpm[] = {
"16 16 2 1",
" 	c None s None",
".	c Black",
"                ",
"                ",
"         ..     ",
"        ...     ",
"         .      ",
"     .....      ",
"    .  ....  .  ",
"       ... ..   ",
"   .  ...       ",
"  .......       ",
"    ... ..      ",
"        ..      ",
"        ..      ",
"         ..     ",
"                ",
"                "};
