/* XPM */
static char *noname[] = {
/* width height ncolors chars_per_pixel */
"16 16 6 1",
/* colors */
"  c None",
". c #FFA858",
"X c #C0C0C0",
"o c #808080",
"O c white",
"+ c #FFDCA8",
/* pixels */
"                ",
"          X     ",
"          OXX   ",
"    ++    OXOXX ",
"   ++     XoXXX ",
"  ++++++.+ OXoX ",
" ++++      XXOX ",
" ++++..   OXoXX ",
" ++++++   OXOXX ",
"  ....    XoXXX ",
"          OOXoX ",
"          oXXOX ",
"           XoXX ",
"             XX ",
"                ",
"                "
};
