/* XPM */
static char *noname[] = {
/* width height ncolors chars_per_pixel */
"16 16 16 1",
/* colors */
"  c None",
". c #33C01D",
"X c #94B9BF",
"o c #2641C6",
"O c #111A4E",
"+ c #6EC577",
"@ c #5896BE",
"# c #32734C",
"$ c #4363CA",
"% c #4BBE3C",
"& c #284DDD",
"* c #32BD1C",
"= c #3D4B83",
"- c #86D37A",
"; c #120D6F",
": c #489378",
/* pixels */
"      ;OO;      ",
"    O:XXX:#O    ",
"  O#XXXXXX-:O   ",
" O=XXXXXX---+O  ",
" ;@@XXX------#; ",
" =@@@X--+---+%O ",
"O$$$$:@@++++++= ",
";$&$%.#::++++@= ",
";o&:....*%%@$$; ",
";o&:*..**##&&&; ",
" ;&&:%....#&&o; ",
" ;o&&&*..%&&&;  ",
"  ;o&&:..#$&;O  ",
"   ;=&:.%o=;O   ",
"    O;;=;;;     ",
"                "
};
