/* XPM */
static char *mini[]={
"16 16 12 1",
". c None",
"h c #00639c",
"# c #009cce",
"c c #00ff63",
"b c #31ceff",
"d c #63ffff",
"a c #ceffff",
"g c #de0000",
"f c #ff6300",
"i c #ffce00",
"j c #ffff00",
"e c #ffffff",
".....######.....",
"...##abcccd##...",
"..#aaaccbbcad#..",
".#aaeebbccdead#.",
".#aaefccccffaa#.",
"#aaafgaccdffaad#",
"#cbfgggddgaaabch",
"#cfggggdgggagbch",
"#cgffigggfggggbh",
"#gffiiffgfffggdh",
"#gfijjifffjifggh",
".hgijjijiijjfgh.",
".hgfijjjjjjifgh.",
"..hgfiiijjifgh..",
"...hhgffffghh...",
".....hhhhhh....."};
