/* XPM */
static char * node_curve_xpm[] = {
"24 24 5 1",
" 	c None",
".	c #0000BD",
"+	c #A1A1E6",
"@	c #000000",
"#	c #FFFFFF",
"                ....... ",
"                .+++++.+",
"                .+    .+",
"            @@@@.+    .+",
"          @@####.+    .+",
"        @@##    .+    .+",
"       @##      .......+",
"      @#         +++++++",
"     @#                 ",
"     @#                 ",
"    @#                  ",
"    @#                  ",
"   @#                   ",
"   @#                   ",
"   @#                   ",
"   @#                   ",
".......                 ",
".+++++.+                ",
".+    .+                ",
".+    .+                ",
".+    .+                ",
".+    .+                ",
".......+                ",
" +++++++                "};
