/* XPM */
static char *noname[] = {
/* width height ncolors chars_per_pixel */
"16 16 16 1",
/* colors */
"  c None",
". c #CDC462",
"X c #838583",
"o c #EAC021",
"O c #7B7356",
"+ c #A8A8AD",
"@ c #7B6B31",
"# c #41463D",
"$ c #C1BAC1",
"% c #353620",
"& c #D6AA1C",
"* c #5E5531",
"= c #EAE7EA",
"- c #212821",
"; c #181C18",
": c #AD8E1C",
/* pixels */
"                ",
"        ;+;     ",
"       -O+;#    ",
"       %*%#-    ",
"       %oo%#    ",
"       -@O;-    ",
"       =+==;    ",
"      +$===-;   ",
"     %+====$;;  ",
"     -X$$==$;;  ",
"  :oo;O++$$+*;O ",
"  @&o&OOX++&oo. ",
"  %@&o:OOO@&ooo ",
"   *@:    ::::: ",
"          ****O ",
"           O    "
};
