/* XPM */
static char * scratch[] = {
"16 16 4 1",
" 	s None	c None",
".	c black",
"X	c blue",
"o	c white",
"                ",
"                ",
"                ",
"      ....      ",
"    ..XXXX..    ",
"   .XooXXXXX.   ",
"  .XooXXXXXXX.  ",
" .XXXXXXXXXXXX. ",
"................",
"................",
"  ...X.X.X.X..  ",
"    ..X.X...    ",
"   .  ....  .   ",
"  .          .  ",
" ..          .. ",
"                "};
