/* XPM */
static char * mini_espada_xpm[] = {
/* width height ncolors cpp [x_hot y_hot] */
"16 16 3 1 0 0",
/* colors */
" 	s none	m none	c none",
".	s iconColor1	m black	c black",
"X	c #808080",
/* pixels */
"                ",
"       .        ",
"       .        ",
"      X.X       ",
"      ...       ",
"     .....      ",
"    .......     ",
"   .........    ",
"  ...........   ",
"  ...........   ",
"  ...........   ",
"   ... . ...    ",
"       .        ",
"      X.X       ",
"     .....      ",
"                "};
