/* XPM */
static char * mini_heart_xpm[] = {
/* width height ncolors cpp [x_hot y_hot] */
"16 16 3 1 0 0",
/* colors */
" 	s none	m none	c none",
".	c #808080",
"X	s iconColor1	m black	c black",
/* pixels */
"                ",
"                ",
"  .XXX   XXX.   ",
" .XXXXX XXXXX.  ",
" XXXXXX.XXXXXX  ",
" XXXXXXXXXXXXX  ",
" .XXXXXXXXXXX.  ",
"  XXXXXXXXXXX   ",
"   XXXXXXXXX    ",
"    XXXXXXX     ",
"     XXXXX      ",
"      XXX       ",
"      .X.       ",
"       X        ",
"       X        ",
"                "};
