/* XPM */
static char *mini_xpm[] = {
"16 16 16 1",
" 	c None",
"1	c #FF0000",
"2	c #00FF00",
"3	c #FFFF00",
"4	c #0000FF",
"5	c #FF00FF",
"6	c #00FFFF",
"7	c #FFFFFF",
"8	c #DBDBDB",
"9	c #B6B6B6",
"A	c #929292",
"B	c #6D6D6D",
"C	c #494949",
"D	c #242424",
"E	c #DB0000",
"F	c #B60000",
"                ",
"       FF       ",
"      FEEF      ",
"     FE77EF     ",
"    FE7777EF    ",
"   FE777777EF   ",
"  FE77777777EF  ",
" FEE77777777EEF ",
"   E77111177E   ",
"   E77133177E   ",
"   E77133177E   ",
"   E77133177E   ",
"   E77133177E   ",
"   E77133177E   ",
"   EEEEEEEEEE   ",
"                "
};
