/* XPM */
static char * arrow_right16_xpm[] = {
"16 16 30 1",
" 	c None",
".	c #2C2E2B",
"+	c #292D2F",
"@	c #3C3D3B",
"#	c #262726",
"$	c #50514F",
"%	c #686967",
"&	c #616360",
"*	c #575956",
"=	c #464745",
"-	c #1F1F1E",
";	c #9CA1A4",
">	c #141513",
",	c #858784",
"'	c #CED3D6",
")	c #C4C9CB",
"!	c #BABFC2",
"~	c #B1B6B8",
"{	c #0A0C08",
"]	c #F8FAF7",
"^	c #F1F3F0",
"/	c #E3E8EB",
"(	c #D7DCDF",
"_	c #A8AEB0",
":	c #000100",
"<	c #A8AAA7",
"[	c #DDE3E5",
"}	c #E9EEF0",
"|	c #343633",
"1	c #C0C2BE",
"       .        ",
"       ..       ",
"       +@#      ",
"$%&*$=@@##-     ",
"%*$==@@+@;->    ",
"%,')!!~~~';-{   ",
"%;]^///('')_-:  ",
"%<]^^^[('')!_#: ",
"&_]}/[[[''))~|: ",
"%;]^^/[('')~+:  ",
"%,!11<<<~'_#{   ",
"%%&$$$@|@_#>    ",
"$%%$$=@@.+-     ",
"       +@+      ",
"       +.       ",
"       .        "};
