/* XPM */
static char * mini_gopher_xpm[] = {
/* width height ncolors cpp [x_hot y_hot] */
"16 16 5 1 0 0",
/* colors */
" 	s none	m none	c none",
".	c #808000",
"X	c #800000",
"o	s iconColor2	m white	c white",
"O	s iconColor1	m black	c black",
/* pixels */
"    ..XX...X    ",
" . XXX..XXX.. X ",
" ..XXX..XXX..XX ",
"  .Xooo.Xooo.X  ",
"  .XOOo.XoOO.X  ",
"  .XOO..XXOO.X  ",
"  .XXX..XXX..X  ",
" ..XXXOOOOX..XX ",
"XXXXXXOOOOX..XXX",
"XXXXXX.OOXX..XXX",
" OXXXX.OOXX..XO ",
" OXXXOO.XOO..XO ",
"   OOoo.XooOO   ",
"     oo.Xoo     ",
"                ",
"                "};
