/* XPM */
static char * icon_file_library16_xpm[] = {
"16 16 102 2",
"  	c None",
". 	c #323232",
"+ 	c #565656",
"@ 	c #5B5B5B",
"# 	c #282828",
"$ 	c #353535",
"% 	c #5C5C5C",
"& 	c #626262",
"* 	c #767676",
"= 	c #A2A2A2",
"- 	c #AEAEAE",
"; 	c #999999",
"> 	c #7A7A7A",
", 	c #ABABAB",
"' 	c #ACACAC",
") 	c #7E7E7E",
"! 	c #939393",
"~ 	c #A9A9A9",
"{ 	c #A8A8A8",
"] 	c #797979",
"^ 	c #808080",
"/ 	c #EAEAEA",
"( 	c #E0E0E0",
"_ 	c #DADADA",
": 	c #D7D7D7",
"< 	c #D8D8D8",
"[ 	c #DBDBDB",
"} 	c #C5C5C5",
"| 	c #7C7C7C",
"1 	c #848484",
"2 	c #E4E4E4",
"3 	c #CACACA",
"4 	c #C4C4C4",
"5 	c #C6C6C6",
"6 	c #C0C0C0",
"7 	c #B0B0B0",
"8 	c #787878",
"9 	c #4E4E4E",
"0 	c #DEDEDE",
"a 	c #BABEBA",
"b 	c #629677",
"c 	c #37B638",
"d 	c #34B834",
"e 	c #4FA95D",
"f 	c #B7BAB9",
"g 	c #BDBDBD",
"h 	c #555555",
"i 	c #343434",
"j 	c #686868",
"k 	c #C2C2C2",
"l 	c #619E70",
"m 	c #04EF08",
"n 	c #00FF00",
"o 	c #00F707",
"p 	c #64CA77",
"q 	c #B7B7B7",
"r 	c #A4A4A4",
"s 	c #525252",
"t 	c #828282",
"u 	c #E3E3E3",
"v 	c #35BA37",
"w 	c #64F66A",
"x 	c #B2B2B2",
"y 	c #747474",
"z 	c #E2E2E2",
"A 	c #C8C8C8",
"B 	c #34BB35",
"C 	c #63F36A",
"D 	c #A3A3A3",
"E 	c #6E6E6E",
"F 	c #4C4C4C",
"G 	c #52A95C",
"H 	c #02F40A",
"I 	c #01FA02",
"J 	c #98D99B",
"K 	c #BFBFBF",
"L 	c #B9B9B9",
"M 	c #74C27C",
"N 	c #72F172",
"O 	c #9CD99E",
"P 	c #B5B5B5",
"Q 	c #AFAFAF",
"R 	c #4F4F4F",
"S 	c #D4D4D4",
"T 	c #B4B4B4",
"U 	c #B1B1B1",
"V 	c #6C6C6C",
"W 	c #ADADAD",
"X 	c #9B9B9B",
"Y 	c #7D7D7D",
"Z 	c #5E5E5E",
"` 	c #818181",
" .	c #6A6A6A",
"..	c #777777",
"+.	c #6B6B6B",
"@.	c #6F6F6F",
"#.	c #6D6D6D",
"$.	c #636363",
"%.	c #616161",
"&.	c #434343",
"*.	c #4A4A4A",
"=.	c #585858",
"          . +     @ #           ",
"          $ %     & #           ",
"    * = - ; > , ' ) ! ~ { ]     ",
"    ^ / ( _ : < _ [ [ < } |     ",
"    1 2 3 } 4 4 } 5 5 6 7 8     ",
"# # 9 0 5 a b c d e f g , h i i ",
"j j + k 5 l m n n o p q r 9 s s ",
"    t u 5 v n n n n w x = y     ",
"    ^ z A B n n n n C 7 D E     ",
"# # F [ k G H n n I J 7 D s i i ",
"j j + K L , M N N O P Q D R s s ",
"    8 S T Q Q 7 U Q Q Q D V )   ",
"    j 3 7 Q Q Q - W - ' X E Y   ",
"    Z ` ] 8  ...* +.@.#.$.%.    ",
"          &.*.    =.#           ",
"          &.*.    =.#           "};
