/* XPM */
static char *networkdead_xpm[] = {
"24 24 8 1",
"0	c #000000",
"1	c #FF0000",
"2	c #00FF00",
"3	c #B2B240",
"4	c #3333B6",
"5	c #A0A0A0",
" 	c None",
"7	c #FFFFFF",
"                        ",
"       00000            ",
"     004433400          ",
"    04444444440         ",
"   0377444444430 77     ",
"  037117444443337117    ",
"  037111744443371117    ",
" 033471117444471117     ",
" 03443711174471117      ",
" 04444471117711170      ",
" 044443471111117000000  ",
" 0444433371111755555550 ",
"  044333371111755555550 ",
"  044333711111175555550 ",
"   04437111771117555550 ",
"    0471117057111755550 ",
"    0711173055711175550 ",
"   07111700055571117550 ",
"  077117   055557117550 ",
"  07077   070000077000  ",
"   070000070   0000     ",
"    0777770   000000    ",
"     00000    000000    ",
"                        "
};
