/* XPM */
static char *networkin_xpm[] = {
"24 24 8 1",
"0	c #000000",
"1	c #FF0000",
"2	c #00FF00",
"3	c #B2B240",
"4	c #3333B6",
"5	c #A0A0A0",
" 	c None",
"7	c #FFFFFF",
"                        ",
"       00000            ",
"     002222200          ",
"    02222222220         ",
"   0222222222220        ",
"  022222222222220       ",
"  022222222222220       ",
" 02222222222222220      ",
" 02222222222222220      ",
" 02222222222222220      ",
" 022222222220000000000  ",
" 0222222222055555555550 ",
"  022222222055555555550 ",
"  022222222055555555550 ",
"   02222222055555555550 ",
"    0222222055555555550 ",
"    0202222055555555550 ",
"   02000000055555555550 ",
"  020      055555555550 ",
"  020     020000000000  ",
"   020000020   0000     ",
"    0222220   000000    ",
"     00000    000000    ",
"                        "
};
