/* XPM */
static char * number16_xpm[] = {
"16 16 114 2",
"  	c None",
". 	c #B3B3B3",
"+ 	c #ADADB1",
"@ 	c #9B9B9F",
"# 	c #33337B",
"$ 	c #0E0E65",
"% 	c #0E0E60",
"& 	c #11115C",
"* 	c #484867",
"= 	c #9F9FAA",
"- 	c #515191",
"; 	c #777790",
"> 	c #A6A6B5",
", 	c #52528B",
"' 	c #9090A0",
") 	c #7A7A89",
"! 	c #5A5A70",
"~ 	c #565668",
"{ 	c #5D5D6F",
"] 	c #585881",
"^ 	c #53537F",
"/ 	c #0F0F6C",
"( 	c #535377",
"_ 	c #9797A8",
": 	c #131364",
"< 	c #76768C",
"[ 	c #5F5F8D",
"} 	c #0E0E53",
"| 	c #121260",
"1 	c #4B4B6F",
"2 	c #9797A5",
"3 	c #131359",
"4 	c #6F6F83",
"5 	c #5C5C83",
"6 	c #0E0E4E",
"7 	c #171761",
"8 	c #4C4C6D",
"9 	c #9A9AA6",
"0 	c #19195A",
"a 	c #737386",
"b 	c #5B5B80",
"c 	c #121247",
"d 	c #262658",
"e 	c #4E4E67",
"f 	c #A3A3A7",
"g 	c #9D9DA9",
"h 	c #1F1F51",
"i 	c #777786",
"j 	c #A2A2AD",
"k 	c #656580",
"l 	c #151541",
"m 	c #7A7A84",
"n 	c #4B4B74",
"o 	c #4A4A91",
"p 	c #3E3E83",
"q 	c #3E3E7F",
"r 	c #4C4879",
"s 	c #595963",
"t 	c #A2A2A4",
"u 	c #5F5FA0",
"v 	c #3D3D81",
"w 	c #3E3E7D",
"x 	c #3F3F77",
"y 	c #484863",
"z 	c #6B6B75",
"A 	c #686886",
"B 	c #29295E",
"C 	c #26265B",
"D 	c #27275B",
"E 	c #313153",
"F 	c #636380",
"G 	c #75758D",
"H 	c #37375F",
"I 	c #282858",
"J 	c #262656",
"K 	c #2A2A52",
"L 	c #606070",
"M 	c #7E7E8C",
"N 	c #2B2B71",
"O 	c #76768D",
"P 	c #8D8CA7",
"Q 	c #27256C",
"R 	c #7A7A8C",
"S 	c #1F1F5A",
"T 	c #66667B",
"U 	c #9998A9",
"V 	c #1A1959",
"W 	c #7C7C8B",
"X 	c #21215C",
"Y 	c #606078",
"Z 	c #9797A4",
"` 	c #161654",
" .	c #747482",
"..	c #27275A",
"+.	c #5C5C73",
"@.	c #9C9CA9",
"#.	c #19194E",
"$.	c #787884",
"%.	c #505066",
"&.	c #808089",
"*.	c #444459",
"=.	c #616181",
"-.	c #656587",
";.	c #656584",
">.	c #666683",
",.	c #8D8D98",
"'.	c #AAAAAA",
").	c #B4B4B4",
"!.	c #A2A2A5",
"~.	c #3C3C76",
"{.	c #0C0B53",
"].	c #0C0B4D",
"^.	c #0E0E49",
"/.	c #4F4F65",
"                                ",
".           +     @ # $ % & * = ",
"- ;       > , '     ) ! ~ { ] ^ ",
"/ (       _ : <             [ } ",
"| 1       2 3 4             5 6 ",
"7 8       9 0 a             b c ",
"d e f     g h i           j k l ",
"m n o p q r s t     u v w x y z ",
"  A B C D E F     G H I J K L   ",
"          M N O P Q R           ",
"            S T U V W           ",
"            X Y Z `  .          ",
"            ..+.@.#.$.          ",
"            %.&.  *.=.-.;.>.,.  ",
"            '.).  !.~.{.].^./.  ",
"                                "};
