/* XPM */
static char * onyx1616_xpm[] = {
"16 16 8 1",
" 	c #FFFFFFFFFFFF",
".	c #0000FFFFFFFF",
"X	c #000000000000",
"o	c #FFFF0000FFFF",
"O	c #38E3FBEE38E3",
"+	c #F7DE14514103",
"@	c #FFFFFFFF0000",
"#	c #51445144F7DE",
"                ",
" ..............X",
" .XXXXXXXXXXXX.X",
" .XXXXoooooooo.X",
" ..............X",
" ..............X",
" .XX.XOOOO.X+++X",
" .@@.XooXO.X+++X",
" .@@.XOOOO.X+X+X",
" .XX.XX.XX.XXXXX",
" .@@.XX.XX.XXX.X",
" .@@.XOOOO.XX#.X",
" .XX.XXXXX.X##.X",
" .@@.......XX#.X",
" ..........X##.X",
" XXXXXXXXXXXXXXX"};
