/* XPM */
static char * outbox_xpm[] = {
"16 16 8 1",
" 	c None",
".	c #020204",
"+	c #99999B",
"@	c #E5E5E3",
"#	c #024A6C",
"$	c #626263",
"%	c #FDFDFB",
"&	c #B4B4B4",
"                ",
"        .   ####",
"      ..+.   ###",
"    ..+++%. ####",
"  ..++++$%%### #",
"..++++$$&$###   ",
".%.+$$&@@###%.  ",
".%%.+&@@@@#$%%. ",
".%%%.&&@@@@@$%+.",
" .%%%.&&@@@@@$@.",
"  .%%%.&&@@@@&$.",
"   .%%%.&@@&&&+.",
"    .%%+$&&&+.. ",
"     .%@.&+..   ",
"      .%...     ",
"       ..       "};
