/* XPM */
static char * outline16_xpm[] = {
"16 16 4 1",
" 	c #000000000000",
".	c #E0E0FFFFFFFF",
"X	c #FFFFFFFF0000",
"o	c #333333333333",
"       .........",
" XXXXX .........",
" XXXXX .........",
"       .........",
" XXXXX .........",
" XXXXX .........",
"       .........",
"...o.....       ",
"...o..... XX XX ",
"...o.....oXXoXXo",
"...o     o  o  o",
"...o.....oXXoXXo",
"...o.....oXXoXXo",
"...o.....o  o  o",
"...o........o...",
"...o........o..."};
