/* XPM */
static char * Archive_xpm[] = {
"16 15 65 1",
" 	c None",
"!	c #BAA68A",
"#	c #AA845D",
"$	c #C2BAB6",
"%	c #9A8A79",
"&	c #AA7D55",
"/	c #B68E63",
"(	c #B28A55",
")	c #A67549",
"=	c #9E7145",
"+	c #745231",
"*	c #AA824D",
"-	c #825C39",
"[	c #45351C",
"]	c #7D593D",
"{	c #7D6549",
"}	c #513D23",
"<	c #A28261",
">	c #BE9269",
",	c #A27951",
".	c #8A693D",
"|	c #8A653D",
"@	c #755939",
"~	c #6B5333",
"'	c #614528",
"?	c #A57141",
"0	c #866139",
"1	c #624B2B",
"2	c #594324",
"3	c #3D311C",
"4	c #101010",
"5	c #614524",
"6	c #B2794D",
"7	c #AE7545",
"8	c #9E6941",
"9	c #201010",
"A	c #140C04",
"B	c #926541",
"C	c #795333",
"D	c #412020",
"E	c #221911",
"F	c #1C100C",
"G	c #6D512D",
"H	c #694D31",
"I	c #795D35",
"J	c #513520",
"K	c #4D351C",
"L	c #3B281A",
"M	c #2D1C10",
"N	c #1C1804",
"O	c #8A6135",
"P	c #55392D",
"Q	c #493B20",
"R	c #312014",
"S	c #20180C",
"T	c #92653D",
"U	c #594531",
"V	c #39241C",
"W	c #2D2018",
"X	c #281C18",
"Y	c #595524",
"Z	c #554124",
"a	c #616161",
"b	c #9E6949",
"c	c #655531",
"                ",
"      !#!       ",
"  $%&/()=+%     ",
"!((#++*-[+]{%   ",
"}</>,+[+.|-@~~% ",
"}~('[+?[+0+1234 ",
"}5['(678+['39A4 ",
"}1[1+B-C[D4EEF4 ",
"}G[HI?JKLL4MEN4 ",
"}+[CO?PQ[L4RES4 ",
" }[-T?U}Q[4VWX4 ",
"  [-8?YZ}Q434a  ",
"   }b?c2Z}4a    ",
"    }?c14a      ",
"     }4a        "};
