/* XPM */
static char * pavuk_16x16_xpm[] = {
"16 16 3 1",
" 	c None",
".	c #000000",
"+	c #D03F39",
"  .         .   ",
"  .         .   ",
"  .         .   ",
"   .       .    ",
"    .     .     ",
" .   . . .   .  ",
"  .   ...   .   ",
"   ....+....    ",
"     .+++.      ",
"    . .+. .     ",
"   . ..... .    ",
"   . . . . .    ",
"  .  .   .  .   ",
"    .     .     ",
"   .       .    ",
"   .       .    "};
