/* XPM */
static char * Network_xpm[] = {
"18 18 11 1",
" 	c None",
".	c #bfbfbf",
"X	c black",
"o	c #7e7e7e",
"O	c blue",
"+	c cyan",
"@	c #828282",
"#	c #007f7f",
"$	c white",
"%	c #007f00",
"&	c green",
"   ......X        ",
"  ooooo.oX        ",
"  oXOOO.oX        ",
"  oX+OO.oX        ",
"  oXOOO.oX        ",
"  ooooo.o@.....X  ",
"  o.....@oooo.oX  ",
"  ooooo@oX###.oX  ",
" o$%$XX$oX+##.oX  ",
" o.&....oX###.oX  ",
" oooooooooooo.oX  ",
"  XXXXXXo.....oX  ",
"        ooooooooX ",
"       o$%$$XX$oX ",
"       o.&.....oX ",
"       oooooooooX ",
"        XXXXXXXX  ",
"                  "};
