/* XPM */
static char *pet16_xpm[] = {
"16 16 180 2",
"  	c None",
"BA	c #2C1E18",
"CA	c #946953",
"DA	c #533628",
"EA	c #503825",
"FA	c #FFFFF7",
"GA	c #E1CCC2",
"HA	c #8D6B5A",
"IA	c #FFFFF8",
"JA	c #63481B",
"KA	c #B38842",
"LA	c #E4CAA1",
"MA	c #A5A7AB",
"NA	c #FEFCFA",
"OA	c #FEFBFA",
"PA	c #A4A7AA",
"QA	c #F0D9B5",
"RA	c #B98F4E",
"SA	c #402905",
"TA	c #70552A",
"UA	c #F2D19F",
"VA	c #AF7A26",
"WA	c #BF9A60",
"XA	c #E5E8ED",
"YA	c #D6D6D3",
"ZA	c #D8D8D6",
"aA	c #E1E4EA",
"bA	c #E0AF61",
"cA	c #D99E42",
"dA	c #DB9C3A",
"eA	c #452C04",
"fA	c #1C1305",
"gA	c #DCC5A1",
"hA	c #E2C290",
"iA	c #AD7A29",
"jA	c #C3A679",
"kA	c #EFECEA",
"lA	c #B4B1A1",
"mA	c #BDBBAC",
"nA	c #E9E9EB",
"oA	c #CBAA75",
"pA	c #D59B41",
"qA	c #E0B269",
"rA	c #BC7C17",
"sA	c #1A1102",
"tA	c #A78754",
"uA	c #DBB984",
"vA	c #E9CA99",
"wA	c #ECCC99",
"xA	c #E8CA9A",
"yA	c #DFC396",
"zA	c #E3C9A0",
"0A	c #E5CCA5",
"1A	c #E0C8A2",
"2A	c #E8CFAA",
"3A	c #F0D5AA",
"4A	c #EACEA4",
"5A	c #C38728",
"6A	c #8F5D0D",
"7A	c #62420D",
"8A	c #704F1A",
"9A	c #C6A26A",
"+A	c #F4D5A3",
"/A	c #F0CE98",
"AB	c #F0CE96",
"BB	c #F1CD94",
"CB	c #F0CB91",
"DB	c #EFCA8E",
"EB	c #F0C88B",
"FB	c #EEC788",
"GB	c #EDC484",
"HB	c #F1CB8F",
"IB	c #C4A066",
"JB	c #835306",
"KB	c #674308",
"LB	c #1F1300",
"MB	c #4C3C22",
"NB	c #F8DBAE",
"OB	c #F1D3A4",
"PB	c #F1D2A2",
"QB	c #F0D1A0",
"RB	c #F0D09E",
"SB	c #F0CF9D",
"TB	c #EFCE9B",
"UB	c #EFCD99",
"VB	c #EFCC97",
"WB	c #EECC96",
"XB	c #EECA92",
"YB	c #F6D6A4",
"ZB	c #71552B",
"aB	c #2A1A00",
"bB	c #503915",
"cB	c #AE8544",
"dB	c #C09045",
"eB	c #C18E40",
"fB	c #C28F40",
"gB	c #C28F42",
"hB	c #C38F41",
"iB	c #C39042",
"jB	c #C28E40",
"kB	c #C08E41",
"lB	c #C09046",
"mB	c #AB8242",
"nB	c #644718",
"oB	c #785825",
"pB	c #D19438",
"qB	c #956823",
"rB	c #7C5C2C",
"sB	c #986921",
"tB	c #866330",
"uB	c #7C5A27",
"vB	c #80591F",
"wB	c #7F6031",
"xB	c #996A24",
"yB	c #D1953A",
"zB	c #75531D",
"0B	c #7F5F2E",
"1B	c #DEA54C",
"2B	c #644F30",
"3B	c #5F5A51",
"4B	c #39342B",
"5B	c #4F4838",
"6B	c #796440",
"7B	c #6A522D",
"8B	c #3A3A3A",
"9B	c #916D36",
"+B	c #DDA54E",
"/B	c #7C5B27",
"AC	c #806131",
"BC	c #E7B15C",
"CC	c #635032",
"DC	c #4F4B44",
"EC	c #56462E",
"FC	c #494234",
"GC	c #AE823E",
"HC	c #CC9949",
"IC	c #4F402A",
"JC	c #D19C4A",
"KC	c #E2AE5D",
"LC	c #7E5D2A",
"MC	c #826334",
"NC	c #F1BE6D",
"OC	c #604E33",
"PC	c #A3804A",
"QC	c #B38C4F",
"RC	c #494338",
"SC	c #6D5C42",
"TC	c #B58C4D",
"UC	c #564833",
"VC	c #D9A75B",
"WC	c #EBB96C",
"XC	c #80602D",
"YC	c #876938",
"ZC	c #F5C57A",
"aC	c #C39B5C",
"bC	c #DFB068",
"cC	c #A58758",
"dC	c #A48658",
"eC	c #DAAD66",
"fC	c #C29B5E",
"gC	c #E7B66A",
"hC	c #F3C379",
"iC	c #856531",
"jC	c #695028",
"kC	c #F7CB87",
"lC	c #F6CA85",
"mC	c #F3C884",
"nC	c #F8CB84",
"oC	c #F4C883",
"pC	c #F6C983",
"qC	c #F2C782",
"rC	c #F5C881",
"sC	c #654B20",
"tC	c #060300",
"uC	c #614313",
"vC	c #684815",
"wC	c #674815",
"xC	c #674715",
"yC	c #674714",
"zC	c #604211",
"        BACADA    DACABA        ",
"        EAFAGAHAHAGAIAEA        ",
"      JAKALAMANAOAPAQARASA      ",
"    TAUAVAWAXAYAZAaAbAcAdAeA    ",
"  fAgAhAiAjAkAlAmAnAoApAqArAsA  ",
"  tAuAvAwAxAyAzA0A1A2A3A4A5A6A  ",
"7A8A9A+A/AABBBCBDBEBFBGBHBIBJBKB",
"LBMBNBOBPBQBRBSBTBUBVBWBXBYBZBaB",
"  bBcBdBeBfBgBeBhBiBjBkBlBmBnB  ",
"    oBpBqBrBsBtBuBvBwBxByBzB    ",
"    0B1B2B3B4B5B6B7B8B9B+B/B    ",
"    ACBCCCDCECFCGCHCICJCKCLC    ",
"    MCNCOCPCQCRCSCTCUCVCWCXC    ",
"    YCZCaCqAbCcCdCeCfCgChCiC    ",
"    jCkClCmCmCnCnCoCpCqCrCsC    ",
"    tCuCvCwCxCxCxCyCyCvCzCtC    "
};
