/* XPM */
static char *phone16_xpm[] = {
"16 16 31 1",
"A	c #737300",
" 	c None",
"C	c #737300",
"D	c #808080",
"E	c #606060",
"F	c #737300",
"G	c #FFFFFF",
"H	c #DFDFDF",
"I	c #CFCFCF",
"J	c #8F8F8F",
"K	c #BFBFBF",
"L	c #ABAFB3",
"M	c #4C5054",
"N	c #58427E",
"O	c #687078",
"P	c #1C2024",
"Q	c #384048",
"R	c #342262",
"S	c #404040",
"T	c #707070",
"U	c #9CA0A4",
"V	c #DBDFE3",
"W	c #98A0A8",
"X	c #EFEFEF",
"Y	c #48326E",
"Z	c #B8C0C8",
"a	c #708090",
"b	c #18023E",
"c	c #5C6064",
"d	c #303030",
"e	c #8F8FCF",
"   DDDDDDDDEE   ",
" DGHIJEKKEJKKLM ",
"NGIKOPDQQDPOKKLR",
"STEMKGUVKUGJMEEP",
"EKWQGGDKKDGHEKWQ",
"   DGGPUDPGXE   ",
"   KGGUVKUGGJ   ",
"   JGGDKKDGGJ   ",
"  NGGGPUDPGGHY  ",
"  PDDDDDDDDDEP  ",
"  QZaaaaaaaaaQ  ",
"  QZaaaaaaaaaQ  ",
"  bcQQQQQQQQQb  ",
"  dKKKKKKKKKKd  ",
"  EKaaaaWJeJJE  ",
"  YEEEEEEEEEEY  "
};
