/* XPM */
static char *prompt3_xpm[] = {
"16 16 3 1",
" 	c None",
"1	c #FF00B6",
"2	c #B6006D",
" 1              ",
" 11             ",
" 111            ",
" 2111           ",
"  2111          ",
"   2111         ",
"    2111        ",
"     2111       ",
"    2111        ",
"   2111         ",
"  2111          ",
" 2111           ",
" 111      111111",
" 11       111111",
" 1        222222",
"                "
};
