/* XPM */
static char *run1616_xpm[] = {
/* width height num_colors chars_per_pixel */
"    16    16       13            1",
/* colors */
". c None",
"# c #808080",
"a c #000000",
"b c #c0c0c0",
"c c #000080",
"d c #ffffff",
"e c #800000",
"f c #ff0000",
"g c #0000ff",
"h c #008000",
"i c #00ffff",
"j c #00ff00",
"k c #800080",
/* pixels */
"................",
"................",
"................",
".....#########..",
".....bccccdddb..",
".....bbbbbbbbb..",
"..eeeeeddddddb..",
"...aaaadigdhdb..",
"...dbbadbkdhdb..",
"...#a#dd##d#db..",
"....dadddddddb..",
"...bbbaaaaaaaa..",
"...dbba.........",
"..ebfff.........",
"................",
"................"
};
