/* XPM */
static char * scanner_xpm[] = {
"18 18 12 1",
" 	c None",
".	c #000000",
"+	c #FFFFFF",
"@	c #DCDCDC",
"#	c #C0FFFF",
"$	c #008080",
"%	c #004040",
"&	c #00C0C0",
"*	c #C3C3C3",
"=	c #585858",
"-	c #A0A0A0",
";	c #303030",
"       ...    .   ",
"    ...++@.   .   ",
"   .++++++@. .    ",
"    .++++++@.     ",
"   .+.+@+@+@@.    ",
"  .+#$%@@@@@@@.   ",
" .+#$&&%*@*@*@*.  ",
".+#$&&&&%*****=.  ",
".++%&&&&&%***=.   ",
".-++%&&&&%;*=.    ",
" .-++%&&%++;.     ",
"  .-++%%++=.      ",
"   .-++++=.       ",
"    .-++=.        ",
"     .-=.         ",
"      ..          ",
"                  ",
"                  "};
