/* XPM */
static char * scsi16_xpm[] = {
"16 16 66 1",
" 	g None",
".	g #505050",
"+	g #929292",
"@	g #C0C0C0",
"#	g #5E5E5E",
"$	g #8E8E8E",
"%	g #BABABA",
"&	g #B6B6B6",
"*	g #B0B0B0",
"=	g #565656",
"-	g #8A8A8A",
";	g #B5B5B5",
">	g #848484",
",	g #949494",
"'	g #9F9F9F",
")	g #4C4C4C",
"!	g #ADADAD",
"~	g #818181",
"{	g #909090",
"]	g #464646",
"^	g #7F7F7F",
"/	g #A9A9A9",
"(	g #7B7B7B",
"_	g #696969",
":	g #A2A2A2",
"<	g #777777",
"[	g #424242",
"}	g #3E3E3E",
"|	g #323232",
"1	g #393939",
"2	g #373737",
"3	g #343434",
"4	g #9B9B9B",
"5	g #979797",
"6	g #3F3F3F",
"7	g #797979",
"8	g #747474",
"9	g #6F6F6F",
"0	g #6A6A6A",
"a	g #676767",
"b	g #5F5F5F",
"c	g #2F2F2F",
"d	g #6C6C6C",
"e	g #646464",
"f	g #363636",
"g	g #2E2E2E",
"h	g #606060",
"i	g #7C7C7C",
"j	g #595959",
"k	g #454545",
"l	g #555555",
"m	g #4D4D4D",
"n	g #494949",
"o	g #4F4F4F",
"p	g #262626",
"q	g #5D5D5D",
"r	g #404040",
"s	g #444444",
"t	g #484848",
"u	g #242424",
"v	g #474747",
"w	g #222222",
"x	g #313131",
"y	g #3C3C3C",
"z	g #1E1E1E",
"A	g #161616",
"                ",
"       .        ",
"      +@#       ",
"     $%&*=      ",
"    -;> ,')     ",
"   >!~   >{]    ",
"  ^/(     _     ",
" (:<    [}|123  ",
".45    67890abc ",
" d$e    1fg|gg  ",
"  hij     k     ",
"   ldm   nop    ",
"    nqr stu     ",
"     })v[w      ",
"      xyz       ",
"       A        "};
