/* XPM */
static char * so_xpm[] = {
"16 15 31 1",
" 	c None",
"!	c #C3C3C3",
"#	c #181818",
"$	c #4D4D4D",
"%	c #AEAEAE",
"&	c #626262",
"/	c #0C0C0C",
"(	c #333333",
")	c #EEEEEE",
"=	c #757575",
"+	c #F3F3F3",
"*	c #D2D2D2",
"-	c #131313",
"[	c #5A5A5A",
"]	c #8B8B8B",
"{	c #CCCCCC",
"}	c #E4E4E4",
"<	c #2B2B2B",
">	c #424242",
",	c #DCDCDC",
".	c #A2A2A2",
"|	c #6D6D6D",
"@	c #9C9C9C",
"~	c #222222",
"'	c #BBBBBB",
"?	c #7A7A7A",
"0	c #959595",
"1	c #3D3D3D",
"2	c #B3B3B3",
"3	c #868686",
"4	c #525252",
"                ",
"   !#$%&/#(     ",
"  ))=%+*(-#$[   ",
" ]{}}}*}<(#/->  ",
"!)}+},!!.|@-/~  ",
",),*{!*''%@@#[  ",
"?'**!(>!..0</1= ",
" *!!?>~]20|#(/( ",
"{{!2@$<[.?][[(# ",
"{{22@0-3]=|[4(# ",
" ]]@0.!.&&&#(## ",
"  ]]3|?=[[(///4 ",
"  ??||[[4$>(/   ",
"   =#<44>>$>/   ",
"     >><//@     "};
