/* XPM */
static char * sportal16_xpm[] = {
"16 16 62 1",
" 	c None",
".	c #000000",
"+	c #555540",
"@	c #FFFFC0",
"#	c #808060",
"$	c #BFBF60",
"%	c #707000",
"&	c #FFFF90",
"*	c #FFFF60",
"=	c #FFFF30",
"-	c #555500",
";	c #BF8B56",
">	c #D09630",
",	c #EFEF00",
"'	c #606000",
")	c #808000",
"!	c #BF986A",
"~	c #A05616",
"{	c #A8A8A8",
"]	c #B6B6B6",
"^	c #969696",
"/	c #8C8C8C",
"(	c #808080",
"_	c #777777",
":	c #D0D0D0",
"<	c #909090",
"[	c #424282",
"}	c #2C2C9C",
"|	c #2C2C7C",
"1	c #6C6C8C",
"2	c #ACACAC",
"3	c #C0C0C0",
"4	c #2C2CAC",
"5	c #0000EF",
"6	c #0000D0",
"7	c #0000B0",
"8	c #000090",
"9	c #9696B6",
"0	c #A0A0A0",
"a	c #9696D5",
"b	c #8080FF",
"c	c #8080E0",
"d	c #6868A9",
"e	c #7C7C7E",
"f	c #A8A8AB",
"g	c #A0A0A4",
"h	c #EFEFEF",
"i	c #E0E0E0",
"j	c #B0B0B0",
"k	c #6E6E6E",
"l	c #4D4D4D",
"m	c #E7E7E8",
"n	c #787878",
"o	c #FFFFFF",
"p	c #EEEEEE",
"q	c #505052",
"r	c #9A9A9A",
"s	c #9C9C9C",
"t	c #CCCCCC",
"u	c #939395",
"v	c #BEBEC0",
"w	c #404040",
"   .+  .        ",
"   .@#$%        ",
"   +&&*.        ",
"  +&**=-        ",
"   ;>,').       ",
"  !~-)          ",
" !~{]^/((((((((.",
"!~_:<[}}||12222.",
"~^3.34567892222.",
" /0:<abccdeeeee.",
" (3333333fggggg.",
" (3hiiiij((_klg.",
" (3imn33hoopqrg.",
" (3is33:oooterg.",
" (3nnnnuvvvvvvg.",
" w.....qqqqqqqq."};
