/* XPM */
static char * Spreadsheet_xpm[] = {
"16 15 13 1",
".	c #000000",
"#	c None",
"a	c #202020",
"b	c #353535",
"c	c #404040",
"d	c #606060",
"e	c #6B6B6B",
"f	c #808080",
"g	c #A0A0A0",
"h	c #C0C0C0",
"i	c #D6D6D6",
"j	c #DEDEDE",
"k	c #FFFFFF",
"kkkikkkikkkikkke",
"khhekhhekhhekhh.",
"geebebbbebbbebb.",
"kkkekkkhkkkhkkk.",
"khhbkkkhkkkhkkk.",
"geebhhhhhhhhhhh.",
"kkkekkkhkkkhkkk.",
"khhbkkkhkkkhkkk.",
"geebhhhhhhhhhhh.",
"kkkekkkhkkkhkkk.",
"khhbkkkhkkkhddda",
"geebhhhhhhhhdkhc",
"kkkekkkhkkkgfhcg",
"khhbkkkhkjhdhcf#",
"b..........acg##"};
