/* XPM */
static char * student16_xpm[] = {
"16 15 55 1",
" 	c #49243CF34103",
".	c #965871C671C6",
"X	c #79E75D756185",
"o	c #A69986178617",
"O	c #D75CCF3CCF3C",
"+	c #96588E388E38",
"@	c #104008200820",
"#	c #69A659655965",
"$	c #DF7DD34CD75C",
"%	c #965892489658",
"&	c #8E3865956185",
"*	c #CF3CC71BC71B",
"=	c #69A661856185",
"-	c #28A218611861",
";	c #861779E779E7",
":	c #B6DAAEBAAEBA",
">	c #E79DE38DDF7D",
",	c #EFBEEBADEFBE",
"<	c #B6DA9E799E79",
"1	c #38E3249228A2",
"2	c #596541034103",
"3	c #082000000000",
"4	c #49242CB230C2",
"5	c #208114511861",
"6	c #C71BBAEAB6DA",
"7	c #F7DEF3CEF7DE",
"8	c #FFFFFBEEFFFF",
"9	c #38E32CB230C2",
"0	c #28A2208128A2",
"q	c #9E7979E779E7",
"w	c #186110401861",
"e	c #61854D345144",
"r	c #082008200820",
"t	c #71C671C671C6",
"y	c #A69992488E38",
"u	c #000000000000",
"i	c #AEBAA699AEBA",
"p	c #71C64D345144",
"a	c #E79DDB6CDF7D",
"s	c #BEFBBAEAB6DA",
"d	c #BEFBA699A699",
"f	c #AEBA92489658",
"g	c #DF7DDB6CD75C",
"h	c #A6999A699E79",
"j	c #C71BB2CAAEBA",
"k	c #38E328A228A2",
"l	c #596551445144",
"z	c #8E3886178E38",
"x	c #30C2208128A2",
"c	c #F7DEEFBEEFBE",
"v	c #B6DAB2CAB6DA",
"b	c #AEBAA289A699",
"n	c #514434D338E3",
"m	c #514441034103",
"M	c #28A228A228A2",
" .XoO+.O@#$%&*O=",
"-;+:>,<1234>**;@",
"526$7890qowe#rr3",
"<32,7t9q67yur&.&",
"OowOewq<7irp@2Oa",
"s,6%5qd>8uXod3f7",
"g7h0qj88h&o78ak3",
"$lrqj788>o6888$X",
"zx.<78888$c888vw",
"rxx t<>888888>r#",
"bnnnxw30v88885.q",
">,a<pdjfmu=7 &@M",
"t=hg4j77O&@2w.09",
"94#$9d888,bupqpm",
"j<da-X<v>872&tew"};
