/* XPM */
static char * usb16_xpm[] = {
"16 16 102 2",
"  	c None",
". 	c #272727",
"+ 	c #262626",
"@ 	c #222222",
"# 	c #E7E7E7",
"$ 	c #EFEFEF",
"% 	c #F4F4F4",
"& 	c #EEEEEE",
"* 	c #BABABA",
"= 	c #414141",
"- 	c #DCDCDC",
"; 	c #DFDFDF",
"> 	c #E1E1E1",
", 	c #D9D9D9",
"' 	c #898989",
") 	c #353535",
"! 	c #D3D3D3",
"~ 	c #C6C6C6",
"{ 	c #E0E0E0",
"] 	c #C1C1C1",
"^ 	c #858585",
"/ 	c #2E2E2D",
"( 	c #D4D4D4",
"_ 	c #E6E6E6",
": 	c #CDCDCD",
"< 	c #8E8E8E",
"[ 	c #313130",
"} 	c #D7D7D7",
"| 	c #D1D1D1",
"1 	c #777777",
"2 	c #2E2D2C",
"3 	c #2A2A2A",
"4 	c #7B7B7B",
"5 	c #6C6C6C",
"6 	c #767676",
"7 	c #717171",
"8 	c #676869",
"9 	c #313335",
"0 	c #212220",
"a 	c #B2B6BB",
"b 	c #BFCBD9",
"c 	c #B2BECD",
"d 	c #BBC7D4",
"e 	c #B6C2D0",
"f 	c #A8B8CA",
"g 	c #8B9CB0",
"h 	c #2C333A",
"i 	c #919CA9",
"j 	c #8DA0B6",
"k 	c #8EA1B8",
"l 	c #718296",
"m 	c #8B9EB6",
"n 	c #9FB0C6",
"o 	c #7E91A7",
"p 	c #22282E",
"q 	c #909BA8",
"r 	c #889AB1",
"s 	c #7E91A9",
"t 	c #3D4854",
"u 	c #708298",
"v 	c #9BADC2",
"w 	c #8093AA",
"x 	c #20262D",
"y 	c #8592A1",
"z 	c #889BB2",
"A 	c #475463",
"B 	c #414D5B",
"C 	c #45515F",
"D 	c #96A7BB",
"E 	c #8396AC",
"F 	c #20252C",
"G 	c #8A9DB3",
"H 	c #606F81",
"I 	c #29323B",
"J 	c #6F8196",
"K 	c #9CADC4",
"L 	c #8395AB",
"M 	c #1A1F25",
"N 	c #929DAA",
"O 	c #93A5BB",
"P 	c #93A4BA",
"Q 	c #566473",
"R 	c #8D9EB3",
"S 	c #9EAFC5",
"T 	c #8597AD",
"U 	c #8A96A4",
"V 	c #A0B0C5",
"W 	c #96A8BD",
"X 	c #8FA2B9",
"Y 	c #6C7D90",
"Z 	c #181C22",
"` 	c #39434F",
" .	c #475362",
"..	c #66798F",
"+.	c #64768B",
"@.	c #495666",
"#.	c #2A323C",
"$.	c #13171C",
"%.	c #525B67",
"&.	c #6A7F97",
"*.	c #6E839A",
"=.	c #2C343D",
"          . + +   @             ",
"          # $ % & * =           ",
"          - ; > , ' )           ",
"          ! ~ { ] ^ /           ",
"          ! ( _ : < [           ",
"          } - | ~ 1 2           ",
"        3 4 5 6 7 8 9 0         ",
"        a b c d e f g h         ",
"        i j k l m n o p         ",
"        q r s t u v w x         ",
"        y z A B C D E F         ",
"        q G H I J K L M         ",
"        N O P Q R S T M         ",
"        U V W O W X Y Z         ",
"          `  ...+.@.#.$.        ",
"            %.&.*.=.            "};
