/* XPM */
static char * wizard_xpm[] = {
"18 18 10 1",
" 	c None",
".	c #000000",
"+	c #FFFFC0",
"@	c #FFFF00",
"#	c #C0C000",
"$	c #FFFFFF",
"%	c #DCDCDC",
"&	c #C3C3C3",
"*	c #808080",
"=	c #303030",
"          .+      ",
"       .+ .@ .+   ",
"        .@#@#@    ",
"         #+++#    ",
"      .+@@+$+@@+  ",
"        .#+++#    ",
"       .$@#@#@    ",
"      .$+$.@ .+   ",
"     .$%&..+      ",
"    .$%&.         ",
"   .&*&.          ",
"  .&*=.           ",
" .&*=.            ",
".&*=.             ",
"&*=.              ",
"*=.               ",
"                  ",
"                  "};
