/* XPM */
static char * x16_xpm[] = {
"16 16 18 1",
" 	c None",
".	c #D59399",
"+	c #D7D7D7",
"@	c #D46670",
"#	c #D22232",
"$	c #D4717A",
"%	c #D6B5B8",
"&	c #D22D3C",
"*	c #D7CCCD",
"=	c #D34451",
"-	c #D34F5B",
";	c #D33947",
">	c #D59EA3",
",	c #D5888F",
"'	c #D47C84",
")	c #D6AAAE",
"!	c #D45B66",
"~	c #D6C0C2",
".+++@#########$%",
"&%++*=#######-*&",
"#=*++%&#####;*=#",
"##@+++.####&%@##",
"###.+++@###>,###",
"###&%++*=#')####",
"####=*++%!~&####",
"#####@++,*=#####",
"######~.~+@#####",
"#####').++*=####",
"####!~&=*++%&###",
"###=~=##@+++.###",
"##&~!####.+++@##",
"##)'#####&%++*=#",
"#,>#######=*++%&",
"@%&########@+++."};
