/* XPM */
static char *xterm16_xpm[] = {
"15 14 5 1",
"0	c #63B6FF",
"1	c #000000",
"2	c #FFFFFF",
"3	c #737173",
"4	c #8C8A8C",
"000000000000000",
"010101000000110",
"000000000000000",
"022222222222220",
"023333332444220",
"022223224222320",
"024442332423220",
"022224222222220",
"023332333322220",
"022224222222220",
"023244442233320",
"022222222222220",
"022222222222220",
"000000000000000"
};
