<?xml version="1.0" encoding="UTF-8"?>
<svg xmlns="http://www.w3.org/2000/svg" version="1.1" height="256px" width="256px" viewBox="0 0 100 100">
  <path style="fill:#ffffff;stroke:none;" d="m 65,3 0,19 19,0 z"/>
  <path style="fill:#EBEBDA;stroke:#777777;stroke-width:2;" d="m 65,3 0,19 19,0 0,74 -72,0 0,-93 53,0 19,19"/>
  <path style="stroke:#222222;stroke-width:2.0;" d="m 23 20 0 10 z m 10 0 0 10 z m 20 0 0 10 z m 10 0 0 10 z m 10 3 0 7"/>
  <path style="stroke:#222222;stroke-width:2.0;fill:none;" d="m 41 28 a 3 4.5 1 1 1 1 1 z"/>
  <path style="stroke:#222222;stroke-width:2.0;" d="m 33 36 0 10 z m 10 0 0 10 z m 20 0 0 10 z m 10 0 0 10"/>
  <path style="stroke:#222222;stroke-width:2.0;fill:none;" d=" m 21 44 a 3 4.5 1 1 1 1 1 z m 30 0 a 3 4.5 1 1 1 1 1 z"/>
  <path style="stroke:#222222;stroke-width:2.0;" d="m 23 52 0 10 z m 10 0 0 10 z m 20 0 0 10 z m 10 0 0 10 z m 10 0 0 10"/>
  <path style="stroke:#222222;stroke-width:2.0;fill:none;" d="m 41 60 a 3 4.5 1 1 1 1 1 z"/>
  <path style="stroke:#222222;stroke-width:2.0;" d="m 33 68 0 10 z m 10 0 0 10 z m 20 0 0 10 z m 10 0 0 10"/>
  <path style="stroke:#222222;stroke-width:2.0;fill:none;" d=" m 21 76 a 3 4.5 1 1 1 1 1 z m 30 0 a 3 4.5 1 1 1 1 1 z"/>
</svg>
