<?xml version="1.0" encoding="UTF-8"?>
<svg xmlns="http://www.w3.org/2000/svg" version="1.1" height="256px" width="256px" viewBox="0 0 100 100">
  <path style="fill:#ffffff;stroke:none;" d="m 65,3 0,19 19,0 z"/>
  <path style="fill:#EBEBDA;stroke:#777777;stroke-width:2;" d="m 65,3 0,19 19,0 0,74 -72,0 0,-93 53,0 19,19"/>
  <defs>
  <linearGradient id="cd" x1="0%" y1="0%" x2="100%" y2="100%">
  <stop offset="0%" stop-color="#654"/>
  <stop offset="50%" stop-color="#dcb"/>
  <stop offset="100%" stop-color="#654"/>
  </linearGradient>
  <linearGradient id="od" x1="0%" y1="0%" x2="100%" y2="100%">
  <stop offset="0%" stop-color="#CAC9C4"/>
  <stop offset="50%" stop-color="#dcb"/>
  <stop offset="100%" stop-color="#CAC9C4"/>
  </linearGradient>
  </defs>
  <path stroke="url(#od)" fill="none" stroke-width="22" d="M30 31A1 1 0 1 0 55 51A1 1 0 1 0 30 31z"/>
  <path stroke="url(#cd)" fill="none" stroke-width="22" d="M41 53A1 1 0 1 0 66 73A1 1 0 1 0 41 53z"/>
</svg>
