<?xml version="1.0" encoding="UTF-8"?>
<svg xmlns="http://www.w3.org/2000/svg" version="1.1" height="256px" width="256px" viewBox="0 0 100 100">
  <path style="fill:#E3E3BF;" d="m 19,4 62,0 q 5,0 5,5 l 0,82 q 0,5 -5,5 l -62,0 q -5,0 -5,-5 l 0,-82 q 0,-5 5,-5 z"/>
  <g style="fill:none;stroke:#4B2B14;stroke-width:2;">
  <path d="m 45 50 a 20 2 0 1 0 20 1"/>
  <path d="m 45 58 a 15 2 0 1 0 15 1"/>
  <path d="m 45 66 a 12 2 0 1 0 12 1"/>
  <path d="m 45 74 a 25 2 0 1 0 25 1"/>
  <path d="m 45 45 a 8 9 0 0 0 -1 -12 a 8 9 0 0 1 1 -12"/>
  <path d="m 55 47 a 7 8 0 0 0 -2 -13 a 8 9 0 0 1 2 -13"/>
  </g>
</svg>
