<?xml version="1.0" encoding="UTF-8"?>
<svg xmlns="http://www.w3.org/2000/svg" version="1.1" height="48" width="48" viewBox="0 0 100 100">

  <path style="fill:#E3E3BF;" d="m 42,22 45,0 q 4,0 4,4 l 0,67 q 0,4 -4,4 l -45,0 q -4,0 -4,-4 l 0,-67 q 0,-4 4,-4 z"/>
  <path style="fill:none;stroke:#444444;stroke-width:2px;" d="m 43,47 40,0 -40,0 z m 0,7 40,0 -40,0 z m 0,5 40,0 -40,0 z m 0,7 17,0 -17,0 z m 0,9 40,0 -40,0 z"/>

  <path style="fill:#CF9100" d="M 46,80 90,32 c 0,0 4,1 6,4 2,2 2,5 2,5 L 55,87 44,90 z"/>
  <path style="fill:#eeeeee" d="M 89,36 49,80 51,81 91,37 z"/>
  <path style="fill:#333333" d="m 44,90 4,-1 -3,-4 z"/>
  <g transform="scale(0.65)"> 
    <ellipse cx="50" cy="50" rx="48" ry="48" style="fill:#3E3AF3"/>
    <path d="M 11,90 Q 49,66 61,31 C 69,-7 101,9 80,23 C 101,32 88,72 40,76 Q 30,88 11,90 z" style="fill:none;stroke:#CCC;stroke-width:5px;stroke-linecap:round" />
    <path d="M 10,88 Q 48,64 60,29 C 68,-5 100,7 79,21 C 100,30 87,70 39,74 Q 29,86 10,88 z" style="fill:none;stroke:#FFF;stroke-width:5px;stroke-linecap:round" />
  </g>  
</svg>
