<?xml version="1.0" encoding="UTF-8"?>
<svg xmlns="http://www.w3.org/2000/svg" version="1.1" height="48" width="48" viewBox="0 0 100 100">
  <path style="fill:#C4C48B" d="m 3,16 94,0 0,68 -94,0 z"/>
  <path style="fill:#EAEAAB" d="m 4,16 34,33 c 7,7 15,7 23,0 L 96,16 z"/>
  <g transform="scale(0.55)"> 
    <ellipse cx="50" cy="50" rx="48" ry="48" style="fill:#3E3AF3"/>
    <path d="M 11,90 Q 49,66 61,31 C 69,-7 101,9 80,23 C 101,32 88,72 40,76 Q 30,88 11,90 z" style="fill:none;stroke:#CCC;stroke-width:5px;stroke-linecap:round" />
    <path d="M 10,88 Q 48,64 60,29 C 68,-5 100,7 79,21 C 100,30 87,70 39,74 Q 29,86 10,88 z" style="fill:none;stroke:#FFF;stroke-width:5px;stroke-linecap:round" />
  </g>
  
</svg>
