<?xml version="1.0" encoding="UTF-8"?>
<svg xmlns="http://www.w3.org/2000/svg" version="1.1" height="32px" width="32px" viewBox="0 0 100 100">
  <path style="fill:#C8A95F;" d="m 10,30 80,0 q 5,0 5,5 l 0,55 q 0,5 -5,5 l -80,0 q -5,0 -5,-5 l 0,-55 q 0,-5 5,-5 z"/>
  <path style="fill:#D0CEA9;fill-opacity:0.7" d="m 10,30 37,0 q 3,0 3,3 q 0,3 3,3 l 37,0 q 5,0 5,5 l 0,49 q 0,5 -5,5 l -80,0 q -5,0 -5,-5 l 0,-55 q 0,-5 5,-5 z"/>
  <path style="fill:#777;fill-rule:evenodd;" d="m 40,45 20,0 0,30 10,0 -20,10 -20,-10 10,0 z"/>
</svg>
