<?xml version="1.0" encoding="UTF-8"?>
<svg xmlns="http://www.w3.org/2000/svg" version="1.1" height="16px" width="16px" viewBox="0 0 100 100">
  <path style="fill:#C8A95F;" d="m 10,30 80,0 q 5,0 5,5 l 0,55 q 0,5 -5,5 l -80,0 q -5,0 -5,-5 l 0,-55 q 0,-5 5,-5 z"/>
  <path style="fill:#D0CEA9;fill-opacity:0.7" d="m 10,30 37,0 q 3,0 3,3 q 0,3 3,3 l 37,0 q 5,0 5,5 l 0,49 q 0,5 -5,5 l -80,0 q -5,0 -5,-5 l 0,-55 q 0,-5 5,-5 z"/>
  <g transform="scale(0.4)">
  <path style="fill:#FF8500;stroke:#825B0A;stroke-width:4" d="M 98,43 74,66 79,99 49,84 19,99 25,66 1,42 34,37 49,7 64,37 z"/>
  </g>
</svg>
