<?xml version="1.0" encoding="UTF-8"?>
<svg xmlns="http://www.w3.org/2000/svg" version="1.1" height="16px" width="16px" viewBox="0 0 100 100">
  <g style="fill:#888888;stroke:#000000;stroke-width:1px;">
  <path style="fill:#EBEBDA" d="M 19,44 19,3 81,3 81,44"/>
  <path style="stroke-width:2px;" d="M 26 10 L 74 10 L 26 10 z M 26 17 L 74 17 L 26 17 z M 26 24 L 74 24 L 26 24 z M 26 31 L 46 31 L 26 31 z M 26 39 L 74 39 L 26 39 z "/>
  <path style="fill:#444444" d="m 5,89 c 0,4 -1,7 4,7 0,0 79,0 82,0 3,0 4,-1 4,-7"/>
  <path d="m 4,54 5,-10 81,0 6,10"/>
  <path d="m 9,53 c -6,0 -7,1 -7,6 l 0,24 c 0,4 0,6 5,6 l 84,0 c 4,0 7,0 7,-5 l 0,-27 c 0,-2 -1,-4 -6,-4 z"/>
  <path style="fill:#666666" d="m 14,57 c -4,0 -5,1 -5,5 0,2 -1,6 4,6 l 66,0 c 4,0 5,-1 5,-6 0,-4 -1,-5 -5,-5 z"/>
  <ellipse cx="16" cy="62.5" rx="3" ry="3" style="fill:#00BC02;stroke:#111111"/>
  </g>
</svg>
