<?xml version="1.0" encoding="UTF-8"?>
<svg xmlns="http://www.w3.org/2000/svg" version="1.1" height="64px" width="64px" viewBox="0 0 192 192">
  <circle cx="96" cy="96" r="88" style="fill:#5B4904;stroke:#222"/>
  <circle cx="96" cy="96" r="84" style="fill:#A8965D;stroke:#FFEF7C"/>
  <path style="fill:#5B4904" d="m 96,100 0,-14 -14,0 -3,-10 a 20,20 1 1 1 38,-2 l 14,0 a 34,34 1 1 0 -66,5 l 2,7 -7,0 0,14 10,0 a 24,24 0 0 1 -10,30 l 6,13 a 24,24 0 0 1 24,-6 a 48,48 0 0 0 40,0 l -6,-13 a 34,34 0 0 1 -30,0 a 38,38 0 0 0 -11,-3 a 38,38 0 0 0 2,-21 z"/>
  <path style="fill:#F2E9D2" d="m 90,106 0,-14 -14,0 -3,-10 a 20,20 1 1 1 38,-2 l 14,0 a 34,34 1 1 0 -66,5 l 2,7 -7,0 0,14 10,0 a 24,24 0 0 1 -10,30 l 6,13 a 24,24 0 0 1 24,-6 a 48,48 0 0 0 40,0 l -6,-13 a 34,34 0 0 1 -30,0 a 38,38 0 0 0 -11,-3 a 38,38 0 0 0 2,-21 z"/>
</svg>
