<?xml version="1.0" encoding="UTF-8"?>
<svg xmlns="http://www.w3.org/2000/svg" version="1.1" height="64px" width="64px" viewBox="0 0 192 192">
  <g transform="scale(0.7)">
  <g transform="translate(15,15)">
  <path style="fill:#EDEDED;stroke:#919191;stroke-width:6;" d="m 40,10 108,0 a 12 12 0 0 1 12,12  l 0,168 a 12,12 0 0 1 -12,12 l -108,0 a 12,12 0 0 1 -12,-12 l 0,-168 a 12,12 0 0 1 12,-12 z"/>
  <path style="fill:#919191;" d="m 50,50 88,0 0,20 -88,0 z"/>
  <circle style="fill:#4CAF50;" cx="45" cy="25" r="6"/>
  </g>
  <g transform="translate(65,65)">
  <path style="fill:#616161;stroke:#9E9E9E;stroke-width:6;" d="m 25,40 148,0 a 12 12 0 0 1 12,12  l 0,108 a 12,12 0 0 1 -12,12 l -148,0 a 12,12 0 0 1 -12,-12 l 0,-108 a 12,12 0 0 1 12,-12 z"/>
  </g>
  </g>
</svg>
