<?xml version="1.0" encoding="UTF-8"?>
<svg xmlns="http://www.w3.org/2000/svg" version="1.1" height="100" width="100">

   <path  style="fill:#E0C93F;" d="M 45,90 45,50 4,32 16,28 16,24 c 0,0 3,-7 20,-2 l 6,-3 0,-4 c 0,0 7,-6 21,0 l 0,4 8,4 c 0,0 15,-2 14,5 l 11,5 0,39 z"/>
   <path  style="fill:#9A7522;" d="m 58,34 0,8 c 0,0 -10,6 -21,0 l 0,-8 c 0,0 13,6 21,0 z m 6,-8 0,8 c 0,0 8,7 21,0 l 0,-8 c 0,0 -10,6 -21,0 z m -22,-10 0,8 c 0,0 11,7 21,-1 l 0,-7 c 0,0 -11,6 -21,0 z m -26,8 0,8 c 0,0 11,7 21,-1 l 0,-7 c 0,0 -11,6 -21,0 z M 4,32 4,71 45,90 45,50 z"/>

</svg>
