<?xml version="1.1" encoding="UTF-8"?>
<svg height="100" width="100">

  <defs>
    <mask id="mask_circle">
      <circle cx="50" cy="50" r="50" fill="white"/>
      <circle cx="50" cy="50" r="12" fill="black"/>
    </mask>
    <linearGradient id="LGD">
      <stop style="stop-color:#666666;stop-opacity:1" offset="0" />
      <stop style="stop-color:#cccccc;stop-opacity:1" offset="1" />
    </linearGradient>
    <linearGradient x1="20" y1="60" x2="60" y2="40" xlink:href="#LGD" id="Gradient" gradientUnits="userSpaceOnUse" />
  </defs>

  <circle cx="50" cy="50" r="46" style="fill:url(#Gradient);stroke:#222222;stroke-width:2" mask="url(#mask_circle)"/>
  <circle cx="50" cy="50" r="12" fill="none" stroke="#222222" style="stroke-width:2" />

  <circle cx="27" cy="27" r="24" style="fill:#F1AB24;stroke:#875900;stroke-width:2;fill-opacity:0.8;stroke-opacity:0.6"/>
  <path fill="#333333" d="m 27,7 c -4,0 -9,2 -11,6 -1,2 -1,9 -1,9 0,0 -2,0 -3,0 0,5 0,11 0,17 0,3 4,6 7,6 6,0 11,0 17,0 2,0 6,-3 6,-6 0,-6 0,-11 0,-17 -2,0 -2,0 -3,0 0,0 0,-6 -1,-9 C 36,9 31,7 27,7 z m 8,9 0,6 -16,0 c 0,-6 0,-6 0,-6 0,-4 5,-5 8,-5 3,0 8,1 8,5 z m -9,10 c 4,0 5,4 2,6 l 2,8 -7,0 2,-8 c -3,-2 -2,-6 1,-6 z"/>

</svg>
