<?xml version="1.0" encoding="UTF-8"?>
<svg xmlns="http://www.w3.org/2000/svg" version="1.1" height="100" width="100">

  <path style="fill:#222" d="M 1,1 1,100 100,100 100,1 z"/>
  <path style="fill:#aade87;stroke:none;" d="m 77.6,82 1.9,-3.8 h 10 l 2.1,3.8 -2.1,3.8 h -10 z M 89.8,77.4 V 56.2 l 2.1,-3.8 1.8,3.8 v 21.2 l -1.8,3.1 z m -14.4,0 V 56.2 l 1.9,-3.8 1.8,3.8 v 21.2 l -1.9,3.1 z M 89.8,45.6 V 24.5 l 2,-3.8 1.8,3.8 v 21.1 l -1.8,3.7 z M 77.6,19.8 79.4,15.9 h 10.1 l 1.8,3.9 -1.8,3.7 H 79.4 Z m -2.3,25.8 v -21 l 1.9,-3.8 1.8,3.8 v 21 l -1.9,3.7 z M 57,81.2 58.8,77.4 H 69 L 70.9,81.2 69,85 H 58.8 Z M 69.2,76.7 V 55.4 l 2,-3.7 1.8,3.7 v 21.3 l -1.8,3.8 z M 56.9,50.1 58.7,46.3 H 69 l 1.8,3.8 -1.8,3.8 H 58.7 Z M 69.2,45.6 V 24.5 l 1.9,-3.9 1.8,3.9 v 21.1 l -1.8,3.7 z M 56.9,19.7 58.7,15.8 h 10.2 l 1.8,3.9 -1.8,3.7 H 58.7 Z m -26.1,62 1.8,-3.8 h 10.2 l 1.9,3.8 -1.9,3.7 H 32.6 Z M 43,77.1 V 55.9 l 2,-3.9 1.8,3.9 v 21.2 l -1.8,3 z m -14.4,0 V 55.9 l 1.8,-3.9 1.9,3.9 v 21.2 l -2,3 z M 43,45.8 V 24.6 l 1.9,-3.9 1.8,3.9 v 21.2 l -1.8,3.4 z M 30.7,19.8 32.5,16 h 10.2 l 1.8,3.8 -1.8,3.7 H 32.5 Z M 28.5,45.9 V 24.6 l 1.8,-3.8 1.9,3.8 v 21.3 l -2,3.5 z M 10.1,81.5 12,77.7 h 10.2 l 1.8,3.8 -1.8,3.8 H 12 Z M 7.93,76.8 V 55.6 l 1.9,-3.8 1.77,3.8 v 21.2 l -1.87,3.7 z m 2.17,-26.3 1.8,-3.9 h 10.2 l 1.9,3.9 -1.9,3.7 H 11.9 Z M 22.4,45.7 V 24.5 l 1.8,-3.9 1.9,3.9 v 21.2 l -1.9,3.4 z m -12.3,-26 1.8,-3.8 H 22 l 1.9,3.8 -1.9,3.8 H 11.9 Z m 39.8,18.5 c -0.7,-0.6 -1,-1.9 -0.9,-3.4 0.1,-2.5 1.7,-3.7 2.6,-2 1,1.4 0.8,4.3 -0.2,5.4 -0.4,0.4 -1.2,0.6 -1.5,0 z M 50,68.7 c -0.9,-0.8 -1.2,-2.8 -0.9,-4.6 0.3,-1 0.7,-1.7 1.4,-1.7 0.5,0 0.7,0 0.9,0.3 1,1 1.2,3.9 0.3,5.3 -0.3,0.9 -1.2,1.1 -1.7,0.7 z"/>
  <path style="fill:#333;stroke:none;" d="m 77.6,50.1 1.8,-3.8 h 10.1 l 1.9,3.8 -1.9,4.6 H 79.4 Z M 54.8,76.7 V 55.4 l 1.8,-3.7 1.9,3.7 v 21.3 l -2,3.8 z M 54.7,45.6 V 24.5 l 1.8,-3.8 1.9,3.8 v 21.1 l -2,3.7 z m -24,5 1.8,-3.9 h 10.3 l 1.8,3.9 -1.8,3.7 H 32.5 Z M 22.4,76.8 V 55.5 l 1.9,-3.7 1.9,3.7 v 21.3 l -1.9,3.3 z M 7.93,45.8 V 24.6 l 1.8,-3.9 1.77,3.9 v 21.2 l -1.87,3.5 z"/>

</svg>
