<?xml version="1.0" encoding="UTF-8"?>
<svg xmlns="http://www.w3.org/2000/svg" version="1.1" height="100" width="100">

  <path style="fill:#222;stroke:#ccc" d="m 70,77 9,9 8,-1 L 74,74 z M 34,80 24,94 32,93 38,82 z M 58,11 77,21 C 81,7 67,1 58,11 z M 15,31 30,16 C 19,7 7,18 15,31 z"/>
  <path style="fill:none;stroke:#ccc;;stroke-width:3;stroke-linecap:round" d="m 87,22 c 6,6 10,16 8,31 M 85,28 c 4,6 6,12 5,21 M 11,42 c -3,7 -1,16 2,22 M 8,37 c -6,7 -4,25 2,31"/>
  <path style="fill:none;stroke:#777;;stroke-width:2;stroke-linecap:round" d="m 87,22 c 6,6 10,16 8,31 M 85,28 c 4,6 6,12 5,21 M 11,42 c -3,7 -1,16 2,22 M 8,37 c -6,7 -4,25 2,31"/>

  <circle style="fill:none;stroke:#aaa;stroke-width:3" cx="50" cy="50" r="34"/>
  <circle style="fill:#427597" cx="50" cy="50" r="32"/>
  <circle style=";stroke-width:5pt;stroke:#222222;fill:none;" cx="50" cy="50" r="30"/>
  <g style="fill:#aaaaaa;">
    <circle cx="45" cy="21" r="2.5"/>
    <circle cx="79" cy="45" r="2.5"/>
    <circle cx="55" cy="79" r="2.5"/>
    <circle cx="21" cy="55" r="2.5"/>
  </g>
  <path style="stroke:#fff;stroke-width:4;fill:none;" d="M 50,50 40,30"/>
  <path style="stroke:#fff;stroke-width:3;fill:none;" d="M 50,50 39,72"/>
  <circle style="fill:#fff;" cx="50" cy="50" r="3.5"/>

</svg>
