<?xml version="1.0" encoding="UTF-8"?>
<svg xmlns="http://www.w3.org/2000/svg" version="1.1" height="100" width="100">

  <defs>
    <linearGradient x1="20" y1="60" x2="60" y2="40" id="LG1" gradientUnits="userSpaceOnUse">
      <stop style="stop-color:#666;stop-opacity:1" offset="0" />
      <stop style="stop-color:#bbb;stop-opacity:1" offset="1" />
    </linearGradient>
    <linearGradient x1="20" y1="60" x2="60" y2="40" id="LG2" gradientUnits="userSpaceOnUse">
      <stop style="stop-color:#ccc;stop-opacity:1" offset="0" />
      <stop style="stop-color:#666;stop-opacity:1" offset="1" />
    </linearGradient>
    <linearGradient x1="20" y1="60" x2="60" y2="40" id="LG3" gradientUnits="userSpaceOnUse">
      <stop style="stop-color:#666;stop-opacity:1" offset="0" />
      <stop style="stop-color:#798C9E;stop-opacity:1" offset="1" />
    </linearGradient>
  </defs>

  <ellipse cx="50" cy="50" rx="49" ry="49" style="fill:url(#LG1);stroke:#999;stroke-width:0.5"/>
  <ellipse cx="50" cy="50" rx="43" ry="43" style="fill:url(#LG2);stroke:#ddd;stroke-width:3"/>
  <ellipse cx="50" cy="50" rx="38" ry="38" style="fill:url(#LG3);stroke:#555;stroke-width:2"/>
  <path style="fill:#fff;stroke:#fff;stroke-width:0.5" d="M 54,53 27,77 47,47 z m -0.3,-26.6 0,-7.4 c 0,-0.8 0.1,-1.4 0.4,-1.5 0.2,-0.2 0.4,-0.2 0.9,-0.3 l 0,-0.3 -3.3,0 0,0.3 c 0.5,0 0.7,0.1 0.9,0.2 0.3,0.2 0.5,0.7 0.5,1.6 l 0,4.7 -5.4,-6.8 -2.4,0 0,0.3 c 0.6,0 0.8,0.1 1.3,0.8 l 0,6.1 c 0,1.5 -0.2,1.8 -1.3,1.8 l 0,0.3 3.3,0 0,-0.3 c -1.1,0 -1.4,-0.3 -1.4,-1.8 l 0,-5.4 6.2,7.7 0.3,0 m -36.4,17.7 0.1,2.8 0.3,0 c 0.1,-0.7 0.2,-1 0.6,-1 0.3,0 0.6,0.1 1,0.3 l 4.8,1.6 -4.8,2 c -0.1,0 -0.4,0.1 -0.4,0.1 -0.3,0.2 -0.6,0.2 -0.7,0.2 -0.4,0 -0.5,-0.3 -0.5,-1 l -0.3,0 0,3.7 0.3,0 c 0,-0.8 0.1,-0.9 1.2,-1.4 l 1.2,-0.5 3.9,1.4 -5.1,2.1 c -0.3,0.1 -0.5,0.2 -0.7,0.2 -0.3,0 -0.4,-0.2 -0.5,-0.9 l -0.3,0 0.1,3.4 0.3,0 c 0.1,-0.7 0.3,-0.9 1.6,-1.4 l 7.4,-2.8 0,-0.2 -5.9,-2.1 5.9,-2.3 0,-0.2 c -3.6,-1.2 -4,-1.4 -8.2,-2.8 -0.7,-0.3 -0.9,-0.4 -1,-1.2 l -0.3,0 m 58.8,10.3 0,-0.4 c -1.5,-0.7 -1.7,-1.3 -1.7,-3.3 l 0,-0.3 c 0,-0.7 0.1,-1.3 0.2,-1.4 0,-0.1 0.1,-0.1 0.4,-0.1 l 3.4,0 0,2.2 c 0,1.1 -0.1,1.3 -1.3,1.5 L 77,52.9 80.2,53 80.3,52.7 C 79.8,52.6 79.6,52.5 79.4,52.4 79.1,52.2 79,51.8 79,51.2 l 0,-2.2 3.1,0 c 0.4,0 0.5,0.1 0.5,0.5 l 0,1.8 c 0,1.6 -0.3,1.9 -1.6,2.2 l 0,0.3 2,0 0.1,-7.4 -0.2,0 c -0.1,1 -0.3,1.2 -1.3,1.2 l -6.2,-0.1 c -1,0 -1.2,-0.2 -1.3,-1.2 l -0.2,0 -0.1,7.5 2.3,0.6 M 53.2,74 52.9,74 c -0.1,0.4 -0.2,0.5 -0.5,0.5 -0.1,0 -0.4,0 -0.6,-0.2 -0.5,-0.2 -1,-0.3 -1.5,-0.3 -0.6,0 -1.2,0.3 -1.7,0.7 -0.5,0.4 -0.7,1 -0.7,1.7 0,1.1 0.6,1.9 2.2,2.8 1,0.5 1.7,1.1 2.1,1.6 0.1,0.2 0.2,0.5 0.2,0.8 0,0.9 -0.7,1.6 -1.8,1.6 -1.2,0 -2.1,-0.8 -2.8,-2.5 l -0.3,0 0.4,3 0.3,0 c 0,-0.3 0.2,-0.5 0.4,-0.5 0.2,0 0.4,0.1 0.7,0.2 0.5,0.2 1.1,0.3 1.6,0.3 1.6,0 2.9,-1.1 2.9,-2.6 0,-1.1 -0.8,-2 -2.6,-3 -1.5,-0.8 -2.1,-1.4 -2.1,-2.2 0,-0.8 0.6,-1.3 1.5,-1.3 0.6,0 1.2,0.3 1.7,0.8 0.4,0.4 0.6,0.8 0.8,1.6 l 0.4,0 -0.3,-3"/>
  <path style="fill:#ED3737;stroke:#FF0000;stroke-width:0.5" d="m 73,24 -26,23 7,6 z"/>

</svg>
