<?xml version="1.0" encoding="UTF-8"?>
<svg xmlns="http://www.w3.org/2000/svg" version="1.1" height="100" width="100">

  <ellipse cx="50" cy="20" rx="35" ry="10" style="stroke-width:5;stroke:#222222;fill:none;"/>
  <ellipse cx="50" cy="80" rx="35" ry="10" style="stroke-width:2;stroke:#222222;fill:#FFB700;fill-opacity:0.3;"/>
  <path style="fill:#FFB700;fill-opacity:0.8;" d="m 15,50 c 0,-6 16,-10 36,-10 18,0 34,4 34,10 l 0,31 C 82,86 69,90 52,90 36,90 18,87 15,81 z"/>
  <ellipse cx="50" cy="50" rx="35" ry="10" style="stroke-width:2;stroke:#C48600;fill:none;"/>

  <path style="fill:none;stroke:#856400;stroke-width:2" d="m 15,52 c 6,6 21,8 36,8 15,0 27,-2 34,-8"/>
  <path style="fill:none;stroke:#222222;stroke-width:3.5" d="m 15,21 c 0,0 0,0 0,61 7,6 22,8 37,8 14,0 27,-2 33,-9 0,0 0,-58 0,-60"/>

</svg>
