<?xml version="1.0" encoding="UTF-8"?>
<svg xmlns="http://www.w3.org/2000/svg" version="1.1" height="100" width="100">

  <path style="fill:#90B1DE;stroke:#2C3D60;stroke-width:1.5px" d="m 32,87 0,-55 c 0,-2 1,-3 3,-3 l 59,0 c 0,0 3,1 3,4 l 0,64 0,0 -59,0 z"/>
  <path style="fill:#4E7EC2" d="m 34,31 0,56 5,8 56,0 0,-64 z"/>
  <path style="fill:#999999;stroke:#555555;stroke-width:2px" d="m 49,70 c -2,0 -2,2 -2,3 l 0,24 40,0 0,-24 c 0,-3 -1,-3 -10,-3 z m 8,4 c 6,0 5,4 5,4 l 0,10 c 0,0 0,5 -4,5 -4,0 -5,0 -5,0 l 0,-18 c 0,0 0,-1 4,-1 z"/>
  <rect style="fill:#ff0000;fill-opacity:0.7" width="45" height="6" x="42" y="32"/>
  <rect style="fill:#eeeeee;" width="45" height="29" x="42" y="38"/>
  <rect style="fill:#2C3D60;" width="4" height="4" x="35" y="33"/>
  <path style="fill:none;stroke:#bbbbbb;stroke-width:2px" d="m 44,60 41,0 m -41,-8 41,0 m -41,-8 41,0"/>

  <path style="fill:#90B1DE;stroke:#2C3D60;stroke-width:1.5px" d="M 2.8,63 2.8,5.6 C 2.8,3.5 3.5,2.8 5.6,2.8 l 60.4,0 c 2,0 3,1.4 3,3.5 L 69,66 c 0,1 0,3 -3,3 L 9.1,69 z"/>
  <path style="fill:#4E7EC2" d="M 4.9,4.9 4.9,62 9.8,67 67,67 67,4.9 z"/>
  <path style="fill:#999999;stroke:#555555;stroke-width:2px" d="m 20,44 c -2,0 -2,2 -2,3 l 0,22 36,0 0,-22 c 0,-1 -1,-3 -3,-3 z m 7,4 c 5,0 5,1 5,1 l 0,14 c 0,0 0,2 -5,2 -2,0 -3,0 -3,0 l 0,-17 c 0,0 0,0 3,0 z"/>
  <rect style="fill:#ff0000;fill-opacity:0.7" width="45" height="6" x="13" y="6"/>
  <rect style="fill:#eeeeee;" width="45" height="29" x="13" y="12"/>
  <rect style="fill:#2C3D60;" width="4" height="4" x="6" y="7"/>
  <path style="fill:none;stroke:#bbbbbb;stroke-width:2px" d="m 15,34 41,0 m -41,-8 41,0 m -41,-8 41,0"/>
  
</svg>
