<?xml version="1.0" encoding="UTF-8"?>
<svg xmlns="http://www.w3.org/2000/svg" version="1.1" height="100" width="100">

  <path style="fill:#cccccc;stroke:none;" d="m 98,96 c -5,0 -6,0 -10,-8 L 66,31 63,31 44,80 C 38,95 35,96 31,96 l 0,2 19,0 0,-2 c -4,0 -6,0 -6,-3 0,-1 0,-3 1,-5 l 4,-11 26,0 4,8 c 2,5 2,7 2,8 0,3 -2,3 -8,3 l 0,2 25,0 0,-2 M 51,73 62,45 73,73 51,73"/>
  <path style="fill:#222222;stroke:none;" d="m 97,95 c -5,0 -6,0 -10,-8 L 65,30 62,30 43,79 C 37,94 34,95 30,95 l 0,2 19,0 0,-2 c -4,0 -6,0 -6,-3 0,-1 0,-3 1,-5 l 4,-11 26,0 4,8 c 2,5 2,7 2,8 0,3 -2,3 -8,3 l 0,2 25,0 0,-2 M 50,72 61,44 72,72 50,72"/>

  <path style="fill:#222222;" d="M 7.2,100 7.2,6.9 3.4,6.9 2,100 z"/>
  <ellipse style="fill:#222222;" cx="6" cy="4" rx="4" ry="4"/>
  <path  style="fill:#666666" d="M 7.9,8.5 C 19,4.4 27,5.6 34,10 c 6,4 11,9 18,6 5,-2 10,-7.5 10,-7.5 L 62,45 c 0,0 -4,4 -8,5 C 43,54 38,48 31,45 23,39 14,44 7.9,47 z"/>
  <path  style="fill:#296E7B;" d="m 7.9,8.5 c 0,0 3.1,-0.8 6.1,-1.6 5,-1.3 9,-1.3 13,0 L 27,42 c 0,0 -5,-2 -13,3 -5.3,2 -6.1,2 -6.1,2 z"/>
  <path  style="fill:#eeeeee;" d="m 27,6.9 c 3,0.8 5,1.6 9,5.1 4,2 6,4 10,4 l 0,35 C 38,50 33,45 27,42 z"/>
  <path  style="fill:none;stroke:#222222;stroke-width:1.5" d="M 7.9,8.5 C 19,4.4 27,5.6 34,10 c 6,4 11,9 18,6 5,-2 10,-7.5 10,-7.5 L 62,45 c 0,0 -4,4 -8,5 C 43,54 38,48 31,45 23,39 14,44 7.9,47 z"/>

</svg>
