<?xml version="1.0" encoding="UTF-8"?>
<svg xmlns="http://www.w3.org/2000/svg" version="1.1" height="100" width="100">

  <path style="fill:#222222;" d="M 11,100 11,12 5,12 4,100 z"/>
  <ellipse style="fill:#222222;" cx="8" cy="9" rx="5" ry="5"/>

  <path  style="fill:#666666" d="m 12,15 c 18,-7 31,-5 41,2 10,7 18,14 30,8 6,-3 14,-11 14,-11 l 0,57 C 97,71 92,78 85,81 68,88 60,77 49,71 36,62 22,70 12,76 z"/>
  <path  style="fill:#296E7B;" d="m 12,15 c 0,0 5,-2 9,-3 9,-2 15,-2 22,0 l 0,56 c 0,0 -8,-4 -22,3 -7,4 -9,5 -9,5 z"/>
  <path  style="fill:#eeeeee;" d="m 43,12 c 3,1 8,3 14,8 6,4 9,6 15,7 l 0,56 C 60,81 52,71 43,68 z"/>
  <path  style="fill:none;stroke:#222222;stroke-width:1.5" d="m 12,15 c 18,-7 31,-5 41,2 10,7 18,14 30,8 6,-3 14,-11 14,-11 l 0,57 C 97,71 92,78 85,81 68,88 60,77 49,71 36,62 22,70 12,76 z"/>

</svg>
