<?xml version="1.0" encoding="UTF-8"?>
<svg xmlns="http://www.w3.org/2000/svg" version="1.1" height="100" width="100">

  <circle style="fill:none;stroke:#bbb;stroke-width:3" cx="65" cy="65" r="34"/>
  <circle style="fill:#444;fill-opacity:0.7" cx="65" cy="65" r="32"/>
  <path style="stroke:none;fill:#00C60A;fill-opacity:0.7" d="m 58,33 7,34 32,-7 C 97,60 92,29 58,33"/>
  <circle style=";stroke-width:5pt;stroke:#222;fill:none;" cx="65" cy="65" r="30"/>
  <g style="fill:#aaa;">
    <circle cx="65" cy="35" r="2.5"/>
    <circle cx="95" cy="65" r="2.5"/>
    <circle cx="65" cy="95" r="2.5"/>
    <circle cx="35" cy="65" r="2.5"/>
  </g>
  <path style="stroke:#fff;stroke-width:4;fill:none;" d="M 65,65 60,42"/>
  <path style="stroke:#fff;stroke-width:3;fill:none;" d="M 65,65 44,87"/>
  <circle style="fill:#fff;" cx="65" cy="65" r="3.5"/>

  <path style="fill:#222;" d="M 7.2,100 7.2,6.9 3.4,6.9 2,100 z"/>
  <ellipse style="fill:#222;" cx="6" cy="4" rx="4" ry="4"/>
  <path  style="fill:#666" d="M 7.9,8.5 C 19,4.4 27,5.6 34,10 c 6,4 11,9 18,6 5,-2 10,-7.5 10,-7.5 L 62,45 c 0,0 -4,4 -8,5 C 43,54 38,48 31,45 23,39 14,44 7.9,47 z"/>
  <path  style="fill:#296E7B;" d="m 7.9,8.5 c 0,0 3.1,-0.8 6.1,-1.6 5,-1.3 9,-1.3 13,0 L 27,42 c 0,0 -5,-2 -13,3 -5.3,2 -6.1,2 -6.1,2 z"/>
  <path  style="fill:#eee;" d="m 27,6.9 c 3,0.8 5,1.6 9,5.1 4,2 6,4 10,4 l 0,35 C 38,50 33,45 27,42 z"/>
  <path  style="fill:none;stroke:#222;stroke-width:1.5" d="M 7.9,8.5 C 19,4.4 27,5.6 34,10 c 6,4 11,9 18,6 5,-2 10,-7.5 10,-7.5 L 62,45 c 0,0 -4,4 -8,5 C 43,54 38,48 31,45 23,39 14,44 7.9,47 z"/>

</svg>
