<?xml version="1.1" encoding="UTF-8"?>
<svg height="100" width="100">

  <path style="fill:none;stroke:#444444;stroke-width:2" d="M 1.7,8.5 6.2,6.6 54,1.5 60,50 17,61 11,60 z"/>
  <path style="fill:#287293;stroke:#888888" d="M 1.7,8.5 6.2,6.6 54,1.5 56,18 9.7,24 5.3,25 z"/>
  <path style="fill:none;stroke:#dddddd" d="M 6.2,7.5 C 7.1,12 8.5,20 9.7,23"/>
  <path style="fill:#cccccc;stroke:#888888" d="m 9.7,23 -4.4,1 5.7,36 6,1 c 0,0 43,-10 43,-11 0,0 -4,-33 -4,-33 z"/>
  <path style="fill:#eeeeee;stroke:#aaaaaa;" d="m 56,17 c 0,0 2,16 7,23 -2,4 -9,10 -13,10 -4,1 -31,10 -31,10 0,0 -2,-2 -4,-8 L 9.7,23 z"/>
  <path style="fill:#dddddd;stroke:#aaaaaa;" d="m 63,40 c -1,0 -2,-2 -2,-2 l -9,12 c 0,0 8,-4 11,-10"/>
  <path style="fill:#4444444" d="m 35,25 15,-2 1,3 c 0,0 -6,9 -3,21 l -5,1 c 0,0 -2,-8 3,-21 l -10,2 z m -17,9 c 5,-1 6,-5 6,-8 l 4,0 6,24 -5,2 -5,-18 c 0,0 -1,3 -4,4 z"/>

  <circle style="fill:none;stroke:#eeeeee;stroke-width:3" cx="65" cy="65" r="34"/>
  <circle style="fill:#444444;fill-opacity:0.7" cx="65" cy="65" r="32"/>
  <circle style=";stroke-width:5pt;stroke:#222222;fill:none;" cx="65" cy="65" r="30"/>
  <g style="fill:#aaaaaa;">
    <circle cx="65" cy="35" r="2.5"/>
    <circle cx="95" cy="65" r="2.5"/>
    <circle cx="65" cy="95" r="2.5"/>
    <circle cx="35" cy="65" r="2.5"/>
  </g>
  <path style="stroke:#ffffff;stroke-width:4;fill:none;" d="M 65,65 60,42"/>
  <path style="stroke:#ffffff;stroke-width:3;fill:none;" d="M 65,65 44,87"/>
  <circle style="fill:#ffffff;" cx="65" cy="65" r="3.5"/>
  
</svg>
