<?xml version="1.0" encoding="UTF-8"?>
<svg xmlns="http://www.w3.org/2000/svg" version="1.1" height="100" width="100">

  <path style="fill:#D9D58F;stroke:#222;stroke-width:2" d="m 2,88 c 0,-1 0,-63 0,-63 0,0 -0.6,-5 4.4,-5 -1,0 5.6,0 5.6,0 l 0,-6 c 0,0 0,-3 3,-3 l 17,0 c 0,0 3,0 3,3 l 0,6 43,0 c 0,0 4,0 4,4 l 0,64 z"/>
  <path style="fill:#444;stroke:#000;stroke-width:1.5px;" d="m 62,4 -1,7 -7,3 -6,-4 -6,7 3,5 -3,8 -6,1 0,9 7,1 2,6 -4,7 7,7 6,-4 7,3 1,7 10,0 1,-7 6,-3 6,4 8,-7 -5,-7 2,-5 9,-1 0,-10 -8,-1 -3,-7 4,-6 -6,-7 -6,4 -8,-3 -1,-7 z m 4,16 c 8,0 16,7 16,15 0,9 -7,15 -16,15 -9,0 -15,-5 -15,-15 0,-8 6,-15 15,-15 z"/>
  <path style="fill:#E8DC88;stroke:#222;stroke-width:2;fill-opacity:0.7" d="M 2,88 17,54 c 0,0 1,-5 9,-5 11,0 65,0 65,0 0,0 9,0 7,5 -2,5 -14,34 -14,34 z"/>

</svg>
