<?xml version="1.0" encoding="UTF-8"?>
<svg xmlns="http://www.w3.org/2000/svg" version="1.1" height="100" width="100">

  <path style="fill:none;stroke:#1D669D;stroke-width:6;" d="m 8,5 c -8,11 23,1.4 25,4 2,3 -20,9 -20,16 0,7 50,-11 49,-4 -1,6 -52.3,19 -50,25 2,5 21,2 22,6 1,4 -27,14 -28,29 -1,15 12,19 21,9"/>
  <path style="fill:none;stroke:#002949;stroke-width:4;" d="m 8,5 c -8,11 23,1.4 25,4 2,3 -20,9 -20,16 0,7 50,-11 49,-4 -1,6 -52.3,19 -50,25 2,5 21,2 22,6 1,4 -27,14 -28,29 -1,15 12,19 21,9"/>

  <path style="fill:#CF9100;stroke:#333333;stroke-width:2;" d="M 25,78 85,15 c 0,0 5,1 8,4 3,3 4,8 4,8 L 38,90 22,94 z"/>
  <path style="fill:#eeeeee" d="M 85,19 28,79 30,81 87,21 z"/>
  <path style="fill:#111111" d="m 22,94 7,-2 -5,-5 z"/>

</svg>
