<?xml version="1.0" encoding="UTF-8"?>
<svg xmlns="http://www.w3.org/2000/svg" version="1.1" height="100" width="100">

  <path style="fill:none;stroke:#555555;stroke-width:6;" d="M 22,94 C 14,93 4,84 4,67 5,45 30,51 34,33 36,25 35,15 23,3"/>
  <path style="fill:none;stroke:#111111;stroke-width:4;" d="M 22,94 C 14,93 4,84 4,67 5,45 30,51 34,33 36,25 35,15 23,3"/>
  <path style="fill:none;stroke:#777777;stroke-width:1.5;" d="M 24,3 50,27 M 4,26 4,90"/>
  <circle cx="25" cy="5" r="4" fill="#D7BA08" stroke="#222222"/>
  <circle cx="50" cy="27" r="3" fill="#dddddd" stroke="#777777"/>
  <circle cx="4" cy="65" r="4" fill="#D7BA08" stroke="#222222"/>
  <circle cx="4" cy="26" r="3" fill="#dddddd" stroke="#777777"/>
  <circle cx="4" cy="93" r="3" fill="#dddddd" stroke="#777777"/>

  <path style="fill:#CF9100;stroke:#333333;stroke-width:2;" d="M 25,78 85,15 c 0,0 5,1 8,4 3,3 4,8 4,8 L 38,90 22,94 z"/>
  <path style="fill:#eeeeee" d="M 85,19 28,79 30,81 87,21 z"/>
  <path style="fill:#111111" d="m 22,94 7,-2 -5,-5 z"/>

</svg>
