<?xml version="1.0" encoding="UTF-8"?>
<svg xmlns="http://www.w3.org/2000/svg" version="1.1" height="100" width="100">

  <path style="fill:#555555;stroke:#000000;stroke-width:1.5px;" d="m 40,2 -2,9 -10,5 -8,-6 -9,9 6,9 -4,10 -10,2 0,12 10,1 4,10 -6,9 9,9 9,-6 9,4 2,10 13,0 1,-11 8,-4 9,7 9,-8 -6,-10 4,-9 11,-2 0,-12 -11,-2 -3,-9 6,-10 -9,-9 -8,6 -11,-5 -1,-9 z m 5,18 C 58,20 69,31 69,44 69,58 58,68 45,68 32,68 21,58 21,44 21,31 32,20 45,20 z"/>

  <circle style="fill:none;stroke:#eeeeee;stroke-width:3" cx="65" cy="65" r="34"/>
  <circle style="fill:#444444;fill-opacity:0.7" cx="65" cy="65" r="32"/>
  <path style="stroke:none;fill:#00C60A;fill-opacity:0.7" d="m 58,33 7,34 32,-7 C 97,60 92,29 58,33"/>
  <circle style=";stroke-width:5pt;stroke:#222222;fill:none;" cx="65" cy="65" r="30"/>
  <g style="fill:#aaaaaa;">
    <circle cx="65" cy="35" r="2.5"/>
    <circle cx="95" cy="65" r="2.5"/>
    <circle cx="65" cy="95" r="2.5"/>
    <circle cx="35" cy="65" r="2.5"/>
  </g>
  <path style="stroke:#ffffff;stroke-width:4;fill:none;" d="M 65,65 60,42"/>
  <path style="stroke:#ffffff;stroke-width:3;fill:none;" d="M 65,65 44,87"/>
  <circle style="fill:#ffffff;" cx="65" cy="65" r="3.5"/>

</svg>
