<?xml version="1.0" encoding="UTF-8"?>
<svg xmlns="http://www.w3.org/2000/svg" version="1.1" height="100" width="100">

  <path style="fill:#555555;stroke:#000000;stroke-width:1.5px;" d="m 43,2 -2,10 -11,5 -8,-6 -10,10 6,9 -4,11 -11,2 0,13 11,2 4,10 -6,10 10,10 9,-6 10,4 2,11 14,0 2,-12 8,-4 10,7 L 87,79 80,68 85,59 97,57 97,43 85,41 82,31 88,21 78,11 69,17 58,12 56,2 z m 6,20 C 63,22 75,34 75,48 75,63 63,74 49,74 35,74 23,63 23,48 23,34 35,22 49,22 z"/>
  <path style="fill:#35ff35;fill-opacity:0.8;stroke:#007300;stroke-width:2" d="M 38,49 C 41,53 56,82 58,95 63,87 63,73 98,35 86,42 69,57 57,68 54,64 48,56 38,49"/>

</svg>
