<?xml version="1.1" encoding="UTF-8"?>
<svg height="100" width="100">

  <path style="fill:#cccccc;stroke:none;" d="m 83,22 0,15 15,0 z"/>
  <path style="fill:#9C9C91;stroke:#222222;stroke-width:1.5;" d="m 83,22 0,15 15,0 0,60 -53,0 0,-75 38,-0 15,15"/>
  <path style="fill:#aaaaaa;stroke:#eeeeee;stroke-width:4;" d="m 52,67 17,-17 0,9 22,0 0,16 -22,0 0,9 z"/>
  <path style="fill:#ffffff;stroke:none;" d="m 40,1 0,15 15,0 z"/>
  <path style="fill:#EBEBDA;stroke:#666666;stroke-width:1.5;" d="m 40,1 0,15 15,0 0,60 -53,0 0,-75 38,-0 15,15"/>
  <path style="fill:#888888;stroke:#444444;stroke-width:4;" d="m 48,45 -17,-17 0,9 -22,0 0,16 22,0 0,9 z"/>

</svg>
