<?xml version="1.0" encoding="UTF-8"?>
<svg viewBox="-100 0 330 330" version="1.0">
<path style="fill:#ffffff;stroke:none;" d="m 66,40 0,55 55,0 z"/>
<path style="fill:#EBEBDA;stroke:#555555;stroke-width:5;" d="M -66,40 -66,280 127,280 127,97 67,97 68,40 z"/>
<path style="stroke:#555555;stroke-width:5;" d="M 67,40 125,97"/>
<path fill="#333333" d="m 96,50 c -27,1 -55,9 -70,34 -10,16 -5,42 -7,60 0,0 -18,0 -24,0 0,40 -1,81 -1,121 3,25 28,45 53,43 38,0 76,0 114,0 16,-4 43,-21 43,-41 0,-43 -2,-80 -2,-122 -8,0 -15,0 -23,0 1,-8 4,-41 -9,-61 -19,-25 -48,-32 -75,-34 z m 60,60 c 0,12 0,23 -1,33 -38,0 -76,0 -114,0 0,-14 0,-21 1,-35 0,-22 30,-37 55,-36 25,1 56,7 58,38 z m -58,66 c 22,1 28,30 12,43 3,9 10,42 12,53 -16,0 -32,0 -48,0 3,-18 9,-35 12,-53 -16,-15 -11,-42 12,-43 z"/>
</svg>
