<?xml version="1.0" encoding="UTF-8"?>
<svg xmlns="http://www.w3.org/2000/svg" version="1.1" height="100" width="100">

  <path style="fill:#333333;stroke:#222222;stroke-width:2" d="m 11,3 64,0 13,11 0,16 -3,0 0,7 3,0 0,60 -9,0 -3,-2 -3,2 -49,0 -3,-2 -3,2 -7,0 z"/>
  <path style="fill:#444444;stroke:#aaaaaa;stroke-width:2" d="m 14,6 60,0 11,9 0,13 -3,0 0,11 3,0 0,55 -6,0 -3,-2 -3,2 -49,0 -3,-2 -3,2 -4,0 z"/>
  <path style="fill:#666666;stroke:#222222;stroke-width:2" d="m 21,47 0,36 c 0,6 6,5 6,5 l 43,0 c 0,0 6,1 6,-7 l 0,-34 c 0,-6 -6,-6 -6,-6 l -43,0 c 0,0 -6,0 -6,6 z"/>
  <path style="fill:#F8C24A;fill-opacity:0.5" d="m 62,4 0,19 c 0,0 0,4 3,4 4,0 4,-4 4,-4 L 69,4 z m -9,0 0,19 c 0,0 0,4 3,4 4,0 4,-4 4,-4 L 60,4 z m -9,0 0,19 c 0,0 0,4 3,4 4,0 4,-4 4,-4 L 51,4 z m -9,0 0,19 c 0,0 0,4 3,4 4,0 4,-4 4,-4 L 42,4 z m -9,0 0,19 c 0,0 0,4 3,4 4,0 4,-4 4,-4 L 33,4 z m -9,0 0,19 c 0,0 0,4 3,4 4,0 4,-4 4,-4 L 24,4 z"/>

</svg>
