<?xml version="1.0" encoding="UTF-8"?>
<svg xmlns="http://www.w3.org/2000/svg" version="1.1" height="100" width="100">

  <path style="fill:#cccccc;stroke:none;" d="M 98,96 C 91,96 90,95 85,83 L 51,2 48,2 19,73 C 10,94 8.3,96 1.7,96 l 0,3 27.3,0 0,-3 c -6,0 -9,-1 -9,-5 0,-2 0,-5 1,-7 l 6,-16 37,0 5,13 c 2,5 3,9 3,11 0,3 -2,4 -10,4 l 0,3 36,0 0,-3 M 30,62 46,22 62,62 30,62"/>
  <path style="fill:#222222;stroke:none;" d="M 97,95 C 90,95 89,94 84,82 L 50,1 47,1 18,72 C 9,93 7.3,95 0.7,95 l 0,3 27.3,0 0,-3 c -6,0 -9,-1 -9,-5 0,-2 0,-5 1,-7 l 6,-16 37,0 5,13 c 2,5 3,9 3,11 0,3 -2,4 -10,4 l 0,3 36,0 0,-3 M 29,61 45,21 61,61 29,61"/>

</svg>
