<?xml version="1.0" encoding="UTF-8"?>
<svg xmlns="http://www.w3.org/2000/svg" version="1.1" height="100" width="100">

  <path style="fill:#222222;stroke:none;" d="M 82,96 C 76,96 75,94 69,85 L 43,12 40,12 17,75 C 7.9,94 6.8,96 1,96 l 0,3 23,0 0,-3 c -5,0 -7,0 -7,-5 0,-6 3,-13 5,-19 l 33,0 c 1,3 4,14 6,21 0,3 -2,3 -9,3 l 0,3 30,0 0,-3 M 25,65 39,29 52,65 25,65"/>
  <path style="fill:#5E9FCE;stroke:#041E31;stroke-width:3;fill-opacity:0.9" d="m 98,42 0,-15 -25,0 0,-25 -15,0 0,25 -25,0 0,15 25,0 0,25 15,0 0,-25 z"/>

</svg>
