<?xml version="1.0" encoding="UTF-8"?>
<svg xmlns="http://www.w3.org/2000/svg" version="1.1" height="100" width="100">

  <path style="fill:#cccccc;stroke:none;" d="m 66,97 c -5,0 -5,0 -10,-8 L 35,35 33,35 14,82 C 7.2,96 6.2,97 1.7,97 l 0,2 18.3,0 0,-2 c -4,0 -6,0 -6,-4 0,-1 0,-3 1,-4 l 4,-10 25,0 4,8 c 1,3 1,6 1,7 0,3 -1,3 -7,3 l 0,2 24,0 0,-2 M 21,75 32,48 42,75 21,75"/>
  <path style="fill:#222222;stroke:none;" d="m 65,96 c -5,0 -5,0 -10,-8 L 34,34 32,34 13,81 C 6.2,95 5.2,96 0.7,96 l 0,2 18.3,0 0,-2 c -4,0 -6,0 -6,-4 0,-1 0,-3 1,-4 l 4,-10 25,0 4,8 c 1,3 1,6 1,7 0,3 -1,3 -7,3 l 0,2 24,0 0,-2 M 20,74 31,47 41,74 20,74"/>
  <path style="fill:#dddddd;stroke:#444444;stroke-width:3;stroke-linejoin:bevel" d="M 80,18 64,18 80,5 96,18 80,18 65,18 80,18 80,83 96,83 64,83 80,96 97,83 80,83"/>

</svg>
