<?xml version="1.0" encoding="UTF-8"?>
<svg xmlns="http://www.w3.org/2000/svg" version="1.1" height="100" width="100">

  <path style="fill:#002633;" d="m 27,14 c 9,4 8,11 8,20 0,2 -2,7 -5,10 2,2 5,7 6,12 1,6 -1,15 -6,20 -6,6 -20,5 -29,0 L 13,87 C 32,93 42,87 45,69 46,62 39,52 37,50 40,47 44,41 42,31 39,19 27,14 27,14 z M 14,26 c -2,0 -4,1 -6,2 -2,1 -5,3 -5,3 l 6,5 c 0,0 3,-2 6,-2 2,0 3,3 3,3 0,0 3,-5 1,-8 -1,-2 -3,-3 -5,-3 z m -2,26 c -2.2,0 -5,0 -5,0 l 8,8 c 0,0 2,0 3,2 1,2 0,3 -1,4 1,0 3,-1 4,-4 1,-3 1,-6 -3,-9 -2,-1 -4,-1 -6,-1 z m 5,14 c -1,0 -1,0 -1,0 0,0 0,0 1,0 z"/>
  <path style="fill:none;stroke:#006F94;stroke-width:4;stroke-linejoin:bevel" d="m 3,17 c 9,-3 27,-6 31,7 3,10 -1,17 -4,20 0,0 6,6 6,15 0,8 -2,18 -14,21 C 12,81 8,80 2,75 L 5,61 c 4.8,5 14,8 16,1 2,-6 -2,-9 -5,-10 -4,-1 -6.4,0 -8,0 0,0 1,-11 0.9,-13 0,0 5.1,1 8.1,-1 3,-3 4,-9 0,-11 -7,-2 -11,2 -14.1,4 z"/>

  <path style="fill:#481500;" d="m 75,14 c 17,1 24,21 24,35 0,19 -3,37 -19,39 -17,2 -20,1 -23,1 -1,0 -11,-8 -13,-9 2,0 27,0 31,-2 C 79,76 91,76 91,45 91,28 81,16 75,14 z"/>
  <path style="fill:#481500;stroke:#CC4700;stroke-width:4;stroke-linejoin:bevel" d="m 66,34 c 0,-4 -1,-6 2,-6 2,0 5,1 6,6 1,4 2,21 0,26 -1,3 -3,5 -5,5 -4,0 -3,-2 -3,-5 0,-10 0,-26 0,-26 z"/>
  <path style="fill:none;stroke:#CC4700;stroke-width:4;stroke-linejoin:bevel" d="m 46,15 c 0,0 22,0 26,0 10,-1 19,15 19,31 0,16 -3,30 -17,32 -15,2 -25,1 -28,1 0,-4 0,-14 0,-16 2,0 0,-1 5,1 1,-9 0,-34 0,-34 -3,0 -5,1 -5,0 0,-5 0,-15 0,-15 z"/>

</svg>
