<?xml version="1.0" encoding="UTF-8"?>
<svg xmlns="http://www.w3.org/2000/svg" version="1.1" height="100" width="100">

  <path style="fill:#111111;stroke:#666666" d="m 41,81 0,8 c 0,0 -6,0 -7,0 -4,0 -6,6 -6,6 2,0 43,0 44,0 0,0 -1,-6 -4,-6 -2,0 -7,0 -7,0 l 0,-8"/>
  <path style="fill:#ffffff;stroke:#000000;stroke-width:4px;stroke-linecap:butt" d="m 4.7,74 c 0,-16 0,-45 0,-57 0,-4 0,-8.8 5.2,-8.8 9.1,0 76.1,0 81.1,0 5,0 5,4.8 5,12.8 0,11 0,46 0,53 0,1 0,5 -8,5 -5,0 -74,0 -78.1,0 -5.2,0 -5.2,-5 -5.2,-5 z"/>
  <path style="fill:#555555;stroke:#ffffff" d="M 7.8,12 93,12 93,75 7.8,75 z"/>

  <path style="fill:none;stroke:#21B921;stroke-width:8px;stroke-linecap:round;stroke-linejoin:round;" d="M 39,26 C 23,35 25,66 50,66 66,66 71,53 71,45 71,38 68,30 60,25"/>
  <path style="fill:#21B921;" d="m 29,17 18,5 -4,18"/>

</svg>
