<?xml version="1.0" encoding="UTF-8"?>
<svg xmlns="http://www.w3.org/2000/svg" version="1.1" height="100" width="100">

  <path style="fill:#111111;stroke:#666666" d="m 41,81 0,8 c 0,0 -6,0 -7,0 -4,0 -6,6 -6,6 2,0 43,0 44,0 0,0 -1,-6 -4,-6 -2,0 -7,0 -7,0 l 0,-8"/>
  <path style="fill:#ffffff;stroke:#000000;stroke-width:4px;stroke-linecap:butt" d="m 4.7,74 c 0,-16 0,-45 0,-57 0,-4 0,-8.8 5.2,-8.8 9.1,0 76.1,0 81.1,0 5,0 5,4.8 5,12.8 0,11 0,46 0,53 0,1 0,5 -8,5 -5,0 -74,0 -78.1,0 -5.2,0 -5.2,-5 -5.2,-5 z"/>
  <path style="fill:#888888;stroke:#ffffff" d="M 7.8,12 93,12 93,75 7.8,75 z"/>

  <g style="fill-opacity:0.6">
    <rect style="fill:#DA00FF;" width="12" height="63" x="9" y="12"/>
    <rect style="fill:#0010FF;" width="12" height="63" x="21" y="12"/>
    <rect style="fill:#00F7FF;" width="12" height="63" x="33" y="12"/>
    <rect style="fill:#15CA15;" width="12" height="63" x="45" y="12"/>
    <rect style="fill:#E0FF00;" width="12" height="63" x="57" y="12"/>
    <rect style="fill:#FF5E00;" width="12" height="63" x="69" y="12"/>
    <rect style="fill:#FF0013;" width="11" height="63" x="81" y="12"/>
  </g>
</svg>
