<?xml version="1.1" encoding="UTF-8"?>
<svg height="100" width="100">

  <path style="fill:#333333;stroke:#333333;stroke-width:3" d="M 4.2,61 18,22 c 0,0 0,-2 5,-2 7,0 47,0 52,0 6,0 6,2 6,2 l 15,41 c 0,0 1,2 1,9 0,10 0,15 0,20 0,5 -4,5 -4,5 L 8.2,97 c 0,0 -6,1 -6,-7 0,-9 0,-14 0,-20 0,-6 2,-9 2,-9 z"/>
  <path style="fill:#777777;stroke:#777777;stroke-width:2.5" d="m 5.2,70 0,21 c 0,4 1.2,4 3.8,4 l 80,0 c 3,0 5,0 5,-5 l 0,-20"/>
  <path style="fill:#999999;stroke:#dddddd;stroke-width:2.5" d="M 6.2,63 20,24 c 0,0 1,-2 4,-2 5,0 47,0 51,0 3,0 4,2 4,2 0,0 13,35 14,39 1,4 3,8 -5,8 -6,0 -78,0 -78,0 -6.8,0 -4.8,-4 -3.8,-8 z"/>

  <path style="fill:#dddddd;" d="m 50,31 c 16,0 31,6 33,16 2,9 -9,20 -32,20 C 25,67 14,55 16,46 18,36 34,31 50,31 z"/>
  <path style="fill:#aaaaaa;" d="M 50,31 C 66,31 81,37 83,47 85,56 69,64 51,64 30,64 14,55 16,46 18,36 34,31 50,31 z"/>
  <path style="fill:#cccccc;" d="m 87,62 c 4,0 4,5 0,5 -4,0 -4,-5 0,-5 z m -75,0 c 4,0 4,5 0,5 -3.8,0 -3.8,-5 0,-5 z"/>

  <path style="fill:#666666;stroke:#555555" d="m 13,77 74,0 0,14 -74,0 z"/>
  <path style="fill:none;stroke:#999999;stroke-width:1.5" d="m 85,77 0,14 m -4,-14 0,14 m -4,-14 0,14 m -4,-14 0,14 m -4,-14 0,14 m -4,-14 0,14"/>

  <circle cx="27" cy="27" r="24" style="fill:#F1AB24;stroke:#875900;stroke-width:2;fill-opacity:0.8;stroke-opacity:0.6"/>
  <path fill="#333333" d="m 27,7 c -4,0 -9,2 -11,6 -1,2 -1,9 -1,9 0,0 -2,0 -3,0 0,5 0,11 0,17 0,3 4,6 7,6 6,0 11,0 17,0 2,0 6,-3 6,-6 0,-6 0,-11 0,-17 -2,0 -2,0 -3,0 0,0 0,-6 -1,-9 C 36,9 31,7 27,7 z m 8,9 0,6 -16,0 c 0,-6 0,-6 0,-6 0,-4 5,-5 8,-5 3,0 8,1 8,5 z m -9,10 c 4,0 5,4 2,6 l 2,8 -7,0 2,-8 c -3,-2 -2,-6 1,-6 z"/>

</svg>
