<?xml version="1.0" encoding="UTF-8"?>
<svg xmlns="http://www.w3.org/2000/svg" version="1.1" height="100" width="100">

  <defs>
    <radialGradient
      id="RG1" cx="35" cy="34" fx="50" fy="32" r="28"
      gradientUnits="userSpaceOnUse">
      <stop style="stop-color:#123141;stop-opacity:1;" offset="1"/>
      <stop style="stop-color:#679BCB;stop-opacity:1;" offset="0"/>
    </radialGradient>
  </defs>

  <ellipse cx="35" cy="34" rx="32" ry="30" style="fill:url(#RG1);fill-opacity:1;fill-rule:nonzero"/>
  <g style="fill:none;stroke:#aaaaaa;stroke-width:1.5px;stroke-linecap:butt;" >
    <path d="M 36,64 C 22,56 19,46 19,34 19,22 26,10 36,4 l 0,60 C 36,64 54,55 54,34 54,13 36,4 36,4" />
    <path d="m 4,34 63,0 0,0"/>
    <path d="m 13,15 c 0,0 12,7 23,7 13,0 23,-7 23,-7"/>
    <path d="m 13,54 c 0,0 9,-7 23,-7 16,0 23,7 23,7"/>
  </g>
  <ellipse cx="35" cy="34" rx="32" ry="30" style="stroke-width:3;stroke:#123141;fill:none;"/>

  <path style="fill:none;stroke:#aaaaaa;stroke-width:4.5;" d="m 29,48 c -4,-11 4,-21 15,-20 16,3 26,2 34,0 10,-1 18,6 16,16 -2,8 -2,26 0,33 C 96,87 89,95 78,94 70,91 54,92 46,94 35,96 26,87 28,77"/>
  <path style="fill:none;stroke:#533100;stroke-width:4;" d="m 29,45 c -1,-7 5,-18 15,-16 16,2 26,2 34,0 9,-2 17,6 15,15 -2,8 -2,26 0,33 2,7 -4,17 -15,16 -8,1 -25,1 -32,0 C 35,95 27,85 29,77"/>
  <path style="fill:#E70000;stroke:#e70000" d="M 61,26 C 53,25 45,29 37,36 22,50 22,73 36,85 53,100 71,100 85,86 100,71 100,50 86,37 78,29 69,26 61,26 z m 0,18 c 4,0 9,0 12,4 7,8 6,19 0,26 -5,4 -17,6 -25,-1 -7,-7 -6,-18 0,-24 3,-4 8,-5 13,-5 z"/>
  <path style="fill:#ffffff;stroke:#555555" d="m 46,70 -15,7 c 0,0 -4,3 -5,-3 -3,-10 -3,-16 1,-26 1,-3 2,-3 5,-3 l 14,7 c 0,0 -2,3 -2,9 0,5 2,9 2,9 z m 24,5 8,16 c 0,0 1,3 -4,5 -11,3 -14,3 -25,0 -4,-1 -4,-3 -3,-5 l 7,-15 c 0,0 3,1 8,1 6,0 9,-2 9,-2 z m 5,-23 17,-7 c 0,0 3,-3 5,3 3,11 2,16 -2,27 0,3 -3,3 -5,2 L 75,70 c 0,0 3,-4 3,-9 0,-4 -3,-9 -3,-9 z M 53,46 45,31 c 0,0 -3,-4 3,-5 11,-3 15,-3 26,0 4,1 4,2 3,5 l -7,15 c 0,0 -3,-2 -9,-2 -5,0 -8,2 -8,2 z"/>

</svg>
