<?xml version="1.0" encoding="UTF-8"?>
<svg xmlns="http://www.w3.org/2000/svg" version="1.1" height="100" width="100">

  <path style="fill:#ffffff;stroke:none;" d="m 65,3 0,19 19,0 z"/>
  <path style="fill:#EBEBDA;stroke:#777777;stroke-width:2;" d="m 65,3 0,19 19,0 0,74 -72,0 0,-93 53,0 19,19"/>
 
  
  <path style="fill:#ddd;stroke:#222;stroke-width:2;" d="m 80,95 c 0,0 1,-10 6,-15 5,-6 3,-24 3,-24 0,-6 -9,-9 -14,6 0,-9 1,-20 -2,-20 -6,0 -9,7 -10,15 0,-13 1,-20 -3,-20 -6,0 -8,7 -10,15 0,-12 0,-41 0,-41 0,-7 -11,-8 -11,1 l 0,44 c 0,6 -3,11 -5,6 -2,-5 -5,-8 -7,-13 -2,-5 -9,-8 -12,-7 -5,1 -8.2,3 -5,6 3,3 11,13 15,24 2,5 14,17 19,23 z"/>

</svg>
