<?xml version="1.0" encoding="UTF-8"?>
<svg xmlns="http://www.w3.org/2000/svg" version="1.1" height="100" width="100">

  <path style="fill:#777;stroke:#222;stroke-width:1.5px;" d="m 61,35 -1,7 -7,3 -6,-4 -6,7 3,5 -3,8 -6,1 0,9 7,1 2,6 -4,7 7,7 6,-4 7,3 1,7 10,0 1,-7 6,-3 6,4 8,-7 -5,-7 2,-5 9,-1 0,-10 -8,-1 -3,-7 4,-6 -6,-7 -6,4 -8,-3 -1,-7 z m 4,14 c 9,0 18,8 18,16 0,11 -9,18 -18,18 -9,0 -17,-7 -17,-18 0,-8 8,-16 17,-16 z"/>

  <path style="fill:#00FF06;stroke:#224F24;stroke-width:4;fill-opacity:0.5" d="M 43,75 75,46 59,46 59,4 24,4 24,46 7,46 z"/>

</svg>
