<?xml version="1.0" encoding="UTF-8"?>
<svg xmlns="http://www.w3.org/2000/svg" version="1.1" height="100" width="100">

  <defs>
    <radialGradient
      id="RG1" cx="50" cy="50" fx="47" fy="44" r="37"
      gradientUnits="userSpaceOnUse">
      <stop style="stop-color:#123141;stop-opacity:1;" offset="1"/>
      <stop style="stop-color:#679BCB;stop-opacity:1;" offset="0"/>
    </radialGradient>
  </defs>
  
  <ellipse cx="50" cy="50" rx="46" ry="44" style="stroke-width:4;stroke:#dddddd;fill:none;"/>
  <ellipse cx="50" cy="50" rx="47" ry="44" style="fill:url(#RG1);fill-opacity:1;fill-rule:nonzero"/>
  <g style="fill:none;stroke:#aaaaaa;stroke-width:1.5px;stroke-linecap:butt;" >
    <path d="M 50,94 C 40,90 22,76 22,50 22,21 40,12 50,6 l 0,88 C 50,94 79,84 78,49 77,14 50,6 50,6" />
    <path d="m 4,50 92,0"/>
    <path d="m 17,20 c 0,0 12,12 33,12 22,0 34,-12 34,-12"/>
    <path d="m 14,78 c 0,0 13,-11 36,-11 25,0 36,11 36,11"/>
  </g>
    <ellipse cx="50" cy="50" rx="46" ry="44" style="stroke-width:3;stroke:#123141;fill:none;"/>
  <g transform="scale(0.4) translate(60,50)">
    <path style="fill:#919191;stroke:#424242;stroke-width:6;" d="m 42,10 108,0 a 12 12 0 0 1 12,12  l 0,148 a 12,12 0 0 1 -12,12 l -108,0 a 12,12 0 0 1 -12,-12 l 0,-148 a 12,12 0 0 1 12,-12 z"/>
    <path style="fill:#6B6B6B;stroke:#424242;stroke-width:6;" d="m 52,20 88,0 a 12 12 0 0 1 12,12  l 0,44 a 12,12 0 0 1 -12,12 l -88,0 a 12,12 0 0 1 -12,-12 l 0,-44 a 12,12 0 0 1 12,-12 z"/>
    <path style="fill:#6B6B6B;stroke:#424242;stroke-width:6;" d="m 52,103 88,0 a 12 12 0 0 1 12,12  l 0,44 a 12,12 0 0 1 -12,12 l -88,0 a 12,12 0 0 1 -12,-12 l 0,-44 a 12,12 0 0 1 12,-12 z"/>
    <path style="fill:none;stroke:#424242;stroke-width:6;" d="m 90,42 12,0 m -12,83 12,0"/>
  </g>
  <path style="fill:#2BB927;stroke:#222222;stroke-width:1;opacity:0.75;" d="m 43,80 0,-60 25,25 -7,7 -7,-7 0,35 -9,0 z"/>
  <path style="fill:#2BB927;stroke:#222222;stroke-width:1;opacity:0.75;" d="m 33,20 0,60 -25,-25 7,-7 7,7 0,-35 9,0 z"/>
</svg>
