<?xml version="1.0" encoding="UTF-8"?>
<svg xmlns="http://www.w3.org/2000/svg" version="1.1" height="100" width="100">

  <defs>
    <radialGradient
      id="RG1" cx="50" cy="50" fx="47" fy="44" r="37"
      gradientUnits="userSpaceOnUse">
      <stop style="stop-color:#123141;stop-opacity:1;" offset="1"/>
      <stop style="stop-color:#679BCB;stop-opacity:1;" offset="0"/>
    </radialGradient>
  </defs>
  
  <ellipse cx="50" cy="50" rx="46" ry="44" style="stroke-width:4;stroke:#dddddd;fill:none;"/>
  <ellipse cx="50" cy="50" rx="47" ry="44" style="fill:url(#RG1);fill-opacity:1;fill-rule:nonzero"/>
  <g style="fill:none;stroke:#aaaaaa;stroke-width:1.5px;stroke-linecap:butt;" >
    <path d="M 50,94 C 40,90 22,76 22,50 22,21 40,12 50,6 l 0,88 C 50,94 79,84 78,49 77,14 50,6 50,6" />
    <path d="m 4,50 92,0"/>
    <path d="m 17,20 c 0,0 12,12 33,12 22,0 34,-12 34,-12"/>
    <path d="m 14,78 c 0,0 13,-11 36,-11 25,0 36,11 36,11"/>
  </g>
  <ellipse cx="50" cy="50" rx="46" ry="44" style="stroke-width:3;stroke:#123141;fill:none;"/>

  <circle cx="27" cy="27" r="24" style="fill:#F1AB24;stroke:#875900;stroke-width:2;fill-opacity:0.8;stroke-opacity:0.6"/>
  <path fill="#333333" d="m 27,7 c -4,0 -9,2 -11,6 -1,2 -1,9 -1,9 0,0 -2,0 -3,0 0,5 0,11 0,17 0,3 4,6 7,6 6,0 11,0 17,0 2,0 6,-3 6,-6 0,-6 0,-11 0,-17 -2,0 -2,0 -3,0 0,0 0,-6 -1,-9 C 36,9 31,7 27,7 z m 8,9 0,6 -16,0 c 0,-6 0,-6 0,-6 0,-4 5,-5 8,-5 3,0 8,1 8,5 z m -9,10 c 4,0 5,4 2,6 l 2,8 -7,0 2,-8 c -3,-2 -2,-6 1,-6 z"/>
</svg>
