<?xml version="1.0" encoding="UTF-8"?>
<svg xmlns="http://www.w3.org/2000/svg" version="1.1" height="100" width="100">

  <defs>
    <radialGradient
      id="RG1" cx="35" cy="34" fx="50" fy="32" r="28"
      gradientUnits="userSpaceOnUse">
      <stop style="stop-color:#123141;stop-opacity:1;" offset="1"/>
      <stop style="stop-color:#679BCB;stop-opacity:1;" offset="0"/>
    </radialGradient>
  </defs>
  
  <ellipse cx="35" cy="34" rx="32" ry="30" style="stroke-width:4;stroke:#dddddd;fill:none;"/>
  <ellipse cx="35" cy="34" rx="32" ry="30" style="fill:url(#RG1);fill-opacity:1;fill-rule:nonzero"/>
  <g style="fill:none;stroke:#aaaaaa;stroke-width:1.5px;stroke-linecap:butt;" >
    <path d="M 36,64 C 22,56 19,46 19,34 19,22 26,10 36,4 l 0,60 C 36,64 54,55 54,34 54,13 36,4 36,4" />
    <path d="m 4,34 63,0 0,0"/>
    <path d="m 13,15 c 0,0 12,7 23,7 13,0 23,-7 23,-7"/>
    <path d="m 13,54 c 0,0 9,-7 23,-7 16,0 23,7 23,7"/>
  </g>
  <g transform="scale(0.4) translate(60,50)">
    <path style="fill:#919191;stroke:#424242;stroke-width:6;" d="m 42,10 108,0 a 12 12 0 0 1 12,12  l 0,148 a 12,12 0 0 1 -12,12 l -108,0 a 12,12 0 0 1 -12,-12 l 0,-148 a 12,12 0 0 1 12,-12 z"/>
    <path style="fill:#C3C3C3;stroke:#424242;stroke-width:6;" d="m 52,20 88,0 a 12 12 0 0 1 12,12  l 0,44 a 12,12 0 0 1 -12,12 l -88,0 a 12,12 0 0 1 -12,-12 l 0,-44 a 12,12 0 0 1 12,-12 z"/>
    <path style="fill:#C3C3C3;stroke:#424242;stroke-width:6;" d="m 52,103 88,0 a 12 12 0 0 1 12,12  l 0,44 a 12,12 0 0 1 -12,12 l -88,0 a 12,12 0 0 1 -12,-12 l 0,-44 a 12,12 0 0 1 12,-12 z"/>
    <path style="fill:none;stroke:#424242;stroke-width:6;" d="m 90,42 12,0 m -12,83 12,0"/>
  </g>
  <path style="fill:#2BB927;stroke:#222222;stroke-width:1;opacity:0.75;" d="m 43,80 0,-60 25,25 -7,7 -7,-7 0,35 -9,0 z"/>
  <path style="fill:#2BB927;stroke:#222222;stroke-width:1;opacity:0.75;" d="m 33,20 0,60 -25,-25 7,-7 7,7 0,-35 9,0 z"/>
</svg>
