<?xml version="1.0" encoding="UTF-8"?>
<svg xmlns="http://www.w3.org/2000/svg" version="1.1" height="100" width="100">

   <path  style="fill:#333333;" d="m 66,14 -18,16 0,9 2,1 2,-7 14,-12 z m 28,13 -19,16 0,8 7,3 L 63,72 63,98 85,74 83,63 97,49 z M 53,41 33,58 33,78 39,61 53,49 z"/>
   <path  style="fill:#999999;" d="M 48,30 26,20 46,4.6 66,14 M 75,43 52,33 71,17 94,27 M 63,72 39,61 59,44 82,54 M 33,58 11,48 30,31 53,41"/>
   <path  style="fill:#cccccc;" d="m 50,40 2,-7 23,10 0,8 -16,-7 -6,5 0,-8 z m -32,1 8,-21 22,10 0,9 -18,-8 z M 3.2,67 11,48 l 22,10 0,20 6,-17 24,11 0,26 z"/>
   <path  style="fill:#00C617;" d="M 11,48 30,31 53,41 33,58 z"/>
   <path  style="fill:none;stroke:#111111;stroke-width:2" d="m 65,53 c -2,-3 -6,-3 -7,-1 -1,2 5,4 2,7 -1,1 -6,0 -7,-3 m 19,-35 -4,7 6,-1 0,5 8,-5 m -35,-11 1,4 m 3,-8 c -2,-2 -6,-2 -9,1 -2,2 0,5 4,5 3,0 7,-3 5,-6 z m -23,29 6,3 m -11,-1 12,-4 -3,9"/>
   <path  style="fill:none;stroke:#222222;stroke-width:1" d="M 18,41 26,20 46,4.6 66,14 66,21 M 32,82 39,61 59,44 82,54 85,74 63,98 3.2,67 11,48 30,31 l 23,10 0,8 m -3,-9 2,-7 19,-16 23,10 3,22 -14,14"/>

</svg>
