<?xml version="1.0" encoding="UTF-8"?>
<svg xmlns="http://www.w3.org/2000/svg" version="1.1" height="100" width="100">

  <path fill="#333333" d="M 49 1.9 C 41 2.2 32 5.4 25 11 C 18 17 20 37 20 37 L 10 37 L 10 79 C 10 95 22 98 31 98 L 70 98 C 82 98 92 90 92 81 L 92 37 L 82 37 C 82 37 84 19 78 13 C 70 5.5 61 2 51 1.9 C 50 1.9 50 1.9 49 1.9 z M 50 9.6 C 58 9.5 66 12 71 18 C 74 22 74 37 74 37 L 28 37 C 28 37 27 21 31 17 C 35 12 42 9.8 50 9.6 z M 50 49 C 53 49 56 50 58 53 C 62 59 55 65 55 65 L 60 85 L 41 85 L 46 65 C 46 65 45 64 43 61 C 41 57 42 54 45 51 C 46 50 48 49 50 49 z "/>

</svg>
