<?xml version="1.0" encoding="UTF-8"?>
<svg xmlns="http://www.w3.org/2000/svg" version="1.1" height="100" width="100">

  <path style="fill:#222222;stroke:#555555;stroke-width:2" d="m 15,15 c 7,-2 14,-1 19,4 5,5 5,13 3,17 C 36,30 34,25 29,21 22,15 15,15 15,15 z"/>
  <path style="fill:#555555;stroke:#888888;stroke-width:2" d="m 16,5 c 9,-1 20,4.6 24,9 6,7 8,16 8,22 C 51,30 53,21 44,10 35,-1 21,2 16,5 z"/>
  <path style="fill:#666666;stroke:#444444;stroke-width:1" d="m 15,69 0,-30 c 0,0 -3,-1 -3,-7 0,-4 3,-7 7,-7 5,0 8,3 8,7 0,6 -3,7 -3,7 l 0,30 z"/>
  <path style="fill:#444444;stroke:#222222;stroke-width:4" d="m 92,69 c 4,0 5,1 5,5 l 0,18 c 0,5 0,6 -5,6 L 7,98 C 2,98 2,97 2,90 L 2,74 c 0,-3 0,-5 4,-5 z"/>
  <circle cx="19" cy="82" r="4" style="fill:#00BC02;stroke:#111111"/>
  <circle cx="83" cy="82" r="4" style="fill:#FFB700;stroke:#111111"/>
  <circle cx="68" cy="82" r="4" style="fill:#FFB700;stroke:#111111"/>
  <circle cx="53" cy="82" r="4" style="fill:#FFB700;stroke:#111111"/>

  <path style="fill:#999999;stroke:#111111;stroke-width:2" d="M 58,68 C 58,68 85,86 83,99 71,100 51,74 51,74"/>
  <circle cx="38" cy="51" r="26" fill="none" stroke="#222222" style="stroke-width:2" />
  <circle cx="38" cy="51" r="23" fill="none" stroke="#cccccc" style="stroke-width:4" />
  <circle cx="38" cy="51" r="21" fill="#eeeeee" stroke="#222222" style="stroke-width:1;fill-opacity:0.4" />

</svg>
