<?xml version="1.0" encoding="UTF-8"?>
<svg xmlns="http://www.w3.org/2000/svg" version="1.1" height="100" width="100">

  <path style="fill:#888888;stroke:#222222;stroke-width:1.5" d="m 30,56 0,6 c 0,0 -4,0 -5,0 -3,0 -4,4 -4,4 1,0 33,0 34,0 0,0 -1,-4 -3,-4 -2,0 -5,0 -5,0 l 0,-6"/>
  <path style="fill:#cccccc;stroke:#222222;stroke-width:3px;stroke-linecap:butt" d="M 4,51 C 4,41 4,19 4,11 4,9 4,4.6 8,4.6 c 8,0 57,0 61,0 4,0 4,4.4 4,9.4 0,7 0,33 0,37 0,1 0,4 -6,4 -4,0 -55,0 -59,0 -4,0 -4,-4 -4,-4 z"/>
  <path style="fill:#1E567D;stroke:#333333" d="M 8,9 69,9 69,51 8,51 z"/>

  <path style="fill:#888888;stroke:#222222;stroke-width:1.5" d="m 53,88 0,6 c 0,0 -4,0 -5,0 -3,0 -4,4 -4,4 1,0 33,0 34,0 0,0 -1,-4 -3,-4 -2,0 -5,0 -5,0 l 0,-6"/>
  <path style="fill:#cccccc;stroke:#222222;stroke-width:3px;stroke-linecap:butt" d="m 27,83 c 0,-10 0,-32 0,-40 0,-2 0,-6 4,-6 8,0 57,0 61,0 4,0 4,4 4,9 0,7 0,33 0,37 0,1 0,4 -6,4 -4,0 -55,0 -59,0 -4,0 -4,-4 -4,-4 z"/>
  <path style="fill:#3B739A;stroke:#444444" d="m 31,41 61,0 0,42 -61,0 z"/>

  <path style="fill:#2BB927;stroke:#222222;stroke-width:1;opacity:0.75;" d="m 48,80 0,-60 25,25 -7,7 -7,-7 0,35 -9,0 z"/>
  <path style="fill:#2BB927;stroke:#222222;stroke-width:1;opacity:0.75;" d="m 38,20 0,60 -25,-25 7,-7 7,7 0,-35 9,0 z"/>
</svg>
