<?xml version="1.0" encoding="UTF-8"?>
<svg xmlns="http://www.w3.org/2000/svg" version="1.1" height="100" width="100">

  <path style="fill:#E1C757;stroke:#594F25;stroke-width:2;" d="M 3,39 C 30,40 59,38 67,30 78,51 93,68 97,72 90,85 32,90 24,89 19,81 4,45 3,39 z"/>
  <path style="fill:#999999;stroke:#444444;" d="m 24,36 2,12 2,4 1,-4 -1,-12 z"/>
  <path style="fill:#3582A8;stroke:#396E93;stroke-width:2;" d="m 25,25 c -8,1 -11,4 -10,8 1,3 7,4 12,3 4,-1 9,-2 9,-6 0,-5 -11,-5 -11,-5 z"/>
  <path style="fill:#205875;stroke:#224762;stroke-width:3;" d="m 19,16 c 0,6 -1,14 -1,14 0,0 7,4 13,-1 L 28,15 z"/>
  <path style="fill:#2B6E8F;stroke:#5391BE;stroke-width:2;" d="m 23,9 c -5,0 -8,3 -8,4 0,2 2,3 8,3 6,0 8,-2 8,-4 0,-2 -5,-3 -8,-3 z"/>

</svg>
