<?xml version="1.0" encoding="UTF-8"?>
<svg xmlns="http://www.w3.org/2000/svg" version="1.1" height="100" width="100">

  <path style="fill:#2A555D;fill-opacity:0.4" d="m 48,52 c 1,0 2,0 3,0 l 0,0 c 6,0 9,3 9,9 0,6 -3,10 -9,10 -3,0 -5,-1 -7,-4 -1,-2 -1,-3 -2,-7 l -5,0 c 1,7 2,9 3,11 3,4 7,5 11,5 9,0 15,-6 15,-16 0,-6 -2,-9 -7,-12 3,-2 5,-5 5,-10 0,-8 -5,-14 -13,-14 -5,0 -8,2 -11,7 -2,5 -2,7 -2,10 l 5,0 c 1,-8 3,-11 8,-11 5,0 8,3 8,8 0,5 -3,8 -8,8 -1,0 -2,0 -3,0 l 0,6"/>
  <ellipse cx="50" cy="50" rx="45" ry="45" style="fill:none;stroke:#2A555D;stroke-width:8;stroke-opacity:0.4"/>

</svg>
