<?xml version="1.0" encoding="UTF-8"?>
<svg xmlns="http://www.w3.org/2000/svg" version="1.1" height="100" width="100">

  <path style="fill:#222222;stroke:#888888" d="M 92,25 92,82 59,99 9,82 10,25 59,36 z"/>
  <path style="fill:#888888;stroke:#222222;stroke-width:1" d="M 10,25 1,10 38,4 47,18 53,3 98,8 92,25 59,36 z"/>
  <path style="fill:#333333;stroke:#222222;stroke-width:1" d="M 10,25 47,18 92,25 59,36 z"/>
  <path style="fill:none;stroke:#444444;stroke-width:1.5" d="m 59,38 0,59"/>
  <path style="fill:#666666;stroke:none;" d="M 1,41 10,25 59,36 92,25 99,42 66,55 59,36 51,56 z"/>
  <path style="fill:#B1B091;stroke:none;" d="M 18 51 C 17 51 16 51 15 52 C 13 53 12 57 14 61 C 15 64 21 65 21 69 C 21 72 18 73 16 71 C 13 68 12 69 12 69 C 10 70 15 75 18 75 C 22 75 24 73 24 69 C 24 65 22 63 20 62 C 18 61 16 59 16 57 C 16 55 18 53 20 55 C 22 57 23 57 24 56 C 25 54 23 53 23 53 C 21 52 20 51 18 51 z M 30 55 C 28 55 28 55 28 57 L 28 77 C 28 79 28 79 30 79 C 32 79 32 79 32 77 L 32 70 L 37 72 C 37 72 38 72 38 70 C 38 68 37 68 37 68 L 32 66 L 32 59 L 39 62 C 40 62 40 58 38 58 L 30 55 z M 47 60 C 46 60 45 60 44 61 C 42 63 41 67 43 70 C 44 72 50 73 50 78 C 50 81 47 82 45 80 C 42 77 41 78 41 78 C 38 79 44 84 47 84 C 51 84 53 82 53 78 C 53 73 51 71 49 70 C 47 69 45 68 45 66 C 45 63 47 62 49 64 C 50 65 52 67 53 65 C 54 63 52 62 52 62 C 50 61 48 60 47 60 z "/>

</svg>
