<?xml version="1.0" encoding="UTF-8"?>
<svg xmlns="http://www.w3.org/2000/svg" version="1.1" height="100" width="100">

  <path style="fill:#222222;stroke:#888888" d="M 92,25 92,82 59,99 9,82 10,25 59,36 z"/>
  <path style="fill:#888888;stroke:#222222;stroke-width:1" d="M 10,25 1,10 38,4 47,18 53,3 98,8 92,25 59,36 z"/>
  <path style="fill:#333333;stroke:#222222;stroke-width:1" d="M 10,25 47,18 92,25 59,36 z"/>
  <path style="fill:none;stroke:#444444;stroke-width:1.5" d="m 59,38 0,59"/>

  <path style="fill:#bbbbbb" d="m 36,69 0,17 5,-5 5,8 8,-8 -7,-5 6,-5 z m -8,-1 -12,-1 3,4 -6,3 5,8 5,-5 3,4 z m 9,-8 15,-2 -4,-4 7,-5 -8,-7 -4,6 -4,-4 z m -9,-1 0,-12 -4,3 -4,-6 -6,5 5,4 -4,3 z"/>

  <path style="fill:#666666;stroke:none;" d="M 1,41 10,25 59,36 92,25 99,42 66,55 59,36 51,56 z"/>

</svg>
