<?xml version="1.1" encoding="UTF-8"?>
<svg height="100" width="100">

  <path style="fill:#222222;stroke:none" d="M 92,25 92,82 59,99 9,82 10,25 59,36 z"/>
  <path style="fill:#888888;stroke:#222222;stroke-width:1" d="M 10,25 1,10 38,4 47,18 53,3 98,8 92,25 59,36 z"/>
  <path style="fill:#333333;stroke:#222222;stroke-width:1" d="M 10,25 47,18 92,25 59,36 z"/>
  <path style="fill:#666666;stroke:none;" d="M 1,41 10,25 59,36 92,25 99,42 66,55 59,36 51,56 z"/>

  <path style="fill:#35ff35;stroke:#043104;stroke-width:2;fill-opacity:0.8" d="m 68,72 0,-15 -25,0 0,-25 -15,0 0,25 -25,0 0,15 25,0 0,25 15,0 0,-25 z"/>

</svg>
