<?xml version="1.0" encoding="UTF-8"?>
<svg xmlns="http://www.w3.org/2000/svg" version="1.1" height="100" width="100">

  <path style="fill:#222222;stroke:#888888" d="M 92,25 92,82 59,99 9,82 10,25 59,36 z"/>
  <path style="fill:#888888;stroke:#222222;stroke-width:1" d="M 10,25 1,10 38,4 47,18 53,3 98,8 92,25 59,36 z"/>
  <path style="fill:#333333;stroke:#222222;stroke-width:1" d="M 10,25 47,18 92,25 59,36 z"/>
  <path style="fill:none;stroke:#444444;stroke-width:1.5" d="m 59,38 0,59"/>


  <path style="fill:none;stroke:#cccccc;stroke-width:2;stroke-linecap:round;" d="m 31,76 c 1,3 7,4 10,1 2,-3 1,-4 1,-4 0,0 2,2 6,2 5,0 5,-6 5,-6"/>
  <path style="fill:#A09F7B" d="m 34,67 11,-3 c 2,-1 2,0 2,1 l -4,8 c -1,1 -1,1 -2,0 l -7,-4 c -2,-1 0,-2 0,-2 z M 21,55 c -4,0 -8,4 -8,9 0,5 3,9 8,9 6,0 10,-4 10,-9 l -3,0 c 0,2 -1,4 -4,4 -3,0 -4,-2 -4,-4 0,-2 2,-4 4,-4 3,0 4,2 4,4 l 0,0 3,0 c 0,-5 -4,-9 -10,-9 z"/>
  <circle style="fill:#A09F7B" cx="51" cy="56" r="6"/>

  <path style="fill:#666666;stroke:none;" d="M 1,41 10,25 59,36 92,25 99,42 66,55 59,36 51,56 z"/>

</svg>
