<?xml version="1.0" encoding="UTF-8"?>
<svg xmlns="http://www.w3.org/2000/svg" version="1.1" height="100" width="100">

  <path style="fill:#407380;stroke:#648B95;stroke-width:1.5" d="M 83,1 83,27 36,37 29,99 1,99 1,1 z"/>

  <path style="fill:#888888;stroke:#222222;stroke-width:2;stroke-linejoin:bevel" d="m 51,67 10,0 0,31 -10,0 z m 38,-42 9,0 0,18 -40,15 0,7 -4,0 0,-10 40,-15 0,-11 -5,0 z m -68,0 5,0 0,4 -5,0 z"/>
  <path style="fill:#529BB0;stroke:#6EB3C7;stroke-width:2;stroke-linejoin:bevel;" d="m 28,17 0,21 59,0 0,-21 z"/>
  <path style="fill:#73D0E8;stroke-linejoin:bevel;" d="m 31,20 53,0 0,4 -53,0 z"/>

</svg>
