<?xml version="1.0" encoding="UTF-8"?>
<svg xmlns="http://www.w3.org/2000/svg" version="1.1" height="100" width="100">

  <path style="fill:#222222;" d="m 64,3 c -1,0 -3,1.2 -3,3 l 0,10 -29,0 c -4,0 -6,3 -6,5 l 0,71 c 0,3 2,6 6,6 l 36,0 c 2,0 6,-3 6,-6 l 0,-71 c 0,-2 -4,-5 -6,-5 L 68,5.8 C 68,4 66,3 64,3 z m -31,18 33,0 c 2,0 2,2 2,2 l 0,30 c 0,3 0,3 -2,3 l -33,0 c -1,0 -2,0 -2,-3 l 0,-30 c 0,0 0,-2 2,-2 z m 0,38 6,0 c 2,0 2,2 2,2 l 0,5 c 0,2 -1,2 -2,2 l -6,0 c -1,0 -2,0 -2,-2 l 0,-5 c 0,0 0,-2 2,-2 z m 14,0 6,0 c 2,0 2,2 2,2 l 0,5 c 0,2 -1,2 -2,2 l -6,0 c 0,0 -2,0 -2,-2 0,0 0,-3 0,-5 0,-2 2,-2 2,-2 z m 14,0 c 2,0 5,0 5,0 2,0 2,2 2,2 l 0,5 c 0,2 -1,2 -2,2 l -5,0 c 0,0 -2,0 -2,-2 l 0,-5 c 0,0 0,-2 2,-2 z m -28,12 6,0 c 2,0 2,2 2,2 l 0,5 c 0,1 0,2 -2,2 l -6,0 c -1,0 -2,0 -2,-2 l 0,-5 c 0,0 0,-2 2,-2 z m 14,0 c 1,0 6,0 6,0 2,0 2,2 2,2 l 0,5 c 0,2 -1,2 -2,2 l -7,0 c 0,0 -1,0 -1,-2 0,0 0,-3 0,-5 0,-2 1,-2 2,-2 z m 14,0 c 2,0 5,0 5,0 2,0 2,2 2,2 l 0,5 c 0,1 0,2 -2,2 l -5,0 c 0,0 -2,0 -2,-2 l 0,-5 c 0,0 0,-2 2,-2 z m -28,12 6,0 c 2,0 2,2 2,2 l 0,5 c 0,2 -1,2 -2,2 l -6,0 c -1,0 -2,0 -2,-2 l 0,-5 c 0,0 0,-2 2,-2 z m 14,0 c 2,0 6,0 6,0 2,0 2,2 2,2 l 0,5 c 0,2 -1,2 -2,2 l -6,0 c 0,0 -2,0 -2,-2 l 0,-5 c 0,0 0,-2 2,-2 z m 14,0 c 2,0 5,0 5,0 2,0 2,2 2,2 l 0,5 c 0,2 -1,2 -2,2 l -5,0 c 0,0 -2,0 -2,-2 l 0,-5 c 0,0 0,-2 2,-2 z"/>

</svg>
