<?xml version="1.1" encoding="UTF-8"?>
<svg height="100" width="100">

  <path fill="#333333" d="m 71,13 c -2,0 -2,5 -2,5 L 4,18 c -2,0 -3,1 -3,3 l 0,61 c 0,2 1,3 3,3 l 92,0 c 2,0 3,-1 3,-3 l 0,-61 c 0,-4 -3,-3 -9,-3 0,0 0,-5 -2,-5 M 8,23 30,23 c 2,0 2,11 0,11 L 8,34 C 6,34 6,23 8,23 z m 53,5 C 74,28 82,39 82,50 82,63 72,71 61,71 49,71 40,63 40,49 40,40 48,28 61,28 z m 0,2 C 51,30 42,39 42,50 42,60 49,69 61,69 72,69 80,61 80,50 80,40 72,30 61,30 z m 0,2 C 71,32 78,41 78,50 78,60 70,67 61,67 50,67 44,57 44,50 44,42 51,32 61,32 z m 16,45 15,0 c 2,0 2,3 0,3 l -15,0 c -2,0 -2,-3 0,-3 z"/>
  <path style="fill:#FF3D3D;fill-opacity:0.85;stroke:#730000;stroke-width:2;" d="m 39,55 21,-21 10,10 -21,21 21,21 -10,10 L 38,75 16,96 7,86 28,65 7,43 17,33 40,55"/>

</svg>
