<?xml version="1.1" encoding="UTF-8"?>
<svg height="20" width="20" transform="scale(.20)">

  <path fill="#333333" d="m 71,15 c -3,0 -2,3 -2,3 -21,0 -45,0 -65,0 -3,0 -3,3 -3,6 0,18 0,36 0,54 0,3 3,3 6,3 30,0 59,0 89,0 3,0 3,-3 3,-6 0,-18 0,-36 0,-54 0,-3 -3,-3 -9,-3 0,0 1,-3 -2,-3 M 8,23 c 7,0 15,0 22,0 3,3 2,9 -1,11 C 22,35 15,34 9,34 6,34 5,25 8,23 z m 53,5 C 72,28 81,37 82,48 83,59 74,70 63,71 53,73 43,65 41,55 38,45 44,33 53,30 c 3,-1 5,-2 7,-2 z m 0,2 C 51,30 42,39 42,50 42,60 51,70 61,70 71,70 80,61 80,50 80,40 72,30 61,30 z m 0,3 c 10,0 18,9 16,19 0,10 -10,17 -19,15 -10,-2 -17,-14 -13,-23 2,-7 9,-10 16,-11 z m 16,40 c 5,0 11,0 16,0 1,1 1,4 -2,3 -5,0 -11,0 -15,0 -1,-1 -1,-4 1,-3 z"/>

</svg>
