<?xml version="1.0" encoding="UTF-8"?>
<svg xmlns="http://www.w3.org/2000/svg" version="1.1" height="100" width="100">

  <path style="fill:#444;stroke:#333" d="M 20,20 C 10,10 6,6 5,-0.6 l -7,0.4 c 0,0 3,10.2 12,20.2 0,0 10,0 10,0 z"/>
  <path style="fill:#555;stroke:#444;stroke-width:2" d="M 35,26 23,16 C 23,16 7,14 8.5,31 l 5.5,7 z"/>

  <path style="fill:#777;stroke:#444" d="M 82,42 65,27 c 0,0 -2,-2 -6,1 l 18,15 z"/>
  <path style="fill:#666;stroke:#333" d="M 77,43 57,26 c 0,0 -4,-5 -10,-3 -8,3 -24,6 -24,6 0,0 -10,2 -9,11 l 17,16 z"/>
  <path style="fill:#626262;stroke:#333" d="M 31,56 14,40 C 14,40 1.8,37 3.3,53 3,52 26,74 26,74 z"/>
  <path style="fill:none;stroke:#555" d="m 29,40 30,-7 0,0 0,0 m -26,10 30,-7 0,0 0,0 m -27,10 30,-7 0,0 0,0 m -25,10 29,-7 0,0 0,0"/>

  <path style="fill:#444;stroke:#555;" d="m 97,45 -4,-4 c 0,0 -2,-2 -5,-1 0,0 -59,16 -59,16 0,0 -4,1 -3,7 l 0,19 c 0,6 8,7 8,7 z"/>
  <path style="fill:#ACA275;stroke:#606060;" d="M 92,43 36,59 c 0,0 -7,2 -6,10 l 0,16 c 0,6 7,4 7,4 L 92,71 c 0,0 5,0 5,-7 0,-8 0,-15 0,-18 0,-3 -5,-3 -5,-3 z"/>
  <path style="fill:#CFC6A3;stroke:#736B47" d="m 85,61 c -1,-7 -2,-8 -5,-7 l -30,9 c 0,0 -5,1 -5,5 0,0 2,6 3,9 1,3 2,2 9,5 1,0 18,-9 25,-16 2,-2 4,2 3,-5 z"/>
  <path style="fill:#E5E0CB" d="m 84,60 -25,8 c 0,0 -5,1 -5,4 0,4 3,10 3,10 0,0 1,1 4,0 L 86,63 c 0,0 1,-2 -2,-3 z"/>
  <path style="fill:#555" d="m 83,63 c -1,0 -22,7 -22,7 0,0 -4,1 -4,3 0,3 1,5 2,8 1,2 4,1 4,1 l 20,-7 c 2,-1 2,-2 3,-11 0,-2 -3,-1 -3,-1 z"/>

  <circle cx="40" cy="76" r="3.5" fill="#222" stroke="#111"/>
  <circle cx="90" cy="60" r="3" fill="#333" stroke="#222" />

  <g style="fill:#000;">
    <circle cx="62" cy="74" r="1.7"/>
    <circle cx="67" cy="72" r="1.7"/>
    <circle cx="72" cy="70" r="1.7"/>
    <circle cx="77" cy="68.5" r="1.7"/>
    <circle cx="82" cy="67" r="1.7"/>

    <circle cx="65" cy="79" r="1.7"/>
    <circle cx="70" cy="77" r="1.7"/>
    <circle cx="75" cy="75" r="1.7"/>
    <circle cx="80" cy="73" r="1.7"/>
  </g>

</svg>
