<?xml version="1.0" encoding="UTF-8"?>
<svg xmlns="http://www.w3.org/2000/svg" version="1.1" height="100" width="100">

  <path style="fill:#666;stroke:#555" d="M -1.6,-6.9 C -1.6,-6.9 9,14 25,24 l -4,8 C 21,32 2,18 -4,3 z"/>
  <path style="fill:#999;stroke:#777;stroke-width:2" d="M 44,33 31,23 c 0,0 -4,-1 -8,3 -5,6 -2,12 -2,12 l 8,7 z"/>

  <path style="fill:#aaa;stroke:#666;" d="M 43,82 23,63 c 0,0 -3,-11 1,-14 3,-3 28,-24 31,-26 2,-1 5,-2 8,0 4,2 23,19 23,19 z"/>
  <path style="fill:none;stroke:#eee;stroke-width:2.5;" d="m 55,44 7,-6 m -9,0 -9,0 0,17 18,0 0,-9"/>

  <path style="fill:#998D4D;stroke:#837431;stroke-width:2" d="m 89,37 c 1,-1 3,3 1,5 -2,3 1,8 3,6 2,-2 4,0 2,2 -4,4 -7,8 -7,8 L 47,96 c -2,2 -2,-2 -2,-3 5,-4 3,-11 -3,-7 -3,1 -4,-2 -3,-3 z"/>
  <path style="fill:#444444" d="m 57,90 c -2,1 -3,-10 -1,-10 2,-1 31,-32 32,-31 2,2 3,9 2,10 0,0 -28,27 -33,31 z"/>
  <path style="fill:#C6BF9D" d="M 84,47 53,76 c -5,5 -2,6 -2,9 3,3 5,5 6,5 1,0 -1,-5 0,-8 1,-3 32,-30 32,-31 0,-2 -3,-3 -5,-4 z"/>
  <path style="fill:none;stroke:#DFD8B6;stroke-width:1.5;stroke-linecap:round" d="M 87,57 60,83"/>

</svg>
