<?xml version="1.0" encoding="UTF-8"?>
<svg xmlns="http://www.w3.org/2000/svg" version="1.1" height="100" width="100">

  <path style="fill:#444;stroke:#333" d="M -3.7,5.7 C -3.7,5.7 11,11 25,24 l -4,8 C 21,32 6.2,19 -6.2,15 z"/>
  <path style="fill:#666;stroke:#555;stroke-width:2" d="M 44,33 31,23 c 0,0 -4,-1 -8,3 -5,6 -2,12 -2,12 l 8,7 z"/>

  <path style="fill:#bbb;" d="m 25,60 c 2,9 -2,12 -6,11 -2,-2 0,-11 6,-11 z M 71,21 c 3,8 -5,11 -8,9 -5,-3 1,-10 8,-9 z"/>
  <path style="fill:#a2a2a2;stroke:#666" d="M 24,60 10,48 c 0,0 -7.5,0 -6.2,9 L 18,70 c 0,0 0,-10 6,-10 M 54,24 48,19 c 0,0 -2,-6 6,-8 l 16,10 c 0,0 -8,0 -8,5 0,8 -8,-2 -8,-2 z"/>

  <path style="fill:#828282;stroke:#555" d="M 86,32 72,23 c 0,0 -5,-1 -5,6 l 14,8 z M 41,73 27,61 c 0,0 -7,2 -7,10 l 17,14 z"/>

  <path style="fill:#888;stroke:#777;" d="M 40,73 21,57 c 0,0 -2,-4 3,-8 3,-3 28,-26 31,-28 2,-1 4,-2 7,0 4,2 20,14 20,14 z"/>
  <path style="fill:none;stroke:#606060;" d="M 65,36 42,56 M 61,35 41,53 M 58,34 40,50 M 55,33 39,47 M 52,32 38,44"/>

  <path style="fill:#ACA275;stroke:#736B47" d="m 89,31 c 0,0 1,11 1,14 0,4 -4,7 -4,7 L 41,94 39,86 c 0,0 -2,-5 3,-10 9,-6 47,-45 47,-45 z"/>
  <path style="fill:#444444" d="m 55,87 c -2,1 -3,-10 -1,-10 2,-1 32,-32 33,-31 2,2 2,9 1,10 0,0 -28,27 -33,31 z"/>
  <path style="fill:#D8D2B3" d="m 84,43 c -11,9 -29,27 -32,30 -4,4 -3,6 -3,9 3,3 5,5 6,5 1,0 -1,-5 0,-8 1,-3 33,-30 33,-31 0,-2 -2,-4 -4,-5 z"/>
  <path style="fill:#444;stroke:#555" d="M 37,92 36,82 c 0,0 -1,-4 4,-9 5,-4 46,-43 46,-43 0,0 0,-1 0,0 4,1 3,3 3,3 L 42,77 c 0,0 -3,4 -2,8 l 1,7 c 0,0 0,2 -2,1 -2,-1 -2,-1 -2,-1 z"/>
  <circle cx="45" cy="84" r="2" fill="#8A7A33" stroke="#5B5225"  style="stroke-width:0.5"/>

</svg>
