<?xml version="1.0" encoding="UTF-8"?>
<svg xmlns="http://www.w3.org/2000/svg" version="1.1" height="100" width="100">

  <path style="fill:#808080;stroke:#666" d="m -4,28 c 1,6 17,13 17,13 L 18,31 C 18,31 1,23 -4,15 z"/>
  <path style="fill:#7E4A8F;stroke:#6A357B" d="M 33,36 21,29 C 14,29 8,36 11,44 l 13,8 z"/>
  <path style="fill:#9856AD;stroke:#69327B" d="M 78,54 41,33 C 28,29 16,49 25,59 l 38,23 z"/>
  <path style="fill:#7C428F;stroke:#6A387A" d="m 81,58 c -1,-5 -6,-5 -10,-3 -4,2 -13,8 -11,23 0,3 3,5 7,4 4,-1 14,-24 14,-24 z"/>
  <path style="fill:none;stroke:#69327B" d="M 42,69 C 29,57 43,37 56,42 M 37,66 C 24,54 39,34 51,39 M 32,63 C 20,51 34,31 46,36"/>

  <path style="fill:#777;stroke:#333;" d="m 85,65 c 0,0 5,-3 9,1 1,1 2,4 2,8 0,6 -4,12 -8,15 -4,3 -10,3 -12,-3"/>
  <path style="fill:#333;stroke:#333;" d="m 87,65 c 5,6 -3,20 -11,19 -1,-10 -7,-23 -4,-26 3,-3 15,7 15,7 z"/>
  <path style="stroke:#D0BA57;stroke-width:2;stroke-linecap:round" d="m 76,79 7,5 m -7,-6 4,3 m 0,-1 7,4 m -4,-9 8,5 0,0 0,0 m -6,-10 8,5"/>
  <path style="fill:#aaa;stroke:#333" d="M 63,79 79,90 C 71,80 80,68 83,67 l -10,-7 2,-1 10,6 c 0,0 4,-2 8,0 L 77,56 C 69,57 58,67 63,79 z"/>

</svg>
