<?xml version="1.0" encoding="UTF-8"?>
<svg xmlns="http://www.w3.org/2000/svg" version="1.1" height="100" width="100">

  <path style="fill:#777777;stroke:#111111;stroke-width:1.5" d="m 25,66 11,-4 c 0,0 5,1 10,0 6,-1 6,-7 7,-10 1,-3 -2,-1 2,2 4,3 11,3 14,1 4,-2 4,-6 4,-6 l 6,-2 c 1,-5 4,-9 10,-9 7,0 10,8 10,8 l -12,-1 -1,9 11,1 c -1,3 -4,7 -11,6 -4,-1 -6,-2 -6,-2 L 26,77 c 0,0 -1,3 -3,5 -2,2 -6,3 -10,2 C 8,83 4,79 3,76 l 14,1 1,-9 -12,-1 c 2,-4 5,-6 9,-6 7,0 10,5 10,5 z"/>

  <path style="fill:none;stroke:#111111;stroke-width:3;stroke-linecap:round;" d="m 33,58 c 1,5 12,7 17,2 3,-4 3,-8 3,-8 0,0 3,5 10,5 10,0 10,-11 10,-11"/>
  <g style="fill:#222222;stroke:none;">
    <path d="M 16,21 C 8,21 1,28 1,37 1.1,45 7.2,53 16,53 26,53 33,46 33,37 l -4,0 c 0,3 -3,7 -8,7 -5,0 -7,-4 -7,-8 0,-4 4,-8 7,-8 5,0 8,4 8,8 l 0,1 4,0 C 33,28 27,21 16,21 z"/>
    <ellipse cx="68" cy="23" rx="9" ry="9"/>
    <path d="m 39,42 20,-6 c 2,-1 4,-1 3,3 l -7,13 c -1,2 -2,2 -3,0 L 39,45 c -3,-1 0,-3 0,-3 z"/>
  </g>

</svg>
