<?xml version="1.0" encoding="UTF-8"?>
<svg xmlns="http://www.w3.org/2000/svg" version="1.1" height="100" width="100">

  <g style="fill:#333333;stroke:none;">
    <path d="M 20,42 C 10,42 0.15,51 0.15,63 0.25,74 8.2,85 20,85 32,85 42,75 42,63 l -6,0 c 0,4 -4,9 -10,9 -6,0 -9,-5 -9,-10 0,-6 5,-10 9,-10 6,0 10,5 10,10 l 0,1 6,0 C 42,51 34,42 20,42 z"/>
    <ellipse cx="87" cy="45" rx="11" ry="11"/>
    <path d="m 49,70 26,-8 c 3,-1 6,-1 4,4 l -9,16 c -1,3 -2,3 -4,1 L 49,74 c -4,-2 0,-4 0,-4 z"/>
  </g>
  <path style="fill:none;stroke:#333333;stroke-width:3;stroke-linecap:round;" d="m 41,91 c 2,6 16,8 22,2 5,-5 5,-10 5,-10 0,0 4,6 12,6 13,0 13,-14 13,-14"/>

  <path style="fill:#00FF06;stroke:#224F24;stroke-width:4;fill-opacity:0.5" d="M 43,75 75,46 59,46 59,4 24,4 24,46 7,46 z"/>

</svg>
