<?xml version="1.0" encoding="UTF-8"?>
<svg xmlns="http://www.w3.org/2000/svg" version="1.1" height="100" width="100">

  <g style="fill:#333333;stroke:none;">
    <path d="M 21,26 C 11,26 1,35 1,47 1.1,58 9,69 21,69 33,69 43,59 43,47 l -6,0 c 0,4 -4,9 -10,9 -6,0 -9,-5 -9,-10 0,-6 5,-10 9,-10 6,0 10,5 10,10 l 0,1 6,0 C 43,35 35,26 21,26 z"/>
    <ellipse cx="88" cy="29" rx="11" ry="11"/>
    <path d="m 50,54 26,-8 c 3,-1 6,-1 4,4 l -9,16 c -1,3 -2,3 -4,1 L 50,58 c -4,-2 0,-4 0,-4 z"/>
  </g>
  <path style="fill:none;stroke:#333333;stroke-width:3;stroke-linecap:round;" d="m 42,75 c 2,6 16,8 22,2 5,-5 5,-10 5,-10 0,0 4,6 12,6 13,0 13,-14 13,-14"/>

</svg>
