<?xml version="1.1" encoding="UTF-8"?>
<svg height="100" width="100">

  <path style="fill:#8A1A1A;" d="m 26,48 c -6,0 -11,1 -13,2 -4.9,2 -5,12 -1,14 6,5 13,3 18,-2 4,-5 4,-9 4,-14 m 8,-3 0,27 -8,0 0,-7 C 27,73 13,76 5.6,69 0,63 1,50 6.7,46 15,41 24,42 34,42 33,24 15,29 4.8,33 l 0,-7 C 17,22 27,20 37,28 c 4,4 5,9 5,17"/>
  <path style="fill:#1E9022;" d="m 63,50 c 1,18 21,20 35,12 l 0,8 C 78,77 55,73 55,48 55,32 63,23 78,23 95,23 99,35 99,50 M 92,44 C 91,37 88,29 79,29 69,29 64,37 63,44 l 29,0"/>
  <path style="fill:#222222;" d="m 45,2 0,96 7,0 0,-96 z"/>

</svg>
