<?xml version="1.0" encoding="UTF-8"?>
<svg xmlns="http://www.w3.org/2000/svg" version="1.1" height="100" width="100">

  <path style="fill:#111111;stroke:#666666" d="m 41,81 0,8 c 0,0 -6,0 -7,0 -4,0 -6,6 -6,6 2,0 43,0 44,0 0,0 -1,-6 -4,-6 -2,0 -7,0 -7,0 l 0,-8"/>
  <path style="fill:#ffffff;stroke:#000000;stroke-width:4px;stroke-linecap:butt" d="m 4.7,74 c 0,-16 0,-45 0,-57 0,-4 0,-8.8 5.2,-8.8 9.1,0 76.1,0 81.1,0 5,0 5,4.8 5,12.8 0,11 0,46 0,53 0,1 0,5 -8,5 -5,0 -74,0 -78.1,0 -5.2,0 -5.2,-5 -5.2,-5 z"/>
  <path style="fill:#333333;stroke:#ffffff" d="M 7.8,12 93,12 93,75 7.8,75 z"/>

  <circle cx="27" cy="27" r="24" style="fill:#F1AB24;stroke:#875900;stroke-width:2;fill-opacity:0.8;stroke-opacity:0.6"/>
  <path fill="#333333" d="m 27,7 c -4,0 -9,2 -11,6 -1,2 -1,9 -1,9 0,0 -2,0 -3,0 0,5 0,11 0,17 0,3 4,6 7,6 6,0 11,0 17,0 2,0 6,-3 6,-6 0,-6 0,-11 0,-17 -2,0 -2,0 -3,0 0,0 0,-6 -1,-9 C 36,9 31,7 27,7 z m 8,9 0,6 -16,0 c 0,-6 0,-6 0,-6 0,-4 5,-5 8,-5 3,0 8,1 8,5 z m -9,10 c 4,0 5,4 2,6 l 2,8 -7,0 2,-8 c -3,-2 -2,-6 1,-6 z"/>

</svg>
