<?xml version="1.0" encoding="UTF-8"?>
<svg xmlns="http://www.w3.org/2000/svg" version="1.1" height="100" width="100">

  <circle style="fill:#777777;" cx="50" cy="50" r="48"/>
  <circle style="fill:#777777;" cx="50" cy="50" r="44"/>
  <path style="stroke:none;fill:#12C61C;" d="M 40 8 50 50 90 40 C 90 40 80 1 38 8 "/>
  <circle style=";stroke-width:6pt;stroke:#222222;fill:none;" cx="50" cy="50" r="42"/>
  <g style="fill:#aaaaaa;">
    <circle cx="50" cy="9" r="3"/>
    <circle cx="91" cy="50" r="3"/>
    <circle cx="50" cy="91" r="3"/>
    <circle cx="9" cy="50" r="3"/>
  </g>
  <path style="stroke:#ffffff;stroke-width:5;fill:none;" d="M 50 50 45 24"/>
  <path style="stroke:#ffffff;stroke-width:4;fill:none;" d="M 50 50 28 73"/>
  <circle style="fill:#ffffff;" cx="50" cy="50" r="4.5"/>

  <path style="fill:none;stroke:#E10000;stroke-width:8px;stroke-linecap:round;stroke-linejoin:round;" d="M 60,56 C 44,70 52,96 74,96 91,96 96,83 96,74 96,66 92,60 87,56 m -14,-5 0,19"/>

</svg>
