<?xml version="1.0" encoding="UTF-8"?>
<svg xmlns="http://www.w3.org/2000/svg" version="1.1" height="100" width="100">

  <g style="fill:#555555;stroke:#222222;stroke-width:2px;">
    <path d="m 10,5 0,95 10,0 0,-95 z"/>
    <path d="m 45,5 0,95 10,0 0,-95 z"/>
    <path d="m 80,5 0,95 10,0 0,-95 z"/>
  </g>

  <g style="fill:#009200;">
    <path d="m 11,40 0,58 8,0 0,-58 z"/>
    <path d="m 46,32 0,66 8,0 0,-66 z"/>
    <path d="m 81,59 0,39 8,0 0,-39 z"/>
  </g>

  <rect style="fill:#222222;stroke:#cccccc" width="22" height="14" x="4" y="35"/>
  <rect style="fill:#222222;stroke:#cccccc" width="22" height="14" x="40" y="27"/>
  <rect style="fill:#222222;stroke:#cccccc" width="22" height="14" x="75" y="54"/>
  <g style="fill:none;stroke:#555555;stroke-width:2">
    <path d="m 5,42 20,0"/>
    <path d="m 41,34 20,0"/>
    <path d="m 76,61 20,0"/>
  </g>

</svg>
