<?xml version="1.0" encoding="UTF-8"?>
<svg xmlns="http://www.w3.org/2000/svg" version="1.1" height="100" width="100">
  
  <rect x="10" y="10" rx="5" ry="5" width="50" height="84" style="fill:#aaa"/>
  <rect x="20" y="20" width="30" height="6" style="fill:none;stroke:#222;stroke-width:2px"/>
  <path d="M 20,65 50,65 M 20,70 50,70 M 20,75 50,75 M 20,80 50,80" style="fill:none;stroke:#666;stroke-width:2px"/>
  <circle cx="25" cy="55" r="3" style="fill:#00FF00"/>
  
  <path style="fill:#222222;stroke:#222222" d="m 60,87 0,5 c 0,0 -3,0 -4,0 -2,0 -3,3 -3,3 1,0 26,0 27,0 0,0 -1,-3 -3,-3 -1,0 -4,0 -4,0 l 0,-5"/>
  <path style="fill:none;stroke:#000000;stroke-width:4px;stroke-linecap:butt" d="m 39,83 c 0,-8 0,-25 0,-31 0,-2 0,-5 3,-5 6,0 45,0 48,0 3,0 3,3 3,7 0,6 0,26 0,29 0,1 0,3 -5,3 -3,0 -43,0 -46,0 -3,0 -3,-3 -3,-3 z"/>
  <path style="fill:#444444;stroke:#cccccc" d="m 41,49 50,0 0,35 -50,0 z"/>

  <path style="fill:#00FF00;stroke:#222;stroke-width:1.5px;fill-opacity:0.8;" d="m 50,30 -1,7 -7,3 -6,-4 -6,7 3,5 -3,8 -6,1 0,9 7,1 2,6 -4,7 7,7 6,-4 7,3 1,7 10,0 1,-7 6,-3 6,4 8,-7 -5,-7 2,-5 9,-1 0,-10 -8,-1 -3,-7 4,-6 -6,-7 -6,4 -8,-3 -1,-7 z m 4,14 c 9,0 18,8 18,16 0,11 -9,18 -18,18 -9,0 -17,-7 -17,-18 0,-8 8,-16 17,-16 z"/>
</svg>
