<?xml version="1.0" encoding="UTF-8"?>
<svg xmlns="http://www.w3.org/2000/svg" version="1.1" height="100" width="100">

   <path  style="fill:#aaaaaa;stroke:#222222;stroke-width:3" d="m 3,23 c 0,-8 3.9,-13 11,-13 13,0 61,0 69,0 8,0 13,3 13,11 0,8 0,50 0,56 0,6 0,14 -10,14 C 75,91 22,91 15,91 8,91 3,90 3,79 3,70 3,23 3,23 z"/>
   <path style="fill:#444444;stroke:#000000;" d="m 14,16 c 13,0 67,0 70,0 3,0 6,1 6,6 L 90,63 9,63 9,21 c 0,-2 2,-5 5,-5 z"/>
   <path style="fill:#555555;stroke:#ffffff" d="m 9,69 36,0 0,17 c 0,0 -27,0 -30,0 -3,0 -6,0 -6,-5 0,-5 0,-12 0,-12 z"/>
   <path style="fill:#555555;stroke:#ffffff" d="m 53,69 37,0 0,13 c 0,3 -2,4 -7,4 l -30,0 z"/>

</svg>
