<?xml version="1.0" encoding="UTF-8"?>
<svg xmlns="http://www.w3.org/2000/svg" version="1.1" height="100" width="100">

  <path style="fill:#427794;stroke:#2A424F" d="M 22,43 C 18,48 6.5,45 4.2,56 2,62 2,81 14,79 13,64 12,57 12,57 c 0,0 1,14 2,21 9,4 24,4 35,-1 0,-8 -1,-13 0,-18 0,-5 0,19 0,19 0,0 6,2 8,-5 3,-10 5,-24 -9,-28 -9,-1 -7,-2 -8,-2 -2,0 -18,0 -18,0 z"/>
  <path style="fill:#C29B82;stroke:#693311" d="m 23,38 c 0,0 1,3 -1,5 3,4 11,8 18,0 -1,-2 -1,-2 -1,-5 0,0 -16,0 -16,0 z"/>
  <path style="fill:#CDA68E;stroke:#693311" d="M 31,42 C 17,42 7.6,4.8 31,4.2 55,4.1 44,42 31,42 z"/>
  <path style="fill:#553932;stroke:#311710" d="M 17,26 C 14,16 14,3.2 31,2.4 44,3.1 49,15 44,26 44,21 45,19 43,16 39,15 33,16 28,11 27,15 15,13 17,26 z"/>

  <path style="fill:#5F3E20;stroke:#311710" d="m 45,65 c 5,-8 0,-25 3,-31 3,-10 7,-16 16,-16 10,0 16,8 20,17 1,2 0,6 2,11 1,4 -1,8 -1,10 0,5 -1,3 2,9 -5,13 -34,10 -42,0 z"/>
  <path style="fill:#D8933B;stroke:#2A424F" d="m 58,60 c -5,5 -18,3 -20,13 -2,6 -1,25 11,24 -1,-16 -3,-23 -3,-23 0,0 2,15 3,21 9,5 23,5 35,-1 0,-6 -1,-13 0,-18 1,-5 0,20 0,20 0,0 7,1 9,-6 2,-9 4,-22 -7,-25 -9,-3 -10,-5 -12,-5 -1,0 -16,0 -16,0 z"/>
  <path style="fill:#DEB89F;stroke:#693311" d="m 58,54 c 0,0 1,3 0,7 3,3 10,8 16,0 -1,-4 -1,-4 -1,-7 0,0 -15,0 -15,0 z"/>
  <path style="fill:#DBBFA8;stroke:#693311" d="M 66,59 C 52,59 43,21 66,20 86,21 79,59 66,59 z"/>
  <path style="fill:#5F3E20" d="m 63,27 c -3,5 -7,8 -12,9 -4,1 2,-17 13,-17 5,0 13,3 15,15 -6,1 -14,-5 -16,-7"/>

</svg>
