<?xml version="1.0" encoding="UTF-8"?>
<svg xmlns="http://www.w3.org/2000/svg" version="1.1" height="100" width="100">

  <path style="fill:#427794;stroke:#2A424F" d="m 39,52 c -5,6 -20,3 -23,16 -2,7 -2,30 13,28 -1,-18 -3,-27 -3,-27 0,0 2,17 3,25 11,6 28,6 42,-1 0,-8 -1,-15 0,-22 1,-6 0,24 0,24 0,0 9,2 12,-7 C 85,77 88,59 70,55 59,53 62,52 60,52 58,52 39,52 39,52 z"/>
  <path style="fill:#C29B82;stroke:#693311" d="m 40,45 c 0,0 1,4 -1,7 4,4 13,10 21,0 -1,-3 -1,-3 -1,-7 0,0 -19,0 -19,0 z"/>
  <path style="fill:#CDA68E;stroke:#693311" d="M 50,50 C 33,50 21,4.1 49,3.4 79,3.3 66,50 50,50 z"/>
  <path style="fill:#553932;stroke:#311710" d="M 33,30 C 29,19 29,2.2 49,1.2 66,2.1 72,18 66,30 66,25 67,23 64,19 59,18 52,19 46,12 44,18 30,15 33,30 z"/>

</svg>
