<?xml version="1.0" encoding="UTF-8"?>
<svg xmlns="http://www.w3.org/2000/svg" version="1.1" height="100" width="100">

  <path style="fill:#222222;stroke:#888888" d="M 92,25 92,82 59,99 9,82 10,25 59,36 z"/>
  <path style="fill:#888888;stroke:#222222;stroke-width:1" d="M 10,25 1,10 38,4 47,18 53,3 98,8 92,25 59,36 z"/>
  <path style="fill:#333333;stroke:#222222;stroke-width:1" d="M 10,25 47,18 92,25 59,36 z"/>
  <path style="fill:none;stroke:#444444;stroke-width:1.5" d="m 59,38 0,59"/>
  <path style="fill:#666666;stroke:none;" d="M 1,41 10,25 59,36 92,25 99,42 66,55 59,36 51,56 z"/>

  <path style="fill:#888888;stroke:#111111;stroke-width:2" d="m 41,28 36,41 c 6,-1 14,1 17,7 4,8 -1,19 -1,19 L 85,79 71,87 77,97 C 73,97 66,96 63,89 61,84 63,79 63,79 L 27,37 C 18,38 10,37 5,28 0,19 3,9 6,6 L 16,27 35,18 27,2 c 6,0 12,2.9 15,9 4,9 -1,17 -1,17 z"/>
</svg>
