<?xml version="1.0" encoding="UTF-8"?>
<svg xmlns="http://www.w3.org/2000/svg" version="1.1" height="100" width="100">

  <path style="fill:#aaaaaa" d="m 94,47 c -9,3 -10,16 -11,21 -2,7 7,5 12,-3 l 0,7 c -2,4 -13,12 -16,9 -7,-6 1,-23 4,-30 2,-4 4,-8 11,-9 z M 77,14 c -3,1 -5,0 -6,3 -1,3 -14,27 -21,53 -2,6 2,13 7,12 5,-1 12,-2 17,-18 3,-9 5,-22 0,-22 -5,0 -6,1 -6,1 l 9,-29 z m -8,31 c 0,0 1,0 1,1 2,3 -4,21 -8,25 -4,4 -4,1 -3,-2 1,-3 7,-22 7,-22 0,0 1,-2 3,-2 z M 39,58 C 33,46 25,39 16,44 c -5,3 -2,17 5,24 9,9 22,14 31,-4 L 50,62 C 43,75 34,74 27,69 19,63 14,51 18,50 c 4,-1 8,4 9,8 z M 62,3 C 58,3 47,13 37,31 26,51 18,70 14,74 10,78 7,78 7,75 7,72 9.8,71 12,69 14,67 14,63 10,62 6,61 4,63 3,65 0,71 2,83 8,82 14,81 21,69 28,55 30,50 46,19 56,10 54,17 34,56 32,62 c -4,11 -7,21 2,30 11,8 31,5 37,2 6,-3 11,3 13,5 0,-9 6,-5 11,-1 C 94,93 94,87 77,87 66,87 52,100 41,84 36,75 51,35 53,30 55,25 64,5 62,3 z"/>
  <path style="fill:#111111" d="m 93,45 c -9,3 -10,16 -11,21 -2,7 7,5 12,-3 l 0,7 c -2,4 -13,12 -16,9 -7,-6 1,-23 4,-30 2,-4 4,-8 11,-9 z M 76,12 c -3,1 -5,0 -6,3 -1,3 -14,27 -21,53 -2,6 2,13 7,12 5,-1 12,-2 17,-18 3,-9 5,-22 0,-22 -5,0 -6,1 -6,1 l 9,-29 z m -8,31 c 0,0 1,0 1,1 2,3 -4,21 -8,25 -4,4 -4,1 -3,-2 1,-3 7,-22 7,-22 0,0 1,-2 3,-2 z M 38,56 C 32,44 24,37 15,42 c -5,3 -2,17 5,24 9,9 22,14 31,-4 L 49,60 C 42,73 33,72 26,67 18,61 13,49 17,48 c 4,-1 8,4 9,8 z M 61,1 C 57,1 46,11 36,29 25,49 17,68 13,72 9,76 6,76 6,73 6,70 8.8,69 11,67 13,65 13,61 9,60 5,59 3,61 2,63 -1,69 1,81 7,80 13,79 20,67 27,53 29,48 45,17 55,8 53,15 33,54 31,60 c -4,11 -7,21 2,30 11,8 31,5 37,2 6,-3 11,3 13,5 0,-9 6,-5 11,-1 C 93,91 93,85 76,85 65,85 51,98 40,82 35,73 50,33 52,28 54,23 63,3 61,1 z"/>

  <path style="fill:#CF9100;stroke:#333333;stroke-width:2;" d="M 25,78 85,15 c 0,0 5,1 8,4 3,3 4,8 4,8 L 38,90 22,94 z"/>
  <path style="fill:#eeeeee" d="M 85,19 28,79 30,81 87,21 z"/>
  <path style="fill:#111111" d="m 22,94 7,-2 -5,-5 z"/>

</svg>
