<?xml version="1.0" encoding="UTF-8"?>
<svg xmlns="http://www.w3.org/2000/svg" version="1.1" height="16px" width="16px" viewBox="0 0 100 100">
  <path  style="fill:#333333;" d="m 75,40 -14,11 0,7 2,0 1,-5 11,-9 z m 21,8 -14,12 0,5 4,2 L 71,79 71,99 89,81 88,74 99,63 z M 65,59 49,70 49,83 53,71 66,63 z"/>
  <path  style="fill:#999999;" d="M 61,51 43,44 59,34 75,40 M 82,60 64,53 78,42 96,48 M 71,79 53,71 69,61 l 17,6 0,0 M 49,70 33,62 47,52 65,59"/>
  <path  style="fill:#cccccc;" d="m 63,58 1,-5 18,7 0,5 -13,-4 -3,1 0,-3 z m -25,0 5,-14 18,7 0,7 -14,-6 -9,7 z m -12,18 7,-14 16,8 0,13 4,-12 18,8 0,20 z"/>
  <path  style="fill:none;stroke:#111111;stroke-width:1.5" d="m 74,67 c -2,-2 -5,-1 -5,-1 -1,2 3,3 1,5 0,1 -5,0 -6,-2 m 14,-24 -2,5 4,-1 1,3 6,-3 m -27,-8 1,4 m 2,-6 c -2,-2 -4,-2 -7,0 -2,1 -1,4 2,4 3,0 7,-2 5,-4 z m -18,20 4,2 m -8,-1 10,-3 -4,6"/>
  <path  style="fill:none;stroke:#222222;stroke-width:1" d="m 38,59 5,-15 16,-10 16,6 0,4 M 48,87 c 0,-2 5,-16 5,-16 L 69,61 86,67 89,81 71,99 26,76 33,62 47,52 l 18,7 1,4 m -3,-5 1,-5 14,-11 18,6 3,15 -11,11"/>
  <path style="fill:#222222;" d="M 7.2,100 7.2,6.9 3.4,6.9 2,100 z"/>
  <ellipse style="fill:#222222;" cx="6" cy="4" rx="4" ry="4"/>
  <path  style="fill:#666666" d="M 7.9,8.5 C 19,4.4 27,5.6 34,10 c 6,4 11,9 18,6 5,-2 10,-7.5 10,-7.5 L 62,45 c 0,0 -4,4 -8,5 C 43,54 38,48 31,45 23,39 14,44 7.9,47 z"/>
  <path  style="fill:#296E7B;" d="m 7.9,8.5 c 0,0 3.1,-0.8 6.1,-1.6 5,-1.3 9,-1.3 13,0 L 27,42 c 0,0 -5,-2 -13,3 -5.3,2 -6.1,2 -6.1,2 z"/>
  <path  style="fill:#eeeeee;" d="m 27,6.9 c 3,0.8 5,1.6 9,5.1 4,2 6,4 10,4 l 0,35 C 38,50 33,45 27,42 z"/>
  <path  style="fill:none;stroke:#222222;stroke-width:1.5" d="M 7.9,8.5 C 19,4.4 27,5.6 34,10 c 6,4 11,9 18,6 5,-2 10,-7.5 10,-7.5 L 62,45 c 0,0 -4,4 -8,5 C 43,54 38,48 31,45 23,39 14,44 7.9,47 z"/>
</svg>
