<?xml version="1.0" encoding="UTF-8"?>
<svg xmlns="http://www.w3.org/2000/svg" version="1.1" height="16px" width="16px" viewBox="0 0 100 100">
  <path style="fill:#999999" d="M 3,3 96,3 97,97 3,97 z"/>
  <path style="fill:#EBEBDA" d="m 33,16 63,0 1,81 -64,0 z"/>
  <path style="fill:none;stroke:#555555;stroke-width:1" d="m 65,3 0,94 M 33,3 33,97 M 96,16 3,16 M 97,29 3,29 M 97,42 3,42 M 97,55 3,55 M 97,69 3,69 M 97,83 3,83"/>
  <path style="fill:none;stroke:#333333;stroke-width:3" d="M 3,3 96,3 97,97 3,97 z"/>
  <path style="fill:#3D5B73;stroke:#222222;stroke-width:2" d="m 41,64 28,0 C 69,84 54,92 42,92 26,92 13,80 13,64 13,49 24,37 41,37 z"/>
  <path style="fill:#4E9DFF;stroke:#0F3C59;stroke-width:2" d="m 45,60 27,0 C 72,44 62,33 45,33 z"/>
</svg>
