<?xml version="1.0" encoding="UTF-8"?>
<svg xmlns="http://www.w3.org/2000/svg" version="1.1" height="16px" width="16px" viewBox="0 0 100 100">
  <g style="fill:#E13434;opacity:0.4;" transform="rotate(-8 50 50)">
  <path d="m 15,7.5 70,0 q 7.5,0 7.5,7.5 l 0,70 q 0,7.5 -7.5,7.5 l -70,0 q -7.5,0 -7.5,-7.5 l 0,-70 q 0,-7.5 5,-7.5 z"/>
  </g>
  <path style="fill:#E13434;" d="m 15,7.5 70,0 q 7.5,0 7.5,7.5 l 0,70 q 0,7.5 -7.5,7.5 l -70,0 q -7.5,0 -7.5,-7.5 l 0,-70 q 0,-7.5 5,-7.5 z"/>
  <path style="fill:#FFF;" d="m 17,29 26,47 q 7,11 14,0 l 26,-47 a 7.5,7.5 0 1 0 -13.5,0 a 15,15 0 1 1 -28.5,13.5 l -11,-20  a 7,7 0 1 0 -13,6.5 z"/>
</svg>
