<?xml version="1.0" encoding="UTF-8"?>
<svg xmlns="http://www.w3.org/2000/svg" version="1.1" height="24px" width="24px" viewBox="0 0 192 192">
  <path style="fill:#F6695E;stroke:#919191;stroke-width:6;" d="m 32,20 88,0 a 12 12 0 0 1 12,12  l 0,88 a 12,12 0 0 1 -12,12 l -88,0 a 12,12 0 0 1 -12,-12 l 0,-88 a 12,12 0 0 1 12,-12 z"/>
  <path style="fill:#EDEDED;stroke:#919191;stroke-width:6;" d="m 52,40 88,0 a 12 12 0 0 1 12,12  l 0,88 a 12,12 0 0 1 -12,12 l -88,0 a 12,12 0 0 1 -12,-12 l 0,-88 a 12,12 0 0 1 12,-12 z"/>
  <path style="fill:#00BCD4;stroke:#919191;stroke-width:6;" d="m 72,60 88,0 a 12 12 0 0 1 12,12  l 0,88 a 12,12 0 0 1 -12,12 l -88,0 a 12,12 0 0 1 -12,-12 l 0,-88 a 12,12 0 0 1 12,-12 z"/>
</svg>
