<?xml version="1.0" encoding="UTF-8"?>
<svg xmlns="http://www.w3.org/2000/svg" version="1.1" height="22px" width="22px" viewBox="0 0 100 100">
  <circle style="fill:#777777;" cx="50" cy="50" r="48"/>
  <circle style="fill:#777777;" cx="50" cy="50" r="44"/>
  <path style="stroke:none;fill:#12C61C;" d="M 40 8 50 50 90 40 C 90 40 80 1 38 8 "/>
  <circle style=";stroke-width:6pt;stroke:#222222;fill:none;" cx="50" cy="50" r="42"/>
  <g style="fill:#aaaaaa;">
  <circle cx="50" cy="9" r="3"/>
  <circle cx="91" cy="50" r="3"/>
  <circle cx="50" cy="91" r="3"/>
  <circle cx="9" cy="50" r="3"/>
  </g>
  <path style="stroke:#ffffff;stroke-width:5;fill:none;" d="M 50 50 45 24"/>
  <path style="stroke:#ffffff;stroke-width:4;fill:none;" d="M 50 50 28 73"/>
  <circle style="fill:#ffffff;" cx="50" cy="50" r="4.5"/>
  <g transform="scale(0.4)">
  <defs>
  <mask id="mask_circle">
  <circle cx="50" cy="50" r="50" fill="white"/>
  <circle cx="50" cy="50" r="12" fill="black"/>
  </mask>
  <linearGradient x1="20" y1="60" x2="60" y2="40" id="Gradient" gradientUnits="userSpaceOnUse">
  <stop style="stop-color:#C07F00;stop-opacity:1" offset="0" />
  <stop style="stop-color:#FFB85B;stop-opacity:1" offset="1" />
  </linearGradient>
  </defs>
  <path style="fill:none;stroke:#DC9B1D;stroke-width:3;" d="M 96,81 61,12 C 57,2.7 43,2.7 39,12 39,12 5.4,78 3.4,83 c -2,5 0,12 8.6,12 l 71,0 c 12,0 17,-5 13,-14 z"/>
  <path style="fill:url(#Gradient);stroke:#444444;stroke-width:7" d="M 91,80 58,16 C 54,7.1 46,7.1 42,16 42,16 11,77 9,81 6.2,86 5.8,91 14,91 l 67,0 c 12,0 14,-3 10,-11 z"/>
  <path style="fill:#333333;" d="M 46,63 43,35 57,35 54,63 z"/>
  <circle cx="50" cy="73" r="7" style="fill:#333333"/>
  </g>
</svg>
