<?xml version="1.0" encoding="UTF-8"?>
<svg xmlns="http://www.w3.org/2000/svg" version="1.1" height="22px" width="22px" viewBox="0 0 100 100">
  <g transform="scale(0.521)">
  <defs>
  <linearGradient id="grad2" x1="0%" y1="0%" x2="0%" y2="100%">
  <stop offset="0%" style="stop-color:rgb(96,125,139);stop-opacity:1" />
  <stop offset="100%" style="stop-color:rgb(96,100,120);stop-opacity:1" />
  </linearGradient>
  </defs>
  <path style="fill:url(#grad2);stroke:#222222;" d="m 112,100 a 16,16 0 0 1 -32,0 l 0,-56 a 16,16 0 0 1 32,0 z"/>
  <path style="fill:#646464;stroke:#222222;" d="m 104,172 -16,0 0,-36 a 36,36 0 0 1 -28,-36 l 0,-36 16,0 0,36 a 20,20 0 0 0 40,0 l 0,-36 16,0 0,36 a 36,36 0 0 1 -28,36"/>
  </g>
</svg>
