<?xml version="1.0" encoding="UTF-8"?>
<svg xmlns="http://www.w3.org/2000/svg" version="1.1" height="256px" width="256px" viewBox="0 0 100 100">
  <path style="fill:none;stroke:#222222;stroke-width:4" d="m 2,51 14,0 0,13 0,-13 78,0 -10,0 0,-13 0,13 -31,0 0,-14"/>
  <rect x="25" y="10" rx="5" ry="5" width="50" height="84" style="fill:#888"/>
  <rect x="35" y="20" width="30" height="6" style="fill:none;stroke:#222;stroke-width:2px"/>
  <rect x="35" y="30" width="30" height="6" style="fill:none;stroke:#222;stroke-width:2px"/>
  <rect x="35" y="40" width="30" height="6" style="fill:none;stroke:#222;stroke-width:2px"/>
  <path d="M 35,65 65,65 M 35,70 65,70 M 35,75 65,75 M 35,80 65,80" style="fill:none;stroke:#666;stroke-width:2px"/>
  <circle cx="40" cy="55" r="3" style="fill:#00FF00"/>
  <circle cx="60" cy="55" r="3" style="fill:#FF0000"/>
</svg>
