/* XPM */
static char * gpccard_xpm[] = {
"16 16 64 1",
" 	c none",
".	c #39393C3C3939",
"X	c none",
"o	c #7B7B61615252",
"O	c #8C8C8A8A8C8C",
"+	c #737371717373",
"@	c #BDBDBABABDBD",
"#	c #B5B579794242",
"$	c #D6D6B2B29C9C",
"%	c #ADADAEAEADAD",
"&	c #F7F7BABA7373",
"*	c #CECEBEBEADAD",
"=	c #73738A8A9C9C",
"-	c #636382829494",
";	c #94949A9A9C9C",
":	c #848482828484",
">	c #E7E7C3C39494",
",	c #ADADB6B6BDBD",
"<	c #424269698484",
"1	c #84849292A5A5",
"2	c #5A5A79798C8C",
"3	c #7B7B92929494",
"4	c #6B6B8A8A9C9C",
"5	c #9C9CB2B27373",
"6	c #7B7B9A9AADAD",
"7	c #5A5A82829C9C",
"8	c #7B7B9292A5A5",
"9	c #84848A8A9494",
"0	c #737386867373",
"q	c #9C9CB2B2A5A5",
"w	c #6B6B79796363",
"e	c #ADADC3C37B7B",
"r	c #D6D6DBDB9494",
"t	c #B5B5C3C3BDBD",
"y	c #9494AEAEB5B5",
"u	c #73739A9AADAD",
"i	c #C6C6B2B2A5A5",
"p	c #8C8CAAAA7B7B",
"a	c #9C9CB2B28484",
"s	c #8C8CAAAAB5B5",
"d	c #A5A5B6B6BDBD",
"f	c #8484A2A2ADAD",
"g	c #6B6B8A8AA5A5",
"h	c #525249495252",
"j	c #C6C6C3C3C6C6",
"k	c #636379798C8C",
"l	c #6B6B9292A5A5",
"z	c #7B7BA2A2B5B5",
"x	c #73739292ADAD",
"c	c #949492929494",
"v	c #5A5A59595A5A",
"b	c #5A5A82829494",
"n	c #525282829494",
"m	c #C6C6D3D3D6D6",
"M	c #393930303939",
"N	c #949428283939",
"B	c #BDBD49495252",
"V	c #525279799494",
"C	c #525251515252",
"Z	c #9C9CA6A6ADAD",
"A	c #313130303131",
"S	c #636361616363",
"D	c #313161617B7B",
"F	c none",
"    .           ",
"XXXoO+@XXXXXXXXX",
"XX@#$%O+@XXXXXXX",
"XXo&*=-;:+@XXXXX",
"X@#>,<1-23 +@XXX",
"Xo&*455-6789++@X",
"@#>%0qwertyu30w+",
"+&i412ptausdfgd.",
"hj,k2lz6uuxlfxc ",
"@v ,4bndm8bg4yMX",
"XX@v+,-NBmm-Vc X",
"XXXX@CwZbNB28AXX",
"XXXXXX@CSZ2DO XX",
"XXXXXXXX@CS;AXXX",
"XXXXXXXXXX@C@XXX",
"FFFFFFFFFFFFFFFF"};
