<?xml version="1.0" encoding="UTF-8"?>
<svg xmlns="http://www.w3.org/2000/svg" version="1.1" height="22px" width="22px" viewBox="0 0 100 100">
  <path style="fill:#FF0000;" d="m 5,10 30,0 0,40 -30,0 z"/>
  <path style="fill:#00FF00;" d="m 35,10 30,0 0,40 -30,0 z"/>
  <path style="fill:#0000FF;" d="m 65,10 30,0 0,40 -30,0 z"/>
  <path style="fill:#FFFF00;" d="m 5,50 30,0 0,40 -30,0 z"/>
  <path style="fill:#FF00FF;" d="m 35,50 30,0 0,40 -30,0 z"/>
  <path style="fill:#00FFFF;" d="m 65,50 30,0 0,40 -30,0 z"/>
  <path style="fill:#FFF;stroke:#666;stroke-width:2" d="m 75,60 -7.5,7.5 -10,-30 30,10 -7.5,7.5 12.5,10 -7.5,7.5 z"/>
</svg>
