/* XPM */
static char *mplayer_xpm[] = {
"16 16 204 2",
"  	c None",
"01	c #1D153E",
"02	c #251B4F",
"03	c #2D2161",
"04	c #362773",
"05	c #3A2A7D",
"06	c #3A2A7C",
"07	c #23194C",
"08	c #2C205E",
"09	c #342670",
"0A	c #39297B",
"0B	c #787682",
"0C	c #817C94",
"0D	c #8982A6",
"0E	c #9087B5",
"0F	c #9188B6",
"10	c #857BAF",
"11	c #493B87",
"12	c #29AEDE",
"13	c #E3F6FC",
"14	c #FFFFFF",
"15	c #F1F0F6",
"16	c #4A4561",
"17	c #0BAEE7",
"18	c #AAE3F7",
"19	c #D1D1D1",
"1A	c #077399",
"1B	c #0BAEE8",
"1C	c #D9F2FB",
"1D	c #FEFEFE",
"1E	c #087DA7",
"1F	c #E0F5FC",
"20	c #07678A",
"21	c #E1F5FC",
"22	c #E5F6FD",
"23	c #E7F7FD",
"24	c #F5F4F8",
"25	c #D2CEE1",
"26	c #E2E0EC",
"27	c #E4E2ED",
"28	c #F0EFF5",
"29	c #CDC9DE",
"2A	c #D1CEE1",
"2B	c #FBFBFC",
"2C	c #DFDFDF",
"2D	c #CBCBCB",
"2E	c #086B8E",
"2F	c #E8F8FD",
"30	c #C2BDD7",
"31	c #3B2B7D",
"32	c #E1DFEB",
"33	c #5C4E93",
"34	c #8177AC",
"35	c #C5C0D9",
"36	c #4E408A",
"37	c #655899",
"38	c #8980B1",
"39	c #C1C1C1",
"3A	c #535353",
"3B	c #0A87B4",
"3C	c #0BAAE3",
"3D	c #EDF9FD",
"3E	c #A199C1",
"3F	c #6D619E",
"40	c #4A3B87",
"41	c #645799",
"42	c #55478F",
"43	c #756AA4",
"44	c #7F74AA",
"45	c #929292",
"46	c #8D8D8D",
"47	c #9A9A9A",
"48	c #919191",
"49	c #424242",
"4A	c #DEDEDE",
"4B	c #3E3E3E",
"4C	c #5D5D5D",
"4D	c #CFCFCF",
"4E	c #878787",
"4F	c #494949",
"50	c #BEBEBE",
"51	c #4D4D4D",
"52	c #3B3B3B",
"53	c #F3F3F3",
"54	c #FDFEFF",
"55	c #0BA3D9",
"56	c #0993C4",
"57	c #8075AB",
"58	c #A59DC3",
"59	c #3F2F80",
"5A	c #A9A2C6",
"5B	c #463785",
"5C	c #574A90",
"5D	c #B5AFCE",
"5E	c #575757",
"5F	c #C8C8C8",
"60	c #141414",
"61	c #E2E2E2",
"62	c #2A2A2A",
"63	c #A9A9A9",
"64	c #767676",
"65	c #5C5C5C",
"66	c #848484",
"67	c #ADADAD",
"68	c #C2C2C2",
"69	c #5F5F5F",
"6A	c #DDDDDD",
"6B	c #FAFDFF",
"6C	c #0879A1",
"6D	c #F3FBFE",
"6E	c #9087B6",
"6F	c #DCD9E8",
"70	c #A098C0",
"71	c #FAF9FC",
"72	c #776CA5",
"73	c #CCC8DE",
"74	c #968DBA",
"75	c #BBBBBB",
"76	c #656565",
"77	c #9B9B9B",
"78	c #686868",
"79	c #DADADA",
"7A	c #565656",
"7B	c #B4B4B4",
"7C	c #B2B2B2",
"7D	c #757575",
"7E	c #B5B5B5",
"7F	c #B1B1B1",
"80	c #B0B0B0",
"81	c #065F7E",
"82	c #F4FBFE",
"83	c #C0C0C0",
"84	c #7F7F7F",
"85	c #FDFDFD",
"86	c #F7FCFE",
"87	c #066587",
"88	c #E1DEEB",
"89	c #FCFBFD",
"8A	c #087FA9",
"8B	c #FAFDFE",
"8C	c #BCB6D3",
"8D	c #665A9A",
"8E	c #6A5E9D",
"8F	c #51438C",
"90	c #A8A1C6",
"91	c #FFFEFF",
"92	c #F1F1F1",
"93	c #B6B0CF",
"94	c #625597",
"95	c #BFBDC8",
"96	c #EDEDED",
"97	c #EFEEF5",
"98	c #7368A3",
"99	c #9B93BD",
"9A	c #EEF9FD",
"9B	c #9998A1",
"9C	c #F8F8FB",
"9D	c #EBEAF2",
"9E	c #111111",
"9F	c #8A8A8A",
"A0	c #F7F7F7",
"A1	c #F8F7FA",
"A2	c #84C2E3",
"A3	c #065A77",
"A4	c #221A42",
"A5	c #A19AC1",
"A6	c #EBE9F2",
"A7	c #FBFAFC",
"A8	c #CECADF",
"A9	c #7A6FA7",
"AA	c #000000",
"AB	c #1E1E1E",
"AC	c #A1A1A1",
"AD	c #958DB9",
"AE	c #32246B",
"AF	c #291E58",
"B0	c #201746",
"B1	c #221949",
"B2	c #867CAF",
"B3	c #2F2F2F",
"B4	c #BFBFBF",
"B5	c #A099C1",
"B6	c #352671",
"B7	c #56498F",
"B8	c #FDFDFE",
"B9	c #151515",
"BA	c #979797",
"BB	c #FCFCFC",
"BC	c #7065A1",
"BD	c #1E1641",
"BE	c #1D153F",
"BF	c #251B51",
"C0	c #9C94BE",
"C1	c #D8D8D8",
"C2	c #EFEFEF",
"C3	c #B8B2D0",
"C4	c #2E2162",
"C5	c #2A1F5B",
"C6	c #7165A1",
"C7	c #B3ADCD",
"C8	c #B7B1D0",
"C9	c #302366",
"CA	c #1F1642",
"CB	c #201744",
"                                ",
"                                ",
"            07090505050505050A  ",
"  1214141414141414141414141415  ",
"1A1C14141414141414141414141414  ",
"202114141414141414141414141414  ",
"  23241427292B2D141414141414142E",
"  3D3E3F41424446484A4A4D4F515355",
"  6D6E707274147577794F7C7E80141B",
"  86141414141414141414141414141B",
"  8B1414141414141414148C8D8F911B",
"  9B14141414141414149C9D9EA042A3",
"    0505050505050AAFB114AAB3B5  ",
"      BE              C0C214C4  ",
"                        CA      ",
"                                "
};
