<?xml version="1.0" encoding="UTF-8"?>
<svg xmlns="http://www.w3.org/2000/svg" version="1.1" height="48px" width="48px" viewBox="0 0 192 192">
  <path style="fill:#EDEDED;stroke:#646464;stroke-width:6;" d="m 42,10 108,0 a 12 12 0 0 1 12,12  l 0,148 a 12,12 0 0 1 -12,12 l -108,0 a 12,12 0 0 1 -12,-12 l 0,-148 a 12,12 0 0 1 12,-12 z m 6,48 96,0 m -96,24 96,0 m -96,24 96,0"/>
  <path style="fill:#545454;fill-rule:evenodd;" d="m 72,124 0,24 4,0 0,-12 1,0 5,12 4,0 -5 -12 a 6,6 0 0 0 -1,-12 z m 4,4 4,0 a 2,2 1 0 1 0,4 l -4,0 z m 12,-4 0,4 5,0 0,20 4,0 0,-20, 5,0 0,-4 z m 16,0 0,24 4,0  0,-12 5,0 0,-4, -5,0 0,-4 8,0 0,-4"/>
</svg>
