<?xml version="1.0" encoding="UTF-8"?>
<svg xmlns="http://www.w3.org/2000/svg" version="1.1" height="48px" width="48px" viewBox="0 0 192 192">
  <path style="fill:#EDEDED;stroke:#70BF73;stroke-width:6;" d="m 42,10 108,0 a 12 12 0 0 1 12,12  l 0,148 a 12,12 0 0 1 -12,12 l -108,0 a 12,12 0 0 1 -12,-12 l 0,-148 a 12,12 0 0 1 12,-12 z"/>
  <path style="stroke:#70BF73;stroke-width:6;fill:#70BF73;fill-opacity:0.5;" d="m 70,48 78,0 0,96 -78,0 z"/>
  <path style="stroke:#70BF73;stroke-width:6;fill:none;" d="m 46,48 24,0 0,96 -24,0 z m 0,24 102,0 m -102,16 102,0 m -102,16 102,0 m -102,16 102,0"/>
</svg>
