<?xml version="1.0" encoding="UTF-8"?>
<svg xmlns="http://www.w3.org/2000/svg" version="1.1" height="48px" width="48px" viewBox="0 0 192 192">
  <path style="fill:#EDEDED;stroke:#545454;stroke-width:6;" d="m 42,10 108,0 a 12 12 0 0 1 12,12  l 0,148 a 12,12 0 0 1 -12,12 l -108,0 a 12,12 0 0 1 -12,-12 l 0,-148 a 12,12 0 0 1 12,-12 z"/>
  <g transform="scale(1.92)">
  <path d="M 38 81.1 q 9 -18 0 -36 q -9 -18 0 -36" style="stroke:#E8B7B0;stroke-width:8;fill:none;" />
  <path d="M 46 85 q 9 -18 0 -36 q -9 -18 0 -36" style="stroke:#C72056;stroke-width:12;fill:none;" />
  <path d="M 53 88.5 q 9 -18 0 -36 q -9 -18 0 -36" style="stroke:#E8B7B0;stroke-width:4;fill:none;" />
  <path d="M 58 91 q 9 -18 0 -36 q -9 -18 0 -36" style="stroke:#C72056;stroke-width:8;fill:none;" />
  </g>
</svg>
