<?xml version="1.0" encoding="UTF-8"?>
<svg xmlns="http://www.w3.org/2000/svg" version="1.1" height="24px" width="24px" viewBox="0 0 100 100">
  <defs>
  <linearGradient x1="0" y1="30" x2="0" y2="70" id="Gradient" gradientUnits="userSpaceOnUse">
  <stop style="stop-color:#FF7500;stop-opacity:1" offset="0" />
  <stop style="stop-color:#FF0000;stop-opacity:1" offset="1" />
  </linearGradient>
  </defs>
  <path style="fill:#F0E215;stroke:#000;stroke-width:3;stroke-opacity:0.5" d="m 18,68 0,-22 15,-15 q 3,-3 6,0 q 3,3 6,-3 5,-5 8,1 q 3,6 6,-1 7,-8 11,1 l 4,7 q 1,2 4,3 q 2,0 2,2 q 5,14 -1,28 q -3,1 -3,3 q -5,7 -10,2 q -5,-5 -10,1 q -7,7 -14,0 -3,-3 -6,-1 q -9,7 -18,-5 z"/>
  <path style="fill:url(#Gradient);stroke:#FF7500;stroke-width:1;" d="m 20,70 0,-20 3,9 0,-11 3,4 1,-10 1,13 2,-4 1,-13 1,13 1.5,3 3,-20 3.5,23 7,-26 0,23 3,-6 4,-12 4,14 5,-18 4,17 4,-10 2,8, 2,4 1,-7 1,11 2,-6 0,15 -2,-6 -1,7 -2,-8 -3,14 0,-15 -4,6 -1,10 -3,-16 -3,15 -2,-14 -4,17 -2,-17 -4,6 -1,10 -4,-17 -2,16 -3,-12 -3,-2 -2,13 -1,-9,-1,-4 -2,12 -2,-8 -3,7 -2,-7 z"/>
  <path style="fill:none;stroke:#0000CA;stroke-width:3" d="M 14.5,50 A 28,28 0 1 1 85,50 M 19,45 19,70 M 80,45 80,70"/>
  <path style="fill:#0000CA" d="M 16,45 16,70 A 15,15 0 0 1 16,45 M 83,70 83,45 A 15,15 0 0 1 83,70"/>
</svg>
