<?xml version="1.0" encoding="UTF-8"?>
<svg xmlns="http://www.w3.org/2000/svg" version="1.1" height="24px" width="24px" viewBox="0 0 100 100">
  <path style="fill:#111111" d="M 10,3.1 10,97 90,97 90,3.1 z m 4,5.9 6,0 0,5 -6,0 z m 66,0 6,0 0,5 -6,0 z m -66,11 6,0 0,5 -6,0 z m 66,0 6,0 0,5 -6,0 z m -66,11 6,0 0,5 -6,0 z m 66,0 6,0 0,5 -6,0 z m -66,11 6,0 0,5 -6,0 z m 66,0 6,0 0,5 -6,0 z m -66,11 6,0 0,5 -6,0 z m 66,0 6,0 0,5 -6,0 z m -66,11 6,0 0,5 -6,0 z m 66,0 6,0 0,5 -6,0 z m -66,11 6,0 0,5 -6,0 z m 66,0 6,0 0,5 -6,0 z m -66,11 6,0 0,5 -6,0 z m 66,0 6,0 0,5 -6,0 z"/>
  <path style="fill:#92B0C9" d="m 23,5 54,0 0,26 -54,0 z m 0,29 54,0 0,28 -54,0 z m 0,31 54,0 0,30 -54,0 z"/>
  <ellipse style="fill:#FFF;stroke:#222;stroke-width:1" cx="70" cy="70" rx="29" ry="29"/>
  <path style="fill:#00FF00;stroke:#222;stroke-width:1" d="M 60,55 85,70 60,85 z"/>
</svg>
