/* XPM */
static char *gnumeric_xpm[] = {
"16 16 256 2",
"00	c #F9F9F9",
"01	c #F4F4F4",
"02	c #ECECEC",
"03	c #E3E3E3",
"04	c #DCDCDC",
"05	c #D6D6D6",
"06	c #CDCBCB",
"07	c #C4C4C4",
"08	c #EAB09F",
"09	c #E9A694",
"0A	c #EB9B87",
"0B	c #E39D8A",
"0C	c #D59B8E",
"0D	c #D49284",
"0E	c #A0B2C6",
"0F	c #99ACC3",
"10	c #95AAC0",
"11	c #B9B9B9",
"12	c #B4B3B3",
"13	c #A3A3A3",
"14	c #BE8E84",
"15	c #A09A99",
"16	c #91A7BE",
"17	c #8BA2BB",
"18	c #849CB6",
"19	c #8197B0",
"1A	c #8096AE",
"1B	c #9F9C9C",
"1C	c #9C9290",
"1D	c #959595",
"1E	c #98908F",
"1F	c #958F8D",
"20	c #8B8381",
"21	c #D8D969",
"22	c #D3D96B",
"23	c #D1D669",
"24	c #D5CB66",
"25	c #CFD369",
"26	c #CCD066",
"27	c #C5C370",
"28	c #CACC6A",
"29	c #CFCE66",
"2A	c #C7C86E",
"2B	c #C5CC64",
"2C	c #C2C761",
"2D	c #E48770",
"2E	c #E5816B",
"2F	c #CBBB61",
"30	c #C2A060",
"31	c #C4A25A",
"32	c #C38475",
"33	c #B2C978",
"34	c #BAC66A",
"35	c #B0BB63",
"36	c #ADAD5B",
"37	c #A5A359",
"38	c #B58176",
"39	c #BC9C58",
"3A	c #AD9E58",
"3B	c #97A676",
"3C	c #9C9B55",
"3D	c #92934C",
"3E	c #898A47",
"3F	c #85844D",
"40	c #E07A64",
"41	c #E4745E",
"42	c #E16F59",
"43	c #E06C56",
"44	c #DD7E69",
"45	c #DF7B66",
"46	c #D27662",
"47	c #CF7E6C",
"48	c #CA7867",
"49	c #C17D6D",
"4A	c #C17464",
"4B	c #DC6B54",
"4C	c #D66852",
"4D	c #D26650",
"4E	c #D1664F",
"4F	c #C6715F",
"50	c #C46B59",
"51	c #CB634E",
"52	c #C6604C",
"53	c #C25E4B",
"54	c #A57065",
"55	c #BA794F",
"56	c #B37E4E",
"57	c #BC6351",
"58	c #B76C5C",
"59	c #B26752",
"5A	c #A9695C",
"5B	c #A96857",
"5C	c #A5695C",
"5D	c #AD6447",
"5E	c #BD5C49",
"5F	c #B95A47",
"60	c #B55B49",
"61	c #B45946",
"62	c #B25745",
"63	c #AB5D4D",
"64	c #AE5845",
"65	c #AC5543",
"66	c #A55947",
"67	c #A65342",
"68	c #85756F",
"69	c #826B66",
"6A	c #9D6659",
"6B	c #93655B",
"6C	c #847A44",
"6D	c #81615E",
"6E	c #98574A",
"6F	c #93584B",
"70	c #8D5E52",
"71	c #845C54",
"72	c #8E5447",
"73	c #855145",
"74	c #A2513F",
"75	c #A04F3E",
"76	c #9A4E3D",
"77	c #78AF93",
"78	c #79AB86",
"79	c #7B92AC",
"7A	c #7C90A6",
"7B	c #7590AE",
"7C	c #728DAA",
"7D	c #708AA6",
"7E	c #6D86A2",
"7F	c #6A829D",
"80	c #508892",
"81	c #42959F",
"82	c #4C8892",
"83	c #4A8690",
"84	c #478590",
"85	c #4E838A",
"86	c #418E8E",
"87	c #3590A9",
"88	c #2D8BA2",
"89	c #29859C",
"8A	c #25839B",
"8B	c #268096",
"8C	c #7DA575",
"8D	c #508E7D",
"8E	c #667E98",
"8F	c #687A8F",
"90	c #62758C",
"91	c #677484",
"92	c #596E84",
"93	c #467B84",
"94	c #317F8E",
"95	c #217E93",
"96	c #2C7D8B",
"97	c #267D8D",
"98	c #217685",
"99	c #1D7A8D",
"9A	c #1B7689",
"9B	c #1A7285",
"9C	c #196F80",
"9D	c #166F81",
"9E	c #797979",
"9F	c #7A7370",
"A0	c #727272",
"A1	c #7D716F",
"A2	c #7B6F6C",
"A3	c #736B6B",
"A4	c #6E6D6D",
"A5	c #6B6564",
"A6	c #616161",
"A7	c #7B7E41",
"A8	c #64615E",
"A9	c #615C64",
"AA	c #77564E",
"AB	c #625857",
"AC	c #604F4B",
"AD	c #596678",
"AE	c #487179",
"AF	c #406E78",
"B0	c #426E75",
"B1	c #505A65",
"B2	c #4A5460",
"B3	c #5B5B5B",
"B4	c #505050",
"B5	c #5B514E",
"B6	c #574746",
"B7	c #4B4B4B",
"B8	c #434343",
"B9	c #70723B",
"BA	c #784034",
"BB	c #6B4338",
"BC	c #65433C",
"BD	c #5E5E33",
"BE	c #5D433C",
"BF	c #55413D",
"C0	c #7E3F32",
"C1	c #583D35",
"C2	c #53332C",
"C3	c #452F2A",
"C4	c #325C64",
"C5	c #2F5960",
"C6	c #3B4149",
"C7	c #2C555D",
"C8	c #234A52",
"C9	c #25464C",
"CA	c #1E4650",
"CB	c #1C434C",
"CC	c #393E42",
"CD	c #343B42",
"CE	c #193940",
"CF	c #393C3F",
"D0	c #36393D",
"D1	c #31373D",
"D2	c #323335",
"D3	c #3C2A26",
"D4	c #362522",
"D5	c #2B323A",
"D6	c #2A3037",
"D7	c #2B2F33",
"D8	c #262D34",
"D9	c #292A2A",
"DA	c #272829",
"DB	c #242526",
"DC	c #242413",
"DD	c #391D17",
"DE	c #2A1B17",
"DF	c #19383E",
"E0	c #17343A",
"E1	c #162B2F",
"E2	c #122326",
"E3	c #0E1D20",
"E4	c #1B1B1B",
"E5	c #1A1817",
"E6	c #1D1412",
"E7	c #141415",
"E8	c #1B1B0E",
"E9	c #18170D",
"EA	c #110C0B",
"EB	c #0C171A",
"EC	c #0E1214",
"ED	c #071012",
"EE	c #0E0D09",
"EF	c #0E0807",
"F0	c #080505",
"F1	c #050909",
"F2	c none",
"F3	c #000000",
"F4	c #000000",
"F5	c #000000",
"F6	c #000000",
"F7	c #000000",
"F8	c #000000",
"F9	c #000000",
"FA	c #000000",
"FB	c #000000",
"FC	c #000000",
"FD	c #000000",
"FE	c #000000",
"FF	c #000000",
"E7B7B7B7B7B7B7B7B7B7B7B7B7B7E4F2",
"B7B8CFCFCFCFCFCFCFD7CFCFCFD9B3F2",
"B7CF7C7C7C187C7C7CB27C7C7CD8B3F2",
"B7CF181818010101019E020202B7B3F2",
"B7CF7B7B7B020201029E020202B7B3F2",
"B7D9CDCDCDB4B4B7B7D9B4B4B4E4B3F2",
"B7CF7B7B7B020102029E030302B7B4F2",
"B7D17E7E7E06694A526063AA12B8B3F2",
"B7CF18196D41424B4C5151525FC0B7F2",
"B7CF7B6D4B4B4B4E51525F61616772F2",
"B7D9C62E4B4B4E52525F6167677576EF",
"B7CF7C2D4B51525F5F778889979B9CEC",
"B7D28F0851525E5F552389959A9D85F2",
"B70202690B5F61652F268C999D82E0F2",
"F2F2F2F2D432586625282793C5E0F2F2",
"F2F2F2F2F2F2DEBB3D3EB9E1F2F2F2F2"
};
