<?xml version="1.0" encoding="UTF-8"?>
<svg xmlns="http://www.w3.org/2000/svg" xmlns:xlink="http://www.w3.org/1999/xlink" version="1.1" height="48px" width="48px" viewBox="0 0 192 192">
  <defs>
  <linearGradient id="grad1" x1="30%" y1="0%" x2="100%" y2="0%">
  <stop offset="0%" style="stop-color:rgb(185,250,250);stop-opacity:1" />
  <stop offset="100%" style="stop-color:rgb(208,236,236);stop-opacity:1" />
  </linearGradient>
  </defs>
  <path style="fill:#919191;stroke:#919191;stroke-width:6;" d="m 32,160 a 12 12 0 0 1 -10,-14 l 36,-48 a 12 12 0 0 1 6,-6 l 64,0  a 12 12 0 0 1 6,6 l 36,48 a 12 12 0 0 1 -10,14 z"/>
  <path style="fill:url(#grad1);" d="m 26,142 36,-48 68,0 36,48 z"/>
  <circle style="fill:#E91E63;" cx="158" cy="155" r="3"/>
  <path style="fill:#545454;" d="m 155,30 10,10 -90,90 -10,-10 90,-90 z"/>
  <path style="fill:#545454;" d="m 75,130 -14,5 4,-15 z"/>0
</svg>
