<?xml version="1.0" encoding="UTF-8"?>
<svg xmlns="http://www.w3.org/2000/svg" xmlns:xlink="http://www.w3.org/1999/xlink" version="1.1" height="48px" width="48px" viewBox="0 0 192 192">
  <defs>
  <linearGradient id="grad1" x1="30%" y1="0%" x2="100%" y2="0%">
  <stop offset="0%" style="stop-color:rgb(185,250,250);stop-opacity:1" />
  <stop offset="100%" style="stop-color:rgb(208,236,236);stop-opacity:1" />
  </linearGradient>
  </defs>
  <path style="fill:#919191;stroke:#919191;stroke-width:6;" d="m 32,160 a 12 12 0 0 1 -10,-14 l 14,-48 120,0 14,48 a 12 12 0 0 1 -10,14 z"/>
  <path style="fill:url(#grad1);stroke:#919191;stroke-width:6;" d="m 36,98 0,-62 a 6,6 0 0 1 6,-6 l 108,0 a 6,6 0 0 1 6,6 l 0,62 z"/>
  <path style="fill:#CACACA;" d="m 30,130 8,-28 116,0 8,28 z m 48,3 32,0 a 6,6 0 0 1 6,6 l 1,12 a 6,6 0 0 1 -6,6 l -36,0 a 6,6 0 0 1 -6,-6 l 1,-12  a 6,6 0 0 1 6,-6"/>
  <path style="fill:#4CAF50;fill-opacity:0.4" d="m 42,40 2,-2 2,2 0,3 -4,0 z"/>
  <path style="fill:#3E3AF3;fill-opacity:0.4" d="m 42,48 a 2,2 1 1 1 0,0.01 z"/>
  <circle style="fill:#4CAF50;" cx="148" cy="155" r="3"/>
  <circle style="fill:#E91E63;" cx="158" cy="155" r="3"/>
</svg>
