<svg>
 <g style="fill:#ffff00;stroke:#000000" transform="translate(-127,-251)">
  <path d="m 317,446 -64,14 -25,61 -33,-57 -66,-4 44,-49 -15,-64 60,26 56,-34 -6,66 z" />
  <path d="m 450,387 -44,-23 -44,23 8,-49 -35,-34 49,-7 21,-44 22,44 49,6 -35,34 z" />
  <path d="m 551,761 -72,-95 -120,5 68,-98 -42,-112 115,34 93,-75 2,120 100,66 -113,39 z" />
  <path d="m 222,708 -19,-27 -33,0 20,-27 -10,-32 32,10 27,-20 0,33 27,19 -32,10 z" />
  <text x="177" y="408" transform="scale(0.8,1.2)"><tspan x="177" y="408" style="font-size:230;fill:#aa0000;font-family:Serif">TOP</tspan></text>
  <text x="275" y="613" transform="scale(0.8,1.2)"><tspan x="275" y="613" style="font-size:233px;fill:#800000;font-family:Serif">HITS</tspan></text>
 </g>
</svg>
