<?xml version="1.0" encoding="UTF-8"?>
<svg xmlns="http://www.w3.org/2000/svg" version="1.1" height="22px" width="22px" viewBox="0 0 100 100">
  <path d="M 10,40 Q 25,50 30,60 Q 55,90 80,60 C 105,60 105,40 80,40 L 40,40 Q 29,45 13,35 z M 40,38 L 70,38 Q 55,19 40,38 z M 84,46 A 9,4 0 1 1 82,54 Q 84,49 84,46 z M 25,77 L 85,77 L 85,79 Q 77,79 69,84 L 41,84 Q 33,79 25,79 z" style="stroke:none;fill:#ECD92D"/>
  <circle cx="55" cy="24" r="5" style="fill:#ECD92D"/>
  <path d="M 55,45 L 58,50 L 55,55 L 52,50 z M 45,45 L 47,49 L 45,53 L 43,49 z M 65,45 L 67,49 L 65,53 L 63,49 z" style="stroke:#000;fill:#D22E2E"/>
  <path d="M 9,39 L 12,34 A 5,5 0 0 0 14,27 A 6,6 0 0 0 16,18 A 5,5 0 0 0 16,13  A 4,4 0 0 0 6,18 A 4,4 0 0 0 7,20 A 6,6 0 0 0 6,28 A 8,8 0 0 0 9,39 z" style="stroke:#AAA;fill:#CCC"/>
</svg>
