<?xml version="1.0" encoding="UTF-8"?>
<svg xmlns="http://www.w3.org/2000/svg" version="1.1" height="24px" width="24px" viewBox="0 0 100 100">
  <ellipse cx="50" cy="55" rx="47" ry="30" style="fill:#5B4904;stroke:#222"/>
  <ellipse cx="50" cy="45" rx="47" ry="30" style="fill:#A8965D;stroke:#FFEF7C"/>
  <path style="fill:#444" d="m 47,19 0,3 c -18,1 -26,6 -27,12 -1,4 3,6 9,8 5,1 12,2 18,2 l 0,15 C 40,59 37,58 34,56 32,55 29,53 29,50 l -11,0 c -1,7 10,13 29,13 l 0,6 7,0 0,-6 c 7,0 14,-1 19,-3 7,-3 12,-5 12,-10 0,-4 -4,-6 -12,-7 -5,-1 -10,-1 -19,-2 l 0,-14 c 10,0 15,2 15,6 l 13,0 C 82,28 71,23 54,22 l 0,-3 -7,0 m 1,22 C 37,39 32,37 32,33 c 0,-4 6,-5 16,-6 m 6,17 c 14,1 19,3 19,7 0,2 -1,4 -5,6 -4,1 -7,2 -14,2 l 0,-15"/>
  <path style="fill:#F2E9D2" d="m 47,21 0,3 c -18,1 -26,6 -27,12 -1,4 3,6 9,8 5,1 12,2 18,2 l 0,15 C 40,61 37,60 34,58 32,57 29,55 29,52 l -11,0 c -1,7 10,13 29,13 l 0,6 7,0 0,-6 c 7,0 14,-1 19,-3 7,-3 12,-5 12,-10 0,-4 -4,-6 -12,-7 -5,-1 -10,-1 -19,-2 l 0,-14 c 10,0 15,2 15,6 l 13,0 C 82,30 71,25 54,24 l 0,-3 -7,0 m 1,22 C 37,41 32,39 32,35 c 0,-4 6,-5 16,-6 m 6,17 c 14,1 19,3 19,7 0,2 -1,4 -5,6 -4,1 -7,2 -14,2 l 0,-15"/>
</svg>
