<?xml version="1.0" encoding="UTF-8"?>
<svg xmlns="http://www.w3.org/2000/svg" version="1.1" height="32px" width="32px" viewBox="0 0 100 100">
  <path style="fill:#D0CEA9;stroke:#222222;stroke-width:2" d="M 4,88 C 4,87 3.6,25 3.6,25 3.6,25 3,20 8,20 c -1,0 6,0 6,0 l 0,-6 c 0,0 0,-3 3,-3 l 17,0 c 0,0 3,0 3,3 l 0,6 43,0 c 0,0 4,0 4,4 l -2,64 z"/>
  <path style="fill:#E8DC88;stroke:#222222;stroke-width:2;fill-opacity:0.8" d="M 4,88 15,40 c 0,0 0,-7 8,-7 10,0 66,0 66,0 0,0 9,-1 7,6 -2,7 -12,49 -12,49 z"/>
  <path style="fill:none;stroke:#777;stroke-width:2" d="M 42,75 47,50  65,50 60,75 z"/>
  <path style="fill:none;stroke:#777;stroke-width:2" d="M 50,55 59,55 M 49,60 58,60 M 48,65 57,65"/>
</svg>
