<?xml version="1.0" encoding="UTF-8"?>
<svg xmlns="http://www.w3.org/2000/svg" version="1.1" height="64px" width="64px" viewBox="0 0 192 192">
  <path style="fill:#FFC107;" d="m 32,35 118,0 a 12 12 0 0 1 12,12  l 0,83 a 12,12 0 0 1 -12,12 l -98,0 -25,20 5,-20 a 12,12 0 0 1 -12,-12 l 0,-83 a 12,12 0 0 1 12,-12 z"/>
  <path style="fill:#F6695E;" d="m 72,60 88,0 a 12 12 0 0 1 12,12  l 0,68 a 12,12 0 0 1 -12,12 l -10,0 5,25 -30,-25 -63,0 a 12,12 0 0 1 -12,-12 l 0,-68 a 12,12 0 0 1 12,-12 z"/>
</svg>
