<?xml version="1.0" encoding="UTF-8"?>
<svg xmlns="http://www.w3.org/2000/svg" version="1.1" height="64px" width="64px" viewBox="0 0 192 192">
  <path style="fill:#3E2723;stroke:none" d="m 22,30 148,0 a 12 12 0 0 1 12,12  l 0,108 a 12,12 0 0 1 -12,12 l -148,0 a 12,12 0 0 1 -12,-12 l 0,-108 a 12,12 0 0 1 12,-12 z"/>
  <path style="fill:#00BCD4;stroke:none" d="m 22,50  a 10 10 0 0 1 10,-10 l 128,0 a 10 10 0 0 1 10,10 l 0,88 -53,-80 -42,60  -31,-42 -22,32 z"/>
  <circle style="fill:#FFEF62;stroke:none" cx="50" cy="56" r="10"/>
  <path style="fill:#545454;" d="m 112,122 a 52,52 0 1 1 10,-10 l 50,50 -10,10 z m -72,-42 a 40,40 1 1 0 0,-0.01 z"/>
  <circle style="fill:#FFF;fill-opacity:0.5" cx="80" cy="80" r="40"/>
</svg>
