<?xml version="1.0" encoding="UTF-8"?>
<svg xmlns="http://www.w3.org/2000/svg" version="1.1" height="64px" width="64px" viewBox="0 0 192 192">
  <path style="fill:#EDEDED;stroke:#545454;stroke-width:6;" d="m 42,10 108,0 a 12 12 0 0 1 12,12  l 0,148 a 12,12 0 0 1 -12,12 l -108,0 a 12,12 0 0 1 -12,-12 l 0,-148 a 12,12 0 0 1 12,-12 z"/>
  <g transform="scale(1.8) translate(3,5)">
  <path style="fill:none;stroke:#BF3603;stroke-width:4;" d="m 49,56 c -17,4 -27,10 -29,14 -2,4 -1,9 6,4 7,-5 20,-32 23,-53 1,-7 -7,-11 -7,-2 0,12 6,34 30,41 9,2 10,-7 0,-7 -10,0 -23,3 -23,3 z"/>
  </g>
</svg>
