<?xml version="1.0" encoding="UTF-8"?>
<svg xmlns="http://www.w3.org/2000/svg" version="1.1" height="64px" width="64px" viewBox="0 0 192 192">
  <path style="fill:none;stroke:#545454;stroke-width:10;" d="m 22,30 148,0 a 12 12 0 0 1 12,12 l 0,108 a 12,12 0 0 1 -12,12 l -148,0 a 12,12 0 0 1 -12,-12 l 0,-108 a 12,12 0 0 1 12,-12 z"/>
  <path style="fill:none;stroke:#545454;stroke-width:10;" d="m 22,30 148,0 a 12 12 0 0 1 12,12 l -86,42 -86,-42 a 12,12 0 0 1 12,-12 z"/>
  <path style="fill:#27276B;" d="m 174,10 q -30,4 -70,0 c -50,-3 -30,68 0,58 c -28,6 -48,-58 0,-52 c 35,6 58,6 70,-6 z
  m -80,46 c 60,-26 60,80 -20,80 c -60,0 -60,-66 0,-30 q 20,12 40,40 q -17,-23 -42,-38 c -56,-31 -56,27 2,27 c 66,0 66,-100 20,-79"/>
</svg>
