<?xml version="1.0" encoding="UTF-8"?>
<svg xmlns="http://www.w3.org/2000/svg" version="1.1" height="64px" width="64px" viewBox="0 0 192 192">
  <path style="fill:#407380;stroke:#616161;stroke-width:10;" d="m 22,30 148,0 a 12 12 0 0 1 12,12  l 0,108 a 12,12 0 0 1 -12,12 l -148,0 a 12,12 0 0 1 -12,-12 l 0,-108 a 12,12 0 0 1 12,-12 z"/>
  <path style="fill:#333333;stroke:none;" d="m 152,35 18,0 a 7 7 0 0 1 7,7  l 0,108 a 7,7 0 0 1 -7,7 l -102,0 6,-80 78,0 z"/>
  <rect style="fill:#03A9F4" width="10" height="10" x="30" y="45"/>
  <rect style="fill:#545454" width="10" height="10" x="30" y="65"/>
  <rect style="fill:#009688" width="10" height="10" x="30" y="85"/>
  <g transform="scale(1.8)">
  <path style="fill:#aaaaaa;stroke:#111111;stroke-width:2;stroke-linejoin:bevel" d="m 55,71 9,0 0,27 -9,0 z m 34,-36 7,0 0,16 -34,11 0,7 -5,0 0,-10 35,-11 0,-10 -3,0 z m -60,0 4,0 0,3 -4,0 z"/>
  <path style="fill:#529BB0;stroke:#6EB3C7;stroke-width:2;stroke-linejoin:bevel;" d="m 35,28 0,18 52,0 0,-18 z"/>
  <path style="fill:#73D0E8;stroke-linejoin:bevel;" d="m 36,30 49,0 0,3 -49,0 z"/>
  </g>
</svg>
