<?xml version="1.0" encoding="UTF-8"?>
<svg xmlns="http://www.w3.org/2000/svg" version="1.1" width="250" height="250" viewBox="0 0 250 250"> 
 <g transform="matrix(1,0,0,1,-252,-282)">
  <path style="fill:#595959;fill-opacity:0.7;stroke:#222222" d="m 501,410 a 121,121 0 0 1 -242,0 121,121 0 1 1 242,0 z"/>
  <path style="fill:#222222;fill-opacity:0.7;stroke:none" d="m 472,409 a 92,92 0 0 1 -184,0 92,92 0 1 1 184,0 z"/>
  <path style="fill:#5e9650;fill-opacity:1;stroke:none" d="m 438,408 c 0,6 -4,8 -4,8 l -76,44 c 0,0 -6,5 -12,2 -6,-3 -4,-7 -4,-7 l 0,-93 c 0,0 -1,-4 3,-7 4,-3 8,0 8,0 5,3 76,43 78,44 0,0 7,3 7,9 z"/>
 </g>
</svg>
