/* XPM */
static char * application_x_gunzip_xpm[] = {
"37 42 695 2",
"  	c None",
". 	c #4B5245",
"+ 	c #4B5147",
"@ 	c #444A3E",
"# 	c #42483C",
"$ 	c #353930",
"% 	c #20231E",
"& 	c #4E5347",
"* 	c #60635E",
"= 	c #A2A69E",
"- 	c #B3BAAF",
"; 	c #8F9A84",
"> 	c #7D8772",
", 	c #6C7562",
"' 	c #121411",
") 	c #000000",
"! 	c #1F221C",
"~ 	c #5D6259",
"{ 	c #C5CAC2",
"] 	c #CACFC8",
"^ 	c #C2C8BF",
"/ 	c #95A18C",
"( 	c #8C9880",
"_ 	c #77816D",
": 	c #22251F",
"< 	c #0A0B09",
"[ 	c #5A5F55",
"} 	c #9FA39C",
"| 	c #B9BEB6",
"1 	c #B3BCAE",
"2 	c #8A967E",
"3 	c #76806C",
"4 	c #050605",
"5 	c #4F5649",
"6 	c #88907F",
"7 	c #97A18F",
"8 	c #7E8973",
"9 	c #5E6656",
"0 	c #242821",
"a 	c #252822",
"b 	c #3E433A",
"c 	c #353A32",
"d 	c #31342D",
"e 	c #161814",
"f 	c #3D413A",
"g 	c #818580",
"h 	c #4F544F",
"i 	c #3D433D",
"j 	c #3A3E36",
"k 	c #6E726D",
"l 	c #D0D2D0",
"m 	c #C2C5C2",
"n 	c #898B89",
"o 	c #4C504A",
"p 	c #474A45",
"q 	c #4B4C4B",
"r 	c #2D2F2D",
"s 	c #191A19",
"t 	c #30352F",
"u 	c #252524",
"v 	c #2F302E",
"w 	c #2C2D2B",
"x 	c #292B29",
"y 	c #101110",
"z 	c #191B17",
"A 	c #686B66",
"B 	c #C4C5C4",
"C 	c #B1B3B1",
"D 	c #6B6E6B",
"E 	c #282A26",
"F 	c #42463F",
"G 	c #676B63",
"H 	c #AFB7A9",
"I 	c #B0B8AA",
"J 	c #B1B9AA",
"K 	c #A0A69C",
"L 	c #4F504D",
"M 	c #2C2E2A",
"N 	c #4B4E49",
"O 	c #4A4F48",
"P 	c #242722",
"Q 	c #040504",
"R 	c #373B32",
"S 	c #595F54",
"T 	c #A4AB9E",
"U 	c #9CA094",
"V 	c #9CA395",
"W 	c #A0A999",
"X 	c #9CA494",
"Y 	c #BEC3B9",
"Z 	c #A1A39F",
"` 	c #737572",
" .	c #4A4B48",
"..	c #262724",
"+.	c #181A16",
"@.	c #30352C",
"#.	c #6B7562",
"$.	c #3A3F35",
"%.	c #030302",
"&.	c #232620",
"*.	c #79826D",
"=.	c #5C5D50",
"-.	c #35322C",
";.	c #181815",
">.	c #161713",
",.	c #262822",
"'.	c #7E8479",
").	c #D1D5CF",
"!.	c #DCDFDB",
"~.	c #C9CDC7",
"{.	c #A7AEA0",
"].	c #88937C",
"^.	c #87927B",
"/.	c #8E9A83",
"(.	c #8F9B84",
"_.	c #7E8974",
":.	c #242721",
"<.	c #010201",
"[.	c #565D4F",
"}.	c #5B5B4F",
"|.	c #2C2924",
"1.	c #020001",
"2.	c #676D62",
"3.	c #8E928B",
"4.	c #8F948C",
"5.	c #888E85",
"6.	c #78826F",
"7.	c #86927A",
"8.	c #97A28F",
"9.	c #9FA995",
"0.	c #9BA591",
"a.	c #95A08A",
"b.	c #717B67",
"c.	c #25271F",
"d.	c #0A0A07",
"e.	c #2F332B",
"f.	c #5F6053",
"g.	c #403B34",
"h.	c #100F0D",
"i.	c #7B8077",
"j.	c #ADB3A7",
"k.	c #9FA797",
"l.	c #67705F",
"m.	c #0C0D0B",
"n.	c #3D4238",
"o.	c #757D6E",
"p.	c #A1AB99",
"q.	c #A1AA98",
"r.	c #99A490",
"s.	c #8A957F",
"t.	c #5D624D",
"u.	c #141510",
"v.	c #41473B",
"w.	c #4A463E",
"x.	c #413C35",
"y.	c #010000",
"z.	c #181917",
"A.	c #414541",
"B.	c #434942",
"C.	c #404640",
"D.	c #2F332F",
"E.	c #0E0F0D",
"F.	c #1B1D19",
"G.	c #7C8475",
"H.	c #A5AF9D",
"I.	c #97A18E",
"J.	c #8A937E",
"K.	c #6F745D",
"L.	c #0E0F0B",
"M.	c #626858",
"N.	c #454139",
"O.	c #444038",
"P.	c #181A18",
"Q.	c #4D504D",
"R.	c #3F433F",
"S.	c #191B19",
"T.	c #111311",
"U.	c #222520",
"V.	c #949D8A",
"W.	c #8C9480",
"X.	c #808771",
"Y.	c #616452",
"Z.	c #020201",
"`.	c #5C5E51",
" +	c #3B322F",
".+	c #433D37",
"++	c #7A7B7A",
"@+	c #B7BAB7",
"#+	c #B0B3B0",
"$+	c #6A6C6A",
"%+	c #101010",
"&+	c #0B0C09",
"*+	c #787D64",
"=+	c #868D79",
"-+	c #717864",
";+	c #0B0B09",
">+	c #686D5D",
",+	c #372F2B",
"'+	c #413D35",
")+	c #10110E",
"!+	c #262A23",
"~+	c #232423",
"{+	c #515351",
"]+	c #4F524F",
"^+	c #212321",
"/+	c #0E0F0E",
"(+	c #414333",
"_+	c #7C816B",
":+	c #7B806A",
"<+	c #11130F",
"[+	c #676A5B",
"}+	c #352C29",
"|+	c #433E37",
"1+	c #060706",
"2+	c #181A17",
"3+	c #202320",
"4+	c #999A98",
"5+	c #C3C3C3",
"6+	c #CFD3CF",
"7+	c #B7BCB7",
"8+	c #939893",
"9+	c #525252",
"0+	c #1F221F",
"a+	c #373C37",
"b+	c #4E554E",
"c+	c #050503",
"d+	c #71755E",
"e+	c #626352",
"f+	c #0C0E0B",
"g+	c #070706",
"h+	c #5B5C4F",
"i+	c #362D2A",
"j+	c #3C3630",
"k+	c #151714",
"l+	c #303430",
"m+	c #9EA69E",
"n+	c #BAC1BA",
"o+	c #BBC1BA",
"p+	c #9CA69C",
"q+	c #858F85",
"r+	c #666F66",
"s+	c #575D57",
"t+	c #434943",
"u+	c #0B0C0B",
"v+	c #151715",
"w+	c #080907",
"x+	c #666956",
"y+	c #5A594A",
"z+	c #090908",
"A+	c #030303",
"B+	c #5C5C50",
"C+	c #3C3430",
"D+	c #312B27",
"E+	c #21241F",
"F+	c #40453E",
"G+	c #899589",
"H+	c #C6CCC6",
"I+	c #D0D4D0",
"J+	c #B3BBB3",
"K+	c #949F94",
"L+	c #757F75",
"M+	c #737A73",
"N+	c #5E665E",
"O+	c #4A504A",
"P+	c #2C302C",
"Q+	c #2D312D",
"R+	c #2B2F2B",
"S+	c #2B2F27",
"T+	c #060605",
"U+	c #535849",
"V+	c #494A3D",
"W+	c #060505",
"X+	c #6F7164",
"Y+	c #292824",
"Z+	c #484947",
"`+	c #B8BCB4",
" @	c #3A3F36",
".@	c #717B6E",
"+@	c #A1ABA1",
"@@	c #B7BEB7",
"#@	c #BAC0BA",
"$@	c #A9AEA9",
"%@	c #9BA19B",
"&@	c #868B86",
"*@	c #737873",
"=@	c #4F564F",
"-@	c #3C423C",
";@	c #484E48",
">@	c #3A3F3A",
",@	c #61675C",
"'@	c #B4BAAC",
")@	c #2C2E29",
"!@	c #474B3D",
"~@	c #414438",
"{@	c #0B0C0A",
"]@	c #191C17",
"^@	c #0B0B0A",
"/@	c #262723",
"(@	c #92938F",
"_@	c #F7F7F6",
":@	c #FBFCFB",
"<@	c #8E9487",
"[@	c #262A24",
"}@	c #474D47",
"|@	c #8F968F",
"1@	c #9CA49C",
"2@	c #808980",
"3@	c #767F76",
"4@	c #717B71",
"5@	c #5D655D",
"6@	c #596159",
"7@	c #454C45",
"8@	c #3E433E",
"9@	c #464945",
"0@	c #E8EAE7",
"a@	c #F2F3F1",
"b@	c #3C4039",
"c@	c #45483D",
"d@	c #3F4136",
"e@	c #1F211C",
"f@	c #393F34",
"g@	c #565D4E",
"h@	c #2A3027",
"i@	c #1D211B",
"j@	c #0A0C09",
"k@	c #040404",
"l@	c #8C8D8C",
"m@	c #F6F7F6",
"n@	c #EDEFEC",
"o@	c #A4B0AC",
"p@	c #9AA7A3",
"q@	c #D0D6D0",
"r@	c #7D8874",
"s@	c #40463C",
"t@	c #212320",
"u@	c #171A17",
"v@	c #1E201E",
"w@	c #353A35",
"x@	c #333833",
"y@	c #2C2E2C",
"z@	c #505A53",
"A@	c #7D8E87",
"B@	c #A1ADA9",
"C@	c #EAEBEA",
"D@	c #080807",
"E@	c #414439",
"F@	c #3F4035",
"G@	c #505347",
"H@	c #5E6655",
"I@	c #4A5144",
"J@	c #31382D",
"K@	c #252A22",
"L@	c #131512",
"M@	c #575856",
"N@	c #575757",
"O@	c #BBBCBA",
"P@	c #EAECE9",
"Q@	c #F9F9F8",
"R@	c #CAD0CE",
"S@	c #909E9A",
"T@	c #A0ADA9",
"U@	c #BCC5C2",
"V@	c #9A9D97",
"W@	c #82867E",
"X@	c #6B7267",
"Y@	c #555D52",
"Z@	c #565D53",
"`@	c #6A736B",
" #	c #717C75",
".#	c #CDCECD",
"+#	c #F3F4F2",
"@#	c #EFF0F0",
"##	c #DADEDD",
"$#	c #5E605D",
"%#	c #262823",
"&#	c #3E4237",
"*#	c #3E3F34",
"=#	c #373931",
"-#	c #292D25",
";#	c #3F4539",
">#	c #22251E",
",#	c #33362C",
"'#	c #2F352A",
")#	c #2A2D27",
"!#	c #595F52",
"~#	c #585F53",
"{#	c #F3F4F3",
"]#	c #9A9B99",
"^#	c #898989",
"/#	c #9A9A99",
"(#	c #E2E2E2",
"_#	c #FDFDFD",
":#	c #F0F2F1",
"<#	c #C0C8C5",
"[#	c #8A9994",
"}#	c #92A09B",
"|#	c #A0ACA8",
"1#	c #D8DDDB",
"2#	c #E8EBE6",
"3#	c #EFF0ED",
"4#	c #E9EBEA",
"5#	c #95A29E",
"6#	c #7F9089",
"7#	c #9BA8A4",
"8#	c #F2F2F2",
"9#	c #525350",
"0#	c #3A3A39",
"a#	c #3D3F3C",
"b#	c #424539",
"c#	c #3D3E34",
"d#	c #33352C",
"e#	c #373D32",
"f#	c #1F211B",
"g#	c #3D3F34",
"h#	c #2A2E25",
"i#	c #1A1D17",
"j#	c #919D8F",
"k#	c #7D877E",
"l#	c #242723",
"m#	c #191A17",
"n#	c #979B93",
"o#	c #EBEDEA",
"p#	c #FFFFFF",
"q#	c #E2E2E1",
"r#	c #9D9D9C",
"s#	c #868686",
"t#	c #8B8B8A",
"u#	c #DDDEDD",
"v#	c #F3F4F4",
"w#	c #CCD3D1",
"x#	c #98A5A1",
"y#	c #82928D",
"z#	c #85958F",
"A#	c #BAC3C0",
"B#	c #EFF1EF",
"C#	c #EBEDEC",
"D#	c #636462",
"E#	c #2F2F2E",
"F#	c #454845",
"G#	c #494D3F",
"H#	c #3D3D33",
"I#	c #2E3028",
"J#	c #1B1C18",
"K#	c #30322A",
"L#	c #1B1E19",
"M#	c #0D0E0C",
"N#	c #777F6E",
"O#	c #919E86",
"P#	c #909E8D",
"Q#	c #939E99",
"R#	c #88928B",
"S#	c #464B45",
"T#	c #3B3D3A",
"U#	c #B1B4AE",
"V#	c #F1F2F0",
"W#	c #FCFCFC",
"X#	c #DCDCDC",
"Y#	c #A8A8A7",
"Z#	c #878786",
"`#	c #BEBEBE",
" $	c #D2D2D2",
".$	c #F5F6F6",
"+$	c #CFD6D3",
"@$	c #ECEDED",
"#$	c #F7F7F7",
"$$	c #5F605D",
"%$	c #3F403F",
"&$	c #2A2B2A",
"*$	c #5E6663",
"=$	c #4F5552",
"-$	c #4A4F41",
";$	c #3C3C33",
">$	c #2A2822",
",$	c #393A30",
"'$	c #303229",
")$	c #21251E",
"!$	c #0F110E",
"~$	c #565C51",
"{$	c #6F7669",
"]$	c #484D45",
"^$	c #43473F",
"/$	c #858F7F",
"($	c #98A298",
"_$	c #95A09A",
":$	c #929D95",
"<$	c #696F67",
"[$	c #1B1C19",
"}$	c #555852",
"|$	c #B0B5AC",
"1$	c #E1E4DF",
"2$	c #F4F4F4",
"3$	c #D0D0D0",
"4$	c #9B9D9A",
"5$	c #818280",
"6$	c #858584",
"7$	c #F3F3F3",
"8$	c #C7C8C7",
"9$	c #5B5D59",
"0$	c #363735",
"a$	c #313231",
"b$	c #636C66",
"c$	c #888F81",
"d$	c #444744",
"e$	c #4A5042",
"f$	c #36332C",
"g$	c #34302A",
"h$	c #2C2E26",
"i$	c #171914",
"j$	c #070806",
"k$	c #6F766B",
"l$	c #929E9A",
"m$	c #97A29B",
"n$	c #97A197",
"o$	c #7F867D",
"p$	c #4C5149",
"q$	c #50564E",
"r$	c #919A8F",
"s$	c #949F9A",
"t$	c #6D756F",
"u$	c #333632",
"v$	c #181B19",
"w$	c #0C0D0C",
"x$	c #383A35",
"y$	c #80847B",
"z$	c #DBDED8",
"A$	c #D8D9D8",
"B$	c #868A83",
"C$	c #6D6E6B",
"D$	c #606060",
"E$	c #515150",
"F$	c #272927",
"G$	c #636B68",
"H$	c #9FA897",
"I$	c #5E6457",
"J$	c #232820",
"K$	c #3E3E33",
"L$	c #2C2522",
"M$	c #35332C",
"N$	c #1B1E18",
"O$	c #020302",
"P$	c #5B6157",
"Q$	c #98A39B",
"R$	c #95A19A",
"S$	c #99A49B",
"T$	c #70796D",
"U$	c #4F544B",
"V$	c #727871",
"W$	c #89918B",
"X$	c #808A86",
"Y$	c #5C6460",
"Z$	c #3E4340",
"`$	c #2C2F2D",
" %	c #171918",
".%	c #323431",
"+%	c #8C8F89",
"@%	c #F0F1EE",
"#%	c #E8E8E8",
"$%	c #444444",
"%%	c #3D3F3D",
"&%	c #434643",
"*%	c #535957",
"=%	c #86907C",
"-%	c #7A8373",
";%	c #2E2824",
">%	c #1A1B16",
",%	c #3A3D37",
"'%	c #7D857B",
")%	c #949F97",
"!%	c #939E9A",
"~%	c #838E89",
"{%	c #666D66",
"]%	c #4D524B",
"^%	c #4A4D46",
"/%	c #636861",
"(%	c #969D94",
"_%	c #98A199",
":%	c #747C76",
"<%	c #525955",
"[%	c #3C4240",
"}%	c #2E3230",
"|%	c #232623",
"1%	c #414340",
"2%	c #292A28",
"3%	c #363936",
"4%	c #666F6A",
"5%	c #8D9882",
"6%	c #717A69",
"7%	c #292E25",
"8%	c #34362D",
"9%	c #39382F",
"0%	c #302C26",
"a%	c #202120",
"b%	c #444743",
"c%	c #808981",
"d%	c #939E98",
"e%	c #86918E",
"f%	c #606863",
"g%	c #474B47",
"h%	c #434642",
"i%	c #666A65",
"j%	c #989F95",
"k%	c #9EA59B",
"l%	c #828A83",
"m%	c #545B57",
"n%	c #292D2C",
"o%	c #545956",
"p%	c #737D74",
"q%	c #8F9A86",
"r%	c #777F6F",
"s%	c #31352C",
"t%	c #3A3D32",
"u%	c #3F4135",
"v%	c #36342C",
"w%	c #393E32",
"x%	c #090A08",
"y%	c #1B1C1B",
"z%	c #4F524D",
"A%	c #7D847B",
"B%	c #99A398",
"C%	c #96A29B",
"D%	c #7B8582",
"E%	c #545B5A",
"F%	c #3C413F",
"G%	c #414643",
"H%	c #5D635E",
"I%	c #9AA198",
"J%	c #9BA49C",
"K%	c #97A09A",
"L%	c #717A6E",
"M%	c #2C3128",
"N%	c #404236",
"O%	c #424438",
"P%	c #3E3E34",
"Q%	c #404539",
"R%	c #0E100D",
"S%	c #1F201F",
"T%	c #3F413E",
"U%	c #767C73",
"V%	c #97A297",
"W%	c #94A09A",
"X%	c #939F9A",
"Y%	c #919D99",
"Z%	c #848F8C",
"`%	c #5F6764",
" &	c #3D4240",
".&	c #3F4441",
"+&	c #747B77",
"@&	c #99A096",
"#&	c #1E221C",
"$&	c #3F4438",
"%&	c #43453A",
"&&	c #3C3D33",
"*&	c #45473B",
"=&	c #171B15",
"-&	c #323331",
";&	c #666A66",
">&	c #909A92",
",&	c #7E8985",
"'&	c #464B4A",
")&	c #262725",
"!&	c #33382D",
"~&	c #484C3F",
"{&	c #5C605C",
"]&	c #8B958F",
"^&	c #5C605A",
"/&	c #2D3128",
"(&	c #4B5042",
"_&	c #43463A",
":&	c #252920",
"<&	c #333433",
"[&	c #3D403E",
"}&	c #7E8680",
"|&	c #595C57",
"1&	c #32362D",
"2&	c #4C5344",
"3&	c #31362B",
"4&	c #121511",
"5&	c #393A37",
"6&	c #6C726A",
"7&	c #9DA79C",
"8&	c #565A55",
"9&	c #494F43",
"0&	c #373D31",
"a&	c #141712",
"b&	c #454942",
"c&	c #565B52",
"d&	c #99A093",
"e&	c #626660",
"f&	c #525A4C",
"g&	c #2C3228",
"h&	c #7D8477",
"i&	c #43463F",
"j&	c #1B1C1A",
"k&	c #31372D",
"l&	c #353C30",
"                                  . + @ # $ %                             ",
"                                & * = - ; > , ' ) ) ) ) ) )               ",
"                              ! ~ { ] ^ / ( _ : ) ) ) )                   ",
"                    ) ) ) ) ) < [ } | 1 2 2 3 4                           ",
"                ) ) ) ) ) )   ) 5 6 7 ( 8 9 0 )                           ",
"                )               < a b c d e )                             ",
"                                  f g h i j                               ",
"                                  k l m n o                               ",
"                                  p q r s t                               ",
"                    u v w x s y z A B C D E                               ",
"                  F G H I I J K L M N O P Q ) )                           ",
"                R S T U V W X Y Z `  ...+.@.#.$.%.                        ",
"                &.*.=.-.;.>.,.'.).!.~.{.].^./.(._.:.<.                    ",
"              ' [.}.|.1.      2.3.4.5.6.7.#.8.9.0.a.b.c.d.)               ",
"              e.f.g.h.          i.j.k.l.a m.n.o.p.q.r.s.t.u.)             ",
"            ) v.w.x.y.            z.A.B.C.D.) E.F.G.H.I.J.K.L.            ",
"            ) M.N.O.)             P.Q.R.S.T.      ) U.V.W.X.Y.Z.          ",
"            ) `. +.+)             ++@+#+$+%+        ) &+*+=+-+;+          ",
"            ) >+,+'+)         )+!+~+{+]+^+y /+        ) (+_+:+<+          ",
"            Z.[+}+|+)     1+2+3+4+5+6+7+8+9+0+a+b+      c+d+e+f+          ",
"            g+h+i+j+) ) g+k+l+m+n+o+p+q+r+s+t+y u+v+w+  ) x+y+z+          ",
"            A+B+C+D+Z.) E+F+G+H+I+J+K+L+M+N+O+P+Q+R+:.S+T+U+V+z+          ",
"            W+X+Y+) Z+`+ @.@+@@@#@$@%@&@*@=@-@;@b+>@,@'@)@!@~@{@m.]@      ",
"            ^@/@) (@_@:@<@[@}@|@K+1@2@3@4@5@6@7@8@9@0@a@b@c@d@e@f@g@h@i@j@",
"          k@A+l@m@n@o@p@q@r@s@t@u@v@>@w@x@^+u+y@z@A@B@C@D@E@F@G@H@I@J@! K@",
"        L@A+M@N@O@P@Q@R@S@T@U@~.V@W@X@Y@Z@`@ #.#+#@###$#%#&#*#=#-#;#>#,#'#",
"    e )#!#~#a@{#]#^#/#(#_#:#<#[#}#|#1#2#3#4#5#6#7#8#9#0#a#b#c#d#e#f#g#h#i#",
"    j#k#l#m#n#o#p#p#q#r#s#t#u#_#v#w#x#y#z#A#B#m@C#D#E#F#{@G#H#I#J#c#K#L#4 ",
"M#N#O#P#Q#R#S#T+T#U#V#p#W#X#Y#Z#`# $W#_#.$+$@$#$$$%$&$*$=$-$;$>$,$'$)$!$  ",
"~${$]$^$/$($_$:$<$[$4 }$|$1$:@2$3$4$5$6$ $7$8$9$0$a$b$c$d$e$f$g$h$i$j$    ",
"k$l$m$n$o$p$q$r$s$s$t$u$v$w$x$y$z$p#p#A$B$C$D$E$F$G$H$I$J$K$L$M$N$O$      ",
"P$Q$R$l$l$l$S$T$U$V$W$_$X$Y$Z$`$ %.%+%@%#%$%%%&%*%=%-%)$h#;%;%>%4         ",
"  ,%'%)%l$!%l$l$~%{%]%^%/%(%_%:%<%[%}%|%1%2%3%4%5%6%7%8%9%0%! T+          ",
"    z+a%b%c%d%l$Q$l$l$e%f%g%h%i%j%k%l%m%n%o%p%q%r%s%t%u%v%w%x%            ",
"          y%z%A%B%C%l$l$l$l$D%E%F%G%H%I%k%J%K%L%M%N%O%P%Q%R%              ",
"              S%T%U%V%W%_$l$X%l$Y%Z%`% &.&+&@&#&$&%&&&*&=&                ",
"                    -&;&>&l$m$l$l$X%W%l$,&'&)&!&~&b#F@#&<.                ",
"                        &${&]&l$l$W%l$X%l$l$^&/&(&_&:&1+                  ",
"                            <&[&}&Q$l$l$l$X%|&1&2&3&4&                    ",
"                                  5&6&7&R$W%8&9&0&a&                      ",
"                                      b&c&d&e&f&g&                        ",
"                                        h&i&j&k&l&                        "};
