<?xml version="1.0" encoding="UTF-8"?>
<svg xmlns="http://www.w3.org/2000/svg" version="1.1" height="32px" width="32px" viewBox="0 0 100 100">
  <ellipse cx="50" cy="55" rx="47" ry="30" style="fill:#5B4904;stroke:#222"/>
  <ellipse cx="50" cy="45" rx="47" ry="30" style="fill:#A8965D;stroke:#FFEF7C"/>
  <g transform="scale(0.5, 0.25), translate(12, 78)">
  <path style="fill:#5B4904" d="m 72,37 16,0 a 32,32 0 0 1 0,64 l 40,60 -17,0 -40,-60 0,-14 16,0 a 18,18 0 0 0 0,-36 l -20,0 z"/>
  <path style="fill:#5B4904" d="m 72,37 64,0 -4,14 -64,0 z m 0,24 64,0 -4,14 -64,0 z"/>
  <path style="fill:#F2E9D2" d="m 66,34 16,0 a 32,32 0 0 1 0,64 l 40,60 -17,0 -40,-60 0,-14 16,0 a 18,18 0 0 0 0,-36 l -20,0 z"/>
  <path style="fill:#F2E9D2" d="m 66,34 64,0 -4,14 -64,0 z m 0,24 64,0 -4,14 -64,0 z"/>
  </g>
</svg>
